<?xml version="1.0" standalone="no"?>
<svg version="1.1" id="Layer_1" xmlns="http://www.w3.org/2000/svg" xmlns:xlink="http://www.w3.org/1999/xlink" x="0px" y="0px" viewBox="0 0 595.28 595.28" enable-background="new 0 0 595.28 595.28" xml:space="preserve">
<path id="color_x5F_11" fill="#73CFE8" d="M242.268,436.064h45.872v13.017h-45.872V436.064z M176.386,368.417l6.88-3.55
	c-0.347-2.257-0.276-4.52,0.174-6.69l-6.698-4.111l2.83-6.123l7.377,2.554c1.175-1.537,2.595-2.903,4.231-4.037l-2.157-7.435
	l6.259-2.515l3.712,6.804c1.965-0.316,3.935-0.314,5.846-0.02l3.55-6.879l6.273,2.481l-1.986,7.49
	c1.898,1.297,3.57,2.949,4.912,4.906l7.446-2.117l2.481,6.273l-6.824,3.676c0.361,2.328,0.28,4.662-0.206,6.895l6.574,3.875
	l-2.83,6.123l-7.306-2.385c-1.163,1.498-2.56,2.832-4.165,3.941l2.027,7.481l-6.259,2.515l-3.587-6.861
	c-1.965,0.313-3.935,0.309-5.846,0.012l-3.676,6.823l-6.273-2.481l2.117-7.446c-1.896-1.299-3.566-2.954-4.905-4.913l-7.491,1.986
	L176.386,368.417z M189.281,367.112c2.818,7.014,10.789,10.416,17.804,7.598c7.014-2.818,10.416-10.789,7.598-17.804
	c-2.818-7.014-10.789-10.416-17.804-7.598C189.864,352.127,186.463,360.098,189.281,367.112z M191.662,366.254
	c-2.297-5.718,0.476-12.216,6.194-14.513c5.718-2.297,12.216,0.476,14.513,6.194c2.297,5.718-0.476,12.216-6.194,14.513
	C200.458,374.745,193.96,371.972,191.662,366.254z M193.108,365.674c1.977,4.92,7.567,7.306,12.487,5.329
	c4.92-1.977,7.306-7.567,5.329-12.487c-1.977-4.92-7.567-7.306-12.487-5.329C193.517,355.163,191.131,360.754,193.108,365.674z
	 M349.992,401.92H175.487c-2.199,0-3.982,1.783-3.982,3.982v0c0,2.199,1.783,3.982,3.982,3.982h174.504
	c2.199,0,3.982-1.783,3.982-3.982v0C353.974,403.703,352.191,401.92,349.992,401.92z"></path>
<path id="color_x5F_10" fill="#F36E3B" d="M143.711,250.199l-7.446,2.117c-1.341-1.957-3.014-3.61-4.912-4.906l1.986-7.49
	l-6.273-2.481l-3.55,6.879c-1.911-0.294-3.881-0.295-5.846,0.02l-3.712-6.804l-6.259,2.515l2.157,7.435
	c-1.636,1.134-3.056,2.501-4.231,4.037l-7.377-2.554l-2.83,6.123l6.698,4.111c-0.451,2.17-0.521,4.433-0.174,6.69l-6.88,3.55
	l2.481,6.273l7.491-1.986l0,0c1.339,1.959,3.009,3.614,4.905,4.913l-0.879,3.09l6.653-3.419l1.983,3.57l0.073-0.136
	c1.911,0.297,3.881,0.301,5.846-0.012l3.587,6.861l6.259-2.515l-2.027-7.481c1.605-1.11,3.002-2.443,4.165-3.941l7.306,2.385
	l2.83-6.123l-6.574-3.875c0.486-2.232,0.567-4.567,0.206-6.895l6.824-3.676L143.711,250.199z M125.76,275.733
	c-0.285,0.114-0.571,0.215-0.859,0.309c-0.389,0.564-2.729,2.889-3.115,3.034c-0.408,0.153-2.318,0.604-2.318,0.604l-2.037,1.685
	l-1.318-2.428l1.581-1.308c0,0-0.178-0.706-0.269-1.3c-4.144-1.011-7.757-3.935-9.468-8.195c-2.818-7.015,0.584-14.985,7.598-17.804
	c7.015-2.818,14.985,0.584,17.804,7.598C136.176,264.944,132.775,272.915,125.76,275.733z M111.074,287.372l6.21-4.724l-3.189,5.919
	L111.074,287.372z M131.045,258.958c2.297,5.718-0.476,12.216-6.194,14.513c-0.14,0.056-0.281,0.107-0.421,0.157
	c-0.322-0.444-0.723-0.917-1.089-1.282c0.312-0.09,0.622-0.197,0.93-0.32c4.92-1.977,7.306-7.567,5.329-12.487
	c-1.977-4.92-7.567-7.306-12.487-5.329c-4.92,1.977-7.306,7.567-5.329,12.487c1.662,4.136,5.877,6.469,10.1,5.937
	c-0.194,0.448-0.389,0.944-0.553,1.202c-0.089,0.14-0.215,0.289-0.355,0.438c-0.621,0.016-1.238-0.023-1.845-0.109
	c-0.019-0.401-0.1-0.825-0.391-1.048c-0.576-0.443-1.084-0.232-1.032,0.276c0.012,0.119,0.008,0.287-0.006,0.474
	c-3.229-0.901-6.018-3.238-7.364-6.588c-2.297-5.718,0.476-12.216,6.194-14.513C122.25,250.467,128.748,253.24,131.045,258.958z
	 M286.433,217.101c0,0,0.163,8.738-6.744,10.031c-4.099,0.767-7.055-0.183-7.862-0.491c1.333-1.355,3.747-2.999,7.772-3.308
	c0,0-3.92-0.635-7.74,2.11c0.476-1.669,1.711-4.777,4.524-6.13C280.563,217.302,284.181,219.955,286.433,217.101z M386.662,340.554
	c-0.178,0.509,0.307,1.113,0.496,1.563c0.189,0.45,0.099,0.706,0.099,0.706s-2.303-2.126-2.473-2.476
	c-0.12-0.246-0.692-0.943-1.213-1.404c-4.241-6.279-12.341-9.14-19.799-6.46c-8.82,3.17-13.401,12.89-10.231,21.711
	c3.17,8.821,12.89,13.401,21.71,10.231c7.217-2.594,11.592-9.572,11.21-16.855c0.601,0.304,1.223,0.595,1.223,0.595l1.519,1.469
	c-0.462,7.635-5.367,14.63-13.021,17.381c-10.251,3.684-21.549-1.639-25.233-11.891c-3.684-10.251,1.64-21.549,11.891-25.233
	c9.516-3.42,19.929,0.925,24.321,9.766C386.946,339.949,386.749,340.306,386.662,340.554z M268.204,222.279
	c-1.484-1.953-4.411-5.426-7.602-7.148c0,0,5.12,4.45,7.272,7.921c-0.823,0.501-4.296,2.257-8.598-0.744
	c-5.186-3.618-1.749-13.77-1.749-13.77s0.784,2.523,2.895,3.729C262.89,213.677,269.676,214.826,268.204,222.279z M411.122,362.51
	l2.126,1.362l-5.401,10.632l-12.75-4.691c-2.153,2.571-4.708,4.835-7.616,6.69l3.091,13.348l-11.222,4.033l-5.887-12.355
	c-3.492,0.424-6.972,0.288-10.328-0.361l-6.94,11.812l-10.919-4.794l4.227-13.015c-3.264-2.42-6.107-5.451-8.343-9l-13.364,3.018
	l-3.973-11.244l12.387-5.821c-0.465-4.01-0.193-8.003,0.745-11.807l-11.563-7.7l5.401-10.632l12.865,4.995
	c2.176-2.638,4.774-4.959,7.738-6.856l-3.324-13.276l11.222-4.033l6.113,12.262c3.492-0.429,6.972-0.297,10.329,0.347l6.721-11.921
	l10.919,4.794l-3.999,13.102c3.268,2.415,6.114,5.443,8.355,8.989l13.293-3.252l3.973,11.244l-12.295,6.047
	c0.428,3.644,0.248,7.274-0.488,10.762l-7.516-6.128l-1.041-0.849c-0.01-2.689-0.466-5.421-1.428-8.096
	c-4.52-12.576-18.378-19.107-30.954-14.587c-12.576,4.519-19.107,18.378-14.587,30.954s18.378,19.107,30.954,14.587
	c8.149-2.929,13.755-9.781,15.465-17.662l13.552,13.11L411.122,362.51z M270.241,215.034l-0.412-12.688l-0.356,12.611
	c-5.081-2.964-5.777-10.504-1.815-15.264c3.255-3.911,1.749-6.875,1.749-6.875s8.383,5.97,7.659,13.689
	C276.459,212.978,271.749,214.659,270.241,215.034z"></path>
<path id="color_x5F_9" fill="#A4BFCE" d="M179.705,454.802c0.655-0.436,1.733-0.056,2.642,0.429
	c-1.381-0.093-2.602,0.407-3.324,0.796C179.092,455.539,179.284,455.082,179.705,454.802z M271.373,460.987
	c-2.289-0.124-2.784,1.175-2.784,1.175s0-4.515-2.66-5.01c-2.66-0.495-3.959,1.608-3.959,1.608s1.052-5.381-0.742-6.124
	c-1.794-0.742-3.649,2.474-3.649,2.474s0.557-6.309-2.412-6.928c-2.969-0.619-4.948,6.928-4.948,6.928s0.557-5.691-2.598-6.062
	c-3.155-0.371-4.577,3.773-4.577,3.773s0.928-5.196-0.928-5.876c-1.856-0.68-6.185,3.093-6.185,3.093s2.165-5.196-0.433-6
	c-2.598-0.804-5.443,4.268-5.443,4.268s1.917-6.371-0.495-7.422c-2.412-1.052-3.34,0-3.34,0s1.732-4.144-0.371-4.33
	c-2.103-0.186-5.085,3.34-5.085,3.34s1.374-3.835-0.729-4.206c-2.103-0.371-3.711,2.103-3.711,2.103s5.938-15.958-0.124-17.567
	c-6.062-1.608-13.608,13.237-13.608,13.237s-1.546-3.649-3.278-2.969c-1.732,0.68-2.845,8.969-2.845,8.969s-1.361-3.402-3.093-2.66
	c-1.732,0.742-1.423,5.876-1.423,5.876s-1.794-3.216-3.526-2.289c-1.732,0.928,0.309,4.948,0.309,4.948s-2.845-1.917-4.392-1.051
	s1.546,6.68,1.546,6.68s-2.103-2.041-2.783,0.186c-0.461,1.509,0.1,3.327,0.51,4.345c0.125,0.044,0.25,0.086,0.376,0.143
	c2.883,1.302,1.281,4.069,1.601,4.069s6.833-5.859,9.715-4.313c2.883,1.546,0.961,3.255,0.961,3.255s5.231-1.709,6.512-0.325
	c1.281,1.383-1.922,3.824-1.922,3.824s8.434,0.732,14.199,1.953c5.765,1.221,8.541-0.163,12.064-0.814
	c3.523-0.651,4.377,1.709,4.377,1.709l14.092,2.034l-61.824,0.016h88.16c0,0,0.381-3.214,1.92-5.103
	C273.114,461.434,272.312,461.038,271.373,460.987z M537.236,465.913c-3.045-0.516-3.768-0.465-5.162-1.239
	c-1.394-0.774-2.633-2.581-4.542-2.684c-1.91-0.103-2.323,0.981-2.323,0.981s0-3.768-2.22-4.181
	c-2.219-0.413-3.303,1.342-3.303,1.342s0.877-4.491-0.619-5.11c-1.497-0.619-3.045,2.065-3.045,2.065s0.465-5.265-2.013-5.781
	c-2.478-0.516-4.129,5.781-4.129,5.781s0.465-4.749-2.168-5.059s-3.82,3.149-3.82,3.149s0.774-4.336-0.774-4.904
	c-1.549-0.568-5.162,2.581-5.162,2.581s1.807-4.336-0.361-5.007s-4.542,3.562-4.542,3.562s1.6-5.317-0.413-6.194
	c-2.013-0.878-2.787,0-2.787,0s1.445-3.458-0.31-3.613c-1.755-0.155-4.244,2.787-4.244,2.787s1.147-3.2-0.608-3.51
	c-0.054-0.01-0.107-0.01-0.16-0.015l-0.888-45.557l0.018-0.001l-0.956-32.071c1.712-2.87,4.423-6.96,7.862-10.653
	c0,0-4.49,2.852-7.947,7.803l-1.845-61.89c2.011-5.706,6.722-18.396,10.834-24.396c0,0-6.712,8.446-10.973,19.706l-0.814-27.297
	l-0.466,65.955c-0.687-1.547-7.24-16.084-15.837-26.985c0,0,12.598,20.219,15.807,31.26l-0.415,58.739l-0.694,33.23
	c-4.147,2.582-8.081,10.315-8.081,10.315s-1.29-3.045-2.736-2.478c-1.445,0.568-2.374,7.485-2.374,7.485s-1.136-2.839-2.581-2.22
	c-1.445,0.619-1.187,4.904-1.187,4.904s-1.497-2.684-2.942-1.91c-1.445,0.774,0.258,4.129,0.258,4.129s-2.374-1.6-3.665-0.878
	c-1.29,0.723,1.29,5.575,1.29,5.575s-1.755-1.703-2.323,0.155c-0.568,1.858,0.723,4.284,0.723,4.284s-2.477-1.961-3.562-1.239
	c-1.084,0.723-0.361,2.839-0.361,2.839s-2.529-2.22-4.233-1.6c-1.703,0.619-0.258,4.233-0.258,4.233s-1.497-2.839-2.787-2.013
	c-0.354,0.226-0.557,0.562-0.67,0.929c1.869,0.821,3.44,2.049,5.131,2.709c2.609,1.018,3.961,0.951,9.661,1.629
	c5.7,0.679,14.781,1.494,14.781,1.494h5.114l-0.004,0.193l5.421-0.193h62.303C545.133,467.049,540.281,466.429,537.236,465.913z"></path>
<path id="color_x5F_8" fill="#F3FAFE" d="M193.108,365.674c-1.977-4.92,0.409-10.511,5.329-12.487
	c4.92-1.977,10.511,0.409,12.487,5.329c1.977,4.92-0.409,10.511-5.329,12.487C200.675,372.98,195.084,370.593,193.108,365.674z
	 M189.281,367.112c-2.818-7.014,0.584-14.985,7.598-17.804c7.015-2.818,14.985,0.583,17.804,7.598
	c2.818,7.015-0.584,14.985-7.598,17.804C200.07,377.528,192.099,374.127,189.281,367.112z M191.662,366.254
	c2.297,5.718,8.795,8.491,14.513,6.194c5.718-2.297,8.491-8.795,6.194-14.513c-2.297-5.718-8.795-8.491-14.513-6.194
	C192.138,354.039,189.365,360.536,191.662,366.254z M291.383,268.853h103.293v57.449c-1.597-1.832-3.373-3.475-5.3-4.9l3.999-13.102
	l-10.919-4.794l-6.721,11.921c-3.357-0.644-6.837-0.775-10.329-0.347l-6.113-12.262l-11.222,4.033l3.324,13.276
	c-2.964,1.897-5.562,4.217-7.738,6.856l-12.865-4.995l-5.401,10.632l11.563,7.7c-0.938,3.804-1.21,7.797-0.745,11.807l-12.387,5.821
	l3.973,11.244l13.364-3.018c2.237,3.549,5.079,6.581,8.343,9l-4.227,13.015l10.919,4.794l6.94-11.812
	c3.356,0.649,6.836,0.785,10.328,0.361l5.887,12.355l11.222-4.033l-3.091-13.348c2.723-1.737,5.132-3.836,7.195-6.206v57.576
	h-38.392c1.596-5.083,2.295-11.213-3.105-12.22c-7.215-1.345-15.772,7.793-19.437,12.22h-3.815
	c-0.881-0.725-1.974-1.266-3.122-0.949c-0.438,0.121-0.851,0.464-1.235,0.949H218.784c0.409-3.597,0.027-6.955-2.585-7.648
	c-3.501-0.929-7.494,3.63-10.246,7.648h-53.404c-0.316-0.326-0.585-0.469-0.585-0.469c-3.429-1.318-7.272-0.86-11.016,0.469h-5.214
	V274.699l7.174,2.342l2.83-6.123l-3.503-2.065h105.628l3.319,7.709h36.491L291.383,268.853z M183.266,364.868l-6.88,3.55
	l2.481,6.273l7.491-1.986c1.339,1.959,3.009,3.614,4.905,4.913l-2.117,7.446l6.273,2.481l3.676-6.823
	c1.911,0.297,3.881,0.3,5.846-0.012l3.587,6.861l6.259-2.515l-2.027-7.481c1.605-1.11,3.002-2.443,4.165-3.941l7.306,2.385
	l2.83-6.123l-6.574-3.875c0.486-2.232,0.567-4.567,0.206-6.895l6.824-3.676l-2.481-6.273l-7.446,2.117
	c-1.341-1.957-3.014-3.61-4.912-4.906l1.986-7.49l-6.273-2.481l-3.55,6.879c-1.911-0.294-3.881-0.295-5.846,0.02l-3.712-6.804
	l-6.259,2.515l2.157,7.435c-1.636,1.134-3.056,2.501-4.231,4.037l-7.377-2.554l-2.83,6.123l6.698,4.111
	C182.99,360.347,182.92,362.61,183.266,364.868z M175.487,401.92c-2.199,0-3.982,1.783-3.982,3.982v0
	c0,2.199,1.783,3.982,3.982,3.982h174.504c2.199,0,3.982-1.783,3.982-3.982v0c0-2.199-1.783-3.982-3.982-3.982H175.487z
	 M300.659,291.912l-11.717,10.12c-3.328-1.97-6.983-3.442-10.865-4.321l-1.817-15.395h-13.491l-1.541,15.407
	c-3.882,0.885-7.536,2.362-10.862,4.338l-11.787-10.241l-9.818,9.253l9.365,12.623c-2.454,3.691-4.272,7.838-5.311,12.286
	l-15.416,1.458l-0.073,13.491l15.384,1.9c1.023,4.634,2.89,8.95,5.439,12.775l-9.481,12.24l9.791,9.282l11.909-9.921
	c3.325,1.975,6.978,3.451,10.859,4.336l1.541,15.407h13.491l1.817-15.395c3.806-0.862,7.393-2.296,10.669-4.209l11.781,9.873
	l9.818-9.253l-9.311-12.094c2.566-3.781,4.457-8.053,5.523-12.642l15.405-1.733l0.073-13.492l-15.398-1.624
	c-1.03-4.632-2.902-8.946-5.457-12.768l9.271-12.42L300.659,291.912z M250.478,334.817c0,10.604,8.596,19.201,19.201,19.201
	c10.604,0,19.201-8.596,19.201-19.201c0-10.604-8.596-19.201-19.201-19.201C259.074,315.616,250.478,324.213,250.478,334.817z
	 M382.974,338.534c0.164,0.055,0.376,0.212,0.598,0.408c-4.242-6.279-12.341-9.139-19.799-6.459
	c-8.82,3.17-13.401,12.89-10.231,21.711c3.17,8.821,12.89,13.401,21.71,10.231c7.217-2.594,11.592-9.572,11.21-16.855
	c-0.321-0.163-0.636-0.329-0.846-0.457c-0.604-0.367-2.959-2.607-2.875-3.4c0.083-0.793-0.436-2.949-0.508-3.54
	C382.161,339.583,382.424,338.349,382.974,338.534z M387.812,339.169c0.331,0.095,0.106,0.734,0.408,1.534
	c0.301,0.799,1.26,1.688,1.828,2.719c0.568,1.031,0.636,2.366,0.636,2.366l2.973,2.426c-0.01-2.689-0.466-5.421-1.428-8.096
	c-4.52-12.576-18.378-19.107-30.954-14.587c-12.576,4.519-19.107,18.378-14.587,30.954s18.378,19.107,30.954,14.587
	c8.149-2.929,13.755-9.781,15.465-17.662l-3.902-3.775c-0.462,7.635-5.367,14.63-13.021,17.381
	c-10.251,3.684-21.549-1.639-25.233-11.891c-3.684-10.251,1.64-21.549,11.891-25.233c9.516-3.42,19.929,0.925,24.322,9.766
	C387.392,339.353,387.642,339.121,387.812,339.169z M269.679,307.258c15.119,0,27.376,12.256,27.376,27.376
	c0,15.119-12.256,27.376-27.376,27.376c-15.119,0-27.376-12.256-27.376-27.376C242.303,319.515,254.56,307.258,269.679,307.258z
	 M269.679,312.502c-12.324,0-22.316,9.991-22.316,22.316c0,12.325,9.991,22.315,22.316,22.315c12.325,0,22.316-9.991,22.316-22.315
	C291.994,322.493,282.003,312.502,269.679,312.502z"></path>
<path id="color_x5F_7" fill="#CBE4EE" d="M506.587,329.145c-5.421,9.457-11.349,9.386-7.878,17.806
	c9.994,24.237-0.225,31.909-15.514,32.802l-0.492-16.517c1.712-2.87,4.423-6.96,7.862-10.653c0,0-4.49,2.853-7.947,7.803
	l-1.845-61.89c2.011-5.706,6.722-18.396,10.834-24.396c0,0-6.712,8.446-10.973,19.706l-0.814-27.297l-0.466,65.955
	c-0.687-1.547-7.24-16.084-15.837-26.985c0,0,12.598,20.219,15.807,31.26l-0.305,43.101c-0.718-0.01-1.441-0.028-2.172-0.061
	c0,0-16.386-3.171-15.618-16.718s9.003-14.341,3.592-25.665c-5.411-11.324-17.984-12.878-13.045-28.827
	c4.94-15.949,17.066-12.876,15.112-25.575c-1.955-12.699-7.25-20.772-0.293-29.282c6.957-8.51,14.128-11.019,14.326-26.548
	c0.198-15.529,12.538-6.456,12.448,5.064c-0.09,11.52-2.109,18.101,3.427,25.915s10.987,18.436,3.459,29.015
	c-5.484,7.706-7.016,11.671-0.23,19.44C506.811,314.365,512.008,319.688,506.587,329.145z M227.124,463.29
	c-3.523,0.651-6.299,2.034-12.064,0.814c-5.765-1.221-14.199-1.953-14.199-1.953s3.203-2.441,1.922-3.824
	c-1.281-1.383-6.512,0.325-6.512,0.325s1.922-1.709-0.961-3.255c-2.883-1.546-9.395,4.313-9.715,4.313
	c-0.32,0,1.281-2.767-1.601-4.069c-2.883-1.302-5.658,0.814-5.658,0.814s2.883-4.638,0-4.638c-2.883,0-5.658,3.174-5.658,3.174
	s0.747-4.069-1.388-4.964c-2.135-0.895-5.552,2.034-5.552,2.034s2.242-3.418,0-4.638c-2.242-1.221-7.153,0.163-7.153,0.163
	s1.815-3.825,0-4.557c-1.815-0.732-5.032,1.139-5.032,1.139s0.334-2.604-1.374-3.336c-1.708-0.732-4.697,1.679-4.697,1.679
	s2.669-3.551,5.125-8.514c2.455-4.964-0.641-6.591-0.641-6.591c-12.064-4.638-29.253,12.694-29.253,12.694s0.107-3.499-0.854-3.906
	c-0.961-0.407-2.028,0.163-2.028,0.163s1.281-3.173-1.281-3.336c-2.562-0.163-5.125,3.499-5.125,3.499s3.843-7.324,0-8.137
	c-3.843-0.814-8.221,5.859-8.221,5.859c0-2.685-2.562-5.289-4.164-5.045c-1.601,0.244-3.096,2.848-3.096,2.848
	s-3.096-5.615-5.231-5.615c-2.135,0-3.31,2.685-3.31,2.685s-10.356-13.02-17.295-11.392c-6.939,1.628-2.029,10.985-2.029,10.985
	s-1.205-0.819-2.68-1.448c-0.292-1.812-1.213-4.501-4.006-6.575c-0.704-0.523-1.443-1.045-2.188-1.571
	c-1.55-1.095-3.122-2.206-4.405-3.354c0.09-0.377,0.532-1.185,2.611-1.758c1.262-0.347,2.903-0.184,4.804,0.006
	c2.977,0.296,6.682,0.665,10.195-1.083c4.848-2.413,4.109-6.683,3.041-8.604l-2.36,0.762c0.087,0.156,1.959,3.63-1.403,5.816
	c-0.266-0.765-0.799-1.629-1.87-2.253c-0.95-0.554-0.626-1.315-0.552-1.462l-1.187-0.367l-1.181-0.379
	c-0.428,0.775-0.695,2.559,1.363,3.758c0.755,0.44,1.004,1.197,1.084,1.72c-2.227,0.606-4.544,0.378-6.8,0.154
	c-2.138-0.214-4.159-0.415-6.006,0.094c-1.763,0.485-2.81,1.154-3.431,1.811c-0.671-0.88-1.101-1.785-1.153-2.723
	c-0.069-1.271,0.128-2.251,0.318-3.199c0.37-1.842,0.72-3.583-1.209-6.406c-2.929-4.287-12.576-5.585-12.985-5.638l-0.431,1.925
	c0.088,0.011,8.802,1.189,11.144,4.615c1.542,2.257,1.294,3.495,0.949,5.209c-0.137,0.681-0.28,1.434-0.334,2.305
	c-1.281-0.207-3.409-0.514-6.668-0.885c-0.304-3.186-2.422-4.35-2.674-4.477l-1.436,1.617c0.054,0.03,1.175,0.681,1.5,2.562
	c-6.015-0.768-6.524-3.355-6.542-3.468l-2.549,0.192c0.021,0.178,0.618,4.363,9.213,5.273c5.152,0.545,7.981,0.981,9.243,1.2
	c0.656,3.3,4.367,5.925,7.969,8.468c0.729,0.515,1.453,1.026,2.141,1.537c1.81,1.344,2.649,3.064,3.036,4.468
	c-0.342-0.007-0.669,0.028-0.968,0.121c-2.349,0.732-1.922,3.011-1.922,3.011s-3.63-2.36-4.804-1.546
	c-1.174,0.814,0.641,4.15,0.641,4.15s-9.502-10.253-15.16-12.043c-5.658-1.79-10.676,0-10.676,0
	c-2.242,0.325-3.723,2.441-3.723,2.441c-8.741,14.973,11.944,28.277,11.944,28.277s-2.295-0.814-3.576,0.488
	c-1.281,1.302,2.776,4.028,2.776,4.028s-4.591-1.017-5.765,0c-1.174,1.017,1.815,3.499,1.815,3.499c-1.068-0.366-3.47-0.854-4.431,0
	c-0.961,0.854,1.068,3.499,1.068,3.499c-2.135-1.058-3.63,0-3.63,0c-0.961,1.627,1.72,4.613,1.72,4.613l215.647-0.056l-14.092-2.034
	C231.501,464.999,230.647,462.639,227.124,463.29z M413.563,457.738l-3.119-10.15c-2.567,2.177-4.129,6.357-4.129,6.357
	s0.869-6.246-4.058-6.654c-4.927-0.407-7.149,4.141-7.149,4.141s1.449-5.703-1.449-6.45c-2.898-0.747-9.661,3.395-9.661,3.395
	s3.381-5.703-0.676-6.586c-4.058-0.883-8.502,4.685-8.502,4.685s2.995-6.993-0.773-8.147c-3.768-1.154-5.217,0-5.217,0
	s2.705-4.549-0.58-4.753c-3.285-0.204-7.943,3.666-7.943,3.666s2.146-4.209-1.139-4.617c-3.285-0.407-5.797,2.308-5.797,2.308
	s9.275-17.517-0.193-19.282c-9.468-1.765-21.254,14.529-21.254,14.529s-2.415-4.006-5.12-3.259
	c-2.705,0.747-4.444,9.845-4.444,9.845s-2.125-3.734-4.83-2.919c-2.705,0.815-2.222,6.45-2.222,6.45s-2.802-3.53-5.507-2.512
	c-2.705,1.018,0.483,5.432,0.483,5.432s-4.444-2.105-6.859-1.154c-2.415,0.951,2.415,7.333,2.415,7.333s-3.285-2.241-4.347,0.204
	c-1.063,2.444,1.353,5.635,1.353,5.635s-4.637-2.58-6.666-1.63s-0.676,3.734-0.676,3.734s-4.734-2.919-7.922-2.105
	c-3.188,0.815-0.483,5.567-0.483,5.567s-2.802-3.734-5.217-2.648c-2.415,1.086-1.159,4.074-1.159,4.074s-1.739-2.24-4.927-1.562
	c-3.188,0.679-3.864,6.382-3.864,6.382h134.309c-0.03-0.183-0.132-1.001,0.371-1.235c0.566-0.263,8.295-3.197,8.295-3.197v-1.72
	h0.445h0.504l-0.927-3.16H413.563z M433.683,457.738h-1.22l-0.218-1.148c-0.403-0.193-0.863-0.335-1.392-0.404
	c-4.154-0.543-6.183,1.765-6.183,1.765s1.642-5.907-1.159-6.722c-1.847-0.537-3.73,0.812-4.803,1.795l0.648,4.714h-1.082l0.322,3.16
	h1.165v6.151h4.972c-0.03-0.183-0.131-1.001,0.371-1.235c0.566-0.263,8.295-3.197,8.295-3.197v-1.72h0.445h0.504l-0.337-2.699
	C433.913,458.041,433.803,457.887,433.683,457.738z M447.856,463.926c-2.608-1.018-4.927-3.395-8.502-3.53
	c-0.936-0.036-1.676,0.037-2.265,0.162v0.34h1.165v6.151h34.043c0,0-9.081-0.815-14.781-1.494
	C451.817,464.876,450.465,464.944,447.856,463.926z"></path>
<path id="color_x5F_6" fill="#155E84" d="M55.732,424.051l2.407-4.446c-0.792-0.569-1.568-1.146-2.298-1.737l-4.521,8.349
	c0.763,0.671,1.493,1.34,2.168,1.977l0.701-1.295h8.937c0.164-0.084,0.341-0.163,0.545-0.227c0.299-0.093,0.625-0.129,0.968-0.121
	c-0.214-0.776-0.574-1.647-1.151-2.499H55.732z M73.687,410.898c0.998-0.649,1.533-1.411,1.792-2.167h-3.529
	C72.928,409.347,73.432,410.167,73.687,410.898z M66.323,424.051c0.543,1.016,0.845,2.007,1.011,2.848h1.964
	c-0.297-0.803-0.601-1.802-0.771-2.848H66.323z M83.43,379.163l-0.187-2.848H81.58l1.483-2.738l-0.35-5.334l-3.962,7.317
	l-0.315,6.563l1.603-2.96H83.43z M61.282,413.802c-0.689-0.003-1.319,0.047-1.873,0.199c-0.95,0.262-1.555,0.572-1.944,0.869
	l-0.54,0.996c0.692,0.609,1.461,1.208,2.264,1.8L61.282,413.802z M129.965,260.661h-2.971v9.688
	C129.703,267.988,130.917,264.239,129.965,260.661z M134.139,260.661h-2.564c1.014,4.467-0.833,9.102-4.581,11.662v2.841
	C132.322,272.39,135.167,266.469,134.139,260.661z M135.733,427.873h5.214c-5.216,1.851-10.239,5.393-13.689,8.191h-0.264v-96.229
	l-44.52,82.218c-0.738-0.616-1.506-1.208-2.29-1.752l4.723-8.721h-8.517c0.947-0.883,1.466-1.87,1.696-2.848h8.363l7.206-13.308
	H71.234l-7.206,13.308h4.808c0.238,0.514,0.676,1.028,1.425,1.465c0.605,0.353,0.882,0.907,1.011,1.382h-8.786l-0.163,0.302
	c-1.16-0.067-2.276-0.044-3.338,0.183l14.532-26.837c0.037,1.423,0.054,2.239,0.054,2.239h0.985v1.823l-1.78,3.287H74.3v1.219h8.591
	c0,0,0.129-0.643-0.231-0.81c-0.093-0.043-0.492-0.201-1.03-0.409h3.003v1.219h8.591c0,0,0.129-0.643-0.231-0.81
	c-0.093-0.043-0.492-0.201-1.03-0.409h3.148c0.028,0,0.054,0.007,0.082,0.008l7.267-13.421H89.284
	c0.073-0.891,0.148-1.841,0.226-2.848h14.492l6.031-11.137H90.283c0.057-0.931,0.114-1.88,0.17-2.848h21.121l6.806-12.568H95.959
	l-5.357,9.893c0.114-2.128,0.221-4.323,0.318-6.568l17.967-33.18c0.375-0.692,1.239-0.947,1.93-0.574
	c0.691,0.375,0.948,1.239,0.574,1.93l-5.266,9.724h20.87v-42.794l0.209,0.399l6.259-2.515l-2.027-7.481
	c1.605-1.11,3.002-2.443,4.165-3.941l0.132,0.043V427.873z M126.995,333.854v-0.018h-22.412l-7.082,13.079h22.422L126.995,333.854z
	 M221.571,467.049v0.04h87.266v-0.04H271.93H221.571z M247.363,334.817c0-12.325,9.991-22.316,22.316-22.316
	c12.325,0,22.316,9.991,22.316,22.316c0,12.325-9.991,22.315-22.316,22.315C257.354,357.133,247.363,347.142,247.363,334.817z
	 M250.478,334.817c0,10.604,8.596,19.201,19.201,19.201c10.604,0,19.201-8.596,19.201-19.201c0-10.604-8.596-19.201-19.201-19.201
	C259.074,315.616,250.478,324.213,250.478,334.817z M232.815,325.983c1.04-4.448,2.857-8.595,5.311-12.286l-9.365-12.623
	l9.818-9.253l11.787,10.241c3.326-1.976,6.98-3.453,10.862-4.338l1.541-15.407h13.491l1.817,15.395
	c3.882,0.879,7.537,2.351,10.865,4.321l11.717-10.12l9.791,9.282l-9.271,12.42c2.555,3.821,4.427,8.135,5.457,12.768l15.398,1.624
	l-0.073,13.492l-15.405,1.733c-1.066,4.589-2.956,8.862-5.523,12.642l9.311,12.094l-9.818,9.253l-11.781-9.873
	c-3.275,1.913-6.863,3.346-10.669,4.209l-1.817,15.395h-13.491l-1.541-15.407c-3.88-0.885-7.534-2.361-10.859-4.336l-11.909,9.921
	l-9.791-9.282l9.481-12.24c-2.55-3.825-4.416-8.141-5.439-12.775l-15.384-1.9l0.073-13.491L232.815,325.983z M242.303,334.634
	c0,15.119,12.257,27.376,27.376,27.376c15.119,0,27.376-12.256,27.376-27.376c0-15.119-12.256-27.376-27.376-27.376
	C254.56,307.258,242.303,319.515,242.303,334.634z M399.903,372.04c0.279,0.006,0.59-0.045,0.921-0.121l2.591,0.953l-8.318-3.06
	c-0.137,0.164-0.28,0.322-0.421,0.484v57.576h-38.392c-1.202,3.828-2.912,7.062-2.912,7.062s2.512-2.716,5.797-2.308
	c2.149,0.266,1.973,2.16,1.595,3.437h1.141c1.651-1.12,4.27-2.616,6.345-2.487c1.659,0.103,1.789,1.313,1.513,2.487h33.652v-57.503
	c-1.08,0.43-2.228,0.76-2.655,0.535c-0.802-0.424-3.296-0.788-3.95-0.962c-0.654-0.174-1.844-0.975-1.416-1.476
	c0.428-0.501,2.237-1.112,2.679-1.143c0.442-0.031,3.66-1.561,3.66-1.561s-0.232-0.203-0.787-0.194
	c-0.555,0.009-1.398,0.265-1.86-0.138c-0.462-0.403-1.215-1.489-0.974-1.799C398.353,371.511,398.932,372.02,399.903,372.04z
	 M331.925,430.182c0,0,0.673-0.928,1.817-2.31h-3.815C331.122,428.857,331.925,430.182,331.925,430.182z M402.213,355.191
	l1.201,0.979v-12.092l-0.713,0.351C403.129,348.073,402.949,351.703,402.213,355.191z M152.605,433.995
	c-0.358,0.723-0.719,1.412-1.077,2.069h45.532c0-0.001,0-0.002,0.001-0.003c0.031-0.147,0.062-0.296,0.095-0.446
	c0.001-0.003,0.001-0.006,0.002-0.008c0.03-0.139,0.062-0.279,0.094-0.419c0.01-0.041,0.02-0.083,0.029-0.124
	c0.024-0.104,0.049-0.207,0.074-0.31c0.012-0.049,0.024-0.098,0.037-0.147c0.024-0.096,0.048-0.192,0.073-0.287
	c0.013-0.052,0.027-0.103,0.041-0.155c0.025-0.093,0.049-0.185,0.075-0.276c0.014-0.052,0.029-0.103,0.043-0.155
	c0.026-0.09,0.052-0.18,0.078-0.268c0.015-0.05,0.03-0.101,0.045-0.151c0.029-0.093,0.058-0.185,0.087-0.276
	c0.013-0.042,0.027-0.084,0.04-0.125c0.037-0.112,0.075-0.221,0.113-0.328c0.007-0.019,0.013-0.039,0.02-0.057
	c0.045-0.124,0.091-0.245,0.138-0.361c0.013-0.032,0.026-0.062,0.039-0.093c0.034-0.082,0.068-0.164,0.103-0.241
	c0.018-0.04,0.036-0.077,0.054-0.116c0.031-0.066,0.062-0.131,0.093-0.193c0.02-0.039,0.04-0.076,0.061-0.113
	c0.03-0.056,0.061-0.11,0.092-0.162c0.021-0.036,0.043-0.071,0.065-0.105c0.031-0.048,0.062-0.094,0.093-0.138
	c0.022-0.031,0.044-0.061,0.066-0.089c0.033-0.042,0.066-0.08,0.099-0.117c0.021-0.023,0.043-0.048,0.064-0.069
	c0.037-0.036,0.074-0.067,0.112-0.097c0.019-0.015,0.037-0.032,0.056-0.045c0.057-0.039,0.114-0.072,0.172-0.095
	c1.732-0.68,3.278,2.969,3.278,2.969s0.006-0.012,0.017-0.033c0.008-0.015,0.02-0.038,0.034-0.066
	c0.005-0.009,0.008-0.015,0.013-0.025c0.018-0.035,0.041-0.078,0.068-0.129c0.003-0.006,0.006-0.011,0.009-0.018
	c0.389-0.737,1.584-2.928,3.221-5.319h-53.404C153.306,428.654,154.337,430.494,152.605,433.995z M277.316,260.661l6.754-24.605
	h-13.639v-7.538c0,0,2.111-4.644,9.166-5.186c0,0-4.824-0.784-8.986,3.136l-0.784-24.122l-0.603,21.348c0,0-4.041-6.091-8.624-8.563
	c0,0,7.357,6.392,8.141,9.83l-0.053,11.096h-13.567l6.272,24.605H139.436c0.274,2.157,0.177,4.313-0.273,6.381l3.071,1.81h105.628
	l3.319,7.709h36.491l3.712-7.709h103.293v57.449c1.11,1.273,2.136,2.635,3.055,4.089l5.684-1.391v-68.338H277.316z M243.263,450.713
	c-0.004,0.093-0.009,0.185-0.014,0.275c-0.001,0.016-0.002,0.033-0.003,0.049c-0.005,0.085-0.011,0.168-0.017,0.25
	c-0.001,0.01-0.002,0.02-0.002,0.03c-0.015,0.188-0.032,0.366-0.049,0.528c0,0.003-0.001,0.006-0.001,0.01
	c-0.008,0.074-0.016,0.145-0.024,0.213c-0.002,0.013-0.003,0.025-0.005,0.037c-0.008,0.062-0.015,0.122-0.022,0.177
	c-0.001,0.007-0.002,0.014-0.003,0.02c-0.017,0.124-0.032,0.23-0.045,0.313c-0.002,0.01-0.003,0.018-0.004,0.028
	c-0.004,0.028-0.008,0.053-0.012,0.074c-0.002,0.012-0.003,0.021-0.005,0.031c-0.003,0.017-0.005,0.03-0.007,0.041
	c-0.001,0.007-0.002,0.011-0.003,0.016c-0.002,0.011-0.003,0.018-0.003,0.018s0.019-0.053,0.049-0.13
	c0.002-0.005,0.003-0.008,0.005-0.014c0.017-0.044,0.04-0.098,0.066-0.16c0.001-0.002,0.001-0.003,0.002-0.005
	c0.027-0.064,0.059-0.135,0.095-0.214c0.435-0.951,1.546-2.892,3.426-3.217h-3.465c0,0,0,0.001,0,0.001
	c0.011,0.104,0.021,0.209,0.028,0.315c0.001,0.009,0.001,0.017,0.002,0.026c0.006,0.093,0.011,0.186,0.015,0.28
	c0.001,0.02,0.001,0.041,0.002,0.061c0.003,0.087,0.005,0.173,0.006,0.26c0,0.017,0,0.033,0.001,0.05
	c0.001,0.21-0.003,0.418-0.011,0.621C243.263,450.701,243.263,450.707,243.263,450.713z M236.27,449.081
	c-0.001,0.002-0.001,0.004-0.002,0.005c-0.18,0.57-0.338,0.952-0.338,0.952s0.487-0.423,1.199-0.957c0,0,0.001,0,0.001-0.001H236.27
	z M250.228,455.075c0.002-0.007,0.002-0.008,0.005-0.017c0.017-0.061,0.049-0.177,0.097-0.337c0.001-0.002,0.001-0.004,0.002-0.006
	c0.319-1.077,1.304-4.091,2.74-5.633h-5.269c2.948,0.568,2.416,6.03,2.416,6.03S250.223,455.096,250.228,455.075z M301.817,449.081
	h-45.304c0,0,0,0,0,0c0.086,0.115,0.165,0.238,0.238,0.367c0.004,0.008,0.009,0.016,0.014,0.024
	c0.072,0.128,0.137,0.263,0.198,0.402c0.005,0.012,0.01,0.023,0.015,0.035c0.12,0.284,0.22,0.587,0.3,0.901
	c0.003,0.011,0.006,0.022,0.009,0.033c0.04,0.159,0.076,0.319,0.107,0.48c0,0.001,0,0.002,0,0.003
	c0.064,0.329,0.111,0.662,0.145,0.987c0.001,0.01,0.002,0.019,0.003,0.029c0.033,0.319,0.053,0.628,0.065,0.919
	c0,0.008,0.001,0.015,0.001,0.023c0.006,0.144,0.009,0.282,0.011,0.415c0,0.007,0,0.013,0,0.02c0.003,0.263,0.001,0.5-0.005,0.701
	c0,0.012-0.001,0.023-0.001,0.034c-0.003,0.096-0.006,0.184-0.009,0.261c0,0.004,0,0.006-0.001,0.01
	c-0.004,0.076-0.007,0.141-0.01,0.196c0,0.005-0.001,0.01-0.001,0.015c-0.003,0.052-0.006,0.092-0.008,0.121
	c-0.001,0.01-0.001,0.012-0.001,0.019c-0.002,0.02-0.003,0.034-0.003,0.034s1.856-3.216,3.649-2.474
	c1.794,0.742,0.742,6.124,0.742,6.124s1.299-2.103,3.959-1.608c2.66,0.495,2.66,5.01,2.66,5.01s0.495-1.299,2.784-1.175
	c0.352,0.019,0.685,0.087,1.002,0.191c0.529,0.173,1.015,0.448,1.475,0.768c0.511-0.628,1.15-1.11,1.945-1.279
	c3.188-0.679,4.927,1.562,4.927,1.562s-1.256-2.987,1.159-4.074c2.415-1.086,5.217,2.648,5.217,2.648s-2.705-4.753,0.483-5.567
	c3.188-0.815,7.922,2.105,7.922,2.105s-1.353-2.784,0.676-3.734c2.029-0.951,6.666,1.629,6.666,1.629s-2.415-3.191-1.353-5.635
	C301.584,449.39,301.696,449.226,301.817,449.081z M218.784,427.873c-0.019,0.165-0.04,0.331-0.062,0.496
	c-0.007,0.05-0.013,0.101-0.02,0.151c-0.074,0.54-0.164,1.08-0.265,1.616c-0.003,0.015-0.006,0.031-0.009,0.046
	c-0.032,0.17-0.066,0.338-0.1,0.506c-0.009,0.043-0.018,0.086-0.027,0.13c-0.105,0.507-0.217,1.003-0.334,1.486
	c-0.011,0.046-0.022,0.092-0.033,0.138c-0.036,0.146-0.072,0.291-0.108,0.434c-0.014,0.055-0.028,0.108-0.042,0.162
	c-0.116,0.447-0.232,0.875-0.348,1.28c-0.015,0.052-0.03,0.104-0.044,0.155c-0.035,0.123-0.07,0.244-0.105,0.362
	c-0.011,0.038-0.022,0.074-0.033,0.111c-0.121,0.408-0.237,0.783-0.344,1.118c0,0,0,0,0,0.001h1.244
	c0.262-0.147,0.546-0.265,0.847-0.337c0.032-0.008,0.065-0.013,0.098-0.02c0.113-0.023,0.229-0.037,0.347-0.045
	c0.042-0.003,0.083-0.007,0.125-0.007c0.152-0.002,0.307,0.005,0.465,0.033c0.11,0.019,0.207,0.052,0.297,0.091
	c0.033,0.013,0.066,0.027,0.096,0.042c0.064,0.034,0.124,0.071,0.179,0.114c0.051,0.039,0.098,0.082,0.141,0.128h94.947
	c0.321-1.033,0.878-1.927,1.836-2.215c1.945-0.586,3.586,1.177,4.357,2.215h0.621c0.379-1.727,1.476-6.189,3.061-8.191
	L218.784,427.873C218.784,427.873,218.784,427.873,218.784,427.873z M305.304,449.081c0.328,0.173,0.536,0.315,0.536,0.315
	s-0.088-0.116-0.231-0.315H305.304z"></path>
<path id="color_x5F_5" fill="#FFD2BB" d="M437.09,457.738v3.16h-2.741l-0.394-3.16H437.09z M416.539,357.644l-5.342-5.787
	l-5.534,6.146l-10.966-8.941l-4.014-3.275c0,0-0.068-1.335-0.636-2.366c-0.568-1.03-1.526-1.919-1.828-2.719
	c-0.302-0.799-0.076-1.439-0.408-1.534c-0.331-0.095-0.972,0.876-1.149,1.385c-0.178,0.509,0.307,1.113,0.496,1.563
	c0.189,0.45,0.099,0.706,0.099,0.706s-2.303-2.126-2.473-2.476c-0.17-0.351-1.261-1.628-1.811-1.813
	c-0.549-0.185-0.813,1.049-0.741,1.639c0.072,0.591,0.592,2.746,0.508,3.54c-0.083,0.793,2.272,3.033,2.875,3.4
	c0.604,0.367,2.069,1.052,2.069,1.052l18.973,18.354L416.539,357.644z M407.847,374.504l-7.023-2.584
	c-0.33,0.075-0.642,0.126-0.921,0.121c-0.971-0.02-1.55-0.529-1.791-0.219c-0.241,0.31,0.513,1.396,0.974,1.799
	c0.462,0.403,1.305,0.147,1.86,0.138c0.555-0.009,0.787,0.194,0.787,0.194s-3.218,1.53-3.66,1.561
	c-0.442,0.031-2.251,0.642-2.679,1.143c-0.428,0.501,0.762,1.302,1.416,1.476c0.654,0.174,3.148,0.538,3.95,0.962
	c0.802,0.424,4.162-1.113,4.805-1.594c0.643-0.481,2.013-1.881,2.013-1.881l0.06-0.026l0.006,0.052l10.828-3.582
	c0.403-2.344,0.702-4.57,0.765-6.25l-9.204,4.387L407.847,374.504z M425.237,325.861c0.215-0.807,0.753-0.646,1.399-2.24
	c0.646-1.594-0.161-2.442-1.237-2.119c-1.076,0.323-0.832,1.345-0.832,1.345s-5.033-0.108-6.324-1.453
	c-1.103-1.149-1.242-2.006-1.26-2.233c-0.008,0.069-0.019,0.134-0.026,0.204l-0.039,0.468c-0.045,0.689-0.048,1.425,0.013,2.226
	c0,0-0.88,2.596-0.908,3.081c-0.02,0.344,0.876,0.746,0.908,1.038s0.308,3.632,1.589,4.28c1.782,0.902,2.465,0.843,2.983,1.2
	c0.343,0.236,0.331,2.067,0.284,3.285l6.362-1.921c0.044-0.814,0.147-2.194,0.368-3.412l-0.001,0.002
	C428.516,329.611,425.021,326.668,425.237,325.861z M414.928,457.738l0.927,3.16h2.741l-0.323-3.16H414.928z M84.888,389.86h2.548
	h0.017v-2.394h-2.565V389.86z M88.811,259.08c-0.742,0.316-1.634,0.775-3.1,1.023c-2.698,0.457-4.151,4.026-4.151,4.192
	c0,0.166-0.291-2.733-1.121-3.152c-0.83-0.418-2.823,1.09-1.66,3.158c1.162,2.069,0.416,2.911,0.001,4.032
	c-0.257,0.693-1.076,1.264-1.961,1.183c0.275,1.036,0.43,2.383,0.516,3.445l6.588,1.966c-0.007-1.074,0.052-2.187,0.317-2.369
	c0.534-0.367,1.236-0.306,3.069-1.234c1.317-0.667,1.601-4.103,1.634-4.403c0.033-0.3,0.955-0.713,0.934-1.067
	c-0.029-0.499-0.934-3.169-0.934-3.169C89.046,261.327,88.991,260.132,88.811,259.08z M74.556,389.86h2.548h0.017v-2.394h-2.565
	V389.86z M122.406,271.739c-0.319,0.185-0.755,1.595-1.075,2.097c-0.321,0.501-1.085,1.133-1.435,1.344
	c-0.351,0.211-0.677,0.166-0.751-0.114c-0.074-0.28,0.172-1.507-0.404-1.95c-0.576-0.443-1.084-0.232-1.032,0.276
	c0.053,0.508-0.176,1.852-0.309,2.198c-0.133,0.347,0.295,2.04,0.295,2.04l-1.581,1.308l1.318,2.428l2.037-1.685
	c0,0,1.911-0.451,2.318-0.604c0.407-0.153,3-2.743,3.164-3.115c0.165-0.372,0.413-0.866-0.21-1.874
	C124.118,273.08,122.725,271.554,122.406,271.739z M110.206,266.921c-0.156,0.011-0.286-0.05-0.344-0.199
	c-0.106-0.27-0.005-1.517-0.628-1.89c-0.623-0.373-1.104-0.104-0.993,0.394c0.111,0.499,0.041,1.86-0.052,2.219
	c-0.092,0.36,0.53,1.992,0.53,1.992l-0.1,0.104c0.447,0.828,0.97,1.594,1.557,2.294l0.543-0.567c0,0,1.03-0.374,1.713-0.646
	c-0.868-0.955-1.584-2.077-2.093-3.344C110.291,267.159,110.249,267.04,110.206,266.921z M112.714,263.039
	c-0.296,0.221-0.564,1.672-0.825,2.207c-0.091,0.188-0.236,0.397-0.398,0.602c0.085,0.284,0.179,0.568,0.292,0.848
	c0.455,1.133,1.108,2.123,1.894,2.965c0.81-0.936,1.97-2.45,2.055-2.725c0.12-0.389,0.309-0.908-0.427-1.837
	C114.571,264.172,113.01,262.818,112.714,263.039z"></path>
<path id="color_x5F_4" fill="#00CEC9" d="M218.153,436.064c0.104-0.058,0.214-0.108,0.324-0.156
	c-1.287,0.565-2.154,1.884-2.154,1.884s0.247-0.665,0.586-1.728H218.153z M118.38,349.762H95.959l-5.357,9.893
	c0.004-0.075,0.008-0.153,0.012-0.228c-0.053,0.993-0.107,1.976-0.162,2.937c0.001-0.012,0.001-0.022,0.002-0.034h21.121
	L118.38,349.762z M126.995,333.854v-0.018h-22.412l-7.082,13.079h22.422L126.995,333.854z M89.448,377.104
	c0.021-0.262,0.041-0.518,0.062-0.788h14.492l6.031-11.137H90.283c0.001-0.019,0.002-0.038,0.003-0.057
	C90.009,369.645,89.714,373.709,89.448,377.104z M119.144,275.066c0.074,0.28,0.4,0.325,0.751,0.114
	c0.253-0.152,0.717-0.524,1.078-0.907c-0.62,0.016-1.236-0.023-1.843-0.109C119.149,274.557,119.108,274.927,119.144,275.066z
	 M69.298,426.899h-1.964c-0.012-0.06-0.03-0.126-0.043-0.187c0.04,0.187,0.08,0.374,0.108,0.547c1.475,0.629,2.68,1.448,2.68,1.448
	S69.697,427.98,69.298,426.899C69.298,426.898,69.298,426.899,69.298,426.899z M117.113,254.209
	c-4.639,1.864-7.021,6.941-5.621,11.639c0.162-0.204,0.307-0.414,0.398-0.602c0.26-0.535,0.529-1.986,0.825-2.207
	c0.296-0.221,1.856,1.133,2.592,2.061c0.736,0.928,0.547,1.448,0.427,1.837c-0.085,0.274-1.238,1.78-2.048,2.716
	c2.083,2.227,5.132,3.367,8.199,2.981c-0.001,0.002-0.001,0.003-0.002,0.005c0.184-0.426,0.368-0.81,0.524-0.9
	c0.15-0.087,0.537,0.208,0.968,0.643c-0.011-0.011-0.022-0.025-0.033-0.036c0.312-0.09,0.622-0.197,0.93-0.32
	c1.026-0.412,1.935-0.989,2.724-1.677v-9.688h2.971c-0.1-0.377-0.216-0.752-0.365-1.123
	C127.623,254.619,122.032,252.233,117.113,254.209z M115.714,278.311l-6.653,3.419l0.879-3.09c-1.896-1.299-3.566-2.954-4.905-4.913
	l0,0c0,0,1.087,1.885,2.24,2.969l-7.593,9.854L115.714,278.311z M117.159,282.743l0.124-0.094l0,0L117.159,282.743z
	 M117.283,282.649l-3.189,5.919l-3.021-1.195l-16.673,12.684l-4.647-2.001c-0.384,2.443-0.711,5.021-0.753,7.257
	c-0.109,5.94,2.173,14.832,2.173,14.832h0.012c0.421,10.847,0.18,22.758-0.293,33.511c0.008-0.191,0.018-0.376,0.026-0.567
	l17.967-33.18c0.375-0.692,1.239-0.947,1.93-0.574c0.691,0.375,0.948,1.239,0.574,1.93l-5.266,9.724h20.87v-42.794l0.209,0.399
	l-3.587-6.861c-1.965,0.313-3.935,0.309-5.846,0.012l-0.074,0.136l-1.983-3.57l2.16,3.888L117.283,282.649z M419.249,364.969
	c-0.052-2.865-0.941-5.756-1.814-8.115l-0.896,0.79l-9.88,8.875l4.463-4.009l2.126,1.362l-3.215,6.329l9.204-4.387
	c-0.014,0.387-0.044,0.809-0.082,1.249C419.222,366.283,419.26,365.569,419.249,364.969z M419.133,367.3
	c0.007-0.08,0.014-0.158,0.021-0.236C419.147,367.141,419.141,367.22,419.133,367.3z M418.982,368.69
	c0.061-0.484,0.11-0.945,0.151-1.39C419.091,367.745,419.043,368.204,418.982,368.69z M88.943,266.921
	c-0.033,0.3-0.317,3.736-1.634,4.403c-1.833,0.928-2.535,0.867-3.069,1.234c-0.265,0.182-0.324,1.296-0.317,2.369l1.79,0.534
	c0,0-0.218,1.146,0.359,3.486l6.6,3l8.5-7.197l-3.63,0.962l-2.481-6.273l6.88-3.55c-0.347-2.257-0.276-4.52,0.174-6.69l-5.942-3.647
	c-0.964,3.477-4.234,3.556-5.565,3.249c-0.656-0.151-1.176,0.016-1.798,0.28c0.18,1.051,0.235,2.245,0.132,3.602
	c0,0,0.905,2.67,0.934,3.169C89.898,266.208,88.976,266.621,88.943,266.921z M84.907,411.579h-8.517
	c0.022-0.02,0.037-0.042,0.058-0.062c-0.533,0.51-1.197,0.988-2.04,1.407c-3.513,1.748-7.218,1.379-10.195,1.083
	c-1.072-0.107-2.05-0.194-2.936-0.197l-2.088,3.856c0.659,0.486,1.337,0.968,2.014,1.447c0.745,0.526,1.485,1.049,2.188,1.571
	c1.391,1.033,2.317,2.219,2.933,3.373c-0.001-0.002-0.001-0.003-0.002-0.005h2.204c0,0,0,0.001,0,0.001
	c-0.423-2.605,0.005-5.493,3.579-6.331c2.468-0.579,5.367,0.698,8.08,2.58c0,0-0.001-0.001-0.001-0.001L84.907,411.579z
	 M197.059,436.064h-45.532c-2.099,3.85-4.047,6.446-4.047,6.446s2.989-2.411,4.697-1.679c1.708,0.732,1.374,3.336,1.374,3.336
	s3.217-1.872,5.032-1.139c1.815,0.732,0,4.557,0,4.557s4.911-1.383,7.153-0.163c2.242,1.221,0,4.638,0,4.638
	s3.416-2.929,5.552-2.034c2.135,0.895,1.388,4.964,1.388,4.964s2.776-3.174,5.658-3.174c2.883,0,0,4.638,0,4.638
	s0.256-0.194,0.689-0.427c0.069-0.488,0.261-0.945,0.682-1.225c0.655-0.436,1.733-0.056,2.642,0.429
	c0.412,0.028,0.838,0.114,1.27,0.266c-0.41-1.017-0.971-2.836-0.51-4.345c0.68-2.227,2.783-0.186,2.783-0.186
	s-3.093-5.814-1.546-6.68c1.546-0.866,4.392,1.052,4.392,1.052s-2.041-4.021-0.309-4.948c1.732-0.928,3.526,2.289,3.526,2.289
	s-0.309-5.134,1.423-5.876c1.732-0.742,3.093,2.66,3.093,2.66s0.212-1.577,0.595-3.412c-0.001,0.004-0.002,0.008-0.002,0.011
	C197.059,436.062,197.059,436.063,197.059,436.064z M126.995,436.064v-96.229l-44.52,82.218c3.887,3.243,6.927,7.061,6.927,7.061
	s1.174-2.685,3.31-2.685c2.135,0,5.231,5.615,5.231,5.615s1.495-2.604,3.096-2.848c1.601-0.244,4.164,2.36,4.164,5.045
	c0,0,4.377-6.673,8.221-5.859c3.843,0.814,0,8.137,0,8.137s2.562-3.662,5.125-3.499c2.562,0.163,1.281,3.336,1.281,3.336
	s1.068-0.57,2.028-0.163c0.961,0.407,0.854,3.906,0.854,3.906s1.801-1.813,4.637-4.106c-0.029,0.023-0.062,0.048-0.09,0.071H126.995
	z M403.415,436.064h-33.652c0.001-0.003,0.001-0.006,0.002-0.009c-0.27,1.154-0.935,2.274-0.935,2.274s1.449-1.154,5.217,0
	c3.768,1.154,0.773,8.147,0.773,8.147s4.444-5.567,8.502-4.685c4.057,0.883,0.676,6.586,0.676,6.586s6.763-4.141,9.661-3.395
	c2.898,0.747,1.449,6.45,1.449,6.45s2.222-4.549,7.149-4.141c4.927,0.407,4.058,6.654,4.058,6.654s1.562-4.18,4.129-6.357
	l-7.029-22.87V436.064z M424.829,402.79l-1.49,0.662l-8.882,18.665l4.898,35.62l-0.648-4.714c1.073-0.983,2.956-2.332,4.803-1.795
	c2.802,0.815,1.159,6.721,1.159,6.721s2.029-2.308,6.183-1.765c0.529,0.069,0.989,0.211,1.392,0.404l0.218,1.148l-6.329-33.272
	L424.829,402.79z M315.694,436.064h-27.553v13.017h13.676c0.93-1.121,2.623-0.457,3.487,0h0.305
	c0.004,0.005,0.005,0.007,0.009,0.012c-0.916-1.272-4.294-6.203-2.193-7.03c2.415-0.951,6.859,1.154,6.859,1.154
	s-3.188-4.413-0.483-5.432c2.705-1.018,5.507,2.512,5.507,2.512s-0.202-2.415,0.416-4.313
	C315.715,436.013,315.702,436.037,315.694,436.064z M220.747,436.064c1.006,1.053,0.016,3.831,0.016,3.831s2.982-3.526,5.085-3.34
	c2.103,0.186,0.371,4.33,0.371,4.33s0.928-1.051,3.34,0c2.412,1.052,0.495,7.423,0.495,7.423s2.845-5.072,5.443-4.268
	c1.916,0.593,1.242,3.57,0.756,5.094c0.005-0.017,0.01-0.03,0.015-0.047c0.001-0.002,0.001-0.004,0.002-0.005h0.859
	c1.421-1.067,3.75-2.588,4.986-2.135c0.056,0.021,0.102,0.057,0.153,0.086v-10.968L220.747,436.064L220.747,436.064z
	 M124.834,276.127c0.019-0.025,0.053-0.064,0.068-0.084c0.287-0.094,0.574-0.194,0.859-0.309c0.425-0.171,0.836-0.362,1.234-0.57
	v-2.84c0.028-0.019,0.051-0.044,0.08-0.064c-0.681,0.475-1.419,0.888-2.223,1.211c-0.14,0.056-0.281,0.107-0.421,0.157
	c-0.009-0.012-0.02-0.025-0.029-0.038c0.126,0.172,0.244,0.341,0.341,0.497c0.623,1.008,0.375,1.501,0.21,1.874
	C124.937,275.994,124.883,276.062,124.834,276.127z M110.191,271.82c1.892,2.252,4.434,3.826,7.234,4.51
	c0.001,0.006,0.002,0.012,0.003,0.018c-0.051-0.332-0.077-0.633-0.029-0.758c0.118-0.306,0.308-1.385,0.316-1.985
	c-0.001,0.08-0.006,0.167-0.012,0.26c-2.012-0.561-3.852-1.681-5.279-3.255c0.003,0.003,0.006,0.007,0.009,0.011
	c-0.682,0.272-1.713,0.646-1.713,0.646L110.191,271.82z M64.028,408.731h4.808c0.006,0.013,0.016,0.025,0.022,0.038
	c-0.44-0.912-0.237-1.831,0.039-2.331l1.181,0.379l1.187,0.367c-0.074,0.147-0.398,0.908,0.552,1.462
	c0.127,0.074,0.223,0.161,0.335,0.241c-0.071-0.05-0.126-0.107-0.203-0.155h3.525c0.614-1.789-0.323-3.539-0.384-3.649l2.36-0.762
	c0.579,1.042,1.054,2.776,0.599,4.53c0.01-0.04,0.028-0.079,0.037-0.118h8.363l7.206-13.308H71.234L64.028,408.731z M68.858,408.769
	c0.063,0.131,0.14,0.262,0.232,0.392C68.998,409.031,68.922,408.9,68.858,408.769z M72.776,392.576h1.525v-2.716h2.803h0.283v1.093
	c0,0,2.717,1.032,4.258,1.629c-0.005-0.002-0.009-0.004-0.015-0.006h3.003v-2.716h2.804h0.283v1.093c0,0,2.717,1.032,4.258,1.629
	c-0.005-0.002-0.009-0.004-0.015-0.006h3.148c0.028,0,0.054,0.007,0.082,0.008l7.267-13.421H89.284
	c0.017-0.211,0.035-0.437,0.053-0.654c-0.447,5.549-0.789,8.957-0.789,8.957h-1.094v2.394h-0.017h-2.548v-2.394h-0.913l-0.61-9.288
	l0.065,0.985h-3.391l-1.603,2.96l0.315-6.563l3.962-7.317l0.132,2.01l-2.218-33.765l-2.448,50.977h-1.058v2.394h-0.017h-2.548
	v-0.571L72.776,392.576z M61.604,422.082c-0.689-0.511-1.413-1.022-2.141-1.537c-0.441-0.312-0.884-0.624-1.323-0.94l-2.407,4.446
	h7.755C63.021,423.361,62.414,422.684,61.604,422.082z M64.436,425.915c-0.203-0.568-0.499-1.167-0.886-1.759
	C63.938,424.749,64.23,425.347,64.436,425.915z M63.487,424.051c0.024,0.035,0.04,0.071,0.063,0.106
	c-0.023-0.035-0.038-0.071-0.062-0.106H63.487z M133.358,257.93c-2.818-7.014-10.789-10.416-17.804-7.598
	c-7.014,2.818-10.416,10.789-7.598,17.804c0.196,0.487,0.423,0.951,0.666,1.402l0.096-0.1c0,0-0.622-1.632-0.53-1.992
	c0.092-0.36,0.163-1.721,0.052-2.219c-0.111-0.498,0.37-0.766,0.993-0.394c0.624,0.373,0.522,1.62,0.628,1.89
	c0.059,0.149,0.188,0.21,0.344,0.199c0.043,0.119,0.085,0.237,0.132,0.355c-2.297-5.718,0.476-12.215,6.194-14.512
	c5.718-2.297,12.216,0.476,14.513,6.194c0.244,0.608,0.419,1.225,0.551,1.845c-0.01-0.047-0.01-0.094-0.021-0.141h2.562
	C133.975,259.744,133.719,258.829,133.358,257.93z M83.243,376.316l-0.18-2.738l-1.483,2.738H83.243z M54.19,426.899l-0.701,1.295
	c-0.025-0.023-0.053-0.048-0.078-0.072c2.431,2.286,4.175,4.165,4.175,4.165s-1.815-3.336-0.641-4.15
	c1.174-0.814,4.804,1.546,4.804,1.546s-0.427-2.278,1.922-3.011c-0.204,0.064-0.38,0.142-0.545,0.227H54.19z M590.678,352.492
	c0,87.471-45.545,114.557-45.545,114.557s-4.852-0.619-7.897-1.135c-3.046-0.516-3.768-0.465-5.162-1.239
	c-1.394-0.774-2.632-2.581-4.542-2.684c-1.91-0.103-2.323,0.981-2.323,0.981s0-3.768-2.22-4.181
	c-2.219-0.413-3.303,1.342-3.303,1.342s0.877-4.491-0.619-5.11c-1.497-0.619-3.045,2.065-3.045,2.065s0.465-5.265-2.013-5.781
	c-2.478-0.516-4.129,5.781-4.129,5.781s0.465-4.749-2.168-5.058c-2.632-0.31-3.82,3.149-3.82,3.149s0.774-4.336-0.774-4.904
	c-1.549-0.568-5.162,2.581-5.162,2.581s1.807-4.336-0.361-5.007c-2.168-0.671-4.542,3.562-4.542,3.562s1.6-5.317-0.413-6.194
	c-2.013-0.877-2.787,0-2.787,0s1.445-3.458-0.31-3.613c-1.755-0.155-4.244,2.787-4.244,2.787s1.147-3.2-0.608-3.51
	c-0.054-0.01-0.107-0.01-0.16-0.015l-0.888-45.557l0.018-0.001l-0.956-32.071l0.492,16.517c15.289-0.894,25.509-8.565,15.514-32.802
	c-3.472-8.42,2.456-8.349,7.878-17.806c5.421-9.457,0.224-14.779-6.562-22.549c-6.786-7.77-5.254-11.734,0.23-19.44
	c7.528-10.579,2.077-21.2-3.459-29.015c-5.536-7.814-3.517-14.396-3.427-25.915c0.09-11.52-12.251-20.594-12.448-5.064
	c-0.198,15.529-7.369,18.038-14.326,26.548c-6.957,8.51-1.662,16.583,0.293,29.282c1.955,12.699-10.172,9.626-15.112,25.575
	c-4.939,15.949,7.634,17.503,13.045,28.827c5.411,11.324-2.823,12.118-3.592,25.665c-0.769,13.547,15.617,16.718,15.617,16.718
	c0.731,0.033,1.454,0.051,2.172,0.061l-0.111,15.638l-0.694,33.23c-4.147,2.582-8.081,10.315-8.081,10.315s-1.29-3.045-2.736-2.478
	c-1.445,0.568-2.374,7.485-2.374,7.485s-1.136-2.839-2.581-2.22c-1.445,0.619-1.187,4.904-1.187,4.904s-1.497-2.684-2.942-1.91
	c-1.445,0.774,0.258,4.129,0.258,4.129s-2.374-1.6-3.665-0.877c-1.29,0.723,1.29,5.575,1.29,5.575s-1.755-1.703-2.323,0.155
	c-0.568,1.858,0.723,4.284,0.723,4.284s-2.478-1.961-3.561-1.239c-1.084,0.723-0.361,2.839-0.361,2.839s-2.529-2.22-4.233-1.6
	c-1.703,0.619-0.258,4.233-0.258,4.233s-1.497-2.839-2.787-2.013c-0.354,0.226-0.557,0.562-0.67,0.929
	c0.021,0.009,0.041,0.022,0.062,0.031c-1.031-0.46-2.149-0.803-3.433-0.852c-0.936-0.035-1.676,0.037-2.265,0.162v-2.82h1.165
	l-0.103-72.822h-0.058c0,0-3.101-14.344-2.799-19.77c0.177-3.187-0.086-7.765,0.306-12.88c0.826-10.771-3.946-17.386-3.946-17.386
	c-1.463-1.308-2.827-2.063-2.827-2.063l-7.911,2.389c0,0-0.32,1.185-0.775,2.933l-10.034,12.538l1.089,1.18l-5.534,6.146
	l-2.248-1.833v-12.092l11.582-5.696l-3.973-11.244L403.415,329v-68.338H277.316l6.754-24.605h-13.639v-7.538
	c0,0,0.393-0.857,1.396-1.877c0.809,0.308,3.764,1.257,7.861,0.49c6.908-1.292,6.744-10.031,6.744-10.031
	c-2.251,2.855-5.87,0.201-10.051,2.211c-2.813,1.352-4.048,4.461-4.524,6.13c0.054-0.039,0.109-0.071,0.163-0.108
	c-0.473,0.328-0.945,0.698-1.409,1.135l-0.372-11.434c1.508-0.375,6.218-2.056,6.824-8.527c0.724-7.719-7.659-13.689-7.659-13.689
	s1.507,2.963-1.749,6.875c-3.962,4.76-3.266,12.3,1.815,15.264l-0.247,8.738c0,0-0.38-0.571-1.032-1.429
	c0.003,0.004,0.007,0.009,0.01,0.013c1.473-7.453-5.314-8.602-7.783-10.013c-2.111-1.206-2.895-3.729-2.895-3.729
	s-3.437,10.151,1.749,13.77c4.294,2.996,7.762,1.252,8.593,0.747c0.425,0.687,0.745,1.339,0.875,1.906l-0.053,11.096h-13.567
	l6.272,24.605H139.436c0.022,0.169,0.026,0.338,0.043,0.507c-0.034-0.341-0.057-0.681-0.11-1.021l6.824-3.676l-2.481-6.273
	l-7.446,2.117c-1.341-1.957-3.014-3.61-4.912-4.906l1.986-7.49l-6.273-2.481l-3.55,6.879c-1.911-0.294-3.881-0.295-5.846,0.02
	l-3.712-6.804l-6.259,2.515l2.157,7.435c-1.636,1.134-3.056,2.501-4.231,4.037l-7.377-2.554l-1.92,4.154
	c-0.66-3.454-5.213-5.372-8.321-3.284c-3.542,2.38-4.815,0.941-10.405,1.937c-5.59,0.996-6.794,8.163-5.631,11.277
	c1.162,3.113,1.993,3.689,3.252,5.449c0.492,0.687,1.077,0.975,1.634,1.014c-0.013-0.001-0.025,0.004-0.039,0.003
	c0.275,1.036,0.43,2.383,0.516,3.445l-0.227-0.068c0,0-4.446,1.369-6.611,7.938c-3.204,9.72-0.72,14.832-0.436,21.658
	c0.243,5.836-1.783,17.655-1.783,17.655h0.012c0,0-1.271,5.4,1.861,15.876c2.151,7.194,3.136,40.289,3.366,49.206l-14.532,26.837
	c0.283-0.061,0.571-0.105,0.861-0.138c-0.443,0.05-0.881,0.122-1.306,0.239c-1.763,0.485-2.81,1.154-3.431,1.81
	c-0.671-0.88-1.101-1.785-1.153-2.723c-0.069-1.271,0.128-2.251,0.318-3.199c0.37-1.842,0.72-3.583-1.209-6.406
	c-2.929-4.287-12.576-5.585-12.985-5.638l-0.431,1.925c0.088,0.011,8.802,1.189,11.144,4.615c1.542,2.257,1.294,3.495,0.949,5.209
	c-0.137,0.681-0.28,1.434-0.334,2.305c-1.281-0.207-3.409-0.514-6.668-0.885c-0.304-3.186-2.422-4.35-2.674-4.477l-1.436,1.617
	c0.054,0.03,1.175,0.68,1.5,2.562c-6.015-0.768-6.524-3.355-6.542-3.468l-2.549,0.192c0.021,0.178,0.618,4.363,9.213,5.273
	c5.152,0.545,7.981,0.981,9.243,1.2c0.431,2.166,2.18,4.04,4.348,5.792l-4.521,8.349c0.112,0.098,0.217,0.195,0.328,0.294
	c-2.991-2.662-6.536-5.417-9.222-6.267c-5.658-1.79-10.676,0-10.676,0c-2.242,0.325-3.723,2.441-3.723,2.441
	c-8.741,14.973,11.944,28.277,11.944,28.277s-2.295-0.814-3.577,0.488c-1.281,1.302,2.776,4.028,2.776,4.028s-4.591-1.017-5.765,0
	c-1.174,1.017,1.815,3.499,1.815,3.499c-1.068-0.366-3.47-0.854-4.431,0c-0.961,0.854,1.068,3.499,1.068,3.499
	c-2.135-1.058-3.63,0-3.63,0c-0.165,0.28-0.217,0.602-0.199,0.941c-23.25-12.986-38.221-60.988-0.241-99.128
	c22.394-22.489,18.173-64.926,12.237-91.395c-21.897-97.631,95.48-202.117,213.121-111.156
	c109.487,84.656,120.615,49.434,217.098,45.083S590.678,286.037,590.678,352.492z M447.674,326.238
	c-2.583-4.197-0.43-11.622-4.843-17.11c-4.412-5.488-11.084,2.809-11.084,2.809s-3.278-1.518-7.181-1.572
	c-3.903-0.054-6.5,2.337-7.413,4.705c-0.628,1.628-0.258,5.042-0.258,5.042l0.056-0.673l-0.033,0.395
	c-0.045,0.689-0.048,1.425,0.013,2.226c0,0-0.88,2.596-0.908,3.08c-0.02,0.344,0.876,0.746,0.908,1.038
	c0.032,0.292,0.308,3.632,1.589,4.28c1.782,0.902,2.465,0.843,2.983,1.2c0.343,0.235,0.331,2.067,0.284,3.285l6.362-1.921
	c0.044-0.814,0.147-2.194,0.368-3.412l-0.001,0.002l0,0c0,0,1.133-1.974,3.446-3.319c2.314-1.345,3.121-5.757,2.744-8.125
	c-0.377-2.368-1.348-4.412-1.348-4.412s3.446-0.758,4.953,4.249c1.507,5.006-0.215,7.158,4.197,10.709
	c4.412,3.551,13.559,3.121,13.559,3.121S450.256,330.435,447.674,326.238z M403.357,378.582c0.019-0.008,0.039-0.013,0.058-0.021
	v40.171l12.305-33.816c0,0,1.712-6.801,2.752-12.852l-10.828,3.582l-0.006-0.052l-0.06,0.026c0,0-1.369,1.4-2.013,1.881
	C405.258,377.731,404.329,378.199,403.357,378.582z"></path>
<path id="color_x5F_3" fill="#E84393" d="M415.35,460.898h4.411v6.191h-13.515c0,0-0.202-1.012,0.364-1.275s8.295-3.197,8.295-3.197
	v-1.72H415.35z M426.134,424.466l6.329,33.272h5.792l-0.103-72.822H415.72l-13.302,36.557l11.146,36.265h5.793l-4.898-35.62
	l8.882-18.665l1.49-0.662L426.134,424.466z M433.399,460.898v1.72c0,0-7.729,2.934-8.295,3.197
	c-0.566,0.263-0.364,1.275-0.364,1.275h13.515v-6.191h-4.411H433.399z M82.66,392.985c-0.36-0.167-5.273-2.032-5.273-2.032v-1.093
	h-0.283H74.3v3.935h8.591C82.891,393.795,83.02,393.152,82.66,392.985z M92.992,392.985c-0.36-0.167-5.273-2.032-5.273-2.032v-1.093
	h-0.283h-2.804v3.935h8.591C93.223,393.795,93.352,393.152,92.992,392.985z M91.187,320.144H68.29c0,0-1.271,5.4,1.861,15.876
	c2.491,8.332,3.42,51.445,3.42,51.445h4.608l2.448-50.977l3.348,50.977h4.572C88.547,387.466,92.339,349.809,91.187,320.144z"></path>
<path id="color_x5F_2" fill="#FBC02D" d="M415.72,384.916c0,0,3.63-14.421,3.529-19.947c-0.052-2.865-0.941-5.756-1.814-8.115
	l-0.896,0.79l-6.43-6.966l10.034-12.538c0.455-1.748,0.775-2.933,0.775-2.933l7.911-2.389c0,0,1.364,0.755,2.827,2.063
	c0,0,4.772,6.615,3.946,17.386c-0.392,5.115-0.129,9.693-0.306,12.88c-0.301,5.426,2.799,19.77,2.799,19.77H415.72z M99.68,286.551
	l7.593-9.854c-1.153-1.084-2.24-2.969-2.24-2.969l-3.861,1.024l-8.5,7.197l-6.6-3c-0.578-2.34-0.359-3.486-0.359-3.486l-8.606-2.568
	c0,0-4.446,1.369-6.611,7.938c-3.204,9.72-0.72,14.832-0.435,21.658c0.243,5.836-1.783,17.655-1.783,17.655h22.897
	c0,0-2.283-8.892-2.173-14.832c0.041-2.237,0.368-4.814,0.753-7.257l4.647,2.001l23.473-17.856l-2.16-3.888L99.68,286.551z"></path>
<path id="color_x5F_1" fill="#0984E3" d="M456.067,331.834c0,0-9.147,0.43-13.559-3.121c-4.412-3.551-2.69-5.703-4.197-10.709
	s-4.953-4.249-4.953-4.249s0.971,2.045,1.348,4.412c0.376,2.367-0.431,6.78-2.744,8.125c-2.314,1.345-3.446,3.32-3.446,3.32
	s-3.495-2.943-3.279-3.75c0.215-0.807,0.753-0.646,1.399-2.24c0.646-1.594-0.161-2.441-1.237-2.119
	c-1.076,0.323-0.832,1.345-0.832,1.345s-5.033-0.108-6.324-1.453c-1.292-1.345-1.263-2.298-1.263-2.298l-0.084,1.014
	c0,0-0.37-3.414,0.258-5.042c0.914-2.367,3.51-4.759,7.413-4.705c3.903,0.054,7.181,1.572,7.181,1.572s6.672-8.298,11.084-2.809
	c4.412,5.488,2.26,12.913,4.842,17.11C450.256,330.435,456.067,331.834,456.067,331.834z M88.007,249.836
	c-3.542,2.38-4.815,0.941-10.405,1.937c-5.59,0.996-6.794,8.163-5.631,11.277c1.162,3.113,1.993,3.689,3.252,5.449
	c1.259,1.76,3.141,0.955,3.556-0.166c0.415-1.121,1.161-1.963-0.001-4.032c-1.162-2.069,0.83-3.577,1.66-3.158
	c0.83,0.418,1.121,3.318,1.121,3.152c0-0.166,1.453-3.736,4.151-4.192c2.698-0.457,3.459-1.633,4.898-1.301
	c1.439,0.332,5.147,0.221,5.756-4.151C96.973,250.279,91.549,247.456,88.007,249.836z"></path>
</svg>