<?xml version="1.0" standalone="no"?>
<svg version="1.1" id="color_x5F_1" xmlns="http://www.w3.org/2000/svg" xmlns:xlink="http://www.w3.org/1999/xlink" x="0px" y="0px" width="600px" height="600px" viewBox="0 0 600 600" enable-background="new 0 0 600 600" xml:space="preserve">
<path id="color_x5F_11" fill="#6BA7D0" d="M573.795,332.303v17.639L276.97,521.787L42.634,385.621v-13.405L276.97,507.273
	L573.795,332.303z M244.516,123.669l0.101,0.302l0.101,0.302l0.101,0.202l0.101,0.302l0.101,0.202l0.101,0.202l0.101,0.202
	l0.101,0.202l0.202,0.201l0.202,0.202l0.101,0.202l0.202,0.202l7.559,4.334c0.907,0.706,2.117,0.706,3.427,0
	c-2.621,1.512-4.838-0.202-4.838-3.83s2.217-7.862,4.838-9.374c0.403-0.202,0.706-0.302,1.109-0.403
	c0.907-3.931,3.125-7.861,5.846-9.877c0.706-9.172,6.148-19.251,12.7-23.081c5.846-3.326,10.784-0.907,12.296,5.645
	c1.311-1.814,2.822-3.226,4.435-4.233c1.814-1.008,3.527-1.209,4.938-0.806l-7.559-4.334l-0.302-0.101l-0.403-0.101l-0.403-0.101
	h-0.403h-0.403h-0.403l-0.403,0.101l-0.403,0.101l-0.403,0.101l-0.403,0.202l-0.504,0.201l-0.504,0.202l-0.202,0.101l-0.101,0.101
	l-0.202,0.101l-0.201,0.101l-0.202,0.101l-0.202,0.101l-0.202,0.101l-0.202,0.101l-0.101,0.101l-0.202,0.101l-0.202,0.101
	l-0.101,0.101l-0.202,0.101l-0.202,0.202l-0.101,0.101h-0.101l-6.955-4.032l-0.403-0.202l-0.504-0.101l-0.403-0.101h-0.504h-0.504
	h-0.504h-0.504l-0.504,0.101l-0.504,0.101l-0.504,0.202l-0.504,0.202l-0.504,0.202l-0.504,0.202l-0.504,0.302l-0.504,0.302
	l-0.604,0.403l-0.605,0.403l-0.605,0.504l-0.604,0.504l-0.605,0.504l-0.604,0.504l-0.605,0.504l-0.504,0.604l-0.504,0.605
	l-0.504,0.605l-0.504,0.705l-0.504,0.706l-0.504,0.706l-0.504,0.706l-0.403,0.706l-0.504,0.806l-0.403,0.807l-0.403,0.806
	l-0.403,0.806l-0.403,0.807l-0.302,0.806l-0.302,0.806l-0.302,0.907l-0.303,0.907l-0.201,0.907l-0.202,0.907l-0.202,0.907
	l-0.202,0.907l-0.202,0.907l-0.101,0.907l-0.101,0.907l-0.101,0.907l-0.202,0.202l-0.302,0.202l-0.202,0.202l-0.202,0.201
	l-0.202,0.202l-0.201,0.202l-0.202,0.202l-0.202,0.302l-0.202,0.302l-0.202,0.302l-0.201,0.303l-0.202,0.302l-0.202,0.302
	l-0.202,0.303l-0.202,0.302l-0.202,0.302l-0.201,0.302l-0.202,0.303l-0.202,0.302l-0.202,0.302l-0.202,0.302l-0.202,0.403
	l-0.201,0.302l-0.202,0.403l-0.101,0.403l-0.201,0.302l-0.101,0.403l-0.101,0.403l-0.101,0.403l-0.101,0.403l-0.101,0.403
	l-0.101,0.403h-0.101h-0.101h-0.101h-0.101h-0.101h-0.101h-0.101h-0.101h-0.101h-0.101h-0.101h-0.101h-0.101h-0.101l-0.101,0.101
	h-0.101l-0.202,0.202l-0.202,0.202l-0.201,0.202l-0.202,0.202l0.202-0.101l-0.202,0.202l-0.202,0.202l-0.202,0.202l-0.202,0.201
	l-0.201,0.303l-0.202,0.302l-0.202,0.302l-0.202,0.303l-0.202,0.302l-0.202,0.302l-0.201,0.302l-0.202,0.302l-0.101,0.303
	l-0.202,0.302l-0.201,0.302l-0.101,0.303v0.604l-0.101,0.403l-0.101,0.302l-0.101,0.302l-0.101,0.403l-0.101,0.302l-0.101,0.403
	l-0.101,0.302v0.302v0.403v0.302v0.303v0.302v0.302L244.516,123.669z M322.123,272.736l1.814,1.008
	c1.108-1.411,2.62-2.721,4.535-3.931V146.246c0-2.52,1.311-4.838,3.528-6.148l73.677-42.533c0.907-0.504,1.915-0.605,2.822-0.303
	c0.303,0.101,0.504,0.202,0.705,0.303l0.102-0.101l-7.963-4.636c-1.108-0.806-2.62-1.008-3.931-0.202l-73.677,42.533
	c-2.218,1.31-3.528,3.628-3.528,6.148v71.459v56.845C320.208,271.023,321.015,272.232,322.123,272.736z M453.653,239.577
	l0.102,0.403l0.101,0.403l0.101,0.303l0.101,0.302l0.101,0.302l0.102,0.302l0.101,0.303l0.201,0.302l0.202,0.202l0.201,0.202
	l0.202,0.201l0.201,0.202l0.201,0.202l9.172,5.342c0.202,0.101,0.403,0.202,0.605,0.302c-1.411-0.706-2.318-2.419-2.318-5.039
	c0-4.435,2.62-9.575,5.846-11.39c0.403-0.302,0.907-0.504,1.311-0.504c1.108-4.838,3.83-9.575,7.155-11.994
	c0.807-11.289,7.459-23.585,15.623-28.221c7.156-4.132,13.203-1.008,15.018,6.854c1.512-2.217,3.427-4.031,5.342-5.14
	c2.318-1.31,4.334-1.512,6.148-0.907h-0.102l-9.172-5.342l-0.504-0.101l-0.402-0.101l-0.505-0.101h-0.504h-0.504l-0.504,0.101
	l-0.504,0.101l-0.504,0.101l-0.504,0.202l-0.504,0.202l-0.504,0.202l-0.504,0.302l-0.201,0.101l-0.202,0.101l-0.201,0.101
	l-0.202,0.101l-0.201,0.101l-0.201,0.101l-0.202,0.201l-0.201,0.101l-0.202,0.101l-0.201,0.202l-0.202,0.202l-0.201,0.202
	l-0.202,0.202l-0.201,0.201l-0.201,0.202h-0.102l-8.769-5.04l-0.504-0.201l-0.504-0.101l-0.504-0.101l-0.504-0.101h-0.504h-0.604
	l-0.604,0.101l-0.605,0.101l-0.604,0.101l-0.604,0.201l-0.604,0.202l-0.605,0.202l-0.604,0.302l-0.705,0.303l-0.605,0.403
	l-0.806,0.504l-0.706,0.504l-0.705,0.504l-0.706,0.605l-0.705,0.605l-0.706,0.705l-0.705,0.706l-0.706,0.706l-0.604,0.807
	l-0.604,0.806l-0.604,0.806l-0.605,0.907l-0.604,0.907l-0.504,0.907l-0.504,0.907l-0.504,0.907l-0.504,0.907l-0.504,1.008
	l-0.504,1.008l-0.403,1.008l-0.403,1.008l-0.403,1.008l-0.403,1.008l-0.402,1.008l-0.303,1.008l-0.303,1.109l-0.201,1.108
	l-0.201,1.109l-0.202,1.008l-0.201,1.109l-0.101,1.108l-0.102,1.109l-0.302,0.202l-0.303,0.302l-0.303,0.202l-0.302,0.302
	l-0.303,0.302l-0.302,0.302L466.151,217l-0.303,0.302l-0.302,0.302l-0.303,0.303l-0.201,0.302l-0.303,0.403l-0.201,0.403
	l-0.202,0.403l-0.201,0.403l-0.202,0.403l-0.201,0.403l-0.201,0.403l-0.202,0.403l-0.201,0.403l-0.202,0.403l-0.201,0.403
	l-0.202,0.403l-0.201,0.403l-0.201,0.504l-0.202,0.403l-0.201,0.403l-0.102,0.504l-0.201,0.504l-0.101,0.403l-0.101,0.504
	l-0.102,0.504h-0.101h-0.402h-0.101h-0.102h-0.101h-0.101h-0.101h-0.102h-0.101h-0.101l-0.101,0.101h-0.101h-0.102l-0.101,0.101
	h-0.101l-0.101,0.101l-0.303,0.202l-0.303,0.202l-0.302,0.202l-0.303,0.201l-0.302,0.202l-0.303,0.302l-0.201,0.303l-0.303,0.302
	l-0.303,0.302l-0.201,0.302l-0.201,0.303l-0.202,0.403l-0.201,0.303l-0.202,0.403l-0.201,0.403l-0.202,0.403l-0.201,0.403
	l-0.202,0.403l-0.201,0.403l-0.201,0.403l-0.202,0.403l-0.201,0.403l-0.101,0.403l-0.102,0.403l-0.101,0.403l-0.101,0.403
	l-0.101,0.403l-0.101,0.403l-0.102,0.403v0.403v0.403v0.403v0.403v0.403L453.653,239.577z M220.729,331.295l8.063,4.838
	c-1.008-0.604-1.713-1.713-1.713-3.023V204.704c0-2.52,1.311-4.838,3.528-6.148l73.677-42.533c0.403-0.303,0.907-0.403,1.311-0.403
	c0.807-0.101,1.512,0.101,2.218,0.504l0,0l0.101-0.101l-7.962-4.637c-1.109-0.806-2.621-1.008-3.931-0.202l-73.677,42.533
	c-2.217,1.209-3.528,3.628-3.528,6.148v71.157v57.148C218.814,329.582,219.62,330.69,220.729,331.295z M141.408,182.631v0.302
	l0.101,0.302l0.101,0.302l0.101,0.202l0.101,0.302l0.101,0.202l0.101,0.202l0.101,0.202l0.101,0.202l0.101,0.202l0.202,0.201
	l0.201,0.202l0.202,0.202l7.56,4.334c0.101,0,0.101,0.101,0.201,0.101c-1.008-0.604-1.612-2.016-1.612-3.931
	c0-3.628,2.117-7.861,4.838-9.374c0.403-0.202,0.706-0.302,1.108-0.403c0.907-3.931,3.125-7.862,5.846-9.877
	c0.705-9.172,6.148-19.251,12.8-23.081c5.846-3.326,10.785-0.907,12.296,5.645c1.311-1.814,2.822-3.226,4.435-4.233
	c1.814-1.008,3.527-1.209,4.938-0.806l-7.559-4.334l-0.302-0.101l-0.403-0.101h-0.403h-0.403h-0.403h-0.403l-0.403,0.101
	l-0.403,0.101l-0.504,0.101l-0.403,0.202l-0.504,0.202l-0.403,0.202l-0.201,0.101l-0.202,0.101l-0.202,0.101l-0.202,0.101
	l-0.202,0.101l-0.201,0.101l-0.101,0.101l-0.202,0.101l-0.202,0.101l-0.201,0.101l-0.101,0.101l-0.202,0.101l-0.201,0.101
	l-0.101,0.101l-0.202,0.202l0,0l-7.156-4.133l-0.403-0.201l-0.403-0.101l-0.504-0.101l-0.504-0.101h-0.504h-0.504h-0.504
	l-0.504,0.101l-0.504,0.101l-0.504,0.202l-0.504,0.202l-0.504,0.202l-0.504,0.202l-0.504,0.302l-0.504,0.302l-0.604,0.403
	l-0.605,0.403l-0.604,0.504l-0.605,0.504l-0.604,0.504l-0.605,0.504l-0.504,0.504l-0.504,0.604l-0.504,0.605l-0.504,0.604
	l-0.504,0.706l-0.504,0.706l-0.504,0.706l-0.504,0.706l-0.504,0.706l-0.403,0.806l-0.403,0.807l-0.403,0.806l-0.403,0.806
	l-0.403,0.807l-0.302,0.907l-0.302,0.807l-0.303,0.907l-0.302,0.907l-0.202,0.907l-0.202,0.907l-0.201,0.907l-0.202,0.907
	l-0.202,0.907l-0.101,0.907l-0.101,0.907l-0.101,0.907l-0.202,0.202l-0.202,0.202l-0.202,0.202l-0.202,0.202l-0.201,0.201
	l-0.202,0.202l-0.202,0.202l-0.202,0.302l-0.202,0.302l-0.202,0.303l-0.201,0.302l-0.202,0.302l-0.202,0.303L150.076,166
	l-0.202,0.302l-0.202,0.302l-0.201,0.302l-0.202,0.303l-0.202,0.302l-0.202,0.302l-0.202,0.303l-0.202,0.403l-0.201,0.302
	l-0.202,0.403l-0.101,0.302l-0.101,0.403l-0.101,0.403l-0.101,0.403l-0.101,0.403l-0.101,0.403l-0.101,0.403l-0.101,0.403h-0.101
	l0,0h-0.101h-0.101h-0.101h-0.101h-0.101h-0.101h-0.101h-0.101h-0.101h-0.101h-0.101h-0.101l-0.101,0.101h-0.101l-0.202,0.202
	l-0.202,0.202l-0.202,0.202l-0.202,0.202l-0.201,0.202l-0.202,0.201l-0.202,0.202l-0.202,0.202l-0.202,0.202l-0.202,0.302
	l-0.201,0.302l-0.202,0.303l-0.202,0.302l-0.202,0.302l-0.202,0.302l-0.202,0.303l-0.201,0.302l-0.202,0.302l-0.202,0.302
	l-0.101,0.303l-0.101,0.302l-0.101,0.302l-0.101,0.403l-0.101,0.302l-0.101,0.302l-0.101,0.403l-0.101,0.302l-0.101,0.403v0.302
	v0.302v0.403v0.302v0.303v0.302L141.408,182.631z M116.916,391.164l7.962,4.737h0.101c-0.101-0.101-0.202-0.101-0.302-0.202
	c-0.807-0.604-1.411-1.612-1.411-2.822V264.673c0-2.52,1.31-4.838,3.527-6.148l73.677-42.533c0.303-0.202,0.605-0.303,0.907-0.403
	c0.605-0.101,1.109-0.101,1.713,0c0.302,0.101,0.605,0.202,0.907,0.403l0.101-0.101l-7.962-4.636
	c-1.108-0.806-2.621-1.008-3.931-0.202l-73.677,42.533c-2.217,1.31-3.527,3.628-3.527,6.148v70.855v57.449
	C115.102,389.451,115.908,390.66,116.916,391.164z M49.689,229.296c0.806-11.288,7.458-23.484,15.622-28.221
	c7.156-4.132,13.204-1.008,15.018,6.854c1.613-2.217,3.427-4.031,5.443-5.14c2.318-1.31,4.536-1.512,6.249-0.806
	c-0.101,0-0.202-0.101-0.202-0.101l-9.272-5.342l-0.403-0.101l-0.504-0.101l-0.504-0.101h-0.504h-0.504h-0.504l-0.504,0.101
	l-0.504,0.101l-0.504,0.201l-0.504,0.202l-0.504,0.202l-0.504,0.302l-0.202,0.101l-0.202,0.101l-0.202,0.101l-0.201,0.101
	l-0.202,0.101l-0.202,0.101l-0.202,0.101l-0.202,0.202l-0.202,0.101l-0.201,0.201l-0.202,0.202l-0.202,0.202l-0.202,0.202
	l-0.202,0.202l-0.202,0.202l0,0l-8.769-5.04l-0.504-0.202l-0.504-0.101l-0.504-0.101l-0.504-0.101h-0.605h-0.604l-0.605,0.101
	l-0.604,0.101l-0.605,0.101l-0.604,0.202l-0.605,0.202l-0.604,0.201l-0.605,0.303l-0.706,0.302l-0.705,0.403l-0.706,0.504
	l-0.807,0.504l-0.706,0.504l-0.706,0.604l-0.705,0.605l-0.706,0.706l-0.706,0.706l-0.706,0.705l-0.605,0.807l-0.604,0.806
	l-0.605,0.807l-0.604,0.907l-0.605,0.907l-0.604,0.907l-0.504,0.907l-0.504,0.907l-0.504,0.907l-0.504,1.008l-0.504,1.008
	l-0.403,1.008l-0.403,1.008l-0.403,1.008l-0.403,1.008l-0.303,1.109l-0.302,1.008l-0.302,1.108l-0.202,1.109l-0.202,1.008
	l-0.202,1.109l-0.201,1.108l-0.101,1.109l-0.101,1.109l-0.302,0.201l-0.303,0.303l-0.302,0.202l-0.302,0.302l-0.302,0.302
	l-0.303,0.302l-0.302,0.302l-0.302,0.303l-0.302,0.302l-0.303,0.403l-0.202,0.302l-0.302,0.403l-0.202,0.302l-0.201,0.403
	l-0.202,0.403l-0.202,0.403l-0.202,0.403l-0.202,0.403l-0.202,0.403l-0.202,0.403l-0.201,0.403l-0.202,0.403l-0.202,0.403
	l-0.202,0.403h-0.302l-0.202,0.403l-0.202,0.403l-0.101,0.504l-0.202,0.504l-0.101,0.403l-0.101,0.504l-0.101,0.504l0,0H33.16
	h-0.101h-0.101h-0.101h-0.101h-0.101h-0.101h-0.101h-0.101l-0.101,0.101h-0.101h-0.101l-0.101,0.101H31.85l-0.101,0.101
	l-0.302,0.202l-0.302,0.201l-0.302,0.202l-0.303,0.202l-0.302,0.302v0.403l-0.302,0.302l-0.202,0.302l-0.302,0.303l-0.202,0.302
	l-0.202,0.302l-0.202,0.403l-0.202,0.302l-0.201,0.403l-0.202,0.403l-0.202,0.403l-0.202,0.403l-0.202,0.403l-0.202,0.403
	l-0.201,0.403l-0.202,0.403l-0.101,0.403l-0.101,0.403l-0.101,0.403l-0.101,0.403l-0.101,0.403l-0.101,0.403l-0.101,0.403
	l-0.101,0.403v0.403v0.403v0.403v0.403v0.403v0.403l0.101,0.403l0.101,0.403l0.101,0.302l0.101,0.302l0.101,0.303l0.101,0.302
	l0.101,0.302l0.101,0.302l0.202,0.202l0.201,0.202l0.202,0.202l0.202,0.202l0.202,0.202l9.172,5.342
	c0.202,0.101,0.403,0.202,0.604,0.302c-1.411-0.706-2.318-2.419-2.318-5.04c0-4.435,2.621-9.575,5.846-11.389
	c0.403-0.302,0.907-0.504,1.31-0.504C43.642,236.452,46.363,231.715,49.689,229.296z M151.991,190.291
	c0.202,0,0.504-0.101,0.806-0.101C152.495,190.291,152.192,190.291,151.991,190.291z"></path>
<path id="color_x5F_10" fill="#207973" d="M457.182,348.832c-2.218-1.41-5.342,0.807-5.342,0.807s4.031-8.971,1.915-14.313
	c-2.117-5.342-5.745-4.132-6.048-6.854c-0.201-2.217,2.52-4.535,3.326-7.76c0.403-1.513,0.705-3.428,0.807-5.645
	c0.201-3.729-0.403-8.266-2.822-13.104c-5.745-11.893-12.599-5.442-14.413-2.116c-1.814,3.326-1.814,13.405-1.814,13.405
	s-8.466-1.713-11.691,4.232c-1.512,2.822-0.705,7.156,1.411,11.188c-4.637-3.528-7.357-0.706-8.971-3.024
	c-1.31-1.914-0.101-5.441-1.008-8.869c-0.403-1.512-1.108-3.527-2.217-5.645c-1.814-3.426-4.737-7.256-9.475-10.481
	c-11.49-7.761-14.413,1.714-14.313,5.745c0.102,3.931,5.443,13.203,5.443,13.203s-8.668,2.923-8.567,10.079
	c0.101,7.155,14.211,15.22,20.562,13.002c0,0-3.83,1.21-3.428,3.628c0.504,2.42,9.475,9.273,10.986,12.901
	c0,0-10.28-4.536-16.025,1.108c-5.645,5.645,1.814,12.195,1.814,12.195s-1.21,0.504-0.504,2.318c0.806,1.814,2.52,3.527,6.047,3.629
	c3.629,0,2.52-2.923,7.257-1.512c4.737,1.512,5.443,3.225,7.56,7.055c2.318,4.334,11.288,9.172,14.514,6.955l0,0
	c-3.629-5.645-6.753-10.583-4.938-18.041c1.915-11.894-5.443-16.53-12.196-17.639c8.164,0.402,13.607,5.342,13.909,13.707
	c1.21-2.016,2.923-4.031,4.737-6.047c0.403-0.504,0.705-0.907,1.108-1.311c3.83-4.334,7.862-9.071,8.668-14.816
	c0.605-4.435-1.915-7.962-4.233-11.389c-1.008-1.512-2.016-2.923-2.821-4.436c-6.249-2.62-9.374-6.651-8.366-13.304
	c1.613,5.342,1.915,8.265,7.56,11.288c-0.604-2.016-0.705-4.132,0.303-6.45c1.209-2.821,2.419-4.535,3.527-6.147
	c4.838-6.754,3.124-10.382,1.411-16.026c3.427,7.055,4.636,10.079-0.202,16.932c-1.108,1.512-2.217,3.226-3.325,5.846
	c-1.814,4.334,0.604,7.762,3.225,11.49c2.52,3.629,5.141,7.459,4.536,12.498c-0.504,4.031-2.621,7.66-5.141,10.885
	c6.35-3.225,9.373-2.721,15.622-1.512c-7.257,0.605-13.908,0.403-19.553,6.25l-0.403,0.504c-2.52,2.821-4.838,5.441-6.047,8.063
	c-0.303,0.705-0.605,1.411-0.807,2.117c-0.101,0.806-0.202,1.209-0.202,1.31c-0.806,5.342,2.017,11.288,3.729,16.429l0,0v-0.101
	c0-0.504-0.806-2.419-0.403-4.032c0.706-3.023,2.621-6.652,2.822-6.854c0.604-1.108,1.311-2.217,2.117-3.326
	c2.923-3.93,8.769-5.14,9.676-7.76c1.008-2.621,0.705-3.528,0.705-3.528s5.645,1.311,9.676-3.931
	C460.81,355.888,459.398,350.344,457.182,348.832z M417.772,372.418c0-1.613,0.303-3.326,0.604-5.141
	c0.403,0.101,0.907,0.303,1.411,0.807c-0.403,2.217-0.604,4.334-0.403,6.147c0.102,0.806,0.202,1.512,0.403,2.318
	c0.303,0.806,0.403,1.21,0.403,1.31c1.108,2.822,3.125,5.242,5.544,7.357c0.705,1.311,1.612,2.621,2.52,3.528
	c-4.536-2.62-8.265-5.644-9.979-11.691c-4.435-11.894-13.707-12.196-20.46-9.776C405.477,363.246,413.035,364.857,417.772,372.418z
	 M420.394,348.229c-0.202-1.311-0.505-2.521-1.009-3.73c-1.813-4.434-5.946-6.35-9.877-8.164c-1.714-0.806-3.427-1.611-4.938-2.52
	c-7.056,0.908-12.095-1.209-14.716-7.76c4.334,4.031,6.148,6.551,12.901,6.35c-1.612-1.512-2.822-3.326-3.124-6.048
	c-0.403-3.124-0.202-5.442,0-7.458c0.806-8.77-2.621-11.188-7.156-15.422c6.854,4.738,9.575,6.754,8.769,15.623
	c-0.202,1.915-0.403,4.133,0,7.156c0.604,4.838,4.737,6.753,8.97,8.769c4.233,2.016,8.668,4.032,10.685,9.071
	c0.604,1.512,1.008,3.124,1.209,4.736C421.502,348.43,420.998,348.328,420.394,348.229z M426.541,351.15
	c0.907-0.705,1.915-1.41,2.923-1.914c0.102,0.504,0.202,1.008,0.403,1.512c-0.705,0.504-1.311,1.008-2.016,1.512
	C427.448,351.957,426.944,351.554,426.541,351.15z M431.883,337.746c0,0-2.923-0.605-4.132,0.806
	c-0.303-1.411-0.807-2.923-1.411-4.435C428.154,336.032,430.069,337.443,431.883,337.746z"></path>
<path id="color_x5F_9" fill="#F4B922" d="M342.886,272.333c-1.512,0.907-3.931,0.907-5.543,0c-1.512-0.907-1.512-2.318,0-3.226
	c1.411-0.907,3.83-0.907,5.342-0.101c0.101,0,0.101,0.101,0.201,0.101c0,0,0.101,0.101,0.202,0.101
	C344.499,270.116,344.397,271.527,342.886,272.333z M270.922,243.709c-2.621,6.35,3.125,8.668,6.047,9.374
	c2.419,0.605,2.419,1.613,2.318,1.915l0,0c0-0.101,0-0.101,0.101-0.202c0.101-0.403,0.302-0.806,0.504-1.008
	c0.101-0.101,0.101-0.101,0.202-0.202c0.101-0.101,0.302-0.202,0.403-0.202l0,0c0.101-0.101,0.303-0.101,0.504-0.101
	c0.101,0,0.202,0,0.303,0l0,0C282.614,245.826,271.93,246.229,270.922,243.709z M189.182,279.792
	c3.83,14.211-1.311,34.067-11.39,45.355c-0.403,0.504-0.806,0.908-1.209,1.311c-0.403,0.403-0.806,0.807-1.209,1.21
	c-5.342,4.737-10.784,6.35-15.42,4.838l0,0c-0.101,0-0.202-0.101-0.403-0.101c-0.202-0.102-0.302-0.102-0.403-0.202
	c-0.302-0.101-0.604-0.202-0.907-0.403c-0.101-0.101-0.303-0.101-0.403-0.201c-0.202-0.102-0.302-0.201-0.403-0.201
	c-0.302-0.202-0.504-0.303-0.806-0.504c-0.302-0.202-0.504-0.404-0.806-0.605c-0.202-0.201-0.504-0.402-0.706-0.604
	c-0.101-0.101-0.202-0.202-0.403-0.403c-0.101-0.101-0.202-0.201-0.403-0.403c-0.201-0.201-0.504-0.504-0.705-0.806
	c-0.202-0.303-0.403-0.605-0.605-0.908c-0.101-0.201-0.202-0.302-0.302-0.504c-0.101-0.201-0.202-0.302-0.303-0.504
	c-0.201-0.302-0.403-0.604-0.604-1.008c-0.202-0.302-0.403-0.705-0.504-1.108c-0.101-0.201-0.202-0.302-0.202-0.504
	c-0.101-0.202-0.202-0.403-0.202-0.504c-0.202-0.403-0.302-0.806-0.504-1.21c-0.101-0.201-0.202-0.402-0.202-0.604
	c-0.101-0.202-0.202-0.404-0.202-0.605c-0.201-0.403-0.302-0.907-0.403-1.311c-0.101-0.504-0.202-0.906-0.302-1.41
	c-0.101-0.504-0.202-0.908-0.303-1.412c-0.101-0.504-0.202-1.008-0.202-1.512c-0.101-0.504-0.101-1.008-0.201-1.512
	c0-0.201,0-0.504-0.101-0.807c0-0.201,0-0.504-0.101-0.806c0-0.504-0.101-1.008-0.101-1.512s0-1.008,0-1.512
	c0-0.505,0-1.009,0-1.513s0-1.107,0.101-1.611c0-0.303,0-0.505,0.101-0.807c0-0.303,0.101-0.504,0.101-0.807
	c0.101-0.504,0.101-1.109,0.201-1.613c0.101-0.504,0.202-1.107,0.202-1.611c0-0.303,0.101-0.505,0.101-0.807l0,0
	c0-0.302,0.101-0.504,0.101-0.806c0.101-0.302,0.101-0.504,0.202-0.806l0,0c0-0.202,0.101-0.504,0.202-0.807
	c0.101-0.302,0.101-0.504,0.202-0.806l0,0c0.101-0.302,0.101-0.504,0.201-0.806c0.101-0.504,0.202-1.109,0.403-1.613
	s0.302-1.109,0.504-1.613c0.101-0.202,0.202-0.504,0.202-0.806c0.101-0.302,0.202-0.504,0.202-0.806
	c0.202-0.504,0.302-1.008,0.504-1.512c0.101-0.302,0.202-0.504,0.302-0.806c0.101-0.302,0.202-0.504,0.302-0.806
	c0.101-0.202,0.202-0.504,0.303-0.706l0,0c0.101-0.202,0.202-0.504,0.302-0.706c0.202-0.504,0.403-1.008,0.706-1.512
	c0.202-0.504,0.504-0.907,0.706-1.411s0.504-0.907,0.706-1.411s0.504-0.907,0.806-1.411c0.202-0.504,0.504-0.907,0.806-1.31
	c0.303-0.504,0.504-0.907,0.907-1.311c0.302-0.403,0.605-0.907,0.907-1.209c0.302-0.403,0.604-0.806,0.907-1.209
	c0.201-0.202,0.302-0.403,0.504-0.604s0.302-0.403,0.504-0.605c0.302-0.403,0.604-0.706,1.008-1.108
	c0.202-0.202,0.302-0.403,0.504-0.504c0.202-0.202,0.302-0.303,0.504-0.504c0.202-0.202,0.302-0.303,0.504-0.504
	c0.202-0.202,0.302-0.303,0.504-0.504c0.303-0.302,0.706-0.604,1.008-0.907c0.303-0.303,0.706-0.605,1.008-0.807
	c0.302-0.302,0.706-0.504,1.008-0.706c0.302-0.201,0.706-0.504,1.008-0.706c0.302-0.201,0.706-0.403,1.008-0.604
	c0.202-0.101,0.302-0.202,0.504-0.202c0.202-0.101,0.302-0.202,0.504-0.202c0.303-0.202,0.706-0.302,1.008-0.403
	c0.302-0.101,0.705-0.202,1.008-0.303c0.302-0.101,0.706-0.202,1.008-0.302s0.706-0.101,1.008-0.202
	c0.302,0,0.605-0.101,1.008-0.101c0.302,0,0.605,0,1.008,0c0.303,0,0.605,0,0.907,0s0.605,0.101,0.907,0.202
	c0.202,0,0.302,0,0.504,0.101c0.202,0,0.302,0.101,0.504,0.101C183.135,267.898,187.166,272.333,189.182,279.792z M171.745,276.365
	c-0.101,0-0.201,0.101-0.302,0.101c-0.101,0-0.202,0.101-0.302,0.101s-0.202,0.101-0.403,0.101
	c-0.101,0.101-0.202,0.101-0.403,0.101c-0.101,0-0.202,0.101-0.303,0.101c-0.101,0.101-0.201,0.101-0.403,0.202
	c-0.101,0-0.202,0.101-0.403,0.202c-0.101,0.101-0.202,0.101-0.403,0.202c-0.101,0.101-0.201,0.101-0.403,0.202
	c-0.101,0.101-0.202,0.202-0.403,0.202c-0.101,0.101-0.202,0.101-0.403,0.202c-0.101,0.101-0.201,0.201-0.403,0.201
	c-0.101,0.101-0.202,0.202-0.403,0.202c-0.101,0.101-0.202,0.202-0.403,0.202c-0.101,0.101-0.201,0.202-0.302,0.302
	c-0.101,0.101-0.202,0.202-0.403,0.303c-0.101,0.101-0.202,0.201-0.403,0.302c-0.101,0.101-0.202,0.202-0.403,0.302
	c-0.101,0.101-0.202,0.202-0.403,0.302c-0.101,0.101-0.202,0.202-0.403,0.302l0,0c-0.101,0.101-0.202,0.202-0.403,0.303
	c-0.101,0.101-0.202,0.202-0.302,0.403c-0.101,0.101-0.202,0.202-0.403,0.403c-0.101,0.202-0.201,0.302-0.302,0.403
	c-0.101,0.101-0.202,0.302-0.302,0.403c-0.101,0.101-0.202,0.303-0.302,0.403c-0.101,0.202-0.202,0.302-0.303,0.403
	c-0.101,0.101-0.201,0.302-0.302,0.403c-0.101,0.202-0.202,0.303-0.302,0.403c-0.101,0.202-0.202,0.302-0.302,0.504
	c-0.101,0.202-0.202,0.302-0.303,0.403c-0.101,0.202-0.201,0.302-0.302,0.504c-0.101,0.202-0.202,0.302-0.302,0.504
	c-0.101,0.202-0.202,0.302-0.302,0.504l0,0c-0.101,0.202-0.202,0.302-0.303,0.504c-0.101,0.202-0.202,0.302-0.302,0.504l0,0
	c-0.101,0.202-0.202,0.302-0.202,0.504c-0.101,0.202-0.202,0.302-0.302,0.504s-0.202,0.303-0.202,0.504
	c-0.101,0.202-0.202,0.303-0.202,0.504c-0.101,0.201-0.202,0.302-0.202,0.504c-0.101,0.201-0.201,0.302-0.201,0.504
	c-0.101,0.201-0.202,0.302-0.202,0.504c-0.101,0.202-0.202,0.302-0.202,0.504l0,0l0,0c-0.101,0.202-0.101,0.403-0.202,0.504
	c-0.101,0.202-0.202,0.403-0.202,0.504c-0.101,0.202-0.101,0.302-0.202,0.504c-0.101,0.202-0.101,0.403-0.201,0.504
	c-0.101,0.202-0.101,0.403-0.202,0.504c-0.101,0.202-0.101,0.403-0.202,0.504c-0.101,0.202-0.101,0.403-0.202,0.504
	c-0.101,0.202-0.101,0.403-0.202,0.504c-0.101,0.202-0.101,0.403-0.201,0.504c0,0.201-0.101,0.403-0.101,0.504
	c-0.101,0.202-0.101,0.403-0.202,0.504c0,0.202-0.101,0.403-0.101,0.604c-0.101,0.202-0.101,0.403-0.101,0.504
	c0,0.202-0.101,0.403-0.101,0.504l0,0c0,0.202-0.101,0.403-0.101,0.504c-0.101,0.201-0.101,0.403-0.101,0.504l0,0
	c0,0.201-0.101,0.403-0.101,0.504c0,0.202-0.101,0.403-0.101,0.504c0,0.202-0.101,0.403-0.101,0.604s0,0.403-0.101,0.504
	c0,0.201,0,0.403-0.101,0.605c0,0.201,0,0.402,0,0.504c0,0.201,0,0.402-0.101,0.504c0,0.201,0,0.402,0,0.504
	c0,0.201,0,0.402,0,0.604c0,0.201,0,0.403,0,0.504s0,0.403,0,0.504c0,0.202,0,0.403,0,0.504c0,0.202,0,0.403,0,0.504
	c0,0.202,0,0.302,0,0.504s0,0.403,0,0.504c0,0.202,0,0.403,0,0.504c0,0.202,0,0.303,0.101,0.504c0,0.202,0,0.303,0.101,0.504
	c0,0.202,0,0.403,0.101,0.504c0,0.202,0.101,0.403,0.101,0.505c0,0.201,0,0.302,0.101,0.504c0,0.201,0.101,0.302,0.101,0.504
	c0,0.201,0.101,0.302,0.101,0.504c0.101,0.302,0.201,0.705,0.201,1.008c0,0.201,0.101,0.302,0.101,0.504
	c0.101,0.201,0.101,0.302,0.202,0.402c0,0.202,0.101,0.303,0.101,0.504c0.101,0.202,0.101,0.303,0.202,0.403
	c0.101,0.202,0.101,0.303,0.202,0.403c0,0.201,0.101,0.303,0.202,0.403c0.101,0.202,0.101,0.302,0.201,0.403
	c0.101,0.101,0.101,0.303,0.202,0.402c0.101,0.102,0.101,0.202,0.202,0.404c0.101,0.1,0.101,0.201,0.202,0.402
	c0.101,0.201,0.302,0.504,0.403,0.705c0.101,0.102,0.201,0.202,0.201,0.303c0.101,0.102,0.202,0.201,0.202,0.303
	c0.101,0.101,0.202,0.201,0.202,0.303c0.101,0.101,0.202,0.201,0.202,0.302c0.101,0.101,0.202,0.202,0.202,0.303
	c0.101,0.101,0.202,0.201,0.202,0.302c0.101,0.102,0.201,0.202,0.201,0.303c0.101,0.101,0.202,0.201,0.202,0.201
	c0.101,0.102,0.202,0.202,0.302,0.202c0.101,0.101,0.202,0.201,0.202,0.201c0.101,0.101,0.202,0.101,0.302,0.202
	c0.101,0.101,0.202,0.201,0.303,0.201c0.101,0.102,0.202,0.102,0.302,0.201l0.101,0.102L171.745,276.365z M183.235,285.738
	c-0.907-3.326-2.419-5.846-4.233-7.458l-10.784,44.347c1.713-0.604,3.527-1.612,5.342-3.225c0.302-0.202,0.605-0.504,0.907-0.807
	s0.604-0.605,0.907-0.907C182.328,309.727,185.957,295.716,183.235,285.738z M381.085,213.875c-0.403,0.403-0.806,0.907-1.209,1.31
	s-0.807,0.807-1.21,1.109c-5.342,4.737-10.784,6.35-15.421,4.838c-0.302-0.101-0.604-0.202-0.907-0.302
	c-0.302-0.101-0.604-0.202-0.906-0.403c-0.102-0.101-0.303-0.202-0.403-0.202c-0.202-0.101-0.303-0.202-0.403-0.202
	c-0.201-0.101-0.303-0.202-0.403-0.202c-0.201-0.101-0.302-0.201-0.403-0.201c-0.302-0.202-0.504-0.403-0.806-0.605
	c-0.303-0.202-0.504-0.403-0.706-0.604c-0.201-0.202-0.504-0.504-0.705-0.706c-0.202-0.202-0.504-0.504-0.706-0.807
	c-0.201-0.302-0.403-0.504-0.604-0.907c-0.201-0.303-0.403-0.605-0.604-0.907c-0.202-0.302-0.403-0.605-0.605-1.008
	c-0.201-0.303-0.402-0.706-0.504-1.008c-0.201-0.403-0.302-0.706-0.504-1.109c-0.201-0.403-0.302-0.806-0.504-1.209
	c-0.201-0.403-0.302-0.807-0.403-1.209c-0.201-0.403-0.302-0.907-0.402-1.311c-0.102-0.504-0.202-0.907-0.303-1.411
	s-0.201-1.008-0.303-1.411c-0.101-0.504-0.201-1.008-0.201-1.512c0-0.202-0.101-0.504-0.101-0.706s-0.101-0.504-0.101-0.706
	c-0.102-0.504-0.102-1.008-0.102-1.512c0-0.504-0.101-1.008-0.101-1.512s0-1.008,0-1.512s0-1.109,0-1.613c0-0.302,0-0.504,0-0.806
	c0-0.202,0-0.504,0-0.806c0-0.202,0-0.504,0.101-0.807c0-0.302,0.102-0.504,0.102-0.806s0.101-0.504,0.101-0.806
	c0-0.303,0.101-0.504,0.101-0.807c0-0.302,0.101-0.504,0.101-0.806s0.101-0.504,0.101-0.806c0-0.202,0.102-0.504,0.102-0.807l0,0
	c0-0.302,0.101-0.504,0.101-0.806c0.101-0.302,0.101-0.504,0.201-0.806l0,0c0-0.303,0.101-0.504,0.202-0.807
	c0.101-0.504,0.201-1.008,0.403-1.612c0.101-0.504,0.201-1.008,0.402-1.613c0.202-0.504,0.303-1.008,0.504-1.512
	c0.202-0.504,0.303-1.008,0.504-1.512c0.202-0.504,0.303-1.008,0.505-1.512c0.201-0.504,0.402-1.008,0.604-1.512
	c0.101-0.202,0.201-0.504,0.302-0.706l0,0c0.102-0.302,0.202-0.504,0.303-0.706s0.201-0.504,0.303-0.706
	c0.101-0.202,0.201-0.504,0.302-0.706c0.202-0.504,0.504-1.008,0.706-1.512c0.201-0.504,0.504-0.907,0.705-1.411
	c0.202-0.504,0.504-0.907,0.807-1.411c0.201-0.504,0.504-0.907,0.806-1.31c0.202-0.202,0.303-0.403,0.403-0.605
	c0.102-0.201,0.303-0.403,0.403-0.604c0.303-0.403,0.604-0.907,0.907-1.311c0.303-0.403,0.604-0.806,0.907-1.209
	c0.201-0.202,0.302-0.403,0.504-0.604c0.201-0.202,0.302-0.403,0.504-0.605c0.303-0.403,0.604-0.806,1.008-1.108
	c0.201-0.202,0.303-0.303,0.504-0.504c0.202-0.202,0.303-0.303,0.504-0.504c0.403-0.303,0.706-0.706,1.008-1.008
	c0.202-0.202,0.303-0.302,0.504-0.504l0,0c0.202-0.101,0.303-0.302,0.504-0.403c0.303-0.303,0.706-0.504,1.008-0.807
	c0.202-0.101,0.303-0.201,0.504-0.403c0.202-0.101,0.303-0.202,0.504-0.403c0.303-0.202,0.706-0.504,1.009-0.605
	c0.201-0.101,0.302-0.201,0.504-0.302c0.201-0.101,0.302-0.202,0.504-0.302c0.302-0.202,0.705-0.403,1.008-0.504
	c0.403-0.202,0.705-0.302,1.008-0.403c0.201-0.101,0.302-0.101,0.504-0.202c0.201-0.101,0.302-0.101,0.504-0.202
	c0.302-0.101,0.705-0.201,1.008-0.201c0.201,0,0.303-0.101,0.504-0.101s0.303-0.101,0.504-0.101s0.303-0.101,0.504-0.101
	s0.303,0,0.504-0.101c0.202,0,0.303,0,0.504,0c0.202,0,0.303,0,0.504,0c0.303,0,0.604,0,0.907,0.101
	c0.303,0,0.604,0.101,0.907,0.101c0.303,0.101,0.604,0.101,0.907,0.202c4.838,1.209,8.869,5.745,10.885,13.203
	C396.305,182.731,391.265,202.587,381.085,213.875z M375.139,165.093c-0.101,0-0.201,0-0.303,0.101
	c-0.101,0-0.201,0.101-0.302,0.101s-0.202,0.101-0.403,0.101c-0.101,0-0.202,0.101-0.403,0.101c-0.101,0-0.201,0.101-0.303,0.101
	c-0.101,0-0.201,0.101-0.402,0.101c-0.102,0.101-0.202,0.101-0.403,0.201c-0.101,0.101-0.202,0.101-0.403,0.202
	c-0.101,0.101-0.201,0.101-0.403,0.202c-0.101,0.101-0.201,0.101-0.403,0.202c-0.101,0.101-0.201,0.202-0.403,0.202
	c-0.101,0.101-0.201,0.201-0.402,0.201c-0.102,0.101-0.202,0.202-0.403,0.202c-0.101,0.101-0.202,0.202-0.403,0.303
	c-0.101,0.101-0.201,0.201-0.403,0.201c-0.101,0.101-0.201,0.202-0.302,0.303c-0.102,0.101-0.202,0.202-0.403,0.302
	c-0.101,0.101-0.202,0.202-0.403,0.302c-0.101,0.101-0.202,0.202-0.403,0.302c-0.101,0.101-0.201,0.202-0.403,0.303
	c-0.101,0.101-0.201,0.201-0.403,0.403c-0.101,0.101-0.201,0.202-0.402,0.403c-0.102,0.101-0.202,0.202-0.303,0.403
	c-0.101,0.101-0.201,0.202-0.303,0.403c-0.101,0.202-0.201,0.303-0.402,0.403c-0.102,0.202-0.202,0.302-0.303,0.403
	c-0.101,0.101-0.202,0.302-0.303,0.403c-0.101,0.202-0.201,0.302-0.302,0.403c-0.102,0.202-0.202,0.302-0.303,0.403
	c-0.101,0.202-0.201,0.302-0.303,0.403c-0.101,0.202-0.201,0.303-0.302,0.504c-0.101,0.202-0.202,0.303-0.303,0.504
	c-0.101,0.202-0.201,0.303-0.302,0.504c-0.102,0.202-0.202,0.303-0.303,0.504l0,0c-0.101,0.201-0.201,0.302-0.201,0.504
	c-0.102,0.202-0.202,0.302-0.303,0.504l0,0c-0.101,0.202-0.201,0.302-0.201,0.504c-0.102,0.202-0.202,0.302-0.303,0.504
	s-0.201,0.302-0.201,0.504c-0.102,0.202-0.202,0.302-0.202,0.504c-0.101,0.202-0.201,0.302-0.201,0.504
	c-0.102,0.202-0.202,0.302-0.202,0.504c-0.101,0.202-0.201,0.302-0.201,0.504c-0.101,0.202-0.202,0.303-0.202,0.504l0,0
	c-0.101,0.201-0.101,0.302-0.201,0.504c-0.101,0.201-0.202,0.302-0.202,0.504c-0.101,0.201-0.101,0.403-0.201,0.504
	c-0.101,0.201-0.101,0.403-0.201,0.504c-0.102,0.202-0.102,0.403-0.202,0.504c-0.101,0.202-0.101,0.403-0.201,0.504
	c-0.101,0.202-0.101,0.403-0.202,0.504c-0.101,0.202-0.101,0.403-0.201,0.504c0,0.202-0.101,0.403-0.201,0.504
	c0,0.202-0.102,0.403-0.102,0.605c-0.101,0.202-0.101,0.403-0.201,0.504c0,0.202-0.101,0.403-0.101,0.504
	c-0.102,0.202-0.102,0.403-0.102,0.604s-0.101,0.403-0.101,0.504l0,0c0,0.201-0.101,0.403-0.101,0.504
	c-0.101,0.201-0.101,0.403-0.101,0.604s-0.101,0.403-0.101,0.504c0,0.202-0.102,0.403-0.102,0.605s-0.101,0.403-0.101,0.504
	c0,0.202,0,0.403-0.101,0.604c0,0.202,0,0.403-0.101,0.504c0,0.202,0,0.403-0.102,0.504c0,0.202,0,0.403,0,0.605s0,0.403,0,0.504
	c0,0.202,0,0.403,0,0.504c0,0.202,0,0.403,0,0.504c0,0.101,0,0.403,0,0.504c0,0.202,0,0.403,0,0.504c0,0.202,0,0.403,0,0.504
	c0,0.202,0,0.403,0,0.504c0,0.201,0,0.403,0,0.504c0,0.202,0,0.403,0,0.504c0,0.202,0,0.403,0.102,0.504
	c0,0.202,0,0.403,0.101,0.504c0,0.202,0,0.302,0.101,0.504c0,0.202,0.101,0.302,0.101,0.504s0.102,0.302,0.102,0.504
	s0.101,0.302,0.101,0.504c0.101,0.202,0.101,0.302,0.101,0.504c0.101,0.303,0.201,0.605,0.201,1.008
	c0,0.201,0.102,0.302,0.102,0.504c0.101,0.201,0.101,0.302,0.201,0.504c0,0.201,0.101,0.302,0.101,0.403
	c0.102,0.202,0.102,0.303,0.202,0.504c0.101,0.101,0.101,0.303,0.201,0.403l0,0l0,0c0,0.101,0.101,0.202,0.202,0.403
	c0.101,0.101,0.101,0.202,0.201,0.403c0.101,0.101,0.101,0.202,0.201,0.403c0.102,0.101,0.102,0.202,0.202,0.403
	c0.101,0.201,0.101,0.201,0.201,0.403s0.303,0.504,0.403,0.706c0.101,0.101,0.202,0.202,0.202,0.303
	c0.101,0.101,0.201,0.201,0.201,0.302c0.101,0.101,0.201,0.202,0.201,0.302c0.102,0.101,0.202,0.202,0.202,0.302
	c0.101,0.101,0.201,0.202,0.201,0.302c0.101,0.101,0.202,0.202,0.202,0.303c0.101,0.101,0.201,0.202,0.201,0.202
	c0.101,0.101,0.202,0.201,0.202,0.201c0.101,0.101,0.201,0.202,0.302,0.202c0.101,0.101,0.202,0.202,0.202,0.202
	c0.101,0.101,0.201,0.202,0.302,0.202c0.101,0.101,0.202,0.101,0.303,0.202c0.101,0.101,0.201,0.202,0.302,0.202
	c0,0,0.102,0,0.102,0.101L375.139,165.093z M386.629,174.366c-0.907-3.427-2.419-5.846-4.334-7.458l-10.785,44.348
	c1.714-0.605,3.528-1.613,5.342-3.225c0.303-0.202,0.605-0.504,0.907-0.807c0.303-0.302,0.605-0.604,0.907-0.907
	C385.722,198.354,389.35,184.445,386.629,174.366z"></path>
<path id="color_x5F_8" fill="#FD6322" d="M333.916,282.312c0.101,0,0.101,0.101,0.201,0.101c-0.705,1.109-1.512,2.318-2.419,3.628
	c-1.209,0.101-2.419-0.101-3.326-0.604c-1.512-0.907-1.512-2.318,0-3.226c1.512-0.907,3.83-0.907,5.342-0.101
	c0.101,0,0.101,0.101,0.202,0.101C333.814,282.312,333.916,282.312,333.916,282.312z M172.148,265.077l-0.907-0.101l-1.008-0.101
	h-1.008l-1.008,0.101l-1.008,0.202l-1.008,0.302l-1.008,0.302l-1.008,0.403l-1.008,0.504l-1.008,0.605L161.163,268l-1.008,0.706
	l-1.008,0.806l-1.008,0.907l-1.008,1.008l-1.008,1.008l-1.008,1.109l-0.907,1.209l-0.907,1.209l-1.108,1.209l-0.807,1.31
	l-0.806,1.31l-0.806,1.411l-0.706,1.411l-0.706,1.411l-0.605,1.512l-0.604,1.512l-0.605,1.512l-0.504,1.512l-0.504,1.512
	l-0.504,1.613l-0.403,1.613l-0.403,1.612l-0.303,1.613l-0.302,1.613l-0.202,1.612l-0.202,1.613l-0.101,1.612l-0.101,1.612v1.512
	v1.512l0.101,1.512l0.202,1.512l0.202,1.513l0.201,1.512l0.303,1.411l0.403,1.41l0.403,1.311l0.403,1.21l0.504,1.21l0.504,1.108
	l0.504,1.108l0.605,1.008l0.604,0.907l0.706,0.907l0.706,0.807l0.706,0.705l0.706,0.604l0.806,0.604l0.806,0.504l0.807,0.404
	l0.806,0.402l0.907,0.303l5.14,1.411c-0.302-0.101-0.604-0.202-0.907-0.303c-0.302-0.101-0.604-0.202-0.907-0.403
	c-0.303-0.101-0.504-0.303-0.807-0.402c-0.302-0.202-0.504-0.303-0.806-0.504c-0.302-0.202-0.504-0.404-0.806-0.605
	c-0.202-0.201-0.504-0.402-0.706-0.604c-0.202-0.202-0.504-0.504-0.706-0.706c-0.202-0.201-0.504-0.504-0.706-0.806
	c-0.202-0.303-0.403-0.604-0.605-0.907c-0.101-0.201-0.202-0.303-0.302-0.504s-0.202-0.303-0.302-0.504
	c-0.202-0.303-0.403-0.605-0.605-1.008c-0.202-0.303-0.403-0.705-0.504-1.109c-0.202-0.302-0.302-0.705-0.504-1.108
	s-0.302-0.806-0.504-1.21c-0.101-0.201-0.202-0.402-0.202-0.604c-0.101-0.202-0.202-0.404-0.202-0.605
	c-0.201-0.402-0.302-0.907-0.403-1.311c-0.101-0.504-0.202-0.906-0.303-1.41c-0.101-0.504-0.201-0.908-0.302-1.412
	c-0.101-0.504-0.202-1.008-0.202-1.512c-0.101-0.504-0.101-1.008-0.201-1.512c-0.101-0.504-0.101-1.008-0.101-1.512
	s-0.101-1.008-0.101-1.512s0-1.008,0-1.512s0-1.008,0-1.512s0-1.109,0.101-1.613c0-0.504,0.101-1.108,0.101-1.612
	c0.101-0.504,0.101-1.108,0.201-1.612c0.101-0.504,0.202-1.109,0.202-1.613c0-0.302,0.101-0.503,0.101-0.806
	c0-0.303,0.101-0.504,0.101-0.807c0.101-0.302,0.101-0.504,0.202-0.806c0.101-0.302,0.101-0.504,0.202-0.806
	c0-0.303,0.101-0.504,0.202-0.807c0.101-0.302,0.101-0.504,0.201-0.806c0.101-0.504,0.202-1.109,0.403-1.613
	s0.302-1.108,0.504-1.612s0.302-1.008,0.504-1.512c0.202-0.504,0.302-1.008,0.504-1.512s0.403-1.008,0.605-1.512
	c0.101-0.302,0.202-0.504,0.302-0.706s0.202-0.504,0.302-0.706c0.202-0.504,0.403-1.008,0.706-1.512
	c0.202-0.504,0.504-0.907,0.706-1.411s0.504-0.907,0.706-1.411s0.504-0.907,0.806-1.411c0.202-0.504,0.504-0.907,0.807-1.31
	c0.302-0.504,0.504-0.907,0.907-1.31c0.303-0.403,0.605-0.907,0.907-1.209c0.302-0.403,0.605-0.807,0.907-1.21
	c0.302-0.403,0.604-0.806,0.907-1.209c0.302-0.403,0.604-0.706,1.008-1.108c0.302-0.403,0.706-0.706,1.008-1.109
	c0.202-0.202,0.302-0.302,0.504-0.504s0.302-0.302,0.504-0.504c0.302-0.302,0.706-0.604,1.008-0.907
	c0.303-0.302,0.706-0.604,1.008-0.806c0.302-0.302,0.705-0.504,1.008-0.706c0.302-0.202,0.706-0.504,1.008-0.706
	s0.706-0.403,1.008-0.604s0.706-0.303,1.008-0.504c0.302-0.202,0.706-0.303,1.008-0.403c0.303-0.101,0.706-0.202,1.008-0.302
	c0.302-0.101,0.705-0.202,1.008-0.303c0.302-0.101,0.706-0.101,1.008-0.201c0.302,0,0.604-0.101,1.008-0.101
	c0.302,0,0.605,0,1.008,0c0.302,0,0.605,0,0.907,0s0.604,0.101,0.907,0.202c0.302,0,0.604,0.101,0.907,0.202l-5.14-1.411
	L172.148,265.077z M376.449,154.006l-0.907-0.202l-0.907-0.101h-1.008h-1.008l-1.008,0.101l-1.008,0.202l-1.009,0.302l-1.008,0.303
	l-1.008,0.403l-1.008,0.504l-1.008,0.605l-1.008,0.604l-1.008,0.706l-1.008,0.807l-1.008,0.907l-1.008,1.008l-1.008,1.109
	l-1.008,1.109l-0.907,1.209l-0.907,1.209l-0.907,1.31l-0.807,1.311l-0.806,1.31l-0.807,1.411l-0.706,1.411l-0.705,1.411
	l-0.604,1.512l-0.604,1.512l-0.505,1.512l-0.504,1.512l-0.504,1.512l-0.504,1.512l-0.402,1.613l-0.403,1.612l-0.303,1.613
	l-0.303,1.613l-0.201,1.612l-0.201,1.613l-0.102,1.613l-0.101,1.612v1.613v1.512l0.101,1.512l0.102,1.512l0.201,1.512l0.201,1.512
	l0.303,1.411l0.403,1.411l0.403,1.311l0.403,1.209l0.504,1.21l0.504,1.108l0.504,1.008l0.604,1.008l0.604,0.907l0.604,0.907
	l0.706,0.806l0.705,0.706l0.706,0.706l0.807,0.605l0.806,0.504l0.807,0.504l0.806,0.403l0.907,0.303l4.939,1.31l0.201,0.101
	c-0.303-0.101-0.604-0.201-0.907-0.302c-0.302-0.101-0.604-0.202-0.907-0.403c-0.302-0.202-0.504-0.303-0.806-0.504
	c-0.303-0.202-0.504-0.303-0.807-0.504c-0.303-0.202-0.504-0.403-0.807-0.605c-0.302-0.202-0.504-0.403-0.705-0.605
	c-0.202-0.201-0.504-0.504-0.706-0.705c-0.201-0.202-0.504-0.504-0.705-0.807c-0.202-0.302-0.403-0.504-0.604-0.907
	c-0.202-0.302-0.403-0.604-0.605-0.907c-0.201-0.303-0.402-0.605-0.604-1.008c-0.201-0.302-0.403-0.705-0.504-1.008
	c-0.201-0.403-0.303-0.706-0.504-1.108c-0.201-0.403-0.303-0.807-0.504-1.209c-0.201-0.403-0.303-0.807-0.403-1.209
	c-0.201-0.403-0.302-0.907-0.403-1.311c-0.101-0.504-0.201-0.907-0.302-1.411c-0.102-0.504-0.202-1.008-0.303-1.411
	c-0.101-0.504-0.201-1.008-0.201-1.512c0-0.201-0.102-0.504-0.102-0.705c0-0.202-0.101-0.504-0.101-0.706
	c-0.101-0.504-0.101-1.008-0.101-1.512s-0.101-1.008-0.101-1.512s0-1.008,0-1.512s0-1.109,0-1.613c0-0.302,0-0.504,0-0.806
	c0-0.202,0-0.504,0-0.807c0-0.201,0-0.504,0.101-0.806c0-0.302,0.101-0.504,0.101-0.806c0-0.303,0.101-0.504,0.101-0.807
	c0-0.302,0.102-0.504,0.102-0.806c0.101-0.504,0.201-1.109,0.201-1.613c0.101-0.504,0.202-1.108,0.202-1.612
	c0.101-0.303,0.101-0.504,0.201-0.807c0.101-0.302,0.101-0.504,0.201-0.806c0.102-0.504,0.202-1.008,0.403-1.613
	c0.101-0.504,0.202-1.008,0.403-1.612c0.201-0.504,0.303-1.008,0.504-1.512c0.202-0.504,0.303-1.008,0.504-1.512
	c0.202-0.504,0.303-1.008,0.504-1.512c0.202-0.504,0.403-1.008,0.604-1.512c0.102-0.202,0.202-0.504,0.303-0.706
	c0.101-0.303,0.201-0.504,0.303-0.706c0.201-0.504,0.402-1.008,0.705-1.512c0.202-0.504,0.504-1.008,0.706-1.512
	c0.201-0.504,0.504-0.907,0.705-1.411c0.202-0.504,0.504-0.907,0.807-1.411c0.201-0.504,0.504-0.907,0.806-1.311
	c0.303-0.403,0.504-0.907,0.907-1.31c0.303-0.403,0.604-0.907,0.907-1.311c0.303-0.403,0.604-0.806,0.907-1.209
	c0.303-0.403,0.604-0.806,0.907-1.209c0.302-0.403,0.604-0.806,1.008-1.108c0.303-0.303,0.705-0.706,1.008-1.008
	c0.403-0.303,0.705-0.706,1.008-1.008c0.202-0.202,0.303-0.303,0.504-0.504c0.202-0.101,0.303-0.302,0.504-0.403
	c0.303-0.303,0.706-0.504,1.008-0.807c0.303-0.201,0.706-0.504,1.008-0.705c0.303-0.202,0.706-0.504,1.008-0.605
	c0.303-0.202,0.706-0.403,1.009-0.605c0.302-0.201,0.705-0.403,1.008-0.504c0.402-0.201,0.705-0.302,1.008-0.403
	c0.302-0.202,0.705-0.202,1.008-0.403c0.302-0.101,0.705-0.202,1.008-0.202c0.302-0.101,0.705-0.202,1.008-0.202
	c0.303-0.101,0.705-0.101,1.008-0.101s0.604,0,1.008,0c0.303,0,0.604,0,0.907,0.101c0.303,0,0.604,0.101,0.907,0.101
	c0.302,0.101,0.604,0.101,0.907,0.202L376.449,154.006z"></path>
<path id="color_x5F_7" fill="#D0E7E0" d="M342.08,267.898c-0.303-0.202-0.706-1.008-1.21-2.117
	c-4.334,0.605-8.466,1.915-11.894,3.83c-0.201,0.101-0.402,0.202-0.604,0.403c-1.915,1.209-3.427,2.52-4.535,3.931
	c-4.233,5.342-2.722,11.893,4.636,16.429c1.109-1.31,2.117-2.721,3.125-4.132c-1.21,0.101-2.419-0.101-3.326-0.604
	c-1.512-0.907-1.512-2.318,0-3.226s3.83-0.907,5.342-0.101c0.101,0,0.101,0.101,0.201,0.101c0.102,0,0.102,0.101,0.202,0.101
	s0.101,0.101,0.201,0.101c1.714-2.621,2.923-4.636,2.923-4.636l8.265-6.047v-3.931C345.204,267.898,342.886,268.402,342.08,267.898z
	 M333.412,276.869c-1.512,0.907-4.032,0.907-5.544,0c-1.512-0.907-1.512-2.318,0-3.225c1.512-0.806,3.83-0.907,5.342-0.101
	c0.101,0.101,0.101,0.101,0.202,0.101c0.101,0,0.101,0.101,0.201,0.101C334.924,274.651,334.823,276.063,333.412,276.869z
	 M342.886,272.333c-1.512,0.907-3.931,0.907-5.543,0c-1.512-0.907-1.512-2.318,0-3.226c1.411-0.907,3.83-0.907,5.342-0.101
	c0.101,0,0.101,0.101,0.201,0.101c0,0,0.101,0.101,0.202,0.101C344.499,270.116,344.397,271.527,342.886,272.333z M342.08,397.614
	c0.302-0.504,0.604-0.906,0.806-1.512v0.101l-2.016,12.498c0,2.822-3.527,5.141-7.962,5.141c-3.528,0-6.451-1.512-7.56-3.527
	l-1.814,11.087c0,3.427-4.334,6.249-9.676,6.249s-9.676-2.822-9.676-6.249l-2.52-15.22l0,0c0.101,0.303,0.302,0.706,0.403,1.008
	c0.101,0.101,0.101,0.303,0.201,0.403c0.102,0.101,0.102,0.201,0.201,0.303c0.102,0.101,0.202,0.302,0.303,0.403
	c0.102,0.101,0.102,0.101,0.201,0.201c0.102,0.201,0.303,0.303,0.404,0.403c0.1,0.101,0.1,0.101,0.201,0.201
	c0.201,0.202,0.403,0.303,0.604,0.504l0.101,0.101c1.008,0.807,2.218,1.411,3.629,1.915h0.101c0.303,0.102,0.604,0.202,0.907,0.303
	c0.101,0,0.201,0,0.201,0.101c0.303,0.101,0.504,0.101,0.807,0.202c0.101,0,0.201,0,0.303,0.101c0.302,0,0.504,0.101,0.806,0.101
	c0.102,0,0.202,0,0.403,0.101c0.303,0,0.604,0.102,0.807,0.102c0.101,0,0.201,0,0.302,0c0.403,0,0.807,0,1.21,0s0.807,0,1.209,0
	c0.102,0,0.202,0,0.303,0c0.303,0,0.604,0,0.807-0.102c0.101,0,0.201,0,0.403-0.101c0.302,0,0.504-0.101,0.806-0.101
	c0.101,0,0.202,0,0.303-0.101c0.101,0,0.302,0,0.403-0.102c0.101,0,0.302-0.101,0.403-0.101c0.101,0,0.201,0,0.201-0.101
	c0.303-0.101,0.604-0.201,0.907-0.303h0.101c1.411-0.504,2.62-1.108,3.629-1.915l0.101-0.101c0.201-0.201,0.403-0.302,0.604-0.504
	c0.101-0.101,0.101-0.101,0.201-0.201c0.202-0.101,0.303-0.303,0.403-0.504c0.101-0.101,0.101-0.101,0.202-0.202
	c0.101-0.101,0.201-0.302,0.302-0.403c0.101-0.101,0.101-0.201,0.202-0.201c0.101-0.101,0.201-0.303,0.201-0.403
	c0.202-0.302,0.303-0.604,0.403-1.008l0,0c0.201-0.504,0.303-1.108,0.303-1.612c0-1.915-1.109-3.729-2.923-5.141
	c-2.318-1.713-5.745-2.822-9.475-2.822c-5.846,0-10.785,2.621-12.095,6.148l-3.427-20.562v-0.1c0.403,1.209,1.209,2.418,2.217,3.527
	l0,0c0.202,0.302,0.503,0.504,0.806,0.705c0,0,0,0,0.102,0.102c0.302,0.201,0.504,0.504,0.806,0.705c0,0,0.101,0,0.101,0.101
	c0.907,0.706,2.016,1.31,3.226,1.813l0,0c0.202,0.102,0.504,0.202,0.807,0.303c0.201,0.102,0.402,0.202,0.604,0.202
	c0.201,0.101,0.504,0.201,0.705,0.201c0.202,0.101,0.504,0.202,0.706,0.202c0.201,0.101,0.403,0.101,0.705,0.201
	c0.303,0.101,0.604,0.101,0.807,0.201c0.201,0,0.403,0.102,0.705,0.102c0.303,0.101,0.605,0.101,0.907,0.201
	c0.202,0,0.403,0.102,0.604,0.102c0.403,0,0.706,0.1,1.109,0.1c0.201,0,0.403,0,0.504,0c0.504,0,1.108,0.102,1.713,0.102
	c0.605,0,1.109,0,1.714-0.102c0.201,0,0.403,0,0.604,0c0.303,0,0.706-0.1,1.008-0.1c0.202,0,0.504-0.102,0.706-0.102
	c0.302,0,0.604-0.101,0.907-0.101c0.302,0,0.504-0.101,0.705-0.202c0.202-0.101,0.504-0.101,0.706-0.201
	c0.302-0.101,0.504-0.101,0.806-0.201c0.202-0.102,0.403-0.102,0.604-0.202c0.303-0.101,0.504-0.201,0.807-0.302
	c0.101-0.102,0.303-0.102,0.403-0.202c1.512-0.604,2.822-1.31,4.031-2.116c0.101,0,0.101-0.102,0.202-0.102
	c0.302-0.201,0.504-0.402,0.806-0.604c0.102-0.102,0.102-0.102,0.202-0.202c0.201-0.202,0.504-0.403,0.705-0.604
	c0,0,0.101-0.102,0.101-0.202c0.202-0.202,0.403-0.504,0.605-0.706c0,0,0-0.1,0.101-0.1c0.604-0.807,1.108-1.714,1.411-2.621v0.101
	l-1.008,6.148c-5.04,0.403-8.87,3.226-8.87,6.552c0,0.504,0.102,1.008,0.303,1.41v-0.101c0.201,0.504,0.403,1.008,0.807,1.512
	l0.101,0.102c0.101,0.101,0.201,0.201,0.303,0.302c0.101,0.101,0.201,0.202,0.201,0.303c0.101,0.101,0.101,0.101,0.201,0.201
	c0.102,0.101,0.202,0.202,0.403,0.303c0.101,0,0.101,0.101,0.202,0.101c0.201,0.101,0.403,0.303,0.604,0.403l0,0
	c0.705,0.403,1.512,0.807,2.318,1.108l0,0c0.302,0.101,0.504,0.202,0.806,0.202c0.102,0,0.102,0,0.202,0s0.302,0.101,0.403,0.101
	c0.101,0,0.201,0,0.302,0.101c0.101,0,0.202,0,0.202,0c0.201,0,0.402,0.101,0.705,0.101c0.101,0,0.202,0,0.303,0
	c0.201,0,0.504,0,0.705,0.101c0.101,0,0.202,0,0.303,0c0.302,0,0.705,0,1.008,0s0.705,0,1.008,0c0.101,0,0.201,0,0.303,0
	c0.201,0,0.504,0,0.705-0.101c0.101,0,0.202,0,0.303,0c0.201,0,0.504-0.101,0.705-0.101c0.101,0,0.202,0,0.202,0
	c0.201,0,0.504-0.101,0.705-0.201c0.101,0,0.101,0,0.201,0c0.303-0.102,0.505-0.202,0.807-0.202l0,0
	c0.907-0.302,1.613-0.705,2.318-1.108l0,0c0.201-0.101,0.403-0.303,0.604-0.403c0.101,0,0.101-0.101,0.202-0.101
	c0.101-0.101,0.302-0.202,0.402-0.303c0.102-0.101,0.102-0.101,0.202-0.201s0.201-0.202,0.201-0.303
	c0.102-0.101,0.202-0.201,0.303-0.302C341.979,397.716,341.979,397.614,342.08,397.614z"></path>
<path id="color_x5F_6" fill="#B6C8C1" d="M315.37,373.728c-7.66,0-13.909,2.822-14.614,6.552c0-0.202-0.101-0.404-0.101-0.605
	c0-4.637,6.652-8.466,14.715-8.466c8.063,0,14.716,3.829,14.716,8.466c0,0.504-0.101,0.907-0.202,1.411
	c0.102-0.201,0.102-0.504,0.202-0.706C329.48,376.65,323.131,373.728,315.37,373.728z M332.807,389.753
	c-4.736,0-8.668,2.218-8.668,4.938c0,0.102,0,0.202,0,0.403c0.303-2.218,4.032-3.931,8.567-3.931c4.536,0,8.265,1.713,8.567,3.931
	c0-0.101,0-0.201,0-0.403C341.475,391.971,337.544,389.753,332.807,389.753z M313.858,398.421c-5.745,0-10.481,2.722-10.481,6.048
	c0,0.101,0,0.302,0,0.402c0.504-2.62,4.938-4.736,10.481-4.736c5.442,0,9.979,2.016,10.382,4.736c0-0.101,0-0.302,0-0.402
	C324.341,401.143,319.604,398.421,313.858,398.421z"></path>
<path id="color_x5F_5" fill="#FFD2BB" d="M362.338,269.31l-0.101,1.512c0,0-3.729,2.117-7.357,2.218c-0.403,0-0.807,0-1.209,0
	c-0.102,0-0.202,0-0.303,0c-3.125-0.101-6.249-0.706-8.063-1.21v-3.931c0,0-2.419,0.504-3.124,0
	c-0.303-0.202-0.706-1.008-1.21-2.116c-1.008-2.318-2.318-5.745-3.124-7.66c-1.311-2.822-0.706-10.785-0.706-10.986l0,0
	c1.411,0.807,2.722,1.411,3.528,1.713c0,0,0,0,0.101,0c0.101,0.101,0.201,0.101,0.302,0.101c0,0,0,0,0.102,0
	c0.101,0,0.101,0,0.201,0.101c0,0,0,0,0.101,0h0.102v5.342c0,0,0.504-3.326,1.512-3.729c1.108-0.504,2.217,2.822,2.217,5.644
	c0,2.822-1.713,5.846-3.023,5.141c0,0,1.411,1.512,2.218,0.806c0,0-0.102,4.838,2.721,5.543c0,0,0.907,0.302,1.814,0
	c0,0,5.543,4.132,9.776,1.108c0,0,0.101,0,0.303,0.101h0.101c0.101,0,0.101,0,0.201,0
	C359.919,269.007,361.028,269.209,362.338,269.31z M314.262,300.05c0-0.101,0-0.202,0-0.302c0-0.202,0.101-0.504,0.101-0.706
	c0.101-0.202,0.101-0.403,0.202-0.604c0-0.101,0.101-0.202,0.101-0.403c0-0.101,0.101-0.101,0.101-0.202
	c0.706-1.613,2.016-3.225,2.923-4.233c-2.217-1.008-6.047-5.14-8.164-7.66c-1.008-1.109-1.612-1.915-1.612-1.915l-0.303-2.318l0,0
	l-4.133-3.931c0,0-0.302-0.604-0.504-2.117c-0.1-1.108,0.202-3.023,0.303-4.031c0-0.101,0-0.101,0-0.202c0,0.101,0,0.101,0,0.202
	l4.233,3.931c-0.201-1.209-0.604-3.931-0.907-4.435c-0.403-0.605-3.427-0.504-3.527-0.504c-0.605-1.008-2.217-3.226-3.226-2.621
	c-0.101,0.101-0.201,0.202-0.302,0.302c-1.008,1.209-1.108,4.838-1.108,4.838s-0.202-0.302-1.008,0
	c-0.806,0.302-1.814,2.621-1.814,2.621s-0.202,0-0.605,0.604c-0.504,0.605-1.209,3.931-1.108,4.737
	c0.101,0.806,7.156,6.753,7.156,6.753c0.705,1.209,2.418,3.628,4.334,6.249c4.031,5.442,9.373,12.095,9.574,12.296l0,0
	c-0.201-0.907-0.504-2.117-0.705-3.428c0-0.1,0-0.1,0-0.201c0-0.201-0.101-0.402-0.101-0.705c0-0.102,0-0.201,0-0.303
	c0-0.303,0-0.504,0-0.807c0-0.1,0-0.201,0-0.302C314.161,300.353,314.262,300.252,314.262,300.05z"></path>
<path id="color_x5F_4" fill="#00CEC9" d="M315.572,296.321c-0.202,0.302-0.403,0.604-0.504,0.907
	C315.27,297.027,315.37,296.624,315.572,296.321z M317.688,293.499c-0.604,0.706-1.411,1.713-2.116,2.822
	c1.31-2.016,3.023-3.729,3.023-3.729s2.822,1.411,3.226,2.218c0.403,0.806-0.202,1.209-0.202,1.209
	c0.504-0.101,1.109-0.303,1.814-0.706l-13.909-11.994v2.621C311.742,288.359,315.572,292.491,317.688,293.499z M328.473,290.274
	c-7.357-4.536-8.869-11.087-4.636-16.429l-1.814-1.008c-1.108-0.605-1.915-1.713-1.915-3.125v-56.845l-10.684,6.148v58.458
	l16.832,15.421C327.063,291.987,327.768,291.181,328.473,290.274z M573.795,332.303L276.97,507.173L42.634,372.115l72.468-41.627
	v57.551c0,1.412,0.806,2.521,1.915,3.125l7.962,4.737c1.008,0.705,2.419,0.807,3.628,0.101l73.677-42.533
	c2.217-1.209,3.527-3.629,3.527-6.148v-68.939l13.002-7.458v57.148c0,1.41,0.806,2.52,1.915,3.124l8.063,4.838
	c-1.008-0.604-1.713-1.714-1.713-3.023c0,2.722,2.923,4.435,5.342,3.023l73.173-42.231c4.031,5.443,9.373,12.095,9.575,12.296
	c0.201,0.807,0.403,1.311,0.403,1.311s1.008,1.411,2.317,1.915c1.311,0.504,2.822,1.21,2.822,1.21s0.102-0.202,0.303-0.504
	c1.008,0.504,5.141,2.418,5.946,2.52c1.008,0.201,12.599-7.862,12.599-7.862s-1.612,1.108-3.628,2.521c0,0,0,10.582-0.403,12.195
	c-0.403,1.612-1.915,5.846-1.915,5.846s2.722,1.713,4.334,1.512s2.822-1.411,2.822-1.411l-1.109-20.662l1.411,25.802
	c0,0,0.303,0.303,0.807,0.908c0,0.402,2.52,24.391,5.846,38.904c3.326,14.614,7.459,41.626,7.459,41.626l-0.605-3.83
	c0,0-1.008-1.008-4.334-2.318c-3.326-1.209-8.668,1.714-7.458,4.233c1.209,2.419,13.606,12.901,16.227,11.894
	c2.621-0.907,6.753-3.226,6.955-4.637c0,0,0.907,1.21,2.62,0.303c1.714-0.907,4.637-3.931,4.938-5.04
	c0.303-0.806-0.906-4.334-1.713-6.35c-0.101,1.008-0.201,1.512-0.201,1.714c0.101-1.311,7.155-70.149,4.636-77.608v-7.962
	c0,0,0-0.202-0.101-0.505c3.023-1.41,6.35-3.93,7.458-8.063c0,0-3.628-4.637-4.031-8.971c-0.403-4.333-5.241-28.019-9.172-32.555
	c-1.21-1.411-2.52-2.419-3.83-3.125c0.504-0.101,0.907-0.302,1.311-0.604c0,0-3.729-4.032-3.326-6.451
	c0.302-0.706,0.705-1.612,1.108-2.621l41.727-24.088L573.795,332.303z M340.77,408.701l2.016-12.498
	c0.201-0.504,0.303-0.906,0.303-1.41c0-3.629-4.637-6.552-10.281-6.552c-0.504,0-0.906,0-1.411,0.101l1.009-6.148
	c0.302-0.806,0.402-1.612,0.402-2.418c0-6.148-7.761-11.188-17.437-11.188c-9.575,0-17.437,4.938-17.437,11.188
	c0,0.806,0.101,1.612,0.403,2.418l3.427,20.562c-0.201,0.604-0.303,1.21-0.303,1.814s0.102,1.108,0.303,1.612l2.52,15.22
	c0,3.427,4.334,6.249,9.676,6.249s9.676-2.822,9.676-6.249l1.814-11.087c1.008,2.016,4.031,3.527,7.56,3.527
	C337.242,413.741,340.77,411.523,340.77,408.701z M456.879,361.129c3.931-5.342,2.52-10.885,0.403-12.297
	c-2.218-1.41-5.342,0.807-5.342,0.807s4.031-8.971,1.915-14.313c-2.117-5.342-5.745-4.132-6.048-6.854
	c-0.201-2.217,2.52-4.535,3.326-7.76c0.403-1.513,0.706-3.428,0.807-5.645c0.201-3.729-0.403-8.266-2.822-13.104
	c-5.745-11.893-12.599-5.442-14.413-2.116c-1.814,3.326-1.814,13.405-1.814,13.405s-8.466-1.713-11.691,4.232
	c-1.512,2.822-0.705,7.156,1.411,11.188c-4.636-3.528-7.357-0.706-8.97-3.024c-1.311-1.914-0.102-5.442-1.009-8.869
	c-0.402-1.512-1.108-3.527-2.217-5.645c-1.814-3.426-4.737-7.256-9.475-10.481c-11.489-7.761-14.413,1.714-14.312,5.745
	c0.101,3.931,5.442,13.203,5.442,13.203s-8.668,2.923-8.567,10.079c0.101,7.155,14.212,15.22,20.562,13.002
	c0,0-3.83,1.21-3.427,3.628c0.504,2.42,9.474,9.273,10.985,12.901c0,0-10.28-4.536-16.025,1.108
	c-5.644,5.645,1.814,12.195,1.814,12.195s-1.21,0.504-0.504,2.318c0.807,1.814,2.52,3.527,6.047,3.629
	c3.629,0,2.521-2.923,7.257-1.512c4.737,1.512,5.443,3.225,7.56,7.055c2.318,4.334,11.288,9.172,14.514,6.955
	c0,0,0,0.101,0.101,0.101v-0.101l0,0c0,0,0.102,0,0.102,0.101l-0.102-0.101l0,0c0,0,0-0.102,0-0.202
	c0-0.504-0.806-2.419-0.402-4.031c0.705-3.024,2.62-6.652,2.821-6.854c0.605-1.107,1.311-2.217,2.117-3.325
	c2.923-3.931,8.769-5.141,9.676-7.761c1.008-2.621,0.705-3.527,0.705-3.527S452.848,366.471,456.879,361.129z M426.34,334.117
	c0.604,1.512,1.108,3.023,1.411,4.435c1.209-1.411,4.132-0.806,4.132-0.806C430.069,337.443,428.154,336.032,426.34,334.117z"></path>
<path id="color_x5F_3" fill="#E84393" d="M425.735,385.117c0.705,1.311,1.612,2.62,2.52,3.527
	c-4.536-2.621-8.265-5.645-9.979-11.691c-4.435-11.894-13.707-12.195-20.46-9.777c7.66-3.93,15.219-2.318,19.956,5.141
	c0-1.612,0.303-3.326,0.604-5.141c0.403,0.102,0.907,0.303,1.411,0.807c-0.403,2.217-0.604,4.334-0.403,6.148
	c0.102,0.807,0.202,1.512,0.403,2.318c0.303,0.806,0.403,1.209,0.403,1.311C421.401,380.581,423.417,383,425.735,385.117z
	 M404.569,333.714c1.512,0.907,3.225,1.714,4.938,2.521c3.931,1.914,8.063,3.83,9.877,8.164c0.504,1.209,0.807,2.418,1.008,3.729
	c0.605,0.102,1.109,0.201,1.613,0.403c-0.202-1.612-0.604-3.226-1.21-4.737c-2.016-4.938-6.45-7.055-10.684-9.07
	c-4.334-2.017-8.365-3.932-8.97-8.77c-0.403-3.023-0.202-5.24,0-7.156c0.907-8.869-1.915-10.885-8.769-15.622
	c4.636,4.334,8.063,6.652,7.155,15.421c-0.201,2.016-0.402,4.334,0,7.459c0.303,2.721,1.512,4.636,3.125,6.047
	c-6.753,0.201-8.567-2.318-12.901-6.35C392.475,332.605,397.514,334.723,404.569,333.714z M429.464,349.236
	c-1.008,0.504-2.016,1.107-2.923,1.914c0.504,0.403,0.907,0.807,1.311,1.109c0.604-0.504,1.311-1.008,2.016-1.512
	C429.666,350.244,429.565,349.74,429.464,349.236z M439.946,357.803c2.52-3.225,4.535-6.854,5.141-10.885
	c0.705-5.04-2.017-8.77-4.536-12.498c-2.62-3.629-4.938-7.156-3.225-11.49c1.108-2.621,2.317-4.334,3.325-5.846
	c4.838-6.854,3.629-9.777,0.202-16.933c1.713,5.644,3.427,9.272-1.411,16.025c-1.108,1.512-2.419,3.326-3.527,6.148
	c-1.008,2.317-0.907,4.435-0.303,6.45c-5.645-3.023-5.946-5.946-7.56-11.289c-1.008,6.652,2.117,10.785,8.366,13.305
	c0.806,1.512,1.813,2.924,2.821,4.436c2.42,3.426,4.838,6.954,4.233,11.389c-0.806,5.645-4.838,10.482-8.668,14.816
	c-0.403,0.402-0.806,0.807-1.108,1.311c-1.814,2.016-3.527,4.031-4.737,6.047c-0.403-8.365-5.745-13.305-13.909-13.707
	c6.753,1.108,14.212,5.846,12.196,17.638c-1.814,7.458,1.209,12.397,4.938,18.041l0,0c0,0,0,0.101,0.101,0.101v-0.101l0,0l0,0
	c-1.713-5.14-4.636-11.087-3.729-16.429c0-0.101,0.102-0.504,0.202-1.311c0.201-0.705,0.403-1.41,0.806-2.116
	c1.21-2.62,3.528-5.342,6.048-8.063l0.403-0.504c5.645-5.744,12.296-5.543,19.553-6.248
	C449.319,355.082,446.296,354.578,439.946,357.803z M125.08,396.002C125.08,396.002,124.979,396.002,125.08,396.002
	C124.979,396.002,124.979,396.002,125.08,396.002L125.08,396.002z M256.711,130.522l7.761-4.536l11.893-6.854l16.731-9.676
	c4.838-2.822,8.77-10.482,8.77-17.134c0-0.504,0-0.907-0.102-1.411c0-0.101,0-0.202,0-0.302c0-0.302-0.101-0.706-0.101-1.008
	c0-0.101,0-0.202-0.101-0.303c-0.102-0.302-0.201-0.706-0.303-1.008v-0.101c-0.303-0.706-0.604-1.411-1.008-1.915l0,0
	c-0.202-0.202-0.403-0.504-0.604-0.706l-0.101-0.101c-0.202-0.202-0.403-0.303-0.604-0.504l-0.101-0.101
	c-0.302-0.101-0.504-0.302-0.806-0.403c-1.411-0.504-3.125-0.302-4.939,0.807c-1.612,0.907-3.124,2.419-4.435,4.233
	c-1.512-6.45-6.451-8.97-12.296-5.644c-6.652,3.83-12.095,13.909-12.699,23.081c-2.722,2.016-4.939,5.947-5.846,9.877
	c-0.302,0.101-0.705,0.202-1.108,0.403c-2.621,1.512-4.838,5.745-4.838,9.374C251.873,130.321,254.09,132.034,256.711,130.522z
	 M96.355,209.138c0-0.403-0.101-0.706-0.202-1.008c0-0.202-0.101-0.403-0.101-0.504c-0.101-0.302-0.201-0.605-0.201-0.907
	c0-0.202-0.101-0.302-0.101-0.403c-0.101-0.403-0.302-0.706-0.403-1.008c0-0.101-0.101-0.202-0.101-0.202
	c-0.202-0.302-0.403-0.604-0.604-0.907c-0.101-0.101-0.202-0.202-0.303-0.302c-0.101-0.202-0.302-0.403-0.504-0.504
	c-0.101-0.101-0.202-0.201-0.302-0.302c-0.202-0.101-0.302-0.302-0.504-0.403c-0.101-0.101-0.202-0.201-0.403-0.201
	c-0.202-0.101-0.403-0.202-0.706-0.303c-1.814-0.705-3.931-0.504-6.249,0.807c-1.915,1.108-3.83,2.923-5.442,5.14
	c-1.915-7.862-7.862-10.986-15.018-6.854c-8.063,4.636-14.715,16.933-15.623,28.221c-3.326,2.52-6.047,7.156-7.156,11.994
	c-0.403,0.101-0.907,0.302-1.311,0.504c-3.225,1.915-5.846,6.955-5.846,11.389c0,2.621,0.907,4.435,2.318,5.04
	c1.008,0.504,2.217,0.403,3.527-0.403l9.474-5.543l14.514-8.365l20.561-11.893c5.947-3.427,10.785-12.8,10.785-20.964
	c0-0.605,0-1.109-0.101-1.713C96.355,209.44,96.355,209.34,96.355,209.138z M152.696,190.19c0.302-0.101,0.604-0.202,1.008-0.403
	l7.761-4.536l11.893-6.854l16.731-9.676c4.838-2.822,8.769-10.482,8.769-17.134c0-0.504,0-0.907-0.101-1.411
	c0-0.101,0-0.302,0-0.403c0-0.303-0.101-0.605-0.101-0.807c0-0.101-0.101-0.302-0.101-0.403c-0.101-0.303-0.101-0.504-0.201-0.706
	c0-0.101-0.101-0.303-0.101-0.403c-0.101-0.302-0.202-0.604-0.302-0.806c0-0.101-0.101-0.101-0.101-0.202
	c-0.101-0.302-0.302-0.504-0.504-0.706c-0.101-0.101-0.101-0.202-0.201-0.302c-0.101-0.202-0.303-0.303-0.403-0.504
	c-0.101-0.101-0.202-0.202-0.202-0.202c-0.202-0.101-0.302-0.302-0.504-0.403c-0.101,0-0.101-0.101-0.202-0.101
	c-0.202-0.101-0.504-0.302-0.806-0.403c-1.411-0.504-3.125-0.302-4.939,0.806c-1.612,0.907-3.125,2.419-4.435,4.233
	c-1.512-6.451-6.451-8.97-12.296-5.645c-6.652,3.83-12.095,13.909-12.8,23.081c-2.721,2.016-4.938,5.846-5.846,9.877
	c-0.403,0.101-0.706,0.202-1.109,0.403c-2.62,1.512-4.838,5.745-4.838,9.374C148.866,189.182,150.58,190.794,152.696,190.19z
	 M327.868,276.869c1.512,0.907,4.032,0.907,5.544,0c1.512-0.806,1.512-2.217,0.101-3.125c0,0-0.101-0.101-0.202-0.101
	c-0.101,0-0.101-0.101-0.201-0.101c-1.512-0.807-3.931-0.706-5.342,0.101C326.256,274.551,326.356,275.962,327.868,276.869z
	 M357.903,197.145c0,0.201,0,0.403,0,0.504c0,0.201,0,0.403,0.101,0.504c0,0.202,0,0.403,0.102,0.504c0,0.202,0,0.302,0.101,0.504
	c0,0.202,0.101,0.302,0.101,0.504s0.101,0.302,0.101,0.504s0.102,0.302,0.102,0.504c0.101,0.202,0.101,0.302,0.101,0.504
	c0.101,0.303,0.201,0.605,0.201,1.008c0,0.202,0.101,0.303,0.101,0.504c0.102,0.202,0.102,0.303,0.202,0.504
	c0,0.201,0.101,0.302,0.101,0.403c0.101,0.202,0.101,0.303,0.202,0.504c0.101,0.101,0.101,0.303,0.201,0.403l0,0l0,0
	c0,0.101,0.101,0.202,0.201,0.403c0.102,0.101,0.102,0.201,0.202,0.403c0.101,0.101,0.101,0.202,0.201,0.403
	c0.101,0.101,0.101,0.202,0.202,0.403c0.101,0.201,0.101,0.201,0.201,0.403s0.303,0.504,0.403,0.706
	c0.101,0.101,0.201,0.202,0.201,0.302c0.102,0.101,0.202,0.202,0.202,0.303c0.101,0.101,0.201,0.201,0.201,0.302
	c0.101,0.101,0.202,0.202,0.202,0.302c0.101,0.101,0.201,0.202,0.201,0.302c0.101,0.101,0.202,0.202,0.202,0.303
	c0.101,0.101,0.201,0.202,0.201,0.202c0.101,0.101,0.201,0.201,0.201,0.201c0.102,0.101,0.202,0.202,0.303,0.202
	c0.101,0.101,0.201,0.202,0.201,0.202c0.102,0.101,0.202,0.202,0.303,0.202c0.101,0.101,0.201,0.101,0.303,0.202
	c0.101,0.101,0.201,0.201,0.302,0.201c0,0,0.101,0,0.101,0.101l11.087-45.557c-0.101,0-0.201,0-0.302,0.101
	c-0.101,0-0.202,0.101-0.303,0.101s-0.201,0.101-0.403,0.101c-0.101,0-0.201,0.101-0.403,0.101c-0.101,0-0.201,0.101-0.302,0.101
	s-0.202,0.101-0.403,0.101c-0.101,0.101-0.201,0.101-0.403,0.202c-0.101,0.101-0.201,0.101-0.403,0.202
	c-0.101,0.101-0.201,0.101-0.402,0.202c-0.102,0.101-0.202,0.101-0.403,0.201c-0.101,0.101-0.202,0.202-0.403,0.202
	c-0.101,0.101-0.201,0.202-0.403,0.202c-0.101,0.101-0.201,0.202-0.403,0.202c-0.101,0.101-0.201,0.202-0.403,0.302
	c-0.101,0.101-0.201,0.202-0.402,0.202c-0.102,0.101-0.202,0.202-0.303,0.302c-0.101,0.101-0.201,0.202-0.403,0.303
	c-0.101,0.101-0.201,0.201-0.403,0.302c-0.101,0.101-0.201,0.202-0.403,0.302c-0.101,0.101-0.201,0.202-0.402,0.302
	c-0.102,0.101-0.202,0.202-0.403,0.403c-0.101,0.101-0.202,0.202-0.403,0.403c-0.101,0.101-0.201,0.202-0.303,0.403
	c-0.101,0.101-0.201,0.202-0.302,0.403s-0.202,0.302-0.403,0.403c-0.101,0.201-0.201,0.302-0.303,0.403
	c-0.101,0.101-0.201,0.302-0.302,0.403c-0.101,0.202-0.202,0.302-0.303,0.403c-0.101,0.202-0.201,0.303-0.302,0.403
	c-0.102,0.202-0.202,0.302-0.303,0.403c-0.101,0.202-0.201,0.302-0.303,0.504c-0.101,0.202-0.201,0.302-0.302,0.504
	c-0.102,0.202-0.202,0.302-0.303,0.504s-0.201,0.302-0.303,0.504l0,0c-0.101,0.202-0.201,0.302-0.201,0.504
	c-0.101,0.202-0.201,0.303-0.303,0.504l0,0c-0.101,0.202-0.201,0.303-0.201,0.504c-0.101,0.202-0.201,0.303-0.303,0.504
	c-0.101,0.202-0.201,0.303-0.201,0.504c-0.101,0.202-0.201,0.303-0.201,0.504c-0.102,0.202-0.202,0.302-0.202,0.504
	c-0.101,0.202-0.201,0.302-0.201,0.504c-0.102,0.202-0.202,0.302-0.202,0.504c-0.101,0.202-0.201,0.302-0.201,0.504l0,0
	c-0.101,0.202-0.101,0.302-0.202,0.504c-0.101,0.202-0.201,0.302-0.201,0.504c-0.101,0.202-0.101,0.403-0.201,0.504
	c-0.102,0.202-0.102,0.403-0.202,0.504c-0.101,0.202-0.101,0.403-0.201,0.504c-0.102,0.202-0.102,0.403-0.202,0.504
	c-0.101,0.201-0.101,0.403-0.201,0.504c-0.101,0.201-0.101,0.403-0.202,0.504c0,0.201-0.101,0.403-0.201,0.504
	c0,0.201-0.101,0.403-0.101,0.604c-0.102,0.202-0.102,0.403-0.202,0.504c0,0.202-0.101,0.403-0.101,0.504
	c-0.101,0.202-0.101,0.403-0.101,0.605s-0.101,0.403-0.101,0.504l0,0c0,0.202-0.102,0.403-0.102,0.504
	c-0.101,0.202-0.101,0.403-0.101,0.605c0,0.201-0.101,0.403-0.101,0.504c0,0.201-0.101,0.403-0.101,0.604s-0.101,0.403-0.101,0.504
	c0,0.202,0,0.403-0.102,0.605c0,0.202,0,0.403-0.101,0.504c0,0.202,0,0.403-0.101,0.504c0,0.202,0,0.403,0,0.605
	c0,0.201,0,0.403,0,0.504c0,0.201,0,0.403,0,0.504c0,0.201,0,0.403,0,0.504c0,0.101,0,0.403,0,0.504c0,0.202,0,0.403,0,0.504
	c0,0.202,0,0.403,0,0.504c0,0.202,0,0.403,0,0.504C357.903,196.741,357.903,196.943,357.903,197.145z M376.852,208.03
	c0.303-0.202,0.605-0.504,0.907-0.807c0.303-0.302,0.605-0.604,0.907-0.907c7.056-7.962,10.684-21.872,7.963-31.85
	c-0.907-3.427-2.419-5.846-4.334-7.458l-10.785,44.347C373.324,210.65,375.139,209.642,376.852,208.03z M329.078,269.612
	c-0.202,0.101-0.403,0.202-0.605,0.403v-123.77c0-2.52,1.311-4.838,3.528-6.148l73.677-42.533c0.907-0.504,1.915-0.605,2.822-0.303
	c1.411,0.403,2.52,1.714,2.52,3.326v128.305c0,2.52-1.311,4.838-3.527,6.148l-0.303,0.202l-41.727,24.089
	c1.411-3.931,2.52-9.676-0.201-11.994c3.023-4.031,2.317-14.01-5.847-16.025c-8.265-2.016-14.211,1.713-20.763,3.225
	c-6.551,1.411-9.574,0-9.574,0c-1.411,5.947,4.031,10.281,8.164,12.498c0,0.101-0.605,8.164,0.705,10.986
	c0.807,1.915,2.116,5.342,3.125,7.66C336.536,266.286,332.404,267.596,329.078,269.612z M346.414,196.338v1.512l0.101,1.512
	l0.101,1.512l0.201,1.512l0.202,1.512l0.302,1.411l0.403,1.411l0.403,1.311l0.403,1.209l0.504,1.209l0.504,1.108l0.504,1.008
	l0.604,1.008l0.605,0.907l0.604,0.907l0.705,0.806l0.706,0.706l0.705,0.706l0.807,0.605l0.807,0.504l0.806,0.504l0.807,0.403
	l0.907,0.303l4.938,1.31c0.101,0,0.101,0,0.201,0.101l0,0c4.637,1.512,10.18-0.101,15.421-4.838c0.403-0.403,0.807-0.706,1.21-1.109
	s0.806-0.907,1.209-1.31c10.079-11.289,15.22-31.144,11.39-45.355c-2.016-7.357-6.048-11.893-10.886-13.204l-5.14-1.411
	l-0.907-0.202l-0.907-0.101h-1.008h-1.008l-1.008,0.101l-1.008,0.202l-1.008,0.302l-1.009,0.302l-1.008,0.403l-1.008,0.504
	l-1.008,0.604l-1.008,0.605l-1.008,0.706l-1.008,0.806l-1.008,0.907l-1.008,1.008l-1.008,1.109l-1.008,1.108l-0.907,1.209
	l-0.907,1.209l-0.907,1.311l-0.807,1.31l-0.806,1.31l-0.807,1.411l-0.705,1.411l-0.706,1.411l-0.604,1.512l-0.604,1.512
	l-0.504,1.512l-0.505,1.512l-0.504,1.512l-0.504,1.512l-0.402,1.613l-0.403,1.613l-0.303,1.612l-0.303,1.613l-0.201,1.613
	l-0.201,1.613l-0.102,1.612l-0.101,1.613L346.414,196.338z M301.159,287.653c0,0-7.055-5.947-7.156-6.753
	c-0.101-0.806,0.605-4.132,1.109-4.737c0.504-0.604,0.604-0.604,0.604-0.604s1.008-2.318,1.814-2.621l-18.646-15.623
	c0,0,0.101-1.31,0.403-2.419c0.101-0.302,0-1.209-2.318-1.915c-2.923-0.705-8.668-3.023-6.047-9.373
	c1.008,2.62,11.691,2.116,10.381,9.474l0,0c1.008-0.101,2.217,0.202,2.217,0.202l16.126,14.917c0.101-0.101,0.201-0.202,0.302-0.302
	c1.007-0.604,2.621,1.713,3.225,2.621c0.101,0,3.023-0.101,3.527,0.504c0.303,0.504,0.706,3.225,0.907,4.435l-4.232-3.931
	c0-0.101,0-0.101,0-0.202c0,0,0,0.101,0,0.202l6.248,5.745v-58.458v-59.768c0-1.311-0.705-2.419-1.713-3.024
	c-0.604-0.403-1.411-0.604-2.218-0.504c-0.504,0.101-0.907,0.202-1.31,0.403l-73.678,42.533c-2.217,1.209-3.527,3.628-3.527,6.148
	v128.306c0,2.721,2.923,4.435,5.342,3.023l73.173-42.231C303.477,291.282,301.764,288.863,301.159,287.653z M343.088,394.793
	c0,0.504-0.102,1.008-0.303,1.41v-0.101c-0.201,0.504-0.403,1.008-0.807,1.512l-0.101,0.102c-0.101,0.101-0.201,0.201-0.302,0.302
	c-0.102,0.101-0.202,0.202-0.202,0.303c-0.101,0.101-0.101,0.101-0.201,0.201c-0.102,0.102-0.202,0.202-0.403,0.303
	c-0.101,0-0.101,0.101-0.202,0.101c-0.201,0.101-0.402,0.303-0.604,0.403l0,0c-0.705,0.403-1.512,0.807-2.318,1.108l0,0
	c-0.302,0.101-0.504,0.202-0.806,0.202c-0.101,0-0.101,0-0.202,0c-0.201,0.101-0.504,0.101-0.705,0.201c-0.101,0-0.202,0-0.202,0
	c-0.201,0-0.402,0.101-0.705,0.101c-0.101,0-0.202,0-0.303,0c-0.201,0-0.504,0-0.705,0.102c-0.101,0-0.202,0-0.303,0
	c-0.302,0-0.705,0-1.008,0c-0.302,0-0.705,0-1.008,0c-0.101,0-0.201,0-0.303,0c-0.201,0-0.504,0-0.705-0.102
	c-0.101,0-0.201,0-0.303,0c-0.201,0-0.504-0.101-0.705-0.101c-0.101,0-0.202,0-0.202,0c-0.101,0-0.201,0-0.302-0.101
	c-0.101,0-0.303-0.101-0.403-0.101s-0.101,0-0.201,0c-0.303-0.102-0.504-0.202-0.807-0.202l0,0
	c-0.907-0.302-1.612-0.705-2.318-1.108l0,0c-0.201-0.101-0.403-0.303-0.604-0.403c-0.101,0-0.101-0.101-0.202-0.101
	c-0.101-0.101-0.302-0.202-0.402-0.303c-0.102-0.101-0.102-0.101-0.202-0.201s-0.201-0.202-0.201-0.303
	c-0.101-0.101-0.202-0.201-0.303-0.302l-0.101-0.102c-0.303-0.504-0.604-0.906-0.807-1.512v0.101
	c-0.201-0.504-0.302-0.906-0.302-1.41c0-3.326,3.83-6.048,8.869-6.552c0.504,0,0.907-0.101,1.411-0.101
	C338.451,388.141,343.088,391.063,343.088,394.793z M341.475,394.793c0-2.722-3.931-4.939-8.668-4.939
	c-4.736,0-8.668,2.218-8.668,4.939c0,0.101,0,0.201,0,0.402l0,0l0,0c0,0.102,0.102,0.303,0.102,0.403l0,0
	c0,0.101,0.101,0.303,0.201,0.403c0,0,0,0,0,0.101c0.101,0.101,0.101,0.202,0.201,0.403c0,0,0,0.101,0.102,0.101
	c0.101,0.102,0.101,0.202,0.201,0.303c0,0.101,0.101,0.101,0.101,0.101c0.102,0.101,0.102,0.202,0.202,0.202
	c0.101,0.101,0.101,0.101,0.201,0.201s0.101,0.101,0.202,0.201c0.101,0.102,0.201,0.102,0.302,0.202
	c0.101,0,0.101,0.101,0.202,0.101c0.101,0.101,0.201,0.202,0.403,0.202c0.101,0,0.101,0.101,0.201,0.101
	c0.101,0.101,0.303,0.201,0.403,0.201c0,0,0.101,0,0.101,0.101c0.201,0.102,0.303,0.202,0.504,0.202c0,0,0.101,0,0.101,0.101
	c0.202,0.101,0.403,0.101,0.604,0.201h0.102c0.201,0.102,0.403,0.102,0.604,0.202h0.101c0.202,0,0.403,0.101,0.604,0.101
	c0.102,0,0.102,0,0.202,0c0.201,0,0.403,0.101,0.604,0.101c0.101,0,0.101,0,0.202,0c0.201,0,0.402,0,0.604,0.102
	c0.101,0,0.101,0,0.201,0c0.303,0,0.604,0,0.907,0s0.604,0,0.907,0c0.101,0,0.101,0,0.201,0c0.202,0,0.403,0,0.605-0.102
	c0.101,0,0.101,0,0.201,0c0.202,0,0.403-0.101,0.604-0.101c0.102,0,0.102,0,0.202,0c0.201,0,0.403-0.101,0.604-0.101h0.101
	c0.202-0.101,0.403-0.101,0.605-0.202h0.101c0.201-0.101,0.403-0.101,0.604-0.201c0,0,0.101,0,0.101-0.101
	c0.202-0.101,0.403-0.101,0.504-0.202c0,0,0.101,0,0.101-0.101c0.202-0.101,0.303-0.201,0.505-0.201
	c0.101,0,0.101-0.101,0.201-0.101c0.101-0.102,0.303-0.202,0.403-0.202s0.101-0.101,0.201-0.101
	c0.101-0.101,0.202-0.202,0.303-0.202c0.101-0.101,0.101-0.101,0.201-0.201s0.101-0.101,0.202-0.201
	c0.101-0.102,0.101-0.102,0.201-0.202s0.101-0.101,0.101-0.201c0.102-0.101,0.102-0.202,0.202-0.303l0.101-0.101
	c0.101-0.101,0.101-0.202,0.201-0.303v-0.101c0.102-0.101,0.102-0.201,0.102-0.403c0,0,0,0,0-0.101s0.101-0.303,0.101-0.403l0,0l0,0
	C341.475,394.994,341.475,394.894,341.475,394.793z M370.905,323.434c0,0-3.729,3.527-8.466,2.923
	c-4.637-0.604-4.737,0.907-6.652,2.923c-1.814,2.016-6.148,1.209-6.148,1.209s-3.931-37.997-6.047-46.363
	c-2.117-8.466-6.652-6.249-6.652-6.249s-1.21,2.016-2.923,4.636c-0.706,1.108-1.512,2.318-2.419,3.628
	c-1.008,1.411-2.016,2.822-3.125,4.132c-0.705,0.907-1.512,1.713-2.217,2.52l0,0l3.931,3.628c0,0,0.807,1.613,0,2.419
	c-0.202,0.202-1.21,1.209-2.116,0.403l-4.536-3.931l0,0c-0.604,0.403-1.209,0.706-1.814,0.706c0,0-3.527,4.233-2.821,8.063
	c0.705,3.931,1.713,5.946,1.713,5.946l0.202,0.101l0,0c1.008,0.504,5.14,2.42,5.946,2.52c1.008,0.202,12.599-7.861,12.599-7.861
	l1.411,25.803c0,0,0.303,0.303,0.807,0.906l0,0c0.906,0.908,2.419,2.521,4.535,4.032c0,0,0,0,0.101,0
	c0.303,0.202,0.706,0.504,1.008,0.706c0,0,0,0,0.101,0c0.403,0.201,0.706,0.504,1.109,0.705c0,0,0,0,0.101,0
	c0.403,0.201,0.807,0.403,1.108,0.604c0.101,0,0.101,0.101,0.202,0.101c0.403,0.202,0.806,0.404,1.209,0.605
	c0,0,0.101,0,0.101,0.101c0.403,0.202,0.807,0.302,1.21,0.504c0.101,0,0.101,0,0.201,0.101c0.403,0.201,0.907,0.303,1.311,0.403
	c0.101,0,0.201,0,0.303,0.101c0.504,0.102,0.907,0.303,1.411,0.403h0.101c0.504,0.101,0.907,0.202,1.411,0.202
	c0.101,0,0.201,0,0.201,0c0.504,0.1,1.008,0.1,1.512,0.1c0.101,0,0.202,0,0.303,0c0.504,0,1.008,0,1.612,0
	c11.49-0.705,15.421-10.078,15.421-10.078v-7.963c0,0,0-0.201-0.101-0.504C373.224,323.03,370.905,323.434,370.905,323.434z
	 M326.256,404.469c0,0.604-0.101,1.108-0.303,1.612l0,0c-0.101,0.303-0.302,0.604-0.403,1.008c-0.101,0.101-0.101,0.303-0.201,0.403
	s-0.101,0.201-0.201,0.201c-0.102,0.101-0.202,0.303-0.303,0.403s-0.101,0.101-0.202,0.202c-0.101,0.201-0.302,0.302-0.402,0.504
	c-0.102,0.101-0.102,0.101-0.202,0.201c-0.201,0.201-0.403,0.303-0.604,0.504l-0.101,0.101c-1.008,0.807-2.218,1.411-3.629,1.915
	h-0.101c-0.303,0.101-0.604,0.202-0.907,0.303c-0.101,0-0.201,0-0.201,0.101c-0.202,0-0.403,0.101-0.504,0.101
	c-0.102,0-0.202,0-0.303,0.101c-0.101,0-0.201,0-0.303,0.102c-0.302,0-0.504,0.101-0.806,0.101c-0.101,0-0.202,0-0.403,0.101
	c-0.303,0-0.604,0.101-0.807,0.101c-0.101,0-0.201,0-0.302,0c-0.403,0-0.807,0-1.21,0s-0.806,0-1.209,0c-0.102,0-0.202,0-0.303,0
	c-0.303,0-0.604,0-0.807-0.101c-0.101,0-0.201,0-0.402-0.101c-0.303,0-0.504-0.101-0.807-0.101c-0.101,0-0.202,0-0.303-0.102
	c-0.302-0.101-0.604-0.101-0.806-0.201c-0.102,0-0.202,0-0.202-0.101c-0.302-0.101-0.604-0.202-0.907-0.303h-0.101
	c-1.411-0.504-2.62-1.108-3.628-1.915l-0.102-0.101c-0.201-0.201-0.402-0.303-0.604-0.504c-0.101-0.101-0.101-0.101-0.201-0.201
	c-0.101-0.102-0.303-0.303-0.403-0.403c-0.102-0.101-0.102-0.101-0.201-0.202c-0.102-0.101-0.202-0.302-0.303-0.403
	c-0.102-0.101-0.102-0.201-0.201-0.302c-0.102-0.101-0.202-0.303-0.202-0.403c-0.202-0.303-0.302-0.604-0.403-1.008l0,0
	c-0.201-0.504-0.303-1.108-0.303-1.612c0-0.605,0.102-1.21,0.303-1.814c1.311-3.527,6.249-6.148,12.095-6.148
	c3.83,0,7.257,1.108,9.475,2.822C325.147,400.739,326.256,402.452,326.256,404.469z M324.24,404.871c0-0.101,0-0.302,0-0.402
	c0-3.326-4.637-6.048-10.482-6.048s-10.482,2.722-10.482,6.048c0,0.101,0,0.302,0,0.402l0,0c0,0,0,0,0,0.102
	c0,0.101,0,0.201,0.102,0.302c0,0.101,0,0.202,0.101,0.303c0,0.101,0.101,0.201,0.101,0.403c0,0.101,0.101,0.101,0.101,0.201
	c0.101,0.101,0.101,0.303,0.202,0.403l0.101,0.101c0.101,0.101,0.201,0.303,0.302,0.403l0.102,0.101
	c0.101,0.101,0.201,0.303,0.402,0.403l0.102,0.101c0.101,0.101,0.303,0.202,0.402,0.403l0.102,0.101
	c0.201,0.102,0.303,0.202,0.504,0.303l0.101,0.101c0.201,0.101,0.303,0.202,0.504,0.303c0.101,0,0.101,0.101,0.201,0.101
	c0.202,0.101,0.403,0.201,0.505,0.303c0.101,0,0.201,0.101,0.201,0.101c0.201,0.101,0.403,0.201,0.604,0.201
	c0.101,0,0.202,0.101,0.303,0.101c0.201,0.102,0.403,0.102,0.504,0.202c0.101,0,0.201,0.101,0.302,0.101
	c0.202,0,0.403,0.101,0.504,0.101c0.102,0,0.303,0.101,0.403,0.101c0.202,0,0.303,0.102,0.504,0.102c0.202,0,0.303,0,0.504,0.101
	c0.202,0,0.303,0,0.504,0.101c0.202,0,0.403,0,0.605,0.101c0.101,0,0.201,0,0.403,0c0.302,0,0.705,0,1.008,0
	c0.402,0,0.705,0,1.008,0c0.101,0,0.201,0,0.403,0c0.201,0,0.402,0,0.604-0.101c0.101,0,0.302,0,0.403-0.101
	c0.201,0,0.402,0,0.504-0.101c0.101,0,0.302-0.102,0.403-0.102c0.201,0,0.302-0.101,0.504-0.101c0.101,0,0.302-0.101,0.402-0.101
	c0.202,0,0.303-0.101,0.504-0.101c0.102,0,0.303-0.101,0.403-0.101c0.202-0.102,0.303-0.102,0.504-0.202
	c0.101,0,0.202-0.101,0.403-0.101c0.101-0.101,0.303-0.101,0.403-0.201c0.101-0.102,0.201-0.102,0.303-0.202
	c0.101-0.101,0.302-0.101,0.402-0.201c0.102-0.101,0.202-0.101,0.303-0.202c0.101-0.101,0.303-0.201,0.403-0.302
	c0.101-0.102,0.201-0.102,0.201-0.202c0.101-0.101,0.303-0.201,0.403-0.302c0.101-0.102,0.101-0.102,0.202-0.202
	c0.101-0.101,0.201-0.201,0.302-0.302c0.101-0.102,0.101-0.102,0.202-0.202c0.101-0.101,0.201-0.201,0.302-0.302
	c0-0.102,0.101-0.102,0.101-0.202c0.102-0.101,0.202-0.201,0.202-0.403c0-0.101,0.101-0.101,0.101-0.201
	c0.101-0.101,0.101-0.202,0.201-0.403c0-0.101,0.102-0.101,0.102-0.201c0-0.102,0.101-0.202,0.101-0.303s0-0.201,0.101-0.201
	C324.24,404.973,324.24,404.973,324.24,404.871L324.24,404.871z M523.803,200.168c0-0.202,0-0.302-0.101-0.504
	c0-0.403-0.101-0.806-0.201-1.109c0-0.101-0.101-0.302-0.101-0.403c-0.102-0.403-0.202-0.706-0.303-1.109
	c0-0.101-0.101-0.202-0.101-0.302c-0.303-0.907-0.706-1.613-1.21-2.318c0-0.101-0.101-0.101-0.101-0.202
	c-0.201-0.302-0.403-0.504-0.604-0.706c-0.101-0.101-0.101-0.101-0.201-0.201c-0.202-0.202-0.403-0.303-0.605-0.504
	c-0.101-0.101-0.201-0.101-0.201-0.202c-0.303-0.202-0.604-0.302-0.807-0.403c-1.713-0.604-3.83-0.403-6.148,0.907
	c-1.914,1.109-3.829,2.923-5.342,5.14c-1.915-7.861-7.962-10.986-15.018-6.854c-8.063,4.636-14.715,16.933-15.622,28.221
	c-3.326,2.419-6.047,7.156-7.156,11.994c-0.403,0.101-0.907,0.302-1.31,0.504c-3.226,1.915-5.847,6.955-5.847,11.389
	c0,2.621,0.907,4.435,2.318,5.04c1.008,0.504,2.218,0.403,3.629-0.403l9.474-5.543l14.514-8.366l20.461-11.792
	c5.946-3.427,10.784-12.8,10.784-20.964C523.904,201.176,523.904,200.672,523.803,200.168z M178.901,278.28l-10.785,44.347
	c1.714-0.604,3.528-1.612,5.342-3.225c0.302-0.202,0.604-0.504,0.907-0.807c0.303-0.303,0.605-0.605,0.907-0.907
	c7.055-7.861,10.684-21.871,7.962-31.85C182.328,282.312,180.816,279.893,178.901,278.28z M302.268,387.031
	c-0.303-0.201-0.604-0.402-0.807-0.705c0,0,0,0-0.1-0.101c-0.303-0.202-0.504-0.504-0.807-0.706l0,0
	c-1.008-1.108-1.714-2.217-2.218-3.527v0.102c-0.302-0.807-0.403-1.613-0.403-2.42c0-6.148,7.861-11.188,17.437-11.188
	c9.676,0,17.437,4.939,17.437,11.188c0,0.807-0.101,1.613-0.402,2.42v-0.102c-0.303,0.907-0.807,1.814-1.411,2.621
	c0,0,0,0.1-0.102,0.1c-0.201,0.202-0.402,0.505-0.604,0.706c0,0.101-0.101,0.101-0.101,0.202c-0.202,0.201-0.403,0.402-0.706,0.604
	c-0.101,0.101-0.101,0.101-0.201,0.202c-0.201,0.201-0.504,0.402-0.807,0.604c-0.101,0-0.101,0.102-0.201,0.102
	c-1.21,0.807-2.52,1.512-4.031,2.116c-0.102,0.101-0.303,0.101-0.403,0.202c-0.303,0.101-0.504,0.201-0.807,0.302
	c-0.201,0.101-0.403,0.101-0.604,0.202c-0.303,0.101-0.504,0.101-0.807,0.201c-0.201,0.102-0.504,0.102-0.705,0.201
	c-0.202,0.102-0.504,0.102-0.706,0.202c-0.302,0.101-0.604,0.101-0.907,0.101c-0.201,0-0.504,0.102-0.705,0.102
	c-0.303,0-0.706,0.1-1.008,0.1c-0.202,0-0.403,0-0.604,0c-0.504,0-1.109,0.102-1.714,0.102s-1.108,0-1.714-0.102
	c-0.201,0-0.402,0-0.504,0c-0.402,0-0.705-0.1-1.108-0.1c-0.201,0-0.403-0.102-0.604-0.102c-0.303,0-0.604-0.101-0.907-0.201
	c-0.201,0-0.403-0.102-0.705-0.102c-0.303-0.1-0.605-0.1-0.807-0.201c-0.202-0.101-0.403-0.101-0.706-0.201
	c-0.302-0.102-0.504-0.202-0.705-0.202c-0.202-0.101-0.504-0.101-0.706-0.201c-0.201-0.101-0.402-0.202-0.604-0.202
	c-0.302-0.101-0.504-0.201-0.806-0.303l0,0C304.283,388.342,303.275,387.737,302.268,387.031L302.268,387.031z M301.865,383
	c0.201,0.201,0.402,0.504,0.604,0.705l0,0c0.202,0.202,0.404,0.404,0.706,0.706l0,0c0.202,0.202,0.504,0.403,0.807,0.604l0,0
	c0.302,0.202,0.604,0.403,0.907,0.605c0,0,0,0,0.101,0c0.302,0.201,0.604,0.302,1.008,0.504c0,0,0,0,0.101,0
	c0.303,0.201,0.706,0.303,1.008,0.402h0.101c0.303,0.102,0.706,0.303,1.109,0.404h0.101c0.403,0.1,0.705,0.201,1.108,0.302
	c0.101,0,0.101,0,0.202,0c0.402,0.101,0.705,0.202,1.108,0.202c0.101,0,0.201,0,0.303,0.1c0.402,0.102,0.705,0.102,1.108,0.202
	c0.101,0,0.201,0,0.303,0c0.402,0,0.705,0.101,1.108,0.101c0.101,0,0.201,0,0.302,0c0.504,0,1.008,0,1.513,0
	c0.504,0,1.008,0,1.512,0c0.101,0,0.201,0,0.302,0c0.403,0,0.706-0.101,1.109-0.101c0.101,0,0.201,0,0.302,0
	c0.403,0,0.706-0.101,1.108-0.202c0.102,0,0.202,0,0.202,0c0.403-0.1,0.705-0.1,1.108-0.201c0.101,0,0.101,0,0.202,0
	c0.403-0.101,0.705-0.201,1.108-0.303h0.101c0.403-0.1,0.706-0.201,1.108-0.402h0.102c0.302-0.102,0.705-0.303,1.008-0.403
	c0,0,0.101,0,0.101-0.101c0.303-0.202,0.604-0.303,0.907-0.504l0.101-0.102c0.303-0.201,0.504-0.302,0.807-0.504
	c0.101,0,0.101-0.101,0.201-0.101c0.202-0.201,0.403-0.302,0.604-0.504c0.102-0.101,0.102-0.101,0.202-0.202
	c0.201-0.201,0.302-0.302,0.504-0.504c0.101-0.1,0.201-0.201,0.201-0.201c0.102-0.101,0.202-0.303,0.403-0.402
	c0.101-0.102,0.202-0.202,0.303-0.303c0.101-0.102,0.201-0.201,0.201-0.303c0.101-0.101,0.202-0.303,0.303-0.402
	c0-0.102,0.101-0.202,0.101-0.202c0.101-0.202,0.201-0.403,0.201-0.604v-0.102c0.102-0.504,0.202-0.906,0.202-1.41
	c0-4.637-6.652-8.467-14.716-8.467c-8.063,0-14.715,3.83-14.715,8.467c0,0.201,0,0.402,0.101,0.604v0.101
	c0.102,0.605,0.303,1.209,0.605,1.814l0,0C301.461,382.496,301.663,382.697,301.865,383L301.865,383z M171.443,276.365
	c-0.101,0-0.202,0.101-0.302,0.101s-0.202,0.101-0.403,0.101c-0.101,0.101-0.201,0.101-0.403,0.101
	c-0.101,0-0.202,0.101-0.303,0.101c-0.101,0.101-0.201,0.101-0.403,0.202c-0.101,0-0.202,0.101-0.403,0.202
	c-0.101,0.101-0.202,0.101-0.403,0.202c-0.101,0.101-0.201,0.101-0.403,0.201c-0.101,0.101-0.202,0.202-0.403,0.202
	c-0.101,0.101-0.202,0.101-0.403,0.202c-0.101,0.101-0.201,0.202-0.403,0.202c-0.101,0.101-0.202,0.202-0.403,0.202
	c-0.101,0.101-0.202,0.202-0.403,0.202c-0.101,0.101-0.201,0.202-0.302,0.302c-0.101,0.101-0.202,0.202-0.403,0.302
	c-0.101,0.101-0.202,0.202-0.403,0.302c-0.101,0.101-0.202,0.202-0.403,0.303c-0.101,0.101-0.202,0.201-0.403,0.302
	c-0.101,0.101-0.202,0.202-0.403,0.302l0,0c-0.101,0.101-0.202,0.202-0.403,0.302c-0.101,0.101-0.202,0.202-0.302,0.403
	c-0.101,0.101-0.202,0.202-0.403,0.403c-0.101,0.202-0.201,0.302-0.302,0.403c-0.101,0.101-0.202,0.303-0.302,0.403
	c-0.101,0.101-0.202,0.302-0.302,0.403c-0.101,0.201-0.202,0.302-0.303,0.403c-0.101,0.101-0.201,0.302-0.302,0.403
	c-0.101,0.202-0.202,0.302-0.302,0.403c-0.101,0.201-0.202,0.302-0.302,0.504c-0.101,0.202-0.202,0.302-0.303,0.403
	c-0.101,0.202-0.201,0.303-0.302,0.504c-0.101,0.202-0.202,0.303-0.302,0.504c-0.101,0.202-0.202,0.303-0.302,0.504l0,0
	c-0.101,0.201-0.202,0.302-0.303,0.504c-0.101,0.202-0.202,0.302-0.302,0.504l0,0c-0.101,0.202-0.202,0.302-0.202,0.504
	c-0.101,0.202-0.202,0.302-0.302,0.504s-0.202,0.302-0.202,0.504c-0.101,0.202-0.202,0.302-0.202,0.504
	c-0.101,0.202-0.201,0.302-0.201,0.504c-0.101,0.202-0.202,0.302-0.202,0.504c-0.101,0.202-0.202,0.302-0.202,0.504
	c-0.101,0.202-0.202,0.303-0.202,0.504l0,0l0,0c-0.101,0.202-0.101,0.403-0.202,0.504c-0.101,0.201-0.202,0.403-0.202,0.504
	c-0.101,0.201-0.101,0.302-0.201,0.504c-0.101,0.201-0.101,0.403-0.202,0.504c-0.101,0.202-0.101,0.403-0.202,0.504
	c-0.101,0.202-0.101,0.403-0.202,0.504c-0.101,0.202-0.101,0.403-0.202,0.504c-0.101,0.202-0.101,0.403-0.202,0.504
	c-0.101,0.202-0.101,0.403-0.201,0.504c0,0.202-0.101,0.403-0.101,0.504c-0.101,0.202-0.101,0.403-0.202,0.504
	c0,0.202-0.101,0.403-0.101,0.605c-0.101,0.202-0.101,0.403-0.101,0.504c0,0.202-0.101,0.403-0.101,0.504l0,0
	c0,0.202-0.101,0.403-0.101,0.504c-0.101,0.202-0.101,0.403-0.101,0.504l0,0c0,0.202-0.101,0.403-0.101,0.504
	c0,0.202-0.101,0.403-0.101,0.504c0,0.201-0.101,0.402-0.101,0.604s0,0.403-0.101,0.504c0,0.202,0,0.403-0.101,0.604
	c0,0.201,0,0.403,0,0.504c0,0.201,0,0.403-0.101,0.504c0,0.202,0,0.403,0,0.504c0,0.202,0,0.403,0,0.605c0,0.201,0,0.402,0,0.504
	c0,0.101,0,0.402,0,0.504c0,0.201,0,0.402,0,0.504c0,0.201,0,0.402,0,0.504c0,0.201,0,0.303,0,0.504s0,0.402,0,0.504
	c0,0.201,0,0.402,0,0.504c0,0.201,0,0.303,0.101,0.504c0,0.201,0,0.303,0.101,0.504c0,0.201,0,0.403,0.101,0.504
	c0,0.201,0.101,0.403,0.101,0.504c0,0.201,0,0.303,0.101,0.504c0,0.201,0.101,0.303,0.101,0.504s0.101,0.303,0.101,0.504
	c0.101,0.303,0.201,0.705,0.201,1.008c0,0.201,0.101,0.303,0.101,0.504c0.101,0.202,0.101,0.303,0.202,0.403
	c0,0.202,0.101,0.303,0.101,0.504c0.101,0.202,0.101,0.303,0.202,0.403c0.101,0.201,0.101,0.303,0.202,0.403
	c0,0.202,0.101,0.302,0.202,0.403c0.101,0.201,0.101,0.303,0.201,0.402c0.101,0.102,0.101,0.303,0.202,0.404
	c0.101,0.1,0.101,0.201,0.202,0.402c0.101,0.102,0.101,0.201,0.202,0.403c0.101,0.202,0.302,0.504,0.403,0.706
	c0.101,0.1,0.201,0.201,0.201,0.302c0.101,0.101,0.202,0.202,0.202,0.302c0.101,0.102,0.202,0.202,0.202,0.303
	c0.101,0.102,0.202,0.202,0.202,0.303c0.101,0.101,0.202,0.201,0.202,0.303c0.101,0.101,0.202,0.201,0.202,0.302
	c0.101,0.101,0.201,0.202,0.201,0.303c0.101,0.101,0.202,0.201,0.202,0.201c0.101,0.101,0.202,0.202,0.302,0.202
	c0.101,0.101,0.202,0.201,0.202,0.201c0.101,0.101,0.202,0.101,0.303,0.201c0.101,0.102,0.201,0.202,0.302,0.202
	c0.101,0.101,0.202,0.101,0.302,0.202l0.101,0.1l11.087-45.556C171.645,276.365,171.544,276.365,171.443,276.365z M205.812,219.016
	v59.466v68.94c0,2.52-1.31,4.938-3.527,6.148l-73.677,42.532c-1.209,0.706-2.621,0.605-3.628-0.101
	c-0.101-0.101-0.202-0.101-0.302-0.201c-0.807-0.605-1.411-1.613-1.411-2.822V264.673c0-2.52,1.31-4.838,3.527-6.148l73.677-42.533
	c0.303-0.202,0.605-0.303,0.907-0.403c0.605-0.101,1.109-0.101,1.713,0C204.603,215.992,205.812,217.302,205.812,219.016z
	 M189.182,279.792c-2.016-7.458-6.047-11.893-10.885-13.203l-5.141-1.411l-0.907-0.202l-0.907-0.101l-1.008-0.101h-1.008
	l-1.008,0.101l-1.008,0.202l-1.008,0.302l-1.008,0.302l-1.008,0.403l-1.008,0.504l-1.008,0.604l-1.008,0.706l-1.008,0.706
	l-1.008,0.806l-1.008,0.907l-1.008,1.008l-1.008,1.008l-1.008,1.108l-0.907,1.209l-0.907,1.209l-1.209,1.311l-0.807,1.31
	l-0.806,1.31l-0.806,1.411l-0.706,1.411l-0.706,1.411l-0.605,1.512l-0.604,1.512l-0.605,1.512l-0.504,1.512l-0.504,1.512
	l-0.504,1.613l-0.403,1.613l-0.403,1.612l-0.303,1.613l-0.302,1.613l-0.202,1.612l-0.202,1.613l-0.101,1.612l-0.101,1.612v1.512
	v1.512l0.101,1.512l0.202,1.512l0.202,1.513l0.201,1.512l0.303,1.411l0.403,1.41l0.403,1.311l0.403,1.21l0.504,1.21l0.504,1.108
	l0.504,1.108l0.605,1.008l0.604,0.907l0.706,0.907l0.706,0.807l0.706,0.705l0.706,0.604l0.806,0.604l0.806,0.504l0.807,0.404
	l0.806,0.402l0.907,0.303l5.14,1.411c4.636,1.411,10.18-0.101,15.421-4.838c0.403-0.403,0.806-0.807,1.209-1.21
	c0.403-0.402,0.806-0.906,1.209-1.311C187.872,313.959,192.911,294.003,189.182,279.792z"></path>
<path id="color_x5F_2" fill="#FBC02D" d="M302.973,275.659c-0.1-1.108,0.202-3.023,0.303-4.031l6.249,5.745l16.832,15.421l0,0
	l3.931,3.628c0,0,0.807,1.613,0,2.419c-0.201,0.202-1.209,1.209-2.116,0.403l-4.637-3.931l0,0l-13.909-11.994l-1.915-1.613l0,0
	l-4.132-3.931C303.477,277.776,303.074,277.171,302.973,275.659z M281.203,253.083c-0.101,0-0.202,0-0.302,0
	c-0.202,0-0.302,0.101-0.504,0.101l0,0c-0.202,0.101-0.302,0.101-0.403,0.202c-0.101,0-0.101,0.101-0.202,0.202
	c-0.201,0.302-0.403,0.605-0.504,1.008c0,0.101,0,0.101-0.101,0.202l0,0c-0.302,1.109-0.403,2.419-0.403,2.419l18.646,15.623
	c0.807-0.303,1.008,0,1.008,0s0.101-3.628,1.108-4.838l-16.126-14.917C283.42,253.284,282.312,252.981,281.203,253.083z
	 M337.746,326.961c1.612-0.201,2.821-1.41,2.821-1.41l-1.108-20.662c0,0-1.612,1.108-3.628,2.52c0,0,0,10.582-0.403,12.195
	s-1.915,5.846-1.915,5.846S336.133,327.063,337.746,326.961z M360.625,340.366c-0.504,0-1.008,0-1.612,0c-0.102,0-0.202,0-0.303,0
	c-0.504,0-1.008-0.101-1.512-0.101c-0.101,0-0.202,0-0.202,0c-0.504-0.102-0.906-0.102-1.411-0.201c0,0,0,0-0.101,0
	c-0.504-0.102-0.907-0.202-1.411-0.404c-0.101,0-0.201,0-0.302-0.1c-0.403-0.102-0.907-0.303-1.311-0.404
	c-0.101,0-0.101,0-0.201-0.1c-0.403-0.202-0.807-0.303-1.21-0.505c0,0-0.101,0-0.101-0.101c-0.403-0.201-0.807-0.403-1.21-0.604
	c-0.101,0-0.101-0.101-0.201-0.101c-0.403-0.202-0.807-0.403-1.108-0.605c0,0,0,0-0.102,0c-0.402-0.201-0.705-0.504-1.108-0.705
	c0,0,0,0-0.101,0c-0.403-0.201-0.706-0.504-1.008-0.705c0,0,0,0-0.101,0c-2.117-1.513-3.629-3.125-4.536-4.032l0,0
	c0,0.403,2.52,24.392,5.846,38.905c3.326,14.613,7.459,41.626,7.459,41.626h10.381l6.048-4.032l0,0
	c0.101-1.31,7.155-70.149,4.636-77.607C375.945,330.287,372.014,339.66,360.625,340.366z M321.922,294.81
	c-0.403-0.807-3.226-2.218-3.226-2.218s-2.62,2.621-3.83,5.241c0,0.101-0.101,0.101-0.101,0.202
	c-0.101,0.101-0.101,0.202-0.101,0.403c-0.101,0.201-0.101,0.403-0.202,0.604c-0.101,0.202-0.101,0.504-0.101,0.706
	c0,0.101,0,0.202,0,0.302c0,0.202,0,0.302,0,0.504c0,0.101,0,0.201,0,0.303c0,0.302,0,0.504,0,0.806c0,0.101,0,0.202,0,0.302
	c0,0.202,0,0.404,0.101,0.706c0,0.101,0,0.101,0,0.202c0.202,1.31,0.504,2.52,0.706,3.426l0,0c0.201,0.807,0.403,1.311,0.403,1.311
	s1.008,1.411,2.317,1.915c1.311,0.504,2.822,1.21,2.822,1.21s0.102-0.201,0.303-0.504l0,0l-0.202-0.102c0,0-0.906-2.116-1.713-5.946
	c-0.807-3.931,2.822-8.063,2.822-8.063S322.325,295.515,321.922,294.81z M337.141,247.035L337.141,247.035
	c1.411,0.806,2.722,1.411,3.528,1.713c0,0,0,0,0.101,0c0.101,0.101,0.201,0.101,0.302,0.101c0,0,0,0,0.102,0
	c0.101,0,0.101,0,0.201,0.101c0,0,0,0,0.101,0h0.102c15.924,8.769,23.887-1.713,23.887-1.713c3.023-4.032,2.318-14.01-5.846-16.026
	c-8.265-2.016-14.212,1.714-20.763,3.226c-6.552,1.411-9.575,0-9.575,0C327.566,240.584,333.009,244.818,337.141,247.035z
	 M304.082,385.117c0.303,0.201,0.604,0.402,0.907,0.604c0,0,0,0,0.101,0c0.303,0.201,0.605,0.302,1.008,0.504c0,0,0,0,0.101,0
	c0.303,0.202,0.706,0.302,1.008,0.403h0.102c0.302,0.101,0.705,0.303,1.108,0.402h0.101c0.403,0.102,0.706,0.202,1.108,0.303
	c0.102,0,0.102,0,0.202,0c0.403,0.102,0.705,0.201,1.108,0.201c0.101,0,0.202,0,0.303,0.102c0.403,0.101,0.705,0.101,1.108,0.201
	c0.101,0,0.202,0,0.303,0c0.403,0,0.705,0.102,1.108,0.102c0.101,0,0.201,0,0.303,0c0.504,0,1.008,0,1.512,0s1.008,0,1.512,0
	c0.101,0,0.201,0,0.303,0c0.402,0,0.705-0.102,1.108-0.102c0.101,0,0.201,0,0.302,0c0.403,0,0.706-0.101,1.109-0.201
	c0.101,0,0.201,0,0.201,0c0.403-0.102,0.706-0.102,1.108-0.201c0.102,0,0.102,0,0.202,0c0.403-0.102,0.705-0.202,1.108-0.303h0.101
	c0.403-0.102,0.706-0.201,1.109-0.403h0.101c0.302-0.101,0.705-0.302,1.008-0.403c0,0,0.101,0,0.101-0.101
	c0.303-0.202,0.604-0.303,0.907-0.504l0.101-0.101c0.303-0.202,0.504-0.303,0.807-0.504c0.101,0,0.101-0.102,0.201-0.102
	c0.202-0.201,0.403-0.302,0.605-0.504c0.101-0.101,0.101-0.101,0.201-0.201c0.201-0.201,0.303-0.303,0.504-0.504
	c0.101-0.102,0.202-0.201,0.202-0.201c0.101-0.102,0.201-0.303,0.402-0.404c0.102-0.1,0.202-0.201,0.303-0.302
	s0.201-0.202,0.201-0.302c0.102-0.102,0.202-0.303,0.303-0.404c0-0.1,0.101-0.201,0.101-0.201c0.101-0.201,0.202-0.402,0.202-0.604
	v-0.101c0.101-0.202,0.101-0.504,0.201-0.706c-0.604-3.729-6.954-6.651-14.614-6.651s-13.909,2.821-14.615,6.551v0.101
	c0.102,0.604,0.303,1.21,0.605,1.814l0,0c0.101,0.302,0.303,0.504,0.504,0.706l0,0c0.201,0.201,0.403,0.504,0.604,0.705l0,0
	c0.202,0.201,0.403,0.402,0.706,0.705l0,0C303.477,384.613,303.779,384.814,304.082,385.117
	C304.082,385.016,304.082,385.016,304.082,385.117z M313.858,400.135c-5.442,0-9.978,2.016-10.481,4.736l0,0c0,0,0,0,0,0.102
	c0,0.101,0,0.201,0.1,0.302c0,0.101,0,0.202,0.102,0.303c0,0.101,0.101,0.201,0.101,0.403c0,0.101,0.101,0.101,0.101,0.201
	c0.102,0.101,0.102,0.303,0.202,0.403l0.101,0.101c0.101,0.101,0.201,0.303,0.303,0.403l0.101,0.101
	c0.101,0.101,0.201,0.303,0.403,0.403l0.101,0.101c0.101,0.101,0.302,0.202,0.403,0.403l0.101,0.101
	c0.202,0.102,0.302,0.202,0.504,0.303l0.101,0.101c0.202,0.101,0.303,0.202,0.504,0.303c0.101,0,0.101,0.101,0.202,0.101
	c0.201,0.101,0.402,0.201,0.504,0.303c0.101,0,0.201,0.101,0.201,0.101c0.202,0.101,0.403,0.201,0.604,0.201
	c0.102,0,0.202,0.101,0.303,0.101c0.201,0.102,0.403,0.102,0.504,0.202c0.101,0,0.201,0.101,0.303,0.101
	c0.201,0,0.402,0.101,0.504,0.101c0.101,0,0.302,0.101,0.402,0.101c0.202,0,0.303,0.102,0.505,0.102c0.201,0,0.302,0,0.504,0.101
	c0.201,0,0.302,0,0.504,0.101c0.201,0,0.402,0,0.604,0.101c0.101,0,0.201,0,0.403,0c0.302,0,0.705,0,1.008,0
	c0.403,0,0.705,0,1.008,0c0.101,0,0.201,0,0.403,0c0.201,0,0.403,0,0.604-0.101c0.101,0,0.303,0,0.403-0.101
	c0.201,0,0.403,0,0.504-0.101c0.101,0,0.302-0.102,0.403-0.102c0.201,0,0.302-0.101,0.504-0.101c0.101,0,0.302-0.101,0.403-0.101
	c0.201,0,0.302-0.101,0.504-0.101c0.101,0,0.302-0.101,0.402-0.101c0.202-0.102,0.303-0.102,0.504-0.202
	c0.102,0,0.202-0.101,0.403-0.101c0.101-0.101,0.303-0.101,0.403-0.201c0.101-0.102,0.202-0.102,0.303-0.202
	s0.302-0.101,0.403-0.201c0.101-0.101,0.201-0.101,0.302-0.202c0.101-0.101,0.303-0.201,0.403-0.302
	c0.101-0.102,0.201-0.102,0.201-0.202c0.102-0.101,0.303-0.201,0.403-0.302c0.101-0.102,0.101-0.102,0.202-0.202
	c0.101-0.101,0.201-0.201,0.302-0.302c0.102-0.102,0.102-0.102,0.202-0.202s0.201-0.201,0.302-0.302
	c0-0.102,0.102-0.102,0.102-0.202c0.101-0.101,0.201-0.201,0.201-0.403c0-0.101,0.101-0.101,0.101-0.201
	c0.101-0.101,0.101-0.202,0.202-0.403c0-0.101,0.101-0.101,0.101-0.201c0-0.102,0.101-0.202,0.101-0.303s0-0.201,0.101-0.201v-0.102
	l0,0C323.837,402.251,319.301,400.135,313.858,400.135z M379.372,304.687c-0.403-4.334-5.241-28.02-9.172-32.555
	c-1.21-1.411-2.521-2.419-3.83-3.125l0,0c-0.101,0-0.202,0.101-0.303,0.101c-1.512,0.403-3.427,0.202-3.628,0.202l-0.102,1.512
	c0,0-3.729,2.117-7.357,2.218c-0.403,0-0.806,0-1.209,0c-0.101,0-0.202,0-0.303,0c-3.124-0.101-6.249-0.706-8.063-1.21l-8.265,6.048
	c0,0,4.637-2.117,6.652,6.249c2.117,8.366,6.048,46.363,6.048,46.363s4.334,0.807,6.147-1.209c1.915-2.016,1.915-3.527,6.652-2.923
	s8.467-2.923,8.467-2.923s2.317-0.403,5.039-1.713c3.023-1.412,6.35-3.932,7.458-8.063
	C383.403,313.758,379.674,309.021,379.372,304.687z M332.807,391.266c-4.535,0-8.265,1.713-8.566,3.93l0,0l0,0
	c0,0.102,0.101,0.303,0.101,0.403l0,0c0,0.101,0.101,0.303,0.201,0.403c0,0,0,0,0,0.101c0.102,0.101,0.102,0.202,0.202,0.403
	c0,0,0,0.101,0.101,0.101c0.101,0.102,0.101,0.202,0.201,0.303c0,0.101,0.102,0.101,0.102,0.101
	c0.101,0.101,0.101,0.202,0.201,0.202c0.101,0.101,0.101,0.101,0.201,0.201c0.102,0.101,0.102,0.101,0.202,0.201
	c0.101,0.102,0.201,0.102,0.303,0.202c0.101,0,0.101,0.101,0.201,0.101c0.101,0.101,0.201,0.202,0.403,0.202
	c0.101,0,0.101,0.101,0.201,0.101c0.101,0.101,0.303,0.201,0.403,0.201c0,0,0.101,0,0.101,0.101
	c0.202,0.102,0.303,0.202,0.504,0.202c0,0,0.101,0,0.101,0.101c0.202,0.101,0.403,0.101,0.605,0.201h0.101
	c0.201,0.102,0.403,0.102,0.604,0.202h0.101c0.202,0,0.403,0.101,0.605,0.101c0.101,0,0.101,0,0.201,0
	c0.202,0,0.403,0.101,0.604,0.101c0.102,0,0.102,0,0.202,0c0.201,0,0.403,0,0.604,0.102c0.101,0,0.101,0,0.201,0
	c0.303,0,0.605,0,0.907,0c0.303,0,0.605,0,0.907,0c0.101,0,0.101,0,0.202,0c0.201,0,0.403,0,0.604-0.102c0.101,0,0.101,0,0.201,0
	c0.202,0,0.403-0.101,0.605-0.101c0.101,0,0.101,0,0.201,0c0.201,0,0.403-0.101,0.604-0.101h0.101
	c0.202-0.101,0.403-0.101,0.605-0.202h0.101c0.201-0.101,0.403-0.101,0.604-0.201c0,0,0.101,0,0.101-0.101
	c0.202-0.101,0.403-0.101,0.505-0.202c0,0,0.101,0,0.101-0.101c0.201-0.101,0.302-0.201,0.504-0.201
	c0.101,0,0.101-0.101,0.201-0.101c0.101-0.102,0.303-0.202,0.403-0.202s0.101-0.101,0.201-0.101
	c0.102-0.101,0.202-0.202,0.303-0.202c0.101-0.101,0.101-0.101,0.201-0.201c0.102-0.101,0.102-0.101,0.202-0.201
	c0.101-0.102,0.101-0.102,0.201-0.202c0.102-0.101,0.102-0.101,0.102-0.201c0.101-0.101,0.101-0.202,0.201-0.303l0.101-0.101
	c0.101-0.101,0.101-0.202,0.202-0.303v-0.101c0.101-0.101,0.101-0.201,0.101-0.403c0,0,0,0,0-0.101s0.101-0.303,0.101-0.403l0,0l0,0
	C341.071,392.979,337.343,391.266,332.807,391.266z"></path>
<path id="color_x5F_1_1_" fill="#01374D" d="M365.262,247.337c0,0-7.963,10.482-23.888,1.713v5.342c0,0,0.504-3.326,1.512-3.729
	c1.108-0.504,2.218,2.822,2.218,5.644c0,2.822-1.714,5.846-3.023,5.141c0,0,1.41,1.512,2.217,0.806c0,0-0.101,4.838,2.722,5.543
	c0,0,0.907,0.302,1.814,0c0,0,5.543,4.132,9.776,1.108c0,0,0.101,0,0.302,0.101h0.102c0.101,0,0.101,0,0.201,0
	c0.907,0.202,2.62,0.504,4.334,0.504c0.101,0,0.101,0,0.201,0c0.202,0,0.403,0,0.504,0c0.303,0,0.605,0,0.907-0.101h0.102
	c0.201,0,0.504-0.101,0.705-0.101c0.101,0,0.201-0.101,0.303-0.101l0,0c0.504-0.101,0.906-0.303,1.31-0.605
	c0,0-3.729-4.032-3.326-6.451c0.303-0.705,0.706-1.612,1.109-2.62C366.773,255.4,367.882,249.656,365.262,247.337z"></path>
</svg>