<?xml version="1.0" standalone="no"?>
<svg version="1.1" id="Layer_1" xmlns="http://www.w3.org/2000/svg" xmlns:xlink="http://www.w3.org/1999/xlink" x="0px" y="0px" viewBox="0 0 595.28 595.28" enable-background="new 0 0 595.28 595.28" xml:space="preserve">
<path id="color_x5F_6" fill="#8FC23F" d="M263.505,167.587c0,15.506-3.543,44.532-3.543,44.532l-5.924,0.482l-2.665-0.567
	c0,0-2.835-5.471-7.569-8.872c-4.706-3.401-5.471-2.268-8.504-1.134s-7.37,0.368-9.468-2.863c-2.069-3.203,1.729-5.272,3.6-3.77
	c1.899,1.502,3.6,3.77,5.301,1.332c1.701-2.466-0.935-2.665-6.435-8.334c-5.471-5.669-4.904-14.882,3.146-12.614
	c4.309,1.219,8.561,5.868,11.565,9.949c-4.564-13.832-7.625-29.196-1.843-35.914C252.903,136.18,263.505,152.082,263.505,167.587
	L263.505,167.587z M274.843,157.383L274.843,157.383c-10.602,3.77-11.339,29.509-11.339,29.509l-0.765,13.606
	c0,0,3.288-4.281,14.372-16.895C288.223,170.989,285.445,153.584,274.843,157.383L274.843,157.383z"></path>
<path id="color_x5F_5" fill="#FFD2BB" d="M437.098,279.811c-1.956,0.992-7.342,3.431-13.38,3.601
	c-6.038,0.142-7.682,0.794-8.164,1.134c-0.51,0.312-11.254,39.883-17.461,43.823c-6.208,3.912-13.38,0.057-16.157-2.211
	c-2.778-2.296-7.172-8.646-7.172-8.646l16.299-16.327c0,0,2.466,3.996,5.074,4.988c2.608,0.964,11.565-20.013,12.557-24.888
	c0.992-4.904,4.252-5.727,8.164-3.912c3.912,1.786,17.121,1.445,20.721-0.34C441.18,275.247,439.054,278.818,437.098,279.811
	L437.098,279.811z M332.727,464.318L332.727,464.318l7.455-0.397h0.028l0.312-7.71l-8.958,1.502L332.727,464.318z M356.509,463.921
	L356.509,463.921h0.028l7.483,0.397l1.616-9.298l-9.496-0.227L356.509,463.921z M368.216,243.188L368.216,243.188
	c-0.368-0.198-0.765-0.283-1.134-0.34c-0.624,0.821-1.191,1.813-1.701,3.43c-0.907,2.863-3.345,5.386-3.345,5.386
	s1.134-7.03-0.34-9.468s-1.389,1.134-11.735-3.657c-10.375-4.818-16.979-3.77-19.842-1.247c-2.835,2.552-4.394,6.775-4.479,9.156
	c-0.085,2.353-0.17,3.43-0.17,3.43s-0.085-6.208-2.268-7.767c-0.709-0.482-1.162-0.737-1.474-0.879c-0.227,0-0.454-0.028-0.737,0
	c-2.863,0.057-3.033,5.782-1.304,8.476c1.701,2.693,4.252,1.701,5.698,3.43c1.474,1.701,0.822,7.824,8.731,11.424l-0.312,4.394
	c0,0,0.964,4.563,5.783,5.642c4.819,1.049,8.646-5.217,8.646-5.217V265.3c0,0,9.156-1.304,13.068-10.602c0,0,5.216-0.992,6.86-3.771
	C369.776,248.148,370.116,244.066,368.216,243.188L368.216,243.188z"></path>
<path id="color_x5F_4" fill="#f6ebe0" d="M365.64,245.528c0.074-0.2,0.149-0.387,0.226-0.567
	C365.79,245.14,365.715,245.328,365.64,245.528z M147.143,169.912c2.409,0,4.365-1.956,4.365-4.365c0-2.41-1.956-4.338-4.365-4.338
	c-2.381,0-4.337,1.928-4.337,4.338C142.805,167.956,144.761,169.912,147.143,169.912z M366.547,243.632
	c-0.043,0.069-0.085,0.139-0.128,0.211C366.461,243.77,366.504,243.701,366.547,243.632z M366.176,244.29
	c-0.06,0.116-0.118,0.24-0.177,0.366C366.058,244.529,366.117,244.407,366.176,244.29z M139.206,169.146
	c-2.409,0-4.337,1.956-4.337,4.365c0,2.381,1.928,4.337,4.337,4.337s4.337-1.956,4.337-4.337
	C143.542,171.103,141.615,169.146,139.206,169.146z M144.308,487.902c-2.409,0-4.365,1.956-4.365,4.337
	c0,2.409,1.956,4.365,4.365,4.365s4.337-1.956,4.337-4.365C148.645,489.858,146.717,487.902,144.308,487.902z M131.268,169.912
	c2.381,0,4.337-1.956,4.337-4.365c0-2.41-1.956-4.338-4.337-4.338c-2.409,0-4.365,1.928-4.365,4.338
	C126.903,167.956,128.859,169.912,131.268,169.912z M139.206,161.946c2.409,0,4.337-1.956,4.337-4.337
	c0-2.409-1.928-4.365-4.337-4.365s-4.337,1.956-4.337,4.365C134.868,159.99,136.796,161.946,139.206,161.946z M378.761,236.639
	c-5.811,2.636-9.071,3.345-10.205,4.592c-0.49,0.527-0.984,1.014-1.46,1.62c0.365,0.057,0.757,0.142,1.12,0.337
	c1.9,0.878,1.56,4.96-0.055,7.739c-1.644,2.779-6.86,3.771-6.86,3.771c-3.912,9.298-13.068,10.602-13.068,10.602v4.077
	c0.019-0.011,0.622-0.317,3.91,0.966c3.345,1.304,7.427-3.005,13.068-2.778c5.641,0.255,9.213,0.992,14.117,9.949
	c4.904,8.987,12.558,19.758,13.38,21.884c0.149,0.386-0.354,1.234-1.267,2.356c0.785,1.138,2.697,3.658,4.696,4.419
	c2.608,0.964,11.565-20.013,12.557-24.888c0.992-4.904,4.252-5.727,8.164-3.912c1.791,0.818,5.532,1.185,9.406,1.176
	c-18.232-15.613-31.844-31.811-40.679-48.79C383.729,232.997,381.194,235.542,378.761,236.639z M455.183,203.899
	c-2.381,0-4.337,1.956-4.337,4.365s1.956,4.337,4.337,4.337c2.409,0,4.365-1.928,4.365-4.337S457.593,203.899,455.183,203.899z
	 M455.183,196.699c2.409,0,4.365-1.928,4.365-4.337c0-2.409-1.956-4.365-4.365-4.365c-2.381,0-4.337,1.956-4.337,4.365
	C450.846,194.771,452.802,196.699,455.183,196.699z M447.246,204.664c2.409,0,4.337-1.955,4.337-4.365
	c0-2.381-1.928-4.337-4.337-4.337s-4.337,1.956-4.337,4.337C442.909,202.709,444.837,204.664,447.246,204.664z M463.149,204.664
	c2.409,0,4.337-1.955,4.337-4.365c0-2.381-1.928-4.337-4.337-4.337s-4.365,1.956-4.365,4.337
	C458.783,202.709,460.739,204.664,463.149,204.664z M365.381,246.278c0.003-0.011,0.007-0.021,0.011-0.032
	C365.388,246.257,365.384,246.266,365.381,246.278c-0.907,2.862-3.343,5.383-3.345,5.385l0,0.001
	C362.036,251.664,364.474,249.141,365.381,246.278z M152.245,488.64c2.409,0,4.365-1.928,4.365-4.337
	c0-2.41-1.956-4.338-4.365-4.338c-2.381,0-4.337,1.928-4.337,4.338C147.908,486.712,149.864,488.64,152.245,488.64z
	 M349.961,238.538c-10.374-4.818-16.979-3.769-19.842-1.247c-2.835,2.552-4.394,6.775-4.479,9.156c-0.085,2.353-0.17,3.43-0.17,3.43
	s-0.085-6.208-2.268-7.767c-0.057-0.04-0.097-0.062-0.152-0.099c0.052,0.035,0.096,0.063,0.152,0.1
	c2.183,1.559,2.268,7.767,2.268,7.767s0.085-1.077,0.17-3.43c0.085-2.381,1.644-6.604,4.479-9.156
	c2.863-2.523,9.467-3.571,19.842,1.247c10.346,4.791,10.261,1.219,11.735,3.657c0.553,0.914,0.739,2.474,0.755,4.067
	c-0.016-1.593-0.202-3.154-0.755-4.068C360.222,239.758,360.307,243.329,349.961,238.538z M335.232,271.854
	c-1.124-1.455-1.428-2.898-1.428-2.898l0.312-4.394c-7.909-3.6-7.257-9.723-8.731-11.424c-1.423-1.701-3.913-0.776-5.613-3.31
	v11.557c2.07,0.283,8.05,1.617,14.03,7.568C333.802,268.953,334.107,270.398,335.232,271.854z M206.216,312.097h-12.614v11.764
	h12.614V312.097z M236.519,243.386v10.942h6.378v-1.757h-4.337v-9.185H236.519z M206.216,286.983h-12.614v11.735h12.614V286.983z
	 M311.127,262.123l-121.436-0.057v1.304l121.436,0.057V262.123z M193.602,375.735h12.614V364h-12.614V375.735z M206.216,336.9
	h-12.614v11.764h12.614V336.9z M262.939,254.327v-9.155h3.146v-1.786h-8.305v1.786h3.118v9.155H262.939z M253.328,245.086
	c1.248,0,2.381,0.199,3.487,0.595v-1.814c-1.106-0.368-2.24-0.538-3.487-0.538c-3.174,0-4.762,1.106-4.763,3.344
	c0,2.041,1.106,3.062,3.345,3.062h1.729c1.021,0,1.531,0.425,1.531,1.247c0,1.106-0.851,1.673-2.523,1.673
	c-1.36,0-2.607-0.198-3.713-0.624v1.843c1.105,0.368,2.352,0.538,3.713,0.538c3.033,0,4.564-1.134,4.564-3.43
	c0-2.041-1.191-3.062-3.572-3.062h-1.729c-0.878,0-1.332-0.425-1.332-1.247C250.578,245.624,251.514,245.086,253.328,245.086z
	 M244.796,243.386v10.941h2.041v-10.941H244.796z M372.213,474.296c-17.966,0.289-35.245,0.127-51.846-0.575l20.893-0.644
	c0,0,0.652-0.766,0.907-2.183c0.283-1.418,0-6.491-0.539-6.746c-0.539-0.227-1.446-0.227-1.445-0.227l-9.014,0.482
	c0,0-3.544,3.543-5.443,3.062c-1.871-0.482-4.989-0.369-7.2,1.587c-1.878,1.682-0.716,3.969-0.354,4.576
	c-94.483-4.28-166.668-26.416-216.157-84.173c-58.876-68.74-24.463-123.307-0.652-144.907
	c23.698-21.543,75.061-19.587,90.057-58.733c15.024-39.175,17.206-53.207,45.694-73.56c30.161-21.515,146.863-6.066,137.735,51.364
	c-2.295,14.393-1.798,28.212,1.424,41.54c-3.858-1.17-7.981-1.375-11.316-0.892c-7.427,1.049-15.335,12.246-22.847,12.303
	c-7.483,0.085-13.039,3.996-17.376,9.155c-4.309,5.131-3.742,15.506-3.742,15.506s0.017-0.286,0.708,0
	c-0.218-0.002-0.437-0.026-0.709,0.001c-0.484,0.01-0.885,0.192-1.219,0.483v-9.866H183.341v201.686h136.431v-39.232l10.12,63.694
	l1.673-0.279l1.162,6.6l7.455-0.397h0.028l0.311-7.696l1.106-0.184l4.564-63.326l7.852,62.022l13.38,0.312l11.906-90.539
	c-0.001,0-21.856,8.022-59.557,3.629v-0.001c37.7,4.394,59.555-3.629,59.555-3.629l-4.564-46.998c0,0,0.01-0.009,0.012-0.011
	l-0.012,0.012c0,0,4.394,6.35,7.172,8.646c2.777,2.268,9.949,6.123,16.157,2.211c6.207-3.94,16.951-43.511,17.461-43.823
	c0.482-0.34,2.126-0.992,8.164-1.134c2.517-0.071,4.917-0.538,7.006-1.128c13.125,10.738,28.453,21.203,45.945,31.458
	C552.383,358.104,459.889,472.879,372.213,474.296z M263.504,186.892l-0.765,13.606c0,0,3.288-4.281,14.372-16.895
	c11.112-12.614,8.334-30.019-2.268-26.22C264.241,161.153,263.504,186.892,263.504,186.892z M228.298,188.393
	c5.5,5.669,8.136,5.868,6.435,8.334c-1.701,2.438-3.402,0.17-5.301-1.332c-1.871-1.502-5.669,0.567-3.6,3.77
	c2.098,3.231,6.435,3.997,9.468,2.863c3.033-1.134,3.798-2.267,8.504,1.134c2.981,2.142,5.207,5.102,6.448,7.002h-10.218
	l8.135,21.543h13.238l7.767-21.543h-8.981c0.787-6.765,3.312-29.488,3.312-42.577c0-15.505-10.602-31.407-22.339-17.773
	c-5.782,6.718-2.721,22.082,1.843,35.914c-3.004-4.081-7.256-8.73-11.565-9.949C223.394,173.511,222.827,182.724,228.298,188.393z
	 M378.193,469.053c-2.21-1.957-5.328-2.071-7.199-1.588c-1.899,0.481-5.443-3.062-5.443-3.062l-9.014-0.482h0l7.483,0.397
	l1.616-9.298l-9.496-0.227l0.369,9.128h0.028c0,0-0.907,0-1.446,0.228c-0.539,0.255-0.822,5.328-0.539,6.746
	c0.255,1.417,0.907,2.183,0.907,2.183l22.989,0.709C378.448,473.787,380.376,471.009,378.193,469.053z M321.894,241.314
	c0.021,0.011,0.039,0.019,0.061,0.03C321.934,241.333,321.914,241.324,321.894,241.314z M160.21,487.902
	c-2.409,0-4.365,1.956-4.365,4.337c0,2.409,1.956,4.365,4.365,4.365s4.337-1.956,4.337-4.365
	C164.547,489.858,162.62,487.902,160.21,487.902z M152.245,495.84c-2.381,0-4.337,1.955-4.337,4.365
	c0,2.409,1.956,4.337,4.337,4.337c2.409,0,4.365-1.928,4.365-4.337C156.61,497.795,154.654,495.84,152.245,495.84z M322.344,241.561
	c0.097,0.057,0.204,0.124,0.317,0.195C322.549,241.685,322.441,241.618,322.344,241.561z"></path>
<path id="color_x5F_3" fill="#e89043" d="M183.341,231.849v201.686h136.431V231.849H183.341z M257.779,243.386L257.779,243.386
	h8.306v1.786h-3.146v9.155h-2.041v-9.155h-3.118v-1.786H257.779z M253.328,243.329L253.328,243.329c1.247,0,2.381,0.17,3.487,0.538
	v1.814c-1.106-0.396-2.239-0.595-3.487-0.595c-1.814,0-2.75,0.538-2.75,1.587c0,0.822,0.454,1.247,1.332,1.247h1.729
	c2.381,0,3.572,1.021,3.572,3.062c0,2.296-1.531,3.43-4.564,3.43c-1.361,0-2.608-0.17-3.713-0.538v-1.843
	c1.106,0.426,2.353,0.624,3.713,0.624c1.672,0,2.523-0.567,2.523-1.673c0-0.822-0.51-1.247-1.531-1.247h-1.729
	c-2.239,0-3.345-1.021-3.345-3.062C248.566,244.435,250.154,243.329,253.328,243.329L253.328,243.329z M244.796,243.386
	L244.796,243.386h2.041v10.941h-2.041V243.386z M236.519,243.386L236.519,243.386h2.041v9.185h4.337v1.757h-6.378V243.386z
	 M206.216,375.735L206.216,375.735h-12.614V364h12.614V375.735z M206.216,348.664L206.216,348.664h-12.614V336.9h12.614V348.664z
	 M206.216,323.861L206.216,323.861h-12.614v-11.764h12.614V323.861z M206.216,298.718L206.216,298.718h-12.614v-11.735h12.614
	V298.718z M311.127,263.427L311.127,263.427l-121.436-0.057v-1.304l121.436,0.057V263.427z"></path>
<path id="color_x5F_2" fill="#f17c06" d="M319.772,368.139v26.164l10.12,63.694l11.735-1.956l4.564-63.326l7.852,62.022l13.38,0.312
	l11.906-90.539C379.328,364.51,357.473,372.532,319.772,368.139L319.772,368.139z M421.763,263.738h7.313v6.775h-7.313V263.738z
	 M428.651,230.998L428.651,230.998c-3.487,0-7.172,0.454-11.055,1.39v5.811c3.883-0.936,7.569-1.389,11.055-1.389
	c4.989,0,7.483,1.644,7.483,4.96c0,4.252-2.353,6.379-7.058,6.379h-7.313v12.132h7.313v-6.35c9.213,0,13.833-4.054,13.833-12.161
	C442.909,234.599,438.147,230.998,428.651,230.998L428.651,230.998z"></path>
<path id="color_x5F_1" fill="#f1b604" d="M341.628,464.148c0.539,0.255,0.822,5.328,0.539,6.746
	c-0.255,1.417-0.907,2.183-0.907,2.183l-22.989,0.709c0,0-1.928-2.778,0.255-4.734c2.211-1.956,5.329-2.069,7.2-1.587
	c1.899,0.481,5.443-3.062,5.443-3.062l9.014-0.482C340.182,463.921,341.089,463.921,341.628,464.148L341.628,464.148z
	 M370.994,467.465L370.994,467.465c-1.899,0.481-5.443-3.062-5.443-3.062l-9.014-0.482c0,0-0.907,0-1.446,0.228
	c-0.539,0.255-0.822,5.328-0.539,6.746c0.255,1.417,0.907,2.183,0.907,2.183l22.989,0.709c0,0,1.928-2.778-0.255-4.734
	C375.983,467.096,372.865,466.982,370.994,467.465L370.994,467.465z M323.202,242.11L323.202,242.11
	c2.183,1.559,2.268,7.767,2.268,7.767s0.085-1.077,0.17-3.43c0.085-2.381,1.644-6.604,4.479-9.156
	c2.863-2.522,9.468-3.571,19.842,1.247c10.346,4.791,10.261,1.22,11.735,3.657s0.34,9.468,0.34,9.468s2.438-2.522,3.345-5.386
	c0.879-2.863,2.041-3.827,3.175-5.046c1.134-1.247,4.394-1.956,10.205-4.592c5.783-2.608,12.161-13.38,8.561-22.252
	c-3.6-8.901-14.939-11.197-22.365-10.12c-7.427,1.049-15.335,12.246-22.847,12.303c-7.483,0.085-13.039,3.996-17.376,9.155
	c-4.309,5.131-3.742,15.506-3.742,15.506S320.991,240.579,323.202,242.11L323.202,242.11z M392.708,299.398L392.708,299.398
	c-0.822-2.126-8.476-12.897-13.38-21.884c-4.904-8.957-8.476-9.694-14.117-9.949c-5.641-0.227-9.723,4.082-13.068,2.778
	c-3.345-1.305-3.912-0.965-3.912-0.965s-3.827,6.266-8.646,5.217c-4.819-1.078-5.783-5.642-5.783-5.642
	c-5.981-5.952-11.962-7.285-14.031-7.568v106.753c37.701,4.394,59.556-3.629,59.556-3.629l-4.564-46.998
	C374.765,317.512,393.53,301.524,392.708,299.398L392.708,299.398z M248.169,231.707L248.169,231.707h13.238l7.767-21.543h-29.14
	L248.169,231.707z"></path>
</svg>