<?xml version="1.0" standalone="no"?>
<svg version="1.1" id="Layer_1" xmlns="http://www.w3.org/2000/svg" xmlns:xlink="http://www.w3.org/1999/xlink" x="0px" y="0px" width="595.28px" height="595.28px" viewBox="0 0 595.28 595.28" enable-background="new 0 0 595.28 595.28" xml:space="preserve">
<path id="color_x5F_7" fill="#2CB492" d="M217.815,456.836H107.7c0.219-7.063,6.078-12.729,13.29-12.729
	c0.401,0,0.794,0.027,1.185,0.059c-0.752-2.037-1.185-4.225-1.185-6.517c0-10.556,8.675-19.112,19.372-19.112
	c4.902,0,9.365,1.809,12.773,4.771c3.632,3.157,6.065,7.628,6.509,12.667c2.173-4.808,7.048-8.166,12.729-8.166
	c5.159,0,9.652,2.771,12.063,6.879c1.188,2.023,1.878,4.365,1.878,6.871c0,1.106-0.145,2.181-0.399,3.213
	c2.549-1.83,5.538-3.086,8.78-3.597v8.558c0,3.896,3.158,7.055,7.055,7.055h16.053C217.807,456.804,217.812,456.819,217.815,456.836
	z M150.597,212.005c0.741,0,1.341-0.6,1.341-1.341v-8.594c0-0.74-0.6-1.341-1.341-1.341c-0.74,0-1.341,0.601-1.341,1.341v8.594
	C149.256,211.405,149.856,212.005,150.597,212.005z M150.597,243.157c0.741,0,1.341-0.601,1.341-1.342v-8.594
	c0-0.741-0.6-1.342-1.341-1.342c-0.74,0-1.341,0.601-1.341,1.342v8.594C149.256,242.557,149.856,243.157,150.597,243.157z
	 M130.725,223.284h8.594c0.74,0,1.341-0.601,1.341-1.342c0-0.74-0.601-1.341-1.341-1.341h-8.594c-0.74,0-1.342,0.601-1.342,1.341
	C129.383,222.684,129.984,223.284,130.725,223.284z M160.535,221.942c0,0.741,0.601,1.342,1.341,1.342h8.594
	c0.741,0,1.342-0.601,1.342-1.342c0-0.74-0.601-1.341-1.342-1.341h-8.594C161.136,220.602,160.535,221.202,160.535,221.942z
	 M141.674,214.917c0.262,0.262,0.604,0.393,0.948,0.393c0.343,0,0.686-0.131,0.948-0.393c0.524-0.525,0.524-1.373,0-1.897
	l-6.078-6.077c-0.523-0.524-1.372-0.524-1.896,0c-0.523,0.523-0.523,1.373,0,1.896L141.674,214.917z M163.701,236.944
	c0.262,0.262,0.605,0.393,0.948,0.393s0.687-0.131,0.948-0.393c0.524-0.524,0.524-1.373,0-1.897l-6.076-6.077
	c-0.525-0.523-1.374-0.523-1.898,0c-0.523,0.524-0.523,1.373,0,1.896L163.701,236.944z M141.674,228.97l-6.078,6.077
	c-0.523,0.524-0.523,1.373,0,1.897c0.263,0.262,0.605,0.393,0.949,0.393s0.687-0.131,0.947-0.393l6.078-6.078
	c0.524-0.523,0.524-1.372,0-1.896C143.047,228.446,142.197,228.446,141.674,228.97z M158.572,215.31
	c0.343,0,0.687-0.131,0.949-0.393l6.076-6.078c0.524-0.523,0.524-1.373,0-1.896c-0.523-0.524-1.373-0.524-1.896,0l-6.078,6.077
	c-0.523,0.524-0.523,1.372,0,1.897C157.886,215.179,158.229,215.31,158.572,215.31z"></path>
<path id="color_x5F_6" fill="#E83F30" d="M433.185,196.118c0,0,0-0.01,0-0.014c0.001-0.299,0.014-10.248-2.742-11.764
	c-1.688-0.931-3.191,6.029-3.191,6.029s-0.417-2.001-0.445-3.394c-0.027-1.395-0.145-3.714-3.318-7.046
	c-1.103-1.157-1.354-2.824-1.224-4.506c-1.702,2.205-4.854,4.553-10.651,4.741c-2.442,0.079-4.42-0.435-6.013-1.248
	c-4.789-2.446-6.103-7.612-6.103-7.612c-0.08-3.989,7.336,2.559,9.923-0.05c0.008-0.007,0.016-0.013,0.023-0.021
	c2.576-2.671,6.157-4.364,10.159-4.443c0.442-0.008,0.881,0.006,1.314,0.037c0.111,0.008,0.22,0.025,0.33,0.035
	c0.315,0.03,0.63,0.065,0.94,0.115c0.152,0.024,0.303,0.057,0.453,0.087c0.256,0.049,0.51,0.102,0.76,0.164
	c0.191,0.048,0.379,0.103,0.566,0.158c0.115,0.034,0.229,0.071,0.344,0.108l0.001-0.01c0.184,0.051,0.37,0.12,0.548,0.182
	c0.086,0.031,0.168,0.07,0.254,0.104c0.251,0.097,0.502,0.194,0.746,0.304c4.927,2.228,8.397,7.14,8.511,12.916l0.172,8.712
	C434.587,191.995,434.096,194.174,433.185,196.118z"></path>
<path id="color_x5F_5" fill="#FFD2BB" d="M365.021,227.248c-2.438,0.847-4.928,1.59-7.476,2.197
	c0.037,0.293,0.079,0.593,0.122,0.894c-0.613-2.138-0.996-4.133-1.053-5.882c-0.348-0.084-0.708-0.182-1.092-0.313
	c-2.202-0.747-4.908-3.531-7.078-6.525c-2.45-3.388-4.21-6.783-3.084-7.349c1.907-0.964,3.641,6.178,5.602,5.331
	c1.173-0.504-6.235-8.326-3.877-9.695c2.112-1.232,4.127,7.636,5.908,6.713c1.775-0.919-4.974-8.219-2.692-9.643
	c2.146-1.334,4.166,8.012,5.961,8.608c0.016,0.007,0.028-0.005,0.045,0.001c0.102,0.023,0.206,0.036,0.308-0.003
	c1.879-0.69-3.632-7.136-1.41-8.422c1.952-1.13,4.11,9.167,6.435,9.548c2.091,0.334,0.147-4.628,1.941-4.474
	c0.851,0.071,1.284,1.342,1.44,3.024c0.095,1.022,0.086,2.19,0,3.347c-0.121,1.629-0.391,3.222-0.735,4.29
	c-0.082,0.257-0.172,0.492-0.261,0.683c-0.029,0.063-0.06,0.114-0.087,0.178l1.083,1.457l3.514,4.726
	C367.379,226.404,366.205,226.836,365.021,227.248z M433.95,210.007l-1.89-11.968c0.203-0.302,0.415-0.599,0.595-0.916
	c0.188-0.326,0.365-0.662,0.524-1.007c0.002-0.004,0.003-0.008,0.005-0.012c0.001-0.299,0.014-10.248-2.742-11.764
	c-1.688-0.931-3.191,6.029-3.191,6.029s-0.417-2.001-0.445-3.394c-0.027-1.395-0.145-3.714-3.318-7.046
	c-1.103-1.157-1.354-2.824-1.224-4.506c-1.702,2.205-4.854,4.553-10.651,4.741c-2.442,0.079-4.42-0.435-6.013-1.248
	c-0.141,0.859-0.218,1.74-0.2,2.642l0.174,8.711c0.021,1.162,0.063,2.285,0.148,3.363c0.089,1.225,0.23,2.384,0.446,3.46
	c0.777,3.921,2.548,6.727,6.591,7.339c0.63,0.099,1.296,0.16,2.031,0.145l5.551-0.109c0.295-0.006,0.592-0.023,0.882-0.049
	c-0.193,0.964-0.448,1.652-0.851,1.66l-5.551,0.108c-0.736,0.016-1.401-0.046-2.031-0.133l-0.633,4.319l-0.989,6.777l1.819-0.03
	l6.803-0.118l15.225-0.253L433.95,210.007z M419.603,166.79c0.442-0.008,0.881,0.006,1.314,0.037
	c-0.436-0.031-0.874-0.046-1.318-0.038c-4.002,0.079-7.584,1.772-10.158,4.441c-0.007,0.008-0.014,0.016-0.021,0.023
	c0.008-0.007,0.016-0.013,0.023-0.021C412.02,168.563,415.601,166.869,419.603,166.79z M424.312,167.483
	c0.184,0.051,0.37,0.12,0.548,0.182c-0.002-0.001-0.004-0.001-0.005-0.002c-0.178-0.062-0.361-0.132-0.549-0.184
	c-0.11-0.036-0.227-0.061-0.339-0.094c0.115,0.034,0.229,0.071,0.344,0.108L424.312,167.483z M387.577,271.708
	c-0.127-0.168-0.295-0.356-0.483-0.549c-0.698-0.713-1.79-1.568-2.998-2.357c-0.435-0.284-0.884-0.556-1.336-0.813
	c-0.25-0.142-0.5-0.278-0.749-0.408c-0.025-0.013-0.052-0.027-0.077-0.041c-0.925-0.476-1.82-0.842-2.586-1.029
	c-0.949-0.232-1.699-0.188-2.019,0.314c-0.489,0.764,0.609,1.292,1.66,1.844c0.121,0.063,0.241,0.127,0.358,0.192
	c0.681,0.375,1.241,0.777,1.221,1.279c-0.006,0.152-0.053,0.312-0.183,0.485c-0.195,0.26-0.562,0.426-1.038,0.53
	c-2.981,0.652-10.486-1.217-10.406,0.726c0.105,2.565,8.374,0.685,8.111,2.669c-0.013,0.107-0.072,0.195-0.141,0.273
	c-0.013,0.012-0.009,0.028-0.021,0.039c-1.363,1.312-10.576-1.246-10.394,1.273c0.199,2.682,9.801,0.102,9.788,2.101
	c-0.011,2.007-8.798-0.334-8.689,2.109c0.114,2.724,10.485-0.196,10.386,1.076c-0.162,2.13-7.291,0.344-7.324,2.479
	c-0.022,1.26,3.801,1.281,7.939,0.688c0.251-0.036,0.501-0.082,0.751-0.123c3.408-0.565,6.747-1.615,8.317-3.107
	c0.294-0.279,0.549-0.553,0.785-0.821c1.285,0.623,2.818,1.129,4.522,1.54c0.242-3.557,0.545-7.335,0.885-11.177l-6.164,0.967
	C387.65,271.813,387.619,271.763,387.577,271.708z"></path>
<path id="color_x5F_4" fill="#00CEC9" d="M472.06,449.71c-1.903-0.76-6.165-5.402-6.165-5.402
	c-0.146-1.24-4.071-83.898-6.23-129.489c7.055,0.208,12.188-9.107,12.966-9.095c-5.701-13.35-11.345-33.133-10.767-42.007
	c0,0,3.683-41.964,1.896-43.237c-0.137-0.229-0.299-0.447-0.508-0.612c-0.019-0.02-0.041-0.041-0.069-0.059
	c-1.687-2.979-5.216-3.537-7.841-3.396l-8.16,0.135l-3.752,0.061l-8.414,0.141l-0.546,0.009c0.03,0.043,0.063,0.186,0.096,0.403
	c0.292,1.924,0.697,10.453,1.459,21.531l-1.512,0.587l-11.952,26.063c-2.915,0.195-7.14,0.694-11.744,1.457
	c-1.114-16.214-2.833-31.903-0.193-49.64c0.009-0.062,0.017-0.122,0.025-0.184h-8.175c-4.624-1.209-9.727,0.696-12.427,5.033
	c-1.462,2.346-5.696,9.983-9.293,17.977c-0.455-0.622-0.923-1.252-1.405-1.892c-3.17-4.203-6.869-8.693-10.43-12.302
	c-0.126,0.052-0.256,0.097-0.383,0.147c-1.156,0.466-2.33,0.898-3.514,1.31c-2.438,0.847-4.928,1.59-7.476,2.197
	c0.037,0.293,0.079,0.593,0.122,0.894c1.229,8.629,4.766,20.417,7.354,27.627c0.904,2.518,1.692,4.479,2.226,5.548
	c2.339,4.703,7.237,7.26,12.101,6.807c0.408-0.038,0.814-0.098,1.221-0.179c0.021-0.502-0.54-0.904-1.221-1.279
	c-0.117-0.065-0.237-0.129-0.358-0.192c-1.051-0.552-2.149-1.08-1.66-1.844c0.319-0.502,1.069-0.546,2.019-0.314
	c0.766,0.187,1.661,0.554,2.586,1.029c0.025,0.013,0.052,0.027,0.077,0.041c0.249,0.13,0.499,0.266,0.749,0.408
	c0.452,0.257,0.901,0.53,1.336,0.813c2.627-1.601,4.146-4.664,4.674-8.086c2.564-3.978,5.165-8.883,7.539-13.698
	c-0.832,7.176-1.726,15.667-2.451,23.883c-0.34,3.841-0.643,7.62-0.885,11.177c-0.77,11.284-0.934,20.312,0.256,21.859
	c1.481,0.072,5.981,3.673,11.444-1.353c-1.415,40.826-4.875,140.361-5.035,141.724c0,0-4.263,4.643-6.165,5.402
	c-3.49,1.394-12.413,0.562-14.876,3.177c-0.246,0.262-0.426,0.558-0.53,0.893c-0.061,0.192-0.104,0.393-0.111,0.611
	c-0.108,2.888,5.75,2.748,5.75,2.748h25.875l-1.277-12.831h1.632c0,0,13.536-67.231,14.552-75.895
	c0.76-6.476,2.168-44.01,7.283-54.102c5.117,10.092,6.525,47.626,7.284,54.102c1.017,8.663,18.176,75.895,18.176,75.895
	l-1.276,12.831h25.875c0,0,5.857,0.14,5.75-2.748C487.412,449.951,476.098,451.322,472.06,449.71z M406.889,300.103
	c1.471-1.948,2.988-4.58,4.517-8.112c0.074-1.721,0.117-3.422,0.136-5.11c7.281,1.455,13.895,2.356,16.429,2.41
	c3.668,0.081,6.986-1.435,9.294-3.891c1.191-1.269,2.115-2.784,2.669-4.471l0.521,0.135l0.025-0.051
	c0.25,1.502,0.511,2.967,0.783,4.387c1.316,6.865,2.901,12.656,4.815,16.367C431.476,301.17,411.245,300.305,406.889,300.103z"></path>
<path id="color_x5F_3" fill="#E84393" d="M364.286,218.895c0.345-1.067,0.614-2.66,0.735-4.29v6.606l-1.083-1.457
	c0.027-0.063,0.058-0.115,0.087-0.178C364.114,219.387,364.204,219.151,364.286,218.895z M365.021,152.076v59.182
	c-0.156-1.682-0.59-2.953-1.44-3.024c-1.794-0.154,0.149,4.808-1.941,4.474c-2.324-0.381-4.482-10.678-6.435-9.548
	c-2.222,1.286,3.289,7.731,1.41,8.422c-0.102,0.039-0.206,0.026-0.308,0.003c-0.017-0.006-0.029,0.006-0.045-0.001
	c-1.795-0.597-3.815-9.942-5.961-8.608c-2.281,1.424,4.468,8.724,2.692,9.643c-1.781,0.923-3.796-7.945-5.908-6.713
	c-2.358,1.369,5.05,9.191,3.877,9.695c-1.961,0.847-3.694-6.295-5.602-5.331c-1.126,0.565,0.634,3.961,3.084,7.349
	c2.17,2.994,4.876,5.778,7.078,6.525c0.384,0.131,0.744,0.229,1.092,0.313c0.057,1.749,0.439,3.744,1.053,5.882
	c1.229,8.629,4.766,20.417,7.354,27.627v166.111h-156v-272H365.021z M248.491,186.092c0,2.209,1.791,4,4,4h70.972
	c2.209,0,4-1.791,4-4s-1.791-4-4-4h-70.972C250.282,182.092,248.491,183.883,248.491,186.092z M339.526,372.069
	c0-13.257-10.746-24.003-24.002-24.003h-57.006c-13.256,0-24.002,10.746-24.002,24.003c0,13.256,10.746,24.002,24.002,24.002h57.006
	C328.78,396.071,339.526,385.325,339.526,372.069z M339.526,303.063c0-13.257-10.746-24.003-24.002-24.003h-57.006
	c-13.256,0-24.002,10.746-24.002,24.003c0,13.256,10.746,24.002,24.002,24.002h57.006
	C328.78,327.064,339.526,316.318,339.526,303.063z M339.526,234.056c0-13.257-10.746-24.003-24.002-24.003h-57.006
	c-13.256,0-24.002,10.746-24.002,24.003c0,13.256,10.746,24.002,24.002,24.002h57.006
	C328.78,258.058,339.526,247.312,339.526,234.056z"></path>
<path id="color_x5F_2" fill="#FBC02D" d="M141.676,396.641c3.069,1.293,5.357,2.461,5.357,2.461s0,0-2.915-0.481
	C143.663,398.545,142.794,397.831,141.676,396.641z M176.755,393.643c-1.346,2.201-2.045,3.978-2.045,3.978
	S175.52,396.097,176.755,393.643z M176.44,427.267c0,0,1.091-1.495,2.73-3.896C176.699,425.262,176.44,427.267,176.44,427.267z
	 M159.645,435.975c2.173-4.808,7.048-8.166,12.729-8.166c5.159,0,9.652,2.771,12.063,6.879c5.94-6.127,13.296-15.05,5.145-14.498
	c-5.345,0.364-8.522,1.739-10.41,3.182c-1.639,2.4-2.73,3.896-2.73,3.896s0.258-2.005,2.73-3.896
	c4.708-6.892,14-21.357,15.524-30.243v-4.165c-0.353-1.366-1.147-2.382-2.517-2.907c-7.485-2.87-12.743,3.204-15.423,7.587
	c-1.235,2.454-2.045,3.978-2.045,3.978s0.699-1.776,2.045-3.978c5.528-10.981,19.604-40.678,8.078-36.724
	c-14.098,4.836-15.683,23.41-15.683,23.41s-4.289-4.103-3.414-16.781c0.879-12.678,9.227-49.293-9.513-41.055
	c-18.74,8.234-18.352,31.088-10.663,42.863c7.692,11.775-11.442-14.983-17.858-4.441c-5.414,8.899,7.926,29.288,13.974,35.726
	c3.069,1.293,5.357,2.461,5.357,2.461s0,0-2.915-0.481c-0.455-0.075-1.324-0.789-2.442-1.979
	c-7.726-3.252-20.412-7.291-14.123,4.528c8.788,16.516,30.757,22.732,30.757,22.732s-2.19-0.307-5.174-0.594
	C156.768,426.465,159.201,430.936,159.645,435.975z M339.526,234.056c0,13.256-10.746,24.002-24.002,24.002h-57.006
	c-13.256,0-24.002-10.746-24.002-24.002c0-13.257,10.746-24.003,24.002-24.003h57.006
	C328.78,210.053,339.526,220.799,339.526,234.056z M255.959,222.089v3V222.089z M275.043,231.59c0-1.104-0.896-2-2-2h-15.27
	c-1.104,0-2,0.896-2,2s0.896,2,2,2h15.27C274.147,233.59,275.043,232.694,275.043,231.59z M318.271,231.59c0-1.104-0.896-2-2-2
	h-26.281c-1.104,0-2,0.896-2,2s0.896,2,2,2h26.281C317.375,233.59,318.271,232.694,318.271,231.59z M339.526,303.063
	c0,13.256-10.746,24.002-24.002,24.002h-57.006c-13.256,0-24.002-10.746-24.002-24.002c0-13.257,10.746-24.003,24.002-24.003h57.006
	C328.78,279.06,339.526,289.806,339.526,303.063z M293.031,303.587c0-1.104-0.896-2-2-2h-33.258c-1.104,0-2,0.896-2,2s0.896,2,2,2
	h33.258C292.136,305.587,293.031,304.691,293.031,303.587z M318.271,303.587c0-1.104-0.896-2-2-2h-8.43c-1.104,0-2,0.896-2,2
	s0.896,2,2,2h8.43C317.375,305.587,318.271,304.691,318.271,303.587z M339.526,372.069c0,13.256-10.746,24.002-24.002,24.002
	h-57.006c-13.256,0-24.002-10.746-24.002-24.002c0-13.257,10.746-24.003,24.002-24.003h57.006
	C328.78,348.066,339.526,358.813,339.526,372.069z M282.602,372.583c0-1.104-0.896-2-2-2h-22.828c-1.104,0-2,0.896-2,2s0.896,2,2,2
	h22.828C281.706,374.583,282.602,373.688,282.602,372.583z M318.271,372.583c0-1.104-0.896-2-2-2h-18.796c-1.104,0-2,0.896-2,2
	s0.896,2,2,2h18.796C317.375,374.583,318.271,373.688,318.271,372.583z"></path>
<path id="color_x5F_1" fill="#0984E3" d="M365.021,214.605c0.086-1.157,0.095-2.325,0-3.347v-59.182h-156v272h156V257.965
	c0.904,2.518,1.692,4.479,2.226,5.548c2.339,4.703,7.237,7.26,12.101,6.807v0.836c-2.981,0.652-10.486-1.217-10.406,0.726
	c0.105,2.565,8.374,0.685,8.111,2.669c-0.013,0.107-0.072,0.195-0.141,0.273c-0.013,0.012-0.009,0.028-0.021,0.039
	c-1.363,1.312-10.576-1.246-10.394,1.273c0.199,2.682,9.801,0.102,9.788,2.101c-0.011,2.007-8.798-0.334-8.689,2.109
	c0.114,2.724,10.485-0.196,10.386,1.076c-0.162,2.13-7.291,0.344-7.324,2.479c-0.022,1.26,3.801,1.281,7.939,0.688
	c0.251-0.036,0.501-0.082,0.751-0.123v165.267c0,1.135-0.274,2.204-0.751,3.154c-0.246,0.262-0.426,0.558-0.53,0.893
	c-1.277,1.817-3.385,3.008-5.773,3.008h-154.49H201.75c-3.896,0-7.055-3.158-7.055-7.055v-8.558v-48.047v-4.165V145.194
	c0-3.896,3.158-7.054,7.055-7.054h170.543c3.896,0,7.055,3.157,7.055,7.054v92.898c-3.17-4.203-6.869-8.693-10.43-12.302
	c-0.126,0.052-0.256,0.097-0.383,0.147l-3.514-4.726V214.605z M316.271,229.59h-26.281c-1.104,0-2,0.896-2,2s0.896,2,2,2h26.281
	c1.104,0,2-0.896,2-2S317.375,229.59,316.271,229.59z M257.773,233.59h15.27c1.104,0,2-0.896,2-2s-0.896-2-2-2h-15.27
	c-1.104,0-2,0.896-2,2S256.669,233.59,257.773,233.59z M316.271,301.587h-8.43c-1.104,0-2,0.896-2,2s0.896,2,2,2h8.43
	c1.104,0,2-0.896,2-2S317.375,301.587,316.271,301.587z M293.031,303.587c0-1.104-0.896-2-2-2h-33.258c-1.104,0-2,0.896-2,2
	s0.896,2,2,2h33.258C292.136,305.587,293.031,304.691,293.031,303.587z M316.271,370.583h-18.796c-1.104,0-2,0.896-2,2s0.896,2,2,2
	h18.796c1.104,0,2-0.896,2-2S317.375,370.583,316.271,370.583z M257.773,370.583c-1.104,0-2,0.896-2,2s0.896,2,2,2h22.828
	c1.104,0,2-0.896,2-2s-0.896-2-2-2H257.773z"></path>
</svg>