<?xml version="1.0" standalone="no"?>
<svg version="1.1" id="Layer_1" xmlns="http://www.w3.org/2000/svg" xmlns:xlink="http://www.w3.org/1999/xlink" x="0px" y="0px" width="600px" height="600px" viewBox="-2.36 120.945 600 600" enable-background="new -2.36 120.945 600 600" xml:space="preserve">
<path id="color_x5F_7" fill="#FAFAFA" d="M352.582,324.07c17.377,0,31.464-14.087,31.464-31.464
	c0-17.377-14.087-31.464-31.464-31.464c-11.466,0-21.496,6.135-26.996,15.3c-0.158,0.263-0.309,0.53-0.458,0.797
	c-2.55,4.545-4.01,9.784-4.01,15.367C321.118,309.984,335.205,324.07,352.582,324.07z M338.958,307.032l-3.265,3.265
	c-0.392,0.391-1.023,0.391-1.414,0c-0.392-0.391-0.392-1.024,0-1.414l3.265-3.265c0.391-0.391,1.023-0.391,1.414,0
	C339.349,306.008,339.348,306.641,338.958,307.032z M357.866,313.104h-10.568c-0.428,0-0.778-0.35-0.778-0.778
	c0-0.428,0.351-0.778,0.778-0.778h10.568c0.428,0,0.778,0.35,0.778,0.778C358.645,312.753,358.294,313.104,357.866,313.104z
	 M357.866,311.079h-10.568c-0.428,0-0.778-0.35-0.778-0.778s0.351-0.778,0.778-0.778h10.568c0.428,0,0.778,0.35,0.778,0.778
	S358.294,311.079,357.866,311.079z M357.866,309.056h-10.568c-0.428,0-0.778-0.35-0.778-0.778c0-0.428,0.351-0.778,0.778-0.778
	h10.568c0.428,0,0.778,0.35,0.778,0.778C358.645,308.706,358.294,309.056,357.866,309.056z M370.885,310.297
	c-0.391,0.391-1.023,0.391-1.414,0l-3.265-3.265c-0.391-0.391-0.391-1.023,0-1.414s1.024-0.391,1.414,0l3.265,3.265
	C371.276,309.273,371.276,309.906,370.885,310.297z M372.85,290.994h4.616c0.553,0,1,0.447,1,1s-0.447,1-1,1h-4.616
	c-0.553,0-1-0.447-1-1S372.296,290.994,372.85,290.994z M366.205,276.956l3.265-3.265c0.391-0.391,1.023-0.391,1.414,0
	c0.392,0.391,0.392,1.024,0,1.414l-3.265,3.265c-0.391,0.391-1.023,0.391-1.414,0C365.816,277.979,365.816,277.346,366.205,276.956z
	 M366.008,292.209c0,4.888-2.621,9.153-6.525,11.502c0.004,0.066,0.02,0.129,0.02,0.196c0,1.654-1.353,3.008-3.008,3.008h-7.826
	c-1.654,0-3.008-1.353-3.008-3.008c0-0.067,0.016-0.13,0.02-0.196c-3.904-2.348-6.525-6.613-6.525-11.502
	c0-7.415,6.011-13.426,13.426-13.426C359.997,278.783,366.008,284.794,366.008,292.209z M351.582,267.11c0-0.552,0.447-1,1-1
	s1,0.448,1,1v4.617c0,0.552-0.447,1-1,1s-1-0.448-1-1V267.11z M334.28,273.691c0.391-0.391,1.023-0.391,1.414,0l3.265,3.265
	c0.391,0.391,0.391,1.023,0,1.414s-1.024,0.391-1.414,0l-3.265-3.265C333.888,274.715,333.888,274.082,334.28,273.691z
	 M327.698,290.994h4.616c0.553,0,1,0.447,1,1s-0.447,1-1,1h-4.616c-0.553,0-1-0.447-1-1S327.145,290.994,327.698,290.994z"></path>
<path id="color_x5F_6" fill="#3E2723" d="M386.256,408.727c-0.794,0.851-1.488,1.666-2.136,2.466
	c-1.813-0.836-3.729-1.46-5.491-2.405c-7.768-4.169-10.688-15.367-5.945-22.799c2.412-3.782,6.534-6.889,6.806-11.367
	c0.254-4.199-3.008-7.651-5.08-11.313c-3.069-5.425-3.611-12.213-1.443-18.057c4.967-13.387,24.098-20.152,37.1-16.511
	c7.989,2.237,14.921,7.999,18.58,15.445c3.735,7.601,4.127,16.609,8.464,23.884c1.932,3.24,4.572,6,6.637,9.156
	c2.063,3.156,3.563,6.969,2.795,10.661c-0.6,2.877-2.523,5.422-2.696,8.356c-0.258,4.379,3.336,7.898,5.229,11.855
	c4.174,8.717-0.636,19.681-8.613,25.162c-1.247-0.489-2.602-0.768-4.022-0.768h-6.653c0.076-0.283,0.151-0.557,0.228-0.848
	c2.434-9.349,5.688-20.594,2.971-29.863c-1.314-4.485-3.878-9.018-8.211-10.771c-1.013-0.41-2.072-0.635-3.151-0.743
	c-1.703-0.17-3.454-0.018-5.166,0.28l-0.953-14.141l-0.141,0.015c0.232-1.071,0.362-2.18,0.362-3.32l-2.9-2.308
	c-5.291-1.096-10.38-3.189-15.001-6.325c-5.28-3.583-10.153-8.315-12.93-13.901l2.425,26.905c0,6.215,5.072,11.237,8.828,11.237
	h3.969c0.74,0,1.462-0.069,2.174-0.169l0.513,7.593c-2.767,1.609-5.527,3.431-8.067,5.299
	C391.348,403.925,388.345,406.491,386.256,408.727z M184.723,337.585c-1.158-0.602-1.958-1.812-1.958-3.202v-2.516
	c0-1.984,1.623-3.607,3.607-3.607s3.607,1.623,3.607,3.607v1.426h2.009l2.34-11.847l2.952-1.518l0.995-5.675h15.883v11.966
	c0.091-0.107,0.187-0.21,0.277-0.317c4.402-1.21,8.252-4.406,10.641-8.553c0.273-1.072,0.423-2.177,0.385-3.303
	c-0.109-3.305-2.211-6.202-2.848-9.437c-0.255-1.297-0.31-2.63-0.569-3.927c-0.53-2.654,0.112-1.696-1.674-1.549
	c-3.179,0.262-5.517,1.313-8.816,0.041c-2.808-1.082-4.36-3.834-6.885-5.031c-2.533-1.202-5.906,1.652-8.328,2.743
	c-2.159,0.972-7.097,1.368-10.187,2.798c-2.235,2.862-3.421,6.586-3.241,10.672c-2.449,1.05-4.083,3.684-4.695,6.444
	c-0.611,2.76-0.348,5.653,0.059,8.456c1.108,7.668,3.254,15.16,6.332,22.177l0.538-6.38
	C184.879,339.938,184.723,338.78,184.723,337.585z"></path>
<path id="color_x5F_5" fill="#FFD2BB" d="M150.614,614.883l1.864-2.619l1.969-2.763l9.835,8.447l-1.793,1.78l-3.814-0.14
	c-1.313-0.049-2.579-0.505-3.623-1.304L150.614,614.883z M190.161,638.223c1.312-0.073,2.57-0.552,3.597-1.372l2.984-2.378
	l0.2-2.519h-12.964l0.598,6.58L190.161,638.223z M197.736,365.388l2.095,0.177l0.688-8.149l0.415-4.928h2.483
	c5.934,0,10.743-4.81,10.743-10.743v-15.526v-11.966h-15.883l-0.995,5.675l-2.952,1.518l-2.34,11.847h-2.009v-1.426
	c0-1.984-1.623-3.607-3.607-3.607s-3.607,1.623-3.607,3.607v2.516c0,1.39,0.799,2.6,1.958,3.202c0,1.196,0.156,2.353,0.423,3.467
	l-0.538,6.38l-0.472,5.589l-0.148,1.772C189.233,357.275,193.712,361.086,197.736,365.388z M222.204,407.488
	c0.483,6.329-1.259,12.986-2.869,19.274c15.061-1.357,29.941-4.75,44.147-9.95c2.681,3.322,6.436,3.366,10.58,2.935
	c1.836,0.732,3.534,1.8,5.185,2.924c0.371,0.253,0.89-0.308,0.573-0.699c-1.202-1.486-2.854-2.903-4.685-3.892
	c0.055-0.098,0.105-0.196,0.157-0.294c0.101,0.037,0.203,0.07,0.303,0.11c1.836,0.731,3.534,1.8,5.184,2.924
	c0.371,0.253,0.891-0.309,0.574-0.699c-1.347-1.664-3.253-3.24-5.346-4.225c0.001-0.005,0.002-0.009,0.003-0.013
	c0.232,0.075,0.463,0.156,0.691,0.247c1.836,0.732,3.533,1.8,5.184,2.924c0.371,0.253,0.89-0.308,0.574-0.698
	c-1.551-1.917-3.845-3.722-6.312-4.634c-0.012-0.129-0.029-0.261-0.049-0.394c0.033,0.013,0.067,0.022,0.1,0.036
	c1.837,0.731,3.534,1.8,5.185,2.924c0.371,0.253,0.89-0.308,0.574-0.699c-2.065-2.551-5.442-4.897-8.796-5.21
	c-2.862-0.976-5.897-1.412-8.951-1.27c0.001-0.013,0.002-0.024,0.002-0.036c-4.976-0.432-10.957-0.681-17.263-0.87l8.425-15.503
	c1.694-2.879,2.813-6.039,3.32-9.304c0.158-0.384,0.284-0.785,0.394-1.193c0.854-3.185,0.284-6.993-0.969-9.895
	c-0.216-0.501-1.017-0.286-0.961,0.199c0.249,2.153,0.421,4.325,0.198,6.46c-0.004,0.038-0.011,0.076-0.016,0.114
	c-0.118-0.085-0.236-0.169-0.354-0.246c0.367-2.832-0.213-5.948-1.272-8.406c-0.216-0.502-1.018-0.286-0.961,0.199
	c0.249,2.153,0.42,4.325,0.197,6.46c-0.027,0.265-0.066,0.528-0.111,0.789c-0.004-0.001-0.009-0.002-0.014-0.003
	c0.108-2.509-0.445-5.138-1.366-7.272c-0.217-0.502-1.018-0.286-0.961,0.199c0.249,2.153,0.42,4.325,0.197,6.46
	c-0.012,0.117-0.031,0.231-0.047,0.347c-0.119-0.001-0.239,0-0.36,0.003c-0.027-2.259-0.559-4.561-1.382-6.468
	c-0.216-0.502-1.017-0.286-0.961,0.199c0.249,2.153,0.42,4.325,0.198,6.46c-0.978,1.472-1.854,2.924-2.453,4.4
	c-0.946,2.332-1.194,4.725-0.018,7.356l-17.628,14.942l-3.702,3.138C224.94,407.593,223.555,407.544,222.204,407.488z
	 M348.527,477.838c0.753-0.336,1.368-0.888,1.798-1.562c1.679-0.428,3.375-0.767,5.088-0.864c3.517,1.599,6.87,2.766,10.204,1.725
	c1.283-0.401,2.28-1.4,2.693-2.663c4.296-0.316,8.317-0.486,12.143-0.597c3.739-0.107,7.303-0.168,10.749-0.266
	c-0.664-3.982-0.551-8.129-0.125-12.067c-6.42,1.748-13.061,3.619-18.589,4.87c-0.335-2.348-0.478-4.722-0.499-7.038
	c-5.126,2.065-10.396,4.233-15.094,5.99c-2.479,0.072-5.05,0.851-7.206,1.974c-2.754-0.502-5.558-0.585-8.318-0.242
	c-0.572-0.065-1.156-0.064-1.743-0.032l2.624,11.311C344.442,478.761,346.537,478.725,348.527,477.838z M352.006,521.919
	l-5.408-3.442l-0.137,0.137l-0.194,0.194l-5.4,29.67l-0.181,0.989l-8.763,48.141l-1.812,9.956l-8.252,9.792l-0.578,0.688
	l-3.729,4.425l4.547,2.7l12.902-3.287l3.905-8.773l-0.674-2.223l4.356-10.595l15.735-38.272c0.701-1.705,1.328-3.347,1.896-4.959
	l15.905,46.134l0.235,0.683l2.326,6.747l3.298,9.567l-3.646,19.146l5.287,0.126l9.638-9.188l-0.895-9.561l0,0l0,0l-1.676-1.608
	l-1.395-11.37l-1.128-9.202l-0.093-0.758l-3.814-31.114c-0.783-6.385-2.423-12.616-4.858-18.531
	c-1.105-2.684-2.391-5.294-3.818-7.833c-4.624-0.027-8.835-0.216-12.312-0.448C362.514,532.578,358.321,525.938,352.006,521.919z
	 M415.363,376.421c0.232-1.071,0.362-2.18,0.362-3.32l-2.9-2.308c-5.291-1.096-10.38-3.189-15.001-6.325
	c-5.28-3.583-10.153-8.315-12.93-13.901l2.425,26.905c0,6.215,5.072,11.237,8.828,11.237h3.969c0.74,0,1.462-0.069,2.174-0.169
	l0.513,7.593l0.423,6.273l1.755-0.186c3.37-4.505,7.123-8.497,11.516-11.097l-0.039-0.579l-0.952-14.141L415.363,376.421z"></path>
<path id="color_x5F_4_1_" fill="#2D383E" d="M138.468,621.218c0.131-0.124,0.274-0.246,0.411-0.369
	c1.517-1.359,3.367-2.63,5.109-3.695c1.384-0.845,2.688-1.558,3.693-2.081c1.162-0.604,1.927-0.957,1.927-0.957l1.004,0.77
	l4.438,3.401c1.043,0.801,2.31,1.255,3.623,1.304l3.814,0.14l1.02,0.037l-0.563,6.433c-0.27,3.386,1.998,6.728,4.09,9.402
	l4.035,5.159c1.742,2.229,2.359,5.138,1.671,7.882l-0.487,1.941c-0.164,0.651-0.956,0.903-1.467,0.466l-14.446-12.408l-4.594-3.946
	l-2.426-2.083l-4.072-3.497l-2.512-2.155l-2.355-2.024l-1.877-1.612c-0.225-0.191-0.366-0.438-0.437-0.7
	C137.94,622.137,138.07,621.594,138.468,621.218z M223.361,649.726c-1.266-2.531-3.629-4.336-6.403-4.891l-6.422-1.284
	c-3.33-0.666-7.228-1.725-9.229-4.467l-3.765-5.247l-0.798,0.636l-2.984,2.378c-1.027,0.819-2.284,1.299-3.597,1.372l-5.584,0.311
	l-1.262,0.07c0,0-3.248,7.086-3.824,12.648c-0.017,0.15,0,0.297,0.029,0.438h44.795c-0.016-0.058-0.032-0.117-0.06-0.174
	L223.361,649.726z M249.943,371.344c-0.056-0.485,0.745-0.701,0.961-0.199c0.823,1.907,1.354,4.209,1.381,6.468
	c0.122-0.003,0.242-0.004,0.361-0.003c0.016-0.116,0.035-0.231,0.047-0.347c0.222-2.135,0.051-4.306-0.198-6.46
	c-0.056-0.485,0.745-0.701,0.961-0.199c0.922,2.134,1.476,4.763,1.367,7.272c0.004,0.001,0.01,0.002,0.014,0.003
	c0.045-0.261,0.084-0.524,0.111-0.789c0.223-2.135,0.052-4.306-0.197-6.46c-0.057-0.485,0.744-0.701,0.961-0.199
	c1.061,2.458,1.64,5.574,1.272,8.406c0.118,0.077,0.236,0.161,0.354,0.246c0.004-0.038,0.012-0.076,0.016-0.114
	c0.222-2.135,0.051-4.306-0.198-6.46c-0.056-0.485,0.745-0.701,0.961-0.199c1.252,2.9,1.822,6.709,0.969,9.894h6.77h1.163
	l6.691-41.463h-1.163h-26.954l-6.691,41.463h8.785c0.599-1.476,1.474-2.928,2.453-4.4
	C250.362,375.668,250.191,373.497,249.943,371.344z M515.936,655.252c0,1.968-1.596,3.562-3.563,3.562H61.715
	c-1.968,0-3.563-1.595-3.563-3.562s1.595-3.563,3.563-3.563h19.897h5.757h3.489h2.574h3.201h1.129h3.152h7.184h3.049h5.906h3.159
	h4.67h3.339h5.19h3.282h9.064h33.76h44.796h26.751v-37.577v-0.683v-65.141v-0.941v-54.528c0-0.895,0.072-1.723,0.189-2.441h-14.533
	v-4.767h39.872l-9.901-42.679h1.889h63.559l9.901,42.679h31.958h4.054h29.484v4.767h-30.59h-65.682
	c0.103,0.681,0.165,1.448,0.165,2.277v61.929v0.895v62.838v0.609v9.11v4.391v19.263h47.567c0.13-5.883,4.93-10.614,10.845-10.614
	h7.919l-2.212,6.664l-4.224,4.781l11.248-2.582l6.223-8.863h6.453l1.84,5.532l1.81-0.415l-1.85-18.933l-0.013,0.019
	c-0.087-1.356-0.667-2.698-1.732-3.739v-28.671v-0.82v-45.919h-15.901c-1.105-2.684-2.39-5.294-3.818-7.833
	c8.589,0.05,18.614-0.465,28.071-2.342c2.12-0.421,4.151-1.035,6.091-1.806v-31.104v-12.226c0-0.895,0.072-1.723,0.189-2.441h2.288
	c0.117,0.719,0.188,1.547,0.188,2.441v11.813v30.324c3.893-1.942,7.331-4.569,10.183-7.707h11.633c5.766,0,10.44,4.674,10.44,10.439
	c0,5.767-4.675,10.44-10.44,10.44h-21.815v35.524v0.866v56.555h14.569h0.423c1.969,0,3.81,0.532,5.4,1.447
	c3.192,1.836,5.358,5.242,5.445,9.168h2.857h2.574h3.201h1.129h3.153h7.183h3.049h5.906h0.144v-0.66v-54.517V530.09v-1.267v-36.167
	c0-0.829,0.063-1.597,0.165-2.277h2.337c0.102,0.681,0.165,1.448,0.165,2.277v32.154v1.32v58.019v28.591v2.206v25.365v11.378h0.349
	h4.67h3.339h5.19h3.283h9.063h16.361C514.34,651.689,515.936,653.285,515.936,655.252z M401.947,641.074h7.803v-54.798v-0.865
	V548.13h-7.803v42.138v0.848V641.074z M253.733,651.689h55.033v-20.048v-2.435v-10.118v-0.603v-62.789v-0.857v-62.184
	c0-0.829,0.063-1.597,0.165-2.277h-55.387c0.116,0.719,0.188,1.547,0.188,2.441v55.431v0.941v64.859v0.655V651.689L253.733,651.689z
	 M429.785,432.492c-1.695,6.336-3.385,10.717-4.983,16.064c-0.746,3.102-1.479,6.259-2.182,9.556
	c-0.22,5.296,2.179,11.192,4.885,19.419h8.933c6.09,0,11.027-4.937,11.027-11.027v-22.985c0-4.669-2.906-8.651-7.005-10.26
	c-1.247-0.489-2.602-0.768-4.022-0.768L429.785,432.492L429.785,432.492z M244.431,340.74l-6.691,41.463h1.163l6.691-41.463H244.431
	z M342.043,485.611h31.958l-0.696-3h-30.069l-0.982-4.234l-2.624-11.312l-5.598-24.133h-1.889L342.043,485.611z M407.539,490.378
	h2.4h2.288h12.321h0.601h6.022h36.442h2.337h7.258v-4.767h-47.25h-22.42V490.378L407.539,490.378z"></path>
<path id="color_x5F_3" fill="#ff7e00" d="M154.447,609.501l-0.469-0.401l-0.684-0.587c4.293-9.171,11.25-20.927,19.227-31.44
	c0.146-0.193,0.294-0.384,0.44-0.575c4.138-5.405,8.538-10.455,12.979-14.632c4.248-25.773-11.79-53.83-13.25-81.042
	c-0.037-0.696-0.061-1.394-0.078-2.09c-0.047-1.841-0.027-3.677,0.08-5.508c14.651,5.264,40.124,0.815,47.601-8.416l-0.634,83.09
	c-0.495,9.944-4.986,19.271-12.463,25.848c-0.951,0.837-1.975,1.789-3.049,2.821c-1.099,6.07-1.991,12.139-2.729,18.225
	c-0.032,0.265-0.06,0.528-0.092,0.792c-1.43,11.997-2.304,24.068-3.119,36.368h-1.264H183.98h-1.519
	c-2.457-8.815-3.813-18.245-3.96-27.692c-5.171,5.805-9.874,11.057-13.261,14.51l-0.959-0.823L154.447,609.501z M374.001,501.658
	L346.38,518.43l0.082,0.184l0.137-0.137l5.408,3.442c6.315,4.02,10.508,10.658,11.27,17.93c3.476,0.232,7.687,0.421,12.312,0.448
	c8.59,0.05,18.614-0.465,28.071-2.342c2.12-0.421,4.151-1.035,6.091-1.806v-31.104C397.198,506.767,383.818,505.844,374.001,501.658
	z M431.318,498.824c-0.894,0.439-1.821,0.856-2.771,1.258l-3.396-9.704h-0.601l-0.806,11.493c-3.567,1.17-7.389,2.097-11.327,2.762
	v30.324c3.893-1.942,7.331-4.569,10.183-7.707C429.378,519.788,432.847,509.475,431.318,498.824z"></path>
<path id="color_x5F_2" fill="#ff7e00" d="M222.159,296.019c0.133,0.207,0.073,0.483-0.135,0.615c-0.999,0.64-1.989,1.292-2.97,1.957
	c-0.077,0.052-0.164,0.077-0.249,0.077c-0.144,0-0.283-0.069-0.369-0.196c-0.139-0.204-0.084-0.481,0.119-0.619
	c0.987-0.669,1.983-1.325,2.989-1.969C221.75,295.75,222.028,295.812,222.159,296.019z M174.576,345.525
	c-0.589,1.042-1.165,2.091-1.728,3.15c-0.115,0.217-0.032,0.487,0.185,0.603c0.066,0.036,0.138,0.052,0.209,0.052
	c0.16,0,0.313-0.086,0.394-0.236c0.56-1.052,1.131-2.094,1.716-3.13c0.121-0.214,0.047-0.486-0.168-0.607
	S174.697,345.312,174.576,345.525z M156.432,411.461c-0.026,1.146-0.041,2.292-0.041,3.443v0.141c0,0.246,0.199,0.446,0.446,0.446
	c0.246,0,0.445-0.199,0.445-0.446v-0.141c0-1.145,0.014-2.285,0.041-3.422c0.006-0.246-0.189-0.45-0.436-0.456
	C156.638,411.012,156.438,411.215,156.432,411.461z M158.776,391.479c-0.245-0.046-0.472,0.124-0.512,0.367
	c-0.193,1.177-0.372,2.359-0.536,3.545c-0.033,0.244,0.137,0.469,0.38,0.502c0.021,0.003,0.041,0.004,0.062,0.004
	c0.219,0,0.41-0.161,0.441-0.385c0.162-1.179,0.341-2.353,0.532-3.522C159.183,391.747,159.018,391.518,158.776,391.479z
	 M157.183,425.312c0.011,0,0.021,0,0.031-0.001c0.245-0.018,0.431-0.23,0.413-0.477c-0.082-1.182-0.15-2.367-0.204-3.557
	c-0.011-0.246-0.223-0.446-0.465-0.426c-0.246,0.012-0.437,0.22-0.425,0.466c0.053,1.196,0.122,2.39,0.205,3.579
	C156.755,425.132,156.951,425.312,157.183,425.312z M158.776,440.891c0.22,1.177,0.453,2.349,0.701,3.516
	c0.045,0.21,0.23,0.353,0.436,0.353c0.029,0,0.062-0.003,0.093-0.01c0.241-0.051,0.394-0.288,0.343-0.528
	c-0.247-1.159-0.479-2.324-0.695-3.494c-0.046-0.242-0.278-0.401-0.52-0.356C158.891,440.415,158.732,440.649,158.776,440.891z
	 M157.165,405.671c0.231,0,0.428-0.18,0.443-0.416c0.081-1.188,0.177-2.371,0.286-3.551c0.023-0.245-0.156-0.462-0.401-0.485
	c-0.242-0.022-0.462,0.157-0.485,0.403c-0.11,1.187-0.207,2.378-0.288,3.574c-0.017,0.245,0.169,0.458,0.415,0.475
	C157.144,405.671,157.155,405.671,157.165,405.671z M158.208,435.083c0.021,0,0.041-0.002,0.062-0.004
	c0.244-0.034,0.414-0.259,0.379-0.503c-0.163-1.173-0.314-2.351-0.449-3.534c-0.028-0.244-0.249-0.422-0.493-0.391
	c-0.245,0.027-0.42,0.249-0.393,0.493c0.138,1.189,0.288,2.375,0.453,3.556C157.799,434.922,157.99,435.083,158.208,435.083z
	 M177.927,340.742c0.074,0.046,0.155,0.068,0.236,0.068c0.147,0,0.294-0.074,0.378-0.209c0.631-1.009,1.274-2.009,1.93-3.001
	c0.137-0.205,0.08-0.482-0.126-0.617c-0.205-0.137-0.481-0.08-0.617,0.126c-0.659,0.999-1.307,2.005-1.941,3.02
	C177.656,340.335,177.719,340.61,177.927,340.742z M386.717,306.43c0.084,0.068,0.184,0.101,0.283,0.101
	c0.129,0,0.256-0.055,0.346-0.163c0.155-0.19,0.129-0.471-0.063-0.627c-0.923-0.759-1.857-1.507-2.799-2.242
	c-0.195-0.151-0.475-0.118-0.626,0.077c-0.151,0.194-0.117,0.474,0.077,0.625C384.872,304.933,385.798,305.676,386.717,306.43z
	 M325.485,276.4c-1.169-0.234-2.344-0.453-3.524-0.658c-0.237-0.043-0.474,0.121-0.515,0.363c-0.043,0.242,0.12,0.473,0.363,0.515
	c1.111,0.193,2.217,0.401,3.319,0.62c0.149-0.268,0.301-0.535,0.458-0.797C325.553,276.426,325.522,276.407,325.485,276.4z
	 M312.196,274.396c-0.239-0.018-0.463,0.152-0.487,0.398c-0.025,0.245,0.151,0.463,0.397,0.489c1.184,0.121,2.363,0.257,3.539,0.408
	c0.02,0.002,0.038,0.003,0.058,0.003c0.22,0,0.411-0.164,0.44-0.389c0.031-0.244-0.141-0.467-0.385-0.499
	C314.575,274.655,313.388,274.519,312.196,274.396z M398.509,316.664c-0.178,0.171-0.183,0.453-0.011,0.63
	c0.826,0.853,1.641,1.717,2.446,2.59c0.088,0.095,0.207,0.144,0.327,0.144c0.107,0,0.217-0.039,0.302-0.118
	c0.181-0.167,0.192-0.449,0.025-0.63c-0.81-0.878-1.629-1.747-2.46-2.606C398.968,316.499,398.686,316.493,398.509,316.664z
	 M405.115,323.935c-0.188,0.158-0.212,0.44-0.054,0.628c0.765,0.907,1.518,1.824,2.258,2.751c0.088,0.11,0.218,0.168,0.348,0.168
	c0.099,0,0.196-0.032,0.279-0.097c0.191-0.154,0.225-0.434,0.07-0.626c-0.746-0.933-1.504-1.857-2.272-2.77
	C405.583,323.799,405.303,323.776,405.115,323.935z M391.411,309.866c-0.164,0.183-0.149,0.465,0.034,0.629
	c0.883,0.794,1.756,1.6,2.619,2.415c0.086,0.081,0.197,0.122,0.306,0.122c0.118,0,0.236-0.047,0.324-0.14
	c0.169-0.179,0.161-0.461-0.017-0.63c-0.868-0.82-1.748-1.631-2.638-2.43C391.861,309.669,391.576,309.684,391.411,309.866z
	 M302.365,273.733c-0.005,0-0.011,0-0.016,0c-0.238,0-0.438,0.19-0.444,0.431c-0.009,0.246,0.185,0.452,0.431,0.46
	c1.189,0.039,2.377,0.093,3.559,0.161c0.01,0,0.019,0.001,0.026,0.001c0.235,0,0.431-0.183,0.444-0.42
	c0.015-0.245-0.172-0.456-0.417-0.47C304.755,273.826,303.561,273.772,302.365,273.733z M292.51,273.747
	c-0.246,0.009-0.438,0.215-0.43,0.461c0.008,0.241,0.206,0.43,0.444,0.43c0.007,0,0.012,0,0.017,0
	c1.183-0.042,2.369-0.07,3.559-0.083c0.246-0.003,0.443-0.205,0.441-0.45c-0.003-0.246-0.192-0.404-0.45-0.441
	C294.893,273.677,293.7,273.705,292.51,273.747z M247.886,282.668c-1.12,0.422-2.233,0.857-3.339,1.306
	c-0.229,0.093-0.339,0.353-0.245,0.58c0.07,0.173,0.236,0.278,0.413,0.278c0.056,0,0.112-0.01,0.167-0.033
	c1.099-0.446,2.205-0.879,3.317-1.298c0.23-0.087,0.348-0.343,0.261-0.574C248.372,282.698,248.116,282.582,247.886,282.668z
	 M257.228,279.522c-1.146,0.341-2.288,0.698-3.423,1.068c-0.234,0.076-0.362,0.328-0.285,0.562c0.062,0.188,0.236,0.307,0.424,0.307
	c0.046,0,0.092-0.007,0.139-0.022c1.127-0.368,2.261-0.721,3.399-1.061c0.236-0.07,0.37-0.318,0.3-0.554
	C257.711,279.586,257.463,279.451,257.228,279.522z M238.802,286.456c-1.084,0.498-2.161,1.008-3.23,1.532
	c-0.221,0.108-0.312,0.376-0.204,0.596c0.078,0.158,0.236,0.249,0.401,0.249c0.065,0,0.133-0.014,0.196-0.045
	c1.062-0.521,2.132-1.028,3.209-1.522c0.224-0.103,0.321-0.367,0.219-0.591C239.289,286.451,239.026,286.354,238.802,286.456z
	 M272.918,275.812c-0.242,0.043-0.404,0.274-0.361,0.516c0.038,0.216,0.226,0.368,0.438,0.368c0.025,0,0.052-0.002,0.077-0.007
	c1.167-0.206,2.34-0.398,3.517-0.574c0.244-0.036,0.411-0.264,0.375-0.507c-0.037-0.243-0.259-0.406-0.507-0.375
	C275.271,275.412,274.092,275.605,272.918,275.812z M282.678,274.439c-0.245,0.026-0.422,0.245-0.396,0.49
	c0.023,0.229,0.217,0.399,0.441,0.399c0.016,0,0.031-0.001,0.047-0.003c1.179-0.124,2.36-0.233,3.548-0.328
	c0.245-0.02,0.429-0.234,0.409-0.48c-0.02-0.245-0.229-0.427-0.479-0.409C285.053,274.204,283.863,274.314,282.678,274.439z
	 M266.767,277.04c-1.168,0.26-2.332,0.535-3.489,0.825c-0.238,0.06-0.384,0.302-0.323,0.54c0.051,0.203,0.231,0.338,0.432,0.338
	c0.036,0,0.072-0.004,0.107-0.013c1.15-0.287,2.307-0.56,3.468-0.82c0.239-0.054,0.391-0.292,0.338-0.532
	C267.245,277.137,267.008,276.986,266.767,277.04z M230.011,290.868c-1.047,0.573-2.086,1.157-3.117,1.755
	c-0.213,0.124-0.286,0.396-0.162,0.609c0.083,0.142,0.231,0.222,0.386,0.222c0.076,0,0.153-0.019,0.224-0.06
	c1.023-0.594,2.057-1.175,3.097-1.744c0.216-0.118,0.295-0.389,0.177-0.604C230.497,290.829,230.226,290.749,230.011,290.868z
	 M232.947,539.496c-0.219-0.114-0.488-0.03-0.601,0.189c-0.114,0.219-0.029,0.487,0.188,0.601c1.063,0.552,2.132,1.092,3.208,1.619
	c0.063,0.029,0.13,0.045,0.195,0.045c0.165,0,0.323-0.093,0.401-0.25c0.107-0.222,0.017-0.488-0.204-0.597
	C235.064,540.581,234.001,540.045,232.947,539.496z M283.035,554.511c-1.185-0.123-2.363-0.259-3.539-0.411
	c-0.239-0.029-0.468,0.143-0.499,0.386s0.141,0.468,0.385,0.499c1.183,0.151,2.37,0.291,3.562,0.413
	c0.017,0.002,0.031,0.003,0.047,0.003c0.225,0,0.419-0.172,0.442-0.399C283.458,554.754,283.28,554.536,283.035,554.511z
	 M322.223,554.021c0.243-0.043,0.405-0.273,0.362-0.516c-0.042-0.244-0.287-0.411-0.516-0.362c-1.168,0.205-2.34,0.396-3.516,0.571
	c-0.244,0.036-0.412,0.264-0.375,0.506c0.032,0.223,0.223,0.38,0.439,0.38c0.021,0,0.044-0.002,0.065-0.005
	C319.869,554.42,321.048,554.227,322.223,554.021z M328.28,552.81c0.03,0,0.063-0.003,0.097-0.01
	c1.169-0.259,2.332-0.533,3.49-0.821c0.237-0.059,0.384-0.301,0.324-0.539c-0.06-0.239-0.301-0.385-0.54-0.325
	c-1.149,0.286-2.306,0.559-3.468,0.815c-0.239,0.054-0.392,0.291-0.339,0.532C327.89,552.67,328.075,552.81,328.28,552.81z
	 M312.858,554.895c-0.024-0.244-0.25-0.427-0.488-0.396c-0.312,0.032-0.625,0.055-0.937,0.086v0.895
	c0.342-0.033,0.688-0.059,1.029-0.095C312.706,555.359,312.884,555.14,312.858,554.895z M337.365,550.028
	c0.057,0.192,0.234,0.317,0.427,0.317c0.042,0,0.084-0.006,0.127-0.018c0.928-0.275,1.849-0.567,2.768-0.861l0.181-0.989
	c-1.063,0.345-2.129,0.678-3.202,0.996C337.428,549.544,337.294,549.791,337.365,550.028z M308.412,555.303
	c0.016,0.202,0.166,0.354,0.354,0.395v-0.857C308.551,554.885,308.394,555.077,308.412,555.303z M292.791,556.071
	c0.239,0,0.437-0.19,0.445-0.432c0.008-0.245-0.185-0.451-0.431-0.46c-1.189-0.04-2.376-0.095-3.559-0.164
	c-0.239-0.021-0.456,0.174-0.472,0.419c-0.014,0.245,0.174,0.457,0.42,0.472c1.189,0.069,2.383,0.126,3.58,0.166
	C292.781,556.071,292.786,556.071,292.791,556.071z M169.948,356.583c0.292-0.638,0.579-1.279,0.88-1.913
	c0.105-0.222,0.011-0.488-0.211-0.594c-0.224-0.104-0.488-0.011-0.594,0.211c-0.513,1.077-1.012,2.161-1.497,3.252
	c0.034-0.026,0.064-0.054,0.1-0.079C169.058,357.149,169.5,356.859,169.948,356.583z M299.044,556.146c0.002,0,0.003,0,0.004,0
	c1.197-0.013,2.391-0.038,3.581-0.079c0.245-0.01,0.438-0.216,0.43-0.461c-0.01-0.245-0.219-0.433-0.461-0.431
	c-1.182,0.041-2.368,0.067-3.558,0.079c-0.246,0.003-0.444,0.204-0.441,0.45C298.601,555.949,298.8,556.146,299.044,556.146z
	 M273.334,553.165c-1.172-0.205-2.339-0.425-3.501-0.658c-0.241-0.05-0.477,0.108-0.525,0.35c-0.049,0.24,0.108,0.476,0.349,0.524
	c1.171,0.235,2.345,0.456,3.524,0.661c0.026,0.005,0.052,0.007,0.077,0.007c0.212,0,0.4-0.151,0.438-0.369
	C273.738,553.439,273.576,553.207,273.334,553.165z M263.749,551.143c-1.154-0.285-2.304-0.586-3.446-0.9
	c-0.237-0.063-0.483,0.074-0.548,0.312c-0.065,0.238,0.073,0.483,0.311,0.548c1.151,0.317,2.308,0.619,3.469,0.907
	c0.036,0.009,0.072,0.014,0.107,0.014c0.2,0,0.382-0.137,0.432-0.339C264.134,551.444,263.988,551.202,263.749,551.143z
	 M224.407,534.666c-0.21-0.129-0.485-0.063-0.613,0.147c-0.129,0.21-0.063,0.484,0.147,0.613c1.021,0.625,2.049,1.237,3.086,1.837
	c0.07,0.041,0.147,0.061,0.223,0.061c0.154,0,0.305-0.08,0.387-0.224c0.124-0.212,0.05-0.485-0.162-0.607
	C226.444,535.896,225.421,535.287,224.407,534.666z M244.767,545.924c0.055,0.022,0.111,0.032,0.167,0.032
	c0.176,0,0.343-0.105,0.413-0.278c0.092-0.228-0.019-0.488-0.246-0.58c-1.106-0.445-2.205-0.906-3.296-1.38
	c-0.225-0.098-0.487,0.006-0.586,0.231c-0.098,0.226,0.006,0.487,0.231,0.587C242.549,545.011,243.655,545.474,244.767,545.924z
	 M250.946,547.307c-0.232-0.084-0.485,0.04-0.568,0.271c-0.082,0.231,0.04,0.487,0.271,0.568c0.139,0.05,0.279,0.094,0.418,0.142
	v-0.941C251.027,547.334,250.986,547.321,250.946,547.307z M254.195,549.322c0.188,0,0.363-0.12,0.424-0.309
	c0.076-0.233-0.052-0.485-0.285-0.561c-0.201-0.065-0.398-0.137-0.6-0.203v0.941c0.108,0.034,0.215,0.073,0.324,0.108
	C254.103,549.315,254.149,549.322,254.195,549.322z M169.014,472.716c0.061,0,0.122-0.013,0.182-0.038
	c0.225-0.102,0.325-0.365,0.225-0.589c-0.482-1.08-0.951-2.167-1.407-3.262c-0.094-0.228-0.354-0.332-0.583-0.239
	c-0.227,0.095-0.335,0.355-0.239,0.583c0.458,1.101,0.93,2.194,1.414,3.28C168.681,472.617,168.844,472.716,169.014,472.716z
	 M165.334,463.635c0.051,0,0.102-0.01,0.153-0.027c0.23-0.084,0.35-0.34,0.266-0.572c-0.407-1.114-0.8-2.233-1.179-3.361
	c-0.078-0.233-0.33-0.358-0.564-0.28c-0.232,0.078-0.358,0.331-0.281,0.563c0.383,1.136,0.777,2.264,1.187,3.385
	C164.981,463.522,165.153,463.635,165.334,463.635z M172.083,477.709c-0.11-0.221-0.377-0.309-0.598-0.198s-0.31,0.379-0.198,0.598
	c0.457,0.912,0.928,1.815,1.404,2.715c-0.037-0.696-0.061-1.394-0.078-2.09C172.437,478.392,172.255,478.054,172.083,477.709z
	 M160.738,381.851c-0.238-0.059-0.48,0.091-0.536,0.331c-0.275,1.161-0.536,2.327-0.783,3.499c-0.05,0.241,0.104,0.477,0.344,0.528
	c0.031,0.006,0.063,0.01,0.092,0.01c0.206,0,0.393-0.144,0.437-0.354c0.107-0.513,0.229-1.021,0.343-1.531
	c0.044-0.816,0.091-1.638,0.141-2.465C160.76,381.863,160.751,381.854,160.738,381.851z M162.291,454.292
	c0.041,0,0.082-0.005,0.124-0.017c0.236-0.068,0.373-0.315,0.305-0.551c-0.327-1.141-0.64-2.286-0.939-3.438
	c-0.063-0.238-0.306-0.379-0.543-0.318c-0.238,0.063-0.382,0.305-0.319,0.544c0.301,1.157,0.616,2.311,0.946,3.458
	C161.919,454.165,162.097,454.292,162.291,454.292z M339.156,292.209c0,4.888,2.621,9.153,6.525,11.502
	c-0.004,0.066-0.02,0.129-0.02,0.196c0,1.654,1.353,3.008,3.008,3.008h7.826c1.654,0,3.008-1.353,3.008-3.008
	c0-0.067-0.016-0.13-0.02-0.196c3.904-2.348,6.525-6.613,6.525-11.502c0-7.415-6.011-13.426-13.426-13.426
	C345.166,278.783,339.156,284.794,339.156,292.209z M357.866,307.499h-10.568c-0.428,0-0.778,0.35-0.778,0.778
	c0,0.428,0.351,0.778,0.778,0.778h10.568c0.428,0,0.778-0.35,0.778-0.778C358.645,307.849,358.294,307.499,357.866,307.499z
	 M357.866,309.523h-10.568c-0.428,0-0.778,0.35-0.778,0.778s0.351,0.778,0.778,0.778h10.568c0.428,0,0.778-0.35,0.778-0.778
	S358.294,309.523,357.866,309.523z M357.866,311.546h-10.568c-0.428,0-0.778,0.35-0.778,0.778c0,0.428,0.351,0.778,0.778,0.778
	h10.568c0.428,0,0.778-0.35,0.778-0.778C358.645,311.896,358.294,311.546,357.866,311.546z M352.582,272.727c0.553,0,1-0.448,1-1
	v-4.617c0-0.552-0.447-1-1-1s-1,0.448-1,1v4.617C351.582,272.279,352.03,272.727,352.582,272.727z M372.85,292.994h4.616
	c0.553,0,1-0.447,1-1s-0.447-1-1-1h-4.616c-0.553,0-1,0.447-1,1S372.296,292.994,372.85,292.994z M327.698,292.994h4.616
	c0.553,0,1-0.447,1-1s-0.447-1-1-1h-4.616c-0.553,0-1,0.447-1,1S327.145,292.994,327.698,292.994z M367.62,278.37l3.265-3.265
	c0.392-0.391,0.392-1.023,0-1.414c-0.391-0.391-1.023-0.391-1.414,0l-3.265,3.265c-0.391,0.391-0.391,1.023,0,1.414
	C366.596,278.761,367.23,278.761,367.62,278.37z M337.544,305.618l-3.265,3.265c-0.392,0.391-0.392,1.023,0,1.414
	c0.391,0.391,1.023,0.391,1.414,0l3.265-3.265c0.391-0.391,0.391-1.023,0-1.414S337.934,305.227,337.544,305.618z M367.62,305.618
	c-0.391-0.391-1.023-0.391-1.414,0s-0.391,1.024,0,1.414l3.265,3.265c0.391,0.391,1.023,0.391,1.414,0
	c0.392-0.391,0.392-1.024,0-1.414L367.62,305.618z M337.544,278.37c0.391,0.391,1.023,0.391,1.414,0s0.391-1.024,0-1.414
	l-3.265-3.265c-0.392-0.391-1.023-0.391-1.414,0c-0.392,0.391-0.392,1.024,0,1.414L337.544,278.37z"></path>
<path id="color_x5F_1" fill="#e3a909" d="M105.996,489.219c-9.42-23.821-14.36-49.446-14.36-75.834
	c0-38.43,10.465-75.247,30.023-107.219c0.196,0.135,0.399,0.262,0.611,0.379c-19.046,31.147-30.035,67.733-30.035,106.839
	c0,26.689,5.12,52.203,14.424,75.618C106.432,489.066,106.211,489.139,105.996,489.219z M297.64,207.982
	c80.363,0,150.084,46.398,183.812,113.807c0.216-0.105,0.441-0.199,0.675-0.285c-9.811-19.65-22.836-37.8-38.819-53.785
	c-38.909-38.909-90.642-60.337-145.667-60.337s-106.758,21.428-145.667,60.337c-7.67,7.67-14.649,15.844-20.93,24.438
	c0.198,0.139,0.388,0.286,0.568,0.442C168.998,241.352,229.49,207.982,297.64,207.982z M273.681,617.393
	c-6.755-0.788-13.408-1.912-19.948-3.342v0.655c6.547,1.414,13.184,2.521,19.895,3.296
	C273.639,617.798,273.656,617.596,273.681,617.393z M251.067,614.112v-0.683c-17.509-4.076-34.166-10.39-49.649-18.636
	c-0.032,0.265-0.06,0.528-0.092,0.792C217.01,603.898,233.705,610.12,251.067,614.112z M113.47,504.264
	c-0.203,0.127-0.416,0.243-0.636,0.351c9.846,19.901,22.979,38.278,39.139,54.438c6.504,6.504,13.371,12.513,20.548,18.021
	c0.146-0.193,0.294-0.384,0.44-0.575C148.008,557.376,127.546,532.674,113.47,504.264z M412.416,583.653v0.866
	c10.977-7.396,21.323-15.899,30.891-25.468c9.004-9.004,17.061-18.703,24.144-28.963v-1.267
	C452.742,550.389,434.044,569.028,412.416,583.653z M289.803,618.641c-0.003,0.196-0.01,0.392-0.023,0.588
	c2.612,0.097,5.231,0.162,7.86,0.162c3.727,0,7.435-0.107,11.127-0.302v-0.603c-3.685,0.198-7.393,0.304-11.127,0.304
	C295.016,618.79,292.405,618.738,289.803,618.641z M321.86,617.355c-3.45,0.407-6.927,0.728-10.427,0.961v0.609
	c3.299-0.218,6.581-0.513,9.849-0.883L321.86,617.355z M503.644,413.386c0-26.639-5.036-52.5-14.634-76.514
	c-0.206,0.105-0.419,0.201-0.64,0.288c9.458,23.581,14.673,49.305,14.673,76.226c0,41.043-12.107,79.308-32.927,111.424v1.32
	C491.928,492.909,503.644,454.051,503.644,413.386z M388.171,598.532c2.4-1.176,4.78-2.393,7.136-3.664v-0.821
	c-2.379,1.292-4.793,2.528-7.229,3.728L388.171,598.532z M409.749,585.41c-2.562,1.675-5.164,3.294-7.803,4.856v0.848
	c2.634-1.552,5.235-3.166,7.803-4.839V585.41z M86.943,650.878c-5.22-9.962-10.418-19.935-15.952-29.721
	c-0.479,2.687-0.663,5.403-0.594,8.111c2.156,4.339,4.794,8.479,6.863,12.841c1.504,3.169,2.94,6.369,4.354,9.58h5.757
	C87.228,651.419,87.084,651.148,86.943,650.878z M88.548,593.457c-1.56,1.18-3.046,2.452-4.448,3.81
	c1.054,3.21,2.113,6.418,3.266,9.595c0.68,1.877-2.309,2.678-2.981,0.822c-0.948-2.613-1.83-5.249-2.702-7.888
	c-0.529,0.592-1.056,1.188-1.555,1.803c6.19,16.46,11.375,33.265,16.507,50.091h1.129C93.466,632.522,90.578,613.045,88.548,593.457
	z M77.949,604.512c-1.213,1.76-2.298,3.604-3.248,5.514c2.166,4.088,4.322,8.182,6.308,12.36c0.85,1.79-1.817,3.356-2.671,1.561
	c-1.657-3.49-3.43-6.921-5.225-10.34c-0.401,1.035-0.764,2.086-1.081,3.153c6.496,11.304,12.498,22.879,18.559,34.425
	c0.089,0.169,0.18,0.336,0.269,0.505h2.574C88.61,635.846,83.716,620.027,77.949,604.512z M116.582,583.962
	c-0.212-0.004-0.422-0.016-0.633-0.016c-3.675-0.008-7.316,0.49-10.85,1.417c-0.891,12.198-1.377,24.402-0.235,36.641
	c0.186,1.983-2.909,1.965-3.092,0c-1.112-11.919-0.68-23.807,0.166-35.686c-3.685,1.261-7.216,2.99-10.495,5.117
	c2.053,20.271,4.997,40.43,9.474,60.255h7.184C107.558,629.06,112.218,606.485,116.582,583.962z M142.74,626.957l-2.356-2.023
	c-1.834,4.028-3.64,8.07-5.44,12.116c-2.083,4.683-4.458,9.595-6.72,14.639h5.19c1.919-5.319,3.876-10.627,5.906-15.907
	C140.451,632.843,141.583,629.896,142.74,626.957z M150.3,609.438c0.997-2.041,2.025-4.084,3.034-6.139
	c-0.476-0.625-0.964-1.238-1.469-1.84c-1.395,2.611-2.765,5.235-4.09,7.885c-1.295,2.588-2.55,5.193-3.785,7.808
	c1.383-0.845,2.687-1.558,3.692-2.081C148.526,613.18,149.392,611.299,150.3,609.438z M130.785,607.718
	c2.229-6.001,4.61-11.94,7.129-17.818c-2.479-1.39-5.076-2.547-7.75-3.475c-3.117,9.239-5.858,18.587-7.523,28.236
	c-0.338,1.96-3.317,1.124-2.982-0.821c1.672-9.684,4.426-19.063,7.557-28.333c-2.487-0.679-5.029-1.154-7.604-1.387
	c-4.385,22.466-9.06,45.015-8.461,67.57h5.906C120.292,636.652,125.511,621.907,130.785,607.718z M131.727,636.711
	c2.106-4.702,4.204-9.405,6.343-14.089c-0.13-0.485,0.001-1.027,0.399-1.404c0.131-0.124,0.274-0.246,0.411-0.369
	c2.301-5.004,4.659-9.982,7.151-14.901c1.18-2.329,2.407-4.63,3.65-6.922c-0.687-0.718-1.396-1.415-2.125-2.09
	c-2.234,3.607-4.475,7.213-6.853,10.73c-1.109,1.643-3.787,0.093-2.67-1.561c2.484-3.678,4.821-7.45,7.158-11.223
	c-1.478-1.208-3.021-2.337-4.623-3.371c-2.399,5.618-4.673,11.295-6.804,17.028c-5.172,13.916-10.323,28.393-13.552,43.15h4.67
	C127.163,646.531,129.579,641.507,131.727,636.711z M151.747,634.695c-0.286,0.679-0.562,1.362-0.81,2.062
	c-0.662,1.864-3.647,1.057-2.981-0.822c0.403-1.137,0.87-2.238,1.365-3.322l-4.072-3.497c-0.736,1.834-1.471,3.668-2.187,5.517
	c-2.193,5.66-4.302,11.352-6.367,17.059h9.064c3.336-4.479,6.918-8.81,10.581-13.049L151.747,634.695z M153.978,609.1
	c-0.502,1.054-1.011,2.105-1.5,3.164l1.969-2.763L153.978,609.1z M220.293,464.809c-2.412-12.527-4.335-25.09-5.616-37.692
	c1.554-0.097,3.107-0.214,4.658-0.354c1.611-6.288,3.354-12.945,2.869-19.274c1.351,0.056,2.735,0.104,4.134,0.15l3.702-3.138
	l-16.337-35.858l0,0c-0.271-1.26-0.896-2.428-1.854-3.328c-3.33-3.128-7.205-5.83-11.333-7.899l-0.688,8.149l-2.095-0.177
	c-4.022-4.301-8.502-8.112-13.747-10.594l0.148-1.772c-5.043-0.15-9.928,0.924-14.189,3.561c-0.447,0.277-0.89,0.566-1.321,0.878
	c-0.036,0.026-0.065,0.053-0.1,0.079c-4.267,3.117-5.891,7.242-6.596,11.033c-0.219,0.799-0.339,1.625-0.353,2.46
	c-0.144,1.324-0.216,2.565-0.303,3.646c-0.193,2.443-0.359,4.835-0.502,7.19c-0.05,0.826-0.097,1.648-0.141,2.465
	c-1.686,31.563,1.399,55.866,9.618,87.884c0.771,0.372,1.592,0.704,2.442,1.009C187.344,478.489,212.817,474.041,220.293,464.809z
	 M420.647,629.269c1.984,3.992,4.357,7.824,6.338,11.805h0.423c1.969,0,3.81,0.532,5.4,1.447
	c-3.771-7.168-7.581-14.315-11.567-21.364C420.762,623.844,420.577,626.561,420.647,629.269z M434.351,597.267
	c1.054,3.21,2.114,6.418,3.266,9.595c0.681,1.877-2.309,2.678-2.981,0.822c-0.948-2.613-1.83-5.249-2.702-7.888
	c-0.529,0.592-1.055,1.188-1.554,1.803c6.189,16.46,11.375,33.265,16.506,50.091h1.129c-4.299-19.167-7.185-38.645-9.216-58.232
	C437.24,594.637,435.755,595.91,434.351,597.267z M424.952,610.024c2.166,4.088,4.322,8.182,6.308,12.36
	c0.85,1.79-1.817,3.356-2.67,1.561c-1.658-3.49-3.431-6.921-5.226-10.34c-0.4,1.035-0.764,2.086-1.081,3.153
	c6.496,11.304,12.498,22.879,18.559,34.425c0.089,0.169,0.18,0.336,0.269,0.505h2.574c-4.824-15.844-9.718-31.662-15.485-47.178
	C426.988,606.271,425.903,608.115,424.952,610.024z M466.833,583.962c-0.211-0.004-0.421-0.016-0.632-0.016
	c-3.676-0.008-7.317,0.49-10.851,1.417c-0.891,12.198-1.377,24.402-0.234,36.641c0.185,1.983-2.909,1.965-3.093,0
	c-1.111-11.919-0.68-23.807,0.166-35.686c-3.685,1.261-7.216,2.99-10.495,5.117c2.054,20.271,4.997,40.43,9.475,60.255h7.183
	C457.809,629.06,462.469,606.485,466.833,583.962z M489.572,635.782c3.411-8.87,6.807-17.8,10.979-26.345
	c0.997-2.041,2.025-4.084,3.034-6.139c-0.475-0.625-0.964-1.238-1.469-1.84c-1.395,2.611-2.764,5.235-4.089,7.885
	c-4.558,9.108-8.694,18.402-12.833,27.706c-2.083,4.683-4.458,9.595-6.721,14.639h5.19
	C485.584,646.369,487.54,641.063,489.572,635.782z M481.036,607.718c2.229-6.001,4.61-11.94,7.129-17.818
	c-2.479-1.39-5.076-2.547-7.75-3.475c-3.117,9.239-5.858,18.587-7.523,28.236c-0.263,1.526-2.122,1.354-2.775,0.285v25.365
	C473.198,629.212,477.1,618.31,481.036,607.718z M477.466,585.506c-2.405-0.655-4.862-1.117-7.35-1.357v28.591
	C471.802,603.445,474.454,594.423,477.466,585.506z M461.401,651.689h5.906c0.047-0.22,0.096-0.439,0.144-0.66v-54.517
	C463.933,614.872,460.912,633.278,461.401,651.689z M481.978,636.711c4.625-10.326,9.188-20.667,14.305-30.764
	c1.18-2.329,2.408-4.63,3.65-6.922c-0.687-0.718-1.396-1.415-2.125-2.09c-2.234,3.607-4.475,7.213-6.853,10.73
	c-1.109,1.643-3.787,0.093-2.67-1.561c2.484-3.678,4.822-7.45,7.159-11.223c-1.479-1.208-3.021-2.337-4.623-3.371
	c-2.401,5.618-4.673,11.295-6.805,17.028c-5.172,13.916-10.322,28.393-13.552,43.15h4.67
	C477.414,646.531,479.83,641.507,481.978,636.711z M512.959,631.402c0.053-3.658-0.313-7.322-1.155-10.91
	c-0.038-0.164-0.086-0.326-0.127-0.489c-4.423,5.045-8.256,10.467-10.486,16.754c-0.662,1.864-3.648,1.057-2.982-0.822
	c2.614-7.367,7.245-13.562,12.482-19.338c-1.238-3.674-2.96-7.171-5.076-10.418c-4.573,9.307-8.55,18.781-12.299,28.453
	c-2.194,5.66-4.303,11.352-6.367,17.059h9.063C501.266,644.634,507.131,637.94,512.959,631.402z M391.077,461.544
	c-0.426,3.938-0.539,8.084,0.125,12.067c-3.446,0.098-7.01,0.158-10.749,0.266c-0.715,3.871-1.516,7.786-2.396,11.734h29.483h22.42
	c-0.805-2.933-1.643-5.613-2.453-8.079c-2.706-8.227-5.104-14.123-4.884-19.419c0.7-3.297,1.434-6.455,2.181-9.556
	c1.599-5.348,3.288-9.729,4.984-16.064c0.075-0.283,0.15-0.557,0.227-0.848c2.434-9.349,5.688-20.594,2.971-29.863
	c-1.314-4.485-3.878-9.018-8.211-10.771c-1.013-0.41-2.072-0.635-3.15-0.743c-1.703-0.17-3.454-0.018-5.166,0.28l0.038,0.579
	c-4.394,2.6-8.146,6.592-11.516,11.097l-1.755,0.186l-0.423-6.273c-2.767,1.609-5.527,3.431-8.067,5.299
	c-3.386,2.49-6.389,5.057-8.478,7.292c-0.795,0.851-1.489,1.666-2.137,2.466c-12.94,15.977,2.125,22.399,0.102,38.195
	c-0.236,1.84-0.485,3.695-0.742,5.558c-3.513,1.248-7.453,2.805-11.489,4.431c0.022,2.316,0.164,4.69,0.499,7.038
	C378.017,465.163,384.656,463.293,391.077,461.544z M392.369,620.713L392.369,620.713l0.895,9.561l-9.638,9.188l-5.287-0.126
	l-0.576,1.738l-2.212,6.665l-4.224,4.781l11.248-2.582l6.223-8.864l4.38-6.236l2.073,6.236l1.84,5.533l1.81-0.415l-1.85-18.933
	l-0.013,0.019c-0.087-1.356-0.667-2.699-1.732-3.74c-0.013-0.012-0.021-0.025-0.032-0.037L392.369,620.713z M332.691,625.816
	l-2.355,12.178l1.781,0.525l7.664-17.411l-0.02,0.011c0.597-1.239,0.749-2.713,0.313-4.157l-0.55-1.818
	c12.654-2.601,24.979-6.368,36.839-11.269l-0.235-0.683c-11.757,4.88-24.056,8.705-36.788,11.341l-0.431-1.425l-3.905,8.773
	l-12.902,3.287l-4.547-2.7l-6.119,5.568v4.391l4.616,1.359L332.691,625.816z M308.766,631.642v-2.435l-3.788,1.318L308.766,631.642z
	 M376.949,490.378c-0.898,3.731-1.862,7.486-2.948,11.279c9.817,4.186,23.197,5.108,35.749,3.387v-12.226
	c0-0.895,0.072-1.723,0.189-2.441h-2.4L376.949,490.378L376.949,490.378z M423.743,501.871l0.806-11.493h-12.321
	c0.117,0.719,0.188,1.547,0.188,2.441v11.813C416.355,503.968,420.176,503.041,423.743,501.871z M428.546,500.082
	c0.95-0.401,1.878-0.818,2.771-1.258c0.479-0.234,0.949-0.474,1.409-0.719c-0.463-2.749-0.991-5.315-1.555-7.728h-6.022
	L428.546,500.082z"></path>
</svg>