<?xml version="1.0" standalone="no"?>
<svg version="1.1" id="color_x5F_1" xmlns="http://www.w3.org/2000/svg" xmlns:xlink="http://www.w3.org/1999/xlink" x="0px" y="0px" width="600px" height="600px" viewBox="0 0 600 600" enable-background="new 0 0 600 600" xml:space="preserve">
<polygon id="color_x5F_10" fill="#6BA7D0" points="280.598,531.967 46.262,396.909 46.262,410.314 280.598,546.582 577.423,374.735 
	577.423,357.098 "></polygon>
<path id="color_x5F_9" fill="#217E75" d="M522.594,261.75c-3.427-1.713-7.66,2.217-7.66,2.217s4.133-13.909,0-21.267
	c-4.132-7.357-9.172-4.938-10.079-8.97c-0.705-3.125,2.822-7.055,3.427-11.994c0.303-2.217,0.403-5.14,0.102-8.466
	c-0.505-5.442-2.318-11.994-6.652-18.646c-10.785-16.227-19.554-5.442-21.569-0.302c-2.016,5.241,0,19.855,0,19.855
	s-12.699-0.907-16.328,8.466c-3.628,9.272,10.281,27.112,19.654,27.717c0,0-5.645-0.403-6.35,2.923
	c-0.706,3.326,7.257,17.033,7.257,22.577c0,0-10.886-11.389-21.166-7.055c-10.381,4.233-4.132,16.63-4.132,16.63
	s-1.311,0-1.714,1.713c-0.101,0.302-0.101,0.706-0.101,1.108c0,2.822,1.31,5.947,5.946,7.862s4.838-2.419,10.18,2.016
	c5.342,4.435,5.342,6.955,5.946,13.103c0.102,0.807,0.303,1.612,0.505,2.419c0.302,0.806,0.604,1.714,1.108,2.62
	c0.302,0.605,0.705,1.311,1.008,1.915c-0.202,0.101-0.403,0.101-0.604,0.202c-0.202,0.101-0.303,0.101-0.504,0.201
	c-0.202,0.101-0.504,0.201-0.706,0.303c-0.201,0.101-0.403,0.201-0.504,0.201c-0.201,0.102-0.403,0.201-0.604,0.303
	c-0.202,0.101-0.303,0.201-0.504,0.303c-0.202,0.1-0.303,0.201-0.504,0.302c-0.303,0.202-0.605,0.403-0.807,0.604
	c-0.101,0.102-0.201,0.201-0.303,0.303c-0.101,0.101-0.302,0.303-0.402,0.402c-0.102,0.102-0.202,0.202-0.303,0.303
	c-0.101,0.102-0.201,0.303-0.303,0.403c-0.101,0.101-0.201,0.202-0.201,0.302c-0.101,0.202-0.201,0.303-0.303,0.504
	c0,0.102-0.101,0.202-0.101,0.303c-0.101,0.303-0.201,0.504-0.201,0.807c0.604,4.637,7.357,8.265,15.521,8.265
	c8.265,0,14.917-3.628,15.521-8.265c0-0.201-0.101-0.504-0.202-0.705c0-0.102-0.101-0.202-0.101-0.202
	c-0.101-0.101-0.101-0.302-0.201-0.403c-0.101-0.101-0.101-0.201-0.202-0.303c-0.101-0.1-0.101-0.201-0.201-0.302
	s-0.101-0.202-0.201-0.302c-0.102-0.102-0.202-0.202-0.303-0.303c-0.101-0.102-0.201-0.201-0.303-0.303
	c-0.101-0.101-0.201-0.201-0.302-0.303c-0.101-0.1-0.202-0.201-0.403-0.302c-0.101-0.101-0.202-0.101-0.303-0.202
	c-0.302-0.201-0.604-0.402-0.907-0.604c-0.101-0.101-0.201-0.101-0.302-0.201c-0.202-0.101-0.303-0.202-0.504-0.303
	c-0.101-0.101-0.303-0.101-0.403-0.201c-0.202-0.101-0.303-0.101-0.504-0.202c-0.202-0.101-0.303-0.101-0.504-0.201
	c-0.202-0.102-0.303-0.102-0.504-0.201c-0.202-0.102-0.403-0.202-0.706-0.202c-0.101,0-0.302-0.101-0.402-0.101
	c-0.303-0.102-0.605-0.201-0.907-0.303c-0.102,0-0.102,0-0.202-0.101c-1.209-0.302-2.419-0.504-3.729-0.706
	c0.202-0.906,0.505-1.713,0.706-2.418c0.403-1.21,0.705-2.218,0.907-2.822c0.101-0.303,0.201-0.605,0.201-0.605
	c0.202-0.504,0.403-1.008,0.604-1.41c0.605-1.311,1.21-2.621,1.814-3.83c3.528-6.451,11.793-9.172,12.599-13.204
	c0.907-4.032,0.303-5.241,0.303-5.241s8.567,0.806,13.405-7.66S526.121,263.464,522.594,261.75z M487.519,325.047
	c0.605,0.504,1.109,1.008,1.714,1.41C488.628,326.055,488.022,325.551,487.519,325.047z M489.333,326.457
	c0.504,0.403,1.108,0.705,1.612,0.907C490.341,327.162,489.837,326.86,489.333,326.457z M492.962,321.922
	c0.101-1.512,0.402-3.125,0.806-4.637C493.466,318.797,493.163,320.41,492.962,321.922z M494.271,285.738l-0.504,0.706
	c-3.023,4.636-6.047,8.97-7.257,13.002c-0.302,1.008-0.504,2.117-0.705,3.225c0,1.108-0.101,1.814-0.101,1.915
	c-0.202,8.063,5.14,16.025,8.668,23.282c0,0.101,0.101,0.101,0.101,0.202c0-0.102-0.101-0.102-0.101-0.202
	c-6.451-7.56-11.994-14.211-10.685-25.399c0.504-17.738-11.188-23.08-21.267-23.483c11.994-1.008,20.864,5.14,22.98,17.235
	c1.411-3.125,3.427-6.35,5.745-9.776c0.403-0.706,0.907-1.411,1.411-2.117c4.737-7.156,9.776-14.816,9.776-23.282
	c0-6.652-4.334-11.389-8.365-15.824c-1.814-1.915-3.528-3.83-4.938-5.846c-9.677-2.621-15.019-7.962-14.816-17.84
	c3.427,7.56,4.435,11.692,13.203,15.018c-1.311-2.722-1.814-5.846-0.807-9.475c1.109-4.334,2.621-7.156,3.932-9.676
	c5.744-10.885,2.62-15.824-1.008-23.786c6.35,9.776,8.769,13.808,3.023,24.794c-1.311,2.419-2.722,5.14-3.83,9.172
	c-1.814,6.652,2.419,11.288,6.954,16.126c4.435,4.838,8.971,9.877,8.971,17.336c0,6.047-2.318,11.691-5.342,16.933
	c8.668-6.047,13.203-5.745,22.576-5.342C511.204,275.155,501.428,276.163,494.271,285.738z"></path>
<path id="color_x5F_8" fill="#B5C8C5" d="M416.563,232.824c0,3.729-2.621,8.265-5.846,10.079c-1.613,0.907-3.125,1.008-4.133,0.403
	l-0.403-0.302c-0.705-0.706-1.108-1.512-1.209-2.419v-0.202c0-0.101,0-0.101,0-0.201v-0.605v-0.302v-0.403v-0.302l0.101-0.403
	l0.101-0.302l0.101-0.403l0.101-0.302v-0.202c0.102-0.202,0.102-0.504,0.202-0.706l0.101-0.101v-0.202
	c0.706-1.713,1.714-3.427,2.923-4.737l0.202-0.201l0.201-0.202l0,0l0.303-0.202l0.201-0.202l0.101-0.101l0.202-0.202l0.302-0.202
	l0.303-0.202h0.101h0.101l0,0h0.102h0.101l0,0h0.101h0.101l0,0h0.101h0.102l0,0l0,0h0.101l0,0l0,0l0,0h0.101l0.403-0.202
	c0.101,0,0.201-0.101,0.303-0.101h0.101c0.101,0,0.201-0.101,0.302-0.101h0.102c0.906-0.202,1.813-0.101,2.62,0.302
	C415.958,229.8,416.563,231.01,416.563,232.824z M101.797,270.62l-1.31,1.108c-1.209-0.706-6.652-4.032-7.56-4.233
	c-5.543-1.714-11.389,4.233-14.11,8.365c-3.023,4.636-4.938,10.079-5.442,15.723c-3.024,2.318-4.939,6.047-5.846,9.777
	c-4.636,1.31-7.66,10.582-4.636,13.404l7.66,4.435c-0.807-0.705-1.411-2.016-1.411-3.829c0-3.629,2.117-7.762,4.737-9.273
	c0.403-0.201,0.705-0.402,1.108-0.402c0.907-3.932,3.125-7.762,5.846-9.777c0.706-9.172,6.047-19.049,12.599-22.879
	c5.846-3.326,10.684-0.907,12.196,5.543c1.31-1.814,2.822-3.225,4.435-4.132c1.814-1.008,3.427-1.209,4.838-0.806l-7.458-4.334
	C105.728,268.503,103.309,269.511,101.797,270.62z M475.122,323.232c0-0.102,0.101-0.202,0.101-0.303
	c0.101-0.201,0.201-0.303,0.303-0.504c0.101-0.102,0.101-0.201,0.201-0.303c0.101-0.101,0.201-0.303,0.303-0.402
	c0.101-0.102,0.201-0.202,0.302-0.303c0.101-0.102,0.303-0.303,0.403-0.403s0.201-0.202,0.303-0.302
	c0.302-0.202,0.504-0.404,0.806-0.605c0.202-0.101,0.303-0.201,0.504-0.303c0.202-0.1,0.303-0.201,0.504-0.302
	c0.202-0.101,0.403-0.202,0.605-0.302c0.201-0.102,0.302-0.202,0.504-0.202c0.201-0.101,0.403-0.202,0.705-0.302
	c0.202-0.102,0.303-0.102,0.504-0.202c0.202-0.101,0.403-0.202,0.604-0.202c-0.402-0.604-0.705-1.31-1.008-1.914
	c-3.628,1.612-5.946,4.132-5.946,7.055c0,0.201,0,0.504,0,0.705C475.021,323.736,475.021,323.534,475.122,323.232z M144.028,175.979
	c3.023-4.132,6.551-7.559,10.28-9.776c4.233-2.419,8.164-2.923,11.389-1.814l-17.537-10.079c-4.132-1.814-9.877,0.605-13.506,3.125
	l-3.125,2.52c-2.822-1.613-15.623-9.273-17.537-9.877c-13.103-4.032-26.508,9.978-32.857,19.654
	c-7.257,10.986-11.591,23.585-12.8,36.688c-7.156,5.442-11.591,14.211-13.607,22.778c-10.784,3.024-17.94,24.693-10.684,31.346
	l17.84,10.482l0,0c-2.016-1.613-3.326-4.737-3.326-8.97c0-8.365,4.939-18.142,11.087-21.67c0.907-0.504,1.713-0.806,2.52-1.008
	c2.016-9.172,7.257-18.142,13.606-22.778c1.613-21.468,14.211-44.65,29.632-53.519C129.011,155.216,140.5,161.062,144.028,175.979z
	 M497.8,317.891c0.302,0.1,0.604,0.201,0.907,0.302c0.101,0,0.302,0.101,0.402,0.101c0.202,0.102,0.403,0.102,0.706,0.202
	c0.201,0.101,0.302,0.101,0.504,0.201c0.201,0.101,0.302,0.101,0.504,0.202c0.201,0.101,0.302,0.101,0.504,0.201
	c0.101,0.102,0.303,0.102,0.403,0.201c0.201,0.102,0.302,0.202,0.504,0.303c0.101,0.102,0.201,0.102,0.302,0.201
	c0.303,0.202,0.605,0.404,0.907,0.605c0.102,0.101,0.202,0.101,0.303,0.201c0.101,0.102,0.201,0.201,0.403,0.303
	c0.101,0.101,0.201,0.201,0.302,0.303c0.102,0.1,0.202,0.201,0.303,0.302s0.201,0.202,0.303,0.302
	c0.101,0.102,0.201,0.202,0.201,0.303c0.101,0.102,0.201,0.201,0.201,0.303c0.102,0.101,0.102,0.201,0.202,0.303
	c0.101,0.1,0.101,0.302,0.201,0.402c0,0.102,0.101,0.202,0.101,0.202c0.102,0.201,0.102,0.403,0.202,0.705
	c0-0.201,0.101-0.504,0.101-0.705c0-4.133-4.938-7.56-11.591-8.668c-0.201,0.706-0.504,1.612-0.705,2.419
	c1.31,0.101,2.52,0.402,3.729,0.705C497.598,317.789,497.698,317.891,497.8,317.891z M136.167,283.319L136.167,283.319
	c0.303,0.101,0.403,0.101,0.605,0.202c0,0,0.101,0,0.101,0.101l0,0h0.101l0,0c0.101,0,0.101,0.101,0.202,0.101l15.622,9.071v-9.776
	l-8.265-4.737l-8.97,5.14l0,0l0.101-0.101h0.202H136.167z M507.979,327.264c-0.102,0.201-0.202,0.403-0.303,0.604
	c-0.101,0.101-0.201,0.303-0.303,0.403c-0.101,0.201-0.302,0.403-0.402,0.604c-0.102,0.101-0.202,0.202-0.303,0.403
	c-0.201,0.201-0.403,0.403-0.604,0.605c-0.101,0.1-0.202,0.201-0.303,0.302c-0.201,0.202-0.403,0.403-0.705,0.604
	c-0.102,0.102-0.202,0.201-0.303,0.303c-0.303,0.201-0.604,0.402-0.907,0.604c-0.101,0.101-0.201,0.101-0.302,0.202
	c-0.807,0.504-1.714,1.008-2.621,1.41c0,0-0.101,0-0.101,0.102c-0.403,0.201-0.907,0.302-1.311,0.504
	c-0.101,0-0.302,0.101-0.403,0.101c-0.402,0.101-0.705,0.202-1.108,0.302c-0.201,0-0.302,0.102-0.504,0.102
	c-0.403,0.101-0.705,0.201-1.108,0.303c-0.202,0-0.403,0.1-0.604,0.1c-0.403,0.102-0.706,0.102-1.109,0.202
	c-0.201,0-0.403,0.101-0.604,0.101c-0.403,0-0.807,0.102-1.21,0.102c-0.201,0-0.402,0-0.504,0c-0.604,0-1.209,0.1-1.813,0.1
	c-0.605,0-1.21,0-1.814-0.1c-0.201,0-0.403,0-0.504,0c-0.403,0-0.807-0.102-1.21-0.102c-0.201,0-0.402-0.101-0.604-0.101
	c-0.403-0.101-0.705-0.101-1.108-0.202c-0.202,0-0.403-0.1-0.604-0.1c-0.403-0.102-0.706-0.202-1.009-0.202
	c-0.201,0-0.402-0.101-0.504-0.101c-0.402-0.102-0.705-0.201-1.108-0.303c-0.101,0-0.302-0.101-0.403-0.101
	c-0.403-0.202-0.907-0.303-1.31-0.504h-0.102c-1.008-0.403-1.813-0.907-2.721-1.411L477.44,332
	c-0.403-0.201-0.706-0.504-1.009-0.705c-0.101,0-0.101-0.101-0.201-0.101c-0.303-0.202-0.604-0.504-0.907-0.706
	c-0.101,0-0.101-0.1-0.201-0.1c-0.303-0.303-0.504-0.605-0.807-0.807l-0.101-0.102c-0.807-1.008-1.411-2.016-1.814-3.124
	l3.729,22.678c0,5.14,6.45,9.172,14.413,9.172c7.962,0,14.412-4.132,14.412-9.172l3.729-22.678
	C508.383,326.356,508.181,326.76,507.979,327.264z M330.187,53.822l12.397,7.156l-0.403-0.101l-0.403-0.101l-0.403-0.101
	l-0.403-0.101h-0.403l0,0h-0.101h-0.403h-0.504l-0.402,0.101l-0.505,0.101l-0.402,0.101l-0.403,0.202l-0.403,0.202l-0.403,0.201
	l-117.621,67.932l-0.403,0.202l-0.202,0.202l-0.202,0.101l-0.201,0.101l-0.202,0.101l-0.403,0.303l-0.403,0.302l-0.303,0.302
	l-0.302,0.302l-0.202,0.202l-0.101,0.101l-0.101,0.101l-0.202,0.202l-0.302,0.302l-0.302,0.302l-0.302,0.403l0,0l0,0l-0.303,0.302
	l-0.201,0.302l-0.101,0.101l-0.202,0.302l0,0l-0.201,0.403l-0.202,0.403l-0.202,0.403l-0.202,0.403l-0.202,0.403l-0.202,0.403
	l-0.101,0.403l-0.101,0.403l-0.101,0.403l-0.101,0.403l-0.101,0.403l0,0v0.101l-0.101,0.403l-0.101,0.403l-0.101,0.504v0.403v0.504
	v0.504v253.083v0.504l0.101,0.504l0.101,0.504l0.101,0.402l0.101,0.403l0.202,0.403l0.201,0.403l0.202,0.403l0.202,0.403
	l0.202,0.402l0.302,0.303l0.302,0.303l0.303,0.302l0.302,0.303l-12.397-7.156l-0.403-0.303l-0.302-0.302h-0.403l-0.302-0.403
	l-0.303-0.402l-0.201-0.404l-0.202-0.402l-0.202-0.403l-0.202-0.403l-0.101-0.403l-0.101-0.504l-0.101-0.504l-0.101-0.504v-0.504
	v-78.717V134.151v-0.504v-0.504l0.101-0.504l0.101-0.403l0.101-0.504l0.101-0.403l0.101-0.403l0.101-0.403l0.101-0.403l0.101-0.403
	l0.202-0.403l0.201-0.403l0.202-0.403l0.202-0.403l0.202-0.403l0.202-0.403l0.202-0.403l0.201-0.403l0.303-0.403l0.201-0.403
	l0.303-0.403l0.302-0.302l0.302-0.403l0.303-0.303l0.302-0.302l0.302-0.302l0.403-0.303l0.403-0.302l0.403-0.302l0.403-0.302
	l0.403-0.202l0.403-0.202l117.521-67.832l0.403-0.201l0.403-0.202l0.504-0.202l0.403-0.101l0.402-0.101l0.504-0.101h0.403h0.504
	h0.403l0.403,0.101l0.403,0.101l0.403,0.101L330.187,53.822z M208.836,175.878v-0.101v-0.101v-0.101l-0.101-0.101l-0.101-0.101
	l-0.101-0.101l-0.101-0.101l-0.101-0.101l-3.125-1.814l-0.101-0.101h-0.101h-0.101h-0.101h-0.101h-0.101h-0.101l-0.101,0.101
	l-1.31,0.806l0.101-0.101l0.101-0.101h0.101h0.101h0.101h0.101l0.101,0.101l0.101,0.101l3.125,1.814l0.101,0.101l0.101,0.101
	l0.101,0.101l0.101,0.101l0.101,0.101l0.101,0.101v0.101v0.101v10.18v0.101v0.101l-0.101,0.101l-0.101,0.101l-0.101,0.101
	l-0.101,0.101l-0.101,0.101l-0.101,0.101l0.101-0.101l0,0l1.209-0.706l0.101-0.101l0.101-0.101l0.101-0.101l0.101-0.101l0.101-0.101
	l0.101-0.101v-0.101v-0.101v-10.18H208.836z M208.836,159.751v-0.101v-0.101v-0.101l-0.101-0.101l-0.101-0.101l-0.101-0.101
	l-0.101-0.101l-0.101-0.101l-3.125-1.814l-0.101-0.101h-0.101h-0.101h-0.101h-0.101h-0.101h-0.101l-0.101,0.101l-1.31,0.806
	l0.101-0.101l0.101-0.101h0.101h0.101h0.101h0.101l0.101,0.101l0.101,0.101l3.125,1.814l0.101,0.101l0.101,0.101l0.101,0.101
	l0.101,0.101l0.101,0.101l0.101,0.101v0.101v0.101v10.18v0.101v0.101l-0.101,0.101l-0.101,0.101l-0.101,0.101l-0.101,0.101
	l-0.101,0.101l-0.101,0.101l0.101-0.101l0,0l1.209-0.706l0.101-0.101l0.101-0.101l0.101-0.101l0.101-0.101l0.101-0.101l0.101-0.101
	v-0.101v-0.101v-10.18H208.836z M236.15,113.288l-2.217-1.311c-0.907-0.504-2.016-0.504-2.923,0l-13.808,7.962
	c-1.008,0.504-1.008,1.915,0,2.52l2.116,1.31c0.907,0.504,2.016,0.504,2.923,0l13.808-7.962
	C237.158,115.203,237.158,113.792,236.15,113.288z M175.979,425.433l-0.907-0.201l-0.907-0.202l-0.907-0.303l-1.008-0.402
	l-0.907-0.403l-1.008-0.504l-0.101-0.101l-0.101-0.102l-0.202-0.101l-0.101-0.101l-0.202-0.101l-0.101-0.101l-0.202-0.102
	l-0.101-0.101l-0.202-0.101l-0.202-0.101l-0.201-0.102l-0.101-0.101l-0.202-0.101l-0.201-0.101l-0.202-0.101l-0.101-0.102
	l-1.008-0.705l-0.907-0.706l-0.907-0.705l-0.907-0.807l-0.907-0.806l-0.907-0.907l-0.907-0.907l-0.907-0.907l-0.806-1.008
	l-0.807-1.008l-0.806-1.008l-0.806-1.008l-0.706-1.008l-0.706-1.109l-0.706-1.108l-0.706-1.108l-0.605-1.109l-0.604-1.209
	l-0.504-1.21l-0.504-1.209l-0.504-1.21l-0.504-1.209l-0.403-1.21l-0.403-1.209l-0.302-1.21l-0.302-1.209l-0.202-1.21l-0.202-1.209
	l-0.202-1.21l-0.101-1.209l-0.101-1.21v-1.21v-1.209l0.101-1.108l0.101-1.108l0.202-1.008l0.202-1.008l0.302-0.908l0.302-0.906
	l0.403-0.807l0,0c-2.318-0.201-4.435,0.303-6.249,1.311l-0.604,0.402l-0.303,0.202c-0.101,0.101-0.302,0.202-0.403,0.302
	l-0.504,0.404l-0.504,0.604l-0.504,0.605l0,0v0.101c-0.403,0.604-0.807,1.21-1.109,1.915l-0.101,0.303l-0.403,0.807l-0.302,0.906
	l-0.303,0.907l-0.202,1.008l-0.101,0.504c-0.101,0.303-0.101,0.706-0.101,1.009l-0.101,0.504l-0.101,1.107v1.21
	c0,0.604,0,1.21,0.101,1.814v0.504l0.101,0.604c0,0.403,0.101,0.907,0.201,1.311l0.101,0.504l0.101,0.403
	c0.202,1.209,0.504,2.52,0.807,3.729l0.201,0.705l0.202,0.504c0.202,0.604,0.403,1.108,0.605,1.714l0.101,0.201v0.101
	c0.202,0.604,0.504,1.21,0.706,1.915l0.202,0.403l0.504,1.209l0.504,1.21l0.605,1.21l0.604,1.108l0.302,0.504
	c0.202,0.403,0.504,0.807,0.706,1.209l0.303,0.504l0.403,0.605c0.202,0.302,0.403,0.705,0.706,1.008l0.403,0.604l0.302,0.403
	c0.302,0.504,0.706,0.907,1.008,1.411l0.202,0.302l0.706,0.807c0.101,0.101,0.101,0.101,0.202,0.201l0.806,0.907l0.403,0.504
	c0.302,0.403,0.706,0.706,1.008,1.109l0.302,0.302l0.202,0.202c0.403,0.403,0.706,0.705,1.109,1.008l0.504,0.403l0.403,0.402
	c1.109,0.907,2.218,1.814,3.427,2.521c0.201,0.101,0.302,0.201,0.504,0.302l0,0l0,0c0.202,0.101,0.403,0.202,0.504,0.303h0.101
	l0.202,0.101c0.302,0.202,0.706,0.403,1.008,0.504l0,0l0.101,0.101c1.512,0.706,2.923,1.311,4.233,1.613l0.504,0.101h0.202
	c2.318,0.504,4.435,0.403,6.35-0.201l0.706-0.303l0,0c2.217-1.008,4.032-2.722,5.141-5.241h-0.202L175.979,425.433z
	 M141.105,364.959l1.209-0.102l1.209-0.1h1.209l1.31,0.1l0.605,0.102c0.504,0.101,1.008,0.101,1.512,0.201l0.504,0.102l1.31,0.302
	l1.311,0.403c0.504,0.201,1.008,0.303,1.512,0.504v-7.66l-1.108,0.102l-1.109,0.201l-1.109,0.303l-1.008,0.402l-1.008,0.403
	l-1.008,0.504l-10.482,6.048l1.008-0.504l1.008-0.403l0.403-0.101c0.706-0.202,1.411-0.404,2.117-0.605L141.105,364.959z
	 M201.277,415.253l-0.202-1.714l-0.202-1.713l-0.302-1.714l-0.303-1.713l-0.403-1.714l-0.403-1.713l-0.504-1.714l-0.504-1.714
	l-0.605-1.713l-0.705-1.714l-0.706-1.713l-0.706-1.714l-0.807-1.713l-0.806-1.714l-0.907-1.714l-0.907-1.612l-1.008-1.612
	l-1.008-1.613l-1.008-1.612l-1.109-1.612l-1.108-1.512l-1.209-1.512l-1.209-1.512l-1.209-1.412l-1.209-1.41l-1.209-1.311
	l-1.311-1.311l-1.31-1.209l-1.31-1.21l-1.311-1.108v-45.456v-46.968v-0.202v-0.202v-0.202v-0.202l-0.101-0.201l-0.101-0.202
	l-0.101-0.202l-0.101-0.202l-0.101-0.202l-0.101-0.202l-0.101-0.202l-0.101-0.201l-0.101-0.202l-0.101-0.202l-0.101-0.202
	l-0.101-0.202l-0.202-0.202l-0.202-0.302l-0.201-0.202l-0.202-0.202l-0.202-0.201l-0.202-0.303l-0.202-0.202l-0.202-0.201
	l-0.201-0.202l-0.202-0.202l-0.202-0.202l-0.202-0.202l-0.302-0.202l-0.302-0.202l-0.303-0.201l-0.302-0.202l-0.202-0.101
	l-0.302-0.202l-0.302-0.201l-0.303-0.101l-0.302-0.202l-0.302-0.202l-0.302-0.201l-0.303-0.101l-0.302-0.202l-0.302-0.202
	l-0.202-0.201l-0.302-0.101l-0.302-0.202l-0.303-0.202l-0.201-0.101l-0.303-0.202l-0.202-0.101L166,265.983l-0.303-0.202
	l-0.202-0.101l-0.201-0.101l-0.202-0.101l-0.202-0.101l-0.202-0.101l-0.202-0.101l-0.201-0.101l-0.202-0.101l-0.202-0.101
	l-0.202-0.101l-0.202-0.101l-0.202-0.101l-0.201-0.101l-16.126-9.273l-0.202-0.101l-0.202-0.101h-0.202h-0.201h-0.202l-0.202,0.101
	l-0.202,0.101l-10.482,6.048h0.101h0.101h0.101h0.202h0.202h0.101c0.101,0,0.202,0,0.202,0h0.101l0.202,0.101l0.605,0.302l0,0l0,0
	l0,0l15.42,8.97c0.303,0.202,0.807,0.403,1.209,0.706l0,0h0.101c0.101,0,0.202,0.101,0.202,0.101l0.101,0.101l0.202,0.101l0,0
	l0.202,0.101l0.101,0.101c0.101,0.101,0.202,0.101,0.302,0.202l0,0l0,0c0.202,0.101,0.504,0.302,0.706,0.403h0.101h0.101
	c0.101,0.101,0.303,0.202,0.403,0.202h0.101l0.202,0.101c0.504,0.302,1.109,0.605,1.613,0.907l0,0l0.101,0.101
	c0.303,0.202,0.605,0.403,0.907,0.504h0.101l0.303,0.202l0,0c0.202,0.101,0.302,0.202,0.504,0.302l0.302,0.202l0.302,0.202
	l0.303,0.202l0.201,0.202l0,0l0,0l0.202,0.202l0.202,0.202l0.202,0.202l0.101,0.201l0.101,0.101l0.202,0.202l0.201,0.201
	l0.202,0.303v0.101c0.101,0.101,0.101,0.202,0.202,0.302l0.101,0.202l0.201,0.202l0.202,0.302l0.101,0.101
	c0,0.101,0.101,0.101,0.101,0.202l0.101,0.201l0.101,0.202l0.101,0.202l0.101,0.202l0.101,0.202l0.101,0.202l0.101,0.202v0.201
	c0,0.101,0,0.101,0.101,0.202v0.101l0.101,0.202l0.101,0.202v0.101c0,0.101,0,0.202,0,0.302v0.101v0.201v0.202v92.222l1.311,1.109
	l0.706,0.604c1.814,1.612,3.527,3.326,5.14,5.241l0.504,0.604l1.209,1.411l0.403,0.604c2.217,2.822,4.334,5.745,6.148,8.87
	l0.806,1.41l0.907,1.613l0.302,0.504c0.403,0.705,0.706,1.411,1.109,2.116l0.403,0.807l0.604,1.311
	c0.202,0.402,0.403,0.906,0.605,1.31l0.302,0.807l0.202,0.504c1.008,2.52,1.915,5.141,2.621,7.761l0.101,0.504l0.403,1.714
	l0.403,1.713l0.101,0.706c0.101,0.504,0.202,1.008,0.302,1.411l0.202,1.41l0.202,1.714v0.504c0.101,0.807,0.101,1.612,0.202,2.318
	v0.504v1.714v1.813l-0.101,0.807c-0.101,1.713-0.302,3.226-0.604,4.737l-0.202,1.008l-0.101,0.403
	c-0.302,1.209-0.706,2.317-1.209,3.427l-0.101,0.302l-0.605,1.21l0,0l0,0l-0.101,0.201c-1.209,2.218-2.822,4.133-4.636,5.544
	l10.482-6.048l0.907-0.806l0.907-0.907l0.907-0.907l0.807-1.008l0.706-1.109l0.706-1.209l0.604-1.21l0.504-1.31l0.504-1.411
	l0.403-1.411l0.302-1.512l0.302-1.613l0.202-1.612l0.101-1.713v-1.814v-1.714L201.277,415.253z"></path>
<path id="color_x5F_7" fill="#F4B922" d="M335.729,196.741c-0.504,0.504-0.906,1.008-1.31,1.613
	c-0.706,1.108-1.008,2.217-1.109,2.721l-32.453-18.646c-0.404-0.303-0.706-0.605-0.908-0.907c0.202,0.202,0.504,0.302,0.908,0.202
	c0.302-0.202,0.402-0.504,0.402-0.807l-0.201-1.31l4.334,0.302c0.201,0,0.504-0.101,0.604-0.302L335.729,196.741z M336.133,199.06
	c-0.403,0.604-0.403,1.915-0.403,1.915s0.102,0.101,0.202,0.101c0.201-0.706,0.604-1.613,1.209-2.419
	c0.202-0.302,0.403-0.605,0.605-0.807l-0.403-0.201C336.738,198.152,336.335,198.757,336.133,199.06z M342.08,203.998
	c0.402,0.101,0.906-1.713,1.209-2.117c0.101-0.202,0.201-0.302,0.303-0.504l-0.807-0.403
	C342.482,201.377,341.475,203.595,342.08,203.998z M339.358,199.563c-0.504,0.806-0.504,2.822-0.101,3.023s0.705-2.318,1.209-3.023
	l0.101-0.101l-0.806-0.504C339.56,199.261,339.459,199.462,339.358,199.563z M308.719,200.067
	c-31.447,18.142-20.158,11.691-51.604,29.833v13.909c31.547-18.344,20.057-11.692,51.604-30.036V200.067z M308.719,224.055
	c-31.447,18.142-20.158,11.691-51.604,29.833v13.909c31.547-18.344,20.057-11.692,51.604-30.035V224.055z M308.719,248.043
	c-31.447,18.142-20.158,11.691-51.604,29.834v13.909c31.547-18.344,20.057-11.691,51.604-30.035V248.043z M392.071,234.84
	l-0.101-0.101c-1.814-2.318-0.504-5.846-0.504-5.846l0,0l-45.759-26.407c0,0.101-0.101,0.101-0.101,0.101
	c-0.403,0.907-0.303,4.233-0.303,5.241l2.318,1.512h-0.101l33.966,19.553l10.784,6.148
	C392.172,235.041,392.172,234.94,392.071,234.84L392.071,234.84z M276.768,302.469l-40.618,23.484v19.957l40.618-23.586v0.202
	l53.62-31.144v-19.754l-40.618,23.484L276.768,302.469z M401.143,221.132l-0.403-0.202l-0.403-0.101
	c-0.201,0-0.504-0.101-0.705-0.101c-0.102,0-0.102,0-0.202,0c-0.201,0-0.403,0-0.604,0.101l0,0c-0.202,0-0.504,0.101-0.706,0.201
	h-0.101c-1.209,0.403-2.419,1.311-3.427,2.419l0,0h-0.101c-15.724-9.071-31.446-18.142-47.068-27.213
	c-3.428-2.016-6.854-3.931-10.281-5.947l-12.396-7.156l-0.504-0.303c-0.403-0.201-0.807-0.504-1.311-0.706l-0.907-0.504
	l-0.303-0.202c-0.604-0.302-1.209-0.705-1.813-1.008l-0.504-0.302l-0.605-0.302c-0.101-0.101-0.201-0.101-0.302-0.202l0.604,0.302
	l-1.108-0.604c-0.202-0.101-0.403-0.202-0.504-0.303l-0.706-0.403l-0.806-0.504c-1.915-1.109-3.83-2.217-5.745-3.326l-0.202-0.101
	c0.101-0.101,0.101-0.101,0.202-0.201c0.101-0.202,0.101-0.504,0-0.706l-2.923-4.334l1.31-0.202c0.403,0,0.605-0.302,0.605-0.706
	c0-0.101,0-0.202,0-0.202l0,0c0-0.101-0.102-0.101-0.102-0.201l0,0c0-0.101-0.101-0.101-0.201-0.101l0,0c0,0-0.101,0-0.101-0.101
	c0.201,0.101,0.403,0.202,0.705,0.303l37.897,21.871L401.143,221.132z M398.623,220.83L398.623,220.83h-0.102l0,0l0,0l0,0H398.623z"></path>
<path id="color_x5F_6" fill="#FD6322" d="M340.063,185.856V91.114c0-4.838-5.14-7.761-9.373-5.443l-104.62,60.474
	c-3.83,2.218-6.249,6.35-6.249,10.785v205.51c0,4.838,5.141,7.76,9.374,5.342l104.619-60.373c3.83-2.218,6.249-6.35,6.249-10.785
	v-74.887v-5.442c-0.504,0.604-1.108,1.411-1.813,2.318l-1.311-2.923c-2.62-6.45-4.435-5.745-3.629-14.11c0,0,0-0.202,0.102-0.504
	l-32.555-18.646c-0.404-0.303-0.706-0.605-0.908-0.907l-8.063-10.482l-1.411-1.915l-0.907-1.109
	c-0.806,1.109-1.613,2.117-2.52,3.024l4.233,20.863l-13.808,7.962l2.318-24.693c-3.729,0.504-6.45-2.117-6.45-7.055
	c0-6.35,4.536-14.111,10.079-17.336c5.543-3.226,10.079-0.706,10.079,5.745c0,2.62-0.706,5.442-2.016,8.063l4.031,0.806
	l13.002,2.419c0.101,0,0.202,0,0.202,0.101c0,0-0.102,0-0.102-0.101c0.202,0.101,0.403,0.202,0.706,0.303L340.063,185.856z
	 M257.013,253.889c31.446-18.142,20.158-11.691,51.604-29.833v13.708c-31.547,18.343-20.057,11.691-51.604,30.035V253.889
	L257.013,253.889z M257.013,277.877c31.446-18.143,20.158-11.692,51.604-29.834v13.708c-31.547,18.344-20.057,11.691-51.604,30.035
	V277.877L257.013,277.877z M330.388,291.181l-53.62,31.143v-0.201l-40.618,23.585v-19.956l40.618-23.484l13.103-7.559l40.619-23.484
	v19.957H330.388z M308.719,200.067v13.707c-31.547,18.344-20.058,11.692-51.604,30.036v-13.909
	C288.459,211.759,277.272,218.209,308.719,200.067z M265.883,114.698v-2.52c0-1.008,0.504-1.915,1.411-2.52l24.088-13.909
	c0.907-0.504,2.117,0.101,2.117,1.209v2.52c0,1.008-0.504,1.915-1.411,2.419L268,115.908
	C267.092,116.513,265.883,115.807,265.883,114.698z M302.469,338.652v3.226c0,1.311-0.705,2.521-1.813,3.226l-30.842,17.738
	c-1.209,0.706-2.721-0.201-2.721-1.612v-3.226c0-1.31,0.706-2.52,1.814-3.124l30.842-17.84
	C300.957,336.334,302.469,337.242,302.469,338.652z"></path>
<path id="color_x5F_5" fill="#FFD2BB" d="M438.535,303.881c-2.116,1.512-9.373-0.908-10.381-1.512
	c-0.706-0.404-2.117-0.908-2.822-1.714c-0.101-0.605-0.202-1.209-0.403-1.915c0.303-0.807,0.907-1.311,0.907-1.311
	s-1.512-1.915-0.807-3.124c0.706-1.21,3.125-4.334,3.125-4.334c0.302,0.201,0.604,0.403,0.906,0.604c0,0,0.102,0,0.102,0.101
	c0.302,0.202,0.504,0.303,0.806,0.403c0,0,0.102,0,0.102,0.101c0.302,0.101,0.604,0.201,0.906,0.302l0,0
	c1.21,0.403,2.521,0.504,3.629,0.504c0,0,0,0,0.101,0c0.303,0,0.504,0,0.706-0.101l0,0c1.31-0.101,2.419-0.504,3.023-0.706
	C438.435,296.624,440.651,302.369,438.535,303.881z M347.019,197.145c-0.403,0.201-2.218,2.116-3.427,4.132
	c-0.102,0.202-0.202,0.302-0.303,0.504c-0.201,0.403-0.705,2.217-1.209,2.117c-0.605-0.403,0.302-2.52,0.705-3.125l0,0
	c0.504-0.807,2.923-4.132,2.923-4.132c0.303-0.907-0.705-1.411-1.209-1.311c-0.403,0.202-2.621,2.117-4.032,4.132l-0.101,0.101
	c-0.504,0.705-0.807,3.225-1.21,3.023c-0.402-0.202-0.402-2.217,0.102-3.023c0.101-0.101,0.201-0.303,0.403-0.504
	c0.906-1.21,2.62-3.326,2.62-3.326c0.303-0.907-0.706-1.512-1.21-1.311c-0.402,0.101-2.116,1.713-3.527,3.427
	c-0.201,0.303-0.403,0.605-0.604,0.807c-0.604,0.907-0.907,1.713-1.21,2.419c-0.101,0-0.201-0.101-0.201-0.101s0-1.31,0.403-1.915
	c0.201-0.303,0.604-0.907,1.108-1.411c0.706-0.807,1.411-1.613,1.411-1.613c0.201-0.706-0.604-1.109-0.907-1.008
	c-0.201,0.101-1.108,0.806-1.915,1.713c-0.504,0.504-0.907,1.008-1.311,1.613c-0.705,1.108-1.008,2.217-1.108,2.721l0,0
	c0,0.302-0.101,0.504-0.101,0.504c-0.907,8.365,1.008,7.66,3.628,14.11l1.311,2.923c0.706-1.008,1.311-1.713,1.814-2.318
	c1.411-1.713,2.419-2.621,5.745-4.536c-0.202-0.202-0.504-1.209-0.202-1.814c0.202-0.504,0.706-0.806,1.613-0.705
	c0.101,0,0.201,0,0.302,0.101h0.102l-2.318-1.512c0-1.008-0.101-4.334,0.302-5.241l0.102-0.101c0.604-1.008,2.62-4.133,2.62-4.133
	C348.53,197.346,347.422,196.943,347.019,197.145z M412.935,212.868c-0.907,0.101-1.814-0.101-2.62-0.303l0,0
	c-0.202-0.101-0.303-0.101-0.504-0.202h-0.102c-0.101-0.101-0.302-0.101-0.402-0.201c-0.102,0-0.102,0-0.202-0.101
	c-0.101-0.101-0.302-0.101-0.403-0.202c-0.101,0-0.101-0.101-0.201-0.101c-0.101-0.101-0.201-0.101-0.303-0.202l-0.101-0.101
	c-0.101-0.101-0.201-0.101-0.303-0.202l-0.101-0.101c-0.101-0.101-0.201-0.202-0.302-0.202c0,0,0,0-0.102,0
	c-0.806-0.605-1.41-1.109-1.813-1.311c-1.311-0.504-1.814,0.907-1.814,0.907c0.101-1.209-2.318-3.729-2.318-3.729
	c0.303,0,2.621,0.907,3.729,0c1.008-0.907-0.403-8.366-1.915-9.071c-1.612-0.706-2.722,3.628-4.031,2.318
	c-1.311-1.311-1.109-3.628-1.513-6.451c0-0.202-0.101-0.403-0.101-0.605c0-0.101,0-0.201-0.101-0.302c0-0.101,0-0.202-0.101-0.302
	c0-0.202-0.101-0.302-0.101-0.504c0-0.101,0-0.101-0.102-0.202c0-0.101-0.101-0.202-0.101-0.302c0,0,0,0,0-0.101
	c-0.302-0.806-0.705-1.512-1.209-2.419c-0.102-0.101-0.102-0.202-0.202-0.403c-0.806,0.201-2.721,1.008-2.822,4.031
	c-0.101,3.729,0,4.737,0,5.342c0,0.706-2.52,2.621-2.62,3.83c-0.101,1.311,2.923,2.923,2.923,2.923s-0.303,2.419,0.201,4.939
	c1.513,6.753,1.714,5.946,6.652,4.536c0,0,1.109,2.419,0.504,3.931l-1.209,1.814l2.116,1.209l3.83,2.218
	c2.218-0.907,7.861-4.334,8.063-5.141c0.201-0.706,0.101-4.233,0-5.442C413.035,212.868,412.935,212.868,412.935,212.868z"></path>
<path id="color_x5F_4" fill="#00CEC9" d="M425.029,298.841c-1.915-10.684-1.713-23.786-1.512-31.345l4.435,2.52
	c0.907,2.621,1.714,5.342,1.714,7.559c0.101,4.233-0.605,8.466-1.109,10.785c-0.201,1.109-0.402,1.814-0.402,1.814
	s-2.419,3.125-3.125,4.334c-0.705,1.209,0.807,3.125,0.807,3.125S425.231,298.035,425.029,298.841z M150.68,380.38l-0.403,0.806
	l-0.303,0.908L149.672,383l-0.202,1.008l-0.201,1.008l-0.101,1.109l-0.101,1.108v1.21v1.209l0.101,1.209l0.101,1.21l0.201,1.21
	l0.202,1.209l0.202,1.209l0.302,1.21l0.302,1.21l0.403,1.209l0.403,1.21l0.504,1.209l0.504,1.21l0.504,1.209l0.504,1.21l0.605,1.209
	l0.604,1.108l0.706,1.109l0.706,1.108l0.706,1.108l0.706,1.008l0.806,1.009l0.807,1.008l0.806,1.008l0.806,1.008l0.907,0.907
	l0.907,0.907l0.907,0.906l0.907,0.807l0.907,0.807l0.907,0.705l0.907,0.706l1.008,0.705l0.101,0.101l0.202,0.102l0.202,0.101
	l0.201,0.101l0.101,0.101l0.202,0.101l0.202,0.102l0.201,0.101l0.101,0.101l0.202,0.101l0.101,0.101l0.202,0.102l0.101,0.101
	l0.202,0.101l0.101,0.101l0.101,0.102l1.008,0.504l0.907,0.402l1.008,0.403l0.907,0.303l0.907,0.201l0.907,0.202l0.907,0.101h0.202
	c1.008-2.116,1.613-4.838,1.613-7.963c0-12.599-8.971-28.019-20.057-34.47C155.821,381.488,153.099,380.581,150.68,380.38
	L150.68,380.38z M496.287,309.827c-0.201,0.504-0.402,1.008-0.604,1.411c0,0.101-0.101,0.303-0.201,0.604
	c7.761,1.411,13.506,5.946,13.506,11.39c0,0.806-0.101,1.713-0.403,2.52l-3.729,22.678c0,5.141-6.45,9.172-14.413,9.172
	c-7.962,0-14.412-4.133-14.412-9.172l-3.729-22.678c0.201,0.604,0.504,1.209,0.907,1.814c-0.807-1.311-1.311-2.822-1.311-4.334
	c0-4.032,3.125-7.56,7.861-9.676c-0.302-0.807-0.504-1.714-0.504-2.42c-0.604-6.047-0.604-8.566-5.946-13.102
	c-5.342-4.435-5.442-0.101-10.18-2.016c-4.637-1.915-5.946-5.039-5.946-7.861c0-0.403,0.101-0.806,0.101-1.109l-16.731-9.776
	c-0.604,5.947-1.209,11.188-1.512,13.002c-0.101,0.504-0.101,0.706-0.101,0.706s-0.504,0.302-1.411,0.504
	c0.403-0.101,0.705-0.202,0.907-0.302c-0.101,5.241,2.116,10.986,0,12.498c-2.117,1.512-9.374-0.907-10.382-1.512
	c-0.705-0.403-2.116-0.907-2.821-1.713c0.705,3.427,1.612,6.551,2.821,9.071l-3.124,2.218c0.504,8.164,1.915,33.059,1.915,33.966
	c0,1.108,4.132,59.163,4.132,59.163h-0.101c0,0.102,1.411,4.032-4.031,5.645c-5.544,1.612-7.963-3.729-9.374-7.156
	c0,0-4.333-0.504-8.365-2.116c-4.031-1.512-4.636-5.544-4.737-8.567c-0.101-2.923,1.814-4.637,4.233-5.744
	c1.411-0.706,3.83,1.914,6.753,4.334c0.303-2.017,0.604-4.838,0.504-8.366c-0.101-7.761-7.257-41.827-7.257-41.827
	s-2.318-7.258-4.435-13.305c-2.722,9.676-6.35,22.98-7.357,27.414c-1.613,7.056-8.164,50.295-8.164,50.295s-0.403,0.302-1.008,0.705
	c0,2.117,0,6.148,0,6.955c-0.101,1.008-2.318,2.821-2.318,2.821s-8.668,0.907-9.172,0c-0.403-1.008-0.604-3.225-0.604-3.225
	s-6.451,3.124-12.599,2.821c-6.148-0.302-13.405-6.248-13.103-10.684c0.302-4.435,2.721-1.008,11.087-1.209
	c7.761-0.303,11.591-2.016,12.699-2.419c-0.101-0.504-0.101-0.807-0.101-0.807s4.132-34.369,4.132-41.727
	c0-5.544,4.737-31.647,7.156-44.549c-3.226-1.915-5.745-3.427-6.148-3.729c0,0,14.816-42.433,10.986-60.474
	c0,0-21.771,2.52-23.182,2.822c-0.807,0.201-11.591-12.7-19.452-22.375v90.005c0,4.938-2.621,9.574-6.955,12.094l-117.621,67.933
	c-4.636,2.722-10.482-0.705-10.482-6.048v0.505l0.101,0.504l0.101,0.504l0.101,0.403l0.101,0.402l0.201,0.403l0.202,0.403
	l0.202,0.403l0.202,0.403l0.202,0.403l0.302,0.302l0.302,0.303l0.303,0.302l0.302,0.303l-12.397-7.155l-0.403-0.303l-0.302-0.303
	l0.101-0.101l-0.302-0.403l-0.303-0.402l-0.201-0.404l-0.202-0.402l-0.202-0.403l-0.202-0.403l-0.101-0.403l-0.101-0.504
	l-0.101-0.504l-0.101-0.504v-0.504v-78.717l-23.887,14.01v45.255l1.31,1.108l1.31,1.21l1.311,1.209l1.31,1.311l1.209,1.311
	l1.209,1.41l1.209,1.411l1.209,1.513l1.209,1.512l1.109,1.512l1.108,1.612l1.008,1.612l1.008,1.613l1.008,1.612l0.907,1.612
	l0.907,1.714l0.807,1.714l0.806,1.713l0.706,1.714l0.706,1.713l0.706,1.714l0.604,1.713l0.504,1.714l0.504,1.713l0.403,1.714
	l0.403,1.713l0.302,1.714l0.302,1.714l0.202,1.713l0.202,1.714l0.101,1.713v1.714v1.814l-0.101,1.713l-0.202,1.612l-0.302,1.613
	l-0.302,1.512l-0.403,1.411l-0.504,1.411l-0.504,1.31l-0.605,1.21l-0.706,1.209l-0.705,1.109l-0.807,1.008l-0.907,0.907
	l-0.907,1.108l-0.907,0.806l-10.482,6.048c-5.543,4.132-13.506,4.435-22.577-0.202c-0.706-0.302-1.31-0.705-1.915-1.008
	c-0.706-0.402-1.411-0.806-2.116-1.209c-16.832-10.986-30.237-34.672-30.237-54.225c0-11.49,4.637-19.15,11.894-21.771l-0.403,0.102
	l-1.008,0.403l-1.008,0.504l10.482-6.048l1.008-0.504l1.008-0.402l1.008-0.404l1.108-0.302l1.109-0.202l1.108-0.1v-22.98
	L46.262,396.909l234.336,135.058l296.825-174.869L496.287,309.827z"></path>
<path id="color_x5F_3" fill="#E84393" d="M347.22,213.674c0.403,0.504,0.807,1.008,1.108,1.411c0,0-3.325,1.31-5.14,4.132
	c-0.907,1.411-1.612,2.822-2.117,3.931c-0.504-0.604-0.806-1.008-1.108-1.411v-5.442c1.411-1.713,2.419-2.621,5.745-4.536
	C345.809,211.759,346.515,212.767,347.22,213.674z M290.476,164.488l-2.419-0.403c-0.303,0-0.504,0.101-0.706,0.302
	c-0.101,0.202-0.101,0.504,0.101,0.806l3.024,3.931l1.411,1.915v-0.101l0.101-0.403l0.101-0.403l0.101-0.303l0.202-0.302
	l0.201-0.403l0.202-0.303l0.202-0.302l0.202-0.302l0.202-0.302l0.202-0.303l0.202-0.302l0.201-0.302l0.202-0.302l0.202-0.303
	l0.202-0.302l0.202-0.202l0.302-0.202l0.101-0.101l-4.032-0.806L290.476,164.488z M378.263,407.996
	c-3.325-1.814-4.132-5.141-4.435-6.552c-1.108,0.403-4.938,2.218-12.699,2.419c-8.365,0.202-10.886-3.225-11.087,1.21
	c-0.303,4.435,6.954,10.28,13.103,10.684c6.148,0.303,12.599-2.822,12.599-2.822s0.202,2.218,0.604,3.226
	c0.403,0.907,9.172,0,9.172,0s2.218-1.814,2.318-2.822c0-0.807,0-4.838,0-6.954C385.822,407.593,381.488,409.811,378.263,407.996z
	 M430.976,405.073c-10.784,0.604-10.985-1.714-16.327-9.878c0,0,0.402-1.209,0.705-3.628c-2.923-2.419-5.342-5.04-6.753-4.334
	c-2.419,1.21-4.435,2.822-4.233,5.745c0.102,2.923,0.706,6.954,4.737,8.567c4.032,1.612,8.365,2.116,8.365,2.116
	c1.411,3.427,3.83,8.769,9.374,7.156C432.387,409.104,430.976,405.174,430.976,405.073z M406.182,243.104
	c-0.705-0.706-1.108-1.512-1.209-2.419c0-0.101,0-0.202,0-0.202c0-0.101,0-0.101,0-0.202c-0.102-1.008,0-2.117,0.302-3.225
	c0.101-0.202,0.101-0.504,0.202-0.706c0-0.101,0.101-0.202,0.101-0.303c0.705-1.713,1.713-3.427,2.923-4.737
	c0.101-0.101,0.201-0.302,0.403-0.403l0,0c0.101-0.101,0.302-0.302,0.403-0.403l0.101-0.101c0.403-0.403,0.907-0.706,1.31-0.907l0,0
	c0,0,0,0,0.102,0l0,0c0.201-0.101,0.302-0.201,0.504-0.201c0.101,0,0.201-0.101,0.302-0.101h0.102c0.101,0,0.201-0.101,0.302-0.101
	h0.101c0.907-0.202,1.814-0.101,2.621,0.302l-0.403-0.202h-0.101l0,0l-4.637-2.621l0,0l-0.101-0.101l-4.737-2.721
	c-5.442-2.822-13.203,9.474-8.869,13.909l9.676,5.543L406.182,243.104z"></path>
<path id="color_x5F_2" fill="#FBC02D" d="M347.22,213.674c-0.705-0.907-1.411-1.915-1.411-1.915
	c-0.201-0.202-0.504-1.209-0.201-1.814c0.201-0.504,0.705-0.806,1.612-0.705V213.674z M441.055,253.788
	c1.311,2.923,0.504,14.211-0.403,23.584c-0.604,5.947-1.209,11.188-1.512,13.002c-0.101,0.504-0.101,0.706-0.101,0.706
	s-1.411,0.706-3.527,0.907l0,0c-0.202,0-0.504,0-0.706,0.101c0,0,0,0-0.101,0c-1.108,0-2.318-0.101-3.628-0.504l0,0
	c-0.303-0.101-0.605-0.202-0.907-0.302c0,0-0.101,0-0.101-0.101c-0.303-0.101-0.505-0.303-0.807-0.403c0,0-0.101,0-0.101-0.101
	c-0.303-0.201-0.605-0.403-0.907-0.604c0,0,0.201-0.706,0.403-1.814c0.402-2.318,1.108-6.551,1.108-10.784
	c0-2.217-0.807-4.939-1.714-7.559c-1.713-4.637-4.031-8.87-4.031-8.87s-0.201,2.419-0.303,6.35
	c-0.302,7.559-0.402,20.662,1.513,31.346c0.101,0.604,0.201,1.31,0.402,1.915c0.706,3.427,1.613,6.552,2.822,9.071l-3.124,2.217
	c0.504,8.164,1.915,33.059,1.915,33.967c0,1.108,4.132,59.163,4.132,59.163h-0.101c-10.784,0.604-10.986-1.714-16.328-9.878
	c0,0,0.403-1.209,0.706-3.628c0.302-2.016,0.604-4.838,0.504-8.366c-0.101-7.76-7.257-41.827-7.257-41.827
	s-2.318-7.257-4.435-13.304c-2.722,9.676-6.351,22.979-7.358,27.414c-1.612,7.056-8.164,50.294-8.164,50.294
	s-0.402,0.303-1.008,0.706c-1.915,1.209-6.249,3.427-9.474,1.612c-3.326-1.814-4.133-5.14-4.435-6.551
	c-0.102-0.504-0.102-0.807-0.102-0.807s4.133-34.369,4.133-41.728c0-5.543,4.737-31.647,7.156-44.549
	c-3.226-1.914-5.745-3.426-6.148-3.729c0,0,14.816-42.433,10.986-60.474c0,0-21.771,2.52-23.182,2.822
	c-0.807,0.202-11.591-12.699-19.452-22.375v90.005c0,4.938-2.621,9.574-6.955,12.094l-117.621,67.933
	c-4.636,2.722-10.482-0.706-10.482-6.048V141.508c0-0.907,0.101-1.814,0.303-2.721v-0.101c0.302-1.613,1.008-3.226,1.814-4.637
	l0.202-0.302l0.101-0.101c0.101-0.202,0.302-0.403,0.403-0.605l0,0c0.302-0.403,0.706-0.907,1.109-1.209l0.101-0.101l0.101-0.101
	c0.504-0.504,1.108-1.008,1.814-1.512l0.202-0.101l0.202-0.101c0.202-0.101,0.403-0.302,0.604-0.403l117.42-68.033
	c1.108-0.706,2.317-0.907,3.527-0.907h0.101l0,0c3.629,0.101,6.854,2.923,6.854,6.954v122.56l-37.896-21.871l30.74,17.739V91.214
	c0-4.838-5.14-7.761-9.373-5.442l-104.62,60.373c-3.83,2.218-6.249,6.35-6.249,10.785v205.51c0,4.838,5.141,7.76,9.374,5.342
	l104.619-60.373c3.83-2.218,6.249-6.35,6.249-10.785v-74.887c0.303,0.403,0.706,0.807,1.109,1.411
	c0.504-1.109,1.209-2.52,2.116-3.931c1.814-2.923,5.141-4.132,5.141-4.132c0.201,0.201,0.403,0.403,0.403,0.504
	c0.302,0.202,13.404,12.397,19.25,19.553l0.102,0.101c0,0,0,0,0.101,0c0.705-0.302,6.551-3.326,13.002-6.551l0.302,0.202
	l10.785,6.148l0.201,0.101l-0.403-0.303l0,0l-0.101-0.101c-1.814-2.318-0.504-5.846-0.504-5.846l0,0l-45.859-26.407
	c0.604-1.008,2.62-4.133,2.62-4.133c0.202-1.008-0.906-1.411-1.31-1.209c-0.403,0.201-2.218,2.116-3.427,4.132l-0.807-0.403l0,0
	c0.504-0.806,2.923-4.132,2.923-4.132c0.303-0.907-0.705-1.411-1.209-1.311c-0.403,0.202-2.621,2.117-4.032,4.133l-0.806-0.504
	c0.906-1.21,2.62-3.326,2.62-3.326c0.303-0.907-0.705-1.512-1.209-1.311c-0.403,0.101-2.117,1.713-3.528,3.427l-0.403-0.201
	c0.706-0.807,1.411-1.613,1.411-1.613c0.202-0.706-0.604-1.109-0.907-1.008c-0.201,0.101-1.108,0.806-1.915,1.713l-29.833-17.235
	c-0.102,0.202-0.403,0.303-0.605,0.303l-4.334-0.303l0.202,1.311c0.101,0.302-0.101,0.706-0.403,0.806
	c-0.302,0.101-0.706,0.101-0.907-0.202l-8.063-10.482v-0.101l0.101-0.403l0.101-0.403l0.101-0.302l0.202-0.302l0.202-0.403
	l0.202-0.302l0.202-0.302l0.202-0.302l0.202-0.303l0.201-0.302l0.202-0.302l0.202-0.303l0.202-0.302l0.202-0.302l0.202-0.302
	l0.202-0.202l0.302-0.202l0.101-0.101l13.002,2.419c0.101,0,0.201,0,0.201,0.101l0,0c0.101,0,0.101,0.101,0.201,0.101l0,0
	c0,0.101,0.102,0.101,0.102,0.202l0,0c0,0.101,0,0.202,0,0.202c0,0.403-0.303,0.605-0.605,0.706l-1.31,0.202l2.923,4.334
	c0.101,0.202,0.201,0.504,0,0.706c-0.102,0.201-0.403,0.403-0.605,0.403c0.202,0,0.303,0,0.403-0.101l0.202,0.101l1.31,0.807
	l1.311,0.706l1.311,0.806l1.31,0.706l0.505,0.302l0.806,0.504l0.706,0.403l0.201,0.101l0.403,0.202l0.705,0.403l0.605,0.302
	l0.504,0.302l0.806,0.504l1.008,0.605l0.303,0.202l0.907,0.504l0.403,0.302l0.806,0.504l0.504,0.302l12.397,7.156l10.28,5.947
	l44.65,25.802l2.317,1.311l0.102,0.101c-0.102,0.101-0.102,0.101-0.202,0.202c0.101-0.101,0.101-0.202,0.202-0.202l0,0
	c1.008-1.108,2.217-2.016,3.427-2.419h0.101c0.201-0.101,0.504-0.101,0.705-0.202l0,0c0.202,0,0.403-0.101,0.605-0.101
	c0.101,0,0.101,0,0.201,0c0.202,0,0.504,0,0.706,0.101l0.402,0.101l0.403,0.202l4.032,2.318c-5.443-2.822-13.204,9.474-8.87,13.909
	l9.676,5.543l0.202,0.201l0.403,0.303c1.008,0.604,2.52,0.504,4.132-0.403c3.226-1.915,5.846-6.35,5.846-10.079
	c0-1.814-0.604-3.023-1.612-3.729l-0.403-0.202h-0.101l0,0l-4.637-2.621l0,0l-0.101-0.101l-4.838-2.822
	c2.218-0.907,7.861-4.334,8.063-5.14c0-0.101,0.101-0.202,0.101-0.403c0,0,2.217,1.915,3.124,3.125l0,0
	C429.061,226.474,435.411,240.786,441.055,253.788z M265.883,114.698c0,1.109,1.209,1.814,2.117,1.21l24.088-13.909
	c0.907-0.504,1.411-1.512,1.411-2.419v-2.52c0-1.109-1.209-1.814-2.117-1.21l-24.088,13.909c-0.907,0.504-1.411,1.512-1.411,2.52
	V114.698z M302.469,338.652c0-1.41-1.512-2.318-2.721-1.612l-30.842,17.84c-1.108,0.604-1.814,1.814-1.814,3.124v3.226
	c0,1.411,1.512,2.318,2.721,1.612l30.842-17.84c1.108-0.705,1.813-1.813,1.813-3.225V338.652z M118.73,279.389
	c0-0.202,0-0.302-0.101-0.504c-0.403-2.318-1.512-4.032-2.923-4.838c0,0-0.101,0-0.101-0.101h-0.101
	c-0.202-0.101-0.403-0.202-0.605-0.302c-1.411-0.504-3.023-0.302-4.838,0.806c-1.612,0.907-3.125,2.419-4.435,4.132
	c-1.512-6.35-6.451-8.869-12.195-5.543c-6.552,3.83-11.994,13.707-12.599,22.879c-2.721,2.016-4.938,5.846-5.846,9.777
	c-0.403,0.1-0.706,0.201-1.108,0.402c-2.621,1.512-4.737,5.645-4.737,9.273c0,1.813,0.504,3.124,1.411,3.83
	c0.907,0.705,2.016,0.806,3.427,0l7.761-4.436l11.792-6.854l16.63-9.575c0.302-0.202,0.604-0.403,0.907-0.604l0,0
	c2.318-1.613,4.334-4.435,5.846-7.56c0-0.101,0.101-0.101,0.101-0.201c0-0.101,0.101-0.202,0.101-0.303
	c1.109-2.721,1.814-5.644,1.814-8.466c0-0.604,0-1.209-0.101-1.814C118.73,279.489,118.73,279.389,118.73,279.389z M87.889,260.541
	l27.515-15.925l38.905-22.375c0.504-0.302,1.008-0.604,1.512-0.907c5.442-3.628,10.28-9.877,13.606-17.034
	c3.225-6.854,5.241-14.514,5.241-21.771c0-2.117-0.202-4.132-0.504-5.947c-0.907-5.039-3.124-8.769-6.047-10.885
	c-0.302-0.202-0.504-0.403-0.806-0.504c-0.101,0-0.202-0.101-0.202-0.101c-0.403-0.202-0.907-0.403-1.31-0.605
	c-3.225-1.108-7.156-0.604-11.389,1.814c-3.729,2.117-7.257,5.543-10.281,9.776c-3.527-14.917-15.018-20.763-28.523-13.001
	c-15.32,8.869-28.02,32.152-29.632,53.519c-6.35,4.636-11.49,13.606-13.607,22.778c-0.806,0.202-1.612,0.605-2.52,1.008
	c-6.148,3.528-11.087,13.304-11.087,21.67c0,5.241,1.915,8.769,4.939,9.877l0,0c0.201,0.101,0.403,0.101,0.604,0.202
	c0.101,0,0.202,0.101,0.302,0.101h0.101c1.512,0.202,3.326-0.202,5.14-1.209L87.889,260.541z M217.302,122.459l2.117,1.31
	c0.907,0.504,2.016,0.504,2.923,0l13.808-7.962c0.907-0.504,0.907-1.915,0-2.419l-2.217-1.31c-0.907-0.504-2.016-0.504-2.923,0
	l-13.808,7.962C216.395,120.544,216.395,121.854,217.302,122.459z M190.794,422.51c0,0.705,0.101,1.512,0.101,2.218
	c0,0.906,0,1.813-0.101,2.62c-0.101,1.713-0.302,3.226-0.604,4.737c-0.101,0.504-0.202,0.907-0.302,1.411
	c-0.303,1.209-0.706,2.317-1.21,3.427c-0.201,0.504-0.504,1.008-0.705,1.512l0,0c0,0.101-0.101,0.201-0.101,0.302
	c-1.209,2.218-2.822,4.133-4.636,5.544c-5.543,4.133-13.506,4.435-22.577-0.201c-0.706-0.303-1.311-0.706-1.915-1.009
	c-0.706-0.402-1.411-0.806-2.117-1.209c-16.832-10.986-30.237-34.672-30.237-54.225c0-11.49,4.636-19.15,11.893-21.771
	c0.706-0.202,1.411-0.403,2.117-0.604c1.915-0.404,4.032-0.504,6.249-0.202c0.504,0.101,1.008,0.101,1.512,0.202
	c1.008,0.201,2.117,0.402,3.125,0.806c0.504,0.202,1.008,0.303,1.512,0.504v-7.659v-22.98v-30.035l-15.723-9.071v-0.101l0,0
	c-1.31-0.806-2.419-2.62-2.419-4.132l0,0c0-0.101,0-0.101,0-0.201v-6.854c0-0.604,0.202-1.713,1.008-2.016l0,0
	c0.202-0.101,0.403-0.101,0.706,0c0.202,0,0.302,0.101,0.504,0.202c0,0,0.101,0,0.101,0.101c0,0,0,0,0.101,0
	c0.101,0,0.101,0.101,0.202,0.101l15.623,9.071v-9.776l-8.265-4.737l-7.458-4.334v-0.101l0,0c-1.311-0.706-2.419-2.621-2.419-4.132
	c0-0.101,0-0.202,0-0.202l0,0v-6.854l0,0l0,0c0-0.101,0-0.202,0-0.302l0,0c0-0.806,0.302-1.411,0.806-1.613h0.101
	c0.202,0,0.303-0.101,0.504,0c0.101,0,0.202,0,0.202,0c0.101,0,0.202,0.101,0.302,0.101l0.605,0.302l0,0l15.521,8.97
	c0.302,0.202,0.807,0.403,1.209,0.706c0,0,0.101,0,0.101,0.101c0.101,0,0.201,0.101,0.201,0.101
	c0.101,0.101,0.202,0.101,0.303,0.202l0,0c0.101,0.101,0.201,0.101,0.302,0.202c0.101,0.101,0.202,0.101,0.302,0.202l0,0
	c0.202,0.101,0.504,0.302,0.706,0.403c0,0,0.101,0,0.101,0.101c0.101,0.101,0.302,0.202,0.403,0.202
	c0.101,0.101,0.202,0.101,0.302,0.201c0.504,0.303,1.109,0.605,1.613,0.907l0.101,0.101c0.302,0.201,0.604,0.403,0.907,0.504
	c0.101,0.101,0.202,0.101,0.403,0.202c0.202,0.101,0.302,0.201,0.504,0.302c0.403,0.202,0.806,0.504,1.109,0.806l0,0
	c0.302,0.302,0.604,0.504,0.907,0.806l0.101,0.101c0.202,0.202,0.403,0.504,0.604,0.706c0.101,0.101,0.101,0.202,0.202,0.302
	c0.202,0.302,0.403,0.504,0.504,0.806c0,0.101,0.101,0.101,0.101,0.202c0.403,0.605,0.604,1.209,0.806,1.814
	c0,0.101,0,0.101,0.101,0.201c0.101,0.202,0.101,0.403,0.202,0.605c0,0.101,0,0.202,0,0.302c0,0.202,0,0.302,0,0.504v92.223
	c0.706,0.604,1.411,1.209,2.016,1.814c1.814,1.612,3.527,3.326,5.14,5.24c0.706,0.807,1.512,1.714,2.217,2.621
	c2.217,2.822,4.334,5.745,6.148,8.869c0.706,1.21,1.411,2.419,2.016,3.629c0.403,0.705,0.706,1.411,1.108,2.116
	c0.303,0.706,0.706,1.411,1.008,2.117c0.201,0.402,0.403,0.906,0.604,1.31s0.403,0.807,0.504,1.311
	c1.008,2.52,1.915,5.141,2.621,7.761c0.403,1.512,0.806,3.124,1.109,4.637c0.101,0.504,0.201,1.008,0.302,1.411
	c0.202,1.209,0.403,2.418,0.504,3.628C190.694,420.897,190.794,421.703,190.794,422.51z M178.599,417.571
	c0-12.599-8.97-28.02-20.057-34.47c-2.822-1.613-5.543-2.521-7.962-2.723c-2.318-0.201-4.435,0.303-6.249,1.311
	c-0.302,0.202-0.604,0.403-0.907,0.605c-0.101,0.101-0.302,0.201-0.403,0.303c-0.605,0.504-1.109,1.008-1.613,1.611l0,0
	c0,0,0,0,0,0.102c-0.403,0.604-0.806,1.209-1.109,1.915c-0.604,1.31-1.108,2.821-1.411,4.435c-0.101,0.303-0.101,0.705-0.101,1.008
	c-0.101,0.907-0.202,1.814-0.202,2.822c0,0.604,0,1.209,0.101,1.814c0,0.302,0.101,0.705,0.101,1.008
	c0,0.403,0.101,0.907,0.202,1.31c0,0.303,0.101,0.605,0.101,0.807c0.202,1.21,0.504,2.52,0.807,3.729
	c0.101,0.403,0.202,0.806,0.302,1.209c0.202,0.605,0.403,1.109,0.605,1.714c0,0.101,0.101,0.201,0.101,0.302
	c0.202,0.605,0.504,1.21,0.706,1.915c0.806,1.915,1.713,3.729,2.721,5.544c0.202,0.403,0.504,0.807,0.706,1.209
	c0.202,0.403,0.504,0.706,0.706,1.109c0.202,0.302,0.403,0.705,0.706,1.008c0.202,0.302,0.403,0.604,0.706,0.907
	c0.302,0.504,0.706,0.907,1.008,1.411c0.302,0.402,0.604,0.806,0.907,1.108c0.101,0.101,0.101,0.101,0.202,0.201
	c0.403,0.504,0.806,0.907,1.209,1.411c0.302,0.403,0.705,0.706,1.008,1.109c0.202,0.201,0.302,0.302,0.504,0.504
	c0.403,0.402,0.706,0.705,1.108,1.008c0.303,0.302,0.605,0.504,0.907,0.806c1.109,0.907,2.217,1.814,3.427,2.521
	c0.202,0.101,0.303,0.201,0.504,0.302l0,0c0.202,0.101,0.403,0.202,0.504,0.303c0.101,0,0.202,0.101,0.202,0.101
	c0.303,0.201,0.706,0.403,1.008,0.504c0.101,0,0.101,0.101,0.202,0.101c1.512,0.706,2.923,1.311,4.233,1.613
	c0.202,0.101,0.504,0.101,0.706,0.201c2.318,0.504,4.435,0.403,6.35-0.201c0.302-0.102,0.504-0.202,0.806-0.303
	c2.217-1.008,4.032-2.722,5.141-5.241C178.095,423.417,178.599,420.796,178.599,417.571z M495.481,311.943
	c-0.202,0.605-0.604,1.613-0.907,2.822c6.652,1.008,11.591,4.535,11.591,8.668c0,0.201,0,0.504-0.101,0.705
	c-0.605,4.637-7.357,8.266-15.521,8.266s-14.917-3.629-15.521-8.266c0-0.201,0-0.504,0-0.705c0-2.822,2.317-5.342,5.946-7.055
	c-0.403-0.908-0.807-1.814-1.108-2.621c-4.737,2.117-7.862,5.645-7.862,9.676c0,2.016,0.807,3.931,2.218,5.645l0.101,0.101
	c0.202,0.302,0.504,0.604,0.807,0.806c0,0,0.101,0.102,0.201,0.102c0.303,0.303,0.604,0.504,0.907,0.705
	c0.101,0,0.101,0.102,0.201,0.102c0.303,0.201,0.706,0.504,1.009,0.705l0.101,0.101c0.806,0.504,1.713,1.008,2.721,1.411h0.102
	c0.402,0.201,0.906,0.403,1.31,0.504c0.102,0,0.303,0.102,0.403,0.102c0.403,0.1,0.706,0.201,1.108,0.302
	c0.202,0,0.403,0.101,0.505,0.101c0.302,0.102,0.705,0.201,1.008,0.201c0.201,0,0.402,0.102,0.604,0.102
	c0.403,0.101,0.705,0.101,1.108,0.201c0.202,0,0.403,0.102,0.604,0.102c0.403,0,0.807,0.1,1.21,0.1c0.201,0,0.403,0,0.504,0
	c0.604,0,1.209,0.102,1.814,0.102c0.604,0,1.209,0,1.813-0.102c0.202,0,0.403,0,0.505,0c0.402,0,0.806-0.1,1.209-0.1
	c0.201,0,0.403-0.102,0.604-0.102c0.403-0.101,0.706-0.101,1.109-0.201c0.201,0,0.402-0.102,0.604-0.102
	c0.403-0.1,0.705-0.201,1.108-0.302c0.202,0,0.303-0.101,0.504-0.101c0.403-0.102,0.706-0.201,1.108-0.303
	c0.102,0,0.303-0.101,0.403-0.101c0.403-0.202,0.907-0.302,1.311-0.504c0,0,0.101,0,0.101-0.101
	c0.907-0.403,1.814-0.907,2.621-1.412c0.101-0.1,0.201-0.1,0.302-0.201c0.303-0.201,0.604-0.402,0.907-0.604
	c0.101-0.101,0.202-0.202,0.303-0.302c0.201-0.202,0.504-0.404,0.705-0.605c0.101-0.101,0.202-0.201,0.303-0.303
	c0.201-0.201,0.403-0.402,0.604-0.604c0.101-0.102,0.202-0.202,0.303-0.404c0.201-0.201,0.302-0.402,0.403-0.604
	c0.101-0.101,0.201-0.302,0.302-0.403c0.101-0.201,0.202-0.402,0.303-0.604c0.302-0.504,0.504-1.008,0.705-1.411
	c0.303-0.807,0.403-1.612,0.403-2.52C508.987,317.891,503.242,313.354,495.481,311.943z M288.057,163.984l2.419,0.403l1.008,0.202
	c1.31-2.621,2.016-5.543,2.016-8.063c0-6.35-4.536-8.87-10.079-5.745c-5.543,3.225-10.079,10.986-10.079,17.336
	c0,4.938,2.621,7.559,6.45,7.055l-2.318,24.693l13.808-7.962l-4.233-20.863c0.907-0.907,1.714-1.915,2.52-3.024l0.907,1.109
	l-3.024-3.931c-0.202-0.202-0.202-0.504-0.101-0.806C287.553,164.085,287.754,163.984,288.057,163.984z M483.688,302.57
	c-1.31,11.188,4.233,17.84,10.685,25.398c0,0.102,0.101,0.102,0.101,0.202c0-0.101-0.101-0.101-0.101-0.202
	c-3.528-7.256-8.87-15.32-8.668-23.282c0-0.101,0.101-0.806,0.101-1.915c0.101-1.008,0.403-2.116,0.705-3.225
	c1.21-4.032,4.133-8.365,7.257-13.002l0.504-0.706c7.156-9.575,16.933-10.583,27.415-12.901c-9.373-0.403-13.909-0.706-22.577,5.342
	c3.024-5.241,5.342-10.885,5.342-16.933c0-7.458-4.636-12.498-8.97-17.335c-4.435-4.838-8.668-9.475-6.954-16.126
	c1.108-4.032,2.52-6.854,3.829-9.172c5.745-10.986,3.326-15.018-3.023-24.794c3.629,7.962,6.854,12.901,1.008,23.787
	c-1.31,2.52-2.822,5.342-3.931,9.676c-1.008,3.628-0.504,6.652,0.807,9.474c-8.769-3.326-9.776-7.458-13.204-15.018
	c-0.201,9.877,5.241,15.32,14.816,17.84c1.411,2.016,3.125,3.931,4.938,5.846c4.133,4.535,8.366,9.172,8.366,15.824
	c0,8.466-4.939,16.126-9.777,23.283c-0.504,0.705-1.008,1.31-1.411,2.116c-2.217,3.427-4.333,6.652-5.744,9.777
	c-2.218-12.196-11.087-18.243-22.98-17.235C472.4,279.489,484.193,284.831,483.688,302.57z M208.836,175.575v-0.101l-0.101-0.101
	l-0.101-0.101l-0.101-0.101l-0.101-0.101l-0.101-0.101l-3.125-1.814l-0.101-0.101h-0.101h-0.101h-0.101h-0.101h-0.101h-0.101
	l-0.101,0.101l-1.31,0.807l0.101-0.101l0.101-0.101h0.101h0.101h0.101h0.101l0.101,0.101l0.101,0.101l3.125,1.814l0.101,0.101
	l0.101,0.101l0.101,0.101l0.101,0.101l0.101,0.101l0.101,0.101v0.101v0.101v10.18v0.101v0.101l-0.101,0.101l-0.101,0.101
	l-0.101,0.101l-0.101,0.101l-0.101,0.101l1.209-0.706l0.101-0.101l0.101-0.101l0.101-0.101l0.101-0.101l0.101-0.101l0.101-0.101
	v-0.101v-0.101v-10.18v-0.101L208.836,175.575z M208.836,159.449v-0.101l-0.101-0.101l-0.101-0.101l-0.101-0.101l-0.101-0.101
	l-0.101-0.101l-3.125-1.814l-0.101-0.101h-0.101h-0.101h-0.101h-0.101h-0.101h-0.101l-0.101,0.101l-1.31,0.806l0.101-0.101
	l0.101-0.101h0.101h0.101h0.101h0.101l0.101,0.101l0.101,0.101l3.125,1.814l0.101,0.101l0.101,0.101l0.101,0.101l0.101,0.101
	l0.101,0.101l0.101,0.101v0.101v0.101v10.18v0.101v0.101l-0.101,0.101l-0.101,0.101l-0.101,0.101l-0.101,0.101l-0.101,0.101
	l1.209-0.706l0.101-0.101l0.101-0.101l0.101-0.101l0.101-0.101l0.101-0.101l0.101-0.101v-0.101v-0.101v-10.18v-0.101
	L208.836,159.449z"></path>
<path id="color_x5F_1_1_" fill="#013D4E" d="M396.809,191.399c0,0.101,0.101,0.202,0.101,0.302s0,0.101,0.101,0.202
	c0.101,0.202,0.101,0.302,0.101,0.504c0,0.101,0.102,0.202,0.102,0.302c0,0.101,0,0.202,0.101,0.302
	c0,0.202,0.101,0.403,0.101,0.605c0.403,2.721,0.201,5.14,1.512,6.451c1.311,1.31,2.419-3.024,4.032-2.318
	c1.612,0.706,3.023,8.164,1.914,9.071c-1.008,0.907-3.427,0-3.729,0c0,0,2.419,2.52,2.318,3.729c0,0,0.504-1.411,1.813-0.907
	c0.403,0.202,1.109,0.706,1.814,1.311c0,0,0,0,0.101,0c0.101,0.101,0.202,0.202,0.303,0.202l0.101,0.101
	c0.101,0.101,0.201,0.101,0.303,0.202l0.101,0.101c0.101,0.101,0.201,0.101,0.303,0.202c0.101,0,0.101,0.101,0.201,0.101
	c0.101,0.101,0.201,0.101,0.403,0.202c0,0,0.101,0,0.201,0.101c0.101,0.101,0.303,0.101,0.403,0.201h0.101
	c0.202,0.101,0.303,0.101,0.504,0.202l0,0c0.807,0.202,1.613,0.303,2.621,0.303c0.403,0,0.806-0.101,1.209-0.101
	c4.737-0.907,10.482-11.288,10.785-18.646c0,0,0.101-3.729-2.521-5.443c0,0,1.21-6.047-0.504-8.164
	c-1.813-2.117-5.543-3.125-6.147-4.334c-0.605-1.209-8.467-1.814-12.599,0c-4.133,1.814-6.854,0.706-7.862-1.109
	c0,0-0.604-0.504-1.209,0.605c-2.117,3.83-1.613,6.551,0.201,10.583c0.504,1.21,1.008,2.117,1.411,2.822
	C396.103,189.888,396.506,190.593,396.809,191.399L396.809,191.399z"></path>
</svg>