<?xml version="1.0" standalone="no"?>
<svg version="1.1" id="color_x5F_1" xmlns="http://www.w3.org/2000/svg" xmlns:xlink="http://www.w3.org/1999/xlink" x="0px" y="0px" width="600px" height="600px" viewBox="0 0 600 600" enable-background="new 0 0 600 600" xml:space="preserve">
<path id="color_x5F_9" fill="#FD6322" d="M307.509,321.217C307.509,321.115,307.509,321.115,307.509,321.217
	c0.303-0.202,0.504-0.303,0.706-0.404l0,0c0.302-0.1,0.604-0.1,0.906-0.1l22.174-12.801c4.536-9.979,9.172-20.259,10.18-21.972
	c1.915-3.628,9.979-7.055,9.979-7.055c-0.907-0.605-1.411-1.008-1.411-1.008s1.311-1.512,2.62-4.939
	c0.504-1.31,0.807-2.217,1.009-2.822c-0.202,0.604-0.505,1.31-0.807,2.318c-0.604-0.605-1.411-1.613-1.814-3.225
	c-0.604-2.218-0.604-5.846-0.604-7.56c-0.604-0.907-1.008-2.116-0.907-3.729c0.303-2.923,2.923-4.737,2.923-4.737v-3.326
	l-16.126-9.374l18.848-10.785v-64.404l-156.728,90.408v129.212L306.4,322.426l0.504-0.605
	C307.105,321.418,307.308,321.316,307.509,321.217z"></path>
<path id="color_x5F_8" fill="#67A2C1" d="M548.899,403.863v17.538L251.067,593.247L17.235,457.987v-14.614l233.832,134.554
	L548.899,403.863z M181.018,509.088l-1.311-0.705c0,0-4.636,4.232-0.302,7.458c0.504,0.303,1.008,0.705,1.713,1.008l76.5-44.649l0,0
	l0,0l0,0c-0.202-0.303-0.403-0.605-0.605-0.807c0-0.101-0.101-0.101-0.101-0.201c-0.202-0.303-0.302-0.504-0.403-0.807v-0.101
	c-0.101-0.303-0.202-0.504-0.302-0.807v-0.101c-0.101-0.303-0.101-0.504-0.101-0.807c0-0.101,0-0.101,0-0.201
	c0-0.303,0-0.504,0-0.807c0,0,0,0,0-0.101c0-0.202,0-0.504,0.101-0.706v-0.101c0-0.201,0.101-0.504,0.202-0.705v-0.101
	c0.101-0.202,0.101-0.504,0.202-0.706L181.018,509.088z M125.181,480.968l-5.04-2.822c-0.101,1.108-0.403,2.116-0.907,3.226
	c-0.302,0.806-0.806,1.512-1.31,2.317c-3.326,5.141-9.273,8.87-9.273,8.87l5.141-0.706l0.302,4.032
	c3.023-2.117,5.947-6.35,8.063-9.777c0.504-0.806,0.907-1.612,1.311-2.217C124.576,482.177,125.181,480.968,125.181,480.968z
	 M187.267,141.408v12.296c0,0,2.621,3.83,7.861,7.962v-15.723L187.267,141.408z M220.729,160.86l-23.081-13.405l-0.101,0.101v16.026
	c5.543,3.931,13.304,7.66,23.182,8.567c0,0,22.073-1.108,33.563-18.444v-12.296l0,0l0,0L220.729,160.86z M366.27,253.385v-1.31
	v-3.125l0,0l-7.56,4.435l-6.249-3.628l0,0v3.326C352.461,253.083,356.795,258.727,366.27,253.385z"></path>
<path id="color_x5F_7" fill="#D0E7DF" d="M331.194,333.412l5.645,3.124l-5.544,27.112c0,0,3.427-0.705,8.366,5.745
	c1.41,1.814,4.132,3.427,7.659,4.536l0,0l0,0c0,0-0.906,0.604,0,2.016c0.907,1.41,3.326,3.729,3.326,3.729
	c-1.31-0.807-4.636-2.721-5.846-2.62c-1.512,0-3.124,2.116-2.923,4.132c0.202,2.016,8.365,6.048,9.575,7.156
	c1.209,1.109,3.326,1.21,4.435,1.008c1.108-0.101,1.915-0.504,1.915-0.504l-0.201-4.232c0.604,0.402,1.411,0.705,2.419,0.504
	c1.915-0.403,2.116-4.737,1.915-5.342c-0.102-0.202-0.303-0.605-0.504-1.109l0.906-3.527l0,0c6.451-0.907,13.104-3.729,18.445-9.475
	c0,0-3.629-23.182-4.436-34.57l-0.201-3.729c0-0.101,0-0.202,0-0.202s0.101,0,0.201-0.1l0,0l0,0c0.102,0,0.102-0.102,0.202-0.102
	c0,0,0.101,0,0.201-0.101c0.101,0,0.101-0.101,0.202-0.101c0.101,0,0.201-0.102,0.302-0.201c0,0,0.101,0,0.101-0.102
	c0.202-0.101,0.303-0.201,0.505-0.303l0,0c0.604-0.402,1.41-0.806,2.217-1.41c0,0,0,0,0.101,0c0.202-0.202,0.504-0.303,0.807-0.504
	c0.101,0,0.101-0.102,0.201-0.102c0.202-0.201,0.504-0.302,0.706-0.504c0.101-0.101,0.201-0.101,0.201-0.201
	c0.202-0.201,0.403-0.303,0.605-0.504l50.696,29.33l-145.54,83.957l-73.173-42.13l104.317-59.868l-0.101,0.1
	c-0.706,0.605-0.303,2.318,0.201,2.822c0.604,0.504,4.031,1.21,4.535,1.512c0.403,0.303,2.419,0.404,3.125,0.303
	c0.201,0,0.504-0.201,0.807-0.303l0,0l5.039,2.924l2.62-5.947L331.194,333.412L331.194,333.412L331.194,333.412z M343.592,410.112
	l27.817,16.529l45.255-26.104l-28.12-17.234L343.592,410.112z M114.094,478.448c0,0-4.536-3.326-0.101-6.351
	c0,0,1.814-0.402,3.427,0.706l63.598,36.385l75.491-43.944c1.008-2.419,2.923-4.031,2.923-4.031l-78.616,45.053l-64.304-36.385
	c-0.101-0.101-0.302-0.101-0.403-0.201c-0.504-0.202-1.512-0.605-2.721-0.505l-4.132,2.419c-0.403,1.009-0.605,1.915-0.504,2.722
	c0.101,2.218,1.31,3.931,2.621,5.141c0.202,0.201,0.403,0.403,0.604,0.504c0.302,0.201,0.605,0.504,0.807,0.604
	c0.806,0.504,1.411,0.807,1.411,0.807l3.931,2.217c0.504-0.705,0.907-1.512,1.31-2.318L114.094,478.448z M259.432,473.912
	c-0.302-0.302-0.604-0.504-0.907-0.806c-0.101-0.102-0.101-0.102-0.201-0.202c-0.303-0.302-0.504-0.504-0.706-0.807l0,0l0,0l0,0l0,0
	l-76.5,44.65c-0.706-0.303-1.209-0.604-1.713-1.008l-55.736-31.95c-0.403,0.705-0.807,1.411-1.311,2.217l58.861,33.765
	L259.432,473.912z M116.009,469.578c0.101,0.101,0.302,0.101,0.403,0.202l78.313-46.162l0,0l-2.621-1.512l0,0l-78.918,46.968
	C113.288,469.074,114.598,468.873,116.009,469.578z M214.48,468.066l15.824-9.071l-35.579-21.367l-16.731,9.374L214.48,468.066z"></path>
<path id="color_x5F_6" fill="#B4CAC1" d="M181.22,394.49v-45.154v-96.757l179.809-103.612l5.342,3.125l0,0L187.368,255.905v141.609
	l-2.016-1.008c-0.202-0.101-0.504-0.302-0.706-0.403L181.22,394.49z M310.23,468.873l-122.963-71.359v6.451l122.862,70.955
	l179.003-103.208v-2.521v-4.132L310.23,468.873z M184.042,396.002c-1.713-0.201-3.125,1.108-3.125,2.923
	c0,1.915,1.411,3.629,3.125,3.931c1.713,0.303,3.125-1.008,3.125-2.923c0-1.411-0.706-2.721-1.814-3.427
	c-0.202-0.101-0.504-0.303-0.706-0.403C184.445,396.103,184.243,396.002,184.042,396.002z"></path>
<path id="color_x5F_5" fill="#FFD2BB" d="M350.445,261.549L350.445,261.549c0.504,0.806,1.108,1.411,1.512,1.915
	c0.907,1.209,0.907,2.117,0.907,2.117s-0.101-2.218,1.108-2.419c1.21-0.202,1.714,3.83,0.807,4.636
	c-0.101,0.101-0.101,0.101-0.101,0.202c0,0,0,0-0.102,0.101l-0.101,0.101c0,0,0,0-0.101,0.101c0,0,0,0.101-0.101,0.101
	c0,0,0,0.101-0.101,0.101c0,0,0,0.101-0.102,0.101c0,0,0,0.101-0.101,0.101v0.101c0,0,0,0.101-0.101,0.101v0.101v0.101v0.101v0.101
	c0,0,0,0.101-0.101,0.101v0.101c0,0.101,0,0.101-0.102,0.202v0.101c0,0.101-0.101,0.101-0.101,0.202c0,0,0,0,0,0.101
	c-0.201,0.604-0.504,1.31-0.806,2.318c-0.605-0.604-1.411-1.612-1.814-3.225C350.445,266.891,350.445,263.162,350.445,261.549z
	 M349.739,374.635L349.739,374.635l1.613,9.272c0,0,1.915,2.116,5.442,0v-2.218v-6.248c-0.101,0-0.201,0-0.201,0l0,0
	c-0.504,0-1.009,0-1.513-0.102c-0.101,0-0.201,0-0.302,0c-0.504,0-1.008-0.101-1.411-0.101c-0.101,0-0.202,0-0.303,0
	c-1.108-0.101-2.116-0.302-3.124-0.504l0,0C349.841,374.635,349.841,374.635,349.739,374.635z M358.206,375.542
	c-0.101,0-0.101,0-0.202,0c-0.402,0-0.806,0-1.209,0v6.249c0.807,1.713,3.729,0.604,3.729,0.604l0.907-3.628l0,0l0.906-3.528l0,0
	c-0.504,0.101-0.906,0.101-1.41,0.202l0,0c-0.403,0-0.907,0.101-1.311,0.101h-0.101
	C359.013,375.441,358.609,375.441,358.206,375.542L358.206,375.542L358.206,375.542z M319.1,337.141
	c0.604,0.504,4.031,1.21,4.535,1.512c0.403,0.303,2.419,0.404,3.125,0.303c0.201,0,0.504-0.201,0.807-0.303
	c0.302-0.201,0.504-0.402,0.806-0.604l0,0c0.101-0.101,0.202-0.201,0.303-0.302c0,0,0,0,0.101-0.102
	c0.101-0.101,0.201-0.201,0.201-0.302c0.403-0.604,1.109-0.706,1.311-1.814c0-0.101,0.101-0.302,0.101-0.403c0,0,0,0,0-0.101
	s0.102-0.202,0.102-0.302l0,0c0-0.102,0.101-0.202,0.101-0.303l0,0c0-0.102,0.101-0.201,0.101-0.303c0,0,0,0,0-0.101
	s0.101-0.202,0.101-0.202l0,0c0-0.1,0.101-0.1,0.101-0.201l0,0c0,0,0-0.101,0.102-0.101l0,0l-2.621-1.411l-2.822-1.613l-1.612-0.906
	c0,0-0.303-0.102-0.705-0.201c0,0,0,0-0.102,0c-0.101,0-0.302-0.102-0.504-0.102c-0.101,0-0.101,0-0.201,0h-0.101
	c-0.102,0-0.202,0-0.202-0.101c-0.101,0-0.101,0-0.201,0s-0.101,0-0.202,0c-0.101,0-0.101,0-0.201,0s-0.201,0-0.303-0.101h-0.101
	c-0.101,0-0.201,0-0.201-0.102c-0.102,0-0.102,0-0.202,0h-0.101c-0.101,0-0.201,0-0.201-0.101c-0.102,0-0.102,0-0.202,0
	s-0.101,0-0.201,0s-0.202,0-0.202-0.101h-0.101c-0.101,0-0.101,0-0.201-0.101h-0.102c-0.101,0-0.201-0.101-0.302-0.101
	c-1.311-0.403-1.21,1.209-0.907,1.209s1.108,1.311,1.714,1.512c0.101,0,0.101,0.102,0.101,0.201v0.102c0,0.101,0,0.101,0,0.201
	c0,0,0,0.102,0,0.201c0,0.102,0,0.202-0.101,0.303c0,0.102,0,0.102-0.102,0.202c0,0.101-0.101,0.201-0.101,0.302
	c0,0.102-0.101,0.102-0.101,0.202s-0.101,0.201-0.101,0.302c0,0.102-0.102,0.102-0.102,0.202c-0.101,0.101-0.101,0.202-0.201,0.403
	c-0.101,0.101-0.101,0.201-0.201,0.303c0,0.1-0.102,0.1-0.102,0.201l0,0c-0.101,0.101-0.101,0.201-0.201,0.303l-0.101,0.1
	C318.192,334.924,318.596,336.637,319.1,337.141z"></path>
<path id="color_x5F_4" fill="#00CEC9" d="M548.899,403.863l-59.768-34.771v2.52L310.129,474.819l-122.862-70.956v-6.45l-2.016-1.008
	c1.109,0.705,1.814,2.016,1.814,3.427c0,1.915-1.411,3.226-3.125,2.923s-3.125-2.116-3.125-3.931c0-1.915,1.411-3.226,3.125-2.923
	c0.202,0,0.403,0.101,0.504,0.101l-3.326-1.713v-45.154L17.235,443.373l233.832,134.554L548.899,403.863z M114.194,495.885
	l-0.302-4.032l-5.14,0.706c0,0,5.946-3.729,9.272-8.87l-3.931-2.217c0,0-0.605-0.303-1.411-0.807
	c-0.302-0.201-0.504-0.403-0.806-0.604c-0.202-0.201-0.403-0.303-0.605-0.504c-1.31-1.21-2.52-2.923-2.621-5.141
	c0-0.806,0.101-1.713,0.504-2.721l82.95-49.387l0,0l0,0l2.621,1.512l0,0l64.606,37.493c0,0-1.915,1.613-2.923,4.032
	c-0.101,0.201-0.202,0.402-0.202,0.705v0.101c-0.101,0.202-0.101,0.504-0.202,0.706v0.101c0,0.201-0.101,0.504-0.101,0.705
	c0,0,0,0,0,0.102c0,0.302,0,0.504,0,0.806c0,0.101,0,0.101,0,0.202c0,0.302,0.101,0.504,0.101,0.806v0.102
	c0.101,0.302,0.202,0.504,0.302,0.806v0.101c0.101,0.303,0.303,0.504,0.403,0.807c0,0.101,0.101,0.101,0.101,0.201
	c0.202,0.303,0.403,0.605,0.605,0.807l0,0c0.202,0.303,0.403,0.504,0.706,0.807c0.101,0.101,0.101,0.101,0.202,0.201
	c0.302,0.303,0.604,0.504,0.907,0.807l-78.313,45.96l-58.861-33.765C120.141,489.535,117.117,493.768,114.194,495.885z"></path>
<path id="color_x5F_3" fill="#E84393" d="M197.648,147.556v16.026v22.073c4.535,2.822,3.628,10.18,3.628,10.18l-0.403-1.915
	c-0.403,1.311,0.302,6.047,0.302,6.047c-2.318-1.613-2.721-6.047-2.721-6.047c-1.411,2.52,0.907,8.366,0.907,8.366
	c-2.721-2.117-2.721-6.35-2.721-6.35c-0.807,3.427-2.822,6.652-2.822,6.652c0.706-1.713,0.604-6.35,0.604-6.35
	c-0.403,1.814-3.326,5.745-3.326,5.745s1.209-1.714,1.512-5.141c0.302-3.326-0.907-5.644,0-8.265s2.621-2.923,2.621-2.923v-24.089
	v-15.723l0,0l0,0l23.182-27.918c2.318-0.403,2.419,1.108,2.419,1.108L197.648,147.556L197.648,147.556L197.648,147.556z
	 M356.795,383.907c-3.427,2.116-5.442,0-5.442,0l-0.706-4.233c-1.31-0.807-4.636-2.721-5.846-2.62c-1.512,0-3.124,2.116-2.923,4.132
	c0.202,2.016,8.365,6.048,9.575,7.156c1.209,1.109,3.326,1.21,4.435,1.008c1.108-0.101,1.915-0.504,1.915-0.504l-0.201-4.232
	C357.098,384.311,356.795,383.907,356.795,383.907z M347.32,373.93c0,0-0.906,0.604,0,2.016c0.907,1.41,3.326,3.729,3.326,3.729
	l-0.907-5.141l0,0h0.102l0,0C349.034,374.434,348.127,374.231,347.32,373.93L347.32,373.93L347.32,373.93z M360.524,382.396
	c0,0-2.923,1.108-3.729-0.604v2.217c0,0,0.303,0.403,0.907,0.706c0.604,0.403,1.411,0.705,2.419,0.504
	c1.915-0.403,2.116-4.737,1.915-5.342c-0.101-0.202-0.303-0.604-0.504-1.108l0,0L360.524,382.396z M309.727,320.813
	c-0.504-0.1-1.008-0.1-1.512,0l0,0c-0.202,0.102-0.403,0.202-0.605,0.303c0,0-0.101,0-0.101,0.102
	c-0.201,0.1-0.403,0.302-0.504,0.504l-0.504,0.604l-0.202,0.202c-0.101,0.101-0.201,0.302-0.302,0.403c0,0.101,0,0.101-0.101,0.201
	c0,0.102-0.102,0.202-0.102,0.303s0,0.101-0.101,0.201c0,0.102,0,0.202,0,0.202c0,0.101,0,0.202,0,0.302v0.102
	c0,0.504,0.202,1.108,0.604,1.512l0,0l0,0C310.028,324.845,309.827,321.418,309.727,320.813z M322.93,326.457
	c-0.101,0.201-0.101,0.303-0.201,0.504c-0.202,0.504-0.403,0.907-0.505,1.109c-0.101,0.201-0.101,0.201-0.101,0.201l3.629,2.016
	l2.822,1.613l2.62,1.41l5.645,3.125l2.419-4.133c-7.862-0.906-15.421-7.76-15.421-7.76l0,0l0,0
	C323.434,325.349,323.232,325.953,322.93,326.457z M376.046,324.543c0,0-17.537,4.434-25.803-5.847v5.946
	c0,0,6.552,9.878,26.104,6.451l0,0l-0.201-3.729L376.046,324.543z M376.348,327.063c0.102,0,0.102-0.102,0.202-0.102
	c0,0,0.101,0,0.201-0.101c0.101,0,0.101-0.101,0.202-0.101c0.101,0,0.201-0.102,0.302-0.201c0,0,0.102,0,0.102-0.102
	c0.201-0.101,0.302-0.201,0.504-0.303l0,0c0.604-0.402,1.411-0.806,2.217-1.41c0,0,0,0,0.101,0c0.202-0.202,0.504-0.303,0.807-0.504
	c0.101,0,0.101-0.102,0.201-0.102c0.202-0.201,0.505-0.302,0.706-0.504c0.101-0.101,0.201-0.101,0.201-0.201
	c0.202-0.201,0.403-0.303,0.605-0.504l0,0c0.101-0.102,0.201-0.201,0.302-0.201c0.202-0.202,0.403-0.303,0.605-0.504
	c0.101-0.102,0.201-0.202,0.302-0.303c0.202-0.201,0.403-0.403,0.604-0.605c0.102-0.1,0.202-0.201,0.303-0.302
	c0.201-0.202,0.403-0.403,0.604-0.604c0.101-0.102,0.202-0.202,0.303-0.303c0.201-0.201,0.403-0.504,0.604-0.705
	c0.101-0.102,0.202-0.202,0.303-0.303c0.302-0.303,0.504-0.705,0.806-1.109c0,0-0.101-0.201-0.201-0.604
	c0-0.102-0.101-0.303-0.201-0.504c-0.102-0.303-0.202-0.605-0.303-1.008v-0.102v-0.101c-0.101-0.403-0.303-0.907-0.403-1.411l0,0
	c-0.807,2.721-3.326,7.357-10.079,9.776L376.348,327.063L376.348,327.063L376.348,327.063z"></path>
<path id="color_x5F_2" fill="#FBC02D" d="M315.27,324.038l11.894-6.854c-1.311,2.923-2.419,5.442-3.326,7.358l0,0
	c-0.303,0.705-0.604,1.31-0.807,1.813c-0.101,0.202-0.101,0.302-0.201,0.504c-0.202,0.504-0.403,0.907-0.504,1.108
	c-0.102,0.102-0.102,0.202-0.102,0.202l3.629,2.016l0,0l-1.612-0.907c0,0-0.303-0.101-0.706-0.201
	c0.303,0.101,0.604,0.201,0.706,0.201l-2.318-1.311L315.27,324.038z M310.331,321.115l4.938,3.023l11.894-6.854
	c1.31-2.923,2.721-6.148,4.232-9.373l-22.173,12.801C309.625,320.713,310.028,320.813,310.331,321.115z M195.128,146.044
	l-41.324-24.089l66.924-39.509l67.126,39.61l-33.462,19.352l0,0l-33.664,19.453l-23.081-13.405l23.081-28.221
	c0,0-0.101-1.612-2.419-1.108L195.128,146.044z M355.183,229.599l-18.848,10.784l16.126,9.374l0,0l6.249,3.628l7.56-4.435l0,0h0.101
	l13.103-7.66l-13.103-7.458l-9.374-5.342L355.183,229.599z M187.267,255.804L366.27,151.991v81.841l-9.374-5.342l-1.813,1.008
	v-64.404l-156.728,90.408v129.211L306.3,322.225l-0.202,0.201c-0.101,0.101-0.201,0.303-0.303,0.402c0,0.102,0,0.102-0.1,0.202
	c0,0.101-0.102,0.202-0.102,0.303s0,0.101-0.101,0.201c0,0.101,0,0.202,0,0.202c0,0.101,0,0.201,0,0.302v0.101
	c0,0.504,0.202,1.109,0.604,1.512l0,0l0,0c0.202,0.202,0.403,0.404,0.604,0.605l2.117,1.311l-121.754,69.847V255.804H187.267z
	 M113.892,471.997c-4.334,3.125,0.101,6.35,0.101,6.35l5.14,2.923c0.504-1.008,0.806-2.116,0.907-3.225l5.039,2.822
	c0,0-0.604,1.209-1.612,2.923l55.736,31.95c-4.334-3.226,0.303-7.459,0.303-7.459l1.31,0.706l-63.396-36.284
	C115.707,471.695,113.892,471.997,113.892,471.997z M116.513,469.78l64.304,36.385l78.616-45.053l-64.606-37.494L116.513,469.78z
	 M214.48,468.066L177.994,446.9l16.731-9.373l35.579,21.367L214.48,468.066z M308.92,320.713c-0.201,0-0.403,0-0.705,0.1
	C308.416,320.713,308.719,320.713,308.92,320.713z M383.303,304.485c-3.226-10.381-7.257-23.283-7.66-24.492
	c-0.303-0.706-0.706-1.31-1.21-1.814c0,0-0.101,0-0.101,0.101c-0.604,0.302-1.108,0.605-1.713,0.907
	c-0.102,0.101-0.303,0.202-0.403,0.202c-0.202,0.101-0.504,0.202-0.706,0.302c-0.101,0.101-0.302,0.101-0.402,0.202
	c-0.504,0.202-0.907,0.403-1.411,0.604c-0.102,0-0.202,0.101-0.303,0.101c-0.201,0.101-0.504,0.202-0.705,0.202
	c-0.102,0-0.303,0.101-0.403,0.101c-0.202,0.101-0.504,0.101-0.706,0.202c-0.101,0-0.201,0-0.302,0.101
	c-0.403,0.101-0.907,0.202-1.311,0.303c-0.101,0-0.201,0-0.403,0.101c-0.201,0-0.403,0.101-0.604,0.101c-0.101,0-0.303,0-0.403,0
	c-0.705,0.101-1.411,0.101-2.016,0.101c-0.101,0-0.303,0-0.403,0c-0.201,0-0.403,0-0.504,0s-0.303,0-0.403,0
	c-0.302,0-0.604,0-0.907-0.101c-0.101,0-0.302,0-0.403,0c-0.201,0-0.302,0-0.504-0.101c-0.101,0-0.302,0-0.402-0.101
	c-0.102,0-0.303,0-0.403-0.101c-0.202,0-0.303-0.101-0.504-0.101c-0.202,0-0.403-0.101-0.605-0.101
	c-0.101,0-0.302-0.101-0.402-0.101c-0.102,0-0.303-0.101-0.403-0.101s-0.303-0.101-0.403-0.101s-0.201-0.101-0.303-0.101
	c-0.201-0.101-0.402-0.101-0.604-0.202c-0.101,0-0.201-0.101-0.302-0.101c-0.102,0-0.202-0.101-0.303-0.101
	s-0.202-0.101-0.303-0.101s-0.201-0.101-0.302-0.101c-0.202-0.101-0.303-0.101-0.403-0.202c-0.101,0-0.202-0.101-0.303-0.101
	s-0.201-0.101-0.302-0.101c-0.102,0-0.102-0.101-0.202-0.101c-0.101-0.101-0.201-0.101-0.302-0.202c0,0-0.102,0-0.102-0.101
	c-0.201-0.101-0.402-0.202-0.604-0.303c0,0,0,0-0.101,0c-0.101-0.101-0.202-0.101-0.303-0.201c0,0-7.962,3.427-9.978,7.055
	c-0.907,1.814-5.645,11.994-10.18,21.972c-1.513,3.225-2.923,6.551-4.233,9.373c-1.311,2.923-2.419,5.443-3.326,7.357
	c0,0,7.56,6.854,15.421,7.762l-2.419,4.132l-5.544,27.112c0,0,3.427-0.705,8.366,5.745c1.411,1.813,4.132,3.427,7.659,4.536
	c0.807,0.302,1.714,0.504,2.621,0.705c1.008,0.201,2.016,0.402,3.124,0.504c0.102,0,0.202,0,0.303,0
	c0.504,0.101,1.008,0.101,1.411,0.101c0.101,0,0.201,0,0.303,0c0.504,0,1.008,0.101,1.512,0.101c1.008,0,2.016,0,3.023,0
	c0.403,0,0.907-0.101,1.311-0.101l0,0c0.504,0,0.906-0.101,1.411-0.202c6.45-0.906,13.103-3.729,18.444-9.474
	c0,0-3.629-23.182-4.436-34.571l0,0c-19.553,3.428-26.104-6.45-26.104-6.45v-5.946c8.163,10.381,25.802,5.846,25.802,5.846
	l0.101,2.822c0-0.102,0-0.201,0-0.201s0.101,0,0.202-0.102l-0.202-3.225c6.652-2.42,9.272-7.056,10.079-9.777l0,0
	c0.201,0.504,0.303,1.008,0.403,1.411v0.101v0.102c0.101,0.402,0.201,0.705,0.302,1.008c0.102,0.201,0.102,0.402,0.202,0.504
	c0.101,0.402,0.201,0.604,0.201,0.604c-0.302,0.403-0.504,0.706-0.806,1.108c-0.102,0.102-0.202,0.202-0.303,0.303
	c-0.201,0.201-0.403,0.504-0.604,0.705c-0.102,0.102-0.202,0.202-0.303,0.303c-0.201,0.201-0.403,0.403-0.604,0.605
	c-0.101,0.1-0.202,0.201-0.303,0.302c-0.201,0.202-0.403,0.403-0.604,0.604c-0.101,0.102-0.201,0.201-0.303,0.303
	c-0.201,0.201-0.402,0.402-0.604,0.504c-0.101,0.101-0.201,0.201-0.302,0.201l0,0l50.696,29.33l-145.54,83.958l-73.173-42.13
	l104.317-59.869c0.101-0.102,0.101-0.202,0.201-0.303l0,0c0-0.101,0.101-0.101,0.101-0.201c0.102-0.102,0.102-0.202,0.202-0.303
	s0.101-0.201,0.201-0.403c0-0.101,0.101-0.101,0.101-0.202c0.102-0.1,0.102-0.201,0.102-0.302s0.101-0.101,0.101-0.202
	c0-0.1,0.101-0.201,0.101-0.302s0-0.101,0.101-0.202c0-0.1,0.102-0.201,0.102-0.302s0-0.101,0-0.202c0-0.1,0-0.201,0-0.201v-0.101
	c0-0.101-0.102-0.202-0.102-0.202c-0.604-0.302-1.512-1.512-1.713-1.512c-0.303,0-0.403-1.612,0.907-1.209
	c0.101,0,0.201,0,0.302,0.101h0.101c0.102,0,0.102,0,0.202,0.101h0.101c0.101,0,0.101,0,0.202,0.102c0.101,0,0.101,0,0.201,0
	s0.101,0,0.201,0c0.102,0,0.202,0,0.202,0.1h0.101c0.101,0,0.101,0,0.201,0c0.102,0,0.202,0,0.202,0.102h0.101
	c0.101,0,0.202,0,0.303,0.101c0.101,0,0.101,0,0.201,0s0.101,0,0.202,0c0.101,0,0.101,0,0.201,0s0.201,0,0.201,0.101h0.102
	c0.101,0,0.101,0,0.201,0c0.202,0,0.303,0.102,0.504,0.102c0,0,0,0,0.101,0c0.303,0.101,0.605,0.201,0.706,0.201l-2.318-1.311
	l-6.552-4.031l-4.938-3.023c-0.201-0.102-0.403-0.201-0.604-0.303c0.101,0.605,0.303,4.133-3.427,4.939
	c0.201,0.201,0.403,0.402,0.604,0.604l2.117,1.311l-121.754,69.848l122.963,71.358l178.901-103.813L383.303,304.485z
	 M371.409,426.743l-27.817-16.53l44.851-26.81l28.121,17.235L371.409,426.743z M358.206,375.542c0.403,0,0.807,0,1.209,0h0.102l0,0
	C359.113,375.441,358.71,375.441,358.206,375.542L358.206,375.542z M309.121,320.713c0.202,0,0.303,0,0.504,0.1
	c-0.201-0.1-0.402-0.1-0.604-0.1C309.121,320.713,309.121,320.713,309.121,320.713z M332.505,341.475l-5.04-2.923l0,0
	c0.303-0.201,0.504-0.403,0.807-0.604l0,0c0.101-0.101,0.201-0.201,0.303-0.303c0,0,0,0,0.101-0.101s0.201-0.201,0.201-0.302
	c0.403-0.605,1.109-0.706,1.311-1.814c0-0.102,0.101-0.303,0.101-0.403c0,0,0,0,0-0.101c0-0.102,0.101-0.201,0.101-0.303l0,0
	c0-0.101,0.102-0.201,0.102-0.303l0,0c0-0.1,0.101-0.201,0.101-0.302c0,0,0,0,0-0.101c0-0.102,0.101-0.201,0.101-0.201l0,0
	c0-0.102,0.101-0.102,0.101-0.202l0,0c0,0,0-0.101,0.101-0.101l0,0l3.932,2.217L332.505,341.475z M309.727,320.813L309.727,320.813
	C309.727,320.813,309.625,320.813,309.727,320.813C309.625,320.813,309.727,320.813,309.727,320.813z"></path>
<path id="color_x5F_1_1_" d="M366.27,253.385c-9.475,5.342-13.809-0.302-13.809-0.302s-2.62,1.814-2.923,4.737
	c-0.201,1.613,0.303,2.822,0.907,3.729l0,0c0.504,0.806,1.108,1.411,1.512,1.915c0.907,1.209,0.907,2.117,0.907,2.117
	s-0.101-2.218,1.108-2.419c1.21-0.202,1.714,3.83,0.807,4.636c-0.101,0.101-0.101,0.101-0.101,0.202c0,0,0,0-0.102,0.101
	l-0.101,0.101c0,0,0,0-0.101,0.101c0,0,0,0.101-0.101,0.101c0,0,0,0.101-0.102,0.101c0,0,0,0.101-0.101,0.101
	c0,0,0,0.101-0.101,0.101v0.101c0,0,0,0.101-0.101,0.101v0.101v0.101v0.101v0.101c0,0,0,0.101-0.101,0.101v0.101
	c0,0.101,0,0.101-0.102,0.202v0.101c0,0.101-0.101,0.101-0.101,0.202c0,0,0,0,0,0.101c-0.201,0.706-0.504,1.512-1.008,2.822
	c-1.311,3.528-2.62,4.939-2.62,4.939s0.504,0.403,1.411,1.008l0,0c0.101,0.101,0.201,0.101,0.302,0.202c0,0,0,0,0.101,0
	c0.202,0.101,0.403,0.202,0.605,0.302c0,0,0.101,0,0.101,0.101c0.101,0,0.201,0.101,0.303,0.202c0.101,0,0.101,0.101,0.201,0.101
	s0.201,0.101,0.303,0.101c0.101,0,0.201,0.101,0.302,0.101c0.101,0.101,0.303,0.101,0.403,0.202c0.101,0,0.201,0.101,0.303,0.101
	c0.101,0,0.201,0.101,0.302,0.101s0.202,0.101,0.303,0.101s0.201,0.101,0.302,0.101c0.202,0.101,0.403,0.101,0.605,0.202
	c0.101,0,0.201,0.101,0.302,0.101c0.102,0,0.202,0.101,0.403,0.101c0.101,0,0.303,0.101,0.403,0.101s0.303,0.101,0.403,0.101
	c0.201,0,0.403,0.101,0.604,0.101c0.202,0,0.303,0.101,0.504,0.101c0.101,0,0.303,0,0.403,0.101c0.101,0,0.303,0,0.403,0.101
	c0.201,0,0.302,0,0.504,0.101c0.101,0,0.302,0,0.403,0c0.302,0,0.604,0,0.906,0.101c0.102,0,0.303,0,0.403,0
	c0.202,0,0.403,0,0.504,0c0.102,0,0.303,0,0.403,0c0.706,0,1.311-0.101,2.016-0.101c0.102,0,0.303,0,0.403,0
	c0.202,0,0.403-0.101,0.604-0.101c0.102,0,0.202,0,0.403-0.101c0.403-0.101,0.907-0.202,1.311-0.302c0.101,0,0.201,0,0.303-0.101
	c0.201-0.101,0.504-0.101,0.705-0.201c0.101,0,0.303-0.101,0.403-0.101c0.201-0.101,0.504-0.202,0.705-0.202
	c0.102,0,0.202-0.101,0.303-0.101c0.504-0.202,0.907-0.403,1.411-0.605c0.101-0.101,0.302-0.101,0.403-0.202
	c0.201-0.101,0.504-0.201,0.705-0.302c0.101-0.101,0.303-0.101,0.403-0.202c0.604-0.302,1.108-0.604,1.714-0.907
	c1.108-0.605,2.217-1.311,3.325-2.218c0,0-4.333-2.52-5.442-10.079c-1.108-7.559-0.705-12.7-5.846-13.808c0,0,0,0-0.101,0v1.209
	H366.27z"></path>
</svg>