<?xml version="1.0" standalone="no"?>
<svg version="1.1" id="Layer_1_15_" xmlns="http://www.w3.org/2000/svg" xmlns:xlink="http://www.w3.org/1999/xlink" x="0px" y="0px" viewBox="0 0 595.276 595.276" enable-background="new 0 0 595.276 595.276" xml:space="preserve">
<path id="color_x5F_6" fill-rule="evenodd" clip-rule="evenodd" fill="#FFCBD5" d="M384.868,500.264L384.868,500.264
	L384.868,500.264L384.868,500.264c0.043,2.353,0.278,15.353,0.278,17.471c0,2.05,0.424,4.669,0.948,7.204
	c-1.729,0.659-7.265,2.67-11.026,2.756c-2.202,0.05-3.391-0.623-4.093-1.259c-0.21-0.191-0.36-0.368-0.483-0.529
	c2.802-1.793,6.41-4.102,6.41-4.102c0.373-0.238,0.545-0.697,0.421-1.122c0,0-2.2-7.51-3.375-11.521
	c-0.01-0.043-0.022-0.086-0.037-0.127c-0.893-3.045-1.394-4.759-2.544-8.685C374.098,501.137,379.459,502.174,384.868,500.264
	L384.868,500.264z M429.408,474.277c1.724,1.065,3.383,2.171,4.924,3.273c2.569,1.838,4.84,3.643,6.687,5.117
	c1.847,1.474,3.229,2.6,4.21,3.194c0.844,0.51,1.916,1,3.035,1.468c0.139,0.848,1.363,8.331,1.564,12.362
	c0.096,1.907-0.58,2.543-1.296,2.949c-0.27,0.153-0.533,0.239-0.773,0.301c-0.263-0.897-0.532-1.806-0.821-2.712
	c-0.68-2.134-1.416-4.221-2.189-5.958c-0.772-1.736-1.506-3.111-2.522-3.944c-0.447-0.367-0.89-0.506-1.496-0.7
	s-1.345-0.387-2.175-0.575c-1.66-0.379-3.69-0.75-5.669-1.083c-2.725-0.458-4.861-0.766-6.234-0.958
	C428.087,484.352,429.758,479.97,429.408,474.277L429.408,474.277z M344.52,373.592h0.117c0.415,0,0.756,0.284,0.827,0.693
	c0.43,2.463,1.232,7.055,1.232,7.055c0.089,0.491,0.533,0.844,1.032,0.819l12.385-0.606c0.134,0.021,0.271,0.014,0.403-0.02
	l14.092-0.692c0.063,0.003,0.125,0.001,0.187-0.008l3.481-0.172c0.254-0.011,0.493-0.12,0.671-0.303l4.988-5.208l8.027,7.668
	c-0.889,0.705-4.817,3.817-8.209,6.506c-2.124,1.685-4.813,2.482-7.512,2.228c-9.487-0.894-30.165-2.839-30.415-2.863
	c-0.171-0.081-3.565-1.688-5.957-2.823c-1.072-0.508-1.834-1.496-2.051-2.663c-0.236-1.266-0.53-2.868-0.802-4.327
	c-0.098-0.528,0.081-1.065,0.478-1.424c0.398-0.361,0.946-0.481,1.461-0.332c0.038,0.012,0.037,0.01,0.076,0.022
	c0.065,0.026,0.132,0.046,0.201,0.058c1.601,0.467,3.172,0.923,3.172,0.923c0.09,0.026,0.183,0.039,0.277,0.039
	c0.547,0,0.998-0.449,0.999-0.997v-1.883c0.034-0.148,0.034-0.302,0-0.45v-0.402c0-0.224,0.094-0.438,0.252-0.597
	C344.089,373.679,344.298,373.592,344.52,373.592L344.52,373.592L344.52,373.592z M371.952,371.618l1.761,3.406
	c-0.041,0.42-0.062,0.841-0.062,1.265v2.599l-10.827,0.532l6.896-6.898L371.952,371.618L371.952,371.618z M331.702,361.185
	c0.232-0.013,0.462,0.06,0.645,0.213c2.215,1.855,5.417,4.54,6.813,5.706c0.211,0.178,0.339,0.433,0.339,0.708v4.855
	c-0.056,0.326,0.052,0.658,0.29,0.888c0.005,0.005,0.01,0.011,0.015,0.016l1.887,1.888v0.383c-0.579-0.169-1.074-0.312-1.949-0.567
	c-0.08-0.04-5.961-2.94-8.882-4.38c-0.264-0.13-0.478-0.323-0.657-0.542c-0.049-0.188-0.151-0.358-0.295-0.487
	c-0.088-0.211-0.151-0.431-0.162-0.667c-0.015-0.33-0.027-0.677-0.045-1.017c-0.051-1.121,0.074-2.24,0.363-3.326
	c0.237-0.886,0.527-1.983,0.796-2.986c0.083-0.309,0.307-0.543,0.61-0.64C331.545,361.204,331.624,361.19,331.702,361.185
	L331.702,361.185L331.702,361.185z M397.143,357.114h-8.016v-6.621c-0.002-0.483-0.356-0.901-0.833-0.981
	c0,0-2.764-0.48-5.499-0.952c-1.133-0.196-2.141-0.837-2.795-1.783c-0.654-0.948-0.898-2.115-0.679-3.244
	c0.104-0.539,0.153-0.793,0.263-1.366c0.042-0.108,0.065-0.223,0.067-0.339c0.525-2.718,0.77-3.985,1.238-6.412
	c0.036-0.099,0.055-0.202,0.059-0.307c0.489-2.534,1.265-6.546,1.322-6.84c5.345-0.099,9.426-2.695,10.957-3.87l0,0h0.001h-0.001
	c0.677,6.693,6.555,11.236,6.555,11.236c0.224,0.166,0.507,0.23,0.78,0.178c0,0,0.092-0.016,0.266-0.045c0.003,0,0.005,0,0.008,0
	c1.125-0.198,2.259,0.218,2.986,1.099c0.726,0.879,0.922,2.082,0.515,3.148c-0.466,1.22-1.629,2.021-2.934,2.022h-3.258
	c-0.001,0-0.002,0-0.003,0c-0.548,0-0.999,0.45-0.999,0.999c0,0.001,0,0.002,0,0.003v6.592c-0.007,0.066-0.007,0.133,0,0.199
	L397.143,357.114L397.143,357.114z M389.155,342.862c-0.259,0.002-0.507,0.105-0.692,0.287c-1.857,1.802-4.114,0.612-4.114,0.612
	c-0.146-0.079-0.309-0.12-0.474-0.12c-0.549,0-1.001,0.452-1.001,1.001c0,0.391,0.229,0.747,0.583,0.91c0,0,3.625,1.727,6.398-0.966
	c0.2-0.189,0.313-0.451,0.313-0.725c0-0.548-0.45-0.999-0.999-0.999H389.155z"></path>
<path id="color_x5F_5" fill-rule="evenodd" clip-rule="evenodd" fill="#FFD2BB" d="M405.302,372.638L405.302,372.638
	L405.302,372.638L405.302,372.638c-0.777,5.864-2.053,14.892-3,21.525c0,0.003,0,0.005,0,0.008
	c-0.735,5.286-0.232,10.658,1.444,15.709c0.018,0.106,0.054,0.209,0.105,0.303c0.14,0.409,0.272,0.821,0.427,1.225
	c1.694,4.402,3.151,8.193,3.525,9.165c-12.27,3.508-21.843,3.618-28.247,2.692c-6.077-0.879-8.613-2.321-9.104-2.581
	c0.287-0.794,1.176-3.249,2.358-6.525c0.491-1.361,0.917-2.744,1.281-4.14c0.017-0.05,0.029-0.101,0.037-0.152
	c1.004-3.889,1.52-7.894,1.52-11.922v-4.44c0.128,0.012,0.274,0.025,0.398,0.037c3.212,0.302,6.424-0.648,8.952-2.653
	c3.481-2.761,7.715-6.122,8.418-6.68l1.034,0.988c0.186,0.179,0.434,0.28,0.693,0.28c0.314,0,0.608-0.148,0.797-0.398
	C395.94,385.08,401.079,378.249,405.302,372.638L405.302,372.638z M399.618,359.564c0.31-0.006,0.619,0.012,0.929,0.051
	c-0.016,0.085-0.024,0.174-0.043,0.256c-0.563,2.41-1.924,3.901-1.924,3.901c-0.172,0.185-0.267,0.427-0.267,0.68
	c0,0.308,0.142,0.598,0.384,0.787c2.428,1.879,4.7,3.037,6.816,3.635c-0.167,0.329-0.361,0.646-0.585,0.944
	c-4.228,5.616-9.212,12.233-9.91,13.16l-0.606-0.579c-0.103-0.2-0.27-0.36-0.474-0.452l-8.681-8.295
	c0.615-0.756,5.581-6.859,9.547-11.738C396.026,360.409,397.804,359.6,399.618,359.564L399.618,359.564L399.618,359.564z
	 M388.529,359.112h6.391c-0.608,0.43-1.175,0.939-1.664,1.541c-4.195,5.161-10.071,12.384-10.103,12.425l-5.375,5.608l-2.13,0.105
	v-2.501c0-2.926,1.175-5.73,3.267-7.778c3.113-3.043,5.987-5.853,7.724-7.551c0.047-0.039,0.091-0.082,0.131-0.129L388.529,359.112
	L388.529,359.112z M379.704,364.953c-0.982,0.961-1.302,1.275-2.182,2.136c-1.421,1.389-2.472,3.081-3.121,4.919l-0.997-1.929
	c-0.038-0.137-0.103-0.264-0.194-0.373l-0.156-0.303L379.704,364.953z M318.745,362.415h-93.011c-4.709,0-9.22-1.875-12.549-5.205
	c-0.002,0-0.004,0-0.006,0c-3.331-3.33-5.199-7.848-5.199-12.557c0-4.71,1.868-9.226,5.199-12.556c0.002,0,0.004,0,0.006,0
	c3.329-3.33,7.84-5.199,12.549-5.199l0,0h110.338c4.709,0,9.224,1.869,12.555,5.199c1.533,1.533,2.754,3.32,3.629,5.26
	l-37.211-6.026c-0.066-0.012-0.132-0.017-0.199-0.016c-0.534,0.019-0.965,0.463-0.965,0.999c0,0.053,0.004,0.106,0.013,0.158
	l1.005,6.202h-1.056c-0.547,0.001-0.997,0.452-0.997,0.999c0,0.002,0,0.003,0,0.004v10.89c0,0.001,0,0.002,0,0.003
	c0,0.547,0.449,0.998,0.997,0.999h3.144L318.745,362.415L318.745,362.415z M353.56,347.697c-0.178,1.024-0.438,2.029-0.79,3
	c-0.273,0.753-0.612,1.478-0.984,2.187l-1.707-1.707L353.56,347.697z M241.904,338.674h-4.756c-0.008-0.001-0.015-0.001-0.023-0.001
	c-0.547,0-0.999,0.451-0.999,1c0,0.547,0.451,0.999,0.999,0.999c0.008,0,0.015,0,0.023,0h3.915v9.894c0,0.007,0,0.015,0,0.022
	c0,0.548,0.45,0.999,0.999,0.999c0.547,0,0.999-0.45,0.999-0.999c0-0.007,0-0.015,0-0.022v-9.894h3.907
	c0.539-0.012,0.977-0.459,0.977-0.999c0-0.54-0.437-0.987-0.977-0.999h-4.748c-0.056-0.01-0.113-0.014-0.17-0.014l0,0
	c-0.034,0-0.069,0.002-0.103,0.006C241.932,338.668,241.918,338.671,241.904,338.674L241.904,338.674z M275.104,338.673h-4.38
	c-3.547,0-6.443,2.896-6.443,6.444v0.008c0,3.547,2.896,6.445,6.443,6.445h4.38c0.548,0,1-0.451,1-1c0-0.548-0.451-1-1-1h-4.38
	c-2.467,0-4.446-1.979-4.446-4.446v-0.008c0-2.468,1.979-4.447,4.446-4.447h4.38c0.539-0.012,0.977-0.458,0.977-0.999
	C276.081,339.133,275.644,338.685,275.104,338.673z M285.205,349.571h-5.817v-9.895c0-0.006,0-0.011,0-0.017
	c0-0.548-0.45-0.999-0.999-0.999c-0.004,0-0.008,0-0.012,0l0,0c-0.034,0-0.069,0.002-0.103,0.006
	c-0.508,0.059-0.893,0.498-0.884,1.01v10.89c-0.002,0.547,0.446,1,0.995,1.003h6.82h0.023c0.547,0,0.999-0.451,0.999-0.999
	c0-0.548-0.451-1-0.999-1L285.205,349.571L285.205,349.571z M300.725,338.66c-0.034,0-0.069,0.002-0.103,0.006
	c-0.509,0.058-0.895,0.498-0.886,1.01v5.98c0,3.251,2.661,5.913,5.913,5.913c3.251,0,5.907-2.662,5.907-5.913v-5.98
	c-0.012-0.539-0.459-0.976-0.999-0.976s-0.987,0.436-0.999,0.976v5.98c0,2.171-1.738,3.915-3.909,3.915
	c-2.172,0-3.913-1.744-3.913-3.915v-5.98c0-0.006,0-0.011,0-0.017c0-0.548-0.45-0.999-0.999-0.999
	C300.733,338.66,300.729,338.66,300.725,338.66L300.725,338.66L300.725,338.66z M254.312,338.673c-3.251,0-5.914,2.662-5.914,5.913
	v1.07c0,3.251,2.663,5.912,5.914,5.912c3.252,0,5.906-2.661,5.906-5.912v-1.07C260.218,341.335,257.564,338.673,254.312,338.673z
	 M292.548,338.673h-0.008c-3.252,0-5.905,2.662-5.905,5.913v1.07c0,3.251,2.653,5.912,5.905,5.912h0.008
	c3.251,0,5.907-2.661,5.907-5.912v-1.07C298.455,341.335,295.799,338.673,292.548,338.673z M316.663,349.57h-1.818v-8.899h0.377
	L316.663,349.57z M292.548,349.57h-0.008c-2.172,0-3.907-1.743-3.907-3.914v-1.07c0-2.171,1.735-3.915,3.907-3.915h0.008
	c2.171,0,3.909,1.744,3.909,3.915v1.07C296.457,347.827,294.72,349.57,292.548,349.57z M254.312,340.671
	c2.172,0,3.915,1.744,3.915,3.915v1.07c0,2.171-1.743,3.914-3.915,3.914c-2.171,0-3.914-1.743-3.914-3.914v-1.07
	C250.398,342.415,252.141,340.671,254.312,340.671z M231.737,237.236H191.56c-27.306,0-49.428-22.114-49.428-49.421
	c0-12.707,4.794-24.285,12.669-33.038c0.023-0.024,0.045-0.05,0.066-0.076c9.045-10.014,22.13-16.306,36.694-16.306
	c1.595,0,3.166,0.081,4.727,0.228c0.527,0.05,1.008-0.329,1.083-0.854c5.854-42.621,42.384-75.464,86.625-75.464l0,0
	c36.96,0,68.533,22.929,81.347,55.32c0.125,0.424,0.516,0.719,0.96,0.719c0.106,0,0.212-0.017,0.313-0.05
	c22.451,1.846,41.364,16.117,49.848,35.933c0.025,0.172,0.095,0.334,0.201,0.47c2.952,7.063,4.594,14.812,4.594,22.951
	c0,32.919-26.662,59.588-59.58,59.588h-20.187v-21.742c0-0.263-0.104-0.515-0.289-0.702l-18.439-18.439
	c-0.186-0.187-0.437-0.293-0.701-0.295h-83.705c-1.755,0-3.441,0.698-4.682,1.94c-1.241,1.241-1.939,2.927-1.939,4.681
	L231.737,237.236L231.737,237.236z M283.561,75.621c-27.772,0-52.003,16.584-64.97,41.171c-0.08,0.147-0.122,0.312-0.122,0.478
	c0,0.549,0.451,1.002,1.001,1.002c0.375,0,0.719-0.211,0.89-0.544c12.662-24.008,36.224-40.109,63.202-40.109
	c10.328,0,20.152,2.362,29.056,6.621c0.134,0.064,0.281,0.097,0.428,0.097c0.548,0,1-0.451,1-1c0-0.386-0.223-0.738-0.571-0.903
	C304.312,78.051,294.193,75.621,283.561,75.621z M323.323,88.336c-0.034-0.001-0.069,0.001-0.103,0.004
	c-0.517,0.04-0.921,0.477-0.921,0.996c0,0.329,0.163,0.638,0.434,0.824c7.379,5.178,13.859,11.778,19.126,19.451
	c0.185,0.278,0.498,0.445,0.832,0.445c0.549,0,1.001-0.451,1.001-1c0-0.206-0.064-0.408-0.183-0.575
	c-5.396-7.863-12.045-14.638-19.626-19.959C323.72,88.406,323.525,88.34,323.323,88.336L323.323,88.336z"></path>
<path id="color_x5F_4" fill-rule="evenodd" clip-rule="evenodd" fill="#00CEC9" d="M385.522,532.199h-21.089
	c-0.28-0.01-0.551-0.124-0.751-0.324c-0.207-0.207-0.324-0.486-0.324-0.782v-0.016c0-0.379,0.196-0.732,0.515-0.936
	c1.207-0.772,2.72-1.74,4.945-3.164c0.211,0.301,0.462,0.619,0.813,0.938c1.051,0.953,2.83,1.838,5.478,1.777
	c4.058-0.093,9.233-1.92,11.406-2.756l0,0c0.249,1.08,0.502,2.106,0.737,3.013c0.125,0.541-0.004,1.112-0.348,1.549
	C386.569,531.926,386.061,532.179,385.522,532.199L385.522,532.199z M88.926,532.199H75.761c-1.157-1.128-2.284-2.315-3.356-3.591
	c-8.28-9.868-11.429-21.757-10.027-29.625l0,0c7.188-0.002,16.896,4.206,24.81,12.269c-0.003,0.226-0.008,0.452-0.008,0.678
	c0,0.935,0.027,1.861,0.076,2.777c0.304,6.008,1.571,11.659,3.502,16.569l-18.986-22.633c-0.216-0.265-0.552-0.403-0.892-0.363
	c-0.504,0.055-0.89,0.485-0.89,0.993c0,0.243,0.088,0.477,0.248,0.659L88.926,532.199L88.926,532.199z M493.4,532.199h-13.158
	c-1.157-1.128-2.283-2.314-3.355-3.591c-8.28-9.868-11.438-21.757-10.035-29.625l0,0c7.189-0.004,16.902,4.201,24.818,12.269
	c-0.003,0.227-0.008,0.451-0.008,0.678c0,0.935,0.027,1.861,0.076,2.777c0.304,6.01,1.572,11.664,3.504,16.575l-18.997-22.639
	c-0.213-0.263-0.546-0.4-0.883-0.363c-0.507,0.052-0.898,0.483-0.898,0.994c0,0.242,0.088,0.476,0.248,0.658L493.4,532.199
	L493.4,532.199z M504.882,532.199h-7.027c-2.223-5.031-3.764-11.01-4.118-17.45c-0.021-0.404-0.021-0.815-0.033-1.222
	c-0.017-0.531-0.043-1.06-0.043-1.596c0-13.873,5.584-26.038,12.216-31.511l0,0c6.631,5.471,12.225,17.636,12.225,31.511
	c0,7.511-1.658,14.51-4.204,20.268h-7.02v-37.086c0.001-0.004,0.001-0.008,0.001-0.012c0-0.547-0.451-0.999-1-0.999
	c-0.005,0-0.011,0-0.017,0.001c-0.545,0.009-0.988,0.464-0.982,1.01L504.882,532.199L504.882,532.199z M100.402,532.199h-7.02
	c-2.546-5.758-4.202-12.758-4.202-20.268c0-13.826,5.547-25.957,12.216-31.511c6.633,5.471,12.231,17.636,12.231,31.511
	c0,7.511-1.656,14.51-4.202,20.268h-7.027v-37.086c0-0.004,0-0.008,0-0.011c0-0.548-0.451-1-0.999-1c-0.004,0-0.008,0-0.012,0.001
	c-0.548,0.006-0.994,0.462-0.987,1.01V532.199z M544.357,498.978L544.357,498.978L544.357,498.978
	c1.405,7.868-1.751,19.76-10.033,29.63c-1.072,1.276-2.198,2.464-3.355,3.592h-13.16l18.682-22.266
	c0.161-0.183,0.25-0.417,0.25-0.66c0-0.548-0.45-1-0.999-1c-0.041,0-0.081,0.003-0.121,0.008c-0.258,0.031-0.494,0.161-0.657,0.363
	l-18.019,21.472c1.687-4.635,2.8-9.863,3.08-15.409c0.049-0.916,0.076-1.841,0.076-2.776c0-0.406-0.016-0.809-0.024-1.216
	C527.896,502.99,537.33,498.973,544.357,498.978z M139.877,498.978L139.877,498.978L139.877,498.978
	c1.406,7.867-1.747,19.76-10.029,29.63c-1.071,1.275-2.196,2.463-3.353,3.592h-13.166l18.688-22.266
	c0.161-0.183,0.25-0.417,0.25-0.66c0-0.548-0.45-1-0.999-1c-0.04,0-0.081,0.003-0.121,0.008c-0.258,0.031-0.493,0.161-0.657,0.363
	l-18.035,21.492c1.693-4.64,2.815-9.876,3.096-15.429c0.049-0.916,0.076-1.841,0.076-2.776c0-0.41-0.014-0.816-0.023-1.223
	C123.42,502.989,132.853,498.975,139.877,498.978L139.877,498.978z M450.415,488.175c1.078,0.394,2.144,0.762,3.084,1.063
	c1.289,0.448,2.06,1.742,1.836,3.088c-0.815,4.892-2.343,14.046-3.08,18.47c-0.06,0.359-0.268,0.669-0.575,0.863
	c-0.304,0.191-0.674,0.245-1.019,0.148c-0.004-0.003-0.009-0.005-0.013-0.008c-0.372-0.109-0.651-0.402-0.745-0.774v-0.008
	c-0.313-1.306-0.888-3.6-1.6-6.163c0.376-0.102,0.784-0.239,1.21-0.48c1.228-0.697,2.439-2.269,2.313-4.777
	C451.638,495.831,450.766,490.332,450.415,488.175L450.415,488.175L450.415,488.175L450.415,488.175L450.415,488.175z
	 M408.638,422.518c0.243,0.578,0.533,1.424,0.816,2.479c0.417,1.564,0.854,3.566,1.283,5.831c0.857,4.53,1.702,10.127,2.448,15.573
	c0.758,5.534,1.401,10.824,1.861,14.773c0.002,0.046,0.007,0.093,0.016,0.138c0.427,3.684,0.704,6.256,0.704,6.256
	c0.044,0.414,0.341,0.758,0.743,0.862c3.673,0.945,7.329,2.627,10.758,4.578c0.881,6.924-1.544,11.887-2.999,14.157
	c-0.014,0.017-0.027,0.034-0.04,0.051l-0.663,0.929c-4.83-0.793-8.089-1.399-10.942-2.012c-0.007,0-0.014,0-0.021,0
	c-3.037-0.599-5.701-2.402-7.395-4.992c-0.002-0.003-0.004-0.004-0.008-0.008c-7.611-12.683-16.125-38.104-16.125-38.104
	c-0.136-0.408-0.518-0.684-0.948-0.684c-0.482,0-0.899,0.35-0.984,0.824l-3.146,17.51c-0.099,0.185-0.137,0.396-0.109,0.603
	l-2.503,13.922c-0.042,0.225-0.005,0.457,0.103,0.658c0.421,0.778,1.021,2.668,1.571,4.923c0.549,2.256,1.091,4.919,1.564,7.462
	c0.891,4.785,1.458,8.614,1.533,9.114c-0.23,0.189-0.449,0.382-0.739,0.534c-6.195,2.799-13.001,0.746-14.728,0.141
	c-2.183-7.451-3.795-12.954-4.787-16.343c-0.351-1.193-0.522-2.429-0.515-3.672c0.203-25.892,4.046-51.789,4.572-55.234
	c1.619,0.682,4.75,1.792,9.312,2.452C386.014,426.217,395.903,426.221,408.638,422.518L408.638,422.518L408.638,422.518z
	 M253.485,303.822h-15.128c-1.227,0-2.401-0.489-3.268-1.356c-0.866-0.866-1.355-2.042-1.355-3.267v-60.877
	c0.004-0.055,0.004-0.11,0-0.164V202.68c0-1.226,0.489-2.401,1.355-3.267c0.867-0.867,2.043-1.356,3.268-1.356h18.992v32.508
	c0.003,0.548,0.455,0.997,1.003,0.995h56.528c0.548,0.002,1.001-0.446,1.003-0.995v-32.508h5.759l17.856,17.857v22.25
	c-0.002,0.042-0.002,0.084,0,0.125v60.909c0,1.226-0.488,2.401-1.355,3.267c-0.867,0.867-2.04,1.356-3.265,1.356h-15.131v-37.094
	c-0.002-0.545-0.449-0.993-0.995-0.995h-64.27c-0.545,0.001-0.995,0.449-0.997,0.995L253.485,303.822L253.485,303.822z"></path>
<path id="color_x5F_3" fill-rule="evenodd" clip-rule="evenodd" fill="#E84393" d="M361.574,532.199H175.878v-10.271
	c0-6.393,5.161-11.552,11.554-11.552l0,0h184.786c0.975,3.328,2.888,9.86,2.973,10.152c-0.453,0.29-3.701,2.367-6.428,4.112
	c-0.105,0.044-0.202,0.106-0.287,0.183c-2.427,1.553-4.302,2.753-5.686,3.639c-0.892,0.571-1.43,1.56-1.43,2.618v0.014
	C361.361,531.475,361.439,531.849,361.574,532.199L361.574,532.199z M402.753,532.199h-13.946c0.454-0.828,0.609-1.794,0.386-2.727
	c-0.002-0.008-0.005-0.016-0.008-0.024c-0.887-3.432-2.041-8.693-2.041-11.714c0-0.905-0.057-4.291-0.107-7.358l0,0h4.161
	c6.394,0,11.555,5.158,11.555,11.552L402.753,532.199L402.753,532.199z M393.215,460.151h-7.097l2.337-12.984
	C389.212,449.381,390.947,454.356,393.215,460.151z M513.488,460.151h-96.555c-0.438-3.756-1.048-8.742-1.772-14.024
	c-0.748-5.464-1.594-11.085-2.463-15.674c-0.434-2.294-0.872-4.332-1.311-5.974c-0.411-1.539-0.795-2.683-1.291-3.517
	c0,0-2.048-5.327-3.944-10.256h93.653c1.804,0,3.531-0.714,4.806-1.99c1.275-1.275,1.99-3.01,1.99-4.814V176.815
	c0-1.805-0.714-3.539-1.99-4.815c-1.275-1.275-3.002-1.99-4.806-1.99H422.77c-0.645-5.206-1.931-10.212-3.792-14.931h94.511
	c2.29,0,4.485,0.909,6.104,2.528c1.62,1.619,2.528,3.815,2.528,6.106v287.805c0,2.29-0.908,4.485-2.528,6.104
	C517.973,459.242,515.778,460.151,513.488,460.151z M220.02,460.151H65.143c-2.29,0-4.486-0.91-6.104-2.53
	c-1.62-1.619-2.531-3.813-2.531-6.104V163.713c0-2.29,0.911-4.487,2.531-6.106c1.618-1.619,3.813-2.528,6.104-2.528h86.77
	c-3.654,4.418-6.583,9.455-8.607,14.931H78.828c-1.804,0-3.531,0.714-4.806,1.99c-1.276,1.276-1.998,3.01-1.998,4.815v227.088
	c0,1.804,0.721,3.539,1.998,4.814c1.275,1.275,3.002,1.99,4.806,1.99h292.994c-0.271,0.932-0.561,1.858-0.892,2.773
	c-1.36,3.768-2.712,7.506-2.712,7.506c-0.006,0.02-0.012,0.039-0.017,0.059c-0.019,0.061-0.031,0.124-0.037,0.188
	c-0.023,0.142-2.802,17.839-4.112,38.919H220.124C220.09,460.15,220.055,460.15,220.02,460.151L220.02,460.151z M289.311,417.129
	c-9.97,0-18.071,8.102-18.071,18.072s8.101,18.077,18.071,18.077c9.971,0,18.078-8.107,18.078-18.077
	S299.282,417.129,289.311,417.129z M316.09,333.52l37.295,6.05c0.195,0.104,0.419,0.141,0.638,0.103l4.071,0.659l-3.864,3.865
	c-0.078,0.057-0.146,0.126-0.204,0.203l-6.071,6.071c-0.385,0.387-0.385,1.022,0,1.408l3.188,3.187
	c0.085,0.144,0.206,0.263,0.349,0.348l16.26,16.254l-7.897,7.898l-11.345,0.557c-0.158-0.903-0.699-4.026-1.077-6.186
	c-0.237-1.351-1.423-2.345-2.796-2.345l-0.117,0.002c-0.752,0-1.474,0.302-2.006,0.833c-0.177,0.178-0.317,0.381-0.438,0.593
	l-0.58-0.579v-4.629c0-0.865-0.39-1.685-1.053-2.241c-1.393-1.166-4.596-3.852-6.813-5.708c-0.765-0.64-1.806-0.845-2.758-0.544
	c-0.953,0.302-1.69,1.071-1.947,2.035c-0.27,1.006-0.559,2.101-0.796,2.987c-0.342,1.281-0.488,2.61-0.427,3.936
	c0.015,0.331,0.031,0.677,0.045,1.011c0.018,0.405,0.102,0.794,0.236,1.165l-5.088,5.088l-5.827-35.976
	c-0.002-0.02-0.006-0.04-0.01-0.061L316.09,333.52L316.09,333.52z M391.945,310.446c3.899,0.172,8.183,1.806,12.341,6.21
	c0.144,0.153,0.332,0.257,0.538,0.297c0,0,2.015,0.381,4.003,2.181c1.988,1.801,3.937,4.96,3.554,10.891
	c-0.802,12.403-0.041,14.868,3.531,23.666c1.712,4.214,1.509,7.198,0.576,9.277c-0.934,2.077-2.657,3.318-4.232,3.862
	c-3.153,1.09-6.841,0.657-11.658-2.825c0.498-0.63,1.323-1.426,1.852-3.686c0.078-0.336,0.137-0.69,0.18-1.056
	c0.111-0.234,0.127-0.501,0.044-0.747c0.109-2.589-0.744-5.75-3.535-8.992v-5.492h2.263c2.127,0,4.042-1.315,4.801-3.302v-0.008
	l0.066-0.356c0,0.079-0.01,0.158-0.029,0.235c0.602-1.705,0.277-3.605-0.878-5.004c-1.082-1.31-2.787-1.784-4.462-1.644
	c-0.144-0.112-6.305-4.873-5.971-11.163c0-0.018,0.001-0.035,0.001-0.052c0-0.548-0.451-0.999-0.999-0.999
	c-0.234,0-0.46,0.082-0.639,0.231c0,0-6.071,4.877-11.805,4.529c-0.002-0.001-0.004,0-0.008,0c-0.013-0.001-0.026-0.001-0.039,0
	c-1.327-0.091-2.221-0.581-2.876-1.35c-0.657-0.774-1.064-1.87-1.172-3.125c-0.217-2.51,0.809-5.565,2.78-7.395
	c2.056-1.91,5.806-3.922,10.125-4.173C390.838,310.426,391.388,310.421,391.945,310.446L391.945,310.446z M377.268,343.87
	c-0.108,1.425,0.269,2.856,1.087,4.042c0.958,1.387,2.438,2.332,4.1,2.618c2.325,0.402,4.021,0.691,4.674,0.804v6.246l-2.501,1.674
	c-0.912,0.011-2.207-0.042-3.678-0.363c-2.68-0.585-5.651-1.974-7.291-5.362c-0.808-1.669-0.858-3.08-0.531-4.358
	c0.328-1.277,1.07-2.428,1.953-3.398C375.777,345.009,376.524,344.409,377.268,343.87L377.268,343.87z M399.139,353.391
	c0.798,1.513,1.274,2.948,1.438,4.231c-0.48-0.048-0.96-0.047-1.438-0.012V353.391z M379.012,327.619
	c0.415,0.141,0.843,0.267,1.275,0.379c-0.029,0.149-0.444,2.303-0.571,2.961L379.012,327.619L379.012,327.619z M317.75,303.822
	h-62.265V267.73h62.265V303.822z M313.885,229.569h-54.538v-31.513h54.538V229.569z M307.582,203.603
	c-0.034,0-0.069,0.002-0.103,0.006c-0.509,0.058-0.895,0.498-0.886,1.011v18.388c0,0.548,0.451,1,1,1c0.548,0,1-0.451,1-1v-18.388
	c0-0.006,0-0.012,0-0.018c0-0.548-0.45-0.999-0.999-0.999C307.59,203.603,307.586,203.603,307.582,203.603L307.582,203.603
	L307.582,203.603z"></path>
<path id="color_x5F_2" fill-rule="evenodd" clip-rule="evenodd" fill="#FBC02D" d="M357.513,508.377H221.119v-46.228h136.394
	V508.377z M289.311,419.127c8.891,0,16.081,7.183,16.081,16.075c0,8.89-7.189,16.08-16.081,16.08c-8.89,0-16.072-7.189-16.072-16.08
	C273.24,426.31,280.421,419.127,289.311,419.127z M231.737,239.236v59.962c0,1.754,0.698,3.443,1.939,4.683
	c1.242,1.241,2.927,1.94,4.682,1.94h96.52c1.754,0,3.441-0.698,4.681-1.94c1.24-1.241,1.932-2.928,1.932-4.683v-59.962h20.187
	c33.998,0,61.58-27.589,61.58-61.588c0-1.903-0.095-3.781-0.264-5.64h76.81c1.273,0,2.496,0.507,3.398,1.408
	c0.902,0.902,1.4,2.122,1.4,3.399v227.088c0,1.275-0.498,2.497-1.4,3.398c-0.902,0.902-2.123,1.408-3.398,1.408h-94.347
	c-1.438-4.599-1.845-9.469-1.179-14.26v-0.008c1.191-8.344,2.864-20.209,3.459-25.144c1.859,0.198,3.583-0.031,5.168-0.579
	c2.036-0.704,4.224-2.29,5.411-4.933c1.187-2.644,1.306-6.27-0.552-10.847c-3.565-8.78-4.189-10.466-3.393-22.78
	c0.415-6.427-1.808-10.331-4.202-12.499c-2.15-1.949-4.024-2.294-4.467-2.395c-5.094-5.378-10.674-7.08-15.52-6.799
	c-4.857,0.282-8.943,2.452-11.361,4.697c-2.504,2.325-3.687,5.876-3.414,9.032c0.128,1.485,0.593,2.9,1.472,4.034
	c0.055,1.874,0.552,4.037,1.056,5.823c0.458,1.626,0.855,2.739,0.975,3.07c-0.44,2.282-0.669,3.47-1.166,6.04
	c-0.81,0.457-2.595,1.567-4.138,3.262c-1.035,1.136-1.974,2.557-2.409,4.255c-0.435,1.698-0.325,3.669,0.669,5.721
	c1.964,4.055,5.616,5.78,8.658,6.443c0.474,0.104,0.931,0.176,1.375,0.237l-10.696,7.159c-0.421,0.281-0.564,0.84-0.332,1.289
	l0.16,0.308l-1.631,0.661l-16.13-16.13c0.541-0.959,1.007-1.958,1.38-2.99h-0.008c0.684-1.888,1.073-3.88,1.156-5.917l5.097-5.097
	c0.19-0.188,0.297-0.443,0.297-0.71c0-0.491-0.363-0.913-0.849-0.988l-5.78-0.936c-0.98-2.62-2.504-5.025-4.52-7.04
	c-3.705-3.705-8.732-5.788-13.971-5.788H225.734c-5.239,0-10.26,2.083-13.964,5.788c-3.705,3.704-5.787,8.725-5.787,13.963
	c0,5.239,2.082,10.268,5.787,13.972c3.705,3.705,8.725,5.788,13.964,5.788h93.334l2.167,13.368c0.08,0.48,0.499,0.835,0.986,0.835
	c0.264,0,0.516-0.105,0.704-0.291l6.204-6.203c0.255,0.22,0.534,0.413,0.843,0.564c2.093,1.031,4.441,2.186,6.369,3.136
	c-0.064,0.051-0.131,0.098-0.191,0.153c-0.911,0.823-1.33,2.068-1.107,3.273c0.272,1.459,0.568,3.054,0.804,4.321
	c0.334,1.794,1.515,3.324,3.164,4.107c2.452,1.163,6.104,2.896,6.104,2.896c0.108,0.049,0.223,0.079,0.34,0.088
	c0,0,17.921,1.689,28.195,2.657v4.629c0,3.633-0.444,7.244-1.297,10.764H78.828c-1.274,0-2.496-0.506-3.398-1.408
	s-1.408-2.122-1.408-3.398V176.815c0-1.276,0.506-2.497,1.408-3.399c0.879-0.879,2.063-1.382,3.398-1.408h63.796
	c-1.61,4.982-2.489,10.292-2.489,15.807c0,28.387,23.04,51.421,51.426,51.421L231.737,239.236L231.737,239.236z"></path>
<path id="color_x5F_1" fill-rule="evenodd" clip-rule="evenodd" fill="#0984E3" d="M283.996,60.307
	c-44.907,0-82.006,33.142-88.395,76.281c-1.335-0.105-2.674-0.191-4.04-0.191c-14.998,0-28.5,6.432-37.903,16.685H65.143
	c-2.82,0-5.527,1.118-7.52,3.111c-1.995,1.993-3.112,4.701-3.112,7.52v287.805c0,2.82,1.118,5.519,3.112,7.512
	c1.993,1.995,4.7,3.119,7.52,3.119h153.978v46.228h-31.689c-7.473,0-13.552,6.078-13.552,13.552v10.271h-44.565
	c0.704-0.744,1.398-1.51,2.068-2.307c8.925-10.638,12.555-23.575,10.521-32.36c-0.1-0.433-0.477-0.751-0.921-0.774
	c-7.555-0.402-17.291,3.646-25.512,11.23c-0.939-13.194-6.471-24.529-13.471-29.796c-0.188-0.142-0.42-0.212-0.655-0.199
	c-0.198,0.01-0.388,0.08-0.546,0.199c-7.084,5.331-12.663,16.878-13.497,30.277c-8.327-7.898-18.315-12.121-26.03-11.712
	c-0.444,0.023-0.821,0.341-0.921,0.774c-2.034,8.784,1.602,21.722,10.528,32.36c0.67,0.797,1.362,1.563,2.065,2.307H62.578
	c-0.54,0.012-0.978,0.459-0.978,0.999c0,0.54,0.437,0.987,0.978,0.999H90.79c0.207,0.07,0.43,0.07,0.637,0h9.885
	c0.056,0.005,0.112,0.005,0.168,0h9.344c0.207,0.069,0.43,0.069,0.636,0h252.934c0.027,0.001,0.052,0.008,0.078,0.008h20.983
	c0.049,0,0.098-0.006,0.147-0.008h109.855c0.061,0.006,0.122,0.006,0.184,0h10.156c0.054,0.005,0.109,0.005,0.164,0h9.616
	c0.056,0.005,0.113,0.005,0.168,0h28.347c0.54-0.012,0.978-0.458,0.978-0.999c0-0.539-0.437-0.987-0.978-0.999h-10.3
	c0.704-0.744,1.395-1.51,2.065-2.307c8.926-10.638,12.554-23.575,10.52-32.36c-0.098-0.43-0.471-0.747-0.913-0.774h-0.002
	c-7.557-0.403-17.294,3.649-25.518,11.238c-0.936-13.197-6.462-24.536-13.462-29.804c-0.188-0.142-0.42-0.212-0.655-0.199
	c-0.198,0.01-0.389,0.08-0.546,0.199c-7.085,5.331-12.666,16.881-13.5,30.281c-8.327-7.9-18.32-12.125-26.035-11.716
	c-0.444,0.023-0.822,0.341-0.921,0.774c-2.035,8.784,1.602,21.722,10.528,32.36c0.669,0.797,1.361,1.563,2.065,2.307H404.75v-10.271
	c0-7.474-6.079-13.552-13.553-13.552h-4.19c-0.075-4.41-0.152-8.645-0.16-9.083c0.387-0.25,0.79-0.48,1.106-0.804
	c0.219-0.224,0.321-0.538,0.274-0.849c0,0-0.69-4.623-1.645-9.753c-0.477-2.565-1.02-5.259-1.584-7.573
	c-0.518-2.129-1.035-3.768-1.615-4.969l2.376-13.197h8.236c2.693,6.718,6.044,14.268,9.516,20.047
	c0.005,0.01,0.01,0.021,0.016,0.031c1.985,3.039,5.116,5.153,8.677,5.86c2.982,0.639,6.238,1.262,11.385,2.101
	c0.34,0.145,0.733,0.09,1.02-0.143c0.085-0.063,0.158-0.139,0.219-0.225l0.059-0.082c0.108-0.131,0.314-0.406,0.628-0.86
	c0.519,0.07,3.434,0.453,7.039,1.06c1.959,0.329,3.967,0.705,5.56,1.069c0.796,0.182,1.488,0.357,2.006,0.522
	c0.516,0.166,0.889,0.38,0.84,0.34c0.444,0.365,1.238,1.589,1.961,3.215c0.724,1.626,1.45,3.659,2.116,5.751
	c1.334,4.185,2.432,8.616,2.918,10.655c0.003,0.002,0.006,0.004,0.008,0.006c0.181,0.732,0.862,1.106,1.461,1.527
	c0.034,0.102,0.067,0.213,0.067,0.213s0.071-0.042,0.087-0.051c0.221,0.131,0.258,0.456,0.509,0.53l-0.347-0.612
	c0.255-0.139,0.626-0.34,0.626-0.34l-0.28,0.952v0.008c0.896,0.263,1.863,0.128,2.654-0.369c0.79-0.496,1.336-1.307,1.49-2.227
	c0.737-4.424,2.259-13.576,3.074-18.469c0.383-2.293-0.953-4.547-3.149-5.31c-0.007-0.002-0.015-0.004-0.023-0.006
	c-2.527-0.809-6.067-2.1-7.873-3.193c-0.696-0.422-2.145-1.567-3.997-3.045c-1.852-1.478-4.149-3.303-6.767-5.176
	c-2.013-1.439-4.22-2.891-6.553-4.237c-0.146-0.161-0.342-0.27-0.555-0.31c-3.373-1.904-6.995-3.569-10.712-4.61
	c-0.021-0.194-0.285-2.545-0.518-4.623h96.331c2.82,0,5.519-1.125,7.512-3.119c1.995-1.993,3.119-4.692,3.119-7.512V163.713
	c0-2.819-1.125-5.527-3.119-7.52c-1.993-1.994-4.692-3.111-7.512-3.111h-95.35c-8.824-20.237-28.202-34.808-51.186-36.761
	C353.698,83.493,321.562,60.307,283.996,60.307L283.996,60.307L283.996,60.307z M283.996,62.305c36.96,0,68.533,22.929,81.347,55.32
	c0.125,0.424,0.516,0.719,0.96,0.719c0.106,0,0.212-0.017,0.313-0.05c22.451,1.846,41.364,16.117,49.848,35.933
	c0.025,0.172,0.095,0.334,0.201,0.47c2.952,7.063,4.594,14.812,4.594,22.951c0,32.919-26.662,59.588-59.58,59.588h-20.187v-21.742
	c0-0.263-0.104-0.515-0.289-0.702l-18.439-18.439c-0.186-0.187-0.437-0.293-0.701-0.295h-83.705c-1.755,0-3.441,0.698-4.682,1.94
	c-1.241,1.241-1.939,2.927-1.939,4.681v34.556H191.56c-27.306,0-49.428-22.114-49.428-49.421c0-12.707,4.794-24.285,12.669-33.038
	c0.023-0.024,0.045-0.05,0.066-0.076c9.045-10.014,22.13-16.306,36.694-16.306c1.595,0,3.166,0.081,4.727,0.228
	c0.527,0.05,1.008-0.329,1.083-0.854C203.224,95.147,239.754,62.305,283.996,62.305L283.996,62.305L283.996,62.305z M283.561,75.621
	c-27.772,0-52.003,16.584-64.97,41.171c-0.08,0.147-0.122,0.312-0.122,0.478c0,0.549,0.451,1.002,1.001,1.002
	c0.375,0,0.719-0.211,0.89-0.544c12.662-24.008,36.224-40.109,63.202-40.109c10.328,0,20.152,2.362,29.056,6.621
	c0.134,0.064,0.281,0.097,0.428,0.097c0.548,0,1-0.451,1-1c0-0.386-0.223-0.738-0.571-0.903
	C304.312,78.051,294.193,75.62,283.561,75.621z M323.323,88.336c-0.034-0.001-0.069,0.001-0.103,0.004
	c-0.517,0.04-0.921,0.477-0.921,0.996c0,0.329,0.163,0.638,0.434,0.824c7.379,5.178,13.859,11.778,19.126,19.451
	c0.185,0.278,0.498,0.445,0.832,0.445c0.549,0,1.001-0.451,1.001-1c0-0.206-0.064-0.408-0.183-0.575
	c-5.396-7.863-12.045-14.638-19.626-19.959C323.719,88.406,323.525,88.34,323.323,88.336L323.323,88.336z M65.143,155.079h86.77
	c-3.654,4.418-6.583,9.455-8.607,14.931H78.828c-1.804,0-3.531,0.714-4.806,1.99c-1.276,1.276-1.998,3.01-1.998,4.815v227.088
	c0,1.804,0.721,3.539,1.998,4.814c1.275,1.275,3.002,1.99,4.806,1.99h292.994c-0.271,0.932-0.561,1.858-0.892,2.773
	c-1.36,3.768-2.712,7.506-2.712,7.506c-0.006,0.02-0.012,0.039-0.017,0.059c-0.019,0.061-0.031,0.124-0.037,0.188
	c-0.023,0.142-2.802,17.839-4.112,38.919H220.124c-0.035-0.001-0.069-0.001-0.104,0H65.143c-2.29,0-4.486-0.91-6.104-2.53
	c-1.62-1.619-2.531-3.813-2.531-6.104V163.713c0-2.29,0.911-4.487,2.531-6.106C60.658,155.988,62.853,155.079,65.143,155.079
	L65.143,155.079z M418.977,155.079h94.511c2.29,0,4.485,0.909,6.104,2.528c1.62,1.619,2.528,3.815,2.528,6.106v287.805
	c0,2.29-0.908,4.485-2.528,6.104c-1.619,1.62-3.813,2.53-6.104,2.53h-96.555c-0.438-3.756-1.048-8.742-1.772-14.024
	c-0.748-5.464-1.594-11.085-2.463-15.674c-0.434-2.294-0.872-4.332-1.311-5.974c-0.411-1.539-0.795-2.683-1.291-3.517
	c0,0-2.048-5.327-3.944-10.256h93.653c1.804,0,3.531-0.714,4.806-1.99c1.275-1.275,1.99-3.01,1.99-4.814V176.815
	c0-1.805-0.714-3.539-1.99-4.815c-1.275-1.275-3.002-1.99-4.806-1.99H422.77C422.124,164.805,420.839,159.799,418.977,155.079
	L418.977,155.079z M78.828,172.008h63.796c-1.61,4.982-2.489,10.292-2.489,15.807c0,28.387,23.04,51.421,51.426,51.421h40.176
	v59.962c0,1.754,0.698,3.443,1.939,4.683c1.242,1.241,2.927,1.94,4.682,1.94h96.52c1.754,0,3.441-0.698,4.681-1.94
	c1.24-1.241,1.932-2.928,1.932-4.683v-59.962h20.187c33.998,0,61.58-27.589,61.58-61.588c0-1.903-0.095-3.781-0.264-5.64h76.81
	c1.273,0,2.496,0.507,3.398,1.408c0.902,0.902,1.4,2.122,1.4,3.399v227.088c0,1.275-0.498,2.497-1.4,3.398
	c-0.902,0.902-2.124,1.408-3.398,1.408h-94.347c-1.438-4.599-1.845-9.469-1.179-14.26v-0.008c1.191-8.344,2.864-20.209,3.459-25.144
	c1.859,0.198,3.583-0.031,5.168-0.579c2.036-0.704,4.224-2.29,5.411-4.933c1.187-2.644,1.306-6.27-0.552-10.847
	c-3.565-8.78-4.189-10.466-3.393-22.78c0.415-6.427-1.808-10.331-4.202-12.499c-2.15-1.949-4.024-2.294-4.467-2.395
	c-5.094-5.378-10.674-7.08-15.52-6.799c-4.857,0.282-8.943,2.452-11.361,4.697c-2.504,2.325-3.687,5.876-3.414,9.032
	c0.128,1.485,0.593,2.9,1.472,4.034c0.055,1.874,0.552,4.037,1.056,5.823c0.458,1.626,0.855,2.739,0.975,3.07
	c-0.44,2.282-0.669,3.47-1.166,6.04c-0.81,0.457-2.595,1.567-4.138,3.262c-1.035,1.136-1.974,2.557-2.409,4.255
	c-0.435,1.698-0.325,3.669,0.669,5.721c1.964,4.055,5.616,5.78,8.658,6.443c0.474,0.104,0.931,0.176,1.375,0.237l-10.696,7.159
	c-0.421,0.281-0.564,0.84-0.332,1.289l0.16,0.308l-1.631,0.661l-16.13-16.13c0.541-0.959,1.007-1.958,1.38-2.99h-0.008
	c0.684-1.888,1.073-3.88,1.156-5.917l5.097-5.097c0.19-0.188,0.297-0.443,0.297-0.71c0-0.491-0.363-0.913-0.849-0.988l-5.78-0.936
	c-0.98-2.62-2.504-5.025-4.52-7.04c-3.705-3.705-8.733-5.788-13.971-5.788H225.734c-5.239,0-10.26,2.083-13.964,5.788
	c-3.705,3.704-5.787,8.725-5.787,13.963c0,5.239,2.082,10.268,5.787,13.972c3.705,3.705,8.725,5.788,13.964,5.788h93.334
	l2.167,13.368c0.08,0.48,0.499,0.835,0.986,0.835c0.264,0,0.516-0.105,0.704-0.291l6.204-6.203c0.255,0.22,0.534,0.413,0.843,0.564
	c2.093,1.031,4.441,2.186,6.369,3.136c-0.064,0.051-0.131,0.098-0.191,0.153c-0.911,0.823-1.33,2.068-1.107,3.273
	c0.272,1.459,0.568,3.054,0.804,4.321c0.334,1.794,1.515,3.324,3.164,4.107c2.452,1.163,6.104,2.896,6.104,2.896
	c0.108,0.049,0.223,0.079,0.34,0.088c0,0,17.921,1.689,28.195,2.657v4.629c0,3.633-0.444,7.244-1.297,10.764H78.828
	c-1.274,0-2.496-0.506-3.398-1.408s-1.408-2.122-1.408-3.398V176.815c0-1.276,0.506-2.497,1.408-3.399
	C76.332,172.515,77.553,172.008,78.828,172.008L78.828,172.008z M238.358,198.056h18.992v32.508
	c0.003,0.548,0.455,0.997,1.003,0.995h56.528c0.548,0.002,1.001-0.446,1.003-0.995v-32.508h5.759l17.856,17.857v22.25
	c-0.002,0.042-0.002,0.084,0,0.125v60.909c0,1.226-0.488,2.401-1.355,3.267c-0.867,0.867-2.04,1.356-3.265,1.356h-15.131v-37.094
	c-0.002-0.545-0.449-0.993-0.995-0.995h-64.27c-0.545,0.001-0.995,0.449-0.997,0.995v37.094h-15.128
	c-1.227,0-2.401-0.489-3.268-1.356c-0.866-0.866-1.355-2.042-1.355-3.267v-60.877c0.004-0.055,0.004-0.11,0-0.164V202.68
	c0-1.226,0.489-2.401,1.355-3.267C235.957,198.546,237.132,198.056,238.358,198.056L238.358,198.056z M259.347,198.056h54.538
	v31.513h-54.538V198.056z M307.582,203.603c-0.034,0-0.069,0.002-0.103,0.006c-0.509,0.058-0.895,0.498-0.886,1.011v18.388
	c0,0.548,0.451,1,1,1c0.548,0,1-0.451,1-1v-18.388c0-0.006,0-0.012,0-0.018c0-0.548-0.45-0.999-0.999-0.999
	C307.59,203.603,307.586,203.603,307.582,203.603L307.582,203.603L307.582,203.603z M255.485,267.73h62.265v36.091h-62.265V267.73z
	 M391.945,310.447c3.899,0.172,8.183,1.806,12.341,6.21c0.144,0.153,0.332,0.257,0.538,0.297c0,0,2.015,0.381,4.003,2.181
	c1.988,1.801,3.937,4.96,3.554,10.891c-0.802,12.403-0.041,14.868,3.531,23.666c1.712,4.214,1.509,7.198,0.576,9.277
	c-0.934,2.077-2.657,3.318-4.232,3.862c-3.153,1.09-6.841,0.657-11.658-2.825c0.498-0.63,1.323-1.426,1.852-3.686
	c0.078-0.336,0.137-0.69,0.18-1.056c0.111-0.234,0.127-0.501,0.044-0.747c0.109-2.589-0.744-5.75-3.535-8.992v-5.492h2.263
	c2.127,0,4.042-1.315,4.801-3.302v-0.008l0.066-0.356c0,0.079-0.01,0.158-0.029,0.235c0.602-1.705,0.277-3.605-0.878-5.004
	c-1.082-1.31-2.787-1.784-4.462-1.644c-0.144-0.112-6.305-4.873-5.971-11.163c0-0.018,0.001-0.035,0.001-0.052
	c0-0.548-0.451-0.999-0.999-0.999c-0.234,0-0.46,0.082-0.639,0.231c0,0-6.071,4.877-11.805,4.529c-0.002-0.001-0.004,0-0.008,0
	c-0.013-0.001-0.026-0.001-0.039,0c-1.327-0.091-2.221-0.581-2.876-1.35c-0.657-0.774-1.064-1.87-1.172-3.125
	c-0.217-2.51,0.809-5.565,2.78-7.395c2.056-1.91,5.806-3.922,10.125-4.173C390.838,310.427,391.388,310.422,391.945,310.447
	L391.945,310.447z M406.241,340.603c-0.014,0.04-0.022,0.081-0.037,0.121C406.219,340.684,406.231,340.644,406.241,340.603z
	 M393.226,324.4c0.677,6.693,6.555,11.236,6.555,11.236c0.224,0.166,0.507,0.23,0.78,0.178c0,0,0.092-0.016,0.266-0.045
	c0.003,0,0.005,0,0.008,0c1.125-0.198,2.259,0.218,2.986,1.099c0.726,0.879,0.922,2.082,0.515,3.148
	c-0.466,1.22-1.629,2.022-2.934,2.022h-3.258c-0.001,0-0.002,0-0.003,0c-0.548,0-0.999,0.45-0.999,0.999c0,0.001,0,0.002,0,0.003
	v6.592c-0.007,0.066-0.007,0.133,0,0.199v7.284h-8.016v-6.621c-0.002-0.483-0.356-0.901-0.833-0.981c0,0-2.764-0.48-5.499-0.952
	c-1.133-0.196-2.141-0.837-2.795-1.783c-0.654-0.948-0.898-2.115-0.679-3.244c0.104-0.539,0.153-0.793,0.263-1.366
	c0.042-0.108,0.065-0.223,0.067-0.339c0.525-2.718,0.77-3.985,1.238-6.412c0.036-0.099,0.055-0.202,0.059-0.307
	c0.489-2.534,1.265-6.546,1.322-6.84C387.614,328.171,391.696,325.575,393.226,324.4L393.226,324.4L393.226,324.4z M225.734,326.899
	h110.338c4.709,0,9.224,1.869,12.555,5.199c1.533,1.533,2.754,3.32,3.629,5.26l-37.211-6.026c-0.066-0.012-0.132-0.017-0.199-0.016
	c-0.534,0.019-0.965,0.463-0.965,0.999c0,0.053,0.004,0.106,0.013,0.158l1.005,6.202h-1.056c-0.547,0.001-0.997,0.452-0.997,0.999
	c0,0.002,0,0.003,0,0.004v10.89c0,0.001,0,0.002,0,0.003c0,0.547,0.449,0.998,0.997,0.999h3.144l1.758,10.847h-93.011
	c-4.709,0-9.22-1.875-12.549-5.205c-0.002,0-0.004,0-0.006,0c-3.331-3.33-5.199-7.848-5.199-12.557c0-4.71,1.868-9.226,5.199-12.556
	c0.002,0,0.004,0,0.006,0C216.514,328.767,221.025,326.899,225.734,326.899L225.734,326.899L225.734,326.899z M379.012,327.619
	c0.415,0.141,0.843,0.267,1.275,0.379c-0.029,0.149-0.444,2.303-0.571,2.961C379.427,329.873,379.168,328.704,379.012,327.619
	L379.012,327.619z M316.09,333.52l37.295,6.05c0.195,0.104,0.419,0.141,0.638,0.103l4.071,0.659l-3.864,3.865
	c-0.078,0.057-0.146,0.126-0.204,0.203l-6.071,6.071c-0.385,0.387-0.385,1.022,0,1.408l3.188,3.187
	c0.085,0.144,0.206,0.263,0.349,0.348l16.26,16.254l-7.897,7.898l-11.345,0.557c-0.158-0.903-0.699-4.026-1.077-6.186
	c-0.237-1.351-1.423-2.345-2.796-2.345l-0.117,0.002c-0.752,0-1.474,0.302-2.006,0.833c-0.177,0.178-0.317,0.381-0.438,0.593
	l-0.58-0.579v-4.629c0-0.865-0.39-1.685-1.053-2.241c-1.393-1.166-4.596-3.852-6.813-5.708c-0.765-0.64-1.806-0.845-2.758-0.544
	c-0.953,0.302-1.69,1.071-1.947,2.035c-0.27,1.006-0.559,2.101-0.796,2.987c-0.342,1.281-0.488,2.61-0.427,3.936
	c0.015,0.331,0.031,0.677,0.045,1.011c0.018,0.405,0.102,0.794,0.236,1.165l-5.088,5.088l-5.827-35.976
	c-0.002-0.02-0.006-0.04-0.01-0.061L316.09,333.52L316.09,333.52z M242.05,338.66c-0.034,0-0.069,0.002-0.103,0.006
	c-0.015,0.002-0.029,0.005-0.043,0.008h-4.756c-0.008-0.001-0.015-0.001-0.023-0.001c-0.547,0-0.999,0.451-0.999,1
	c0,0.547,0.451,0.999,0.999,0.999c0.008,0,0.015,0,0.023,0h3.915v9.894c0,0.007,0,0.015,0,0.022c0,0.548,0.45,0.999,0.999,0.999
	c0.547,0,0.999-0.45,0.999-0.999c0-0.007,0-0.015,0-0.022v-9.894h3.907c0.539-0.012,0.977-0.459,0.977-0.999
	c0-0.54-0.437-0.987-0.977-0.999h-4.748C242.164,338.664,242.107,338.66,242.05,338.66L242.05,338.66L242.05,338.66z
	 M278.377,338.66c-0.034,0-0.069,0.002-0.103,0.006c-0.508,0.059-0.893,0.498-0.884,1.01v10.89c-0.002,0.547,0.446,1,0.995,1.003
	h6.82c0.008,0,0.015,0,0.023,0c0.547,0,0.999-0.451,0.999-0.999c0-0.548-0.451-1-0.999-1c-0.008,0-0.015,0-0.023,0.001h-5.817
	v-9.895c0-0.006,0-0.011,0-0.017c0-0.548-0.45-0.999-0.999-0.999C278.385,338.66,278.381,338.66,278.377,338.66L278.377,338.66z
	 M300.725,338.66c-0.034,0-0.069,0.002-0.103,0.006c-0.509,0.058-0.895,0.498-0.886,1.01v5.98c0,3.251,2.661,5.913,5.913,5.913
	c3.251,0,5.907-2.662,5.907-5.913v-5.98c-0.012-0.539-0.459-0.976-0.999-0.976s-0.987,0.436-0.999,0.976v5.98
	c0,2.171-1.738,3.915-3.909,3.915c-2.172,0-3.913-1.744-3.913-3.915v-5.98c0-0.006,0-0.011,0-0.017c0-0.548-0.45-0.999-0.999-0.999
	C300.733,338.66,300.729,338.66,300.725,338.66L300.725,338.66L300.725,338.66z M254.312,338.673c-3.251,0-5.914,2.662-5.914,5.913
	v1.07c0,3.251,2.663,5.912,5.914,5.912c3.252,0,5.906-2.661,5.906-5.912v-1.07C260.218,341.335,257.564,338.673,254.312,338.673z
	 M270.725,338.673c-3.547,0-6.443,2.896-6.443,6.444v0.008c0,3.547,2.896,6.445,6.443,6.445h4.38c0.548,0,1-0.451,1-1
	c0-0.548-0.451-1-1-1h-4.38c-2.467,0-4.446-1.979-4.446-4.446v-0.008c0-2.468,1.979-4.447,4.446-4.447h4.38
	c0.539-0.012,0.977-0.458,0.977-0.999c0-0.539-0.437-0.987-0.977-0.999H270.725z M292.54,338.673c-3.252,0-5.905,2.662-5.905,5.913
	v1.07c0,3.251,2.653,5.912,5.905,5.912h0.008c3.251,0,5.907-2.661,5.907-5.912v-1.07c0-3.251-2.656-5.913-5.907-5.913H292.54z
	 M254.312,340.671c2.172,0,3.915,1.744,3.915,3.915v1.07c0,2.171-1.743,3.914-3.915,3.914c-2.171,0-3.914-1.743-3.914-3.914v-1.07
	C250.398,342.415,252.141,340.671,254.312,340.671z M292.54,340.671h0.008c2.171,0,3.909,1.744,3.909,3.915v1.07
	c0,2.171-1.738,3.914-3.909,3.914h-0.008c-2.172,0-3.907-1.743-3.907-3.914v-1.07C288.633,342.415,290.368,340.671,292.54,340.671z
	 M314.845,340.671h0.377l1.441,8.899h-1.818V340.671z M389.155,342.862c-0.259,0.002-0.507,0.105-0.692,0.287
	c-1.857,1.802-4.114,0.612-4.114,0.612c-0.146-0.079-0.309-0.12-0.474-0.12c-0.549,0-1.001,0.452-1.001,1.001
	c0,0.391,0.229,0.747,0.583,0.91c0,0,3.625,1.727,6.398-0.966c0.2-0.189,0.313-0.451,0.313-0.725c0-0.548-0.45-0.999-0.999-0.999
	C389.165,342.862,389.16,342.862,389.155,342.862z M377.268,343.87c-0.108,1.425,0.269,2.856,1.087,4.042
	c0.958,1.387,2.438,2.332,4.1,2.618c2.325,0.402,4.021,0.691,4.674,0.804v6.246l-2.501,1.674c-0.912,0.011-2.207-0.042-3.678-0.363
	c-2.68-0.585-5.651-1.974-7.291-5.362c-0.808-1.669-0.858-3.08-0.531-4.358c0.328-1.277,1.07-2.428,1.953-3.398
	C375.801,344.983,376.576,344.368,377.268,343.87L377.268,343.87z M353.56,347.697c-0.178,1.024-0.438,2.029-0.79,3
	c-0.273,0.753-0.612,1.478-0.984,2.187l-1.707-1.707L353.56,347.697z M399.139,353.391c0.798,1.513,1.274,2.948,1.438,4.231
	c-0.48-0.048-0.96-0.047-1.438-0.012V353.391z M388.529,359.112h6.391c-0.608,0.43-1.175,0.939-1.664,1.541
	c-4.195,5.161-10.071,12.384-10.103,12.425l-5.375,5.608l-2.13,0.105v-2.501c0-2.926,1.175-5.73,3.267-7.778
	c3.113-3.043,5.987-5.853,7.724-7.551c0.047-0.039,0.091-0.082,0.131-0.129C387.146,360.465,388.468,359.172,388.529,359.112
	L388.529,359.112z M399.618,359.564c0.31-0.006,0.619,0.012,0.929,0.051c-0.016,0.085-0.024,0.174-0.043,0.256
	c-0.563,2.41-1.924,3.901-1.924,3.901c-0.172,0.185-0.267,0.427-0.267,0.68c0,0.308,0.142,0.598,0.384,0.787
	c2.428,1.879,4.7,3.037,6.816,3.635c-0.167,0.329-0.361,0.646-0.585,0.944c-4.228,5.616-9.212,12.233-9.91,13.16l-0.606-0.579
	c-0.103-0.2-0.27-0.36-0.474-0.452l-8.681-8.295c0.615-0.756,5.581-6.859,9.547-11.738
	C396.026,360.409,397.804,359.6,399.618,359.564L399.618,359.564L399.618,359.564z M331.702,361.185
	c0.232-0.013,0.462,0.06,0.645,0.213c2.215,1.855,5.417,4.54,6.813,5.706c0.211,0.178,0.339,0.433,0.339,0.708v4.855
	c-0.056,0.326,0.052,0.658,0.29,0.888c0.005,0.005,0.01,0.011,0.015,0.016l1.887,1.888v0.383c-0.579-0.169-1.074-0.312-1.949-0.567
	c-0.08-0.04-5.961-2.94-8.882-4.38c-0.264-0.13-0.478-0.323-0.657-0.542c-0.049-0.188-0.151-0.358-0.295-0.487
	c-0.088-0.211-0.151-0.431-0.162-0.667c-0.015-0.33-0.027-0.677-0.045-1.017c-0.051-1.121,0.074-2.24,0.363-3.326
	c0.237-0.886,0.527-1.983,0.796-2.986c0.083-0.309,0.307-0.543,0.61-0.64C331.545,361.204,331.624,361.19,331.702,361.185
	L331.702,361.185L331.702,361.185z M379.704,364.953c-0.982,0.961-1.302,1.275-2.182,2.136c-1.421,1.389-2.472,3.081-3.121,4.919
	l-0.997-1.929c-0.038-0.137-0.103-0.264-0.194-0.373l-0.156-0.303L379.704,364.953z M371.952,371.619l1.761,3.406
	c-0.041,0.419-0.062,0.841-0.062,1.265v2.599l-10.827,0.532l6.896-6.898L371.952,371.619L371.952,371.619z M405.302,372.638
	c-0.777,5.864-2.053,14.892-3,21.525c0,0.003,0,0.005,0,0.008c-0.735,5.286-0.232,10.658,1.444,15.709
	c0.018,0.106,0.054,0.209,0.105,0.303c0.14,0.409,0.272,0.821,0.427,1.225c1.694,4.402,3.151,8.193,3.525,9.165
	c-12.27,3.508-21.843,3.618-28.247,2.692c-6.077-0.879-8.613-2.321-9.104-2.581c0.287-0.794,1.176-3.249,2.358-6.525
	c0.491-1.361,0.917-2.744,1.281-4.14c0.017-0.05,0.029-0.101,0.037-0.152c1.004-3.889,1.52-7.894,1.52-11.922v-4.44
	c0.128,0.012,0.274,0.025,0.398,0.037c3.212,0.302,6.424-0.648,8.952-2.653c3.481-2.761,7.715-6.122,8.418-6.68l1.034,0.988
	c0.186,0.179,0.434,0.28,0.693,0.28c0.314,0,0.608-0.148,0.797-0.398C395.94,385.08,401.079,378.25,405.302,372.638L405.302,372.638
	L405.302,372.638z M344.52,373.592h0.117c0.415,0,0.756,0.284,0.827,0.693c0.43,2.463,1.232,7.055,1.232,7.055
	c0.089,0.491,0.533,0.844,1.032,0.819l12.385-0.606c0.134,0.021,0.271,0.014,0.403-0.02l14.092-0.692
	c0.063,0.003,0.125,0.001,0.187-0.008l3.481-0.172c0.254-0.011,0.493-0.12,0.671-0.303l4.988-5.208l8.027,7.668
	c-0.889,0.705-4.817,3.817-8.209,6.506c-2.124,1.685-4.813,2.482-7.512,2.228c-9.487-0.894-30.165-2.839-30.415-2.863
	c-0.171-0.081-3.565-1.688-5.957-2.823c-1.072-0.508-1.834-1.496-2.051-2.663c-0.236-1.266-0.53-2.868-0.802-4.327
	c-0.098-0.528,0.081-1.065,0.478-1.424c0.398-0.361,0.946-0.481,1.461-0.332c0.038,0.012,0.037,0.01,0.076,0.022
	c0.065,0.026,0.132,0.046,0.201,0.058c1.601,0.467,3.172,0.923,3.172,0.923c0.09,0.026,0.183,0.039,0.277,0.039
	c0.547,0,0.998-0.449,0.999-0.997v-1.883c0.034-0.148,0.034-0.302,0-0.45v-0.402c0-0.224,0.094-0.438,0.252-0.597
	C344.089,373.679,344.298,373.592,344.52,373.592L344.52,373.592L344.52,373.592z M289.311,417.129
	c-9.97,0-18.071,8.102-18.071,18.072s8.101,18.077,18.071,18.077c9.971,0,18.078-8.107,18.078-18.077
	S299.282,417.129,289.311,417.129z M289.311,419.127c8.891,0,16.081,7.183,16.081,16.075c0,8.89-7.189,16.08-16.081,16.08
	c-8.89,0-16.072-7.189-16.072-16.08C273.24,426.31,280.421,419.127,289.311,419.127z M408.638,422.518
	c0.243,0.578,0.533,1.424,0.816,2.479c0.417,1.564,0.854,3.566,1.283,5.831c0.857,4.53,1.702,10.127,2.448,15.573
	c0.758,5.534,1.401,10.824,1.861,14.773c0.002,0.046,0.007,0.093,0.016,0.138c0.427,3.684,0.704,6.256,0.704,6.256
	c0.044,0.414,0.341,0.758,0.743,0.862c3.673,0.945,7.329,2.627,10.758,4.578c0.881,6.924-1.544,11.887-2.999,14.157
	c-0.014,0.017-0.027,0.034-0.04,0.051l-0.663,0.929c-4.83-0.793-8.089-1.399-10.942-2.012c-0.007,0-0.014,0-0.021,0
	c-3.037-0.599-5.701-2.402-7.395-4.992c-0.002-0.003-0.004-0.004-0.008-0.008c-7.611-12.683-16.125-38.104-16.125-38.104
	c-0.136-0.408-0.518-0.684-0.948-0.684c-0.482,0-0.899,0.35-0.984,0.824l-3.146,17.51c-0.099,0.185-0.137,0.396-0.109,0.603
	l-2.503,13.922c-0.042,0.225-0.005,0.457,0.103,0.658c0.421,0.778,1.021,2.668,1.571,4.923c0.549,2.256,1.091,4.919,1.564,7.462
	c0.891,4.785,1.458,8.614,1.533,9.114c-0.23,0.189-0.449,0.382-0.739,0.534c-6.195,2.799-13.001,0.746-14.728,0.141
	c-2.183-7.451-3.795-12.954-4.787-16.343c-0.351-1.193-0.522-2.429-0.515-3.672c0.203-25.892,4.046-51.789,4.572-55.234
	c1.619,0.682,4.75,1.792,9.312,2.452C386.014,426.217,395.903,426.221,408.638,422.518L408.638,422.518L408.638,422.518z
	 M388.455,447.167c0.757,2.214,2.492,7.189,4.76,12.984h-7.097L388.455,447.167z M221.119,462.149h136.394v46.228H221.119
	L221.119,462.149L221.119,462.149z M359.502,462.149h4.425c-0.296,5.185-0.497,10.539-0.539,15.86
	c-0.008,1.436,0.193,2.869,0.597,4.247c1.01,3.45,2.692,9.194,4.869,16.631c0.013,0.128,0.05,0.253,0.109,0.367
	c1.195,4.077,1.695,5.79,2.671,9.124h-12.131V462.149L359.502,462.149z M429.408,474.277c1.724,1.065,3.383,2.171,4.924,3.273
	c2.569,1.838,4.84,3.643,6.687,5.117c1.847,1.474,3.229,2.6,4.21,3.194c0.844,0.51,1.916,1,3.035,1.468
	c0.139,0.848,1.363,8.331,1.564,12.362c0.096,1.907-0.58,2.543-1.296,2.949c-0.27,0.153-0.533,0.239-0.773,0.301
	c-0.263-0.897-0.532-1.806-0.821-2.712c-0.68-2.134-1.416-4.221-2.189-5.958c-0.772-1.736-1.506-3.111-2.522-3.944
	c-0.447-0.367-0.89-0.506-1.496-0.7s-1.345-0.387-2.175-0.575c-1.66-0.379-3.69-0.75-5.669-1.083
	c-2.725-0.458-4.861-0.766-6.234-0.958C428.093,484.34,429.773,479.931,429.408,474.277L429.408,474.277z M101.396,480.42
	c6.633,5.471,12.231,17.636,12.231,31.511c0,7.511-1.656,14.51-4.202,20.268h-7.027v-37.086c0-0.004,0-0.008,0-0.011
	c0-0.548-0.451-1-0.999-1c-0.004,0-0.008,0-0.012,0.001c-0.548,0.006-0.994,0.462-0.987,1.01v37.086h-7.02
	c-2.546-5.758-4.202-12.758-4.202-20.268C89.18,498.058,94.765,485.893,101.396,480.42L101.396,480.42z M505.878,480.42
	c6.631,5.471,12.225,17.636,12.225,31.511c0,7.511-1.658,14.51-4.204,20.268h-7.02v-37.086c0.001-0.004,0.001-0.008,0.001-0.012
	c0-0.547-0.451-0.999-1-0.999c-0.005,0-0.011,0-0.017,0.001c-0.545,0.009-0.988,0.464-0.982,1.01v37.086h-7.027
	c-2.223-5.031-3.764-11.01-4.118-17.45c-0.021-0.404-0.021-0.815-0.033-1.222c-0.017-0.531-0.043-1.06-0.043-1.596
	C493.662,498.058,499.246,485.893,505.878,480.42L505.878,480.42L505.878,480.42z M450.415,488.175
	c1.078,0.394,2.144,0.762,3.084,1.063c1.289,0.448,2.06,1.742,1.836,3.088c-0.815,4.892-2.343,14.046-3.08,18.47
	c-0.06,0.359-0.268,0.669-0.575,0.863c-0.304,0.191-0.674,0.245-1.019,0.148c-0.004-0.003-0.009-0.005-0.013-0.008
	c-0.372-0.109-0.651-0.402-0.745-0.774v-0.008c-0.313-1.306-0.888-3.6-1.6-6.163c0.376-0.102,0.784-0.239,1.21-0.48
	c1.228-0.697,2.439-2.269,2.313-4.777C451.638,495.831,450.766,490.331,450.415,488.175L450.415,488.175L450.415,488.175z
	 M139.877,498.978c1.406,7.867-1.747,19.76-10.029,29.63c-1.071,1.275-2.196,2.463-3.353,3.592h-13.166l18.688-22.266
	c0.161-0.183,0.25-0.417,0.25-0.66c0-0.548-0.45-1-0.999-1c-0.04,0-0.081,0.003-0.121,0.008c-0.258,0.031-0.493,0.161-0.657,0.363
	l-18.035,21.492c1.693-4.64,2.815-9.876,3.096-15.429c0.049-0.916,0.076-1.841,0.076-2.776c0-0.41-0.014-0.816-0.023-1.223
	C123.42,502.989,132.853,498.975,139.877,498.978L139.877,498.978L139.877,498.978z M544.357,498.978
	c1.405,7.868-1.751,19.76-10.033,29.63c-1.072,1.276-2.198,2.464-3.355,3.592h-13.16l18.682-22.266
	c0.161-0.183,0.25-0.417,0.25-0.66c0-0.548-0.45-1-0.999-1c-0.041,0-0.081,0.003-0.121,0.008c-0.258,0.031-0.494,0.161-0.657,0.363
	l-18.019,21.472c1.687-4.635,2.8-9.863,3.08-15.409c0.049-0.916,0.076-1.841,0.076-2.776c0-0.406-0.016-0.809-0.024-1.216
	C527.896,502.99,537.33,498.973,544.357,498.978L544.357,498.978z M62.379,498.983c7.188-0.002,16.896,4.206,24.81,12.269
	c-0.003,0.226-0.008,0.452-0.008,0.678c0,0.935,0.027,1.861,0.076,2.777c0.304,6.008,1.571,11.659,3.502,16.569l-18.986-22.633
	c-0.216-0.265-0.552-0.403-0.892-0.363c-0.504,0.055-0.89,0.485-0.89,0.993c0,0.243,0.088,0.477,0.248,0.659l18.688,22.266H75.761
	c-1.157-1.128-2.284-2.315-3.356-3.591C64.125,518.741,60.976,506.852,62.379,498.983L62.379,498.983L62.379,498.983z
	 M466.852,498.983c7.189-0.004,16.902,4.201,24.818,12.269c-0.003,0.227-0.008,0.451-0.008,0.678c0,0.935,0.027,1.861,0.076,2.777
	c0.304,6.01,1.572,11.664,3.504,16.575l-18.997-22.639c-0.213-0.263-0.546-0.4-0.883-0.363c-0.507,0.052-0.898,0.483-0.898,0.994
	c0,0.242,0.088,0.476,0.248,0.658l18.688,22.266h-13.158c-1.157-1.128-2.283-2.314-3.355-3.591
	C468.607,518.741,465.449,506.852,466.852,498.983L466.852,498.983L466.852,498.983z M384.868,500.264
	c0.043,2.353,0.278,15.353,0.278,17.471c0,2.05,0.424,4.669,0.948,7.204c-1.729,0.659-7.265,2.67-11.026,2.756
	c-2.202,0.05-3.391-0.623-4.093-1.259c-0.21-0.191-0.36-0.368-0.483-0.529c2.802-1.793,6.41-4.102,6.41-4.102
	c0.373-0.238,0.545-0.697,0.421-1.122c0,0-2.2-7.51-3.375-11.521c-0.01-0.043-0.022-0.086-0.037-0.127
	c-0.893-3.045-1.394-4.759-2.544-8.685C374.098,501.137,379.459,502.174,384.868,500.264L384.868,500.264L384.868,500.264z
	 M187.432,510.377h184.786c0.975,3.328,2.888,9.86,2.973,10.152c-0.453,0.29-3.701,2.367-6.428,4.112
	c-0.105,0.044-0.202,0.106-0.287,0.183c-2.427,1.553-4.302,2.753-5.686,3.639c-0.892,0.571-1.43,1.56-1.43,2.618v0.014
	c0,0.382,0.078,0.755,0.213,1.106H175.878v-10.271C175.878,515.535,181.039,510.377,187.432,510.377L187.432,510.377
	L187.432,510.377z M387.037,510.377h4.161c6.394,0,11.555,5.158,11.555,11.552v10.271h-13.946c0.454-0.828,0.609-1.794,0.386-2.727
	c-0.002-0.008-0.005-0.016-0.008-0.024c-0.887-3.432-2.041-8.693-2.041-11.714C387.144,516.83,387.087,513.444,387.037,510.377
	L387.037,510.377L387.037,510.377z M386.517,526.937c0.249,1.08,0.502,2.106,0.737,3.013c0.125,0.541-0.004,1.112-0.348,1.549
	c-0.337,0.427-0.845,0.68-1.384,0.7h-21.089c-0.28-0.01-0.551-0.124-0.751-0.324c-0.207-0.207-0.324-0.486-0.324-0.782v-0.016
	c0-0.379,0.196-0.732,0.515-0.936c1.207-0.772,2.72-1.74,4.945-3.164c0.211,0.301,0.462,0.619,0.813,0.938
	c1.051,0.953,2.83,1.838,5.478,1.777C379.168,529.599,384.343,527.773,386.517,526.937L386.517,526.937L386.517,526.937z
	 M48.606,532.199c-0.539,0.012-0.977,0.459-0.977,0.999c0,0.54,0.437,0.988,0.977,0.999h9.173c0.539-0.011,0.978-0.458,0.978-0.999
	c0-0.539-0.438-0.987-0.978-0.999H48.606z"></path>
</svg>