<?xml version="1.0" standalone="no"?>
<svg version="1.1" id="Layer_1" xmlns="http://www.w3.org/2000/svg" xmlns:xlink="http://www.w3.org/1999/xlink" x="0px" y="0px" viewBox="0 0 2000 2000" enable-background="new 0 0 2000 2000" xml:space="preserve">
<path id="color_x5F_11" fill="#E6F4F8" d="M865.9,1391.9c-0.4-0.1-0.9-0.2-1.3-0.3C865,1391.7,865.5,1391.8,865.9,1391.9z
	 M867.8,1392.2c-0.4-0.1-0.9-0.1-1.3-0.2C867,1392.1,867.4,1392.1,867.8,1392.2z M844.4,1382.4
	C844.4,1382.4,844.4,1382.3,844.4,1382.4C844.4,1382.3,844.4,1382.4,844.4,1382.4z M864.1,1391.5c-0.5-0.1-1-0.2-1.5-0.3
	C863.1,1391.3,863.6,1391.4,864.1,1391.5z M868.6,1392.3c0.4,0.1,0.8,0.1,1.3,0.1C869.4,1392.4,869,1392.3,868.6,1392.3z
	 M874.1,1392.7c-0.4,0-0.9,0-1.3,0C873.3,1392.6,873.7,1392.7,874.1,1392.7z M856.4,1233.8l12.8,8.8l-2.7-1.9L856.4,1233.8z
	 M862.7,1251.6l-7-12.2L862.7,1251.6l6.4-9l-3.9,5.4L862.7,1251.6z M870.7,1392.5c0.4,0,0.8,0.1,1.3,0.1
	C871.5,1392.5,871.1,1392.5,870.7,1392.5z M848.5,1385.3c-0.2-0.1-0.4-0.3-0.6-0.4C848.1,1385,848.3,1385.2,848.5,1385.3z
	 M877.3,1392.6c0.4,0,0.9,0,1.4-0.1C878.2,1392.6,877.8,1392.6,877.3,1392.6z M851.9,1387.3c0.3,0.1,0.6,0.3,0.9,0.4
	C852.5,1387.6,852.2,1387.4,851.9,1387.3z M857.3,1389.6c1.5,0.6,3.2,1.1,5,1.5C860.5,1390.7,858.8,1390.2,857.3,1389.6z
	 M850.5,1386.5c-0.3-0.1-0.5-0.3-0.7-0.4C850,1386.2,850.2,1386.3,850.5,1386.5z M848.8,1385.5c0.2,0.1,0.4,0.3,0.7,0.4
	C849.2,1385.8,849,1385.6,848.8,1385.5z M847,1384.4c0.2,0.1,0.4,0.3,0.6,0.4C847.4,1384.6,847.2,1384.5,847,1384.4z M856.8,1232.8
	c-0.1,0-0.2,0-0.3,0C856.6,1232.8,856.7,1232.8,856.8,1232.8z M850.8,1386.7c0.3,0.1,0.5,0.3,0.8,0.4
	C851.3,1386.9,851,1386.8,850.8,1386.7z M846.2,1383.8c-0.2-0.1-0.4-0.3-0.5-0.4C845.8,1383.5,846,1383.6,846.2,1383.8z
	 M846.9,1384.2c-0.2-0.1-0.4-0.3-0.5-0.4C846.5,1384,846.7,1384.1,846.9,1384.2z M845.6,1383.3c-0.2-0.1-0.4-0.3-0.5-0.4
	C845.2,1383,845.4,1383.2,845.6,1383.3z M844.9,1382.8c-0.1-0.1-0.1-0.1-0.2-0.2C844.7,1382.6,844.8,1382.7,844.9,1382.8z
	 M842.3,1230L842.3,1230L842.3,1230z M834.7,1188.9c0-0.1,0-0.2,0-0.3C834.7,1188.7,834.7,1188.8,834.7,1188.9z M836.5,1180.2
	c0-0.1,0.1-0.2,0.1-0.3C836.5,1180,836.5,1180.1,836.5,1180.2z M834.2,1192.9c0-0.1,0-0.1,0-0.2
	C834.2,1192.8,834.2,1192.8,834.2,1192.9z M835,1187.1c0-0.1,0-0.2,0-0.3C835,1186.9,835,1187,835,1187.1z M835.3,1185.4
	c0-0.1,0-0.2,0.1-0.3C835.3,1185.2,835.3,1185.3,835.3,1185.4z M713.9,1212.6l-1.6-99.1L713.9,1212.6L713.9,1212.6z M796.6,1243.2
	l-1.7-83.9L796.6,1243.2L796.6,1243.2z M835.7,1183.5c0,0.1,0,0.2,0,0.2C835.6,1183.6,835.7,1183.5,835.7,1183.5z M836,1182
	L836,1182L836,1182L836,1182z M737.7,1127.6l22.7,12.6l1.8,99.2l0,0l-1.8-99.2l34.6,19.1l41,22.7l-123.8-68.5L737.7,1127.6
	L737.7,1127.6z M853.2,1387.9c0.3,0.1,0.6,0.3,1,0.4C853.8,1388.2,853.5,1388,853.2,1387.9z M848.3,1231.8
	C848.4,1231.8,848.4,1231.8,848.3,1231.8C848.4,1231.8,848.4,1231.8,848.3,1231.8z M849.5,1232c-0.1,0-0.1,0-0.2,0
	C849.4,1232,849.5,1232,849.5,1232z M850.4,1232.1c0.1,0,0.2,0,0.2,0C850.6,1232.2,850.5,1232.2,850.4,1232.1z M853,1232.5
	c-0.1,0-0.2,0-0.3,0C852.8,1232.5,852.9,1232.5,853,1232.5z M851.5,1232.3c0.1,0,0.2,0,0.3,0
	C851.7,1232.3,851.6,1232.3,851.5,1232.3z M843.1,1230.3L843.1,1230.3L843.1,1230.3z M841.6,1229.7L841.6,1229.7L841.6,1229.7
	L841.6,1229.7z M843.8,1230.6L843.8,1230.6L843.8,1230.6z M855.1,1232.7c0.1,0,0.2,0,0.3,0C855.4,1232.7,855.3,1232.7,855.1,1232.7z
	 M854.2,1232.6c-0.1,0-0.2,0-0.3,0C854,1232.6,854.1,1232.6,854.2,1232.6z M1321.1,1505.2c-0.1,0.1-0.2,0.3-0.3,0.4
	C1320.9,1505.4,1321,1505.3,1321.1,1505.2z M1317.7,1508.8c0.2-0.2,0.4-0.4,0.6-0.6C1318.2,1508.4,1318,1508.6,1317.7,1508.8z
	 M1318.9,1507.6c0.1-0.2,0.3-0.3,0.4-0.5C1319.3,1507.3,1319.1,1507.5,1318.9,1507.6z M1322.6,1502.8c0.1-0.2,0.2-0.4,0.3-0.6
	C1322.9,1502.4,1322.8,1502.6,1322.6,1502.8z M1319.9,1506.6c0.1-0.1,0.2-0.3,0.4-0.4C1320.2,1506.3,1320,1506.4,1319.9,1506.6z
	 M837,1178.4L837,1178.4L837,1178.4z M1295,1529c0,0-0.6,0-1.4,0.1C1294.4,1529,1295,1529,1295,1529s0.3-0.1,0.7-0.3
	C1295.3,1528.9,1295,1529,1295,1529z M1306.3,1514.6c1.5-0.4,2.9-0.8,4.2-1.4C1309.2,1513.8,1307.8,1514.3,1306.3,1514.6z
	 M1314.5,1511.2c0.3-0.2,0.6-0.4,0.9-0.6C1315.1,1510.8,1314.8,1511,1314.5,1511.2z M1311,1513.1c0.4-0.2,0.9-0.4,1.3-0.6
	C1311.9,1512.7,1311.4,1512.9,1311,1513.1z M1292.5,1545.8L1292.5,1545.8L1292.5,1545.8L1292.5,1545.8z M1316.9,1509.5
	c-0.3,0.2-0.6,0.5-0.9,0.7C1316.3,1510,1316.6,1509.8,1316.9,1509.5z M1321.5,1504.6c0.1-0.1,0.2-0.3,0.3-0.4
	C1321.6,1504.4,1321.6,1504.5,1321.5,1504.6z M1211.5,1143.3C1211.4,1143.3,1211.4,1143.3,1211.5,1143.3c-1.2,4.1-1.9,7.3-2,9.9
	C1209.6,1150.6,1210.2,1147.4,1211.5,1143.3z M855.5,1388.9c-0.4-0.1-0.7-0.3-1.1-0.5C854.8,1388.6,855.2,1388.8,855.5,1388.9z
	 M1213.8,1161.4c-0.5-0.1-0.9-0.2-1.3-0.4l0,0C1212.9,1161.2,1213.4,1161.4,1213.8,1161.4z M1243,1105.2L1243,1105.2L1243,1105.2z
	 M1238.4,1150c0.1,0,0.2-0.1,0.3-0.1C1238.6,1150,1238.5,1150,1238.4,1150L1238.4,1150z M1203.8,1142.5c0.6,0,1.1-0.1,1.7-0.2
	C1204.9,1142.4,1204.4,1142.5,1203.8,1142.5z M1300.9,1515.5c-0.8,0.1-1.7,0.1-2.5,0.1C1299.2,1515.6,1300,1515.5,1300.9,1515.5z
	 M1203.8,1142.5c-0.5,0-1,0.1-1.5,0.1C1202.8,1142.6,1203.3,1142.6,1203.8,1142.5z M1301.3,1515.4c0.8-0.1,1.5-0.1,2.2-0.3
	C1302.8,1515.3,1302.1,1515.4,1301.3,1515.4z M1322.1,1503.7c0.1-0.1,0.2-0.2,0.2-0.4C1322.2,1503.5,1322.2,1503.6,1322.1,1503.7z
	 M1222.1,1159.8c-0.3,0.1-0.6,0.2-0.9,0.4l0,0c-0.9,0.3-1.8,0.6-2.6,0.9l0,0c-0.9,0.2-1.7,0.4-2.5,0.4l0,0c-0.8,0.1-1.5,0-2.2-0.1
	l0,0C1216.2,1161.9,1219.2,1161.1,1222.1,1159.8z M955.7,1369.4L955.7,1369.4L955.7,1369.4z M955.6,1369.8L955.6,1369.8
	L955.6,1369.8z M953.5,1373.6L953.5,1373.6L953.5,1373.6z M954.9,1371.6L954.9,1371.6L954.9,1371.6z M955.4,1370.4L955.4,1370.4
	L955.4,1370.4z M1306.2,1514.7c-0.7,0.2-1.5,0.3-2.2,0.4C1304.7,1515,1305.5,1514.8,1306.2,1514.7z M879.2,1651.6L879.2,1651.6
	L879.2,1651.6z M873.1,1649.4c0.1,0,0.1,0.1,0.2,0.1C873.2,1649.5,873.1,1649.5,873.1,1649.4z M954.5,1372.3
	C954.5,1372.2,954.5,1372.2,954.5,1372.3C954.5,1372.2,954.5,1372.2,954.5,1372.3z M876.6,1650.9
	C876.6,1650.8,876.5,1650.8,876.6,1650.9C876.5,1650.8,876.6,1650.8,876.6,1650.9z M872.4,1649.1c-0.1,0-0.1-0.1-0.2-0.1
	C872.2,1649,872.3,1649,872.4,1649.1z M857.1,1389.5c-0.4-0.2-0.9-0.3-1.3-0.5C856.3,1389.2,856.7,1389.4,857.1,1389.5z
	 M1307.9,1546.4c-1.1-0.5-2.1-0.9-3.2-1.2C1305.7,1545.5,1306.8,1545.9,1307.9,1546.4L1307.9,1546.4z M1304.7,1545.2
	c-0.4-0.1-0.8-0.2-1.2-0.3C1303.9,1545,1304.3,1545.1,1304.7,1545.2z M1307.9,1546.4L1307.9,1546.4c0.1-0.1,0.1-0.3,0.2-0.4
	C1308,1546.1,1307.9,1546.2,1307.9,1546.4z M1298.3,1540.6c-0.4,0-0.7,0-1.1,0C1297.6,1540.6,1297.9,1540.6,1298.3,1540.6z
	 M1312.9,1512.2c0.1-0.1,0.3-0.1,0.4-0.2c0.2-0.1,0.4-0.2,0.6-0.4C1313.6,1511.8,1313.2,1512,1312.9,1512.2z M1296.8,1523.9
	c1.3-0.5,2.6-0.8,3.8-1C1299.4,1523.1,1298.1,1523.5,1296.8,1523.9c-1,0.4-1.9,0.7-2.7,1.1l0,0
	C1294.8,1524.7,1295.7,1524.3,1296.8,1523.9z M1197,1590.2c1.4,0.3,2.8,1,4.3,1.9C1199.9,1591.2,1198.4,1590.5,1197,1590.2
	L1197,1590.2L1197,1590.2z M1202.1,1583.9L1202.1,1583.9c0.5,0,1.1,0,1.6,0.1C1203.1,1584,1202.6,1583.9,1202.1,1583.9z
	 M1168.1,1272.8c0.5-0.6,1-1.1,1.5-1.7C1169.1,1271.7,1168.6,1272.3,1168.1,1272.8z M1297.1,1528.2c0.6-0.2,1.3-0.4,2-0.6
	C1298.3,1527.7,1297.7,1527.9,1297.1,1528.2z M806.4,1420C806.5,1420,806.5,1420,806.4,1420C806.5,1420,806.5,1420,806.4,1420z
	 M808.3,1599.6c0.1,0,0.2,0,0.3,0C808.6,1599.7,808.5,1599.6,808.3,1599.6z M801,1595C801,1595,801,1594.9,801,1595
	C801,1594.9,801,1595,801,1595z M801.6,1595.8c0.1,0.1,0.1,0.1,0.2,0.2C801.7,1595.9,801.7,1595.8,801.6,1595.8z M802.5,1596.8
	L802.5,1596.8L802.5,1596.8z M803.3,1597.5c0.1,0.1,0.1,0.1,0.2,0.2C803.5,1597.6,803.4,1597.6,803.3,1597.5z M800.3,1593.8
	c0,0.1,0.1,0.2,0.1,0.2C800.4,1594,800.4,1593.9,800.3,1593.8z M798.8,1590c0-0.1,0-0.1-0.1-0.2C798.8,1589.9,798.8,1590,798.8,1590
	z M798.6,1589L798.6,1589L798.6,1589z M799.1,1590.9L799.1,1590.9L799.1,1590.9z M799.9,1593C799.9,1593,799.9,1592.9,799.9,1593
	C799.9,1592.9,799.9,1593,799.9,1593z M799.4,1591.8c0,0.1,0.1,0.2,0.1,0.2C799.4,1592,799.4,1591.9,799.4,1591.8z M865.4,1232.9
	L865.4,1232.9L865.4,1232.9z M858.2,1234.2c0,0.2,0,0.3,0,0.5l0,0C858.2,1234.6,858.2,1234.4,858.2,1234.2z M860,1232.9
	c-0.1,0-0.1,0-0.2,0C859.9,1232.9,859.9,1232.9,860,1232.9z M798.4,1588.1c0,0.1,0,0.1,0,0.2
	C798.4,1588.2,798.4,1588.2,798.4,1588.1z M858.1,1232.9L858.1,1232.9L858.1,1232.9L858.1,1232.9z M863.2,1233c0.1,0,0.3,0,0.4,0
	C863.5,1233,863.3,1233,863.2,1233z M875,1392.7c0.4,0,0.9,0,1.3,0C875.9,1392.7,875.5,1392.7,875,1392.7z M805.6,1598.8
	c0.1,0,0.2,0.1,0.3,0.1C805.8,1598.9,805.7,1598.9,805.6,1598.8z M804.5,1598.3L804.5,1598.3L804.5,1598.3z M861.9,1233
	c-0.1,0-0.3,0-0.4,0C861.6,1233,861.7,1233,861.9,1233z M875.4,1650.5c0,0-0.1,0-0.1-0.1C875.3,1650.4,875.4,1650.4,875.4,1650.5z
	 M807.1,1420L807.1,1420L807.1,1420z M805.2,1420C805.2,1420,805.3,1420,805.2,1420C805.3,1420,805.2,1420,805.2,1420z
	 M804.7,1419.9L804.7,1419.9L804.7,1419.9z M806.4,1426.7c0,0-0.1,0-0.2,0C806.3,1426.7,806.4,1426.7,806.4,1426.7z M855.8,1233.4
	l-0.4-0.3l0,0L855.8,1233.4L855.8,1233.4z M805.8,1420L805.8,1420L805.8,1420z M1242.7,1105.4
	C1242.7,1105.4,1242.7,1105.5,1242.7,1105.4C1242.7,1105.5,1242.7,1105.4,1242.7,1105.4z M1529.1,1161.7L1529.1,1161.7l-1-56l0,0
	L1529.1,1161.7z M280.1,1293.6L280.1,1293.6l52.1-32L280.1,1293.6z M541.5,1144.1h0.1H541.5z M525.5,1354.4L525.5,1354.4
	L525.5,1354.4z M525.5,1354.3L525.5,1354.3L525.5,1354.3z M816.9,1424.9c0.1,0,0.1-0.1,0.2-0.1
	C817,1424.8,816.9,1424.8,816.9,1424.9z M817.6,1424.5c-0.1,0-0.1,0.1-0.2,0.1C817.5,1424.5,817.5,1424.5,817.6,1424.5z
	 M816.4,1425.1c-0.1,0-0.1,0.1-0.2,0.1C816.3,1425.1,816.4,1425.1,816.4,1425.1z M818.1,1424.2c-0.1,0-0.1,0.1-0.2,0.1
	C817.9,1424.2,818,1424.2,818.1,1424.2z M807.9,1420L807.9,1420L807.9,1420z M869.3,1232.8c0.2,0,0.4,0,0.7,0
	C869.7,1232.7,869.5,1232.7,869.3,1232.8z M814.9,1425.7L814.9,1425.7L814.9,1425.7z M815.6,1425.5c0,0,0.1,0,0.1-0.1
	C815.7,1425.4,815.6,1425.4,815.6,1425.5z M808.9,1426.8h0.1C809,1426.8,809,1426.8,808.9,1426.8z M810.2,1426.8L810.2,1426.8
	L810.2,1426.8z M807.6,1426.8c0.1,0,0.1,0,0.2,0C807.7,1426.8,807.7,1426.8,807.6,1426.8z M903.6,1217.9c0,0.1-0.1,0.2-0.1,0.4
	C903.5,1218.1,903.5,1218,903.6,1217.9z M905.4,1189.2c0.3,2.9,0.5,5.8,0.5,8.6c0-4.9-0.4-8.5-0.4-8.5
	C905.5,1189.3,905.5,1189.3,905.4,1189.2L905.4,1189.2z M884.1,1183.1c-1.6,0.7-3.3,1.2-4.8,1.5
	C880.9,1184.3,882.5,1183.8,884.1,1183.1z M905.9,1197.8c0,0.2,0,0.4,0,0.5C905.9,1198.2,905.9,1198,905.9,1197.8z M884.1,1183.1
	c0.8-0.3,1.6-0.8,2.5-1.2C885.8,1182.4,885,1182.8,884.1,1183.1z M886.6,1181.9c0.8-0.5,1.6-1,2.4-1.6
	C888.2,1180.9,887.4,1181.4,886.6,1181.9z M905.9,1199.8c0-0.2,0-0.4,0-0.6C905.9,1199.4,905.9,1199.6,905.9,1199.8z M905.7,1206
	c0,0.2,0,0.3,0,0.5C905.7,1206.3,905.7,1206.2,905.7,1206z M905.8,1204.5c0-0.1,0-0.2,0-0.3C905.8,1204.3,905.8,1204.4,905.8,1204.5
	z M896.9,1171L896.9,1171L896.9,1171c-2.3,4.2-5,7.2-7.8,9.3C891.9,1178.2,894.6,1175.2,896.9,1171z M905.9,1202.5
	c0,0.2,0,0.4,0,0.5C905.9,1202.9,905.9,1202.7,905.9,1202.5z M905.9,1200.9c0,0.2,0,0.4,0,0.6C905.9,1201.2,905.9,1201,905.9,1200.9
	z M865.6,1194.3c0-1.3,0.1-2.5,0.2-3.7C865.7,1191.8,865.6,1193,865.6,1194.3z M833.6,1199.8L833.6,1199.8L833.6,1199.8z
	 M833.8,1197.3L833.8,1197.3L833.8,1197.3z M834.1,1222.2L834.1,1222.2L834.1,1222.2z M834,1222.1C834,1222.1,834,1222,834,1222.1
	C834,1222,834,1222.1,834,1222.1z M872.1,1185c-0.6,0-1.1-0.1-1.6-0.2C871,1184.9,871.5,1185,872.1,1185z M834,1195.1v-0.1
	C834,1195,834,1195,834,1195.1z M739.5,1226.8l-0.9-49.6L739.5,1226.8l8.2,4.5L739.5,1226.8z M872.1,1185c1.7,0.1,3.8,0.1,6.1-0.2
	C875.9,1185.1,873.8,1185.1,872.1,1185z M870.5,1184.8c-1.9-0.3-3.1-0.6-3.1-0.6c-0.6,1.4-1,3-1.3,4.7c0.3-1.7,0.7-3.3,1.3-4.7
	C867.3,1184.2,868.5,1184.6,870.5,1184.8z M905.5,1207.7c0,0.1,0,0.3,0,0.4C905.5,1207.9,905.5,1207.8,905.5,1207.7z M896.9,1226.7
	c0,0-0.1,0-0.1,0.1C896.8,1226.7,896.8,1226.7,896.9,1226.7z M894.3,1227.3L894.3,1227.3L894.3,1227.3z M895.8,1227.1
	c-0.1,0-0.2,0-0.3,0.1C895.6,1227.1,895.7,1227.1,895.8,1227.1z M867.3,1232.9c0.2,0,0.3,0,0.5,0
	C867.6,1232.8,867.5,1232.8,867.3,1232.9z M877.4,1229.6c0.2,0.1,0.3,0.1,0.5,0.2C877.7,1229.7,877.6,1229.7,877.4,1229.6
	L877.4,1229.6z M898.1,1226c-0.1,0.1-0.2,0.1-0.2,0.2C898,1226.1,898.1,1226.1,898.1,1226z M883.6,1392.1c-0.5,0.1-1,0.1-1.5,0.2
	C882.6,1392.2,883.1,1392.2,883.6,1392.1z M871.3,1232.6c0.2,0,0.4,0,0.6,0C871.7,1232.6,871.5,1232.6,871.3,1232.6z M889.8,1390.9
	c-0.9,0.2-1.8,0.4-2.6,0.6C888.1,1391.3,888.9,1391.1,889.8,1390.9z M898.9,1225.5c0.1,0,0.1-0.1,0.2-0.1
	C899,1225.4,899,1225.4,898.9,1225.5z M881.1,1392.4c-0.5,0-1,0.1-1.4,0.1C880.2,1392.5,880.6,1392.4,881.1,1392.4z M886.4,1391.6
	c-0.6,0.1-1.2,0.2-1.7,0.3C885.2,1391.9,885.8,1391.8,886.4,1391.6z M902.2,1221.1c0-0.1,0.1-0.2,0.1-0.3
	C902.3,1220.9,902.3,1221,902.2,1221.1z M904.4,1215c0-0.1,0.1-0.3,0.1-0.4C904.4,1214.8,904.4,1214.9,904.4,1215z M903.9,1216.6
	v-0.1C904,1216.5,904,1216.6,903.9,1216.6z M905,1211.6c0-0.1,0-0.3,0.1-0.4C905.1,1211.3,905.1,1211.5,905,1211.6z M904.7,1213.4
	c0-0.1,0-0.2,0.1-0.3C904.7,1213.2,904.7,1213.3,904.7,1213.4z M837.5,1176.9C837.5,1176.9,837.4,1176.9,837.5,1176.9
	C837.4,1176.9,837.5,1176.9,837.5,1176.9z M900.7,1223.6c0.1-0.1,0.1-0.2,0.2-0.2C900.9,1223.4,900.8,1223.5,900.7,1223.6z
	 M901.6,1222.3c0-0.1,0.1-0.1,0.1-0.2C901.7,1222.2,901.6,1222.2,901.6,1222.3z M902.9,1219.6C902.9,1219.6,903,1219.5,902.9,1219.6
	C903,1219.5,902.9,1219.6,902.9,1219.6z M900.1,1224.4c-0.1,0.1-0.1,0.1-0.2,0.2C900,1224.5,900,1224.4,900.1,1224.4z M905.3,1210
	c0-0.1,0-0.3,0.1-0.4C905.3,1209.7,905.3,1209.8,905.3,1210z M834.4,1190.8c0-0.1,0-0.1,0-0.2
	C834.4,1190.7,834.4,1190.8,834.4,1190.8z M1210.8,1397.5l0.1-9.8c0.2,0.1,0.5,0.1,0.7,0.2c-0.2-0.1-0.5-0.1-0.7-0.2L1210.8,1397.5
	L1210.8,1397.5L1210.8,1397.5z M1183,1223.7c-0.2,1.4-0.4,2.8-0.5,4.3C1182.6,1226.5,1182.8,1225.1,1183,1223.7z M1217.2,1400.7
	c0.1,0.1,0.3,0.1,0.4,0.2C1217.5,1400.8,1217.4,1400.7,1217.2,1400.7z M1215.4,1399.9c-0.1,0-0.1,0-0.2-0.1
	C1215.3,1399.8,1215.3,1399.8,1215.4,1399.9z M1202.8,1380.6c0.3,0.1,0.7,0.1,1,0.2C1203.5,1380.7,1203.1,1380.7,1202.8,1380.6z
	 M1195.9,1379.4c-0.4-0.1-0.9-0.2-1.3-0.3C1195.1,1379.2,1195.5,1379.3,1195.9,1379.4z M1213.3,1398.8c-0.2-0.1-0.3-0.2-0.5-0.2
	C1213,1398.7,1213.1,1398.8,1213.3,1398.8z M1197.5,1379.7c-0.4-0.1-0.8-0.1-1.2-0.2C1196.7,1379.6,1197.1,1379.6,1197.5,1379.7z
	 M1199.2,1380c-0.4-0.1-0.9-0.2-1.3-0.2C1198.3,1379.9,1198.8,1379.9,1199.2,1380z M1200.9,1380.3c-0.4-0.1-0.8-0.1-1.2-0.2
	C1200,1380.2,1200.5,1380.2,1200.9,1380.3z M1204.2,1380.8c0.3,0,0.7,0.1,1,0.1C1204.8,1380.9,1204.5,1380.9,1204.2,1380.8z
	 M1192.8,1378.8c0.5,0.1,0.9,0.2,1.4,0.3C1193.7,1379,1193.3,1378.9,1192.8,1378.8z M1197.2,1594.7c-0.1,0-0.2,0-0.2,0
	S1197.1,1594.7,1197.2,1594.7z M1211.6,1591.5c0.1,0.3,0.3,0.6,0.4,0.8l0,0C1211.9,1592.1,1211.8,1591.8,1211.6,1591.5z
	 M1199.8,1595.7c0.4,0.2,0.8,0.5,1.2,0.9C1200.6,1596.2,1200.2,1595.9,1199.8,1595.7z M1199.6,1602c0.3-0.1,0.5-0.2,0.8-0.4
	C1200.2,1601.8,1199.9,1601.9,1199.6,1602z M1195.1,1594.5L1195.1,1594.5L1195.1,1594.5z M1203.6,1600L1203.6,1600
	c-0.7-1.4-1.6-2.5-2.5-3.3C1202.1,1597.5,1202.9,1598.5,1203.6,1600z M1205.7,1595.6c0.5,0.4,0.9,0.9,1.4,1.3
	C1206.6,1596.4,1206.1,1596,1205.7,1595.6z M1209.3,1582.2c-0.5-0.4-1-0.7-1.5-1C1208.3,1581.5,1208.8,1581.9,1209.3,1582.2z
	 M1204.4,1599.6c1.1-0.6,1.9-1.1,2.3-1.4C1206.3,1598.4,1205.5,1598.9,1204.4,1599.6z M1204.3,1599.6c-0.2,0.1-0.4,0.2-0.7,0.4
	C1203.9,1599.8,1204.1,1599.7,1204.3,1599.6z M1193.8,1310.6c-0.3-0.1-0.6-0.2-0.9-0.4C1193.2,1310.4,1193.5,1310.5,1193.8,1310.6z
	 M1198.8,1602.4c0.2-0.1,0.4-0.2,0.6-0.3C1199.2,1602.2,1199,1602.3,1198.8,1602.4z M1196.1,1311.5c-0.3-0.1-0.7-0.3-1-0.4
	C1195.4,1311.3,1195.8,1311.4,1196.1,1311.5z M1197.5,1312c0.3,0.1,0.7,0.2,1.1,0.4C1198.2,1312.2,1197.8,1312.1,1197.5,1312z
	 M1188.7,1308.4c0.2,0.1,0.5,0.2,0.7,0.3C1189.2,1308.6,1189,1308.5,1188.7,1308.4z M1191.6,1309.7c-0.3-0.1-0.6-0.2-0.8-0.4
	C1191,1309.5,1191.3,1309.6,1191.6,1309.7z M1186.8,1307.5c0.2,0.1,0.4,0.2,0.6,0.3C1187.2,1307.7,1187,1307.6,1186.8,1307.5z
	 M1182.4,1228.4c-0.1,0.7-0.2,1.3-0.3,2C1182.2,1229.7,1182.3,1229,1182.4,1228.4z M1192.4,1378.7c-0.5-0.1-0.9-0.2-1.4-0.3
	C1191.4,1378.5,1191.9,1378.6,1192.4,1378.7z M1200,1312.9c0.4,0.1,0.7,0.2,1.1,0.3C1200.7,1313.1,1200.4,1313,1200,1312.9z
	 M1203.8,1314c-0.4-0.1-0.7-0.2-1.1-0.3C1203,1313.8,1203.4,1313.9,1203.8,1314z M1205.6,1314.5c0.3,0.1,0.6,0.2,0.9,0.3
	C1206.3,1314.7,1205.9,1314.6,1205.6,1314.5z M1182.1,1230.7c-0.1,0.7-0.2,1.4-0.3,2.2C1181.9,1232.1,1182,1231.4,1182.1,1230.7z
	 M1185.3,1306.7c-0.1-0.1-0.2-0.1-0.3-0.2C1185.1,1306.6,1185.2,1306.7,1185.3,1306.7z M1196.4,1366.2c1,0.2,2.1,0.4,3.1,0.5
	C1198.5,1366.6,1197.4,1366.4,1196.4,1366.2z M1189.1,1377.9c0.5,0.1,1,0.2,1.5,0.3C1190,1378.1,1189.6,1378,1189.1,1377.9z
	 M1202.4,1380.6c-0.4-0.1-0.8-0.1-1.2-0.2C1201.7,1380.4,1202.1,1380.5,1202.4,1380.6z M1177.5,1301.8L1177.5,1301.8L1177.5,1301.8z
	 M1202.1,1367c1.2,0.1,2.4,0.2,3.7,0.2C1204.5,1367.2,1203.3,1367.1,1202.1,1367z M1178.8,1255.3c-0.1,0.6-0.2,1.1-0.2,1.6
	C1178.6,1256.4,1178.7,1255.9,1178.8,1255.3z M1179,1253.6c0.4-2.7,0.8-5.7,1.2-8.7c0.1-0.4,0.1-0.9,0.2-1.3
	c0.2-1.3,0.4-2.6,0.5-3.9c0-0.2,0.1-0.4,0.1-0.7c0,0.2-0.1,0.4-0.1,0.7c-0.2,1.3-0.3,2.6-0.5,3.9c-0.1,0.4-0.1,0.9-0.2,1.3
	C1179.8,1247.9,1179.4,1250.9,1179,1253.6c-0.1,0.5-0.1,1-0.2,1.5C1178.9,1254.6,1179,1254.1,1179,1253.6z M1178.8,1302.7
	L1178.8,1302.7L1178.8,1302.7z M1178.3,1258.7c0.1-0.5,0.1-1,0.2-1.5C1178.4,1257.8,1178.3,1258.3,1178.3,1258.7z M1219.9,1401.6
	c-0.1,0-0.2-0.1-0.2-0.1C1219.7,1401.6,1219.8,1401.6,1219.9,1401.6z M539.8,1155c-0.1,1.1-0.2,2.2-0.4,3.4
	C539.5,1157.2,539.7,1156,539.8,1155z M539,1162.5c0.1-1.3,0.3-2.6,0.4-3.8C539.3,1159.9,539.1,1161.1,539,1162.5z M541.3,1144.4
	c0,0.1-0.1,0.2-0.1,0.3C541.2,1144.6,541.3,1144.5,541.3,1144.4z M541.8,1144.4c0,0.1,0.1,0.2,0.1,0.3
	C541.8,1144.6,541.8,1144.5,541.8,1144.4z M541.9,1144.8c0,0.1,0.1,0.3,0.1,0.5C542,1145.1,541.9,1144.9,541.9,1144.8z
	 M541.6,1144.2c0,0,0.1,0.1,0.1,0.2C541.7,1144.3,541.7,1144.2,541.6,1144.2z M541.2,1144.8c0,0.1-0.1,0.3-0.1,0.5
	C541.1,1145.1,541.2,1144.9,541.2,1144.8z M540.9,1146c0-0.2,0.1-0.4,0.1-0.6C541,1145.6,541,1145.8,540.9,1146z M540.5,1149.1
	c-0.1,0.7-0.2,1.5-0.3,2.4C540.3,1150.6,540.4,1149.8,540.5,1149.1z M1223.9,1159c0.3-0.1,0.5-0.3,0.8-0.4c0,0,0,0,0.1,0
	c0.6-0.3,1.1-0.6,1.6-0.9c0,0,0,0,0.1,0c0.2-0.1,0.5-0.3,0.7-0.4c0,0,0.1,0,0.1-0.1c0.5-0.3,1-0.6,1.5-0.9c0,0,0,0,0.1,0
	c0.2-0.1,0.4-0.3,0.6-0.4c0,0,0.1,0,0.1-0.1c-2.1,1.5-4.7,3-7.4,4.2C1222.7,1159.6,1223.3,1159.3,1223.9,1159L1223.9,1159z
	 M540.8,1146.7c0-0.3,0.1-0.5,0.1-0.7C540.9,1146.2,540.8,1146.5,540.8,1146.7z M539.8,1154.7c0.1-1,0.2-2,0.3-2.9
	C540,1152.6,539.9,1153.6,539.8,1154.7z M542.1,1145.9c0-0.2-0.1-0.4-0.1-0.6C542.1,1145.5,542.1,1145.7,542.1,1145.9z
	 M553.8,1321.6L553.8,1321.6L553.8,1321.6z M553.8,1321.1L553.8,1321.1L553.8,1321.1z M553.9,1322.1L553.9,1322.1L553.9,1322.1z
	 M553.7,1319.6L553.7,1319.6L553.7,1319.6z M553.8,1321.9L553.8,1321.9L553.8,1321.9z M542.3,1146.8c0.1,0.6,0.2,1.2,0.3,1.9
	C542.5,1148,542.4,1147.3,542.3,1146.8z M1197.8,1602.8c0.3-0.1,0.5-0.2,0.8-0.3C1198.3,1602.6,1198.1,1602.7,1197.8,1602.8z
	 M542.9,1151.3c0.1,0.9,0.2,1.9,0.3,3C543.1,1153.3,543,1152.3,542.9,1151.3z M542.6,1148.8c0.1,0.7,0.2,1.6,0.3,2.5
	C542.8,1150.4,542.7,1149.5,542.6,1148.8z M542.3,1146.7c0-0.3-0.1-0.5-0.1-0.7C542.2,1146.2,542.2,1146.4,542.3,1146.7z
	 M1201.4,1601.2c0.2-0.1,0.4-0.2,0.7-0.3C1201.8,1600.9,1201.6,1601.1,1201.4,1601.2z M1194.3,1604c-0.2,0-0.3,0.1-0.5,0.1
	C1193.9,1604.1,1194.1,1604.1,1194.3,1604z M1193.6,1604.2c-0.2,0-0.4,0.1-0.6,0.1C1193.1,1604.2,1193.3,1604.2,1193.6,1604.2z
	 M1192.3,1604.3c0.2,0,0.4,0,0.6,0C1192.7,1604.3,1192.5,1604.3,1192.3,1604.3z M1192.2,1604.2c-0.1,0-0.3,0-0.4,0
	C1191.9,1604.2,1192,1604.2,1192.2,1604.2z M541.4,1144.2c0,0-0.1,0.1-0.1,0.2C541.4,1144.3,541.4,1144.2,541.4,1144.2z
	 M1197,1603.2c0.2-0.1,0.5-0.2,0.7-0.3C1197.5,1603,1197.2,1603.1,1197,1603.2z M1196.2,1603.5c0.2-0.1,0.4-0.1,0.6-0.2
	C1196.6,1603.3,1196.4,1603.4,1196.2,1603.5z M1194.5,1604c0.2-0.1,0.4-0.1,0.7-0.2C1194.9,1603.9,1194.7,1603.9,1194.5,1604z
	 M1193.4,1594.7L1193.4,1594.7c0.1,0,0.3,0,0.4-0.1C1193.7,1594.6,1193.6,1594.7,1193.4,1594.7z M1196,1603.5
	c-0.3,0.1-0.5,0.2-0.8,0.2C1195.5,1603.7,1195.7,1603.6,1196,1603.5z M1191.6,1604.2c-0.2,0-0.3-0.1-0.5-0.1
	C1191.3,1604.1,1191.5,1604.1,1191.6,1604.2z M1240.4,1404.1L1240.4,1404.1L1240.4,1404.1z M1201.2,1601.2c-0.3,0.1-0.5,0.3-0.8,0.4
	C1200.7,1601.5,1201,1601.4,1201.2,1601.2z M1276.7,1273c0,0,1.3-15.3,0.8-19.5c-0.2-1.9-2.8-8.6-6.2-15.7c-3.3-0.2-5.4-0.4-5.4-0.4
	c0.2-3.1-7.3-20.8-7.3-20.8c-0.2,0.8-0.3,1.5-0.5,2.3c0.4,0.2,0.7,0.5,1.1,0.8c2.1,5,6.4,15.9,6.3,18.3c0,0,2.2,0.3,5.4,0.4
	c3.4,7.1,6,13.8,6.2,15.7c0.5,4.2-0.8,19.5-0.8,19.5c-0.8,31.2,9.2,42.4,8.5,53.4c0,0.1,0,0.1,0,0.2c-0.4,6.4-1.6,8.8-2.7,10.1
	c1.2-1.3,2.7-3.4,3.1-10.8C1285.9,1315.4,1275.9,1304.2,1276.7,1273z M1890.7,1306.4l-917.2,552.1l-851.6-471.2l92.1-55.4v28.4
	l66.1-39.8v-16l0.3,17.5l154.8-93.2l0.6,0.3v-0.6l0.2-0.1l-0.2-0.1v-1.5l58.5-35.2l10.5,160.4v-0.6c-0.9,0.8-1.4,1.4-1.4,1.4
	s-39.4,1.1-28.1,14s48.2,8.4,50.6,7.4c2.1-0.9,0.4-15.1-0.2-20.2c0.5-7.9,8.8-141.3,13.5-191.3c-0.1,0.7-0.1,1.4-0.2,2l5.1-3.1
	c-0.2-2.8-0.5-5.2-0.7-7.4c3.4,33.6,8.8,140.1,10.3,163.3l0,0c-6.4,0-18,0.4-16.7,3.9c1.8,4.8,14.6,26,24.3,27.5s15.5-1,15.8-2.7
	c0.2-1.1-1.2-11.6-2.3-19.7v0.1l6.7-187.7l482.3-290.3l111.9,61.9l1.3,73.5l375.5,207.8l27.2-16.5l-0.8-41.7L1890.7,1306.4z
	 M985.5,1394.7c-4.6-1.6-19.8-15.8-19.8-15.8c12.1,1.4,13-6.1,10.5-5.2s-18.4-2.2-18.4-2.2s-0.8-0.9-2-2.5c0.1-0.3,0.1-0.5,0.1-0.5
	l-6.1-8.4c1-3.6,1-6.4,1-6.4S924.3,1316,915,1304c4.6-9.4,7.6-22-2.4-30.8l-0.6-0.7c0,0-4.2-31.9-7.5-34.8s-23.7-3.7-23.7-3.7h-0.4
	l-2.5-3.7l0.4,0.5l0.8-0.5c-0.1,0-0.1-0.1-0.2-0.1c2.7,1.1,5.6,1.8,8.4,1.9c4.6,0.2,8.2-1.2,11-3.7c3.5,0.5,9.4,0,17.3-4.4
	c0,0-4.1-10.6-4.3-17c-0.3-6.4,1-36.5-8.1-44.8s-13.7-12.8-30.3-12c-16.6,0.9-33.3,21.8-33.3,21.8s-0.7,1.2-1.6,3.7l-131-72.5
	l-98,58.8l0.4,22.8l179.8,99.5l33.7-20.3c1.3-3.1,2.4-5.5,3.1-6.8c1.5-2.7,4.9-5.5,8.9-8c0.4-0.3,0.8-0.5,1.2-0.8
	c2.1-1.3,4.2-2.4,6.4-3.5c1.3-0.6,2.5-1.3,3.7-1.8c5.2-2.5,9.3-4,9.3-4l-0.1-6l0,0l0,0l0.1,6l0.1,0.1c-3,1.2-24.8,10-29.1,18
	c-4.6,8.6-24.8,63-24.8,63s-9,20.6-8.9,22.9c0,2.2,8.5,75.9,8.5,75.9s1,0.6,2.9,0.9l-0.5,6.4c0.5,0.1,0.9,0.2,1.3,0.2
	c0.6,10.6,2.2,25.2,6.9,28.8c0,0,1.4,0.3,0.8-3.7c0,0,4.1,10,4.6,2.3c0,0,6,7,4.9-0.1c0,0,6.5,8.1,8,3.3c1.4-4.8-6.2-9.2-7-18.5
	c0,0,10.4,3.8,10.8-2.5c0,0-11.9-7-13-9.4c-0.5-1.1-1.4-1.5-2.4-2.8c0.1-0.1,0.2-0.1,0.3-0.2c0.9-0.5-0.9-4.6-1.9-6.6l0,0
	c0.9-0.5,1.8-1,2.7-1.6l-1.1-74.6c0,0,2.2-1.7,1.8-3.4c-0.4-1.7,18.1-29.9,18.1-29.9s8.8,36.2,9.4,43.4c0.5,7.2-4,31-4,31
	s0.1,0.1,0.2,0.2c-2.5,4.5-6.6,16.6-2.8,43.4c4.9,33.8,18.5,62.6,18.5,79.5c-1,1.6-2.2,3.2-3.6,4.8c-7.6,8.5-28.9,16.4-36.7,42.2
	c-7.9,25.8-21.4,33.6-21.4,33.6s0,0.7,0.2,1.8l0,0c-1.6,1.5-3,2.6-4.1,3c-5.5,2.1-26.6,5.2-23,19.6s9,7.4,12.5,15.9
	c3.5,8.6,12.7,37.4,40.1,29.6c0,0,0.4-10.9-6.8-20.2c-7.1-9.2-8.8-28.7-6.8-35.6l0,0c0.4,0,0.8,0,1.2,0l40.5-38.4
	c0,5.3,0.4,9.7,1.3,12.5c3.5,11.2,16,70.8,15,72.5c0,0,1.2,1,3.3,2.2l0,0c0,1.1-0.1,2-0.4,2.6c-1.3,3.5-5.4,14.9-5.3,20.5
	s-0.4,9.9,7.3,12.6c7.8,2.7,13.3,1.5,26.5,13.6s27.8,2.5,27.8,2.5s2.7-6-0.7-9.6s-29.6-24.8-30-28s-3.2-6-3.2-9c0-0.4,0-1.7-0.1-3.6
	l0,0c0.2-0.1,0.4-0.2,0.7-0.3l-4-128.4c0,0,12.3-14.6,12.8-19.7c0.5-5,13.6-41.8,18.6-78.9s-0.9-50.9-0.9-50.9s-0.3,0.2-0.9,0.5
	l-5.7-24.8l24,24.7c0.6-0.2,1.2-0.4,1.8-0.7l3.5,5.5c0.5,0,1,0,1.4-0.1l0,0c1.2,1.4,1.9,2.5,1.9,2.9c0.2,3.8,15.1,18.1,15.1,18.1
	s8.6,10.8,10.8,10.1c2.2-0.7-1.8-6.4-1.8-6.4s4.1,3.7,6.8,4.2s-3.8-7.3-3.8-7.3s7.2,3.5,9.5,3.4s-3.2-5.8-3.2-5.8
	C986.7,1398.1,990.1,1396.2,985.5,1394.7z M1290,1364.2c-0.5,4.2,1,3.8,1,3.8c3.3-2.6,4.8-10.6,5.5-18.9l11.1,6.1l183.8-110.7
	l-0.2-15.6l-244.6-135.4c-0.1-0.9-0.4-1.7-0.8-2.5c0,0,1.7-2.8,1.8-6.5l154.2,85.3l52.9-31.8l-181.1-100.2l174.6,96.6l-178.3-98.7
	l-45.3,27.3c-2.8-0.9-6.2-0.8-10.3,1.4c0,0,8.5-16.1-12.8-27.3c-21.3-11.2-27.3,11.8-27.3,11.8s-10.9,26.7,7.6,36.8
	c-2.8,7.6-0.3,19.8,0.9,21.2c-0.4,4-4.7-11.7-1.3-20.7c-14.6-7.9-10.9-26.3-8.7-33.7l-56.9-31.5l-184,110.8l0.2,15.6l216.8,119.9
	c2.7-4.6,5.1-9,6.2-12.1c0.3-0.7,0.4-1.3,0.6-1.9c1.4-6.7,21.2-33,28.7-42.8v-0.1c-13.2-4.9-19.1-18.1-19.1-18.1s0.2-0.2,0.5-0.4
	c0.4,0.9,6.4,13.4,19.1,18.1l2.4-17.5c3.6-1,7.5-1.4,11.4-1.3c-3.9-0.1-7.8,0.3-11.4,1.3l-2.4,17.5c0,0-0.2,2-0.6,5.2
	c0.4-2.9,0.6-4.8,0.6-5.1c-7.4,9.7-27.3,36.1-28.7,42.8c-1.7,8.2-20.2,34.9-20.2,34.9s-17.8,4.9-20.7,4.1c-2.9-0.8-1.3,7.7,12.4,5
	c0,0-15.9,17.5-21,19.7s-1,4,6.5,1.7c0,0-5.8,7-3.1,6.9c2.7-0.2,10.5-4.8,10.5-4.8s-6.6,9.5-3.6,8.6c3-0.8,7.3-5.4,7.3-5.4
	s-4,6.8-1.5,7.4c2.6,0.6,11.3-12.5,11.3-12.5s15.6-17.6,15.5-21.9c0-1.7,7.1-10.4,15.7-20.4l8,4.4c1.2-4.3,2.3-8.6,3-11.2
	c0.1-0.5,0.3-1.3,0.5-2.3l-2.3-1.3c-1.5,1.7-3.1,3.5-4.6,5.2c2.7-3.1,5.5-6.2,8.2-9.2c0.2-1,0.3-2,0.5-3.1c-0.3,2.2-0.6,4.1-0.9,5.8
	c0,0.2-0.1,0.4-0.1,0.6c-0.3,1.8-0.6,3.1-0.8,3.9c-1.8,6.7-6.6,24.9-7,24.9c-0.2,0,1.8,3,6.9,7l0,0l-5.8,67.8
	c2.1,4.1,10.2,7.1,18.5,9.2c3.5,17.7,7.9,33.9,13,41.9c5.3,8.4,9.4,12.8,12.4,15c0.3,7.6,0.5,13.4,0.5,13.4l-0.2,67.6
	c0,0,0,55.2,0.2,58.3c0,0.1,0,0.2,0,0.3c-0.8-0.4-1.6-0.7-2.5-0.7c-0.5,0-1.1,0.3-1.8,0.9l-6.5,6.8l1.3-1.3c0.5,0.2,1,0.4,1.5,0.7
	c-0.5-0.3-1-0.5-1.5-0.7l-1.3,1.3c-0.7,0.8-1.4,1.7-2.1,2.6l0,0l0,0l0,0c-1.6,2-3.3,4.2-5,6.3l0,0l0,0c-1.2,1.5-2.4,3-3.6,4.4
	c-1.5,1.8-2.9,3.5-4.2,4.8c-0.2,0.2-0.4,0.4-0.5,0.5c-7.3,7.3-19,8.8-13.9,19.1c5.1,10.4,21.6,8.2,27,8.7s19.4-17,29.7-20.9
	c10.2-3.8,11.5-5.9,11.5-5.9c5.2-21.1-1.1-27.4-4.6-29.2c-0.2-0.5-0.4-0.9-0.5-1.3c-1.5-3.5,0.7-15.8,0.7-15.8
	c-1.5-7.9,8.5-49.9,10.5-56c1.2-3.6,1.1-16.7-0.1-29c12.3,13.6,47.2,40.1,49.2,45.8l0,0c-0.2,0-0.3,0-0.5,0c0,0-2.5,2.4-3.6,9.5l0,0
	l0,0l0,0c0,0,0,0.1,0,0.2c-0.1,0.5-0.2,1.1-0.2,1.7l0,0c-0.3,2.7-0.3,6,0,9.9c0.1,1.5,0.1,3-0.1,4.3l0,0c-0.2,1.7-0.6,3.2-1.2,4.6
	c-1,2.5-2.4,4.7-3.9,6.8c-4.3,5.8-9.5,10.1-7.1,16c4.1,10.1,6.2,15.1,25.3,9.8c19.1-5.3,16.9-29.2,23.3-38s11.5-14,11.5-19.5
	s-7.9-21.9-17.9-20.4c0,0-0.2,0.7-0.8,1.7c-1.2-0.5-2.2-0.9-3.1-1.2c-5.7-1.9-25.7-15-33.8-33.7c-8-18.7-19.6-26.4-32.6-35.6
	c-6.5-4.6-9.9-10.1-11.7-14.4c0.1-1.5,0.2-2.3,0.2-2.3s0.8-4.4,2.1-11.3c15.8-2.5,26.8-11.1,26.8-11.1c-1.7-3.3-3.3-9.3-4.7-16.8
	l0,0c-2.5-13.1-4.5-30.7-6-46.7l19.8,10.9c0.1-0.1,0.2-0.3,0.2-0.4c0.2-0.6,0.6-0.9,0.9-1.4c-0.2,0.2-0.4,0.5-0.5,0.9
	c-1,2.4-12.9,10.1-12.9,10.1c0.7,6.5,11.1,2.2,11.1,2.2c-0.4,9.6-8.1,14.4-6.4,19.2s8-3.7,8-3.7c-0.8,7.3,5-0.1,5-0.1
	C1286.2,1374.6,1290,1364.2,1290,1364.2z M1176.8,1265.7c0-0.2,0.1-0.4,0.1-0.6c0.1-0.8,0.3-1.7,0.4-2.6c-1,1.1-2.1,2.3-3.1,3.5
	l2.3,1.3C1176.6,1266.7,1176.7,1266.2,1176.8,1265.7z M1236.4,1571.1L1236.4,1571.1L1236.4,1571.1z M1242.7,1388.5
	c1-0.2,2-0.5,3-0.8C1244.7,1388,1243.7,1388.3,1242.7,1388.5z M1202.2,1600.8c0.5-0.3,1-0.5,1.5-0.8
	C1203.2,1600.2,1202.7,1600.5,1202.2,1600.8z M1206.9,1598.1c0,0-0.1,0.1-0.2,0.1C1206.8,1598.1,1206.8,1598.1,1206.9,1598.1z
	 M1206.9,1598L1206.9,1598L1206.9,1598z M1207,1596.9c0.2,0.2,0.3,0.3,0.5,0.5l-0.6,0.7l0.6-0.7
	C1207.4,1597.2,1207.2,1597,1207,1596.9z M540.8,1146.9c-0.1,0.6-0.2,1.2-0.3,1.9C540.6,1148.1,540.7,1147.5,540.8,1146.9z
	 M1209.4,1381.5c0.2,0,0.4,0,0.6,0.1C1209.8,1381.6,1209.7,1381.6,1209.4,1381.5z M1210.5,1381.7c-0.1,0-0.2,0-0.4,0
	C1210.3,1381.6,1210.4,1381.6,1210.5,1381.7z M1208.7,1381.4c0.2,0,0.4,0.1,0.6,0.1C1209.1,1381.5,1208.9,1381.5,1208.7,1381.4z
	 M1210.6,1381.7c0.1,0,0.2,0,0.2,0C1210.8,1381.7,1210.7,1381.7,1210.6,1381.7z M1226.2,1317.2c0.6,0,1.2,0,1.8,0
	C1227.4,1317.2,1226.8,1317.2,1226.2,1317.2z M1207.5,1381.3c-0.3,0-0.6-0.1-0.9-0.1C1207,1381.2,1207.3,1381.3,1207.5,1381.3z
	 M1212.1,1366.9L1212.1,1366.9c-2.2,0.3-4.3,0.4-6.3,0.3C1207.8,1367.2,1209.9,1367.1,1212.1,1366.9z M1223.3,1317.2
	c0.8,0,1.6,0,2.3,0C1224.9,1317.2,1224.1,1317.2,1223.3,1317.2z M1210.9,1381.7L1210.9,1381.7L1210.9,1381.7z M1209.5,1315.5
	c0.9,0.2,1.7,0.4,2.6,0.5C1211.2,1315.8,1210.4,1315.7,1209.5,1315.5z M1206.4,1381.1c-0.3,0-0.6-0.1-1-0.1
	C1205.8,1381.1,1206.1,1381.1,1206.4,1381.1z M1208.5,1381.4c-0.2,0-0.5-0.1-0.7-0.1C1208.1,1381.4,1208.3,1381.4,1208.5,1381.4z
	 M1222,1402.3c-0.1,0-0.3-0.1-0.4-0.1C1221.7,1402.3,1221.9,1402.3,1222,1402.3z M1224.2,1402.9c-0.1,0-0.2,0-0.3-0.1
	C1224,1402.9,1224.1,1402.9,1224.2,1402.9z M1226.3,1403.4c-0.1,0-0.2,0-0.3-0.1C1226.1,1403.3,1226.2,1403.4,1226.3,1403.4z
	 M1239.1,1389.2c-1.4,0.2-2.7,0.4-4.1,0.5C1236.4,1389.6,1237.8,1389.4,1239.1,1389.2z M1228.2,1403.7c0.1,0,0.2,0,0.3,0
	C1228.4,1403.8,1228.3,1403.7,1228.2,1403.7z M1212.1,1388.1c2.3,0.5,5.4,1.1,8.9,1.5C1217.4,1389.2,1214.4,1388.6,1212.1,1388.1z
	 M1215.3,1316.5c0.8,0.1,1.6,0.2,2.5,0.3C1217,1316.8,1216.2,1316.7,1215.3,1316.5z M1223,1317.2c-0.7,0-1.4-0.1-2-0.1
	C1221.6,1317.2,1222.3,1317.2,1223,1317.2z M1212.8,1316.1c0.7,0.1,1.3,0.2,2,0.3C1214.1,1316.4,1213.4,1316.2,1212.8,1316.1z
	 M1183.4,1220.7c-0.1,0.9-0.2,1.9-0.4,3C1183.1,1222.6,1183.3,1221.6,1183.4,1220.7z M1210.1,1158.5c0.1,0.2,0.2,0.4,0.3,0.6
	C1210.4,1158.9,1210.2,1158.7,1210.1,1158.5z M1210.5,1159.2c0.3,0.4,0.5,0.8,0.9,1.1C1211.1,1160,1210.8,1159.6,1210.5,1159.2z
	 M1234.5,1150.9c-0.1,0.1-0.2,0.1-0.3,0.2C1234.4,1151,1234.4,1150.9,1234.5,1150.9L1234.5,1150.9z M1234.6,1150.8L1234.6,1150.8
	L1234.6,1150.8L1234.6,1150.8z M1210.8,1141.2c1.9-0.8,3.8-1.7,5.6-2.8c-0.5,2.1-1,4.2-1.3,6.1c0.1,0.1,0.2,0.1,0.3,0.2
	c0.3-2.1,0.8-4.5,1.4-6.8c-2.1,1.3-4.3,2.4-6.6,3.2C1210.4,1141.1,1210.6,1141.2,1210.8,1141.2z M1209.5,1153.2c0,0.9,0,1.7,0,2.4
	C1209.4,1154.9,1209.4,1154.1,1209.5,1153.2z M1238.8,1115.2c0,0-0.1,0.2-0.3,0.5c0.9,0,6.5-0.5,9.4-4.1
	C1244.6,1115.1,1238.8,1115.2,1238.8,1115.2z M1234,1151.4c-0.1,0.1-0.1,0.2-0.1,0.3l0,0C1233.9,1151.7,1233.9,1151.6,1234,1151.4
	L1234,1151.4z M1234.2,1151.1c-0.1,0.1-0.1,0.1-0.2,0.2l0,0C1234.1,1151.3,1234.1,1151.2,1234.2,1151.1L1234.2,1151.1z
	 M1231.8,1153.9c-0.6,0.5-1.4,1.1-2.3,1.7c0.2-0.1,0.4-0.3,0.5-0.4c0,0,0.1,0,0.1-0.1c0.2-0.1,0.4-0.3,0.6-0.4c0,0,0.1,0,0.1-0.1
	c0.2-0.1,0.3-0.2,0.5-0.3l0.1-0.1C1231.6,1154.1,1231.7,1154,1231.8,1153.9z M1229.6,1390c0.6,0,1.3,0,1.9,0
	C1230.9,1390,1230.2,1390,1229.6,1390z M1233.9,1151.8L1233.9,1151.8c0,0,0,0.1-0.1,0.1c0,0,0,0,0,0.1l-0.1,0.1c0,0,0,0,0,0.1
	s-0.1,0.1-0.2,0.2l0,0c-0.1,0.1-0.2,0.2-0.3,0.3l-0.1,0.1c-0.1,0.1-0.2,0.1-0.2,0.2l-0.1,0.1c-0.1,0.1-0.2,0.2-0.3,0.3
	c0,0,0,0-0.1,0.1s-0.3,0.2-0.4,0.4l-0.1,0.1C1233.1,1152.9,1233.8,1152.1,1233.9,1151.8z M1221.7,1196.4c-1-0.4-1.9-0.7-2.9-1
	C1219.8,1195.7,1220.7,1196,1221.7,1196.4z M1227.9,1198.9c0.2,0.1,0.4,0.2,0.6,0.3C1228.3,1199.1,1228.1,1199,1227.9,1198.9z
	 M1217.3,1194.9c-1.6-0.5-3.2-1-4.8-1.4C1214.1,1193.9,1215.7,1194.4,1217.3,1194.9z M1225.8,1198c-0.2-0.1-0.5-0.2-0.7-0.3
	C1225.3,1197.8,1225.6,1197.9,1225.8,1198z M1235,1202.2c-1.4-0.7-2.8-1.4-4.2-2.1C1232.2,1200.9,1233.7,1201.5,1235,1202.2z
	 M1212,1160.7c0.2,0.1,0.4,0.2,0.5,0.3C1212.3,1160.9,1212.2,1160.8,1212,1160.7z M1209.6,1156.6c-0.1-0.3-0.1-0.6-0.1-1
	C1209.5,1156,1209.6,1156.3,1209.6,1156.6z M1209.6,1156.7c0.1,0.6,0.3,1.2,0.5,1.7C1209.9,1157.9,1209.8,1157.4,1209.6,1156.7z
	 M1236.6,1404.3h-0.1C1236.5,1404.3,1236.5,1404.3,1236.6,1404.3z M1211.9,1160.7c-0.2-0.1-0.3-0.2-0.5-0.4
	C1211.6,1160.4,1211.7,1160.5,1211.9,1160.7z M1220.3,1317.1c-0.7,0-1.3-0.1-2-0.2C1218.9,1317,1219.6,1317,1220.3,1317.1z
	 M1185.6,1092.8c-0.3,0.7-0.6,1.5-0.8,2.3C1185,1094.3,1185.3,1093.5,1185.6,1092.8z M1183.7,1099.1c0.3-1.4,0.6-2.7,1-3.9
	C1184.3,1096.4,1184,1097.7,1183.7,1099.1z M1186,1091.8c-0.1,0.3-0.3,0.6-0.4,0.9C1185.7,1092.5,1185.9,1092.1,1186,1091.8z
	 M1184.6,1139.5c-2.5,2.7-4.9,8.6-4.5,21.4c0.3,12.4-7.3,23-11.8,28.2c4.4-4.9,12.5-15.8,12.2-28.7
	C1180.2,1148.3,1182.2,1142.4,1184.6,1139.5z M1191.7,1138.4c-0.2-0.2-0.5-0.5-0.7-0.7C1191.2,1137.9,1191.5,1138.2,1191.7,1138.4z
	 M1183.7,1099.1c-0.4,2-0.6,4.1-0.5,6.1c0,1.1,0,1.7-0.2,1.8c-0.1,12,1.6,23.2,6.5,29.9c0.4,0,0.6,0,0.9,0.1
	c0.1,0.1,0.1,0.2,0.2,0.3C1184.1,1129.4,1182.8,1114.1,1183.7,1099.1z M1272.5,1237.9L1272.5,1237.9L1272.5,1237.9z M1273.7,1237.9
	L1273.7,1237.9L1273.7,1237.9z M1293.3,1235.4c2.2-1,4.2-2.3,5.6-4.1c-1.5,1.6-3.5,2.9-5.7,3.8l0,0
	C1293.3,1235.2,1293.3,1235.3,1293.3,1235.4z M1186.5,1090.7c0.1-0.3,0.3-0.5,0.4-0.8C1186.8,1090.2,1186.7,1090.4,1186.5,1090.7z
	 M1186.4,1090.9c-0.1,0.2-0.2,0.4-0.3,0.7C1186.2,1091.4,1186.3,1091.2,1186.4,1090.9z M1274.9,1237.9
	C1275,1237.9,1275,1237.9,1274.9,1237.9C1275,1237.9,1275,1237.9,1274.9,1237.9z M1210.1,1192.9c-2.8-0.6-5.7-1.1-8.5-1.4
	C1204.4,1191.8,1207.2,1192.2,1210.1,1192.9z M1198.9,1142.3c-0.4-0.1-0.8-0.2-1.2-0.3C1198.1,1142.1,1198.5,1142.2,1198.9,1142.3z
	 M1184,1215.5c-0.2,1.4-0.4,3.1-0.6,5C1183.6,1218.6,1183.8,1217,1184,1215.5z M1181.3,1236.6c0.2-1.2,0.3-2.4,0.5-3.6
	C1181.7,1234.1,1181.5,1235.4,1181.3,1236.6c0,0.3-0.1,0.6-0.1,0.9C1181.3,1237.2,1181.3,1236.9,1181.3,1236.6z M1200.5,1142.5
	c-0.4,0-0.8-0.1-1.2-0.2C1199.7,1142.4,1200.1,1142.5,1200.5,1142.5z M1202,1142.6c-0.5,0-0.9,0-1.4-0.1
	C1201.1,1142.6,1201.5,1142.6,1202,1142.6z M1193,1139.5c0.3,0.2,0.6,0.4,0.8,0.6C1193.5,1140,1193.2,1139.8,1193,1139.5z
	 M1192.1,1138.8c0.2,0.2,0.3,0.3,0.5,0.5C1192.4,1139.1,1192.2,1138.9,1192.1,1138.8z M1194.2,1140.4c0.2,0.1,0.5,0.3,0.7,0.4
	C1194.7,1140.7,1194.4,1140.6,1194.2,1140.4z M1195.2,1141c0.3,0.2,0.7,0.3,1,0.5C1195.9,1141.3,1195.5,1141.2,1195.2,1141z
	 M1196.6,1141.6c0.3,0.1,0.6,0.2,0.9,0.3C1197.2,1141.8,1196.9,1141.7,1196.6,1141.6z M1251.1,1312.5c-0.3,0.1-0.7,0.3-1.1,0.4
	C1250.4,1312.8,1250.8,1312.6,1251.1,1312.5z M1251.6,1312.3c0.4-0.2,0.9-0.3,1.3-0.5C1252.5,1312,1252,1312.2,1251.6,1312.3z
	 M1248.2,1313.5c0.5-0.1,0.9-0.3,1.3-0.4C1249.1,1313.2,1248.7,1313.4,1248.2,1313.5z M1254.2,1311.3c-0.3,0.1-0.5,0.2-0.8,0.3
	C1253.7,1311.5,1253.9,1311.4,1254.2,1311.3z M1242.2,1206.1c-0.6-0.3-1.2-0.7-1.9-1C1241,1205.4,1241.6,1205.7,1242.2,1206.1z
	 M1232.4,1404.2c0.1,0,0.1,0,0.2,0C1232.5,1404.2,1232.4,1404.2,1232.4,1404.2z M1254.8,1311c0.2-0.1,0.5-0.2,0.7-0.3
	C1255.2,1310.8,1255,1310.9,1254.8,1311z M1230.9,1317c-0.7,0.1-1.5,0.1-2.2,0.1C1229.4,1317.1,1230.1,1317.1,1230.9,1317z
	 M1230.9,1317c0.7-0.1,1.5-0.1,2.2-0.2C1232.3,1316.9,1231.6,1317,1230.9,1317z M1235.3,1316.5c-0.6,0.1-1.1,0.2-1.7,0.2
	C1234.2,1316.7,1234.7,1316.6,1235.3,1316.5z M1237.8,1316.1c-0.7,0.1-1.4,0.2-2.1,0.3C1236.4,1316.4,1237.1,1316.3,1237.8,1316.1z
	 M1242,1315.3c-0.6,0.1-1.1,0.3-1.7,0.4C1240.9,1315.5,1241.4,1315.4,1242,1315.3z M1256.4,1310.3c0.2-0.1,0.4-0.2,0.6-0.3
	C1256.8,1310.2,1256.6,1310.2,1256.4,1310.3z M1246.3,1314.1c0.6-0.2,1.1-0.3,1.6-0.5C1247.4,1313.8,1246.9,1314,1246.3,1314.1z
	 M1257.6,1309.8c0.1-0.1,0.3-0.1,0.4-0.2C1257.8,1309.6,1257.7,1309.7,1257.6,1309.8z M1230.4,1404c-0.1,0-0.1,0-0.2,0
	C1230.3,1404,1230.4,1404,1230.4,1404z M1257.6,1215.9c-0.1-0.1-0.2-0.1-0.3-0.2C1257.5,1215.7,1257.5,1215.8,1257.6,1215.9z
	 M1242.2,1315.2c0.6-0.1,1.2-0.3,1.8-0.5C1243.4,1314.9,1242.8,1315.1,1242.2,1315.2z M1244.5,1314.6c0.5-0.1,0.9-0.3,1.3-0.4
	C1245.4,1314.4,1245,1314.5,1244.5,1314.6z M1239.8,1315.8c-0.5,0.1-1.1,0.2-1.7,0.3C1238.7,1316,1239.2,1315.9,1239.8,1315.8z
	 M1263.1,1306.8c-0.7,0.5-2.3,1.4-4.5,2.5l0,0c0,0.1,0,0.2,0,0.3c2.9-1.5,4.5-2.6,4.5-2.6S1263.1,1306.9,1263.1,1306.8z"></path>
<path id="color_x5F_10" fill="#A1D3E9" d="M279.9,1293.7l129.9-79.7l26.2,14.6l-155.5,93.6L279.9,1293.7z M435.7,977.6V836.3
	l-25.3,15.2l-0.3,111.9L435.7,977.6z M435.7,1034v195.3l-26.2-14.6l0.5-207.8l13.1,7.2C425.8,1018.7,430.3,1026.1,435.7,1034z"></path>
<path id="color_x5F_9" fill="#E1A6A7" d="M737.7,1127.6l22.7,12.6l1.8,99.2l-22.7-12.6L737.7,1127.6z M712.2,1113.5l-85,51.2
	l86.6,47.9L712.2,1113.5z M796.6,1243.2L796.6,1243.2l-13.1,7.9L796.6,1243.2z M836,1182l-41-22.7l1.7,83.9l37.3-22.5
	C832.6,1202.2,834.2,1189.7,836,1182z"></path>
<path id="color_x5F_8" fill="#C3E8F4" d="M1891.8,1365.4l-917.2,552.1L123,1446.3l-1.1-59l851.6,471.2l917.2-552.1L1891.8,1365.4z
	 M1228.7,1066.2c-0.2-0.2-0.4-0.4-0.7-0.5C1228.3,1065.8,1228.5,1066,1228.7,1066.2z M1228.9,1066.4c0.1,0.1,0.3,0.3,0.4,0.4
	C1229.2,1066.7,1229.1,1066.6,1228.9,1066.4z M1227.9,1065.5c-0.2-0.2-0.5-0.4-0.8-0.5C1227.4,1065.2,1227.6,1065.3,1227.9,1065.5z
	 M1224.2,1063.5c0.2,0.1,0.5,0.2,0.7,0.3C1224.7,1063.7,1224.4,1063.6,1224.2,1063.5z M1226.8,1064.8c-0.2-0.1-0.4-0.2-0.6-0.3
	C1226.4,1064.6,1226.6,1064.7,1226.8,1064.8z M1454.7,1138l-52.9,31.8l-154.6-85.6c-0.1-2.4-0.8-5-2.9-7.6c-5.8-7-11.2-4.6-11.2-4.6
	s-1.1-2.5-3.4-4.9c0,0.1,0.1,0.1,0.2,0.2l171.9,95.1l46.5-28l-174.6-96.6l0,0L1454.7,1138z M1225.9,1064.2c-0.2-0.1-0.4-0.2-0.6-0.3
	C1225.5,1064.1,1225.7,1064.1,1225.9,1064.2z M1547.2,906l-375.5-207.8l5.2,286.1l375.5,207.8L1547.2,906z M1199.7,979.5l-4.6-250.9
	l329.4,182.3l4.6,250.9L1199.7,979.5z M1209.8,1141.6c2.3-0.8,4.5-1.9,6.6-3.2c-0.6,2.3-1.1,4.6-1.4,6.8c-1.1-0.6-2.3-1.3-3.8-2
	c0.1-0.4,0.2-0.7,0.4-1.1C1211.5,1142.1,1210.9,1141.9,1209.8,1141.6z M1174.2,1265.9c1-1.2,2.1-2.3,3.1-3.5
	c-0.1,0.9-0.3,1.8-0.4,2.6c0,0.2-0.1,0.4-0.1,0.6c-0.1,0.6-0.2,1.1-0.3,1.5L1174.2,1265.9z M1284.8,1326.9c0,0.1,0,0.1,0,0.2
	l-26.4-14.6c-0.1-0.9-0.1-1.8-0.2-2.7c3.2-1.6,5-2.8,5-2.8s-7-26.9-6.8-39.7c0-0.9,0-1.7,0-2.6c0-0.7,0-1.3-0.1-2
	c0-0.7-0.1-1.4-0.1-2.1c-0.5-10.5-2-23.1,1-38.6c0.6-2,0.9-3.1,0.9-3.1c0.4,0.2,0.8,0.5,1.2,0.8c2.1,5,6.4,15.9,6.3,18.3
	c0,0,2.2,0.3,5.4,0.4c3.4,7.1,6,13.8,6.2,15.7c0.5,4.2-0.8,19.5-0.8,19.5C1275.5,1304.7,1285.4,1315.9,1284.8,1326.9z M1246,1093.1
	c0.7,2.6,0.1,5.4-0.7,7.7c2.1-0.3,4,0.6,4.3,4.9c0.7,9.7-11.2,10-11.2,10s-0.9,1.4-2.5,3.6c-0.6,7.5-1.7,25.3-0.3,31.5
	c1.9-0.4,4.2-0.2,4.2-0.2s35.2,17.7,37.1,18.7c1.9,0.9,8.4,18.1,9.3,21.3c0.9,3.2,14.7,37,14.7,37c-1.1,3.9-4.2,6.4-8.1,8
	c4,9.8,7.3,17.2,8.8,18.7c4.8,5-5.1,72.8-5.1,72.8s0.1,2.6,0.2,6.5l10.7,5.9l183.8-110.7L1246,1093.1z M1237.4,1150.4
	C1237.4,1150.4,1237.4,1150.5,1237.4,1150.4L1237.4,1150.4c0.3-0.3,0.8-0.4,1.3-0.5C1238.2,1150,1237.8,1150.2,1237.4,1150.4z
	 M1155,1255.3l-223.2-123.5l184-110.8l56.9,31.5c-2.2,7.3-6,25.7,8.7,33.7c-3.6,9.7,1.7,27.1,1.3,19.5c-0.1-2.1,0.1-4.2,0.5-6.2
	c-0.9,14.9,0.3,30.1,6.7,38c-1.8-0.3-10.6-0.6-9.9,23.5c0.5,17.5-14.9,31.5-14.9,31.5s5.9,13.3,19.1,18.1c0,0,0,0,0,0.1
	c-7.4,9.7-27.3,36.1-28.7,42.8C1155.5,1254,1155.3,1254.6,1155,1255.3z M1038,149.5l1.4,76.1c0.1,3.5-1.8,6.8-4.8,8.6l-65.2,39.3
	c-6.5,3.9-14.8-0.7-14.9-8.3l-1.5-76.1c-0.1-3.5,1.8-6.8,4.8-8.6l65.3-39.3C1029.5,137.4,1037.8,142,1038,149.5z M489.6,1120.3
	c0,0-0.3-23-0.5-52.2c-4.5,3.1-10.6,4.7-18.3,2.2c-10.8-3.5-24.6-21-35.1-36.4l-0.1,193.1l58.6-35.3L489.6,1120.3z M541.5,1144.1
	L541.5,1144.1c-0.7,0.8-1.6,8.5-2.7,20.7l5.1-3.1C543,1150.8,542.1,1144,541.5,1144.1z M435.7,836.3L280.1,930v390.6l-66.1,39.8
	V760.8l933.6-562.7l10.8,593.8l-577,347.3v-1.2c4.7-3.3,10.5-8.8,11.2-12.9c1-5.8-2.6-16-4.8-21.6l3-1.1c0,0-7.3-95.6-10.6-133.8
	s-17.5-37.5-20.2-39.3l0,0c-9.1-5.7-16.6-5.4-21.3-4.1c-3.8,1.1-6,2.8-6,2.8l-0.1-5.6l0,0l-0.1-5.3c2.9-1.3,4.9-2.6,5.5-4
	c1-2.2,3.2-5.9,5.4-10.3l0,0c6.9-0.2,6.1-6.4,8.9-13.5s2-8.1-1.7-23.6c-3.8-15.5-26.3-14.9-26.3-14.9s-15.8-12.6-29-1
	s-2.5,26.3-2.5,26.3s-3,10.2-5.1,21c-2-0.2-3.9,0.3-3.9,0.3s-2.1,4.2,0.2,8.3c0.8,1.4,1.5,1.7,2.2,1.6c-0.6,6.2-0.4,11.5,1.5,13.6
	c2.8,3.1,12.7,3.2,23.1,1.7c-0.2,1.3-0.5,2.6-0.8,3.9l0,0c-0.7,3.1-1.3,5.9-1.6,7.2c-0.1,0.4-0.2,0.7-0.2,0.7s-0.9,0.3-2.3,0.9
	c-0.3,0.1-0.6,0.3-0.9,0.4c-0.2,0.1-0.4,0.2-0.7,0.3c-3.9,1.9-9.7,5.5-12.5,10.7l-0.2-0.2c-0.9,0.5-26.9,12.5-22.9,80.5l-21-19.7
	l20.1-12.1l-32-17.7L435.7,836.3z M1104.7,637.1c-0.2-8.5-9.5-13.7-16.8-9.3l-117.3,70.6c-3.4,2-5.4,5.7-5.4,9.7l1,55.7
	c0.2,8.5,9.5,13.7,16.8,9.3l117.3-70.6c3.4-2,5.4-5.7,5.4-9.7L1104.7,637.1z M1102.4,507.2L619.1,798.1l1.1,62.7l322.2-193.9
	l161.1-97L1102.4,507.2z M617.3,699.4l1.1,62.7l322.2-193.9l161.1-97l-1.1-62.7L617.3,699.4z M565.6,932.8
	c16.5,13.6,17.3,138.2,17.2,172.7l8.5-3.3c0,0-7.3-95.6-10.6-133.8s-17.5-37.5-20.2-39.3l0,0C562.2,930.2,563.9,931.4,565.6,932.8z
	 M512,1082.9c-5.2,12.3-13,24.3-20.8,35.4c-0.1-7.5-0.3-27.4-0.5-51.1c6.4-5,9.2-12.7,8.7-14c-1-2.3-1.8-99.9-1.8-99.9l-4.4-5.2
	c0.3-0.6,0.6-1.1,1-1.7c14,12.7,19,34.3,21.8,53.8C520.2,1027.9,522.9,1057.1,512,1082.9z"></path>
<path id="color_x5F_7" fill="#FFFFFF" d="M1524.5,910.8l4.6,250.9l-329.4-182.3l-4.6-250.9L1524.5,910.8z M768.7,645.9l7.1-4.3
	l-3.8-9.1L768.7,645.9z M724.4,665.3c-0.3,0.8-0.8,1.5-1.5,2.2c-0.6,0.6-2.2,1.7-4.7,3.2l-3.9,2.4l-0.2-7.7l4.1-2.5
	c2.1-1.3,3.4-2,3.9-2.2c0.9-0.4,1.5-0.4,2,0c0.5,0.3,0.7,1,0.8,2.1C724.9,663.6,724.8,664.4,724.4,665.3z M1100.6,408.5L617.3,699.4
	l1.1,62.7l322.2-193.9l161.1-97L1100.6,408.5z M654.5,720.1c-0.3,1.7-0.8,3.3-1.5,4.8s-1.8,2.9-3,4.3c-1.3,1.4-2.9,2.7-5,4
	c-2.5,1.5-4.4,2.3-5.7,2.4c-1.3,0.1-2.3-0.1-3.1-0.8c-0.8-0.6-1.3-1.4-1.6-2.5c-0.4-1.5-0.6-4-0.7-7.4l-0.3-16.2l5.3-3.2l0.3,16.5
	c0.1,2.6,0.2,4.3,0.3,5c0.3,1.1,0.8,1.8,1.7,2s2-0.1,3.5-1s2.6-1.9,3.4-3.1c0.7-1.2,1.2-2.3,1.3-3.5c0.1-1.1,0.2-2.9,0.1-5.3
	l-0.4-16.8l5.3-3.2l0.3,16C654.8,715.7,654.7,718.4,654.5,720.1z M679.2,707.9c-0.8,2-2,3.9-3.5,5.5c-1.5,1.7-3.4,3.2-5.7,4.5
	c-3.3,2-5.9,2.6-7.7,1.9s-2.9-2.7-3.3-5.9l5.1-3.7c0.4,1.8,1,2.9,2,3.3c1,0.4,2.3,0.1,3.9-0.9c1.7-1,3-2.2,3.8-3.6s1.3-2.6,1.2-3.7
	c0-0.7-0.2-1.2-0.6-1.5c-0.4-0.3-1-0.3-1.9-0.2c-0.6,0.1-2,0.5-4.3,1.2c-2.9,0.9-4.9,1.1-6,0.6c-1.6-0.7-2.5-2.3-2.5-4.7
	c0-1.5,0.3-3.2,1-5s1.8-3.5,3.2-5c1.4-1.6,3.1-2.9,5.1-4.2c3.3-2,5.8-2.6,7.5-2c1.7,0.7,2.6,2.4,2.8,5.1l-5.3,3.5
	c-0.3-1.4-0.8-2.3-1.5-2.5c-0.8-0.2-1.9,0.1-3.4,1s-2.7,2-3.6,3.3c-0.5,0.8-0.8,1.6-0.8,2.4c0,0.7,0.3,1.2,0.8,1.4
	c0.7,0.3,2.3,0,4.9-0.9c2.6-0.8,4.5-1.3,5.8-1.2c1.2,0,2.2,0.5,3,1.3c0.7,0.9,1.1,2.3,1.1,4.2C680.4,704,680,705.9,679.2,707.9z
	 M685,708.5l-0.6-30.4l19.4-11.7l0.1,5.1l-14.1,8.5l0.1,6.7l13.1-7.9l0.1,5.1l-13.1,7.9l0.2,8.3l14.6-8.8l0.1,5.1L685,708.5z
	 M726.6,683.4l-4-4.3c-1.4-1.5-2.4-2.5-2.9-2.8s-1.1-0.4-1.6-0.3c-0.6,0.1-1.5,0.5-2.7,1.3l-1.1,0.6l0.3,12.7l-5.3,3.2l-0.6-30.4
	l11.1-6.7c2.8-1.7,4.8-2.6,6.1-2.9c1.3-0.2,2.3,0.1,3.1,1.1c0.8,0.9,1.2,2.3,1.2,4.1c0,2.3-0.5,4.5-1.6,6.7s-2.8,4.2-5.1,5.9
	c1.2,0.1,2.1,0.4,2.9,0.8c0.8,0.5,1.8,1.5,3.1,3.1l3.3,4L726.6,683.4z M751.3,668.5l-11-13.5l0.4,19.8l-4.9,3l-0.6-30.4l5.1-3.1
	l11.1,13.9l-0.4-20.3l4.9-3l0.6,30.4L751.3,668.5z M780.1,651.2l-2.4-5.5l-10.5,6.3l-2,8.2l-5.6,3.4l9.6-36.5l5.6-3.4l11.1,24.1
	L780.1,651.2z M808.9,633.9l-0.5-23.9l-4.7,27.1l-5.1,3.1l-5.7-20.8l0.5,23.9l-4.9,3l-0.6-30.4l7.9-4.8L801,629l4.3-23.6l7.9-4.8
	l0.6,30.4L808.9,633.9z M819.1,627.7l-0.6-30.4l19.4-11.7l0.1,5.1l-14.1,8.5l0.1,6.7l13.1-7.9l0.1,5.1l-13.1,7.9l0.2,8.3l14.6-8.8
	l0.1,5.1L819.1,627.7z M1102.4,507.2L619.1,798.1l1.1,62.7l322.2-193.9l161.1-97L1102.4,507.2z M648.8,819.5c0.6,0.4,1,0.7,1.3,1
	l-3.4,4.7l-3.1-4c-0.9,2.4-1.9,5-3,7.8l-3.4-1c1-2,2.1-4,3.3-6c0.5-0.8,0.7-1.3,0.8-1.5c-0.4,0.2-1.4,0.5-3.2,1.1
	c-1.3,0.4-2.1,0.6-2.5,0.7l1.2-5.3c2-0.3,3.7-0.3,5.3-0.1c-0.4-2.6-0.6-4.8-0.7-6.6l4-2.4c0,1.3-0.1,3.7-0.5,7.3
	c0.3-0.3,0.9-1,1.9-2.2c1.3-1.5,2.5-2.9,3.7-4l1.3,4c-1.6,1.4-3.5,3-5.7,4.7L648.8,819.5z M666.6,808.8c0.5,0.4,1,0.7,1.3,1
	l-3.4,4.7l-3.1-4c-0.9,2.4-1.9,5-3,7.8l-3.4-1c1-2,2.1-4,3.3-6c0.5-0.8,0.7-1.3,0.9-1.5c-0.4,0.2-1.4,0.5-3.2,1.1
	c-1.3,0.4-2.1,0.6-2.5,0.7l1.2-5.3c2-0.3,3.7-0.3,5.3-0.1c-0.4-2.6-0.6-4.8-0.7-6.6l4-2.4c0,1.3-0.1,3.7-0.5,7.3
	c0.3-0.3,0.9-1,1.9-2.2c1.3-1.5,2.5-2.9,3.7-4l1.3,4c-1.6,1.4-3.5,3-5.7,4.7L666.6,808.8z M684.3,798.1c0.5,0.4,1,0.7,1.3,1
	l-3.4,4.7l-3.1-4c-0.9,2.4-1.9,5-3,7.8l-3.4-1c1-2,2.1-4,3.3-6c0.5-0.8,0.7-1.3,0.9-1.5c-0.4,0.2-1.4,0.5-3.2,1.1
	c-1.3,0.4-2.1,0.6-2.5,0.7l1.2-5.3c2-0.3,3.7-0.3,5.3-0.1c-0.4-2.6-0.6-4.8-0.7-6.6l4-2.4c0,1.3-0.1,3.7-0.5,7.3
	c0.3-0.3,0.9-1,1.9-2.2c1.3-1.5,2.5-2.9,3.7-4l1.3,4c-1.6,1.4-3.5,3-5.7,4.7L684.3,798.1z M702.1,787.4c0.6,0.4,1,0.7,1.3,1
	l-3.3,4.7l-3.1-4c-0.9,2.4-1.9,5-3,7.8l-3.4-1c1-2,2.1-4,3.3-6c0.5-0.8,0.7-1.3,0.8-1.5c-0.4,0.2-1.4,0.5-3.2,1.1
	c-1.3,0.4-2.1,0.6-2.5,0.7l1.2-5.3c2-0.3,3.7-0.3,5.3-0.1c-0.4-2.6-0.6-4.8-0.7-6.6l4-2.4c0,1.3-0.1,3.7-0.5,7.3
	c0.3-0.3,0.9-1,1.9-2.2c1.3-1.5,2.5-2.9,3.7-4l1.3,4c-1.6,1.4-3.5,3-5.7,4.7L702.1,787.4z M719.8,776.7c0.6,0.4,1,0.7,1.3,1
	l-3.4,4.7l-3.1-4c-0.9,2.4-1.9,5-3,7.8l-3.4-1c1-2,2.1-4,3.3-6c0.4-0.8,0.7-1.3,0.8-1.5c-0.4,0.2-1.4,0.5-3.2,1.1
	c-1.3,0.4-2.1,0.6-2.5,0.7l1.2-5.3c2-0.3,3.7-0.3,5.3-0.1c-0.4-2.6-0.6-4.8-0.7-6.6l4-2.4c0,1.3-0.1,3.7-0.5,7.3
	c0.3-0.3,0.9-1,1.9-2.2c1.3-1.5,2.5-2.9,3.7-4l1.3,4c-1.6,1.4-3.5,3-5.7,4.7L719.8,776.7z M737.6,766c0.5,0.4,1,0.7,1.3,1l-3.4,4.7
	l-3.1-4c-0.9,2.4-1.9,5-3,7.8l-3.4-1c1-2,2.1-4,3.3-6c0.5-0.8,0.7-1.3,0.9-1.5c-0.4,0.2-1.4,0.5-3.2,1.1c-1.3,0.4-2.1,0.6-2.5,0.7
	l1.2-5.3c2-0.3,3.7-0.3,5.3-0.1c-0.4-2.6-0.6-4.8-0.7-6.6l4-2.4c0,1.3-0.1,3.7-0.5,7.3c0.3-0.3,0.9-1,1.9-2.2c1.3-1.5,2.5-2.9,3.7-4
	l1.3,4c-1.6,1.4-3.5,3-5.7,4.7L737.6,766z M755.3,755.4c0.6,0.4,1,0.7,1.3,1l-3.4,4.7l-3.1-4c-0.9,2.4-1.9,5-3,7.8l-3.4-1
	c1-2,2.1-4,3.3-6c0.5-0.8,0.7-1.3,0.9-1.5c-0.4,0.2-1.4,0.5-3.2,1.1c-1.3,0.4-2.1,0.6-2.5,0.7l1.2-5.3c2-0.3,3.7-0.3,5.3-0.1
	c-0.4-2.6-0.6-4.8-0.7-6.6l4-2.4c0,1.3-0.1,3.7-0.5,7.3c0.3-0.3,0.9-1,1.9-2.2c1.3-1.5,2.5-2.9,3.7-4l1.3,4c-1.6,1.4-3.5,3-5.7,4.7
	L755.3,755.4z M773.1,744.7c0.6,0.4,1,0.7,1.3,1l-3.4,4.7l-3.1-4c-0.9,2.4-1.9,5-3,7.8l-3.4-1c1-2,2.1-4,3.3-6
	c0.5-0.8,0.7-1.3,0.8-1.5c-0.4,0.2-1.4,0.5-3.2,1.1c-1.3,0.4-2.1,0.6-2.5,0.7l1.2-5.3c2-0.3,3.7-0.3,5.3-0.1
	c-0.4-2.6-0.6-4.8-0.7-6.6l4-2.4c0,1.3-0.1,3.7-0.5,7.3c0.3-0.3,0.9-1,1.9-2.2c1.3-1.5,2.5-2.9,3.7-4l1.3,4c-1.6,1.4-3.5,3-5.7,4.7
	L773.1,744.7z M790.9,734c0.6,0.4,1,0.7,1.3,1l-3.4,4.7l-3.1-4c-0.9,2.4-1.9,5-3,7.8l-3.4-1c1-2,2.1-4,3.3-6
	c0.5-0.8,0.7-1.3,0.9-1.5c-0.4,0.2-1.4,0.5-3.2,1.1c-1.3,0.4-2.1,0.6-2.5,0.7l1.2-5.3c2-0.3,3.7-0.3,5.3-0.1
	c-0.4-2.6-0.6-4.8-0.7-6.6l4-2.4c0,1.3-0.1,3.7-0.5,7.3c0.3-0.3,0.9-1,1.9-2.2c1.3-1.5,2.5-2.9,3.7-4l1.3,4c-1.6,1.4-3.5,3-5.7,4.7
	L790.9,734z M808.6,723.3c0.5,0.4,1,0.7,1.3,1l-3.4,4.7l-3.1-4c-0.9,2.4-1.9,5-3,7.8l-3.4-1c1-2,2.1-4,3.3-6
	c0.5-0.8,0.7-1.3,0.9-1.5c-0.4,0.2-1.4,0.5-3.2,1.1c-1.3,0.4-2.1,0.6-2.5,0.7l1.2-5.3c2-0.3,3.7-0.3,5.3-0.1
	c-0.4-2.6-0.6-4.8-0.7-6.6l4-2.4c0,1.3-0.1,3.7-0.5,7.3c0.3-0.3,0.9-1,1.9-2.2c1.3-1.5,2.5-2.9,3.7-4l1.3,4c-1.6,1.4-3.5,3-5.7,4.7
	L808.6,723.3z M826.4,712.6c0.6,0.4,1,0.7,1.3,1l-3.3,4.7l-3.1-4c-0.9,2.4-1.9,5-3,7.8l-3.4-1c1-2,2.1-4,3.3-6
	c0.5-0.8,0.7-1.3,0.9-1.5c-0.4,0.2-1.4,0.5-3.2,1.1c-1.3,0.4-2.1,0.6-2.5,0.7l1.2-5.3c2-0.3,3.7-0.3,5.3-0.1
	c-0.4-2.6-0.6-4.8-0.7-6.6l4-2.4c0,1.3-0.1,3.7-0.5,7.3c0.3-0.3,0.9-1,1.9-2.2c1.3-1.5,2.5-2.9,3.7-4l1.3,4c-1.6,1.4-3.5,3-5.7,4.7
	L826.4,712.6z M844.1,701.9c0.6,0.4,1,0.7,1.3,1l-3.4,4.7l-3.1-4c-0.9,2.4-1.9,5-3,7.8l-3.4-1c1-2,2.1-4,3.3-6
	c0.5-0.8,0.7-1.3,0.8-1.5c-0.4,0.2-1.4,0.5-3.2,1.1c-1.3,0.4-2.1,0.6-2.5,0.7l1.2-5.3c2-0.3,3.7-0.3,5.3-0.1
	c-0.4-2.6-0.6-4.8-0.7-6.6l4-2.4c0,1.3-0.1,3.7-0.5,7.3c0.3-0.3,0.9-1,1.9-2.2c1.3-1.5,2.5-2.9,3.7-4l1.3,4c-1.6,1.4-3.5,3-5.7,4.7
	L844.1,701.9z M861.9,691.2c0.5,0.4,1,0.7,1.3,1l-3.4,4.7l-3.1-4c-0.9,2.4-1.9,5-3,7.8l-3.4-1c1-2,2.1-4,3.3-6
	c0.5-0.8,0.7-1.3,0.9-1.5c-0.4,0.2-1.4,0.5-3.2,1.1c-1.3,0.4-2.1,0.6-2.5,0.7l1.2-5.3c2-0.3,3.7-0.3,5.3-0.1
	c-0.4-2.6-0.6-4.8-0.7-6.6l4-2.4c0,1.3-0.1,3.7-0.5,7.3c0.3-0.3,0.9-1,1.9-2.2c1.3-1.5,2.5-2.9,3.7-4l1.3,4c-1.6,1.4-3.5,3-5.7,4.7
	L861.9,691.2z M879.7,680.5c0.6,0.4,1,0.7,1.3,1l-3.4,4.7l-3.1-4c-0.9,2.4-1.9,5-3,7.8l-3.4-1c1-2,2.1-4,3.3-6
	c0.5-0.8,0.7-1.3,0.9-1.5c-0.4,0.2-1.4,0.5-3.2,1.1c-1.3,0.4-2.1,0.6-2.5,0.7l1.2-5.3c2-0.3,3.7-0.3,5.3-0.1
	c-0.4-2.6-0.6-4.8-0.7-6.6l4-2.4c0,1.3-0.1,3.7-0.5,7.3c0.3-0.3,0.9-1,1.9-2.2c1.3-1.5,2.5-2.9,3.7-4l1.3,4c-1.6,1.4-3.5,3-5.7,4.7
	L879.7,680.5z M897.4,669.8c0.6,0.4,1,0.7,1.3,1l-3.3,4.7l-3.1-4c-0.9,2.4-1.9,5-3,7.8l-3.4-1c1-2,2.1-4,3.3-6
	c0.5-0.8,0.7-1.3,0.8-1.5c-0.4,0.2-1.4,0.5-3.2,1.1c-1.3,0.4-2.1,0.6-2.5,0.7l1.2-5.3c2-0.3,3.7-0.3,5.3-0.1
	c-0.4-2.6-0.6-4.8-0.7-6.6l4-2.4c0,1.3-0.1,3.7-0.5,7.3c0.3-0.3,0.9-1,1.9-2.2c1.3-1.5,2.5-2.9,3.7-4l1.3,4c-1.6,1.4-3.5,3-5.7,4.7
	L897.4,669.8z M915.2,659.1c0.6,0.4,1,0.7,1.3,1l-3.4,4.7l-3.1-4c-0.9,2.4-1.9,5-3,7.8l-3.4-1c1-2,2.1-4,3.3-6
	c0.4-0.8,0.7-1.3,0.8-1.5c-0.4,0.2-1.4,0.5-3.2,1.1c-1.3,0.4-2.1,0.6-2.5,0.7l1.2-5.3c2-0.3,3.7-0.3,5.3-0.1
	c-0.4-2.6-0.6-4.8-0.7-6.6l4-2.4c0,1.3-0.1,3.7-0.5,7.3c0.3-0.3,0.9-1,1.9-2.2c1.3-1.5,2.5-2.9,3.7-4l1.3,4c-1.6,1.4-3.5,3-5.7,4.7
	L915.2,659.1z M932.9,648.4c0.5,0.4,1,0.7,1.3,1l-3.4,4.7l-3.1-4c-0.9,2.4-1.9,5-3,7.8l-3.4-1c1-2,2.1-4,3.3-6
	c0.5-0.8,0.7-1.3,0.9-1.5c-0.4,0.2-1.4,0.5-3.2,1.1c-1.3,0.4-2.1,0.6-2.5,0.7l1.2-5.3c2-0.3,3.7-0.3,5.3-0.1
	c-0.4-2.6-0.6-4.8-0.7-6.6l4-2.4c0,1.3-0.1,3.7-0.5,7.3c0.3-0.3,0.9-1,1.9-2.2c1.3-1.5,2.5-2.9,3.7-4l1.3,4c-1.6,1.4-3.5,3-5.7,4.7
	L932.9,648.4z M410,1006.9l-0.5,207.1L280,1293.5V930l130.3-78.4L410,963.5l-0.2-0.1l-5.8,3.5l-17.3,10.4l0,0l-14.6,8.8L410,1006.9z
	 M817,1417.1c1,2.1,2.7,6.2,1.9,6.6c-1.2,0.6-5.9,4.5-15.2,2.6l0.5-6.4C806.8,1420.3,811.2,1420.1,817,1417.1z M949.4,1359.7
	c-1.1,4.1-3.7,9.3-9.9,12l3.6,5.6c12.1,0,12.7-8.8,12.7-8.8L949.4,1359.7z M386.8,977.2l5,3.2l17.6-10.5l-5-3.3L386.8,977.2z
	 M795,1159.3l1.7,83.9l-13.1,7.9l-21.3-11.8l-1.8-99.2L795,1159.3z M712.2,1113.5l1.6,99.1l25.6,14.2l-1.8-99.2L712.2,1113.5z
	 M1307.9,1546.4c0.4-0.8,0.8-1.6,1.1-2.4c-3.4-2.3-8.8-4.3-15.3-2.8c-0.2,1.7-0.6,3.2-1.2,4.6
	C1296.1,1544.7,1302.3,1543.6,1307.9,1546.4z M1296.8,1523.9c-1,0.4-2,0.8-2.8,1.1c-0.2,1.2-0.3,2.5-0.4,4c0.8,0,1.4-0.1,1.4-0.1
	s9.3-4.7,17.7-0.9c0.1-1,0.2-2,0.3-3C1309.1,1522.9,1303.4,1521.5,1296.8,1523.9z M1207.5,1597.4c-2.5-2.5-6.8-6.4-10.5-7.1
	c-1.2,1.5-2.4,3-3.6,4.5c2.6-0.5,7.3-0.4,10.2,5.3c1.9-1.1,3.3-1.9,3.3-1.9L1207.5,1597.4z M1205.4,1580.1l-1.3,1.3
	c-0.7,0.8-1.4,1.7-2.1,2.6c2.8-0.1,6.7,1,9.1,6.5c0.3,0.7,0.6,1.3,0.9,1.8l3.8-4.2C1214,1586.2,1209.5,1581.6,1205.4,1580.1z
	 M1258.6,1216.5c0,0-42.5-31.9-71.5-24l-2.4,17.5c0,0-1.6,12.8-3.4,26.5c12.8,0.9,58.8,5.3,75.2,23.4
	C1256,1248.4,1254.3,1234.3,1258.6,1216.5z M1258.6,1309.3c-8.4,4.2-26.9,11.3-49.1,6.2c-16.6-3.8-27.1-9.8-33.2-14.5l-5.8,67.8
	l1.2-13.9c0,0,17.4,14.7,40.4,12l-1.2,14.8l-0.1,6.1c9.6,2.5,36.8,6.7,55.4-12C1262.7,1356.9,1260.1,1328.5,1258.6,1309.3z
	 M874.3,1240.7v0.3l1,7.2l-6,1.9l-0.1-7.5l-3.9,5.4l14.9,34.2l-0.7-37.2L874.3,1240.7z"></path>
<path id="color_x5F_6" fill="#0A5254" d="M645.4,807.8c0,1.3-0.1,3.7-0.5,7.3c0.3-0.3,0.9-1,1.9-2.2c1.3-1.5,2.5-2.9,3.7-4l1.3,4
	c-1.6,1.4-3.5,3-5.7,4.7l2.7,1.9c0.6,0.4,1,0.7,1.3,1l-3.4,4.7l-3.1-4c-0.9,2.4-1.9,5-3,7.8l-3.4-1c1-2,2.1-4,3.3-6
	c0.5-0.8,0.7-1.3,0.8-1.5c-0.4,0.2-1.4,0.5-3.2,1.1c-1.3,0.4-2.1,0.6-2.5,0.7l1.2-5.3c2-0.3,3.7-0.3,5.3-0.1
	c-0.4-2.6-0.6-4.8-0.7-6.6L645.4,807.8z M659.2,799.5c0,1.8,0.3,4,0.7,6.6c-1.6-0.2-3.3-0.2-5.3,0.1l-1.2,5.3
	c0.4-0.1,1.2-0.3,2.5-0.7c1.8-0.6,2.8-0.9,3.2-1.1c-0.1,0.2-0.4,0.7-0.9,1.5c-1.1,2-2.2,4-3.3,6l3.4,1c1.1-2.8,2.1-5.4,3-7.8l3.1,4
	l3.4-4.7c-0.3-0.3-0.8-0.6-1.3-1l-2.8-1.9c2.2-1.7,4.1-3.3,5.7-4.7l-1.3-4c-1.1,1.2-2.3,2.5-3.7,4c-1,1.1-1.6,1.8-1.9,2.2
	c0.3-3.6,0.5-6,0.5-7.3L659.2,799.5z M676.9,788.8c0,1.8,0.3,4,0.7,6.6c-1.6-0.2-3.3-0.2-5.3,0.1l-1.2,5.3c0.4-0.1,1.2-0.3,2.5-0.7
	c1.8-0.6,2.8-0.9,3.2-1.1c-0.1,0.2-0.4,0.7-0.9,1.5c-1.1,2-2.2,4-3.3,6l3.4,1c1.1-2.8,2.1-5.4,3-7.8l3.1,4l3.4-4.7
	c-0.3-0.3-0.8-0.6-1.3-1l-2.8-1.9c2.2-1.7,4.1-3.3,5.7-4.7l-1.3-4c-1.1,1.2-2.3,2.5-3.7,4c-1,1.1-1.6,1.8-1.9,2.2
	c0.3-3.6,0.5-6,0.5-7.3L676.9,788.8z M694.7,778.1c0,1.8,0.3,4,0.7,6.6c-1.6-0.2-3.3-0.2-5.3,0.1l-1.2,5.3c0.4-0.1,1.2-0.3,2.5-0.7
	c1.8-0.6,2.8-0.9,3.2-1.1c-0.1,0.2-0.4,0.7-0.8,1.5c-1.1,2-2.2,4-3.3,6l3.4,1c1.1-2.8,2.1-5.4,3-7.8l3.1,4l3.3-4.7
	c-0.3-0.3-0.8-0.6-1.3-1l-2.7-1.9c2.2-1.7,4.1-3.3,5.7-4.7l-1.3-4c-1.1,1.2-2.3,2.5-3.7,4c-1,1.1-1.6,1.8-1.9,2.2
	c0.3-3.6,0.5-6,0.5-7.3L694.7,778.1z M712.4,767.4c0,1.8,0.3,4,0.7,6.6c-1.6-0.2-3.3-0.2-5.3,0.1l-1.2,5.3c0.4-0.1,1.2-0.3,2.5-0.7
	c1.8-0.6,2.8-0.9,3.2-1.1c-0.1,0.2-0.4,0.7-0.8,1.5c-1.1,2-2.2,4-3.3,6l3.4,1c1.1-2.8,2.1-5.4,3-7.8l3.1,4l3.4-4.7
	c-0.3-0.3-0.8-0.6-1.3-1l-2.7-1.9c2.2-1.7,4.1-3.3,5.7-4.7l-1.3-4c-1.1,1.2-2.3,2.5-3.7,4c-1,1.1-1.6,1.9-1.9,2.2
	c0.3-3.6,0.5-6,0.5-7.3L712.4,767.4z M730.2,756.8c0,1.8,0.3,4,0.7,6.6c-1.6-0.2-3.3-0.2-5.3,0.1l-1.2,5.3c0.4-0.1,1.2-0.3,2.5-0.7
	c1.8-0.6,2.8-0.9,3.2-1.1c-0.1,0.2-0.4,0.7-0.9,1.5c-1.1,2-2.2,4-3.3,6l3.4,1c1.1-2.8,2.1-5.4,3-7.8l3.1,4l3.4-4.7
	c-0.3-0.3-0.8-0.6-1.3-1l-2.8-1.9c2.2-1.7,4.1-3.3,5.7-4.7l-1.3-4c-1.1,1.2-2.3,2.5-3.7,4c-1,1.1-1.6,1.8-1.9,2.2
	c0.3-3.6,0.5-6,0.5-7.3L730.2,756.8z M748,746.1c0,1.8,0.3,4,0.7,6.6c-1.6-0.2-3.3-0.2-5.3,0.1l-1.2,5.3c0.4-0.1,1.2-0.3,2.5-0.7
	c1.8-0.6,2.8-0.9,3.2-1.1c-0.1,0.2-0.4,0.7-0.9,1.5c-1.1,2-2.2,4-3.3,6l3.4,1c1.1-2.8,2.1-5.4,3-7.8l3.1,4l3.4-4.7
	c-0.3-0.3-0.8-0.6-1.3-1l-2.7-1.9c2.2-1.7,4.1-3.3,5.7-4.7l-1.3-4c-1.1,1.2-2.3,2.5-3.7,4c-1,1.1-1.6,1.8-1.9,2.2
	c0.3-3.6,0.5-6,0.5-7.3L748,746.1z M765.7,735.4c0,1.8,0.3,4,0.7,6.6c-1.6-0.2-3.3-0.2-5.3,0.1l-1.2,5.3c0.4-0.1,1.2-0.3,2.5-0.7
	c1.8-0.6,2.8-0.9,3.2-1.1c-0.1,0.2-0.4,0.7-0.8,1.5c-1.1,2-2.2,4-3.3,6l3.4,1c1.1-2.8,2.1-5.4,3-7.8l3.1,4l3.4-4.7
	c-0.3-0.3-0.8-0.6-1.3-1l-2.7-1.9c2.2-1.7,4.1-3.3,5.7-4.7l-1.3-4c-1.1,1.2-2.3,2.5-3.7,4c-1,1.1-1.6,1.9-1.9,2.2
	c0.3-3.6,0.5-6,0.5-7.3L765.7,735.4z M783.5,724.7c0,1.8,0.3,4,0.7,6.6c-1.6-0.2-3.3-0.2-5.3,0.1l-1.2,5.3c0.4-0.1,1.2-0.3,2.5-0.7
	c1.8-0.6,2.8-0.9,3.2-1.1c-0.1,0.2-0.4,0.7-0.9,1.5c-1.1,2-2.2,4-3.3,6l3.4,1c1.1-2.8,2.1-5.4,3-7.8l3.1,4l3.4-4.7
	c-0.3-0.3-0.8-0.6-1.3-1L788,732c2.2-1.7,4.1-3.3,5.7-4.7l-1.3-4c-1.1,1.2-2.3,2.5-3.7,4c-1,1.1-1.6,1.9-1.9,2.2
	c0.3-3.6,0.5-6,0.5-7.3L783.5,724.7z M801.2,714c0,1.8,0.3,4,0.7,6.6c-1.6-0.2-3.3-0.2-5.3,0.1l-1.2,5.3c0.4-0.1,1.2-0.3,2.5-0.7
	c1.8-0.6,2.8-0.9,3.2-1.1c-0.1,0.2-0.4,0.7-0.9,1.5c-1.1,2-2.2,4-3.3,6l3.4,1c1.1-2.8,2.1-5.4,3-7.8l3.1,4l3.4-4.7
	c-0.3-0.3-0.8-0.6-1.3-1l-2.8-1.9c2.2-1.7,4.1-3.3,5.7-4.7l-1.3-4c-1.1,1.2-2.3,2.5-3.7,4c-1,1.1-1.6,1.8-1.9,2.2
	c0.3-3.6,0.5-6,0.5-7.3L801.2,714z M819,703.3c0,1.8,0.3,4,0.7,6.6c-1.6-0.2-3.3-0.2-5.3,0.1l-1.2,5.3c0.4-0.1,1.2-0.3,2.5-0.7
	c1.8-0.6,2.8-0.9,3.2-1.1c-0.1,0.2-0.4,0.7-0.9,1.5c-1.1,2-2.2,4-3.3,6l3.4,1c1.1-2.8,2.1-5.4,3-7.8l3.1,4l3.3-4.7
	c-0.3-0.3-0.8-0.6-1.3-1l-2.7-1.9c2.2-1.7,4.1-3.3,5.7-4.7l-1.3-4c-1.1,1.2-2.3,2.5-3.7,4c-1,1.1-1.6,1.8-1.9,2.2
	c0.3-3.6,0.5-6,0.5-7.3L819,703.3z M836.8,692.6c0,1.8,0.3,4,0.7,6.6c-1.6-0.2-3.3-0.2-5.3,0.1l-1.2,5.3c0.4-0.1,1.2-0.3,2.5-0.7
	c1.8-0.6,2.8-0.9,3.2-1.1c-0.1,0.2-0.4,0.7-0.8,1.5c-1.1,2-2.2,4-3.3,6l3.4,1c1.1-2.8,2.1-5.4,3-7.8l3.1,4l3.4-4.7
	c-0.3-0.3-0.8-0.6-1.3-1l-2.7-1.9c2.2-1.7,4.1-3.3,5.7-4.7l-1.3-4c-1.1,1.2-2.3,2.5-3.7,4c-1,1.1-1.6,1.9-1.9,2.2
	c0.3-3.6,0.5-6,0.5-7.3L836.8,692.6z M854.5,681.9c0,1.8,0.3,4,0.7,6.6c-1.6-0.2-3.3-0.2-5.3,0.1l-1.2,5.3c0.4-0.1,1.2-0.3,2.5-0.7
	c1.8-0.6,2.8-0.9,3.2-1.1c-0.1,0.2-0.4,0.7-0.9,1.5c-1.1,2-2.2,4-3.3,6l3.4,1c1.1-2.8,2.1-5.4,3-7.8l3.1,4l3.4-4.7
	c-0.3-0.3-0.8-0.6-1.3-1l-2.8-1.9c2.2-1.7,4.1-3.3,5.7-4.7l-1.3-4c-1.1,1.2-2.3,2.5-3.7,4c-1,1.1-1.6,1.8-1.9,2.2
	c0.3-3.6,0.5-6,0.5-7.3L854.5,681.9z M872.3,671.2c0,1.8,0.3,4,0.7,6.6c-1.6-0.2-3.3-0.2-5.3,0.1l-1.2,5.3c0.4-0.1,1.2-0.3,2.5-0.7
	c1.8-0.6,2.8-0.9,3.2-1.1c-0.1,0.2-0.4,0.7-0.9,1.5c-1.1,2-2.2,4-3.3,6l3.4,1c1.1-2.8,2.1-5.4,3-7.8l3.1,4l3.4-4.7
	c-0.3-0.3-0.8-0.6-1.3-1l-2.7-1.9c2.2-1.7,4.1-3.3,5.7-4.7l-1.3-4c-1.1,1.2-2.3,2.5-3.7,4c-1,1.1-1.6,1.8-1.9,2.2
	c0.3-3.6,0.5-6,0.5-7.3L872.3,671.2z M890,660.5c0,1.8,0.3,4,0.7,6.6c-1.6-0.2-3.3-0.2-5.3,0.1l-1.2,5.3c0.4-0.1,1.2-0.3,2.5-0.7
	c1.8-0.6,2.8-0.9,3.2-1.1c-0.1,0.2-0.4,0.7-0.8,1.5c-1.1,2-2.2,4-3.3,6l3.4,1c1.1-2.8,2.1-5.4,3-7.8l3.1,4l3.3-4.7
	c-0.3-0.3-0.8-0.6-1.3-1l-2.7-1.9c2.2-1.7,4.1-3.3,5.7-4.7l-1.3-4c-1.1,1.2-2.3,2.5-3.7,4c-1,1.1-1.6,1.8-1.9,2.2
	c0.3-3.6,0.5-6,0.5-7.3L890,660.5z M907.8,649.9c0,1.8,0.3,4,0.7,6.6c-1.6-0.2-3.3-0.2-5.3,0.1l-1.2,5.3c0.4-0.1,1.2-0.3,2.5-0.7
	c1.8-0.6,2.8-0.9,3.2-1.1c-0.1,0.2-0.4,0.7-0.8,1.5c-1.1,2-2.2,4-3.3,6l3.4,1c1.1-2.8,2.1-5.4,3-7.8l3.1,4l3.4-4.7
	c-0.3-0.3-0.8-0.6-1.3-1l-2.7-1.9c2.2-1.7,4.1-3.3,5.7-4.7l-1.3-4c-1.1,1.2-2.3,2.5-3.7,4c-1,1.1-1.6,1.9-1.9,2.2
	c0.3-3.6,0.5-6,0.5-7.3L907.8,649.9z M925.6,639.2c0,1.8,0.3,4,0.7,6.6c-1.6-0.2-3.3-0.2-5.3,0.1l-1.2,5.3c0.4-0.1,1.2-0.3,2.5-0.7
	c1.8-0.6,2.8-0.9,3.2-1.1c-0.1,0.2-0.4,0.7-0.9,1.5c-1.1,2-2.2,4-3.3,6l3.4,1c1.1-2.8,2.1-5.4,3-7.8l3.1,4l3.4-4.7
	c-0.3-0.3-0.8-0.6-1.3-1l-2.8-1.9c2.2-1.7,4.1-3.3,5.7-4.7l-1.3-4c-1.1,1.2-2.3,2.5-3.7,4c-1,1.1-1.6,1.8-1.9,2.2
	c0.3-3.6,0.5-6,0.5-7.3L925.6,639.2z M649.1,699.3l0.4,16.8c0.1,2.4,0,4.2-0.1,5.3s-0.6,2.3-1.3,3.5s-1.9,2.2-3.4,3.1
	c-1.5,0.9-2.6,1.2-3.5,1s-1.4-0.9-1.7-2c-0.1-0.7-0.2-2.4-0.3-5l-0.3-16.5l-5.3,3.2l0.3,16.2c0.1,3.4,0.3,5.9,0.7,7.4
	c0.3,1,0.8,1.9,1.6,2.5s1.8,0.9,3.1,0.8c1.3-0.1,3.2-0.9,5.7-2.4c2.1-1.2,3.7-2.6,5-4s2.3-2.8,3-4.3s1.2-3.1,1.5-4.8s0.3-4.3,0.3-8
	l-0.3-16L649.1,699.3z M669.1,686.7c3.3-2,5.8-2.6,7.5-2c1.7,0.7,2.6,2.4,2.8,5.1l-5.3,3.5c-0.3-1.4-0.8-2.3-1.5-2.5
	c-0.8-0.2-1.9,0.1-3.4,1s-2.7,2-3.6,3.3c-0.5,0.8-0.8,1.6-0.8,2.4c0,0.7,0.3,1.2,0.8,1.4c0.7,0.3,2.3,0,4.9-0.9
	c2.6-0.8,4.5-1.3,5.8-1.2c1.2,0,2.2,0.5,3,1.3c0.7,0.9,1.1,2.3,1.1,4.2c0,1.7-0.3,3.6-1.1,5.6s-2,3.9-3.5,5.5
	c-1.5,1.7-3.4,3.2-5.7,4.5c-3.3,2-5.9,2.6-7.7,1.9c-1.8-0.7-2.9-2.7-3.3-5.9l5.1-3.7c0.4,1.8,1,2.9,2,3.3c1,0.4,2.3,0.1,3.9-0.9
	c1.7-1,3-2.2,3.8-3.6s1.3-2.6,1.2-3.7c0-0.7-0.2-1.2-0.6-1.5c-0.4-0.3-1-0.3-1.9-0.2c-0.6,0.1-2,0.5-4.3,1.2c-2.9,0.9-4.9,1.1-6,0.6
	c-1.6-0.7-2.5-2.3-2.5-4.7c0-1.5,0.3-3.2,1-5s1.8-3.5,3.2-5C665.4,689.3,667.1,687.9,669.1,686.7z M703.8,666.4l0.1,5.1l-14.1,8.5
	l0.1,6.7l13.1-7.9l0.1,5.1l-13.1,7.9l0.2,8.3l14.6-8.8l0.1,5.1l-19.9,12l-0.6-30.4L703.8,666.4z M729.6,675.6l3.3,4l-6.3,3.8l-4-4.3
	c-1.4-1.5-2.4-2.5-2.9-2.8s-1.1-0.4-1.6-0.3c-0.6,0.1-1.5,0.5-2.7,1.3l-1.1,0.6l0.3,12.7l-5.3,3.2l-0.6-30.4l11.1-6.7
	c2.8-1.7,4.8-2.6,6.1-2.9c1.3-0.2,2.3,0.1,3.1,1.1c0.8,0.9,1.2,2.3,1.2,4.1c0,2.3-0.5,4.5-1.6,6.7s-2.8,4.2-5.1,5.9
	c1.2,0.1,2.1,0.4,2.9,0.8C727.3,672.9,728.3,674,729.6,675.6z M718.2,670.7c2.5-1.5,4.1-2.6,4.7-3.2c0.6-0.6,1.1-1.4,1.5-2.2
	c0.3-0.8,0.5-1.7,0.5-2.6c0-1-0.3-1.7-0.8-2.1c-0.5-0.3-1.2-0.3-2,0c-0.4,0.2-1.7,0.9-3.9,2.2l-4.1,2.5l0.2,7.7L718.2,670.7
	 M756,634.9l0.6,30.4l-5.3,3.2l-11-13.5l0.4,19.8l-4.9,3l-0.6-30.4l5.1-3.1l11.1,13.9l-0.4-20.3L756,634.9z M774.7,623.7l11.1,24.1
	l-5.8,3.5l-2.4-5.5l-10.5,6.3l-2,8.2l-5.6,3.4l9.6-36.5L774.7,623.7z M768.7,645.9l7.1-4.3l-3.8-9.1L768.7,645.9 M813.2,600.5
	l0.6,30.4l-4.9,3l-0.5-23.9l-4.7,27.1l-5.1,3.1l-5.7-20.8l0.5,23.9l-4.9,3l-0.6-30.4l7.9-4.8L801,629l4.3-23.6L813.2,600.5z
	 M837.9,585.6l0.1,5.1l-14.1,8.5l0.1,6.7l13.1-7.9l0.1,5.1l-13.1,7.9l0.2,8.3l14.6-8.8l0.1,5.1l-19.9,12l-0.6-30.4L837.9,585.6z
	 M582.1,1120.7l0.2-6.3l-7.6,212.4c-7.6,10.3-20.4-6.1-20.8-4.7s-9.3-181.7-12.5-178s-16,210.3-16,210.3
	c-12.3,8.1-20.8-2.4-20.8-2.4l-15.1-231.8l0.2,2.4C521.8,1129.4,558.5,1125.2,582.1,1120.7z M862.7,1251.6l6.4-9l-13.7-9.5l0.1,6
	L862.7,1251.6z M877.4,1229.6c-0.5-0.2-1-0.5-1.5-0.7l-0.7,4.8l-1,7l8.8,7.4l-2.7-14.2L877.4,1229.6z M919.6,1372.6l0.4,1.7
	c0,0-0.7,9.8-30.2,16.7c-27.5,6.5-43.6-6.9-45.7-8.8c-2.5,4.5-6.6,16.6-2.8,43.4c4.9,33.8,18.5,62.6,18.5,79.5
	c-1,1.6-2.2,3.2-3.6,4.8c-7.6,8.5-28.9,16.4-36.7,42.2c-7.9,25.8-21.4,33.6-21.4,33.6s0.3,14.8,13.2,14.2l40.5-38.4
	c0,5.3,0.4,9.7,1.3,12.5c3.5,11.2,16,70.8,15,72.5c0,0,12.1,10.2,26,3.5l-4-128.4c0,0,12.3-14.6,12.8-19.7
	c0.5-5,13.6-41.8,18.6-78.9s-0.9-50.9-0.9-50.9S920.2,1372.2,919.6,1372.6z"></path>
<path id="color_x5F_5" fill="#FFD2BB" d="M592.7,1125c-0.7,4.2-6.4,9.6-11.2,12.9l0.8-23.5c0,0,0-3.5,0.1-9.4c0,0.2,0,0.4,0,0.5
	l5.5-2.1C590,1109,593.6,1119.2,592.7,1125z M582.4,1103.4c0,0.3,0,0.5,0,0.8C582.4,1103.9,582.4,1103.7,582.4,1103.4z
	 M582.4,1101.7c0,0.3,0,0.6,0,0.8C582.4,1102.3,582.4,1102,582.4,1101.7z M526.2,898.4c0,0,9.1-17.3-1.1-11.8
	c-10.2,5.4-8.3,10.9-8.3,10.9v5l-3.4,0.1c0,0,4.1-14.4-2.3-16.7c-6.4-2.4-18.6-5.1-18.2-9.7c0,0-3,10.2-5.1,21c2,0.2,4,1.1,4.5,3.8
	c1,5.5-1.1,7.7-2.7,5.6c-1-1.3-2.1,0.4-3.4,0.7c-0.6,6.2-0.4,11.5,1.5,13.6c2.8,3.1,12.7,3.2,23.1,1.7c-0.2,1.3-0.5,2.6-0.8,3.9
	l22.8-4.2l-0.1-5.3c2.9-1.3,4.9-2.6,5.5-4c1-2.2,3.2-5.9,5.4-10.3C536.8,903,528.7,907.1,526.2,898.4z M1323,1502.1
	c-2.1,3.9-8.7,13.4-24.8,13.4l0,0c-2-5.7-36.9-32.1-49.2-45.8c1.2,12.2,1.3,25.4,0.1,29c-2,6.1-12.1,48.1-10.5,56
	c0,0-2.1,12.3-0.7,15.8c0.1,0.3,0.3,0.8,0.5,1.3c-1.2-0.6-2-0.7-2-0.7c0.1,4.5-7.1,7.7-12.2,8.1c-3.9,0.3-6.5-3.3-9.2-4.8
	c0-0.1,0-0.2,0-0.3c-0.2-3.1-0.2-58.3-0.2-58.3l0.2-67.6c0,0-0.2-5.8-0.5-13.4c-3-2.3-7-6.7-12.4-15c-5.1-7.9-9.4-24.2-13-41.9
	c10.7,2.7,21.9,3.8,21.9,3.8l-0.1,6.1l-0.1,9.8c11.9,6.8,23.5,7.7,33.4,6.2c-1.3,6.9-2.1,11.3-2.1,11.3s-0.1,0.9-0.2,2.3
	c1.7,4.3,5.1,9.8,11.7,14.4c13,9.2,24.5,16.9,32.6,35.6s28,31.8,33.8,33.7C1320.7,1501.3,1321.8,1501.6,1323,1502.1z M1177.8,1262
	c-13,14.5-28.5,32.3-28.4,34.8c0.1,4.3-15.5,21.9-15.5,21.9s-8.7,13.1-11.3,12.5c-2.6-0.6,1.5-7.4,1.5-7.4s-4.3,4.6-7.3,5.4
	s3.6-8.6,3.6-8.6s-7.8,4.6-10.5,4.8c-2.7,0.2,3.1-6.9,3.1-6.9c-7.5,2.4-11.6,0.6-6.5-1.7c5.1-2.2,21-19.7,21-19.7
	c-13.7,2.7-15.3-5.7-12.4-5c2.9,0.8,20.7-4.1,20.7-4.1s18.5-26.7,20.2-34.9c1.4-6.7,21.2-33,28.7-42.8c-0.1,0.9-1.6,13.2-3.4,26.4
	c-0.1,0.6-0.2,1.2-0.2,1.8c-0.1,0.4-0.1,0.9-0.2,1.3c-0.2,1.3-0.3,2.6-0.5,3.9c-0.1,0.4-0.1,0.9-0.2,1.3c-0.4,3-0.8,6-1.2,8.7
	c-0.1,0.6-0.2,1.1-0.2,1.7C1178.4,1257.7,1178.1,1260,1177.8,1262z M1296.9,1326.6c0,0,1.7,35.2-5.9,41.4c0,0-1.4,0.4-1-3.8
	c0,0-3.8,10.4-4.6,2.5c0,0-5.9,7.4-5,0.1c0,0-6.4,8.5-8,3.7s6-9.6,6.4-19.2c0,0-10.5,4.3-11.1-2.2c0,0,11.9-7.6,12.9-10.1
	c1-2.4,3.9-1.6,4.6-12.6s-9.3-22.2-8.5-53.4c0,0,1.3-15.3,0.8-19.5c-0.2-1.9-2.8-8.6-6.2-15.7c5.8,0.3,15.1,0.2,21.9-2.7
	c4,9.8,7.3,17.2,8.8,18.7C1306.8,1258.9,1296.9,1326.6,1296.9,1326.6z M1238.8,1115.2c0,0-0.9,1.4-2.5,3.6
	c-0.6,7.5-1.7,25.3-0.3,31.5c-0.1,0-0.1,0-0.2,0s-0.2,0.1-0.3,0.1c-0.1,0-0.1,0-0.2,0.1c-0.1,0-0.2,0.1-0.3,0.1
	c-0.1,0-0.1,0-0.2,0.1s-0.3,0.1-0.4,0.2l0,0c-0.1,0.1-0.2,0.1-0.3,0.2l-0.1,0.1c-0.1,0.1-0.1,0.1-0.2,0.2c0,0,0,0.1-0.1,0.1
	c-0.1,0.1-0.1,0.2-0.1,0.3l0,0l0,0c0,0,0,0.1-0.1,0.1c0,0,0,0,0,0.1l-0.1,0.1c0,0,0,0,0,0.1s-0.1,0.1-0.2,0.2l0,0
	c-0.1,0.1-0.2,0.2-0.3,0.3l-0.1,0.1c-0.1,0.1-0.2,0.1-0.2,0.2l-0.1,0.1c-0.1,0.1-0.2,0.2-0.3,0.3c0,0,0,0-0.1,0.1s-0.3,0.2-0.4,0.4
	l-0.1,0.1c-0.1,0.1-0.3,0.2-0.4,0.3l-0.1,0.1c-0.1,0.1-0.3,0.2-0.5,0.3c0,0-0.1,0-0.1,0.1c-0.2,0.1-0.4,0.3-0.6,0.4
	c0,0-0.1,0-0.1,0.1c-0.2,0.1-0.4,0.3-0.6,0.4l-0.1,0.1c-0.2,0.1-0.4,0.3-0.6,0.4c0,0,0,0-0.1,0c-0.5,0.3-1,0.6-1.5,0.9
	c0,0-0.1,0-0.1,0.1c-0.2,0.1-0.5,0.3-0.7,0.4c0,0,0,0-0.1,0c-0.5,0.3-1.1,0.6-1.6,0.9c0,0,0,0-0.1,0c-0.3,0.1-0.5,0.3-0.8,0.4l0,0
	c-0.6,0.3-1.2,0.6-1.7,0.8l0,0c-0.3,0.1-0.6,0.2-0.9,0.4l0,0c-0.9,0.3-1.8,0.6-2.6,0.9l0,0c-0.9,0.2-1.7,0.4-2.5,0.4l0,0
	c-0.8,0.1-1.5,0-2.2-0.1l0,0c-0.5-0.1-0.9-0.2-1.3-0.4l0,0c-3.3-1.6-4.5-6.7-0.9-18.3c1.4,0.7,2.7,1.4,3.8,2
	c0.3-2.1,0.8-4.5,1.4-6.8c-4.1,2.5-8.5,4.3-13,4.7c-18.1,1.4-21.4-21.3-20.1-43.5c0.7-3.7,2-7,3.3-9.1c2.4,2.1,7,4.3,15.4,2.5
	c0,0,9,6.5,22.3,1.9c0,0-0.2,6.1,6.1,8.2c6.3,2-0.3,13.4-0.3,13.4s3.2,2.1,6.7-5.1c3.6-7.2,4.9-5.4,5.3-5.2c0.2,0.1,2-2.2,3.1-5.2
	c2.1-0.3,4,0.6,4.3,4.9C1250.8,1114.9,1238.8,1115.2,1238.8,1115.2z M817,1635.4c7.1,9.3,6.8,20.2,6.8,20.2
	c-27.4,7.7-36.6-21.1-40.1-29.6c-3.5-8.6-8.9-1.5-12.5-15.9s17.5-17.6,23-19.6c1.1-0.4,2.5-1.5,4.1-3c0.5,3.8,2.8,12.1,11.9,12.4
	C808.1,1606.7,809.9,1626.1,817,1635.4z M926.6,1690.8c3.4,3.6,0.7,9.6,0.7,9.6s-14.7,9.6-27.8-2.5c-13.2-12.1-18.7-10.9-26.5-13.6
	s-7.2-7.1-7.3-12.6s4-17,5.3-20.5c0.2-0.6,0.3-1.6,0.4-2.6c4.4,2.5,12.8,5.8,22.1,1.6c0.1,1.9,0.1,3.2,0.1,3.6c0,3,2.8,5.9,3.2,9
	S923.2,1687.2,926.6,1690.8z M833.9,1436.1c-0.4,6.4-10.8,2.5-10.8,2.5c0.7,9.3,8.4,13.7,7,18.5s-8-3.3-8-3.3
	c1.1,7.1-4.9,0.1-4.9,0.1c-0.5,7.7-4.6-2.3-4.6-2.3c0.6,4.1-0.8,3.7-0.8,3.7c-4.7-3.5-6.4-18.2-6.9-28.8c7.8,1.2,12.2-1.8,13.6-2.7
	c0.9,1.3,1.9,1.7,2.4,2.8C822,1429,833.9,1436.1,833.9,1436.1z M980,1396.6c0,0,5.5,5.7,3.2,5.8s-9.5-3.4-9.5-3.4s6.4,7.8,3.8,7.3
	c-2.7-0.5-6.8-4.2-6.8-4.2s4,5.6,1.8,6.4c-2.2,0.7-10.8-10.1-10.8-10.1s-14.9-14.3-15.1-18.1c0-0.5-0.7-1.5-1.9-2.9
	c9.1-0.6,10.9-6.5,11.2-8.3c1.2,1.5,2,2.5,2,2.5s15.9,3.1,18.4,2.2s1.7,6.7-10.5,5.2c0,0,15.2,14.2,19.8,15.8
	C990.1,1396.2,986.7,1398.1,980,1396.6z M898.3,1228.4c-2.7,2.5-6.3,3.9-11,3.7c-3.9-0.2-7.7-1.4-11.3-3.3l-1.6,11.8v0.3l1,7.2
	l-6,1.9l-0.1-7.5l-2.7-1.9l0.2-0.2l-8.4-5.8c0-0.6,0-1.2,0-1.8c4.4,0.2,9.7,0.1,15.9-0.5c0,0-13-33-6.7-48.2c0,0,19,5.9,29.6-13.2
	c0,0,1.3,12.7,8.5,18.2c0.3,2.9,0.5,5.8,0.5,8.6c0.1,11-1.4,28.8-11.7,29.5C894.3,1227.3,895.7,1228.1,898.3,1228.4z"></path>
<path id="color_x5F_4" fill="#00CEC9" d="M1133,90.4l1.4,76.1c0.1,3.5-1.8,6.8-4.8,8.6l-65.2,39.3c-6.5,3.9-14.8-0.7-14.9-8.3
	L1048,130c-0.1-3.5,1.8-6.8,4.8-8.6l65.3-39.3C1124.5,78.3,1132.8,82.9,1133,90.4z M841.6,1229.7c-7.4-3.2-7.6-7.7-7.6-7.7
	c0-0.4-0.1-0.8-0.1-1.3l-50.5,30.4l-156.2-86.4l85-51.2L836,1182c0.6-2.7,1.3-4.8,1.9-6.4l-131-72.5L609,1162l179.8,99.5
	L841.6,1229.7z M467.7,995.3L430,1018l-57.8-32l14.6-8.8l5,3.2l17.6-10.5l-5-3.3l-0.2,0.1l5.8-3.5L467.7,995.3z M1210.8,1397.5
	l0.1-9.8c9.6,2.5,36.8,6.7,55.4-12c1.4,7.5,3,13.5,4.7,16.8C1271,1392.6,1241.9,1415.3,1210.8,1397.5z M1212.1,1366.9l-1.2,14.8
	c0,0-35.6-3.6-40.4-12.9l1.2-13.9l0,0C1171.7,1354.9,1189.1,1369.6,1212.1,1366.9z M1243,1601.1c0,0-1.3,2.1-11.5,5.9
	s-24.3,21.3-29.7,20.9c-5.4-0.5-21.9,1.7-27-8.7c-5.1-10.4,6.6-11.9,13.9-19.1c0.2-0.2,0.4-0.4,0.5-0.5l0,0c-0.2,1.8,0,3.8,1.9,4.6
	c3.8,1.6,15.8-6,15.8-6l16.9-18.8l0,0c0.1,0,0.2,0,0.3,0c5.1-0.4,12.3-3.6,12.2-8.1C1236.4,1571.1,1249.9,1572.9,1243,1601.1z
	 M1341.7,1520.9c0,5.5-5.2,10.7-11.5,19.5c-6.4,8.8-4.2,32.7-23.3,38c-19.1,5.3-21.2,0.2-25.3-9.8c-2.4-5.9,2.7-10.2,7.1-16l0,0
	c3.9,4.3,9.8,7.4,16.1-1.1c8.6-11.4,8.9-30.8,8.5-39.5l0,0c8-4.5,10.5-11.5,10.5-11.5C1333.7,1498.9,1341.7,1515.3,1341.7,1520.9z
	 M1263.5,1306.5c0,0-23.4,16-54,9s-40.5-21.5-40-21.5c0.4,0,5.2-18.3,7-24.9c0.2-0.8,0.5-2.1,0.8-3.9c0-0.2,0.1-0.4,0.1-0.6
	c0.4-2.5,0.9-5.7,1.4-9.3c0.1-0.5,0.2-1.1,0.2-1.7c0.4-2.7,0.8-5.7,1.2-8.7c0.1-0.4,0.1-0.9,0.2-1.3c0.2-1.3,0.4-2.6,0.5-3.9
	c0.1-0.4,0.1-0.9,0.2-1.3c0.1-0.6,0.2-1.2,0.2-1.8c12.8,0.9,58.8,5.3,75.2,23.4c0,0.7,0.1,1.4,0.1,2.1s0.1,1.4,0.1,2
	c0,0.9,0,1.7,0,2.6C1256.5,1279.5,1263.5,1306.5,1263.5,1306.5z M1301.3,1227.1c-4.2,14.4-35.4,10.3-35.4,10.3
	c0.2-3.1-7.3-20.8-7.3-20.8s-42.5-31.9-71.5-24l-2.4,17.5c-13.2-4.9-19.1-18.1-19.1-18.1s15.4-13.9,14.9-31.5
	c-0.6-24,8.1-23.8,9.9-23.5c3.1,3.9,7.5,6,13.4,5.5c2.2-0.2,4.4-0.7,6.5-1.4c1.1,0.3,1.7,0.5,1.7,0.5
	c-11.9,36.5,21.6,12.3,21.9,10.2c0.3-2.1,6.4-1.7,6.4-1.7s35.2,17.7,37.1,18.7c1.9,0.9,8.4,18.1,9.3,21.3
	C1287.6,1193.2,1301.3,1227.1,1301.3,1227.1z"></path>
<path id="color_x5F_3" fill="#E84393" d="M1579.7,1175.5l-27.2,16.5l-5.2-286.1l-375.5-207.8l27.2-16.5l375.5,207.8L1579.7,1175.5z
	 M1269.9,1035.7l-46,27.7c2.5,0.7,4.4,2.3,5.9,3.8l171.9,95.1l46.5-28L1269.9,1035.7z M1258.3,1312.5c0,0.2,0,0.4,0,0.5h0.1l0,0
	h-0.1c0.4,4.9,0.8,10.2,1.4,15.7l20.3,11.2c0.1-0.1,0.2-0.3,0.2-0.4c1-2.4,3.9-1.6,4.6-12.5L1258.3,1312.5z M1296.1,1348.9l11.5,6.3
	l183.8-110.7l-0.2-15.6l-183.8,110.7l-10.7-5.9C1296.6,1337.8,1296.6,1343.3,1296.1,1348.9z M1155,1255.3l-223.2-123.5l0.2,15.6
	l216.8,119.9C1151.6,1262.8,1153.9,1258.4,1155,1255.3z M1173,1280.7c1.2-4.3,2.3-8.6,3-11.2c0.1-0.5,0.3-1.3,0.5-2.3l-2.3-1.3
	c-3.1,3.5-6.2,7-9.2,10.4L1173,1280.7z M1147.6,198.1L214,760.8v-99.9l739.4-445.3l1,49.7c0.1,7.6,8.4,12.2,14.9,8.3l65.2-39.3
	c3-1.8,4.8-5.1,4.8-8.6l-1.1-61.1l10.3-6.2l0.9,47.8c0.1,7.6,8.4,12.2,14.9,8.3l65.2-39.3c3-1.8,4.8-5.1,4.8-8.6l-1.1-59.2l12.5-7.5
	L1147.6,198.1z M1088,627.9l-117.3,70.6c-3.4,2-5.4,5.7-5.4,9.7l1,55.7c0.2,8.5,9.5,13.7,16.8,9.3l117.3-70.6c3.4-2,5.4-5.7,5.4-9.7
	l-1-55.7C1104.6,628.6,1095.3,623.5,1088,627.9z M499.4,1053.2c-1-2.3-1.8-99.9-1.8-99.9l-5.7-6.8C491,947,465,959,469,1027
	l-21-19.7l-17.7,10.6l-6.9-3.8c7.9,13.3,31.3,50.7,47.6,56.1C491.1,1076.8,500.4,1055.4,499.4,1053.2z M582.8,1114.4l-0.2,6.3
	c-23.6,4.5-60.3,8.7-92.4,2l-0.2-2.4c0,0-0.3-23-0.5-52.2c0.4-0.3,0.9-0.6,1.3-0.9l0,0c0.2,23.7,0.4,43.6,0.5,51.1
	c7.8-11.1,15.5-23.1,20.8-35.4c10.9-25.7,8.2-55,4.2-82.7c-2.8-19.5-7.9-41.1-21.8-53.8c-0.4,0.5-0.7,1.1-1,1.7l-1.2-1.4
	c4.4-8.1,16.4-12.4,16.4-12.4s0.9-3.7,1.8-7.8l22.8-4.2l0.1,5.6c0,0,13.2-10.8,32.4,4.9C584.8,948.6,582.8,1114.4,582.8,1114.4z
	 M855.8,1233.4v-0.3l10.8,7.4l-0.2,0.2L855.8,1233.4z M937.9,1372.5l-24-24.7l6.1,26.4c0,0-0.7,9.8-30.2,16.7c-29.5,6.9-46-9-46-9
	s4.6-23.8,4-31c-0.5-7.2-9.4-43.4-9.4-43.4s-18.5,28.2-18.1,29.9c0.4,1.7-1.8,3.4-1.8,3.4l1.1,74.6c-11.6,7.5-18.5,3.5-18.5,3.5
	s-8.4-73.6-8.5-75.9c0-2.2,8.9-22.9,8.9-22.9s20.2-54.5,24.8-63c4.3-8,26.1-16.8,29.1-18l7.1,12.4l2.6-3.6l14.9,34.2l-0.7-37.2
	l3.6,3l-2.7-14.2h0.4c0,0,20.5,0.9,23.7,3.7c3.3,2.9,7.5,34.8,7.5,34.8l0.6,0.7c10,8.8,7,21.4,2.4,30.8c9.2,12,35.7,49.7,35.7,49.7
	S951.2,1368.3,937.9,1372.5z"></path>
<path id="color_x5F_2" fill="#FBC02D" d="M1304.8,1551.4c-6.4,8.5-12.2,5.4-16.1,1.1c1.5-2,2.9-4.2,3.9-6.8l0,0
	c3.6-1.1,9.7-2.2,15.3,0.6c0.4-0.8,0.8-1.6,1.1-2.4c-3.4-2.3-8.8-4.3-15.3-2.8c0.2-1.4,0.2-2.8,0.1-4.3c-0.3-3.9-0.3-7.2,0-9.9
	c-0.1,0.7-0.1,1.4-0.2,2.1c0.8,0,1.4-0.1,1.4-0.1s9.3-4.7,17.7-0.9c0.1-1,0.2-2,0.3-3c-3.9-2.2-9.6-3.6-16.3-1.1
	c-1,0.4-2,0.8-2.8,1.1c-0.1,0.6-0.2,1.2-0.2,1.9c0.8-8.6,3.8-11.4,3.8-11.4c6.7,0.1,11.9-1.5,15.7-3.6
	C1313.7,1520.7,1313.4,1540.1,1304.8,1551.4z M1212.4,1573.7c-0.5,0-1.1,0.3-1.8,0.9l-6.5,6.8l1.3-1.3c4.1,1.5,8.6,6.1,10.4,8.1
	l-3.8,4.2c-0.3-0.5-0.6-1.1-0.9-1.8c-2.4-5.6-6.3-6.6-9.1-6.5c0.3-0.4,0.7-0.8,1-1.2c-2,2.4-4,5-6,7.5l0,0c3.7,0.7,8,4.6,10.5,7.1
	l-0.6,0.7l16.9-18.8C1219,1579.3,1216.3,1573.5,1212.4,1573.7z M1193.4,1594.7L1193.4,1594.7c-1.5,1.8-2.9,3.5-4.2,4.8
	c-0.2,1.8,0,3.8,1.9,4.6c2.5,1.1,8.7-1.9,12.5-4.1C1200.7,1594.3,1196,1594.2,1193.4,1594.7z M878.2,1230.8l0.8-0.5
	c-0.5-0.2-1.1-0.4-1.6-0.7L878.2,1230.8z M789.3,1284.3l-179.8-99.5L609,1162l179.8,99.5l52.8-31.8c3.6,1.6,8.8,2.8,16.5,3.1
	c0,0.7,0,1.4,0,2.1l-2.8-1.9l0,0l0,0l0.1,6c0,0-4.1,1.6-9.3,4c-1.2,0.6-2.4,1.2-3.7,1.8c-2.1,1.1-4.3,2.3-6.4,3.5
	c-0.4,0.3-0.8,0.5-1.2,0.8c-4,2.6-7.4,5.3-8.9,8c-0.7,1.3-1.8,3.7-3.1,6.8L789.3,1284.3z M1245.8,1091c3.1,6.5-2.9,14.7-3.3,14.6
	s-1.7-2-5.3,5.2c-3.6,7.2-6.7,5.1-6.7,5.1s6.6-11.4,0.3-13.4c-6.3-2-6.1-8.2-6.1-8.2c-13.3,4.7-22.3-1.9-22.3-1.9
	c-8.5,1.8-13.1-0.4-15.4-2.5c-1.9,3.3-4,9.5-3.8,15.3c0.3,7.6-4.9-9.8-1.3-19.5c-18.5-10-7.6-36.8-7.6-36.8s6-22.9,27.3-11.8
	c21.3,11.2,12.8,27.3,12.8,27.3c12.8-7.1,19.2,7.1,19.2,7.1s5.4-2.4,11.2,4.6C1250.5,1083.2,1245.8,1091,1245.8,1091z"></path>
<path id="color_x5F_1" fill="#0984E3" d="M525.5,1354.1c0.6,5,2.3,19.2,0.2,20.2c-2.4,1.1-39.3,5.6-50.6-7.4
	c-11.3-12.9,28.1-14,28.1-14s0.6-0.6,1.4-1.4v0.6c0,0,8.5,10.4,20.8,2.4C525.5,1354.4,525.5,1354.3,525.5,1354.1z M574.7,1326.8
	c-7.6,10.3-20.4-6.1-20.8-4.7c0,0.1-0.2-1.5-0.4-4.5c-6.4,0-18,0.4-16.7,3.9c1.8,4.8,14.6,26,24.3,27.5s15.5-1,15.8-2.7
	c0.2-1.1-1.2-11.6-2.3-19.7L574.7,1326.8z M543.6,902.8c6.9-0.2,6.1-6.4,8.9-13.5s2-8.1-1.7-23.6c-3.8-15.5-26.3-14.9-26.3-14.9
	s-15.8-12.6-29-1s-2.5,26.3-2.5,26.3c-0.4,4.6,11.8,7.3,18.2,9.7s2.3,16.7,2.3,16.7l3.4-0.1v-5c0,0-1.9-5.4,8.3-10.9
	c10.2-5.4,1.1,11.8,1.1,11.8C528.7,907.1,536.7,903,543.6,902.8z M484.4,905.7c2.3,4.1,3.9-1.2,5.5,0.9c1.6,2.1,3.7-0.2,2.7-5.6
	c-1-5.5-8.4-3.6-8.4-3.6S482.1,901.6,484.4,905.7z M896.9,1171c0,0,1.3,12.9,8.7,18.4c0,0,3.6,37-11.3,37.9c0,0,7.6,4.5,21.2-3.3
	c0,0-4.1-10.6-4.3-17c-0.3-6.4,1-36.5-8.1-44.8s-13.7-12.8-30.3-12c-16.6,0.9-33.3,21.8-33.3,21.8s-8.4,13.8-5.5,50.1
	c0,0,0.5,13.9,40,10.4c0,0-13-33-6.7-48.2C867.3,1184.2,886.4,1190.1,896.9,1171z"></path>
</svg>