<?xml version="1.0" standalone="no"?>
<svg version="1.1" id="Layer_1" xmlns="http://www.w3.org/2000/svg" xmlns:xlink="http://www.w3.org/1999/xlink" x="0px" y="0px" viewBox="0 0 2000 2000" enable-background="new 0 0 2000 2000" xml:space="preserve">
<path id="color_x5F_12" fill="#CBE9F7" d="M911.4,1586.1c0.2-0.1,0.4-0.1,0.6-0.2c-0.1,0-0.1,0-0.2,0.1c-0.1,0-0.1,0-0.2,0.1
	C911.6,1586,911.5,1586,911.4,1586.1z M911.4,1586.1L911.4,1586.1L911.4,1586.1L911.4,1586.1z M915.4,1584.2
	C915.4,1584.3,915.4,1584.3,915.4,1584.2c-0.1,0.1-0.1,0.1-0.2,0.1C915.3,1584.4,915.3,1584.3,915.4,1584.2
	C915.4,1584.3,915.4,1584.3,915.4,1584.2z M913.9,1585.1c0.1,0,0.1-0.1,0.2-0.1c0.1-0.1,0.3-0.1,0.4-0.2c0.1,0,0.2-0.1,0.2-0.1
	c0.1-0.1,0.2-0.1,0.3-0.2l0.1-0.1c-0.2,0.1-0.4,0.3-0.6,0.4l-0.1,0.1c-0.3,0.1-0.5,0.3-0.8,0.4c0,0,0,0-0.1,0
	C913.7,1585.2,913.8,1585.2,913.9,1585.1z M912.4,1585.8c-0.1,0-0.2,0.1-0.2,0.1c0.1,0,0.2-0.1,0.4-0.1h0.1c0.1,0,0.1,0,0.2-0.1
	c-0.1,0-0.1,0-0.2,0.1C912.5,1585.7,912.4,1585.7,912.4,1585.8z M910.7,1586.3h-0.1C910.6,1586.3,910.6,1586.3,910.7,1586.3z
	 M910.7,1586.3c0.1,0,0.1,0,0.2,0c0.1,0,0.2,0,0.2-0.1c0.1,0,0.1,0,0.2-0.1C911.1,1586.2,910.9,1586.2,910.7,1586.3z M911.3,1586.1
	L911.3,1586.1L911.3,1586.1L911.3,1586.1z M908.4,1586.7c-0.1,0-0.1,0-0.2,0C908.2,1586.7,908.3,1586.7,908.4,1586.7z M909.9,1586.4
	c-0.1,0-0.1,0-0.2,0C909.8,1586.5,909.9,1586.4,909.9,1586.4z M909.3,1586.6c0.1,0,0.1,0,0.2,0c0.1,0,0.2,0,0.2,0
	c-0.2,0-0.4,0.1-0.6,0.1C909.2,1586.6,909.3,1586.6,909.3,1586.6z M909,1586.6c0.1,0,0.1,0,0.2,0
	C909.1,1586.6,909,1586.6,909,1586.6L909,1586.6z M910,1586.4h-0.1C910,1586.4,910,1586.4,910,1586.4c0.1,0,0.2,0,0.3-0.1
	c0.1,0,0.1,0,0.2-0.1c-0.1,0-0.2,0-0.3,0.1C910.2,1586.4,910.1,1586.4,910,1586.4z M891.4,1371.7
	C891.4,1371.7,891.4,1371.6,891.4,1371.7L891.4,1371.7C891.4,1371.6,891.4,1371.7,891.4,1371.7L891.4,1371.7L891.4,1371.7
	L891.4,1371.7z M840.5,1587c-0.2,0.3-0.3,0.6-0.4,0.9C840.2,1587.6,840.3,1587.3,840.5,1587c0.2-0.5,0.5-0.9,0.7-1.4
	C840.9,1586.1,840.7,1586.5,840.5,1587z M845,1577.6c0,0,0,0.1-0.1,0.1c0,0.1-0.1,0.1-0.1,0.2C845,1577.8,845,1577.6,845,1577.6
	C845.1,1577.5,845.1,1577.5,845,1577.6C845.1,1577.5,845,1577.6,845,1577.6z M842,1583.9c0.2-0.5,0.5-0.9,0.7-1.4
	C842.4,1583,842.2,1583.5,842,1583.9z M841.9,1584.1c-0.2,0.4-0.4,0.8-0.6,1.2C841.5,1584.9,841.7,1584.5,841.9,1584.1z M843.9,1580
	L843.9,1580L843.9,1580L843.9,1580L843.9,1580z M839.3,1579.9c-0.3,0-0.6,0-0.9,0.1c0.8-0.1,1.6-0.1,2.4-0.1c0.9,0,1.7,0,2.5,0.1
	c0.2,0,0.5,0,0.7,0.1l0,0l0,0C842.5,1579.8,840.9,1579.8,839.3,1579.9z M856,1552.7c0,0.1-0.1,0.2-0.1,0.2
	C855.9,1552.9,856,1552.8,856,1552.7L856,1552.7z M913.5,1585.4c0,0,0.1,0,0.1-0.1C913.6,1585.3,913.5,1585.3,913.5,1585.4
	c-0.2,0.1-0.4,0.2-0.7,0.3c0.2-0.1,0.3-0.1,0.5-0.2C913.4,1585.4,913.4,1585.4,913.5,1585.4z M846.3,1575c0,0.1-0.1,0.1-0.1,0.2
	s-0.1,0.2-0.1,0.3c0-0.1,0.1-0.2,0.1-0.3C846.2,1575.1,846.3,1575,846.3,1575C846.3,1574.9,846.3,1575,846.3,1575z M912.8,1585.6
	L912.8,1585.6L912.8,1585.6z M907.6,1586.8c-0.1,0-0.2,0-0.2,0C907.4,1586.8,907.5,1586.8,907.6,1586.8z M836.9,1561
	c0.1-0.2,0.1-0.4,0.2-0.6c0,0.1,0,0.1-0.1,0.2C837,1560.7,837,1560.9,836.9,1561L836.9,1561z M912.1,1585.9L912.1,1585.9
	L912.1,1585.9z M993.7,1358.2L993.7,1358.2L993.7,1358.2L993.7,1358.2L993.7,1358.2L993.7,1358.2z M918,1447.8L918,1447.8
	L918,1447.8L918,1447.8L918,1447.8z M944.7,1198.2c0.1,0,0.2,0,0.3,0l0,0c-0.1,0-0.1,0-0.2,0H944.7z M918,1447.8L918,1447.8
	L918,1447.8L918,1447.8L918,1447.8z M918,1447.8L918,1447.8L918,1447.8L918,1447.8L918,1447.8z M940,1362.9
	C940,1362.9,940.1,1362.9,940,1362.9L940,1362.9C940.1,1362.9,940,1362.9,940,1362.9L940,1362.9z M938.8,1198.2L938.8,1198.2
	L938.8,1198.2C938.8,1198.3,938.8,1198.2,938.8,1198.2L938.8,1198.2z M843.6,1580.6c0.1-0.2,0.2-0.3,0.2-0.5l0,0l0,0
	C843.8,1580.2,843.7,1580.4,843.6,1580.6z M918,1447.7L918,1447.7L918,1447.7L918,1447.7L918,1447.7z M891.4,1372c0-0.1,0-0.2,0-0.3
	C891.4,1371.8,891.4,1371.9,891.4,1372z M891.4,1371.6c0-0.1,0-0.2,0.1-0.3C891.5,1371.5,891.4,1371.5,891.4,1371.6z M933.3,1368.4
	L933.3,1368.4c0.2-0.1,0.3-0.3,0.5-0.4C933.7,1368.2,933.5,1368.3,933.3,1368.4L933.3,1368.4z M923,1375.9l-0.1,0.1L923,1375.9
	L923,1375.9L923,1375.9z M927.5,1372.8L927.5,1372.8c-0.1,0.1-0.2,0.1-0.3,0.2c-0.2,0.1-0.3,0.2-0.5,0.3c0.2-0.1,0.3-0.2,0.5-0.3
	C927.3,1372.9,927.4,1372.9,927.5,1372.8z M922,1376.6L922,1376.6c0.1-0.1,0.2-0.1,0.3-0.2c0.2-0.1,0.4-0.2,0.5-0.4
	c-0.2,0.1-0.4,0.2-0.5,0.4l-0.1,0.1C922.1,1376.5,922.1,1376.5,922,1376.6z M966,1182.3C966,1182.4,966,1182.4,966,1182.3
	C966,1182.4,966,1182.4,966,1182.3C966,1182.4,966,1182.4,966,1182.3C966,1182.4,966,1182.4,966,1182.3z M903.8,1587.1
	c-0.1,0-0.1,0-0.2,0c-0.1,0-0.2,0-0.3,0s-0.1,0-0.2,0C903.4,1587.1,903.6,1587.1,903.8,1587.1z M952.7,1195.4L952.7,1195.4
	L952.7,1195.4L952.7,1195.4L952.7,1195.4L952.7,1195.4z M867.1,1405L867.1,1405L867.1,1405L867.1,1405z M906.5,1586.9
	c0.1,0,0.2,0,0.2,0S906.6,1586.9,906.5,1586.9L906.5,1586.9z M907.6,1586.8L907.6,1586.8c0.2,0,0.4,0,0.5-0.1c-0.1,0-0.2,0-0.3,0
	C907.7,1586.8,907.7,1586.8,907.6,1586.8z M876.5,1387.1L876.5,1387.1C876.5,1387.2,876.6,1387.2,876.5,1387.1l-9.4,17.9l0,0
	L876.5,1387.1C876.6,1387.2,876.5,1387.2,876.5,1387.1L876.5,1387.1L876.5,1387.1L876.5,1387.1z M908.8,1586.6c-0.1,0-0.3,0-0.4,0.1
	c0.1,0,0.1,0,0.2,0h0.1C908.7,1586.7,908.8,1586.6,908.8,1586.6L908.8,1586.6z M966.3,1181.8
	C966.3,1181.8,966.3,1181.9,966.3,1181.8C966.3,1181.9,966.3,1181.9,966.3,1181.8C966.3,1181.9,966.3,1181.9,966.3,1181.8
	C966.3,1181.9,966.3,1181.9,966.3,1181.8z M966.5,1181.5L966.5,1181.5L966.5,1181.5L966.5,1181.5L966.5,1181.5z M966.5,1181.6
	L966.5,1181.6L966.5,1181.6L966.5,1181.6L966.5,1181.6z M964.4,1138.3L964.4,1138.3L964.4,1138.3L964.4,1138.3L964.4,1138.3z
	 M906.8,1586.9c0.2,0,0.4,0,0.5-0.1C907.1,1586.9,907,1586.9,906.8,1586.9z M965.4,1137.4L965.4,1137.4L965.4,1137.4L965.4,1137.4
	L965.4,1137.4z M860.6,1547.5c0,0,0-0.1,0.1-0.1C860.7,1547.4,860.7,1547.4,860.6,1547.5C860.7,1547.4,860.7,1547.4,860.6,1547.5
	L860.6,1547.5z M828.8,1586.5C828.8,1586.5,828.9,1586.4,828.8,1586.5C828.9,1586.4,828.9,1586.4,828.8,1586.5L828.8,1586.5v0.1
	C828.8,1586.6,828.8,1586.6,828.8,1586.5z M829.7,1583.6c0,0.1-0.1,0.2-0.1,0.3c0,0.1,0,0.1,0,0.2s0,0.2-0.1,0.2
	C829.5,1584.1,829.6,1583.9,829.7,1583.6z M829.4,1584.5c0,0.1-0.1,0.2-0.1,0.3l0,0c0,0.1,0,0.2-0.1,0.2
	C829.3,1584.9,829.3,1584.7,829.4,1584.5z M829,1585.9c0,0.1,0,0.1-0.1,0.2c0,0.1-0.1,0.2-0.1,0.3l0,0c0-0.1,0-0.2,0.1-0.3
	C829,1586.1,829,1586,829,1585.9z M828.4,1588.2v0.1l0,0c0,0.1,0,0.2-0.1,0.3C828.3,1588.4,828.3,1588.3,828.4,1588.2z
	 M827.7,1590.8v0.1c0,0.1,0,0.2-0.1,0.2c0,0,0,0,0,0.1C827.6,1591,827.7,1590.9,827.7,1590.8z M827.9,1589.9v0.1
	c0,0.1,0,0.2-0.1,0.2l0,0C827.9,1590.2,827.9,1590.1,827.9,1589.9z M836.3,1562.8c0,0.1-0.1,0.3-0.1,0.4s-0.1,0.2-0.1,0.2
	c0.1-0.3,0.2-0.6,0.3-0.9C836.4,1562.6,836.4,1562.7,836.3,1562.8z M834.8,1567.2c0,0.1-0.1,0.3-0.1,0.4v0.1
	c0.1-0.3,0.2-0.6,0.3-0.9C834.9,1567,834.9,1567.1,834.8,1567.2z M835.6,1564.9c0,0.1-0.1,0.2-0.1,0.2c-0.1,0.2-0.1,0.4-0.2,0.5
	c0.1-0.4,0.3-0.8,0.4-1.2C835.7,1564.6,835.6,1564.8,835.6,1564.9z M827.4,1592.1L827.4,1592.1L827.4,1592.1c0,0.1,0,0.2-0.1,0.3
	l0,0C827.4,1592.3,827.4,1592.2,827.4,1592.1z M831.3,1578.2c-0.1,0.3-0.2,0.7-0.3,1c0,0.1-0.1,0.2-0.1,0.3c-0.1,0.5-0.3,1-0.4,1.4
	C830.7,1580.1,831,1579.2,831.3,1578.2z M830.3,1581.5c0,0.1-0.1,0.2-0.1,0.3c0,0.1,0,0.1-0.1,0.2c0,0.1-0.1,0.2-0.1,0.3
	C830.1,1582,830.2,1581.7,830.3,1581.5z M834,1569.7c0,0.1,0,0.1-0.1,0.2c-0.1,0.3-0.2,0.6-0.3,0.9c0.3-1,0.6-2,1-2.9
	C834.4,1568.5,834.2,1569.1,834,1569.7z M849,1569.1L849,1569.1L849,1569.1L849,1569.1L849,1569.1z M856.3,1551.7L856.3,1551.7
	c0-0.1,0-0.1,0.1-0.2C856.4,1551.6,856.4,1551.7,856.3,1551.7L856.3,1551.7z M855.7,1553.4L855.7,1553.4c0.2-0.6,0.4-1.1,0.6-1.7
	C856.2,1552.3,855.9,1552.8,855.7,1553.4L855.7,1553.4z M849,1569.1L849,1569.1L849,1569.1L849,1569.1L849,1569.1z M856.3,1551.7
	L856.3,1551.7L856.3,1551.7L856.3,1551.7L856.3,1551.7z M849,1569.1L849,1569.1L849,1569.1c0,0.1-0.1,0.1-0.1,0.2
	C849,1569.2,849,1569.1,849,1569.1L849,1569.1L849,1569.1z M860.9,1547L860.9,1547L860.9,1547L860.9,1547L860.9,1547z M844.4,1578.9
	L844.4,1578.9L844.4,1578.9c0.1-0.3,0.3-0.6,0.4-0.9c-0.1,0.2-0.2,0.4-0.3,0.6c-0.2,0.3-0.3,0.7-0.5,1c0-0.1,0.1-0.1,0.1-0.2
	C844.2,1579.2,844.3,1579.1,844.4,1578.9z M844.6,1578.5L844.6,1578.5c0,0.1-0.1,0.2-0.1,0.2s0,0.1-0.1,0.1l0,0
	C844.4,1578.8,844.5,1578.7,844.6,1578.5z M836.5,1562.4v0.1l0,0C836.4,1562.4,836.4,1562.4,836.5,1562.4z M842.8,1582.2
	c0.1-0.3,0.3-0.6,0.4-0.9l0,0c0-0.1,0.1-0.2,0.1-0.2C843.2,1581.5,843,1581.8,842.8,1582.2z M827.5,1591.8L827.5,1591.8
	c0,0.1,0,0.2-0.1,0.3l0,0l0,0C827.4,1591.9,827.4,1591.9,827.5,1591.8z M849,1569.1L849,1569.1L849,1569.1L849,1569.1L849,1569.1
	L849,1569.1L849,1569.1L849,1569.1z M844.2,1579.4c0,0.1-0.1,0.2-0.1,0.3l0,0C844.1,1579.6,844.1,1579.5,844.2,1579.4L844.2,1579.4
	L844.2,1579.4L844.2,1579.4z M845.8,1576c0-0.1,0.1-0.2,0.1-0.3l0,0l0,0c0,0,0,0,0,0.1C845.8,1575.9,845.8,1576,845.8,1576z
	 M836.1,1563.4L836.1,1563.4c-0.1,0.3-0.2,0.7-0.4,1.1c0,0,0,0,0-0.1C835.9,1564.1,836,1563.8,836.1,1563.4z M847.8,1571.8
	L847.8,1571.8L847.8,1571.8L847.8,1571.8z M844.6,1568.3L844.6,1568.3L844.6,1568.3L844.6,1568.3L844.6,1568.3z M848.6,1570.1
	c-0.1,0.3-0.3,0.6-0.4,0.9c-0.1,0.1-0.1,0.2-0.2,0.4c0,0.1,0,0.1-0.1,0.2c0.3-0.6,0.5-1.2,0.8-1.7
	C848.7,1569.9,848.6,1570,848.6,1570.1z M847.8,1571.8L847.8,1571.8L847.8,1571.8L847.8,1571.8L847.8,1571.8z M847.7,1571.8
	C847.7,1571.9,847.7,1571.9,847.7,1571.8C847.7,1571.9,847.7,1571.9,847.7,1571.8C847.7,1571.9,847.7,1571.8,847.7,1571.8z
	 M847.7,1571.8C847.8,1571.8,847.8,1571.8,847.7,1571.8C847.8,1571.8,847.8,1571.8,847.7,1571.8
	C847.8,1571.8,847.7,1571.8,847.7,1571.8L847.7,1571.8z M841.1,1568L841.1,1568L841.1,1568L841.1,1568L841.1,1568z M847.8,1571.8
	c0,0.1-0.1,0.2-0.1,0.2s0,0.1-0.1,0.1v-0.1l0,0C847.7,1572,847.7,1571.9,847.8,1571.8L847.8,1571.8z M829.9,1582.9
	c-0.1,0.2-0.1,0.3-0.2,0.5C829.8,1583.3,829.8,1583.1,829.9,1582.9z M827.9,1589.9c0-0.1,0.1-0.3,0.1-0.4
	C828,1589.6,828,1589.7,827.9,1589.9z M843,1568.2L843,1568.2L843,1568.2L843,1568.2L843,1568.2z M841.3,1568L841.3,1568L841.3,1568
	L841.3,1568L841.3,1568z M842.8,1568.1L842.8,1568.1L842.8,1568.1L842.8,1568.1L842.8,1568.1z M844.4,1568.3L844.4,1568.3
	L844.4,1568.3L844.4,1568.3L844.4,1568.3z M832.5,1574.5c0.3-1.1,0.7-2.1,1-3.2c-0.1,0.2-0.1,0.4-0.2,0.6c0,0.1-0.1,0.2-0.1,0.3
	C832.9,1573,832.7,1573.8,832.5,1574.5c0,0-0.1,0.2-0.1,0.3c-0.3,1-0.6,1.9-0.9,2.9C831.8,1576.7,832.1,1575.6,832.5,1574.5z
	 M839.4,1567.9L839.4,1567.9L839.4,1567.9L839.4,1567.9L839.4,1567.9z M846.6,1574.3c0,0.1-0.1,0.1-0.1,0.2v0.1v0.1
	C846.5,1574.5,846.6,1574.4,846.6,1574.3L846.6,1574.3z M847.6,1572.2c-0.1,0.2-0.2,0.4-0.3,0.7c-0.1,0.3-0.3,0.6-0.4,0.9
	c0,0.1-0.1,0.1-0.1,0.2v0.1c0,0.1-0.1,0.1-0.1,0.2s-0.1,0.1-0.1,0.2C846.9,1573.6,847.2,1572.9,847.6,1572.2L847.6,1572.2
	L847.6,1572.2z M835.3,1565.8C835.3,1565.7,835.3,1565.7,835.3,1565.8c-0.1,0.3-0.2,0.7-0.4,1.1l0,0
	C835.1,1566.4,835.2,1566.1,835.3,1565.8z M834.7,1567.8L834.7,1567.8C834.7,1567.8,834.7,1567.7,834.7,1567.8
	C834.7,1567.7,834.7,1567.7,834.7,1567.8C834.7,1567.7,834.7,1567.7,834.7,1567.8L834.7,1567.8v0.1l0,0
	C834.6,1567.9,834.6,1567.8,834.7,1567.8z M833.6,1570.8C833.6,1570.8,833.7,1570.8,833.6,1570.8c-0.1,0.2-0.1,0.3-0.2,0.5l0,0
	C833.5,1571.2,833.6,1571,833.6,1570.8z M845.9,1575.8L845.9,1575.8L845.9,1575.8L845.9,1575.8L845.9,1575.8z M845.9,1575.8
	c-0.2,0.4-0.4,0.8-0.6,1.2l0,0l0,0C845.5,1576.6,845.7,1576.2,845.9,1575.8c0.1-0.2,0.2-0.4,0.3-0.6
	C846.1,1575.4,846,1575.6,845.9,1575.8z M845.3,1577L845.3,1577L845.3,1577L845.3,1577z M845.3,1577.1c0,0.1-0.1,0.1-0.1,0.2
	c0.1-0.3,0.3-0.6,0.4-0.8c-0.1,0.1-0.1,0.3-0.2,0.4C845.4,1576.9,845.3,1577,845.3,1577.1C845.3,1577,845.3,1577,845.3,1577.1
	C845.3,1577,845.3,1577.1,845.3,1577.1z M845.3,1577L845.3,1577L845.3,1577L845.3,1577L845.3,1577z M827.1,1593.4L827.1,1593.4
	L827.1,1593.4L827.1,1593.4L827.1,1593.4z M847.7,1572L847.7,1572L847.7,1572L847.7,1572L847.7,1572z M876.2,1386.6L876.2,1386.6
	L876.2,1386.6C876.2,1386.6,876.1,1386.5,876.2,1386.6C876.1,1386.5,876.2,1386.6,876.2,1386.6z M875.6,1385.6L875.6,1385.6
	L875.6,1385.6L875.6,1385.6L875.6,1385.6z M875.9,1386.2c0,0-0.1-0.1-0.1-0.2C875.9,1386.1,875.9,1386.2,875.9,1386.2z
	 M876.2,1386.7L876.2,1386.7L876.2,1386.7C876.2,1386.6,876.2,1386.6,876.2,1386.7C876.2,1386.6,876.2,1386.6,876.2,1386.7z
	 M870.2,1408.8L870.2,1408.8L870.2,1408.8L870.2,1408.8L870.2,1408.8z M876.4,1386.9C876.4,1387,876.4,1387,876.4,1386.9
	C876.4,1387,876.4,1387,876.4,1386.9L876.4,1386.9L876.4,1386.9z M930.7,1187.6v0.1V1187.6L930.7,1187.6z M874.7,1384.3
	L874.7,1384.3C874.8,1384.3,874.8,1384.3,874.7,1384.3C874.8,1384.3,874.7,1384.3,874.7,1384.3L874.7,1384.3z M873.3,1381.8
	L873.3,1381.8L873.3,1381.8L873.3,1381.8L873.3,1381.8z M869.3,1408L869.3,1408L869.3,1408L869.3,1408L869.3,1408z M872.5,1380.4
	L872.5,1380.4L872.5,1380.4L872.5,1380.4L872.5,1380.4z M875,1384.8C875.1,1384.8,875.1,1384.8,875,1384.8
	C875.1,1384.8,875,1384.8,875,1384.8L875,1384.8L875,1384.8z M875.4,1385.4C875.5,1385.4,875.5,1385.4,875.4,1385.4
	C875.5,1385.4,875.5,1385.5,875.4,1385.4C875.5,1385.5,875.5,1385.5,875.4,1385.4C875.5,1385.5,875.5,1385.4,875.4,1385.4z
	 M875.2,1385L875.2,1385L875.2,1385L875.2,1385L875.2,1385z M959.4,1190.4L959.4,1190.4C959.4,1190.4,959.5,1190.4,959.4,1190.4
	C959.5,1190.4,959.4,1190.4,959.4,1190.4z M941.8,1198.5L941.8,1198.5h0.1C941.9,1198.5,941.9,1198.5,941.8,1198.5z M951.3,1196.1
	h0.1l0,0C951.4,1196.1,951.4,1196.1,951.3,1196.1z M953.9,1194.7L953.9,1194.7L953.9,1194.7L953.9,1194.7z M934.7,1196.7
	L934.7,1196.7L934.7,1196.7L934.7,1196.7L934.7,1196.7L934.7,1196.7z M867.5,1405.7L867.5,1405.7L867.5,1405.7L867.5,1405.7
	L867.5,1405.7z M931.3,1191.8C931.3,1191.8,931.3,1191.7,931.3,1191.8c0-0.1,0-0.1,0-0.1l0,0l0,0
	C931.2,1191.7,931.3,1191.7,931.3,1191.8z M930.9,1189.7C930.8,1189.7,930.8,1189.7,930.9,1189.7
	C930.8,1189.7,930.9,1189.7,930.9,1189.7L930.9,1189.7C930.9,1189.8,930.9,1189.7,930.9,1189.7z M894.6,1363.8
	c-0.5,0.1-1,0.2-1.5,0.3C893.6,1364,894.1,1363.9,894.6,1363.8L894.6,1363.8z M867.8,1406.2L867.8,1406.2L867.8,1406.2L867.8,1406.2
	L867.8,1406.2z M867.1,1405L867.1,1405L867.1,1405L867.1,1405L867.1,1405z M898.4,1362.8c0.4-0.1,0.7-0.3,1.1-0.4
	c-0.2,0.1-0.4,0.1-0.6,0.2C898.7,1362.7,898.5,1362.7,898.4,1362.8L898.4,1362.8z M954.6,1194.3L954.6,1194.3L954.6,1194.3
	L954.6,1194.3z M872.4,1380.4L872.4,1380.4L872.4,1380.4L872.4,1380.4L872.4,1380.4z M876.4,1386.9L876.4,1386.9L876.4,1386.9
	L876.4,1386.9L876.4,1386.9z M905,1121.4c0.1-0.4,0.2-0.9,0.2-1.3l0,0C905.2,1120.5,905.1,1121,905,1121.4L905,1121.4
	c0,0.2-0.1,0.3-0.1,0.5C904.9,1121.8,905,1121.6,905,1121.4z M970,1128.7c0,0,0.1,0.1,0.4,0.3c0.1,0.1,0.2,0.1,0.3,0.2
	C970.2,1128.9,970,1128.7,970,1128.7L970,1128.7z M899.9,1587.1c-0.1,0-0.2,0-0.2,0H899.9L899.9,1587.1z M911.6,1100.1L911.6,1100.1
	c-0.4,0.4-0.9,1-1.3,1.7l0,0c-0.1,0.3-0.3,0.5-0.4,0.8l0,0c-0.1,0.3-0.3,0.6-0.4,0.9l0,0c-0.1,0.3-0.3,0.6-0.4,1l0,0
	c-0.1,0.2-0.1,0.4-0.2,0.5C909.7,1103.3,910.6,1101.6,911.6,1100.1z M907.4,1592.4L907.4,1592.4L907.4,1592.4L907.4,1592.4
	L907.4,1592.4z M908.7,1105.8c-0.1,0.4-0.3,0.8-0.4,1.2l0,0c0.2-0.5,0.3-1,0.5-1.4C908.7,1105.6,908.7,1105.7,908.7,1105.8
	C908.7,1105.7,908.7,1105.7,908.7,1105.8z M908.9,1105.2c0,0.1-0.1,0.2-0.1,0.3l0,0C908.8,1105.4,908.8,1105.3,908.9,1105.2
	L908.9,1105.2L908.9,1105.2L908.9,1105.2L908.9,1105.2z M899.7,1587.1L899.7,1587.1L899.7,1587.1L899.7,1587.1L899.7,1587.1z
	 M945,1427.2L945,1427.2L945,1427.2L945,1427.2L945,1427.2z M945,1427.2L945,1427.2L945,1427.2c-0.9,0.8-1.9,1.5-2.9,2.3l0,0
	C943.1,1428.7,944.1,1428,945,1427.2z M1944.5,1156.8L955,1728.1L55.5,1208.7l343.3-198.2v81.4l0,0l50.7,28.8l50.7,28.8l99.9-58.5
	V963.7L573.3,950l0,0c2-3.1,3.8-6.4,5.2-9.7c0.1-0.2,0.2-0.4,0.2-0.6c0.3-0.6,0.5-1.2,0.7-1.9c0.1-0.3,0.2-0.5,0.3-0.8
	c0.2-0.6,0.4-1.1,0.6-1.7c0.1-0.3,0.2-0.6,0.3-0.8c0.2-0.6,0.3-1.2,0.5-1.8c0.1-0.3,0.1-0.5,0.2-0.8c0.2-0.9,0.4-1.7,0.5-2.6
	c0.1-0.9,0.3-1.8,0.4-2.7c0-0.2,0-0.4,0.1-0.6c0.1-0.9,0.1-1.7,0.2-2.6c0-0.1,0-0.2,0-0.3c0-0.8,0-1.7,0-2.5c0-0.1,0-0.3,0-0.4
	c0-0.9-0.1-1.8-0.2-2.7c0-0.1,0-0.2,0-0.3c-0.1-0.9-0.2-1.8-0.3-2.8l0,0c-0.1-1-0.3-1.9-0.5-2.8v-0.1c-0.4-1.9-0.8-3.8-1.4-5.7
	l33.8-19.5v121.3l32,18.6L1077.5,777V656.2l498.2,287.6l0,0c-0.3,0.3-0.6,0.6-1,0.9l0,0c-0.3,0.3-0.7,0.6-1,0.9
	c-0.1,0.1-0.2,0.1-0.3,0.2c-0.3,0.2-0.6,0.5-0.9,0.7c-0.4,0.3-0.8,0.6-1.2,0.9c-13.5,9.9-25.5,18.3-33.6,38.1
	c-5.3,13-13.5,25.6-20.1,33.3c-0.6,0.7-1.3,1.4-1.9,2.1s-1.2,1.2-1.8,1.8c-1.4,1.4-2.7,2.4-3.8,3c-0.2,0.1-0.4,0.2-0.6,0.3
	s-0.4,0.2-0.6,0.2c-1.6,0.5-4.2,1.1-7.3,2c-0.5,0.1-1.1,0.3-1.6,0.5c-1,0.3-2.1,0.7-3.1,1c-1.8,0.7-3.6,1.4-5.3,2.3
	c-0.6,0.3-1.2,0.7-1.7,1c-0.2,0.1-0.4,0.3-0.6,0.4c-0.5,0.4-1,0.7-1.5,1.1c-0.1,0.1-0.1,0.1-0.2,0.2c-0.7,0.7-1.4,1.4-2,2.1
	c-0.2,0.3-0.5,0.7-0.7,1c-0.3,0.4-0.5,0.9-0.7,1.4c-0.6,1.4-0.9,3-0.8,4.7c0,0.9,0.2,1.8,0.4,2.8c0.7,2.9,1.4,5,2.2,6.6
	c0.1,0.3,0.3,0.5,0.4,0.7c0.3,0.5,0.6,0.9,0.8,1.2c0.1,0.2,0.3,0.3,0.4,0.5c3.2,3.5,6.8,1.9,9.3,8.3c0.2,0.5,0.4,1,0.6,1.6
	c0.1,0.2,0.2,0.5,0.3,0.7c0.5,1.3,1,2.7,1.6,4.3c0.1,0.3,0.3,0.7,0.4,1c0.1,0.2,0.1,0.3,0.2,0.5c0.7,1.6,1.5,3.3,2.3,5.1
	c0.1,0.3,0.3,0.5,0.4,0.8c0.8,1.6,1.8,3.2,2.8,4.8c0.3,0.5,0.7,1.1,1.1,1.6c0.2,0.3,0.4,0.5,0.6,0.8c0.4,0.5,0.8,1,1.2,1.5
	c0.4,0.5,0.8,1,1.3,1.5c0.7,0.8,1.5,1.6,2.4,2.4c0.3,0.2,0.5,0.5,0.8,0.7c0.2,0.2,0.5,0.4,0.7,0.6c0.9,0.7,1.8,1.4,2.8,2
	c0.3,0.2,0.6,0.3,0.8,0.5c0.6,0.3,1.2,0.6,1.8,0.9s1.2,0.6,1.9,0.8c2.5,1,5.4,1.6,8.5,1.7c0.4,0,0.8,0,1.2,0c2.8,0,5.8-0.4,9-1.2
	c0,0,0-0.2,0-0.5c0-0.8,0-2.7-0.4-5.1c-0.1-1-0.3-2-0.6-3.1c-0.1-0.6-0.3-1.1-0.4-1.7c-0.2-0.6-0.3-1.2-0.6-1.8
	c-1-3.1-2.6-6.4-4.9-9.6c-2.2-3-3.8-6.8-5.1-11.1c-0.2-0.7-0.4-1.3-0.5-2c-0.4-1.6-0.7-3.2-1-4.8c-0.1-0.8-0.3-1.6-0.4-2.4
	c0-0.1,0-0.3-0.1-0.4c-0.1-0.8-0.2-1.7-0.3-2.5c0-0.1,0-0.2,0-0.3c-0.1-0.8-0.1-1.7-0.2-2.5c-0.1-1.4-0.1-2.7-0.1-3.9
	c0-0.4,0-0.8,0-1.2c0-0.4,0-0.8,0-1.2c0.1-1.1,0.1-2.2,0.3-3.2c0.2-1.3,0.4-2.4,0.7-3.3c0.3-0.9,1.5-2.4,3.2-4.3
	c0.5-0.6,1.1-1.2,1.8-1.8c0.4-0.4,0.9-0.9,1.3-1.3c0.5-0.5,1-0.9,1.5-1.4c0.7-0.7,1.5-1.4,2.2-2.1c1.4-1.3,3-2.7,4.6-4.2
	c0.9-0.8,1.9-1.7,2.8-2.5c1.3-1.2,2.6-2.4,4-3.6c1.4-1.2,2.7-2.4,4.1-3.7c1-0.9,2-1.8,3.1-2.7s2.1-1.9,3.2-2.8
	c1.4-1.2,2.7-2.5,4.1-3.7c6-5.5,11.4-10.7,15-14.8c-0.7,8.9-0.8,18.2-0.4,24.4c0,0.6,0.1,1.1,0.1,1.6s0.1,1,0.2,1.4s0.1,0.9,0.2,1.2
	c0.1,0.8,0.3,1.4,0.4,1.8c1.1,3.2,4.5,15.8,7.5,28.6c0.4,1.6,0.7,3.2,1.1,4.8c0.3,1.5,0.6,2.9,0.9,4.3c0.1,0.3,0.1,0.6,0.2,0.9
	c0.3,1.2,0.5,2.5,0.7,3.6c0.1,0.3,0.1,0.6,0.2,0.8c0.2,1.2,0.4,2.4,0.6,3.5c0.9,5.6,1.4,10,1,12.1c0,0,2.5,12.9,1,16.6
	c-0.4,0.9-0.9,2.4-1.6,4.2c-0.2,0.4-0.3,0.9-0.5,1.4c-0.3,0.8-0.6,1.6-0.8,2.5c-0.2,0.7-0.5,1.4-0.7,2.1c-1.3,4.3-2.5,8.8-2.5,11.8
	c0,0.7,0,1.5,0,2.2c0,0.4,0,0.7,0,1s0,0.7,0,1c0.2,4,1.4,7.2,7.6,9.5c0.8,0.3,1.5,0.5,2.3,0.8c0.7,0.2,1.5,0.4,2.2,0.6
	c1.2,0.3,2.4,0.6,3.7,1c0.2,0.1,0.5,0.2,0.7,0.2c0.5,0.2,1,0.3,1.5,0.5c0.3,0.1,0.5,0.2,0.8,0.3c0.5,0.2,1.1,0.4,1.6,0.7
	c2.9,1.3,6.3,3.3,10.3,6.6c0.1,0.1,0.3,0.2,0.4,0.3c1.5,1.2,3,2.6,4.7,4.2c5.7,5.4,11.7,6.9,16.8,6.9c0.8,0,1.7-0.1,2.4-0.2
	c1-0.1,1.9-0.3,2.8-0.5c1.9-0.4,3.5-1,4.8-1.5c0.3-0.1,0.5-0.2,0.7-0.3c1.5-0.7,2.4-1.2,2.4-1.2s0.8-1.6,1.1-3.8
	c0.1-0.5,0.1-1,0.1-1.5l0,0c0-1.7-0.4-3.5-1.8-5c-3.6-3.9-31.4-27.3-31.7-30.7c0-0.4-0.1-0.8-0.2-1.3s-0.3-0.8-0.4-1.2
	c-0.2-0.4-0.3-0.8-0.5-1.2c-0.1-0.2-0.2-0.4-0.3-0.6c-0.2-0.4-0.4-0.8-0.6-1.2c-0.3-0.6-0.6-1.2-0.8-1.8c-0.3-0.8-0.4-1.6-0.4-2.4
	c0-0.2,0-0.4,0-0.8l0,0c0-1.3,0-3.8-0.1-7c0-1.6,0-3.5-0.1-5.4c0-0.8,0-1.6,0-2.4c0-1.2,0-2.5-0.1-3.8c0-1.3,0-2.7-0.1-4
	c0-0.5,0-0.9,0-1.4c0-0.9,0-1.8,0-2.8c0-0.5,0-0.9,0-1.4c0-1.4,0-2.8-0.1-4.2c-0.1-3.3-0.1-6.5-0.2-9.5c0-0.9,0-1.7,0-2.5
	c0-1.2,0-2.4-0.1-3.6c0-0.8,0-1.5,0-2.2c-0.1-6.1-0.2-10.2-0.2-10.2l-1.4-70.3L1944.5,1156.8z M758.1,961.4l62.1,35.9l205.1-118.4
	v-8.6L820.2,988.7l-54.7-31.6L758.1,961.4z M987.7,1179.4L987.7,1179.4L987.7,1179.4l377.7-218.1v-18.2l-401.9,232l0,0
	c0-0.6,0-1.2,0-1.8c0,0,0,0,0-0.1c0-0.6,0-1.2,0.1-1.7v-0.1c0-0.6,0.1-1.2,0.1-1.7v-0.1c0.1-1.2,0.2-2.4,0.3-3.6v-0.1
	c0.1-0.5,0.1-1.1,0.2-1.6c0-0.1,0-0.1,0-0.2c0.1-0.5,0.1-1,0.2-1.5v-0.1c0.1-0.5,0.1-1,0.2-1.4c1.8-2.5,3.2-5.5,4.3-8.9
	c0.6-2.1,1.1-4.3,1.3-6.7c0,0,4.2-2.6,7.8-6.2c0.2-0.2,0.4-0.5,0.7-0.7c0.9-0.9,1.7-1.9,2.4-3c0.2-0.3,0.3-0.5,0.5-0.8
	c0.3-0.5,0.6-1.1,0.8-1.6c0.9-2.2,1-4.4-0.2-6.5c-0.2-0.3-0.3-0.6-0.5-0.8s-0.3-0.5-0.5-0.7l0,0c0.1-0.2,0.2-0.5,0.3-0.7
	c0,0,0,0,0-0.1c0.4-1.2,0.8-2.6,1.1-4.1c0-0.1,0-0.1,0-0.2c0-0.3,0.1-0.5,0.1-0.8c0-0.1,0-0.2,0-0.3c0-0.3,0.1-0.5,0.1-0.8
	c0-0.1,0-0.2,0-0.3c0.1-0.8,0.1-1.7,0.2-2.5c0-0.2,0-0.3,0-0.5s0-0.4,0-0.6s0-0.4,0-0.6s0-0.4,0-0.6s0-0.4,0-0.6s0-0.4,0-0.6
	c0-0.3-0.1-0.6-0.1-0.9c0-0.2,0-0.3-0.1-0.5c0-0.3-0.1-0.7-0.1-1c0-0.2-0.1-0.3-0.1-0.5c0-0.3-0.1-0.5-0.1-0.8
	c0-0.2-0.1-0.3-0.1-0.5c-0.1-0.3-0.1-0.5-0.2-0.8c0-0.2-0.1-0.3-0.1-0.5c-0.1-0.3-0.2-0.6-0.2-0.9c0-0.1-0.1-0.2-0.1-0.4
	c-0.1-0.4-0.3-0.8-0.4-1.2c0-0.1-0.1-0.1-0.1-0.2c-0.1-0.3-0.3-0.7-0.4-1c-0.1-0.1-0.1-0.3-0.2-0.4c-0.1-0.3-0.2-0.5-0.4-0.8
	c-0.1-0.1-0.1-0.3-0.2-0.4c-0.1-0.3-0.3-0.5-0.4-0.8c-0.1-0.1-0.1-0.2-0.2-0.4c-0.2-0.3-0.4-0.6-0.6-0.9c0-0.1-0.1-0.1-0.1-0.2
	c-0.2-0.4-0.5-0.7-0.8-1.1c-0.1-0.1-0.1-0.2-0.2-0.3c-0.2-0.3-0.4-0.5-0.6-0.7c-0.1-0.1-0.2-0.2-0.3-0.3c-0.2-0.2-0.4-0.4-0.6-0.6
	c-0.1-0.1-0.2-0.2-0.4-0.3c-0.2-0.2-0.5-0.4-0.7-0.6c-0.1-0.1-0.2-0.2-0.3-0.3c-0.4-0.3-0.7-0.6-1.1-0.8l0,0c0,0,0.1-0.6,0.1-1.4
	c0-1.9-0.4-5.4-2.7-8.6c-0.2-0.2-0.3-0.4-0.5-0.6c-0.7-0.8-1.5-1.6-2.5-2.3c-1.2-0.9-2.8-1.6-4.6-2.2s-4.3-0.9-7.1-1.2
	c-5.6-0.5-12.8-0.4-19.9-0.5c-2.8,0-5.6,0-8.3-0.1c-1.3,0-2.6-0.1-3.9-0.1c-5.7-0.3-10.4-0.9-13-2.2c-0.6-0.3-1-0.6-1.4-1
	c-2.4-2.6-4-5.1-5-7c-1.3-2.4-1.6-4-1.6-4s-0.7,1.6-1.2,4c-0.1,0.4-0.1,0.8-0.2,1.2c-0.3,1.6-0.4,3.5-0.2,5.4
	c0.2,2.2,0.9,4.4,2.3,6.5c0,0-0.2,0.3-0.7,0.7c-0.2,0.1-0.4,0.3-0.6,0.4c-0.2,0.1-0.5,0.2-0.8,0.3c-0.3,0.1-0.6,0.1-1,0.1
	c-0.5,0-1.1-0.2-1.8-0.6c-0.4-0.2-0.9-0.6-1.4-1c0,0,0.2,0.9,0.6,2.3c0.6,1.9,1.8,4.6,3.7,6.9c1.1,1.3,2.5,2.5,4.1,3.2
	c0,0-16.1,21.8-3.2,40.8c0,0,0,0,0-0.1c0,0,0-0.1,0-0.2l0,0c0-0.3,0.1-0.7,0.2-1.3l0,0c0.3-1.9,0.8-5.3,1.5-9.3
	c-0.1,0.8-0.1,1.7-0.2,2.6c0,0.9-0.1,1.8-0.1,2.7c0,1.8,0,3.8,0.2,5.8c0.1,0.8,0.1,1.6,0.2,2.4c0,0.2,0,0.4,0.1,0.7
	c0.1,0.7,0.1,1.3,0.2,1.9c0,0.1,0,0.3,0,0.4c0.1,0.8,0.2,1.5,0.3,2.2c0,0.2,0.1,0.4,0.1,0.5c0.1,0.6,0.2,1.1,0.3,1.7
	c0,0.2,0.1,0.4,0.1,0.5c0.1,0.7,0.3,1.4,0.4,2c0,0.1,0.1,0.2,0.1,0.3c0.1,0.5,0.3,1.1,0.4,1.6c0,0.2,0.1,0.4,0.1,0.5
	c0.2,0.6,0.3,1.2,0.5,1.7v0.1c0.2,0.6,0.4,1.2,0.6,1.7c0.1,0.2,0.1,0.3,0.2,0.5c0.2,0.5,0.3,0.9,0.5,1.3c0,0.1,0.1,0.2,0.1,0.4
	c0.2,0.5,0.4,1,0.6,1.5c0.1,0.1,0.1,0.3,0.2,0.4c0.2,0.4,0.4,0.8,0.5,1.2c0.1,0.1,0.1,0.3,0.2,0.4c0.2,0.5,0.5,0.9,0.7,1.4
	c0,0.1,0.1,0.2,0.1,0.2c0.2,0.4,0.4,0.7,0.6,1.1c0.1,0.1,0.2,0.3,0.2,0.4c0.2,0.4,0.5,0.7,0.7,1.1l0.1,0.1c0.3,0.4,0.5,0.8,0.8,1.2
	c0.1,0.1,0.2,0.2,0.2,0.3c0.2,0.3,0.4,0.6,0.6,0.9c0.1,0.1,0.1,0.2,0.2,0.3c0.3,0.3,0.5,0.7,0.8,1c0.1,0.1,0.1,0.2,0.2,0.2
	c0.2,0.3,0.4,0.5,0.7,0.8c0.1,0.1,0.2,0.2,0.2,0.3c0.3,0.3,0.6,0.6,0.8,0.9l0.1,0.1c0.3,0.3,0.5,0.5,0.8,0.7
	c0.1,0.1,0.2,0.1,0.2,0.2c0.3,0.2,0.5,0.5,0.8,0.7c0,0,0.1,0,0.1,0.1c0.3,0.3,0.6,0.5,0.9,0.7c0.1,0.1,0.1,0.1,0.2,0.2
	c0.2,0.2,0.5,0.4,0.7,0.6c0.1,0,0.1,0.1,0.2,0.1c0.3,0.2,0.6,0.4,0.9,0.6l0.1,0.1c0.3,0.2,0.5,0.3,0.8,0.5c0.1,0,0.1,0.1,0.2,0.1
	c0.6,0.4,1.2,0.7,1.7,1l0.1,0.1c0.6,0.3,1.1,0.6,1.7,0.8c0,0,0,0,0.1,0c0.3,0.1,0.5,0.2,0.8,0.3l0,0c0.6,0.2,1.1,0.4,1.6,0.6l0,0
	c-0.3,0-0.6,0-0.9,0c-0.1,0-0.2,0-0.2,0c-0.3,0-0.6,0-0.9,0h-0.1c-0.4,0-0.7,0-1.1,0c-0.1,0-0.1,0-0.2,0c-0.3,0-0.7,0-1.1,0
	c-0.1,0-0.1,0-0.2,0c-0.8,0-1.7,0-2.6,0.1h-0.1c-0.9,0-1.9,0.1-2.9,0.2c0,0,0,0-0.1,0c-1.5,0.1-3,0.3-4.5,0.5l0,0
	c-1,0.1-2,0.3-3,0.5l0,0c-1,0.2-1.9,0.4-2.8,0.7l0,0c-0.4,0.1-0.9,0.3-1.3,0.4l0,0l-189.8-109.6v18.2l179,103.3l0,0
	c-0.2,0.5-0.5,0.9-0.7,1.4c0,0,0,0.1-0.1,0.1c-0.5,1-1,2-1.6,3.1v0.1c-0.3,0.5-0.5,1.1-0.8,1.6c0,0,0,0.1-0.1,0.1
	c-0.6,1.1-1.1,2.3-1.7,3.4l0,0c-0.3,0.6-0.6,1.2-0.9,1.8l0,0c-0.6,1.2-1.2,2.4-1.8,3.7l0,0c-0.6,1.2-1.2,2.4-1.8,3.7c0,0,0,0,0,0.1
	c-0.3,0.6-0.6,1.2-0.9,1.8c0,0,0,0.1-0.1,0.1c-0.6,1.2-1.1,2.4-1.7,3.5v0.1c-0.3,0.6-0.6,1.2-0.8,1.7c0,0,0,0,0,0.1
	c-0.5,1.1-1.1,2.2-1.6,3.3c0,0.1-0.1,0.2-0.1,0.3c-0.2,0.5-0.5,1-0.7,1.5l0,0c-0.5,1.1-1,2.1-1.5,3.1l0,0c-0.4,1-0.9,1.9-1.3,2.7
	c0,0.1-0.1,0.1-0.1,0.2c-0.2,0.4-0.4,0.8-0.5,1.2v0.1c-0.4,0.8-0.7,1.5-1,2.1v0.1c-0.1,0.3-0.3,0.5-0.4,0.8
	c-0.1,0.1-0.1,0.2-0.2,0.4c0,0.1-0.1,0.2-0.1,0.3c-0.1,0.2-0.2,0.5-0.3,0.7c0,0.1-0.1,0.1-0.1,0.2c-0.4,0.8-0.6,1.3-0.6,1.4l0,0l0,0
	l0,0l0,0c0,0.6,0,1.1,0.1,1.7c0,0.2,0.1,0.4,0.1,0.5c0.1,0.4,0.1,0.7,0.2,1.1c0.1,0.2,0.1,0.4,0.2,0.6c0.1,0.3,0.2,0.6,0.3,0.9
	c0.1,0.2,0.2,0.4,0.3,0.6c0.1,0.3,0.3,0.6,0.4,0.9c0.1,0.2,0.2,0.4,0.3,0.6c0.2,0.3,0.3,0.6,0.5,0.8c0.1,0.2,0.3,0.4,0.4,0.5
	c0.2,0.3,0.4,0.6,0.6,0.8c0.1,0.2,0.3,0.3,0.4,0.5c0.2,0.3,0.5,0.5,0.7,0.8c0.1,0.1,0.3,0.3,0.4,0.4c0.3,0.3,0.5,0.5,0.8,0.8
	c0.1,0.1,0.3,0.2,0.4,0.4c0.3,0.3,0.6,0.5,0.9,0.8c0.1,0.1,0.3,0.2,0.4,0.3c0.3,0.3,0.7,0.5,1,0.8c0.1,0.1,0.3,0.2,0.4,0.3
	c0.4,0.3,0.8,0.5,1.2,0.8c0.1,0.1,0.2,0.1,0.4,0.2c0.4,0.3,0.8,0.5,1.3,0.8c0.1,0.1,0.2,0.1,0.3,0.2c0.5,0.3,0.9,0.5,1.4,0.8
	c0.1,0,0.2,0.1,0.2,0.1c0.5,0.3,1,0.5,1.5,0.8c0.1,0,0.1,0.1,0.2,0.1c0.5,0.3,1,0.5,1.6,0.7h0.1c0.6,0.2,1.1,0.5,1.7,0.7l0,0
	c-1.5,16.9-2.5,30.6-2.5,30.6l-69.9,52.7c0,0-13.9,11.2-23.2,20.7c-4.9,5-8.6,9.5-8.3,11.7c0.1,0.8,0.2,1.5,0.3,2.1s0.2,1,0.3,1.4
	c0.6,2.2,1.4,1.1,1.4,1.1s-0.4,1.4-0.6,3c0,0.2,0,0.5,0,0.7c0,0.5,0,1,0.1,1.4c0.1,0.9,0.4,1.8,1.1,2.3c0.3,0.3,0.7,0.5,1.2,0.6
	c0.2,0,0.5,0.1,0.7,0.2s0.4,0.1,0.5,0.2c0.3,0.1,0.5,0.3,0.7,0.5s0.3,0.4,0.4,0.6c0.1,0.2,0.1,0.5,0.2,0.7c0,0.1,0,0.3,0.1,0.4
	c0,0.3,0.1,0.6,0.1,0.9c0,0.2,0.1,0.3,0.1,0.5c0.1,0.6,0.4,1.3,0.9,2c0.6,0.8,1.5,0.4,2.5-0.5c0.2-0.2,0.4-0.4,0.7-0.7
	s0.5-0.5,0.7-0.8c2.2-2.8,4.3-6.9,4.3-6.9l14-18.2c0,0-0.1,0.8,0,2c0,1.5,0.1,3.8,0.5,6c0.2,1.2,0.6,2.4,1,3.4
	c0.2,0.4,0.4,0.8,0.6,1.1s0.5,0.7,0.8,0.9s0.6,0.5,0.9,0.7c0.8,0.4,1.9,0.6,3.1,0.2c0,0-0.2-2.8,0.1-6.2c0-0.5,0.1-0.9,0.2-1.4
	c0-0.2,0.1-0.5,0.1-0.7c0.1-0.5,0.2-0.9,0.3-1.4c0.1-0.2,0.1-0.5,0.2-0.7c0.4-1.6,1-3.2,1.8-4.4c0.5-0.7,1.1-1.3,1.7-1.8
	c1.3-0.9,6.6-4.5,14-9.4c0.7-0.5,1.5-1,2.3-1.5c1.2-0.8,2.4-1.6,3.6-2.4c2.9-1.9,6-4,9.2-6.1c0.5-0.3,0.9-0.6,1.4-0.9
	c0.9-0.6,1.9-1.2,2.8-1.8c0.5-0.3,0.9-0.6,1.4-0.9c2.8-1.9,5.7-3.8,8.6-5.7c2.4-1.6,4.8-3.1,7.1-4.7c1.9-1.2,3.7-2.4,5.5-3.6
	c0.5-0.3,0.9-0.6,1.4-0.9c1.3-0.9,2.7-1.7,4-2.6c1.3-0.8,2.5-1.7,3.8-2.5c1.2-0.8,2.4-1.6,3.5-2.3c1.1-0.7,2.2-1.5,3.3-2.1l9.4-52.1
	l-14.3,79.1l0,0l0,0c0.3,0.3,0.6,0.5,0.9,0.8c0.1,0.1,0.3,0.3,0.4,0.4c-0.1-0.1-0.2-0.2-0.3-0.3l-37.6,17.1l-11.8,5.4
	c-0.1,0.9-0.2,1.8-0.2,2.7c0,0.2,0,0.5,0,0.7c0,0.7,0,1.3,0,2c0,0.2,0,0.5,0,0.7c0,0.8,0.1,1.6,0.2,2.4c0,0.1,0,0.1,0,0.2
	c0.1,0.9,0.2,1.8,0.4,2.7l0,0c-0.1,0.1-0.2,0.1-0.4,0.2c-1.3,0.7-2.6,1.4-3.9,2.1c-3.4,1.7-6.4,3.1-8.9,4c-0.5,0.2-1,0.3-1.4,0.5
	c-4.2,1.2-8.2,3.6-11.9,6.5c-0.9,0.7-1.8,1.5-2.7,2.3s-1.7,1.6-2.5,2.5c-8.1,8.6-13.5,19.3-13.7,24c-0.3,6.9,28.7,120.5,33.9,142.7
	l0,0c0,0.1-0.1,0.1-0.1,0.2s-0.1,0.1-0.1,0.2c-0.1,0.3-0.2,0.7-0.4,1.1c0,0.1-0.1,0.3-0.1,0.4c0-0.1,0.1-0.2,0.1-0.3l0,0l0,0l0,0
	c-0.8,1.9-2,4.7-3.4,7.9c-0.4,0.9-0.8,1.9-1.3,2.9c-0.9,2-1.8,4.1-2.9,6.3c-1,2.2-2.1,4.4-3.3,6.7s-2.4,4.6-3.6,6.8
	c-1.3,2.2-2.6,4.5-3.9,6.6c-0.7,1.1-1.3,2.1-2,3.1c-1,1.5-2.1,2.9-3.1,4.3c-0.7,0.9-1.4,1.8-2.1,2.6c-1.1,1.2-1.9,2.3-2.5,3.3
	c-1.6,2.6-1.5,4.3-0.5,5.4c0.2,0.2,0.3,0.3,0.5,0.5c0.4,0.3,0.9,0.5,1.4,0.7c0.7,0.3,1.5,0.4,2.3,0.5c0.2,0,0.3,0,0.5,0.1
	c1.6,0.2,3.3,0.2,5.1,0.1c0.6,0,1.2-0.1,1.8-0.1c1.7-0.2,3.4-0.4,4.8-0.7c0.2,0,0.3-0.1,0.5-0.1c0.7-0.1,1.4-0.3,1.9-0.4
	c0.1,0,0.2-0.1,0.3-0.1c0.2,0,0.4-0.1,0.5-0.1c0.3-0.1,0.5-0.2,0.6-0.2s0.3-0.2,0.6-0.4c0.3-0.2,0.7-0.4,1.2-0.8
	c1.5-0.9,3.9-2.4,6.6-4c1.8-1.1,3.9-2.3,5.9-3.6c0.5-0.3,1-0.6,1.6-0.9c1.1-0.6,2.1-1.3,3.2-1.9c4.8-2.8,9.4-5.6,12.5-7.3
	c0.7-0.4,1.3-0.7,1.9-1c1.1-0.5,1.8-0.9,2.1-0.9c1.1,0,3.8-1,6.4-2.5c1.3-0.7,2.5-1.6,3.5-2.5c0.2-0.2,0.5-0.5,0.7-0.7
	c0.6-0.7,1-1.5,1.1-2.2c0-0.2,0-0.6,0-1c0-0.2,0-0.4,0-0.7c0-1.2-0.2-2.9-0.5-4.8c-0.6-3.9-1.6-9.1-3.3-14.4
	c-0.3-1.1-0.7-2.1-1.1-3.2s-0.8-2.1-1.2-3.2c-0.7-1.6-1.4-3.1-2.2-4.6s-1.6-2.9-2.5-4.2c-0.9-1.3-1.9-2.6-2.9-3.7
	c-0.3-0.4-0.7-0.7-1.1-1.1l0,0c0,0,0,0-0.1,0c0,0,0,0,0,0.1c0,0,0,0,0,0.1c-0.1,0.3-0.3,0.8-0.7,1.5c-0.3-0.4-0.5-0.7-0.8-1.1
	c-2.3-2.8-3.7-8.3-4.5-15.2c-0.2-1.5-0.3-3.1-0.5-4.7c-0.2-3.3-0.4-6.7-0.4-10.2c0-2.6,0-5.3,0-8c0-1.8,0.1-3.6,0.2-5.3
	c0-0.9,0.1-1.8,0.1-2.6c0.1-1.7,0.2-3.4,0.3-5.1c0.2-2.5,0.4-4.9,0.6-7.2c0.2-1.5,0.3-2.9,0.5-4.3c0.1-0.7,0.2-1.3,0.3-2
	c0.3-1.9,0.5-3.6,0.8-5.1c0.2-1.2,0.3-2.6,0.4-4.1c0-3.9-0.6-8.5-1.6-13.4c-0.6-3-1.4-6.1-2.2-9.2c-0.3-1.2-0.6-2.3-1-3.5
	c-0.7-2.3-1.3-4.5-2-6.7c-0.2-0.7-0.5-1.4-0.7-2.1c-3-9.4-5.9-16.5-5.9-16.5l18-6.7l-3.7,7.4l0,0l0,0c-0.3,0.4-0.5,0.8-0.8,1.1
	c-0.8,1.2-1.4,2.4-2,3.6c-0.8,1.6-1.3,3.2-1.5,4.7c0,0.1,0,0.3,0,0.4v0.1c0,0.1,0,0.3,0,0.5c0,0.1,0,0.1,0,0.2
	c0,0.2,0.1,0.5,0.1,0.7c0,0.1,0,0.1,0,0.2c0,0.2,0.1,0.5,0.1,0.7c0,0.1,0,0.2,0.1,0.3c0.1,0.3,0.1,0.6,0.2,0.9c0,0.1,0,0.1,0,0.2
	c0.1,0.4,0.2,0.8,0.3,1.2c0,0.1,0.1,0.3,0.1,0.4c0.1,0.3,0.2,0.7,0.2,1c0,0.1,0.1,0.3,0.1,0.4c0.1,0.5,0.2,0.9,0.4,1.4
	c0,0.1,0.1,0.2,0.1,0.3c0.1,0.4,0.2,0.9,0.3,1.3c0.1,0.2,0.1,0.4,0.2,0.6c0.1,0.4,0.2,0.8,0.3,1.2c0.1,0.2,0.1,0.4,0.2,0.6
	c0.2,0.6,0.3,1.2,0.5,1.8c0.1,0.2,0.1,0.4,0.2,0.7c0.1,0.4,0.2,0.9,0.4,1.3c0.1,0.3,0.1,0.5,0.2,0.8c0.1,0.5,0.3,1,0.4,1.5
	c0.1,0.2,0.1,0.4,0.2,0.6c0.2,0.6,0.4,1.3,0.6,2c0.1,0.3,0.2,0.7,0.3,1c0.1,0.4,0.2,0.8,0.4,1.2c0.1,0.4,0.2,0.7,0.3,1.1
	s0.3,0.9,0.4,1.4c0.2,0.6,0.4,1.3,0.6,1.9c0.1,0.4,0.2,0.8,0.3,1.2c0.1,0.4,0.3,0.9,0.4,1.3c0.1,0.4,0.2,0.8,0.4,1.2
	c0.1,0.4,0.3,0.9,0.4,1.3c0.2,0.7,0.4,1.5,0.7,2.2c0.2,0.5,0.3,1,0.5,1.6c0.1,0.3,0.2,0.6,0.3,1c0.2,0.6,0.3,1.1,0.5,1.7
	c0.1,0.3,0.2,0.6,0.3,0.8c0.4,1.2,0.7,2.4,1.1,3.7c0,0.1,0.1,0.2,0.1,0.3c0.2,0.6,0.4,1.3,0.6,2c0.1,0.2,0.1,0.5,0.2,0.7
	c0.2,0.6,0.4,1.3,0.6,1.9v30.7l11.7,6.8c0,0,0,0,0-0.1c5,15.8,9.8,31,13.6,43c0,0.1,0.1,0.3,0.1,0.4c0.2,0.7,0.5,1.4,0.7,2.2
	c0,0.1,0.1,0.3,0.1,0.4c0.8,2.5,1.5,4.8,2.2,6.9c0,0.1,0.1,0.2,0.1,0.3c0.2,0.6,0.4,1.2,0.5,1.7c0,0.2,0.1,0.3,0.1,0.5
	c0.2,0.5,0.3,1,0.5,1.4c0.1,0.2,0.1,0.4,0.2,0.5c0.1,0.4,0.3,0.8,0.4,1.2c0.1,0.2,0.1,0.4,0.2,0.6c0.1,0.3,0.2,0.7,0.3,1
	c0.1,0.2,0.1,0.4,0.2,0.6c0.1,0.3,0.2,0.6,0.3,0.9c0.1,0.2,0.1,0.4,0.2,0.6c0.1,0.3,0.2,0.5,0.2,0.8c0.1,0.2,0.1,0.4,0.2,0.5
	c0.1,0.2,0.1,0.4,0.2,0.7c0,0.2,0.1,0.3,0.1,0.5c0.1,0.2,0.1,0.4,0.2,0.6c0,0.1,0.1,0.3,0.1,0.4c0,0.2,0.1,0.3,0.1,0.5
	c0,0.1,0.1,0.2,0.1,0.3c0,0.1,0.1,0.3,0.1,0.4s0,0.2,0.1,0.2c0,0.1,0,0.2,0.1,0.3v0.1c0,0.1,0,0.2,0,0.2c0,0.3-0.2,0.8-0.6,1.6
	c-0.1,0.3-0.3,0.5-0.5,0.8c-0.2,0-0.3,0-0.4,0l0,0c-0.1,0-0.2,0-0.2,0l0,0c0,0-0.2,0.2-0.5,0.7c-0.1,0.1-0.2,0.2-0.3,0.4
	c-0.3,0.4-0.6,0.9-1.1,1.5l0,0l0,0l0,0l0,0c0,0-2.3,3.2-5.4,7.6c-1,1.3-2,2.7-3.1,4.2c-0.3,0.4-0.6,0.8-0.9,1.3
	c-1.1,1.5-2.2,3-3.3,4.5c0,0,0,0,0,0.1c-0.1,0.1-0.3,0.3-0.4,0.4c-0.1,0.1-0.1,0.2-0.2,0.2c-0.1,0.1-0.2,0.2-0.2,0.3
	c-0.1,0.1-0.2,0.2-0.2,0.3c0,0.1-0.1,0.1-0.1,0.2c-0.1,0.2-0.2,0.4-0.3,0.5c-0.1,0.3-0.2,0.6-0.4,0.8c0,0.1-0.1,0.2-0.1,0.3
	c-0.7,1-1.4,1.9-2,2.8c-0.2,0.3-0.5,0.6-0.7,0.9c-0.5,0.7-1,1.4-1.4,2c-0.3,0.4-0.6,0.8-0.9,1.2c-0.3,0.4-0.6,0.9-0.9,1.3
	c-2.1,2.8-4.5,5.4-6.8,7.9c-0.7,0.8-1.4,1.5-2,2.2c-0.9,1-1.7,2-2.4,3c-0.4,0.5-0.7,1-1.1,1.5c-0.5,0.8-0.9,1.5-1.3,2.3
	c-1.3,2.6-1.9,5.4-1.2,8.5c0.7,3.4,4.8,4.5,10,4.4c1.9,0,4-0.2,6-0.5c0.5-0.1,1-0.2,1.6-0.3c8.4-1.5,16.9-4.5,18.4-6
	c0.6-0.6,2.3-1.8,4.6-3.1c0.7-0.4,1.4-0.8,2.1-1.3c1.1-0.7,2.3-1.3,3.5-2.1c2.1-1.2,4.3-2.4,6.4-3.7c0.9-0.5,1.7-1,2.6-1.5
	c5.5-3.2,10.3-6,11.5-7.2c0.5-0.5,0.8-1.2,0.9-2c0.1-0.5,0.2-1.1,0.2-1.7c0-0.2,0-0.4,0-0.6c0-0.4,0-0.9,0-1.4
	c-0.1-1.2-0.2-2.4-0.5-3.7c-0.1-0.5-0.2-1-0.3-1.5s-0.2-1-0.4-1.5c-0.1-0.5-0.3-1-0.4-1.5c-0.1-0.5-0.3-0.9-0.4-1.4
	c-0.3-0.9-0.6-1.7-0.9-2.4c-0.1-0.2-0.2-0.3-0.2-0.5c-0.1-0.3-0.3-0.6-0.4-0.9c-0.1-0.1-0.1-0.3-0.2-0.4c-1.4-2.2-3.3-11.5-5.4-16.9
	c-0.4-1.1-0.8-2-1.3-2.7c-0.2-0.3-0.4-0.6-0.6-0.8c-0.6-0.6-1.3-0.7-1.9,0.2c-0.1,0.2-0.2,0.3-0.4,0.5l-0.1,0.1
	c-0.1,0.1-0.2,0.2-0.3,0.3l-0.1,0.1c0.2-0.1,0.3-0.3,0.4-0.4c-0.4-0.8-0.6-1.2-0.6-1.2s0,0,0-0.1v-0.1c0,0,0-0.1,0-0.2s0-0.2,0-0.2
	v-0.1c0-0.1,0-0.2,0-0.4v-0.1c-0.3-5.3-1.3-26.7,0.9-42.5l0,0l52.9,31l103.1-58.5v-130.3l0,0l-103.1,61l103.1-61l-71.3-40.1l0.7,9.4
	l0.5,6.3l-3.1-41.1l0,0l0.6-0.5c1.2-0.7,2.3-1.4,3.4-2.1c2.1-1.4,4-2.9,5.6-4.4c0.8-0.8,1.6-1.5,2.2-2.3c0.3-0.4,0.7-0.8,1-1.2
	c1.9-2.5,3.3-5.1,4.4-8c0.2-0.5,0.3-1,0.5-1.5c0.8-2.5,1.3-5.1,1.6-8c0.1-1.2,0.2-2.3,0.3-3.6c0.1-1.2,0.1-2.5,0.1-3.8
	c0-4.6-0.3-9.6-0.7-15.3c0.2-2.8,0.4-5.5,0.5-8.3c0.6-0.3,1.1-0.7,1.7-1.1c0.1,0,0.1-0.1,0.2-0.1c0.5-0.3,0.9-0.6,1.3-0.9
	c0.1-0.1,0.2-0.1,0.3-0.2c0.4-0.3,0.8-0.6,1.2-0.9c0.1-0.1,0.2-0.1,0.2-0.2c0.9-0.7,1.7-1.5,2.5-2.2l0.1-0.1c0.3-0.3,0.7-0.7,1-1
	c0.1-0.1,0.1-0.1,0.2-0.2c0.3-0.3,0.6-0.6,0.8-0.9l0.1-0.1c0.6-0.7,1.1-1.4,1.6-2c0,0,0-0.1,0.1-0.1c0.2-0.3,0.4-0.5,0.6-0.8
	c0-0.1,0.1-0.1,0.1-0.2c0.2-0.2,0.3-0.4,0.4-0.6l0.1-0.1c0.3-0.5,0.6-0.9,0.7-1.2v-0.1c0.1-0.1,0.1-0.2,0.2-0.3v-0.1
	c0-0.1,0.1-0.1,0.1-0.2l0,0v-0.1l0,0l0,0c-3.9-3.2-6.2-9.5-8-17c-2.7-10.9-4.4-24.5-8.4-34.8c-0.2-0.6-0.5-1.1-0.7-1.6l0,0
	c-0.3-0.5-0.6-1-0.9-1.4c0,0,0,0-0.1-0.1c-0.3-0.4-0.7-0.8-1.1-1.2l-0.1-0.1c-0.4-0.4-0.8-0.7-1.2-1.1l-0.1-0.1
	c-0.4-0.3-0.9-0.6-1.3-0.9c0,0-0.1-0.1-0.2-0.1c-0.5-0.3-1-0.6-1.5-0.8c-0.1,0-0.1-0.1-0.2-0.1c-0.5-0.3-1-0.5-1.6-0.7
	c-0.1,0-0.1-0.1-0.2-0.1c-0.5-0.2-1.1-0.4-1.7-0.6c-0.1,0-0.1,0-0.2-0.1c-0.6-0.2-1.2-0.4-1.7-0.5c-0.1,0-0.1,0-0.2-0.1
	c-0.6-0.2-1.2-0.3-1.8-0.4c-0.1,0-0.1,0-0.2,0c-0.6-0.1-1.3-0.2-1.9-0.3c-0.1,0-0.1,0-0.2,0c-0.6-0.1-1.3-0.2-2-0.3
	c-0.1,0-0.1,0-0.2,0c-0.7-0.1-1.3-0.1-2-0.2c-0.1,0-0.1,0-0.2,0c-0.7-0.1-1.4-0.1-2.1-0.1h-0.1c-0.7,0-1.4-0.1-2.1-0.1
	c0,0,0,0-0.1,0C989.2,1179.4,988.4,1179.4,987.7,1179.4z M900.2,1599.1c0.2,0.1,0.4,0.2,0.6,0.3c0.6,0.3,1.1,0.6,1.6,0.9l0,0
	C901.8,1599.9,901,1599.5,900.2,1599.1z M915.7,1584.1C915.7,1584,915.7,1584,915.7,1584.1c0,0-0.1,0-0.1,0.1c0,0,0,0-0.1,0.1
	C915.5,1584.2,915.6,1584.1,915.7,1584.1z M908.9,1589.8L908.9,1589.8L908.9,1589.8L908.9,1589.8L908.9,1589.8z M867.5,1371.1
	L867.5,1371.1L867.5,1371.1L867.5,1371.1L867.5,1371.1z M904.7,1447.8L904.7,1447.8c0,0,0,0.1,0,0.2l0,0
	C904.7,1448,904.7,1447.9,904.7,1447.8z M891.4,1372C891.4,1372,891.4,1372.1,891.4,1372C891.4,1372.1,891.4,1372,891.4,1372
	L891.4,1372z M905.2,1587L905.2,1587c0.3,0,0.5,0,0.8-0.1C905.7,1587,905.5,1587,905.2,1587z M902,1587.2c0.3,0,0.5,0,0.8,0
	C902.5,1587.2,902.3,1587.2,902,1587.2L902,1587.2L902,1587.2z M971,1129.4c0.1,0,0.2,0.1,0.3,0.1
	C971.2,1129.5,971.1,1129.5,971,1129.4s-0.3-0.1-0.4-0.2C970.8,1129.3,970.9,1129.4,971,1129.4z M868.6,1373.3L868.6,1373.3
	L868.6,1373.3L868.6,1373.3L868.6,1373.3z M868.6,1373.3L868.6,1373.3L868.6,1373.3L868.6,1373.3L868.6,1373.3z M951.1,1422.1
	L951.1,1422.1L951.1,1422.1L951.1,1422.1z M918,1530c-0.1,0.3-0.1,0.5-0.2,0.8l0,0C917.9,1530.5,918,1530.2,918,1530
	C918.1,1530,918,1530,918,1530z M978.3,1129.1c0.2-0.1,0.4-0.2,0.6-0.4l0,0l0,0c-0.2,0.1-0.3,0.2-0.5,0.3
	C978.4,1129,978.3,1129.1,978.3,1129.1z M916.8,1536c-0.1,0.9-0.3,1.7-0.4,2.7l0,0c0-0.2,0-0.3,0.1-0.5
	C916.6,1537.4,916.7,1536.7,916.8,1536z M917.2,1533.5L917.2,1533.5L917.2,1533.5L917.2,1533.5L917.2,1533.5z M906.3,1587
	c-0.1,0-0.2,0-0.3,0C906.1,1587,906.2,1587,906.3,1587L906.3,1587z M904.2,1587.1c0.3,0,0.7,0,1-0.1l0,0l0,0
	C904.8,1587.1,904.5,1587.1,904.2,1587.1z M891.4,1372.1c0,0.1,0,0.2,0.1,0.3l0,0l0,0C891.5,1372.3,891.4,1372.2,891.4,1372.1z
	 M913.1,1429.6L913.1,1429.6L913.1,1429.6L913.1,1429.6L913.1,1429.6z M911.1,1428.8L911.1,1428.8L911.1,1428.8L911.1,1428.8
	L911.1,1428.8z M910.1,1428.5L910.1,1428.5L910.1,1428.5L910.1,1428.5L910.1,1428.5z M904.9,1383.9L904.9,1383.9
	C904.9,1383.9,904.8,1383.9,904.9,1383.9c-0.3,0.1-0.5,0.1-0.7,0.1C904.4,1384,904.6,1384,904.9,1383.9z M916.8,1380
	c0.1,0,0.1-0.1,0.2-0.1l0,0C917,1379.9,916.9,1379.9,916.8,1380L916.8,1380L916.8,1380z M917.6,1379.5L917.6,1379.5L917.6,1379.5
	c-0.1,0.1-0.2,0.1-0.3,0.2c0,0,0,0-0.1,0c0,0,0,0,0.1,0C917.4,1379.6,917.5,1379.5,917.6,1379.5z M907.3,1358.7
	c-0.1,0.1-0.2,0.1-0.3,0.2l0,0C907.1,1358.8,907.2,1358.8,907.3,1358.7z M906.7,1383.5L906.7,1383.5c0.1,0,0.1,0,0.2,0
	C906.8,1383.5,906.7,1383.5,906.7,1383.5z M905.1,1359.9L905.1,1359.9c0.4-0.2,0.7-0.4,1.1-0.6
	C905.9,1359.5,905.5,1359.7,905.1,1359.9z M903.6,1360.6c0.4-0.2,0.8-0.4,1.2-0.6l0,0l0,0C904.4,1360.3,904,1360.5,903.6,1360.6
	L903.6,1360.6z M908.6,1358c0.5-0.3,1-0.6,1.5-0.8l0,0c0.3-0.2,0.7-0.4,1-0.6l0,0C910.2,1357.1,909.4,1357.6,908.6,1358L908.6,1358z
	 M919.8,1378.1L919.8,1378.1L919.8,1378.1c-0.2,0.1-0.3,0.2-0.5,0.3c-0.1,0.1-0.2,0.1-0.3,0.2c0.1-0.1,0.2-0.1,0.3-0.2
	C919.5,1378.3,919.6,1378.2,919.8,1378.1z M918.6,1378.8L918.6,1378.8c0.1-0.1,0.3-0.2,0.4-0.2
	C918.9,1378.7,918.7,1378.7,918.6,1378.8L918.6,1378.8z M914,1429.9L914,1429.9L914,1429.9L914,1429.9L914,1429.9z M930.9,1184.6
	L930.9,1184.6L930.9,1184.6L930.9,1184.6L930.9,1184.6z M927.4,1434.5C927.5,1434.5,927.5,1434.5,927.4,1434.5
	C927.5,1434.5,927.5,1434.5,927.4,1434.5C927.5,1434.5,927.5,1434.5,927.4,1434.5L927.4,1434.5z M906.2,1383.7c0.1,0,0.2,0,0.3-0.1
	c0,0,0,0,0.1,0h0.1C906.5,1383.6,906.3,1383.6,906.2,1383.7z M929.8,1435.3L929.8,1435.3L929.8,1435.3L929.8,1435.3L929.8,1435.3z
	 M901.4,1373.1C901.4,1373.1,901.4,1373.2,901.4,1373.1C901.4,1373.2,901.4,1373.1,901.4,1373.1L901.4,1373.1L901.4,1373.1z
	 M899.2,1373.6c0.3,0,0.6-0.1,0.9-0.1H900C899.7,1373.5,899.4,1373.5,899.2,1373.6L899.2,1373.6z M929.1,1435.1L929.1,1435.1
	L929.1,1435.1L929.1,1435.1L929.1,1435.1z M904.9,1383.9c0.1,0,0.2,0,0.3-0.1l0,0C905.1,1383.9,905,1383.9,904.9,1383.9z
	 M905.6,1383.8C905.6,1383.8,905.7,1383.8,905.6,1383.8c0.1,0,0.1,0,0.1,0c-0.2,0-0.3,0.1-0.5,0.1
	C905.3,1383.8,905.5,1383.8,905.6,1383.8z M905.8,1383.7C905.8,1383.8,905.8,1383.8,905.8,1383.7
	C905.7,1383.8,905.7,1383.8,905.8,1383.7C905.8,1383.8,905.8,1383.8,905.8,1383.7c0.1,0,0.2-0.1,0.4-0.1l0,0
	C906.1,1383.7,905.9,1383.7,905.8,1383.7z M918.7,1447.2L918.7,1447.2L918.7,1447.2L918.7,1447.2L918.7,1447.2L918.7,1447.2z
	 M918.7,1447.2L918.7,1447.2L918.7,1447.2L918.7,1447.2z M918.7,1447.2L918.7,1447.2L918.7,1447.2L918.7,1447.2L918.7,1447.2
	L918.7,1447.2z M908.1,1427.7L908.1,1427.7L908.1,1427.7L908.1,1427.7L908.1,1427.7z M895,1363.7c0.3-0.1,0.6-0.1,0.9-0.2
	C895.6,1363.6,895.3,1363.7,895,1363.7L895,1363.7z M896.5,1363.4c0.1,0,0.3-0.1,0.4-0.1C896.8,1363.3,896.6,1363.3,896.5,1363.4
	L896.5,1363.4z M936.9,1178c0.2,0,0.5-0.1,0.7-0.1c0.7-0.1,1.2-0.3,1.7-0.4c0.5-0.2,0.9-0.3,1.2-0.5c0.2-0.1,0.4-0.2,0.4-0.4
	c0-0.1,0.1-0.1,0.1-0.2s0.1-0.3,0.2-0.4c0.1-0.2,0.3-0.4,0.5-0.6c-0.5,0.1-0.9,0.2-1.4,0.3s-0.9,0.2-1.3,0.2c-0.2,0-0.4,0.1-0.6,0.1
	c-0.6,0.1-1.1,0.2-1.5,0.2c-1.2,0.1-1.8,0.2-1.8,0.2l0,0l0,0c-0.2,0-1.1-0.1-2.4-0.4c0,0.1-0.1,0.2-0.1,0.3c0,0.1,0,0.1-0.1,0.2
	c-0.2,0.6-0.4,1.3-0.7,2.1C933.8,1178.5,935.5,1178.3,936.9,1178z M930.7,1188.6L930.7,1188.6
	C930.7,1188.6,930.7,1188.5,930.7,1188.6C930.7,1188.5,930.7,1188.5,930.7,1188.6L930.7,1188.6
	C930.7,1188.5,930.7,1188.5,930.7,1188.6z M918.3,1351.8L918.3,1351.8L918.3,1351.8L918.3,1351.8L918.3,1351.8L918.3,1351.8z
	 M900.3,1362L900.3,1362C900.3,1362.1,900.3,1362.1,900.3,1362C900.3,1362.1,900.3,1362.1,900.3,1362
	C900.3,1362.1,900.3,1362.1,900.3,1362z M901.6,1361.5c0.5-0.2,1-0.4,1.5-0.7l0,0l0,0C902.6,1361.1,902.1,1361.3,901.6,1361.5
	L901.6,1361.5z M918.5,1447.3c-0.1,0.1-0.2,0.2-0.3,0.3C918.3,1447.5,918.4,1447.4,918.5,1447.3L918.5,1447.3z M918.3,1351.8
	L918.3,1351.8L918.3,1351.8L918.3,1351.8L918.3,1351.8z M931,1183.4L931,1183.4L931,1183.4L931,1183.4
	C931,1183.5,931,1183.4,931,1183.4z M931.4,1181.4c0,0.1,0,0.1,0,0.2C931.3,1181.5,931.3,1181.5,931.4,1181.4L931.4,1181.4z
	 M931.6,1180.3v-0.1l0,0C931.6,1180.2,931.6,1180.3,931.6,1180.3z M932,1178.7L932,1178.7L932,1178.7L932,1178.7L932,1178.7
	L932,1178.7z M931.7,1179.8C931.7,1179.8,931.7,1179.7,931.7,1179.8C931.7,1179.7,931.7,1179.8,931.7,1179.8L931.7,1179.8z
	 M931.3,1181.7C931.3,1181.6,931.3,1181.6,931.3,1181.7C931.3,1181.6,931.3,1181.6,931.3,1181.7
	C931.3,1181.6,931.3,1181.6,931.3,1181.7z M919.2,1446.8L919.2,1446.8c-0.1,0.1-0.2,0.2-0.3,0.2C918.9,1447,919,1447,919.2,1446.8
	C919.1,1446.9,919.2,1446.9,919.2,1446.8L919.2,1446.8z M918.5,1447.3L918.5,1447.3L918.5,1447.3L918.5,1447.3L918.5,1447.3
	L918.5,1447.3z M919.3,1446.7L919.3,1446.7C919.3,1446.8,919.3,1446.8,919.3,1446.7c-0.1,0.1-0.1,0.1-0.1,0.1l0,0l0,0l0,0l0,0l0,0
	C919.2,1446.8,919.2,1446.8,919.3,1446.7C919.3,1446.8,919.3,1446.8,919.3,1446.7z M919.3,1446.7L919.3,1446.7L919.3,1446.7
	L919.3,1446.7C919.3,1446.8,919.3,1446.8,919.3,1446.7C919.3,1446.8,919.3,1446.7,919.3,1446.7L919.3,1446.7L919.3,1446.7z
	 M918.5,1447.3L918.5,1447.3L918.5,1447.3L918.5,1447.3L918.5,1447.3z M918.5,1447.3L918.5,1447.3L918.5,1447.3L918.5,1447.3
	L918.5,1447.3z M931.9,1436L931.9,1436L931.9,1436L931.9,1436L931.9,1436L931.9,1436L931.9,1436z M929.7,1371.2
	c-0.1,0-0.1,0.1-0.2,0.1c-0.2,0.1-0.4,0.3-0.6,0.4c0.2-0.1,0.4-0.3,0.6-0.4C929.6,1371.2,929.7,1371.2,929.7,1371.2z M928.4,1372.2
	c-0.2,0.1-0.3,0.2-0.5,0.4C928,1372.4,928.2,1372.3,928.4,1372.2c0.2-0.2,0.4-0.3,0.6-0.5C928.8,1371.8,928.6,1372,928.4,1372.2
	C928.4,1372.1,928.4,1372.2,928.4,1372.2z M930.2,1370.8L930.2,1370.8c0.2-0.2,0.4-0.3,0.6-0.4c0,0,0.1,0,0.1-0.1l0,0l-0.1,0.1
	C930.6,1370.5,930.4,1370.7,930.2,1370.8L930.2,1370.8z M925.5,1374.2c0.2-0.1,0.4-0.3,0.6-0.4c0.1-0.1,0.3-0.2,0.5-0.3l0,0
	c-0.1,0.1-0.3,0.2-0.4,0.3C925.9,1373.9,925.7,1374.1,925.5,1374.2z M920.1,1446.2L920.1,1446.2c-0.2,0.2-0.5,0.3-0.7,0.5l0,0l0,0
	c0.1-0.1,0.3-0.2,0.4-0.3C919.9,1446.3,920,1446.3,920.1,1446.2z M930.1,1437.9L930.1,1437.9L930.1,1437.9L930.1,1437.9
	L930.1,1437.9z"></path>
<path id="color_x5F_11" fill="#FFFFFF" d="M849,1569.1c-2.8-0.7-7.3-1.2-14.4-1.3c1.2-3.8,2.4-7.3,3.4-10.1c0.6-1.3,1-2.1,1.1-2.1
	c8.9-0.3,14.1-2.1,17.3-4c-1.9,5.3-5.3,13.1-8.7,20.3C848.2,1571,848.6,1570,849,1569.1z M826.8,1596.9c1.3,3.6,10.7-3.2,11.3-5
	c0.3-0.8,4.9-10,9.5-20c-1.3,2.8-2.6,5.6-3.8,8.1c-3.9-0.6-9.2,0.3-13.5,1.3C828,1589,826.3,1595.6,826.8,1596.9z M902.5,1600.3
	c2.8-4.1,5.5-8.7,8.1-13.5c-4.6,3-12.4,2.9-13.4,2.8c0,0-6.4,8.9-12.7,17.5c0.6-0.7,1.3-1.4,1.6-2.2c2.3-3.1,4.6-6.2,6.7-9
	C896.1,1597,899.6,1598.8,902.5,1600.3z M877.6,1625.2c1.2,1.7,8.2-3.6,16.5-13.6c-2.9-1.6-8.4-2.3-11.2-2.5
	C879.5,1616.9,876.7,1623.9,877.6,1625.2z M481.5,483l23.1-13.3v176.7l-153,88.3V558l30-17.3l0.1,103.2l99.9-57.6V483H481.5z
	 M806,440.1L674.6,517v52.2l168.9-96.6l-35-34L806,440.1z M931.9,1436c-4.6,5.3-10.9,9.5-13.9,11.8c0,0-41.5-1.9-59.6-25.3l8.8-17.5
	C871.8,1415.5,912.7,1429.9,931.9,1436z M867.1,1405l9.5-17.8c0,0-9.8-14.9-15.5-31.3l-11.8,5.4C846.7,1385.9,867.1,1405,867.1,1405
	z"></path>
<path id="color_x5F_10" fill="#91CE9F" d="M398.7,963.7l101.5,60.1v125.9L398.7,1092V963.7z M1072.3,1380.8l-103.1,61v127.8
	l103.1-58.5V1380.8z"></path>
<path id="color_x5F_9" fill="#C1E2CC" d="M597,508.3v119.6l480.5-274.7V234.4L597,508.3z M1053.6,352.5L843.5,472.6l-168.9,96.6V517
	L806,440.1l247.6-144.9V352.5z M1055.9,216.7l9.9-5.7c3.2-1.9,7.3,0.5,7.3,4.2v11.4c0,1.7-0.9,3.3-2.4,4.2l-9.9,5.7
	c-3.2,1.9-7.3-0.5-7.3-4.2v-11.4C1053.4,219.2,1054.4,217.5,1055.9,216.7z M585.1,964.1l-85,51.1l-86.4-51.1l6.4-3.6
	c11.1,5.8,24.2,9.8,37.6,11.5c9.6,15.3,22.9,29.5,37.1,33.3c22.4,6,55.6-27.7,68.7-42.6c1.9-2.2,3.8-4.4,5.5-6.7L585.1,964.1z
	 M1057.1,1381.2l-87.7,51.9l-18.3-11c52.3-44.4,43.1-61.1,43.1-61.1c0.1-1,0-2-0.2-2.9c-0.1,0-0.2,0-0.3,0.1c5.4-1,8.6-1.8,8.6-1.8
	l-0.5-6.3L1057.1,1381.2z"></path>
<path id="color_x5F_8" fill="#BEDDED" d="M645.7,693.9v332.4L1077.5,777V444.6L645.7,693.9z M1051,771.9L672.2,990.6V699L1051,480.3
	V771.9z"></path>
<path id="color_x5F_7" fill="#1493BC" d="M645.7,693.9v332.4l-32-18.6V675.3L1045.6,426l32,18.6L645.7,693.9z M1025.3,870.3
	L820.2,988.7l-54.7-31.6l-7.5,4.3l62.1,35.9l205.1-118.4L1025.3,870.3z M965.4,1182.9c0,0,0.1,0.1,0.2,0.1c0.7-1,1-1.6,1-1.6
	s10-1.9,21.1-1.9l377.7-218.1v-18.2l-401.9,232C963.6,1178.8,964.1,1181.8,965.4,1182.9z M901.1,1181.6c1.3-1.8,3.6-3.2,6.4-4.1
	l-189.8-109.6v18.2l179,103.3C898.5,1185.9,900.1,1183.1,901.1,1181.6z"></path>
<path id="color_x5F_6" fill="#DEF1F8" d="M1051,480.3v291.6L672.2,990.6V699L1051,480.3z M1562.3,722.8l-1.6-12.1
	c0,0,47.1-22.1,80-21c0,0,3.5,3.3,10,10.8c0,0,4.3,16-7.8,25.9c-4.7,3.9-6.2,9.4-6.3,14.6c-14.8,0.1-49.6,2.1-67,16.6
	C1562.1,734.3,1562.3,722.8,1562.3,722.8L1562.3,722.8z"></path>
<path id="color_x5F_5" fill="#FFD2BB" d="M854.6,1430.8c0.4-3,2.2-6.4,4.3-9.4l-0.5,1c11.5,14.8,32.4,21,46.2,23.6
	c0,2.4,0.8,6.1,3.3,12c5.8,13.6,15.8,54,10.6,70.7c-5.2,16.6-2.8,53.6-2.8,53.6s0.2,0.5,0.6,1.2c-3.6,3.8-13.7,3.7-16.5,3.5
	c0.7-1.2,1.1-2.1,1-2.4C900.5,1581.5,853.6,1438.6,854.6,1430.8z M804.3,1414.6c-0.3,6.9,28.7,120.5,33.9,142.7
	c0.5-1.1,0.8-1.7,0.9-1.7c8.9-0.3,14.1-2.1,17.3-4c-0.2,0.6-0.4,1.2-0.7,1.8c0.2-0.6,0.4-1.1,0.6-1.7c2.7-1.7,3.9-3.5,4.6-4.8
	c-0.3-0.4-0.5-0.7-0.8-1.1c-8.1-10-5.5-54.1-2.6-69.7s-13-55.4-13-55.4l18-6.7l4.5-9.1c0,0-14.4-13.5-17.5-32.4
	c-5.8,3.2-10.9,5.7-14.5,6.7C818.3,1384.2,804.6,1407.2,804.3,1414.6z M895.4,1367.6c0,0-3.6,2.3-4,4c0,0.1,0,0.3,0,0.4
	c0.1,0.4,0.4,0.8,1.1,1.1c0.9,0.4,1.9,0.5,2.9,0.6c1.8,0.1,3.5-0.1,4.7-0.3c0.8-0.2,1.3-0.3,1.3-0.3s-4.4,2.8-4.3,4.6
	c0,0.4,0.3,0.8,0.9,1.1c3.2,1.5,7.8,0,7.8,0s-4.2,4.5-2.6,5.2c0.2,0.1,0.6,0.1,1,0c0.5,0,1-0.2,1.7-0.3c0.3-0.1,0.6-0.2,1-0.2
	c3.8-1,9-2.9,9-2.9s0.1-0.1,0.2-0.1l0,0c0.1,0,0.2-0.1,0.2-0.2c0,0,0,0,0.1,0c0.1-0.1,0.2-0.1,0.3-0.2l0.1-0.1
	c0.1-0.1,0.2-0.1,0.3-0.2c0.1,0,0.1-0.1,0.2-0.1c0.1-0.1,0.2-0.1,0.3-0.2s0.2-0.1,0.3-0.2s0.2-0.1,0.4-0.2c0.1-0.1,0.2-0.1,0.3-0.2
	s0.3-0.2,0.4-0.3c0.1-0.1,0.2-0.1,0.3-0.2c0.2-0.1,0.3-0.2,0.5-0.3c0.1-0.1,0.2-0.1,0.3-0.2c0.2-0.1,0.4-0.3,0.7-0.4
	c0.2-0.1,0.4-0.2,0.6-0.4c0.2-0.1,0.4-0.2,0.6-0.4c0.1-0.1,0.3-0.2,0.4-0.3c0.2-0.1,0.4-0.2,0.5-0.4c0.2-0.1,0.3-0.2,0.5-0.3
	c0.2-0.1,0.4-0.2,0.5-0.4c0.2-0.1,0.3-0.2,0.5-0.4c0.2-0.1,0.4-0.3,0.6-0.4c0.2-0.1,0.4-0.3,0.5-0.4c0.2-0.1,0.4-0.3,0.6-0.4
	c0.2-0.1,0.4-0.3,0.6-0.4c0.2-0.1,0.4-0.3,0.6-0.4c0.2-0.1,0.4-0.3,0.6-0.4c0.2-0.1,0.4-0.3,0.5-0.4c0.2-0.2,0.4-0.3,0.6-0.5
	c0.2-0.1,0.4-0.3,0.6-0.4c0.2-0.2,0.4-0.3,0.6-0.5c0.2-0.1,0.4-0.3,0.6-0.5c0.2-0.2,0.4-0.3,0.6-0.5c0.2-0.2,0.4-0.3,0.6-0.5
	c0.4-0.3,0.8-0.6,1.2-0.9c0.2-0.1,0.4-0.3,0.6-0.4c0.2-0.2,0.4-0.3,0.7-0.5c0.2-0.2,0.4-0.3,0.6-0.5c0.2-0.2,0.4-0.3,0.6-0.5
	c0.2-0.2,0.4-0.3,0.6-0.5c0.2-0.2,0.4-0.3,0.6-0.5c0.2-0.2,0.4-0.3,0.6-0.5c0.2-0.2,0.4-0.4,0.6-0.5c0.2-0.2,0.4-0.3,0.6-0.5
	c0.2-0.2,0.4-0.4,0.6-0.5c0.2-0.2,0.4-0.3,0.6-0.5c0.2-0.2,0.4-0.4,0.6-0.5c0.2-0.2,0.4-0.3,0.6-0.5c0.2-0.2,0.4-0.4,0.6-0.5
	c0.2-0.2,0.4-0.4,0.6-0.5c0.2-0.2,0.4-0.4,0.6-0.5c0.2-0.2,0.4-0.4,0.6-0.6c0.2-0.2,0.3-0.3,0.5-0.5c1.1-1.1,2.1-2.2,3.1-3.3
	c10-11.8,46.8-36.4,46.8-36.4l5.4-4.3l0,0l0.6-0.5c19-11.1,20.4-24.2,18.3-50.2c0.2-2.8,0.4-5.5,0.5-8.3c-5.7,3.4-13.4,5.8-23.4,5.3
	l1.5,20.1c-2,2.7-3.3,4.5-3.3,4.5l1-0.3l-58.7,54.8c0,0-20.7,0.3-22.2-1.1c-1.5-1.5-2.4,5.8,4.2,7.9l4.5,1.5c0,0-1.5,1.2-4,3l0,0
	l0,0l0,0l0,0c-0.7,0.5-1.5,1-2.3,1.6l-0.1,0.1c-0.4,0.3-0.8,0.5-1.2,0.8c-0.1,0-0.1,0.1-0.1,0.1c-0.4,0.3-0.9,0.6-1.3,0.9
	c-0.1,0-0.1,0.1-0.2,0.1c-0.4,0.2-0.8,0.5-1.2,0.7c-0.1,0.1-0.2,0.1-0.3,0.2c-0.5,0.3-0.9,0.6-1.4,0.9l0,0c-0.5,0.3-1,0.6-1.5,0.8
	c-0.1,0.1-0.3,0.2-0.4,0.2c-0.4,0.2-0.8,0.4-1.2,0.6c-0.1,0.1-0.2,0.1-0.4,0.2c-0.5,0.3-1,0.5-1.5,0.8c-0.1,0.1-0.2,0.1-0.4,0.2
	c-0.4,0.2-0.8,0.4-1.2,0.6c-0.2,0.1-0.3,0.1-0.5,0.2c-0.5,0.2-1,0.5-1.5,0.7c0,0,0,0-0.1,0c-0.5,0.2-1,0.4-1.5,0.6
	c-0.1,0.1-0.3,0.1-0.4,0.2c-0.4,0.2-0.8,0.3-1.2,0.4c-0.1,0-0.2,0.1-0.4,0.1c-0.5,0.2-1,0.3-1.5,0.5c-0.1,0-0.2,0.1-0.3,0.1
	c-0.4,0.1-0.8,0.2-1.2,0.3c-0.1,0-0.3,0.1-0.4,0.1c-0.5,0.1-1,0.2-1.5,0.3C881,1365.7,895.4,1367.6,895.4,1367.6z M791.8,1373.6
	c0,0-2.2,7.3,1.7,8.1c3.9,0.8,1.5,3.2,3.7,6s8.2-8.9,8.2-8.9l14-18.2c0,0-1.1,16.4,6.9,14.3c0,0-1.1-12.7,4.3-16.6
	c4.1-2.9,49.7-33,71.9-47.5l9.4-52.1c0,0-9-1.6-18.1-5.4c-1.5,16.9-2.5,30.6-2.5,30.6l-69.9,52.7c0,0-32.2,25.9-31.5,32.4
	C790.5,1375.5,791.8,1373.6,791.8,1373.6z M904.8,1122.2c-0.3,3.4-0.3,7.1-0.1,11.1c2.6,41.8,30.5,43.1,30.5,43.1s2.7-0.1,6.6-1
	c-0.4,0.4-0.6,0.8-0.7,1c-0.4,1.1-4.3,1.8-9.1,2.3c-1.7,6.3-3.8,19.1,8.4,19.8c13.2,0.7,22.2-11,25.1-15.4c-0.1,0-0.1-0.1-0.2-0.1
	c-3.1-2.6-1.7-15-0.7-21.7c2.8-4,4.9-9.1,5.6-15.6c0,0,16.9-10.4,12-18.8c-0.3-0.6-0.7-1.1-1-1.5c-0.7,1.6-1.5,2.8-2.4,3.4
	c-4.9,3.5-8.9,0-8.9,0c1.1,5-6.9,10.6-6.9,10.6c3.9-15.4-3.1-32.2-3.1-32.2c-41.4,15.6-48-7.2-48-7.2c-0.1,0.1-0.2,0.2-0.3,0.2
	c-1,1.5-1.9,3.3-2.7,5.1C907.3,1109.9,905.9,1116.5,904.8,1122.2z M1509,1026.3c6-2.1,20.7-21,28.8-40.8
	c8.1-19.8,20.1-28.2,33.6-38.1c6.8-5,10.2-10.8,12-15.4c-0.1-1.5-0.2-2.4-0.2-2.4s-0.7-3.7-2-9.6c4.1-2.3,8.9-5.4,14.3-9.5
	c21.8-16.6,27.5-0.9,37.6,2.8c-2.3,8.7-4.9,16-7.7,20.6c-5.4,8.9-9.6,13.6-12.7,16c-0.1,8-0.3,14.1-0.3,14.1l1.5,71
	c0,0,1,58,0.9,61.3s2.9,6.4,3.3,9.8c0.3,3.4,28.1,26.7,31.7,30.7c3.6,3.9,0.6,10.3,0.6,10.3s-16,10-29.9-3.3s-19.9-12.1-28.2-15.2
	c-8.3-3-7.6-7.8-7.6-13.7c0-6,4.6-18.2,6.1-21.9s-1-16.6-1-16.6c1.5-8.3-9.9-52.3-12.1-58.7c-1.3-3.7-1.5-17.6-0.4-30.5
	c-12.7,14.6-48.8,43-50.8,49.1c-2.4,7.2-0.9,28.5,6.6,38.7s6.9,21.9,6.9,21.9c-29.7,7.8-39-23.4-42.6-32.7
	c-3.6-9.3-9.6-1.8-13.2-17.4C1480.2,1031.4,1503,1028.4,1509,1026.3z M1642.1,765.8c13.7,13.4,35,34.5,35.1,37.3
	c0.1,4,15.9,19.8,15.9,19.8s9,11.8,11.4,11.1s-1.8-6.9-1.8-6.9s4.3,4,7.2,4.6s-3.9-7.9-3.9-7.9s7.6,3.9,10.2,3.9s-3.3-6.3-3.3-6.3
	c7.2,1.8,10.9-0.1,6-1.9c-4.9-1.8-21-17.4-21-17.4c13,1.8,14.1-6.3,11.4-5.4s-19.8-2.7-19.8-2.7s-19-24.1-21.1-31.8
	c-1.5-5.5-17.4-24.5-26.3-35c-10.8,10.2-2.2,29.8-2.2,29.8L1642.1,765.8z M1570.4,794.8c-1.9,3.3-3.7,6.8-4.4,11
	c-0.6,3.5-1.4,8.2-2,13.8c51.9,27.9,83-5,83-5l0.4,1.7c0-0.3,0-0.4,0-0.4s0.3-13.9-1.7-27.3c-3.7,4.9-13.8,15.7-31.8,17.8
	C1591,809.1,1576.9,807.2,1570.4,794.8z M1553.2,864.1c-0.1-1.4-0.2-2.9-0.2-4.2c-3.6-2.3-11.1-7.2-11.9-9.2
	c-1.1-2.5-4.2-1.6-5.1-13.2c-0.9-11.6,4.8-24.5,3.4-57.3c0,0-1.7-16.1-1.2-20.5c0.2-2.4,5.1-11.6,10.7-20.3
	c-3.3-1.4-11.4-5.3-18.4-9.9c-5.9,16-11.3,29.7-13.4,32c-4.9,5.4,6.7,76.4,6.7,76.4s-1.1,37.1,7,43.4c0,0,1.5,0.4,1-4
	c0,0,4.2,10.8,4.9,2.6c0,0,6.3,7.7,5.3,0c0,0,6.9,8.8,8.5,3.7s-6.5-10-7.1-20.1C1543.2,863.5,1549.9,866.2,1553.2,864.1z
	 M1634.5,624.6c1.6-11.8,1-27.7,1-27.7s-6.9-7.5-6.7-15.7c0,0-15.6,27.7-42,27.1c0,0-1.1,37.3,11.4,58c0.6,0.1,1.2,0.2,1.8,0.3
	c8.8,0.6,9-9.1,9-11.5s0.2-9.6,0.2-9.6s0.2,0-3.8,0.3c-0.3-1.5-0.2-4.2-0.8-6.7c3.7,1.9,7.6,3.2,11.7,3.5c2.7,0.2,5.1-0.2,7.1-1
	c-0.1-0.3-0.1-0.5-0.2-0.7C1623.2,640.9,1632.8,636.5,1634.5,624.6z"></path>
<path id="color_x5F_4" fill="#00CEC9" d="M867.9,1479.5c3.7,11.9,7.7,24.9,11.7,37.6l-11.7-6.8V1479.5z M600.1,963.7l-99.9,60.1
	v125.9l99.9-58.5V963.7z M444.5,943.6c-6.8-23-5.9-47.8-1.6-71.4c3.6,19.6,24.8,29.7,39.7,42.9c19.3,17,30,43.1,28.3,68.7
	c-2.3-20.3-4.1-42.6,7.5-59.4c6.8-9.9,17.4-16.5,26.1-24.8c8.1-7.8,14.7-17.3,19-27.8c10.6,17.6,21.6,37.2,18.2,57.5
	c-2.1,12.7-9.7,23.7-18.1,33.4c-13.1,14.9-46.3,48.6-68.7,42.6C471.6,999.1,450.7,964.7,444.5,943.6z M812,1605.9
	c11.5-12.9,21.8-38.2,25.7-47c-4.2,12.2-11.8,35.4-10.8,38c1.3,3.6,10.7-3.2,11.3-5c0.5-1.4,13.7-27.4,18.2-40.2
	c4.8-2.9,4.9-6.4,5.4-6.4c11.7,11,15.2,37,14.7,40.9s-9.6,7.9-11.7,7.9c-2.1,0-34.2,19.9-35.7,20.7
	C827.7,1615.7,797.9,1621.8,812,1605.9z M834.7,1567.8c-1.5,4.4-3,9.2-4.3,13.5c4.3-1,9.6-1.9,13.5-1.3c1.6-3.4,3.4-7.2,5.2-11
	C846.2,1568.4,841.7,1567.9,834.7,1567.8z M861.7,1643.9c1.9,9.9,33.1,0.6,36-2.4c2.9-2.9,27.9-15.9,30.8-18.8
	c2.9-2.9-0.4-16-2.7-19.5c-2.3-3.6-5.8-25.1-9.2-20.2s-16.6,4.2-17.7,4.1c0,0-0.7,0.9-1.8,2.5l0,0c0.9,0.1,8.8,0.3,13.4-2.8
	c-2.6,4.9-5.3,9.4-8.1,13.5c-2.8-1.5-6.4-3.3-9.7-4.4c-2.1,2.8-4.4,5.9-6.7,9c-0.7,1.6-2.5,2.8-3.2,4.2c2.8,0.2,8.3,0.9,11.2,2.5
	c-8.3,10-15.3,15.3-16.5,13.6c-0.8-1.2,1.6-7.7,4.8-15c-2.3,3.2-4.4,6.1-5.9,8.2C869.9,1627.5,859.7,1634,861.7,1643.9z
	 M876.6,1387.2l-9.5,17.8c4.7,10.5,45.6,24.9,64.8,31c-4.6,5.3-10.9,9.5-13.9,11.8c89-63.7,76.2-86.7,76.2-86.7c0.1-1,0-2-0.2-2.9
	c-10.6,1.9-30,4.3-50.1,1.1c-10.7,10.8-28.1,21.3-28.1,21.3s-11,4.1-12.6,3.4c-1.6-0.6,2.6-5.2,2.6-5.2s-4.5,1.5-7.8,0
	c-3.2-1.5,3.4-5.7,3.4-5.7s-5.3,1.5-8.9,0c-3.6-1.5,2.9-5.5,2.9-5.5s-14.4-1.9-2.3-3.6c8.5-1.1,19.4-8.2,25.2-12.3
	c-7-3.2-13.7-7.5-19.6-13.1l-37.6,17.1C866.8,1372.3,876.6,1387.2,876.6,1387.2z M945,1427.2l24.3,14.6v127.8l-52.9-31
	c0.5-3.7,1.1-7.1,2-9.9c5.2-16.6-4.8-57-10.6-70.7c-2.5-5.9-3.3-9.7-3.3-12c7.9,1.5,13.4,1.7,13.4,1.7c0.6-0.5,1.4-1.1,2.3-1.7
	c-0.9,0.7-1.7,1.2-2.3,1.7C928.3,1440.4,937.3,1433.5,945,1427.2z"></path>
<path id="color_x5F_3" fill="#E84393" d="M946.9,1356c10-11.8,46.8-36.4,46.8-36.4l5.4-4.3l3.1,41.1c0,0-28.3,7.5-58.4,2.9
	C945,1358.2,946,1357.1,946.9,1356z M457.8,972c-16.5-2.1-32.4-7.6-44.8-15.7c-23.7-15.5-34.9-43.9-44.7-70.5
	c14.5,14.1,35.3,19,54.6,25.1c5.7,1.8,11.5,3.8,17,6.3c0.6,8.9,2.1,17.8,4.6,26.4C447,951.9,451.6,962.1,457.8,972z M528.3,428.6
	v231.5L327.8,775.8V544.3l53.7-31v-25.8L332,517l99.6-174.4l92.5,62.6l-42.6,24.9v25.4L528.3,428.6z M504.6,469.7L481.5,483v103.4
	L381.6,644l-0.1-103.2l-30,17.3v176.7l153-88.3V469.7H504.6z M1053.6,352.5v-57.3l-245,143.4l35,34L1053.6,352.5z M1072,212.2
	c0.6,0.8,1,1.8,1,3v11.4c0,1.7-0.9,3.3-2.4,4.2l-9.9,5.7c-3.2,1.9-7.3-0.5-7.3-4.2V223L597,487.3v21l480.5-273.9V209L1072,212.2z
	 M573.3,950c-1.4,2.1-2.8,4.2-4.4,6.2c0.1-0.1,0.1-0.1,0.2-0.2l15.9,8.2l-85,51.1l-86.4-51.1l6.4-3.6c-2.5-1.3-4.9-2.7-7.2-4.2
	c-0.2-0.1-0.3-0.2-0.5-0.3l-13.7,7.7l101.5,60.1l99.9-60.1L573.3,950z M465.5,901.7c5.8,4.5,11.9,8.7,17.2,13.4
	c13.5,11.9,22.8,28.3,26.6,45.9c-0.1-13.1,1.8-26,9.2-36.6c6.2-9,15.4-15.2,23.6-22.5c-2-14.4-7.9-28.4-15.8-40.8
	c-11-17.3-25.6-31.9-40-46.3c6.6,22.7-11.8,44.4-18.1,67.3C466.4,888.5,465.6,895,465.5,901.7z M875,1234.1c0,0,20.5-44.3,26.1-52.5
	c4.4-6.4,21.1-6.6,28.5-6.4c1.2,0.4,2.3,0.7,3.2,0.9c-0.2,0.6-0.5,1.5-0.8,2.6l0,0l0,0c0,0.1-0.1,0.3-0.1,0.4s-0.1,0.2-0.1,0.3
	c0,0.1-0.1,0.3-0.1,0.4s-0.1,0.3-0.1,0.4s-0.1,0.2-0.1,0.4c-0.1,0.2-0.1,0.5-0.2,0.8c0,0.1,0,0.2-0.1,0.3c0,0.2-0.1,0.4-0.1,0.6
	c0,0.1,0,0.2-0.1,0.3c0,0.2-0.1,0.4-0.1,0.6c0,0.1,0,0.2,0,0.3c0,0.3-0.1,0.6-0.1,0.9c0,0.1,0,0.2,0,0.2c0,0.2,0,0.5-0.1,0.7
	c0,0.1,0,0.2,0,0.3c0,0.2,0,0.5,0,0.7c0,0.1,0,0.1,0,0.2c0,0.3,0,0.6,0,1c0,0.1,0,0.1,0,0.2c0,0.3,0,0.5,0,0.8c0,0.1,0,0.2,0,0.3
	c0,0.3,0,0.5,0.1,0.8c0,0.1,0,0.1,0,0.2c0,0.3,0.1,0.6,0.2,0.9v0.1c0.1,0.3,0.1,0.5,0.2,0.8c0,0.1,0,0.2,0.1,0.2
	c0.1,0.2,0.1,0.5,0.2,0.7c0,0.1,0,0.1,0.1,0.2c0.1,0.3,0.2,0.6,0.4,0.8v0.1c0.1,0.2,0.3,0.5,0.4,0.7c0,0.1,0.1,0.1,0.1,0.2
	c0.1,0.2,0.3,0.4,0.4,0.6c0,0.1,0.1,0.1,0.1,0.2c0.2,0.2,0.4,0.5,0.6,0.7c0,0,0,0,0.1,0.1c0.2,0.2,0.4,0.4,0.7,0.5
	c0.1,0.1,0.2,0.1,0.2,0.2c0.2,0.1,0.4,0.3,0.6,0.4c0.1,0,0.2,0.1,0.2,0.1c0.3,0.2,0.6,0.3,0.9,0.4c0,0,0,0,0.1,0
	c0.3,0.1,0.6,0.2,1,0.3c0.1,0,0.2,0.1,0.3,0.1c0.3,0.1,0.6,0.1,0.9,0.2c0.1,0,0.2,0,0.4,0.1c0.4,0.1,0.8,0.1,1.3,0.1s0.9,0,1.4,0
	c0.1,0,0.3,0,0.4,0c0.3,0,0.6,0,0.9,0c0.2,0,0.3,0,0.5,0c0.3,0,0.6-0.1,0.9-0.1c0.1,0,0.3,0,0.4-0.1c0.3-0.1,0.7-0.1,1-0.2
	c0.1,0,0.2,0,0.2,0c0.4-0.1,0.8-0.2,1.2-0.3c0.1,0,0.2-0.1,0.3-0.1c0.3-0.1,0.6-0.2,0.9-0.3c0.1,0,0.3-0.1,0.4-0.1
	c0.3-0.1,0.5-0.2,0.8-0.3c0.1-0.1,0.3-0.1,0.4-0.2c0.3-0.1,0.6-0.2,0.8-0.4c0.1,0,0.2-0.1,0.3-0.1c0.4-0.2,0.7-0.4,1.1-0.6
	c0.1,0,0.1-0.1,0.2-0.1c0.3-0.2,0.6-0.3,0.9-0.5c0.1-0.1,0.2-0.1,0.3-0.2c0.2-0.1,0.5-0.3,0.7-0.4c0.1-0.1,0.2-0.2,0.3-0.2
	c0.2-0.2,0.5-0.3,0.7-0.5c0.1-0.1,0.2-0.1,0.3-0.2c0.3-0.2,0.6-0.5,0.9-0.7l0,0c0.3-0.2,0.6-0.5,0.9-0.7c0.1-0.1,0.2-0.1,0.3-0.2
	c0.2-0.2,0.4-0.4,0.6-0.5c0.1-0.1,0.2-0.2,0.3-0.3c0.2-0.2,0.4-0.3,0.6-0.5c0.1-0.1,0.2-0.2,0.3-0.2c0.2-0.2,0.4-0.4,0.6-0.6
	l0.1-0.1c0.2-0.3,0.5-0.5,0.7-0.8c0.1-0.1,0.1-0.1,0.2-0.2c0.2-0.2,0.3-0.4,0.5-0.6c0.1-0.1,0.1-0.2,0.2-0.3
	c0.1-0.2,0.3-0.3,0.4-0.5c0.1-0.1,0.1-0.2,0.2-0.3c0.1-0.2,0.3-0.3,0.4-0.5c0.1-0.1,0.1-0.1,0.2-0.2c0.2-0.2,0.4-0.4,0.5-0.7
	l0.1-0.1c0.1-0.2,0.3-0.3,0.4-0.5c0.1-0.1,0.1-0.1,0.2-0.2c0.1-0.1,0.2-0.3,0.3-0.4s0.1-0.2,0.2-0.2c0.1-0.1,0.2-0.2,0.2-0.4
	c0-0.1,0.1-0.1,0.1-0.2c0.1-0.1,0.2-0.3,0.3-0.4c0.7-1.1,1.1-1.7,1.1-1.7s42.4-8.2,49.1,9.3s6.9,43.9,16.4,51.9c0,0-9.9,20.5-37,19
	l1.5,20.1c-2,2.7-3.3,4.5-3.3,4.5l1-0.3l-58.7,54.8c0,0-20.7,0.3-22.2-1.1c-1.5-1.5-2.4,5.8,4.2,7.9l4.5,1.5c0,0-1.5,1.2-4,3
	c-7.4-3.4-14.4-8-20.6-14l14.3-79.1C911.9,1258.7,875.2,1252.2,875,1234.1z M1001.1,1340.7l0.7,9.4l55.3,31.1l-87.7,51.9l-18.3-11
	c-1.9,1.6-4,3.3-6.1,5.1l24.3,14.6l103.1-61L1001.1,1340.7z"></path>
<path id="color_x5F_2" fill="#FBC02D" d="M1944.5,1156.8v62.9L955,1791L55.5,1271.6v-62.9L955,1728.1L1944.5,1156.8z M765.5,957.1
	l54.7,31.6l205.1-118.4l-54.7-31.6L765.5,957.1z M907.5,1177.5l-189.8-109.6l431.7-249.4l216.1,124.8l-401.9,232
	c-0.1-4.6,0.6-10.2,1.2-14c2.8-4,4.9-9.1,5.6-15.6c0,0,16.9-10.4,12-18.8c-0.3-0.6-0.7-1.1-1-1.5c3.2-7.4,3.4-23.6-7.4-31.1
	c0,0,1.6-11.5-10.2-15.1s-48,0.9-53.5-5.1c-5.6-6-6.6-11-6.6-11s-4.2,9.8,0.7,17.1c0,0-2.3,3.4-6.3-0.1c0,0,1.8,9.3,8.5,12.4
	c0,0-16.1,21.8-3.2,40.8c0,0,0.8-6,2.1-13c-0.1,0.7-0.3,1.4-0.4,2.1c-0.3,3.4-0.3,7.1-0.1,11.1c1.8,29.8,16.5,39,24.8,41.9
	C924.4,1175,914.4,1175.1,907.5,1177.5z M1639.8,757l7.6,29.2c0,0-10,17.5-33.4,20.2s-37.6,0.7-43.9-12.3c0,0,7.9-10.8,0-35.1
	c-0.2-0.5-0.3-1-0.5-1.4c17.3-14.5,52.1-16.5,67-16.6C1636.4,749.3,1639.8,757,1639.8,757z M1519.1,716.3
	c0.4,10.8,31.2,23.7,31.2,23.7l12-17.2l-1.6-12.1c0,0,47.1-22.1,80-21c0,0,3.5,3.3,10,10.8l4.6-6c-7.3-3-12.6-13.5-12.6-13.5
	s-0.1-0.2-0.2-0.5c-0.1,1.1-0.2,2.2-0.1,3.6c0,0-6.9-7-5.1-18c1.8-10.9-4.2-18.1-4.2-18.1s-2.8,11.5-16.6,22.8c0,0,6.7-15.3,7.2-25
	c-6.9-0.5-14.4-0.2-14.4-0.2c0-0.3-0.2,7.1-0.2,9.6c0,2.4-0.1,12.1-9,11.5c-0.6,0-1.2-0.2-1.9-0.3c0.8,1.3,1.6,2.5,2.4,3.6
	c0,0-10.3-1.5-17.4-11.1c0,0,4,9-3.7,17.2c-7.8,8.2-16.3,2.7-21.9,7.2c-5.5,4.5-4.8,6.3-4.8,6.3s-2.6-6.8-5.5-12
	c-0.2,0.6-0.3,0.9-0.3,0.9s-15.6,26.5-18.1,30.1C1526.3,712.2,1519.1,716.3,1519.1,716.3z"></path>
<path id="color_x5F_1" fill="#0984E3" d="M904.2,1080.1c-4.9-7.3-0.7-17.1-0.7-17.1s1,5,6.6,11s41.8,1.5,53.5,5.1
	c11.8,3.6,10.2,15.1,10.2,15.1c13.2,9.2,10,31,5.1,34.5s-8.9,0-8.9,0c1.1,5-6.9,10.6-6.9,10.6c3.9-15.4-3.1-32.2-3.1-32.2
	c-41.4,15.6-48-7.2-48-7.2c-4.7,2.9-8.7,33.2-8.7,33.2c-12.8-18.9,3.2-40.8,3.2-40.8c-6.7-3-8.5-12.4-8.5-12.4
	C901.9,1083.5,904.2,1080.1,904.2,1080.1z M1668.6,896.2c0,0-9,9.6-26.4,16.8s-19.2-23.4-46.8-2.4c-27.6,21-37.8,15-37.8,15
	s6-12.6-2.4-48s8.4-58.1,8.4-58.1c52.1,28.2,83.3-4.8,83.3-4.8L1668.6,896.2z M1592.7,551.7c-18,6.6-31.3,10.5-36.3,19.3
	c-4.9,8.8-0.7,27-0.7,27s6.4,17.5-5.2,28.9c-11.7,11.4-9.7,22.5-11.1,27.6c-1.3,5.1,1.5,14.4,5.4,19.2s8.1,15.9,8.1,15.9
	s-0.7-1.8,4.8-6.3s14.1,1,21.9-7.2s3.7-17.2,3.7-17.2c7,9.6,17.4,11.1,17.4,11.1c-15-19.6-13.8-61.6-13.8-61.6
	c26.4,0.6,42-27.1,42-27.1c-0.1,8.2,6.7,15.7,6.7,15.7s0.6,15.9-1,27.7s-11.2,16.2-11.2,16.2c2.7,8.1-6.7,29.8-6.7,29.8
	c13.8-11.2,16.6-22.8,16.6-22.8s6,7.2,4.2,18.1s5.1,18,5.1,18c-1-12.6,10.6-12.3,16.2-23.4c5.5-11.1,3.3-21.9-9.7-39.7
	s-4.3-14.4-5.5-32.2s-18.1-26.7-18.1-26.7S1610.7,545.1,1592.7,551.7z"></path>
</svg>