<?xml version="1.0" standalone="no"?>
<svg version="1.1" id="Layer_1_1_" xmlns="http://www.w3.org/2000/svg" xmlns:xlink="http://www.w3.org/1999/xlink" x="0px" y="0px" viewBox="0 0 2000 2000" enable-background="new 0 0 2000 2000" xml:space="preserve">
<path id="color_x5F_9" fill="#CFE1EC" d="M1033.875,735.676l103.265-59.62l54.556,31.498l-103.842,59.287L1033.875,735.676z
	 M970.441,772.299v61.577l17.796-10.16v-61.691L970.441,772.299z M1489.339,879.399l10.379,21.33l-39.935-20.424v158.006
	c19.592,7.89,31.96,19.458,31.96,32.351v27.939c0,18.657-25.894,34.54-62.106,40.516v6.675c0,6.503-9.287,12.011-22.113,13.893
	v99.468c27.339,2.119,48.166,13.016,48.166,26.149v17.215c0,14.651-25.914,26.528-57.88,26.528c-31.966,0-57.88-11.877-57.88-26.528
	v-17.214c0,0,0-0.001,0-0.001c0-13.133,20.827-24.03,48.166-26.149v-99.468c-12.115-1.778-21.063-6.791-22.019-12.822
	l-255.332,146.298l-65.435-37.508c-0.177,0.016-0.354,0.032-0.53,0.048c-7.744,0.692-15.594,1.38-23.252,0.037
	c-17.843-3.13-32.45-17.328-39.434-34.043c-0.405-0.97-0.783-1.949-1.143-2.933l-25.761-14.766
	c0.225,25.032,0.306,42.277,0.306,42.277l-7.816,166.631l-6.651,141.805c1.156,1.048,1.958,1.847,1.958,1.847
	s52.455,0.46,37.731,17.945c-14.724,17.485-63.959,12.424-67.18,11.043c-2.795-1.198-0.856-20.17-0.193-26.875
	c-1.034-12.841-22.152-274.479-26.341-279.267c-0.033-0.038-0.067-0.061-0.101-0.069c-3.885-0.925-10.163,194.417-11.806,231.473
	c8.478-0.198,24.033,0.048,22.337,4.798c-2.301,6.442-18.865,34.97-31.749,37.271s-20.706-0.92-21.166-3.221
	c-0.279-1.397,1.308-15.438,2.597-26.254l-13.63-251.324c-6.402-4.289-14.148-11.435-15.195-16.964
	c-1.461-7.717,3.138-21.333,5.809-28.859l-3.969-1.452c0,0,7.362-127.61,10.834-178.532c0.157-2.308,0.347-4.508,0.565-6.61
	L550.693,1201.8v-66.42l-51.17,29.543v-58.986l-48.327,27.902v-61.752L43.435,1307.507l818.351,472.023l1095.632-629.885
	L1489.339,879.399z"></path>
<path id="color_x5F_8" fill="#B459A1" d="M1227.868,847.679V686.902l231.915,131.756L1265.469,932.62v-59.869
	c0-2.082-1.111-4.006-2.914-5.047L1227.868,847.679z M1005.2,1098.2l-24.855-14.39c1.069,10.839,1.459,23.326,0.876,37.713
	L1005.2,1098.2z M976.366,1180.086c-8.787,2.214-15.945,0.224-21.452-3.371c0.11,9.726,0.201,18.936,0.276,27.281l25.764,14.768
	C976.463,1206.506,975.397,1193.221,976.366,1180.086z M1070.08,1112.514c3.217,10.307,5.78,20.814,7.662,31.447
	c4.483,25.326,5.136,51.338,1.713,76.836c-1.476,10.996-4.394,23.028-13.547,29.3c-5.935,4.067-13.416,4.909-20.599,5.557
	l65.435,37.508v-269.797L1070.08,1112.514z"></path>
<path id="color_x5F_7" fill="#1E5D86" d="M1459.783,818.658v219.653c-16.54-6.661-38.225-10.702-61.974-10.702
	c-51.878,0-93.934,19.275-93.934,43.053c0,0.183,0.01,0.365,0.015,0.547c-0.005-0.182-0.015-0.363-0.015-0.545v27.937
	c0,18.657,25.894,34.54,62.106,40.516v6.675c0,0.361,0.038,0.717,0.095,1.071l-255.332,146.298v-269.797l44.022-25.819
	l46.566,26.885c3.887,2.244,3.885,7.856-0.005,10.097l-27.592,15.894c-5.188,2.989-3.036,10.921,2.951,10.878l85.825-0.621
	c1.037-0.008,2.058,0.262,2.956,0.781V932.62L1459.783,818.658z M1227.868,686.902l-140.014,79.939l140.014,80.837V686.902z
	 M1154.767,997.545L1154.767,997.545l-163.616-94.464c-1.803-1.041-2.914-2.965-2.914-5.047v-74.318l-104.808,59.839
	c25.404-8.225,59.294-4.755,67.379,41.853c0.193,1.112-1.247,1.849-3.519,2.424c0.082,0.288,0.169,0.595,0.255,0.897l163.202,94.635
	L1154.767,997.545L1154.767,997.545z M451.196,1133.838l48.327-27.902V389.429l371.421-214.44v-58.986L451.196,358.345V1133.838z"></path>
<path id="color_x5F_6" fill="#2BB2CC" d="M1456.023,1285.218v17.215c0,14.651-25.914,26.528-57.88,26.528
	c-31.966,0-57.88-11.877-57.88-26.528v-17.214c0.001,14.651,25.914,26.527,57.88,26.527
	C1430.109,1311.746,1456.023,1299.869,1456.023,1285.218z M1398.143,1113.631c-51.877,0-93.931-19.274-93.934-43.051v27.937
	c0,23.777,42.056,43.053,93.934,43.053c51.878,0,93.934-19.276,93.934-43.053v-27.939
	C1492.077,1094.356,1450.021,1113.631,1398.143,1113.631z M1430.342,1138.885c-2.929,6.67-15.783,11.694-31.199,11.694
	c-15.416,0-28.27-5.024-31.199-11.694c-0.21-0.034-0.42-0.067-0.629-0.102v6.675c0,8.057,14.25,14.588,31.828,14.588
	c17.578,0,31.828-6.531,31.828-14.588v-6.674C1430.762,1138.818,1430.552,1138.852,1430.342,1138.885z M1398.143,1160.296
	c-3.389,0-6.651-0.245-9.714-0.695v117.471c0,4.029,3.266,7.295,7.295,7.295h4.838c4.029,0,7.295-3.266,7.295-7.295v-117.471
	C1404.794,1160.051,1401.532,1160.296,1398.143,1160.296z M861.786,1779.53L43.435,1307.507l-0.357,82.737l818.351,472.023
	l1095.99-630.754v-81.869L861.786,1779.53z M550.693,1135.38l-51.17,29.543V389.429l419.748-242.342v66.42L550.693,426.307V1135.38z
	"></path>
<path id="color_x5F_5" fill="#FFD2BB" d="M1043.875,1062.03c7.849-4.553,5.343-10.236,9.03-12.079
	c4.601-2.301,19.326,6.442,12.884,22.547c-1.394,3.485-3.523,6.516-6.019,9.12c-1.948-4.429-4.023-7.874-6.036-8.724
	c-0.177-0.075-0.356-0.117-0.535-0.164C1050.722,1068.704,1047.516,1065.095,1043.875,1062.03z M947.288,927.831
	c-6.379,1.614-19.373,1.933-21.635,5.552c-3.068,4.908,4.295,28.221,4.295,28.221l2.454,14.111c0,0-6.68,13.907-26.653,4.806
	c-6.452-2.94-13.121-5.578-19.343-8.164c1.214,1.457,3.607,2.897,6.823,4.249v7.004l30.451,5.019
	c-0.399-1.704-0.794-3.452-1.144-5.112c13.85,1.664,27.118,1.267,30.725-2.895C959.426,973.511,951.298,941.848,947.288,927.831z
	 M831.786,1240.752c0,0-0.132-4.315-0.29-11.793l-7.398-2.706c-2.671,7.526-7.271,21.143-5.809,28.859
	c1.047,5.53,8.794,12.675,15.195,16.964L831.786,1240.752z M1026.007,1077.963c0,0,9.798,1.731,15.371,7.758
	c-0.233-0.251-0.471-0.497-0.718-0.733c0.597-1.084,1.196-2.119,1.796-3.104c-1.603-5.593-3.704-11.127-6.812-16.682
	c-13.858,3.743-13.293,11.869-12.313,15.363L1026.007,1077.963z"></path>
<path id="color_x5F_4" fill="#00CEC9" d="M842.215,1003.838l-20.968-12.139l31.418-59.258c1.058,5.719,2.67,11.031,4.164,15.292l0,0
	c0.966,2.755,1.882,5.075,2.566,6.777c2.908,7.242,13.974,12.43,27.016,17.851c-0.002-0.001-0.003-0.001-0.005-0.002
	c1.214,1.457,3.607,2.897,6.823,4.249v7.004l0,0v7.443c0,0-14.78-11.653-36.364,2.356l0-0.003
	C854.934,994.769,848.337,995.223,842.215,1003.838z M1499.718,900.729l-39.935-82.071v61.647L1499.718,900.729z M1110.745,1023.364
	l-40.665,89.15c-0.548-1.756-1.109-3.507-1.696-5.251c-1.338-3.977-4.722-16.797-8.619-25.655c0.001,0.003,0.003,0.006,0.004,0.009
	c2.496-2.604,4.624-5.634,6.019-9.12c6.442-16.105-8.282-24.847-12.884-22.547c-3.687,1.844-1.181,7.526-9.03,12.079
	c-1.075-0.905-2.185-1.769-3.33-2.575c-1.338-0.942-2.813-1.852-4.449-1.894c-1.636-0.042-3.408,1.129-3.438,2.765
	c1.482,2.205,2.763,4.402,3.911,6.598c-0.3-0.574-0.604-1.148-0.925-1.722c-13.858,3.743-13.293,11.869-12.313,15.363l2.675-2.602
	L1005.2,1098.2l-24.855-14.39c-5.68-57.572-30.608-68.522-31.64-69.038l-0.261,0.323c-6.115-10.709-22.176-16.066-22.176-16.066
	s-1.312-4.962-2.586-10.398l-15.702-2.588l15.701,2.588c-0.399-1.704-0.794-3.452-1.144-5.112
	c13.85,1.664,27.118,1.267,30.725-2.895c6.038-6.967-1.633-37.473-5.719-51.895L1110.745,1023.364z M842.215,1003.838
	L842.215,1003.838l-20.968-12.139l31.418-59.258l0,0.001c-1.329-7.183-1.772-15.005-0.01-22.199v0
	c-0.161,0.662-0.312,1.327-0.438,1.999c0.126-0.672,0.276-1.337,0.438-1.999c0.028-0.115,0.047-0.232,0.076-0.346
	c0.003,0,0.006,0.001,0.009,0.002c1.668-6.53,5.18-12.521,11.563-17.006c5.103-3.586,11.759-6.951,19.126-9.337l87.012-49.679
	V183.965L550.693,426.307V1201.8l280.836-162.141C833.474,1020.908,837.716,1010.169,842.215,1003.838z M833.193,450.049
	l-2.328-2.631c-0.826-0.952-1.397-1.518-1.695-1.708c-0.307-0.195-0.631-0.259-0.973-0.203c-0.341,0.056-0.875,0.304-1.609,0.728
	l-0.656,0.379l0.022,7.615l-3.2,1.847l-0.052-18.245l6.741-3.892c1.705-0.984,2.938-1.536,3.709-1.658
	c0.762-0.108,1.384,0.117,1.85,0.693c0.466,0.566,0.696,1.39,0.699,2.475c0.004,1.366-0.343,2.703-1.039,3.991
	c-0.697,1.298-1.745,2.466-3.134,3.5c0.692,0.063,1.262,0.247,1.718,0.548c0.456,0.29,1.062,0.927,1.836,1.899l1.942,2.451
	L833.193,450.049z M847.083,441.013c-0.872,1.379-2.173,2.563-3.904,3.562c-1.565,0.904-2.808,1.259-3.719,1.05
	c-0.92-0.193-1.517-0.845-1.801-1.939l3.05-2.294c0.133,0.608,0.397,0.968,0.791,1.093c0.403,0.12,0.955-0.018,1.672-0.432
	c0.787-0.454,1.381-0.968,1.773-1.527c0.27-0.388,0.401-0.775,0.4-1.167c-0.001-0.261-0.071-0.442-0.221-0.527
	c-0.149-0.085-0.49-0.039-1.016,0.123c-2.459,0.796-4.017,1.132-4.674,0.988c-0.911-0.188-1.369-0.91-1.372-2.186
	c-0.003-1.145,0.387-2.337,1.172-3.565c0.785-1.238,2.008-2.336,3.66-3.29c1.574-0.909,2.738-1.279,3.509-1.14
	c0.771,0.149,1.298,0.72,1.59,1.698l-2.866,2.269c-0.124-0.442-0.361-0.697-0.703-0.782c-0.342-0.074-0.832,0.078-1.47,0.446
	c-0.804,0.464-1.372,0.913-1.721,1.376c-0.235,0.317-0.348,0.624-0.348,0.915c0.001,0.241,0.106,0.392,0.308,0.456
	c0.272,0.074,1.226-0.144,2.844-0.656c1.627-0.517,2.757-0.656,3.397-0.411c0.64,0.254,0.966,0.942,0.969,2.047
	C848.407,438.337,847.964,439.639,847.083,441.013z M861.514,317.719l0.036,12.689l-19.322,11.156l0.177,62.309l-13.176,7.607
	l-0.177-62.309l-19.366,11.181l-0.036-12.689L861.514,317.719z M740.964,387.319l0.213,74.997l-13.185,7.612l-0.213-74.997
	L740.964,387.319z M702.687,523.203c-1.386,2.47-3.246,4.379-5.58,5.727c-2.361,1.363-4.243,1.614-5.638,0.769
	c-1.404-0.85-2.101-2.732-2.109-5.635c-0.005-1.859,0.226-3.552,0.712-5.101c0.356-1.131,0.843-2.248,1.471-3.355
	c0.619-1.102,1.299-2.038,2.05-2.834c0.987-1.042,2.122-1.94,3.416-2.687c2.343-1.353,4.217-1.599,5.62-0.739
	c1.412,0.855,2.118,2.762,2.127,5.736C704.765,518.028,704.081,520.738,702.687,523.203z M710.487,510.035l6.627-3.826l0.009,3.084
	l-6.627,3.826l0.022,7.756l-3.209,1.853l-0.052-18.244l10.885-6.285l0.009,3.084l-7.677,4.432L710.487,510.035z M673.059,501.644
	l-0.211-74.375l13.176-7.607l0.175,61.736l32.769-18.919l0.036,12.639L673.059,501.644z M733.784,507.443l-3.209,1.853l-0.043-15.16
	l-4.713,2.721l-0.009-3.084l12.616-7.284l0.009,3.084l-4.695,2.711L733.784,507.443z M750.046,498.054l-0.023-7.977l-6.277,3.624
	l0.023,7.977l-3.209,1.853l-0.052-18.245l3.209-1.853l0.02,7.173l6.277-3.624l-0.02-7.173l3.209-1.853l0.052,18.245L750.046,498.054
	z M756.568,494.288l-0.052-18.245l11.777-6.799l0.009,3.084l-8.568,4.947l0.011,4.039l7.974-4.604l0.009,3.074l-7.974,4.604
	l0.014,4.973l8.874-5.124l0.009,3.074L756.568,494.288z M784.494,478.166l-3.191,1.842l-0.022-7.686l-5.853-7.197l3.759-2.17
	l3.763,5.053l3.634-9.323l3.698-2.135l-5.811,13.961L784.494,478.166z M777.324,442.775c-8.254,4.765-14.59,6.23-19.026,4.404
	c-4.436-1.826-7.095-6.691-7.976-14.585l12.813-8.827c0.783,4.499,2.359,7.222,4.726,8.18c2.367,0.958,5.553,0.286,9.557-2.026
	c4.249-2.453,7.446-5.336,9.591-8.637c2.145-3.311,3.214-6.344,3.206-9.106c-0.005-1.768-0.464-3.023-1.368-3.749
	c-0.913-0.711-2.499-0.882-4.757-0.504c-1.54,0.276-5.058,1.21-10.553,2.813c-7.07,2.069-12.035,2.46-14.893,1.172
	c-4.016-1.817-6.041-5.689-6.058-11.617c-0.011-3.818,0.923-7.94,2.802-12.355c1.87-4.411,4.582-8.512,8.127-12.3
	c3.536-3.782,7.818-7.13,12.836-10.027c8.183-4.725,14.362-6.219,18.509-4.488c4.156,1.736,6.34,5.99,6.569,12.761l-13.174,8.27
	c-0.571-3.525-1.794-5.596-3.652-6.214c-1.858-0.618-4.641,0.144-8.357,2.289c-3.829,2.211-6.817,4.842-8.98,7.902
	c-1.396,1.963-2.091,3.914-2.085,5.863c0.005,1.768,0.665,2.917,1.971,3.42c1.674,0.643,5.71-0.016,12.124-1.978
	c6.422-1.967,11.166-2.905,14.24-2.818c3.083,0.082,5.495,1.235,7.235,3.461c1.749,2.22,2.626,5.699,2.639,10.441
	c0.012,4.3-1.017,8.919-3.078,13.873c-2.07,4.949-5,9.428-8.798,13.452C787.726,435.863,782.99,439.504,777.324,442.775z
	 M791.926,473.875l-0.052-18.245l11.768-6.794l0.009,3.084l-8.56,4.942l0.011,4.039l7.965-4.599l0.009,3.074l-7.965,4.599
	l0.014,4.973l8.866-5.118l0.009,3.074L791.926,473.875z M817.552,459.08l-1.402-3.347l-6.348,3.665l-1.291,4.901l-3.401,1.964
	l6.13-21.813l3.392-1.958l6.408,14.575L817.552,459.08z"></path>
<path id="color_x5F_3" fill="#E84393" d="M955.495,1246.274l-14.504,309.21c0,0-11.043,14.111-27.608,3.681
	c0,0-22.086-274.853-26.381-279.761c-4.294-4.908-11.656,239.27-12.27,237.429c-0.614-1.84-17.179,20.246-27.608,6.749
	l-15.338-282.829l0.453,8.341c31.596,5.422,80.602,10.089,123.105,0.403L955.495,1246.274z"></path>
<path id="color_x5F_2" fill="#FBC02D" d="M1093.443,919.358l0.09-31.773l31.369,18.111l-0.09,31.773L1093.443,919.358z
	 M1113.245,798.565c-14.396-8.311-25.067-10.618-32.05-6.92c-6.983,3.678-11.009,11.524-12.08,23.56l29.901,21.521
	c0.686-6.506,2.225-10.481,4.617-11.865c2.393-1.403,5.413-1.052,9.059,1.053c3.402,1.964,5.924,4.328,7.585,7.083
	c1.661,2.775,2.495,5.779,2.486,9.023c-0.009,3.244-2.106,5.605-6.273,7.115c-7.823,2.93-12.871,5.223-15.106,6.879
	c-2.235,1.676-3.945,3.938-5.078,6.876c-1.132,2.918-1.724,7.239-1.74,12.961l-0.01,3.365l29.282,16.906
	c0.013-4.614,0.708-7.947,2.084-10.018c1.358-2.082,4.648-3.976,9.851-5.715c7.471-2.427,12.414-5.284,14.848-8.541
	c2.433-3.257,3.639-7.424,3.653-12.441c0.034-12.089-4.602-24.473-13.928-37.122
	C1133.472,812.927,1124.432,805.023,1113.245,798.565z M1398.143,1027.525c-51.878,0-93.934,19.276-93.934,43.053
	c0,23.778,42.056,43.053,93.934,43.053s93.934-19.276,93.934-43.053C1492.077,1046.801,1450.021,1027.525,1398.143,1027.525z
	 M1430.342,1138.885c-2.929,6.67-15.783,11.694-31.199,11.694s-28.27-5.024-31.199-11.694c9.763,1.575,20.261,2.435,31.199,2.435
	C1410.081,1141.32,1420.579,1140.461,1430.342,1138.885z M1456.023,1285.218c0,14.651-25.914,26.528-57.88,26.528
	s-57.88-11.877-57.88-26.528c0-13.133,20.827-24.03,48.166-26.149v18.003c0,4.029,3.266,7.295,7.295,7.295h4.838
	c4.029,0,7.295-3.266,7.295-7.295v-18.003C1435.196,1261.188,1456.023,1272.085,1456.023,1285.218z M879.507,919.82
	c4.357,4.932,3.096,13.065-1.222,18.03s-10.846,7.38-17.232,8.967c-1.388,0.345-2.799,0.648-4.225,0.915
	c-3.4-9.697-7.42-24.837-4.098-37.837c7.036,1.115,13.93,3.273,19.152,5.288C874.687,916.265,877.52,917.569,879.507,919.82z
	 M917.745,1086.957c-4.704,36.945-7.612,76.01,7.562,110.022c7.273,16.302,17.856,32.028,28.526,46.668
	c-0.172-30.316-1.391-213.322-5.893-224.573c-0.612-1.529-1.433-2.963-2.403-4.302C927.24,1032,921.057,1060.947,917.745,1086.957z
	 M1077.742,1143.961c-2.203-12.444-5.33-24.719-9.358-36.698c-2.006-5.964-8.611-31.821-14.651-34.37
	c-0.177-0.075-0.356-0.117-0.535-0.164c-3.208-5.214-7.631-9.74-12.653-13.274c-1.338-0.942-2.813-1.852-4.449-1.894
	c-1.636-0.042-3.408,1.129-3.438,2.765c4.843,7.203,7.727,14.331,9.797,21.558c-0.6,0.984-1.199,2.02-1.796,3.104
	c2.955,2.84,4.997,6.731,4.366,11.995c0,0-39.265,73.008-65.646,82.21c-1.027,0.358-2.028,0.645-3.014,0.894
	c-1.046,14.188,0.273,28.555,5.728,41.61c6.984,16.714,21.591,30.913,39.434,34.043c7.658,1.343,15.508,0.655,23.252-0.037
	c7.343-0.656,15.047-1.438,21.129-5.605c9.152-6.272,12.07-18.303,13.547-29.3
	C1082.879,1195.298,1082.226,1169.287,1077.742,1143.961z M672.848,427.27l0.211,74.375l45.945-26.526l-0.036-12.639l-32.769,18.919
	l-0.175-61.736L672.848,427.27z M727.779,394.931l0.213,74.997l13.185-7.612l-0.213-74.997L727.779,394.931z M763.516,375.637
	c-3.545,3.788-6.257,7.889-8.127,12.3c-1.879,4.416-2.813,8.537-2.802,12.355c0.017,5.928,2.042,9.8,6.058,11.617
	c2.858,1.288,7.823,0.897,14.893-1.172c5.495-1.603,9.013-2.537,10.553-2.813c2.258-0.378,3.844-0.207,4.757,0.504
	c0.904,0.726,1.363,1.98,1.368,3.749c0.008,2.763-1.061,5.795-3.206,9.106c-2.145,3.301-5.342,6.184-9.591,8.637
	c-4.004,2.312-7.19,2.984-9.557,2.026c-2.367-0.958-3.943-3.681-4.726-8.18l-12.813,8.827c0.881,7.894,3.539,12.759,7.976,14.585
	c4.436,1.826,10.773,0.362,19.026-4.404c5.666-3.271,10.402-6.911,14.191-10.93c3.798-4.024,6.728-8.503,8.798-13.452
	c2.062-4.954,3.091-9.573,3.078-13.873c-0.013-4.742-0.89-8.221-2.639-10.441c-1.74-2.225-4.152-3.379-7.235-3.461
	c-3.074-0.087-7.818,0.851-14.24,2.818c-6.414,1.962-10.449,2.621-12.124,1.978c-1.306-0.504-1.966-1.652-1.971-3.42
	c-0.006-1.949,0.69-3.9,2.085-5.863c2.163-3.06,5.151-5.691,8.98-7.902c3.716-2.145,6.499-2.907,8.357-2.289
	c1.858,0.618,3.081,2.689,3.652,6.214l13.174-8.27c-0.229-6.771-2.413-11.024-6.569-12.761c-4.147-1.731-10.326-0.237-18.509,4.488
	C771.334,368.507,767.052,371.854,763.516,375.637z M809.65,347.663l0.036,12.689l19.366-11.181l0.177,62.309l13.176-7.607
	l-0.177-62.309l19.322-11.156l-0.036-12.689L809.65,347.663z M702.63,509.349c1.412,0.855,2.118,2.762,2.127,5.736
	c0.008,2.944-0.676,5.653-2.07,8.118c-1.386,2.47-3.246,4.379-5.58,5.727c-2.361,1.363-4.243,1.614-5.638,0.769
	c-1.404-0.85-2.101-2.732-2.109-5.635c-0.005-1.859,0.226-3.552,0.712-5.101c0.356-1.131,0.843-2.248,1.471-3.355
	c0.619-1.102,1.299-2.038,2.05-2.834c0.987-1.042,2.122-1.94,3.416-2.687C699.353,508.735,701.227,508.489,702.63,509.349z
	 M700.233,522.376c0.81-1.524,1.217-3.349,1.211-5.469c-0.006-2.09-0.404-3.42-1.211-3.98c-0.798-0.576-1.858-0.477-3.178,0.285
	c-1.32,0.762-2.385,1.901-3.195,3.405c-0.802,1.509-1.199,3.309-1.193,5.408c0.006,2.07,0.421,3.4,1.255,3.985
	c0.834,0.585,1.893,0.507,3.17-0.23C698.366,525.044,699.414,523.915,700.233,522.376 M707.258,504.483l0.052,18.244l3.209-1.853
	l-0.022-7.756l6.627-3.826l-0.009-3.084l-6.627,3.826l-0.012-4.32l7.677-4.432l-0.009-3.084L707.258,504.483z M725.811,493.772
	l0.009,3.084l4.713-2.721l0.043,15.16l3.209-1.853l-0.043-15.16l4.695-2.711l-0.009-3.084L725.811,493.772z M749.994,479.81
	l0.02,7.173l-6.277,3.624l-0.02-7.173l-3.209,1.853l0.052,18.244l3.209-1.853l-0.023-7.977l6.277-3.624l0.023,7.977l3.209-1.853
	l-0.052-18.244L749.994,479.81z M756.517,476.044l0.052,18.244l12.083-6.976l-0.009-3.074l-8.874,5.124l-0.014-4.973l7.974-4.604
	l-0.009-3.074l-7.974,4.604l-0.011-4.039l8.568-4.947l-0.009-3.084L756.517,476.044z M786.584,458.684l-3.634,9.323l-3.763-5.053
	l-3.759,2.171l5.853,7.197l0.022,7.686l3.191-1.842l-0.022-7.655l5.811-13.961L786.584,458.684z M791.874,455.63l0.052,18.245
	L804,466.904l-0.009-3.074l-8.866,5.119l-0.014-4.973l7.965-4.599l-0.009-3.074l-7.965,4.599l-0.011-4.039l8.56-4.942l-0.009-3.084
	L791.874,455.63z M814.632,442.491l6.408,14.575l-3.489,2.014l-1.402-3.347l-6.348,3.665l-1.291,4.901l-3.401,1.964l6.13-21.813
	L814.632,442.491z M810.781,455.753l4.337-2.504l-2.214-5.504L810.781,455.753 M835.08,445.387l1.942,2.451l-3.829,2.211
	l-2.328-2.631c-0.826-0.952-1.397-1.518-1.695-1.708c-0.307-0.195-0.631-0.259-0.973-0.203c-0.341,0.056-0.875,0.304-1.609,0.728
	l-0.656,0.379l0.022,7.615l-3.2,1.847l-0.052-18.245l6.741-3.892c1.705-0.984,2.938-1.535,3.709-1.658
	c0.762-0.108,1.384,0.117,1.85,0.693c0.466,0.566,0.696,1.39,0.699,2.475c0.004,1.366-0.343,2.703-1.039,3.991
	c-0.697,1.298-1.745,2.466-3.134,3.5c0.692,0.063,1.262,0.247,1.718,0.548C833.701,443.778,834.307,444.415,835.08,445.387z
	 M828.302,442.327c1.539-0.889,2.492-1.519,2.876-1.892c0.384-0.373,0.681-0.796,0.898-1.283c0.217-0.498,0.321-1.011,0.32-1.563
	c-0.002-0.613-0.143-1.024-0.433-1.24c-0.281-0.21-0.684-0.219-1.208-0.017c-0.262,0.111-1.041,0.54-2.335,1.288l-2.509,1.449
	l0.013,4.632L828.302,442.327 M839.234,434.194c-0.785,1.228-1.175,2.419-1.172,3.565c0.004,1.276,0.461,1.998,1.372,2.186
	c0.657,0.144,2.215-0.192,4.674-0.988c0.525-0.162,0.866-0.208,1.016-0.123c0.149,0.085,0.22,0.266,0.221,0.527
	c0.001,0.392-0.129,0.779-0.4,1.167c-0.393,0.559-0.987,1.073-1.773,1.527c-0.717,0.414-1.268,0.551-1.672,0.432
	c-0.394-0.125-0.658-0.485-0.791-1.093l-3.05,2.294c0.283,1.094,0.881,1.746,1.801,1.939c0.911,0.208,2.154-0.147,3.719-1.05
	c1.731-0.999,3.032-2.184,3.904-3.562c0.88-1.374,1.323-2.676,1.32-3.892c-0.003-1.105-0.329-1.792-0.969-2.047
	c-0.64-0.244-1.769-0.105-3.397,0.411c-1.619,0.512-2.573,0.731-2.844,0.656c-0.202-0.065-0.307-0.215-0.308-0.456
	c-0.001-0.291,0.112-0.598,0.348-0.915c0.349-0.463,0.917-0.912,1.722-1.376c0.638-0.368,1.128-0.521,1.47-0.446
	c0.342,0.084,0.579,0.34,0.703,0.782l2.866-2.269c-0.292-0.979-0.819-1.55-1.59-1.698c-0.771-0.138-1.935,0.232-3.509,1.14
	C841.242,431.857,840.019,432.956,839.234,434.194z"></path>
<path id="color_x5F_1" fill="#0984E3" d="M897.432,1515.606c-2.301,6.442-18.865,34.97-31.749,37.271s-20.706-0.92-21.166-3.221
	c-0.279-1.397,1.308-15.438,2.597-26.254l0.01,0.18c10.429,13.497,26.994-8.589,27.608-6.749c0.06,0.179,0.184-1.988,0.363-6.025
	C883.573,1510.609,899.129,1510.856,897.432,1515.606z M1265.469,872.752v188.707c-0.898-0.519-1.919-0.788-2.956-0.781
	l-85.825,0.621c-5.988,0.043-8.14-7.889-2.951-10.878l27.592-15.894c3.89-2.241,3.892-7.853,0.005-10.097L991.151,903.081
	c-1.803-1.041-2.914-2.965-2.914-5.047V719.422c0-4.486,4.857-7.29,8.742-5.047l265.576,153.33
	C1264.358,868.746,1265.469,870.67,1265.469,872.752z M1124.902,905.695l-31.369-18.111l-0.09,31.773l31.369,18.111
	L1124.902,905.695z M1154.275,859.407c0.034-12.089-4.602-24.473-13.928-37.122c-6.875-9.358-15.915-17.261-27.102-23.72
	c-14.396-8.311-25.067-10.618-32.05-6.92c-6.983,3.678-11.009,11.524-12.08,23.56l29.901,21.521
	c0.686-6.506,2.225-10.481,4.617-11.865c2.393-1.403,5.413-1.052,9.06,1.053c3.402,1.964,5.924,4.328,7.584,7.083
	c1.661,2.775,2.495,5.779,2.486,9.023c-0.009,3.244-2.106,5.605-6.273,7.115c-7.823,2.93-12.871,5.223-15.106,6.879
	c-2.235,1.676-3.945,3.938-5.078,6.876c-1.132,2.918-1.724,7.239-1.74,12.961l-0.01,3.365l29.282,16.906
	c0.013-4.614,0.708-7.947,2.084-10.018c1.358-2.082,4.648-3.976,9.851-5.715c7.471-2.427,12.414-5.284,14.848-8.542
	C1153.055,868.591,1154.261,864.424,1154.275,859.407z M942.986,1556.557c0,0-0.802-0.799-1.958-1.848l-0.036,0.774
	c0,0-11.043,14.111-27.608,3.681c0,0-0.014-0.171-0.04-0.494c-0.662,6.705-2.601,25.678,0.193,26.875
	c3.221,1.38,52.455,6.442,67.18-11.043C995.441,1557.018,942.986,1556.557,942.986,1556.557z M950.808,925.408
	c-10.43-60.124-63.805-48.467-86.505-32.516c-7.14,5.017-10.695,11.917-12.085,19.35c0.147-0.788,0.316-1.571,0.513-2.345
	c7.036,1.115,13.93,3.273,19.152,5.288c2.804,1.082,5.637,2.385,7.625,4.637c4.357,4.932,3.096,13.065-1.222,18.03
	c-4.318,4.965-10.846,7.38-17.232,8.967c-1.388,0.345-2.799,0.648-4.225,0.915c0.966,2.755,1.882,5.075,2.566,6.777
	c4.295,10.696,26.381,16.912,46.355,26.013c19.974,9.101,26.653-4.806,26.653-4.806l-2.454-14.111c0,0-7.362-23.313-4.295-28.221
	C928.721,928.475,951.542,929.64,950.808,925.408z M1045.026,1096.982c0,0-39.265,73.008-65.646,82.21
	c-10.18,3.551-18.341,1.521-24.466-2.478c0.439,38.9,0.582,69.559,0.582,69.559l-0.152,3.223
	c-42.502,9.685-91.508,5.019-123.105-0.403l-0.453-8.341c0,0-0.132-4.315-0.29-11.793l-11.366-4.158
	c0,0,7.362-127.61,10.834-178.532c3.472-50.921,22.393-50.387,25.901-52.863l0,0.003c21.584-14.009,36.364-2.356,36.364-2.356
	v-7.443l30.452,5.02c1.273,5.436,2.586,10.398,2.586,10.398s16.061,5.356,22.176,16.066l0.261-0.323
	c1.227,0.613,36.197,15.951,32.516,106.751l44.786-43.559C1026.007,1077.963,1046.866,1081.644,1045.026,1096.982z
	 M953.833,1243.647c-0.172-30.316-1.391-213.322-5.893-224.574c-0.612-1.529-1.433-2.963-2.403-4.302
	c-18.298,17.229-24.481,46.175-27.792,72.185c-4.704,36.945-7.612,76.01,7.562,110.022
	C932.58,1213.28,943.163,1229.006,953.833,1243.647z"></path>
</svg>