<?xml version="1.0" standalone="no"?>
<svg version="1.1" id="Layer_1" xmlns="http://www.w3.org/2000/svg" xmlns:xlink="http://www.w3.org/1999/xlink" x="0px" y="0px" viewBox="0 0 595.28 595.28" enable-background="new 0 0 595.28 595.28" xml:space="preserve">
<path id="color_x5F_6" fill="#FFFFFF" d="M319.635,311.157c-10.091-29.254-27.014-17.404-36.283,0.142
	c-0.227,0.482-0.17,1.758,0.085,3.572c5.471-4.451,12.586-6.662,21.345-6.662C310.451,308.209,315.383,309.173,319.635,311.157
	L319.635,311.157z M217.787,328.676L217.787,328.676H192.19v46.147h-40.479l54.652-87.874h-27.411l-56.495,88.866v19.304h69.732
	v29.935h25.597v-29.935h14.287v-7.143l-14.287-13.153L217.787,328.676L217.787,328.676z M475.172,328.676L475.172,328.676h-25.597
	v46.147h-40.479l54.652-87.874h-27.411l-56.495,88.866v19.304h69.732v29.935h25.597v-29.935h14.287v-7.143l-14.287-13.153
	L475.172,328.676L475.172,328.676z M341.859,295.964L341.859,295.964l3.997,14.258l-7.342,53.66
	c-0.34,4.705-0.964,8.985-1.899,12.869c1.077,2.211,2.835,6.208,7.228,6.378c4.507,0.17,5.499,1.19,5.924,2.268
	c0.397,1.049-0.312,2.381-2.778,3.288c-1.531,0.596-8.844-0.113-14.457-0.623c-5.528,10.488-14.797,15.761-27.751,15.761
	c-23.357,0-35.036-16.073-35.036-48.218c0-4.847,0.255-9.298,0.822-13.408c-15.052-34.525-13.521-35.433-12.728-37.757
	c-9.78,11.679-14.655,28.941-14.655,51.761c0,46.545,20.523,69.817,61.597,69.817c40.394,0,60.576-23.272,60.576-69.817
	C365.358,327.031,357.506,306.962,341.859,295.964L341.859,295.964z M335.594,271.501L335.594,271.501h-58.025l-0.312-4.904
	l-2.211-35.83h63.156L335.594,271.501z"></path>
<path id="color_x5F_5" fill="#FFD2BB" d="M322.498,190.458c0,0-1.191,8.136-7.455,9.836v8.986c0,0-2.948,1.162-6.35,1.474v0.057
	c-0.113,0-0.255-0.028-0.397-0.028c-0.113,0-0.255,0.028-0.397,0.028v-0.057c-3.402-0.312-6.321-1.474-6.321-1.474v-8.986
	c-6.265-1.7-7.455-9.836-7.455-9.836c-2.211-0.34-4.932-3.543-3.742-7.455c0.085-0.227,0.17-0.453,0.255-0.652
	c0,0.086,0.028,0.143,0.028,0.143s2.523-2.126,3.288-1.531c0.765,0.596,1.446,3.231,1.446,3.231s1.105-4.167,6.01-4.507
	c4.932-0.34,8.476,2.636,13.068,1.275c4.564-1.36,4.819-4.224,4.819-4.224l0.51,7.37c0,0,0.34-0.51,1.105-2.041
	c0.567-1.105,1.276-1.332,2.806-1.7c0.907,0.17,1.928,0.765,2.495,2.636C327.402,186.915,324.709,190.118,322.498,190.458
	L322.498,190.458z M279.128,352.288L279.128,352.288l4.535,7.229c1.474-0.227,3.685-0.341,4.961-1.616
	c1.276-1.247,1.559-2.069,1.899-2.636l-3.288-8.136L279.128,352.288z M324.993,365.271L324.993,365.271l0.198,8.306
	c0.567,0.34,1.247,0.851,2.863,1.275c1.984,0.539,4.337-0.936,5.698-1.332c0.085-0.028,0.17-0.028,0.227-0.028l0.283-8.249
	L324.993,365.271z M112.508,176.937L112.508,176.937c-0.255,0.313-0.992,4.365-1.587,7.768l-7.597-0.113l2.069-7.824
	c0,0-0.284-2.069-1.021-3.826c-0.737-1.786,0-11.991,1.021-12.586c1.049-0.596,1.644-0.142,3.713-0.284
	c2.069-0.17,3.827-0.595,5.017,0.143c1.191,0.736,0.879,2.211,0.595,5.612s-0.453,5.046,1.021,4.875
	c1.502-0.142,2.665,0.313,1.786,1.928C116.646,174.272,112.933,176.342,112.508,176.937L112.508,176.937z M127.531,242.843
	L127.531,242.843c-0.595-0.454-1.672-5.755-2.438-9.95c0.255,3.175,0.113,7.37-1.672,11.197c-3.203,6.859-8.079,6.18-11.764,14.145
	c1.672,0.426,3.742,0.822,5.726,1.332c0.425-0.538,3.146-3.968,5.669-4.903c2.75-0.992,2.608-2.353,2.495-4.224
	c-0.142-1.871,0.624-3.487,1.871-4.365C128.665,245.195,128.524,243.579,127.531,242.843L127.531,242.843z M170.901,263.422
	L170.901,263.422c-1.389-0.936-3.373-0.51-4.734,0.425c-1.389,0.936-4.989,4.989-5.613,4.621c-0.624-0.369-0.453-0.681-1.134-0.766
	c-0.68-0.057-1.417,0.709-2.183,2.863c-0.737,2.183,0,4.28,0,4.28l-4.961,3.486l4.649,4.28c0,0,3.883-3.798,4.365-4.365
	c0.51-0.567,1.616-0.681,3.061-1.445c1.417-0.737,5.924-6.236,7.087-8.532C172.631,265.973,172.262,264.357,170.901,263.422
	L170.901,263.422z M31.607,407.592L31.607,407.592c0.028,0.028,0.057,0.028,0.057,0.028c0.255,0.482-0.028,1.247,0.879,3.401
	c0.652,1.531,1.757,2.041,3.09,1.729l1.077-0.368c0.255-0.113,0.482-0.256,0.737-0.397c0,0-0.028,0.057-0.057,0.171l9.213-3.232
	l-6.775-6.689L31.607,407.592z M106.583,432.225L106.583,432.225c0,0,0.057,0.029,0.142,0.086l-0.142-5.074h-8.504l2.58,9.212
	c0,0,0.028-0.028,0.057-0.028c0.51-0.085,1.134,0.397,3.487,0.199c1.672-0.171,2.466-1.077,2.579-2.438l-0.028-1.134
	C106.725,432.792,106.668,432.509,106.583,432.225L106.583,432.225z"></path>
<path id="color_x5F_4" fill="#00CEC9" d="M107.369,329.629c-0.054-0.006-0.109-0.012-0.164-0.018
	C107.26,329.618,107.315,329.623,107.369,329.629z M100.373,256.982c-0.146,0.014-0.278,0.029-0.415,0.044
	C100.096,257.011,100.227,256.996,100.373,256.982z M109.237,329.744c0.095,0.001,0.183-0.003,0.275-0.004
	C109.42,329.742,109.331,329.745,109.237,329.744z M83.11,325.742c5.357-0.069,10.53,0.783,18.626,2.821
	c0.017,0.004,0.033,0.007,0.05,0.012c-0.017-0.004-0.032-0.008-0.049-0.012C93.641,326.525,88.467,325.672,83.11,325.742z
	 M103.44,328.961c-0.066-0.015-0.131-0.029-0.198-0.044C103.309,328.932,103.374,328.946,103.44,328.961z M108.388,329.716
	c-0.043-0.003-0.09-0.007-0.134-0.01C108.297,329.709,108.344,329.714,108.388,329.716z M111.657,258.235L111.657,258.235
	c-3.324-1.334-7.03-1.499-9.814-1.357c0.024-0.001,0.047-0.003,0.072-0.004c4.843-0.183,8.491,0.929,9.472,1.265
	C111.476,258.172,111.568,258.199,111.657,258.235z M115.458,252.727c-0.028,0.028-0.056,0.052-0.084,0.08
	C115.401,252.778,115.43,252.754,115.458,252.727z M104.794,329.239c-0.013-0.003-0.027-0.005-0.041-0.008
	C104.766,329.234,104.781,329.237,104.794,329.239z M171.015,478.062c-2.409,0-4.365,1.956-4.365,4.365
	c0,2.381,1.956,4.337,4.365,4.337c2.381,0,4.337-1.956,4.337-4.337C175.352,480.018,173.396,478.062,171.015,478.062z
	 M120.018,248.803c-0.298,0.28-0.602,0.544-0.907,0.803C119.416,249.348,119.72,249.084,120.018,248.803z M99.223,257.114
	C99.223,257.114,99.223,257.114,99.223,257.114c0.127-0.016,0.251-0.033,0.39-0.05C99.474,257.08,99.351,257.097,99.223,257.114z
	 M114.264,254.038c-0.397,0.48-0.791,0.993-1.175,1.583C113.473,255.031,113.867,254.518,114.264,254.038z M112.336,256.888
	c0.165-0.302,0.334-0.573,0.502-0.848C112.67,256.315,112.501,256.587,112.336,256.888z M323.165,180.504
	c-0.102,0.027-0.194,0.054-0.288,0.081C322.971,180.559,323.063,180.531,323.165,180.504z M301.579,209.28L301.579,209.28
	c0,0.001,2.918,1.162,6.32,1.475v-0.001C304.503,210.443,301.59,209.285,301.579,209.28z M429.676,146.039
	c2.409,0,4.365-1.928,4.365-4.337s-1.956-4.337-4.365-4.337c-2.41,0-4.337,1.928-4.337,4.337S427.267,146.039,429.676,146.039z
	 M314.476,180.962c1.712-0.51,2.818-1.232,3.531-1.935c-0.713,0.703-1.819,1.424-3.53,1.934c-4.592,1.361-8.136-1.615-13.068-1.275
	c-2.146,0.149-3.565,1.03-4.482,1.975c0.917-0.944,2.335-1.825,4.481-1.974C306.34,179.347,309.884,182.323,314.476,180.962z
	 M437.642,138.103c2.381,0,4.337-1.956,4.337-4.337c0-2.41-1.956-4.366-4.337-4.366c-2.409,0-4.365,1.956-4.365,4.366
	C433.276,136.146,435.232,138.103,437.642,138.103z M437.642,145.302c-2.409,0-4.365,1.956-4.365,4.338
	c0,2.409,1.956,4.365,4.365,4.365c2.381,0,4.337-1.956,4.337-4.365C441.979,147.258,440.023,145.302,437.642,145.302z
	 M445.579,146.039c2.409,0,4.365-1.928,4.365-4.337s-1.956-4.337-4.365-4.337s-4.337,1.928-4.337,4.337
	S443.169,146.039,445.579,146.039z M490.848,194.257c0.011-0.017,0.026-0.04,0.037-0.057h-0.945
	c-0.019,0.019-0.036,0.038-0.055,0.057h-1.815c-0.001-0.017-0.002-0.039-0.003-0.057h-1.607c-0.002,0.018-0.004,0.039-0.005,0.057
	h-3.204c-0.016-0.019-0.031-0.038-0.048-0.057h-1.629c0.009,0.017,0.023,0.04,0.033,0.057h-2.976
	c-0.048-0.018-0.093-0.039-0.141-0.057h-8.958v40.394h30.302V194.2h-4.645c-0.059,0.018-0.115,0.039-0.174,0.057H490.848z
	 M321.16,181.655c0.052-0.074,0.107-0.141,0.163-0.206C321.268,181.513,321.212,181.58,321.16,181.655z M178.952,185.271
	c-2.409,0-4.337,1.956-4.337,4.365c0,2.41,1.927,4.337,4.337,4.337c2.41,0,4.365-1.927,4.365-4.337
	C183.317,187.227,181.361,185.271,178.952,185.271z M178.952,178.07c2.41,0,4.365-1.927,4.365-4.337
	c0-2.409-1.956-4.365-4.365-4.365s-4.337,1.956-4.337,4.365C174.615,176.144,176.542,178.07,178.952,178.07z M171.015,186.036
	c2.381,0,4.337-1.956,4.337-4.365c0-2.381-1.956-4.337-4.337-4.337c-2.409,0-4.365,1.956-4.365,4.337
	C166.65,184.08,168.605,186.036,171.015,186.036z M322.335,180.765c0.104-0.041,0.214-0.079,0.33-0.116
	C322.549,180.685,322.438,180.725,322.335,180.765z M186.917,186.036c2.381,0,4.337-1.956,4.337-4.365
	c0-2.381-1.956-4.337-4.337-4.337c-2.409,0-4.365,1.956-4.365,4.337C182.552,184.08,184.508,186.036,186.917,186.036z
	 M322.254,180.799c-0.326,0.134-0.596,0.305-0.824,0.535C321.661,181.104,321.927,180.936,322.254,180.799z M319.805,184.108
	c0,0,0.001-0.001,0.001-0.001l-0.51-7.37c0,0-0.001,0.005-0.001,0.005L319.805,184.108z M101.332,256.905
	c-0.038,0.002-0.075,0.004-0.113,0.007C101.255,256.909,101.295,256.908,101.332,256.905z M257.358,483.815h11.906v-5.046h-11.906
	v-3.911h12.841v-5.301h-20.495v24.746h20.863v-5.612h-13.209V483.815z M286.608,358.991c-0.031,0.009-0.062,0.018-0.094,0.027
	C286.546,359.009,286.577,359,286.608,358.991z M287.203,358.785c0.056-0.022,0.113-0.043,0.168-0.067
	C287.316,358.742,287.26,358.762,287.203,358.785z M337.704,388.522c-0.282-0.024-0.564-0.047-0.848-0.072
	C337.139,388.475,337.422,388.499,337.704,388.522z M288.044,358.362c-0.051,0.033-0.107,0.06-0.16,0.091
	C287.937,358.421,287.993,358.395,288.044,358.362z M343.043,383.052c-0.082-0.013-0.156-0.035-0.236-0.05
	C342.887,383.017,342.962,383.04,343.043,383.052z M341.554,382.627c0.017,0.007,0.031,0.016,0.048,0.023
	C341.585,382.643,341.57,382.634,341.554,382.627z M342.297,382.891c-0.051-0.014-0.098-0.035-0.148-0.05
	C342.199,382.856,342.246,382.876,342.297,382.891z M289.169,357.324c-0.022,0.025-0.041,0.049-0.064,0.074
	C289.128,357.373,289.147,357.349,289.169,357.324z M283.238,311.778c0.008-0.072,0.02-0.136,0.032-0.198
	c-0.011,0.056-0.022,0.113-0.032,0.171C283.238,311.761,283.238,311.77,283.238,311.778z M346.34,388.824
	c-1.592,0.202-5.007-0.002-8.604-0.299C341.343,388.825,344.754,389.034,346.34,388.824z M290.324,355.625
	c-0.063,0.118-0.129,0.242-0.206,0.379C290.194,355.869,290.262,355.743,290.324,355.625z M283.351,311.298
	c-0.028,0.057-0.05,0.129-0.067,0.208C283.303,311.426,283.325,311.356,283.351,311.298c0.009-0.015,0.018-0.03,0.026-0.046
	C283.369,311.268,283.36,311.282,283.351,311.298z M289.578,356.824c-0.034,0.045-0.066,0.089-0.103,0.135
	C289.511,356.913,289.544,356.869,289.578,356.824z M290.107,356.023c-0.039,0.069-0.085,0.144-0.131,0.219
	C290.022,356.167,290.067,356.093,290.107,356.023z M289.878,356.397c-0.037,0.057-0.077,0.116-0.118,0.175
	C289.802,356.512,289.841,356.454,289.878,356.397z M349.452,387.094c-0.436,0.577-1.229,1.137-2.462,1.59
	c-0.019,0.007-0.048,0.013-0.069,0.02c0.02-0.007,0.05-0.012,0.068-0.019C348.222,388.231,349.016,387.672,349.452,387.094z
	 M377.32,487.132l3.685,7.172h-8.617l-4.082-7.568c-0.539-0.964-0.992-1.616-1.389-1.899c-0.567-0.396-1.191-0.566-1.871-0.566
	h-0.68v10.034h-7.682v-24.746h12.756c2.353,0,4.167,0.227,5.414,0.623c1.247,0.397,2.239,1.162,3.005,2.239
	c0.765,1.105,1.162,2.438,1.162,4.025c0,1.361-0.312,2.552-0.879,3.544c-0.595,0.991-1.389,1.785-2.438,2.409
	c-0.652,0.396-1.531,0.737-2.665,0.992c0.907,0.312,1.559,0.595,1.984,0.907c0.283,0.198,0.68,0.623,1.219,1.304
	C376.782,486.254,377.122,486.764,377.32,487.132z M371.339,477.041c0-0.794-0.255-1.418-0.765-1.843s-1.446-0.624-2.835-0.624
	h-3.373v5.018h3.232c0.34,0,1.02-0.113,2.013-0.34c0.51-0.113,0.935-0.368,1.247-0.766
	C371.169,478.062,371.339,477.579,371.339,477.041z M178.952,486.026c-2.409,0-4.337,1.928-4.337,4.337
	c0,2.41,1.927,4.365,4.337,4.365c2.41,0,4.365-1.955,4.365-4.365C183.317,487.954,181.361,486.026,178.952,486.026z
	 M349.144,472.477c2.211,2.184,3.345,5.301,3.345,9.27c0,2.892-0.51,5.272-1.474,7.115c-0.964,1.843-2.381,3.288-4.224,4.309
	c-1.814,1.021-4.11,1.559-6.86,1.559c-2.778,0-5.102-0.453-6.917-1.332c-1.843-0.907-3.317-2.296-4.45-4.224
	c-1.134-1.928-1.701-4.337-1.701-7.229c0-4.024,1.105-7.171,3.373-9.41c2.239-2.269,5.386-3.374,9.383-3.374
	C343.73,469.16,346.905,470.266,349.144,472.477z M344.835,481.661c0-2.353-0.454-4.054-1.417-5.103
	c-0.935-1.077-2.211-1.615-3.798-1.615c-1.559,0-2.778,0.538-3.713,1.615c-0.935,1.105-1.417,2.92-1.417,5.414
	c0,2.495,0.482,4.31,1.389,5.387c0.935,1.105,2.211,1.644,3.798,1.644c1.644,0,2.92-0.538,3.827-1.615
	C344.382,486.339,344.835,484.411,344.835,481.661z M322.272,487.132l3.685,7.172h-8.617l-4.082-7.568
	c-0.539-0.964-0.992-1.616-1.389-1.899c-0.567-0.396-1.191-0.566-1.871-0.566h-0.68v10.034h-7.682v-24.746h12.728
	c2.381,0,4.167,0.227,5.414,0.623c1.276,0.397,2.268,1.162,3.033,2.239c0.765,1.105,1.134,2.438,1.134,4.025
	c0,1.361-0.283,2.552-0.879,3.544c-0.567,0.991-1.389,1.785-2.409,2.409c-0.652,0.396-1.531,0.737-2.665,0.992
	c0.907,0.312,1.559,0.595,1.984,0.907c0.283,0.198,0.68,0.623,1.219,1.304C321.733,486.254,322.073,486.764,322.272,487.132z
	 M316.291,477.041c0-0.794-0.255-1.418-0.765-1.843s-1.446-0.624-2.863-0.624h-3.345v5.018h3.232c0.34,0,1.02-0.113,2.013-0.34
	c0.51-0.113,0.907-0.368,1.247-0.766C316.12,478.062,316.291,477.579,316.291,477.041z M295.399,487.132l3.685,7.172h-8.617
	l-4.082-7.568c-0.51-0.964-0.992-1.616-1.389-1.899c-0.539-0.396-1.162-0.566-1.871-0.566h-0.68v10.034h-7.682v-24.746h12.756
	c2.353,0,4.167,0.227,5.414,0.623c1.247,0.397,2.239,1.162,3.005,2.239c0.765,1.105,1.162,2.438,1.162,4.025
	c0,1.361-0.312,2.552-0.879,3.544c-0.595,0.991-1.389,1.785-2.409,2.409c-0.68,0.396-1.559,0.737-2.693,0.992
	c0.907,0.312,1.559,0.595,1.984,0.907c0.283,0.198,0.68,0.623,1.219,1.304C294.861,486.254,295.229,486.764,295.399,487.132z
	 M289.418,477.041c0-0.794-0.255-1.418-0.765-1.843s-1.446-0.624-2.835-0.624h-3.373v5.018h3.232c0.34,0,1.02-0.113,2.013-0.34
	c0.51-0.113,0.935-0.368,1.247-0.766C289.248,478.062,289.418,477.579,289.418,477.041z M346.694,388.766
	c-0.09,0.02-0.195,0.036-0.303,0.051C346.501,388.802,346.603,388.785,346.694,388.766z M109.967,329.726
	c0.126-0.007,0.25-0.014,0.369-0.024C110.217,329.712,110.094,329.72,109.967,329.726z M326.781,374.431
	c0.004,0.001,0.007,0.003,0.01,0.004C326.788,374.434,326.785,374.432,326.781,374.431z M326.282,374.208
	c0.022,0.011,0.046,0.022,0.07,0.033C326.329,374.23,326.304,374.219,326.282,374.208z M540.228,399.881
	c-17.972,36.057-57.175,68.542-103.833,51.307c-51.648-19.077-89.66-16.838-145.361,0.709
	c-70.839,22.346-138.85,5.227-180.241-31.71l0.92-90.122l-0.794-0.425c-0.109,0.016-0.233,0.024-0.349,0.037
	c4.008-0.452,4.112-3.155,5.113-5.848c1.502-3.997,3.515-26.674,4.989-28.177c1.502-1.474,10.233,9.978,15.959,7.739
	c5.726-2.24,22.422-18.936,22.422-18.936l-2.099-1.873c0.301-0.294,3.874-3.793,4.336-4.336c0.51-0.567,1.616-0.681,3.061-1.445
	c1.417-0.737,5.924-6.236,7.087-8.532c1.193-2.296,0.824-3.912-0.537-4.847c-1.389-0.936-3.373-0.51-4.734,0.425
	c-1.389,0.936-4.989,4.989-5.613,4.621c-0.624-0.369-0.453-0.681-1.134-0.766c-0.68-0.057-1.417,0.709-2.183,2.863
	c-0.737,2.183,0,4.28,0,4.28l-4.961,3.486l2.7,2.486l-4.881-4.356c0,0-7.483,9.724-13.719,9.724
	c-6.236,0-10.346-22.054-13.833-24.549c-2.514-1.779-7.503-2.544-10.847-3.392c1.666,0.422,3.718,0.817,5.687,1.323
	c0.425-0.538,3.146-3.968,5.669-4.903c2.75-0.992,2.608-2.353,2.495-4.224c-0.142-1.871,0.624-3.487,1.871-4.365
	c1.247-0.88,1.106-2.496,0.113-3.232c-0.4-0.305-1.017-2.799-1.611-5.674c7.36-3.69,15.522-6.618,24.544-8.585
	c58.705-12.784,74.636-63.694,124.611-66.699c7.355-0.446,14.254-0.136,20.778,0.856c-7.74,7.044-5.188,19.751-5.188,19.751
	s2.523-2.125,3.288-1.53c0.763,0.594,1.442,3.215,1.446,3.23c0,0-0.001,0.002-0.001,0.002s-0.681-2.635-1.446-3.231
	c-0.765-0.595-3.288,1.531-3.288,1.531s-0.028-0.057-0.028-0.143c-0.085,0.199-0.17,0.425-0.255,0.652
	c-1.19,3.912,1.531,7.115,3.742,7.455c0,0,1.19,8.136,7.455,9.836v6.01c-0.824,0.142-4.905,0.907-9.608,2.098
	c-3.146,0.482-6.917,1.389-9.836,3.146c-2.013,0.822-3.742,1.729-4.904,2.693c-5.698,4.705-13.181,16.157-12.954,31.407
	c0.142,8.787,8.699,17.232,12.981,20.946l0,0.003l0.312,4.904l0.482,0.113c0,0-17.008,23.471-20.211,32.825
	c-0.142,0.425-0.255,0.822-0.34,1.19c-0.504,2.144-0.25,0.537,0.339-1.189c-9.78,11.679-14.655,28.941-14.655,51.761
	c0,46.545,20.523,69.817,61.597,69.817c40.394,0,60.576-23.272,60.576-69.817c0.001-29.17-7.851-49.239-23.498-60.237l3.997,14.258
	l-7.342,53.66c-0.339,4.691-0.961,8.959-1.892,12.834c-0.021-0.044-0.044-0.093-0.065-0.135c-1.013-2.025-1.385-3.28-2.579-3.096
	l0.281-8.187h4.054l7.54-55.077l-10.855-38.72h0.595l0.257-3.828c3.487-2.835,14.116-12.246,14.258-22.025
	c0.226-15.25-7.258-26.702-12.955-31.407c-1.162-0.964-2.891-1.871-4.904-2.693c-2.92-1.758-6.69-2.664-9.836-3.146
	c-2.891-0.737-5.556-1.304-7.37-1.673v2.552c0,0-2.948,1.162-6.35,1.474v0.057c-0.113,0-0.255-0.028-0.397-0.028
	c-0.113,0-0.255,0.028-0.397,0.028v-0.001c0.142,0,0.283-0.028,0.396-0.028c0.142,0,0.284,0.028,0.397,0.028v-0.057
	c3.402-0.312,6.35-1.474,6.35-1.474v-8.986c6.264-1.7,7.455-9.836,7.455-9.836c2.211-0.34,4.904-3.543,3.713-7.455
	c-0.566-1.868-1.585-2.464-2.491-2.635c0.56-0.133,1.222-0.286,2.038-0.513c1.626-0.456,4.045-0.895,6.627-2.057
	c13.585,9.788,25.435,23.755,36.659,41.177c4.489,6.969,10.054,12.042,16.381,15.704h-1.727v10.488h27.014v11.849h2.211v-11.849
	h61.937v11.849h2.183v-11.849h30.217v-2.403c2.958,0.916,5.706,2.099,8.193,3.622C552.105,268.864,569.708,340.751,540.228,399.881z
	 M232.073,387.976l-14.287-13.153l0.001-46.147H192.19v46.147h-40.479l54.652-87.874h-27.411l-56.495,88.866v19.304h69.732v29.935
	h25.597v-29.935h14.287V387.976z M489.458,387.976l-14.287-13.153l0.001-46.147h-25.597v46.147h-40.479l54.652-87.874h-27.411
	l-56.495,88.866v19.304h69.732v29.935h25.597v-29.935h14.287V387.976z M178.952,478.826c2.41,0,4.365-1.955,4.365-4.365
	c0-2.381-1.956-4.337-4.365-4.337s-4.337,1.956-4.337,4.337C174.615,476.871,176.542,478.826,178.952,478.826z M186.917,478.062
	c-2.409,0-4.365,1.956-4.365,4.365c0,2.381,1.956,4.337,4.365,4.337c2.381,0,4.337-1.956,4.337-4.337
	C191.254,480.018,189.298,478.062,186.917,478.062z M320.059,312.403c-0.142-0.425-0.283-0.821-0.425-1.246
	c-4.252-1.984-9.184-2.948-14.852-2.948c-8.759,0-15.874,2.211-21.345,6.662c-0.138-0.98-0.215-1.796-0.224-2.421
	c0,0.025-0.003,0.042-0.003,0.067c0,0.028,0,0.056,0,0.113c0.199,6.549,7.682,32.287,7.682,32.287l-3.604,2.343l3.232,7.998
	c0.055-0.099,0.111-0.192,0.173-0.278c0.425-0.595,1.899-0.255,1.899-0.255l0.085,0.341c0,0,0.964,2.579,2.239,4.139
	c1.305,1.559,1.815,2.154,2.694,4.564c0.85,2.438,0.425,3.798-0.709,4.082c-1.105,0.255-15.08,11.111-17.688,11.565
	c-2.58,0.425-3.884-0.369-4.054-1.475c-0.17-1.134,0.17-2.522,3.969-4.932c3.798-2.41,3.203-6.889,3.033-9.326
	c-0.17-2.41-0.539-3.714,0.85-4.054c0.191-0.047,0.411-0.085,0.647-0.121l-4.406-7.023l-3.184,2.07c0,0-2.424-5.27-5.501-12.353
	c-0.567,4.109-0.821,8.558-0.821,13.403c0,32.145,11.679,48.218,35.036,48.218c12.954,0,22.223-5.273,27.751-15.761
	c1.073,0.097,2.207,0.202,3.352,0.304c-4.82-0.428-9.46-0.928-10.012-0.759c-1.105,0.341-2.154-0.652-2.636-3.175
	c-0.454-2.523-0.312-3.288,0.028-5.301c0.312-1.984-0.17-4.705-0.17-4.705l-0.085-0.34c0,0,1.105-1.049,1.757-0.737
	c0.374,0.172,0.73,0.447,1.302,0.748c-0.357-0.191-0.63-0.372-0.877-0.52l-0.197-8.279h-4.453
	C320.541,365.298,321.023,315.323,320.059,312.403z"></path>
<path id="color_x5F_3" fill="#E84393" d="M124.073,103.01c0,0.623-0.51,1.134-1.134,1.134c-0.652,0-1.162-0.511-1.162-1.134
	c0-0.624,0.51-1.135,1.162-1.135C123.563,101.875,124.073,102.386,124.073,103.01z M101.736,328.563
	c-12.954-3.261-18.425-3.487-29.14-1.758c-4.536,0.737-8.503,0.992-11.253,0.51c0,0,0-0.001,0-0.001l0,0.001c0,0,0,0-0.001,0
	c0,0.002,0,0.004-0.001,0.006c-0.038,0.154-4.404,17.763,5.841,36.136c3.345,5.952,3.657,11.281,3.657,11.281l-33.562,24.917
	l11.31,10.97l37.246-16.923c3.88,16.905,7.427,33.535,7.427,33.535h17.461l0.992-97.172l-0.794-0.425
	C109.021,329.923,106.187,329.668,101.736,328.563z M135.298,123.702l2.778,0.453l-7.795,48.898l-14.372-2.296
	c-0.198-0.822-0.142-2.155,0.028-3.997l11.991,1.928l6.548-41.103l-31.266-4.989l-6.548,41.103l6.661,1.049
	c-0.113,1.304-0.227,2.664-0.255,3.969l-9.978-1.588l7.767-48.897l2.466,0.396c2.409-2.607,16.583-17.631,19.814-17.659
	C126.51,100.969,134.192,120.782,135.298,123.702z M134.59,123.589c-3.317-8.702-9.213-22.025-11.452-22.025
	c-2.523,0.028-14.202,11.934-19.106,17.178L134.59,123.589z M334.999,271.501h-42.746l-14.202,0.113
	c0,0-17.008,23.471-20.211,32.825c-0.142,0.425-0.255,0.822-0.34,1.19c-1.106,4.705,10.8,31.38,13.039,36.51
	c3.09,7.115,5.528,12.416,5.528,12.416l14.825-9.638c0,0-7.483-25.738-7.682-32.287c0-0.057,0-0.085,0-0.113
	c0-0.227,0-0.425,0.028-0.595c0-0.057,0-0.113,0-0.17c0.028-0.17,0.057-0.341,0.113-0.454c11.877-21.6,27.694-25.001,36.283-0.142
	c0.142,0.426,0.283,0.822,0.425,1.247c0.964,2.92,0.482,52.895,0.482,52.895h17.773l7.54-55.077L334.999,271.501z"></path>
<path id="color_x5F_2" fill="#FBC02D" d="M350.109,245.648c-0.142,9.779-10.771,19.19-14.258,22.025l2.353-36.907h-63.156
	l2.211,35.83c-4.281-3.713-12.841-12.16-12.983-20.948c-0.227-15.25,7.256-26.702,12.954-31.407
	c1.162-0.964,2.891-1.871,4.904-2.693c2.919-1.757,6.69-2.664,9.836-3.146c4.705-1.191,8.787-1.956,9.609-2.098v2.977
	c0,0,2.919,1.162,6.321,1.474v0.057c0.142,0,0.284-0.028,0.397-0.028c0.142,0,0.284,0.028,0.397,0.028v-0.057
	c3.402-0.312,6.35-1.474,6.35-1.474v-2.552c1.814,0.369,4.479,0.936,7.37,1.673c3.146,0.482,6.916,1.388,9.836,3.146
	c2.013,0.822,3.742,1.729,4.904,2.693C342.851,218.946,350.335,230.398,350.109,245.648z M446.572,173.648
	c-3.26,0-5.924,2.665-5.924,5.925v0.028c-15.874,2.579-21.487,15.959-23.244,22.252c-0.879-4.45-3.969-12.189-14.428-16.64
	c0-0.085,0.028-0.17,0.028-0.255c0-3.288-2.665-5.925-5.953-5.925c-3.26,0-5.924,2.637-5.924,5.925c0,3.288,2.663,5.926,5.923,5.926
	c2.806,0,5.131-1.928,5.754-4.536c14.076,6.113,13.867,18.044,13.834,18.822H402.35l1.531,8.815
	c0.425,2.467,2.863,16.385,3.628,20.778h20.041l3.742-20.778l1.587-8.815h-14.8c0.43-1.296,2.861-7.469,11.088-9.608
	c0.68,2.494,2.948,4.365,5.698,4.365c3.26,0,5.924-2.664,5.924-5.925c0-3.288-2.665-5.952-5.924-5.952
	c-3.288,0-5.953,2.664-5.953,5.952c0,0.143,0.057,0.313,0.057,0.482c-5.726,1.474-8.844,4.818-10.46,7.37
	c1.701-6.18,7.03-18.709,22.252-21.175c0.51,2.749,2.92,4.818,5.811,4.818c3.288,0,5.924-2.636,5.924-5.924
	C452.496,176.313,449.86,173.648,446.572,173.648z M136.376,286.185c-6.236,0-10.346-22.054-13.833-24.549
	c-2.523-1.785-7.54-2.55-10.885-3.401l-0.001,0c-0.089-0.036-0.181-0.062-0.27-0.096c-0.981-0.336-4.629-1.447-9.472-1.265
	c-0.196,0.01-0.393,0.019-0.58,0.031c-0.039,0.002-0.078,0.004-0.117,0.007c-1.161,0.081-2.109,0.208-2.755,0.312
	c-3.011,0.497-6.294,1.57-9.581,3.587c-0.677,1.076-1.46,2.173-2.381,3.293c-2.328,2.832-4.766,4.743-7.064,6.031
	c-6.728,10.361-8.115,24.323-11.826,34.158c-2.604,6.021-5.924,12.156-8.732,16.277c-4.734,7.002,3.005,7.994,13.72,6.236
	c10.715-1.729,16.186-1.503,29.14,1.758c12.954,3.232,12.472-0.765,13.946-4.734c1.502-3.997,3.515-26.674,4.989-28.177
	c1.502-1.474,10.233,9.978,15.959,7.739c5.726-2.24,22.422-18.936,22.422-18.936l-8.958-7.994
	C150.095,276.461,142.612,286.185,136.376,286.185z M128.24,133.794l-20.693-3.516l-4.648,27.213l20.721,3.515L128.24,133.794z
	 M105.592,221.526c3.741-16.214,8.872-36.765,8.872-36.765l-14.457-0.227l-7.609,36.601c2.504,0.572,4.737,1.482,6.627,2.489
	C100.849,222.632,103.013,221.896,105.592,221.526z M490.848,194.257h4.167c17.886-5.414,23.329-20.778,23.329-20.778
	C501.875,178.468,493.229,190.486,490.848,194.257z M504.483,145.614c-17.122,13.408-16.782,41.613-16.413,48.643h1.815
	C509.642,174.725,504.483,145.614,504.483,145.614z M452.183,171.92c0,0,8.76,15.561,26.448,22.337h2.976
	C479.283,190.062,470.382,176.2,452.183,171.92z M465.988,139.435c0,0-2.211,32.598,17.263,54.822h3.204
	c0.708-7.087,1.587-24.974-5.443-36.964C472.082,142.071,465.988,139.435,465.988,139.435z M473.302,193.831
	c0,0-8.533-3.854-20.098-5.272C453.204,188.559,462.53,193.831,473.302,193.831z"></path>
<path id="color_x5F_1" fill="#0984E3" d="M122.258,437.725c-0.993,1.813-1.644,1.502-6.52,3.373
	c-4.875,1.899-14.201,1.956-14.683,1.53c-1.105-0.964-0.879-6.122-0.34-6.208c0.511-0.085,1.134,0.397,3.487,0.199
	c2.353-0.228,3.033-1.985,2.381-4.395c0,0,5.131,3.147,10.29,3.431C122.032,435.938,123.223,435.938,122.258,437.725z
	 M294.916,359.205c-1.275-1.56-2.239-4.139-2.239-4.139l-0.085-0.341c0,0-1.474-0.34-1.899,0.255
	c-0.425,0.596-0.595,1.475-2.069,2.92c-1.474,1.474-4.224,1.389-5.613,1.729c-1.389,0.34-1.02,1.644-0.85,4.054
	c0.17,2.437,0.765,6.916-3.033,9.326c-3.799,2.41-4.139,3.798-3.969,4.932c0.17,1.106,1.474,1.9,4.054,1.475
	c2.608-0.454,16.583-11.31,17.688-11.565c1.134-0.284,1.559-1.644,0.709-4.082C296.731,361.359,296.221,360.764,294.916,359.205z
	 M37.446,411.985c-2.126,1.333-3.969,1.22-4.904-0.964c-0.907-2.154-0.624-2.919-0.879-3.401c-0.255-0.453-5.216,0.851-5.811,2.211
	c-0.255,0.596,2.608,9.468,5.868,13.55c3.288,4.082,3.175,4.791,5.187,5.188c1.984,0.396,1.616-0.737,0.34-5.754
	C36.001,417.825,37.446,411.985,37.446,411.985z M343.843,383.129c-4.479-0.17-6.236-4.365-7.285-6.548
	c-1.077-2.154-1.417-3.458-2.806-3.062c-1.361,0.396-3.713,1.871-5.698,1.332c-2.013-0.538-2.608-1.19-3.288-1.502
	c-0.652-0.312-1.757,0.737-1.757,0.737l0.085,0.34c0,0,0.482,2.721,0.17,4.705c-0.34,2.013-0.482,2.778-0.028,5.301
	c0.482,2.523,1.531,3.516,2.636,3.175c1.106-0.34,18.652,2.013,21.118,1.077c2.466-0.907,3.175-2.239,2.778-3.288
	C349.343,384.319,348.35,383.299,343.843,383.129z M339.052,172.655c4.507-5.584,2.976-15.505-5.924-20.183
	c-8.901-4.677-11.424,6.974-16.781,6.18c-31.408-4.507-25.682,23.84-25.682,23.84s2.523-2.125,3.288-1.53
	c0.765,0.596,1.446,3.231,1.446,3.231s1.105-4.167,6.01-4.507c4.932-0.34,8.476,2.636,13.068,1.275
	c4.564-1.36,4.819-4.224,4.819-4.224l0.51,7.37c0,0,0.34-0.51,1.105-2.041c0.765-1.53,1.786-1.36,4.847-2.211
	C328.791,179.004,334.574,178.24,339.052,172.655z M383.698,234.679v10.488h27.014v11.849h2.211v-11.849h61.937v11.849h2.183
	v-11.849h30.217v-10.488H383.698z M105.592,221.526c-2.579,0.37-4.743,1.106-6.567,2.098c-3.242-1.727-7.466-3.2-12.4-3.094
	C75,220.78,71.5,236.655,75.75,248.155s-7,24.5-7,24.5s9.56,1.411,17.75-8.552c4.001-4.867,5.522-9.35,6.136-13.188
	c2.199,4.066,4.911,6.473,4.911,6.473s7.769-1.697,14.111,0.847c3.685-7.965,8.561-7.286,11.764-14.145
	c1.785-3.827,1.927-8.022,1.672-11.197C125.093,232.893,123.059,219.022,105.592,221.526z"></path>
</svg>