<?xml version="1.0" standalone="no"?>
<svg version="1.1" id="Layer_1" xmlns="http://www.w3.org/2000/svg" xmlns:xlink="http://www.w3.org/1999/xlink" x="0px" y="0px" viewBox="0 0 595.28 595.28" enable-background="new 0 0 595.28 595.28" xml:space="preserve">
<polygon id="color_x5F_9" fill="#F9F4A6" points="398.282,214.067 379.223,175.448 360.163,214.067 317.545,220.259 348.384,250.32 
	341.104,292.766 379.223,272.726 417.342,292.766 410.061,250.32 440.9,220.259 "></polygon>
<path id="color_x5F_8" fill="#175F83" d="M540.372,441.712c-0.001,0.661-0.422,1.196-0.94,1.196c-0.001,0-0.001,0-0.002,0
	l-138.604-0.304c-0.519-0.001-0.939-0.539-0.939-1.2c0-0.351,0.122-0.664,0.311-0.883h-17.502c0.484,0.05,0.865,0.56,0.864,1.19
	c0,0.661-0.421,1.197-0.94,1.197c0,0,0,0-0.001,0l-320.717-0.304c-0.519,0-0.94-0.537-0.939-1.199c0-0.661,0.421-1.197,0.94-1.197
	c0,0,0,0,0.001,0l84.861,0.08v-21.521h84.473v-50.705h97.416v-58.439h97.416v130.64l113.362,0.248
	C539.953,440.513,540.373,441.05,540.372,441.712z"></path>
<path id="color_x5F_7" fill="#788F9C" d="M216.291,418.767h-69.524v21.441H99.538c0,0,0.641-7.688,3.661-8.603
	c3.02-0.915,4.668,2.105,4.668,2.105s-1.19-4.027,1.098-5.491c2.288-1.464,4.942,3.569,4.942,3.569s-2.563-6.406,0.458-7.505
	c3.02-1.098,7.505,2.837,7.505,2.837s-1.281-3.752,0.641-5.034s6.315,2.197,6.315,2.197s-2.288-4.302-1.281-7.596
	c1.007-3.295,4.118-0.275,4.118-0.275s-4.576-8.603-2.288-9.884c2.288-1.281,6.498,1.556,6.498,1.556s-3.02-5.949-0.458-7.322
	c2.563-1.373,5.217,3.386,5.217,3.386s-0.458-7.596,2.105-8.695c2.563-1.098,4.576,3.935,4.576,3.935s1.647-12.264,4.21-13.271
	c2.563-1.007,4.851,4.393,4.851,4.393s11.166-21.965,20.135-19.586s0.183,25.992,0.183,25.992s2.38-3.661,5.491-3.112
	c3.112,0.549,1.079,6.223,1.079,6.223s0.762-0.899,1.874-1.931l-0.67,3.195h2.173l-0.976,8.918h-0.696v8.545h18.653
	c0,0,0.279-1.396-0.503-1.759c-0.782-0.363-11.449-4.412-11.449-4.412v-2.374h-0.614h-0.946l2.928-8.918h2.223l0.064-0.162
	c0.299,0.096,0.617,0.215,0.955,0.362c3.569,1.556,0.732,10.983,0.732,10.983s4.21-7.505,8.054-6.315
	c3.844,1.19,0.641,8.878,0.641,8.878s6.406-5.583,9.152-4.576C217.229,411.334,216.525,417.194,216.291,418.767z M223.001,413.575
	c-3.948-0.464-6.062,3.85-6.62,5.192h10.369C226.435,416.45,225.515,413.871,223.001,413.575z M231.24,418.767v-5.327
	c-1.303,1.301-2.366,3.445-3.12,5.327H231.24z M525.381,434.257c-2.089-0.633-3.229,1.456-3.229,1.456s0.823-2.786-0.76-3.799
	c-1.583-1.013-3.419,2.469-3.419,2.469s1.773-4.432-0.317-5.191s-5.191,1.963-5.191,1.963s0.886-2.596-0.443-3.482
	c-1.329-0.887-4.368,1.519-4.368,1.519s1.583-2.975,0.886-5.254c-0.696-2.279-2.849-0.19-2.849-0.19s3.165-5.951,1.583-6.837
	c-1.583-0.886-4.495,1.076-4.495,1.076s2.089-4.115,0.317-5.065c-1.773-0.95-3.608,2.342-3.608,2.342s0.316-5.254-1.456-6.014
	c-1.773-0.76-3.165,2.722-3.165,2.722s-1.14-8.483-2.912-9.179c-1.773-0.696-3.355,3.039-3.355,3.039s-2.19-4.307-5.174-8.087
	l-3.123-73.11c3.908-15.485,20.395-44.174,20.395-44.174c-11.394,15.558-19.772,36.061-20.648,38.242l-3.91-91.529l0.221,37.931
	c-6.472-15.419-16.207-26.81-16.207-26.81c6.005,8.124,13.171,25.507,16.245,33.328l0.501,86.002
	c-5.044-6.7-11.417-10.438-11.417-10.438c4.957,4.957,8.922,10.5,11.441,14.399l0.134,22.952l0.046,7.875
	c-0.822-0.272-1.638-0.339-2.43-0.129c-6.204,1.646-0.127,17.979-0.127,17.979s-1.646-2.532-3.798-2.152
	c-2.152,0.38-0.746,4.305-0.746,4.305s-3.052-3.609-5.205-3.419c-2.152,0.19-0.38,4.431-0.38,4.431s-0.95-1.076-3.419,0
	c-2.469,1.076-0.506,7.597-0.506,7.597s-2.912-5.191-5.571-4.368c-2.659,0.823-0.443,6.141-0.443,6.141s-4.431-3.862-6.331-3.165
	c-1.899,0.696-0.95,6.014-0.95,6.014s-1.456-4.242-4.685-3.862c-0.312,0.037-0.579,0.137-0.824,0.265
	c-0.478,0.659-0.955,1.259-1.409,1.799c-0.247,0.686-0.367,1.447-0.422,2.128c-0.26-0.126-0.52-0.234-0.78-0.326
	c-0.041-0.105-0.082-0.211-0.126-0.319c-0.071,0.074-0.136,0.141-0.204,0.21c-6.441-1.94-12.675,6.003-12.675,6.003v8.662h17.523
	h15.137h69.181C527.913,440.208,527.47,434.89,525.381,434.257z"></path>
<path id="color_x5F_6" fill="#A4BFCD" d="M442.081,315.446c-7.993-12.859-1.043-20.504,7.993-31.625
	c9.036-11.121,6.712-16.548-1.281-26.974c-10.973-14.312-3.932-29.326,3.366-40.447c7.298-11.121,4.17-20.157,3.475-36.143
	c-0.695-15.986,15.986-29.192,17.029-7.646c1.043,21.547,11.121,24.674,21.199,36.143s3.128,22.937,1.043,40.661
	c-2.085,17.724,14.596,12.859,22.242,34.753c7.646,21.894-9.731,24.674-16.681,40.661c-6.951,15.986,4.518,16.681,6.255,35.448
	c1.738,18.766-20.852,23.979-20.852,23.979c-1.014,0.082-2.016,0.143-3.012,0.193l-2.555-59.813
	c3.908-15.485,20.395-44.174,20.395-44.174c-11.394,15.557-19.772,36.06-20.648,38.242l-3.91-91.529l0.221,37.932
	c-6.472-15.419-16.207-26.811-16.207-26.811c6.005,8.124,13.171,25.507,16.245,33.328l0.501,86.002
	c-5.044-6.7-11.417-10.438-11.417-10.438c4.957,4.957,8.922,10.5,11.441,14.399l0.134,22.952
	c-21.267-0.484-35.832-10.627-23.158-44.765C458.3,327.913,450.074,328.304,442.081,315.446z"></path>
<path id="color_x5F_5" fill="#FFD2BB" d="M242.61,213.468c-0.12,0.989-0.99,4.596-0.851,5.924c0.139,1.328-3.802,5.075-4.812,5.691
	c-1.01,0.615-3.462,1.76-3.463,1.761l-31.754,30.718l-16.536-14.854l8.94-9.685l9.262,10.287l18.353-14.964l6.718-5.481
	c0,0,0.114-2.235,1.064-3.96c0.95-1.725,2.555-3.212,3.059-4.55c0.505-1.338,0.127-2.408,0.682-2.567
	c0.555-0.159,1.626,1.466,1.924,2.318s-0.514,1.863-0.831,2.616c-0.317,0.753-0.166,1.181-0.166,1.181s3.854-3.558,4.139-4.145
	c0.285-0.587,2.111-2.724,3.03-3.034C242.289,210.414,242.73,212.479,242.61,213.468z M186.058,188.308
	c-0.047-0.812-1.52-5.156-1.52-5.156c0.101-1.341,0.097-2.572,0.022-3.725l-0.065-0.783c-0.012-0.117-0.03-0.227-0.043-0.341
	c-0.029,0.38-0.262,1.815-2.108,3.738c-2.161,2.251-10.584,2.431-10.584,2.431s0.409-1.711-1.393-2.251
	c-1.801-0.54-3.152,0.878-2.071,3.546c1.081,2.668,1.981,2.398,2.341,3.748c0.36,1.351-5.489,6.276-5.489,6.276l-0.002-0.003
	c0.37,2.039,0.542,4.348,0.616,5.71l10.648,3.216c-0.079-2.039-0.098-5.103,0.476-5.498c0.868-0.597,2.011-0.498,4.993-2.008
	c2.144-1.085,2.605-6.675,2.659-7.164C184.593,189.556,186.091,188.884,186.058,188.308z M124.992,235.532l-5.846,41.385
	c-0.229,0.915-0.421,1.671-0.526,2.059c-0.419,1.555-4.127,6.001-4.416,7.296c-0.289,1.294-0.048,4.12,1.033,5.007
	c1.081,0.887,6.803,2.342,7.415,1.843c0.612-0.498,0.831-2.689,1.144-3.424c0.313-0.736,1.427-1.028,1.427-1.028
	c-0.527,0.747-1.398,2.873-1.167,3.321c0.23,0.448,1.484,1.491,1.838,0.457c0.355-1.034,2.971-3.312,2.822-5.545
	c-0.148-2.233-3.891-6.71-3.891-6.71l0.583-2.345l0.037,0.004l10.198-35.93l12.128-8.24l-7.986-10.957L124.992,235.532z
	 M185.662,410.212h4.445l2.928-8.918h-6.397L185.662,410.212z M94.872,376.147l2.845,3.559l6.816-3.649l-3.938-4.154L94.872,376.147
	z"></path>
<path id="color_x5F_4" fill="#00CEC9" d="M400.826,442.604l94.02,0.206c-44.79,40.261-112.016,65.014-196.324,64.564
	c-91.934-0.49-180.517-21.365-229.368-64.763l313.467,0.297c0,0,0,0,0.001,0c0.519,0,0.94-0.536,0.94-1.197
	c0-0.629-0.381-1.14-0.864-1.19h17.502c-0.189,0.219-0.311,0.532-0.311,0.883C399.887,442.066,400.307,442.603,400.826,442.604z
	 M146.767,440.208H99.538c0,0,0.641-7.688,3.661-8.603c3.02-0.915,4.668,2.105,4.668,2.105s-1.19-4.027,1.098-5.491
	c2.288-1.464,4.942,3.569,4.942,3.569s-2.563-6.406,0.458-7.505c3.02-1.098,7.505,2.837,7.505,2.837s-1.281-3.752,0.641-5.034
	c1.922-1.281,6.315,2.197,6.315,2.197s-2.288-4.302-1.281-7.596c1.007-3.295,4.118-0.275,4.118-0.275s-4.576-8.603-2.288-9.884
	c2.288-1.281,6.498,1.556,6.498,1.556s-3.02-5.949-0.458-7.322c2.563-1.373,5.217,3.386,5.217,3.386s-0.458-7.596,2.105-8.695
	c2.563-1.098,4.576,3.935,4.576,3.935s1.647-12.264,4.21-13.271s4.851,4.393,4.851,4.393s11.166-21.965,20.135-19.586
	c8.969,2.38,0.183,25.992,0.183,25.992s2.38-3.661,5.491-3.112c3.112,0.549,1.079,6.223,1.079,6.223s0.762-0.899,1.874-1.931
	l12.068-57.578l-19.726-26.044h-4.094l-14.887,32.587l-52.962,30.05l-1.002-1.057l-6.816,3.649l0.461,0.576l0.383,0.48l-1.854,1.482
	c0,0,3.497,10.86,3.701,11.698c0.205,0.837-1.06,1.491-1.06,1.491l-11.646-14.571l6.675-5.335l2.481,3.104l-1.985-2.484l5.722-4.243
	l-1.387-1.463l43.099-34.761l6.678-47.338l0.137,0c0.044-0.205,5.185-24.036,4.683-33.078c-0.154-2.778-0.303-6.184-0.402-10.019
	c-8.139,8.208-16.392,14.956-24.573,20.685l-3.384,11.923l-0.037-0.004l-0.583,2.345c0,0,3.743,4.477,3.891,6.71
	c0.148,2.233-2.467,4.511-2.822,5.545c-0.355,1.034-1.608-0.009-1.838-0.457c-0.138-0.269,0.122-1.143,0.466-1.961
	c0,0.001-0.001,0.002-0.001,0.002c-0.243-0.102-0.492-0.194-0.74-0.287c-0.304,0.772-0.527,2.887-1.128,3.377
	c-0.612,0.499-6.334-0.956-7.415-1.843c-1.081-0.887-1.322-3.712-1.033-5.007c0.289-1.294,3.997-5.741,4.416-7.296
	c0.105-0.388,0.297-1.144,0.526-2.059l0.716-5.071c-49.694,30.903-94.02,29.406-89.371,96.216
	c1.99,28.597,15.064,52.58,36.037,72.15l80.239,0.076V440.208z M549.735,356.853c-7.729,26.219-21.231,50.236-39.926,71.02
	c-1.123,0.506-2.154,1.32-2.154,1.32s1.583-2.975,0.886-5.254c-0.696-2.279-2.849-0.19-2.849-0.19s3.165-5.951,1.583-6.837
	c-1.583-0.886-4.495,1.076-4.495,1.076s2.089-4.115,0.317-5.065c-1.773-0.949-3.608,2.343-3.608,2.343s0.316-5.254-1.456-6.014
	c-1.773-0.76-3.165,2.722-3.165,2.722s-1.14-8.483-2.912-9.179c-1.773-0.696-3.355,3.039-3.355,3.039s-2.19-4.307-5.174-8.087
	l-3.123-73.11l2.555,59.813c0.996-0.05,1.998-0.111,3.012-0.193c0,0,22.589-5.213,20.852-23.979
	c-1.738-18.767-13.206-19.462-6.255-35.448c6.951-15.986,24.327-18.766,16.681-40.661c-7.646-21.894-24.327-17.029-22.242-34.753
	s9.036-29.192-1.043-40.661c-10.078-11.468-20.157-14.596-21.199-36.143c-1.043-21.547-17.724-8.341-17.029,7.646
	c0.695,15.986,3.823,25.022-3.475,36.143c-7.298,11.121-14.339,26.134-3.366,40.447c7.993,10.426,10.317,15.853,1.281,26.974
	c-9.036,11.121-15.986,18.766-7.993,31.625c7.993,12.858,16.219,12.467,11.816,24.327c-12.674,34.138,1.891,44.281,23.158,44.765
	l0.046,7.875c-0.822-0.272-1.638-0.339-2.43-0.129c-6.204,1.646-0.127,17.979-0.127,17.979s-1.646-2.532-3.798-2.152
	c-2.152,0.38-0.746,4.305-0.746,4.305s-3.052-3.609-5.205-3.419c-2.152,0.19-0.38,4.432-0.38,4.432s-0.95-1.076-3.419,0
	c-2.469,1.076-0.506,7.597-0.506,7.597s-2.912-5.191-5.571-4.368c-2.659,0.823-0.443,6.141-0.443,6.141s-4.431-3.862-6.331-3.165
	c-1.899,0.696-0.95,6.014-0.95,6.014s-1.456-4.242-4.685-3.862c-0.312,0.037-0.579,0.137-0.824,0.265
	c-0.478,0.659-0.954,1.259-1.409,1.799c-0.247,0.686-0.367,1.447-0.422,2.128c-0.26-0.126-0.52-0.234-0.78-0.326
	c-0.041-0.105-0.082-0.211-0.126-0.319c-0.071,0.074-0.136,0.141-0.204,0.21c-6.441-1.94-12.675,6.003-12.675,6.003V309.623h-97.416
	v58.439H231.24v45.378c-1.303,1.301-2.366,3.445-3.12,5.327h-1.369c-0.315-2.317-1.235-4.896-3.749-5.192
	c-3.948-0.465-6.062,3.85-6.62,5.192h-0.09c0.234-1.573,0.939-7.433-1.435-8.303c-2.746-1.007-9.152,4.576-9.152,4.576
	s3.203-7.688-0.641-8.878c-3.844-1.19-8.054,6.315-8.054,6.315s2.837-9.427-0.732-10.983c-0.338-0.147-0.656-0.266-0.955-0.362
	l23.84-60.611l-27.675-52.169c0,0-7.613-18.039-8.589-27.906c-0.723-7.309-0.664-15.113,0.796-19.061l1.5,1.321l16.536,14.854
	l31.754-30.718c0.001,0,2.453-1.146,3.463-1.761c1.01-0.615,4.952-4.363,4.812-5.691c-0.14-1.328,0.73-4.935,0.851-5.924
	c0.12-0.989-0.321-3.054-1.24-2.744c-0.919,0.31-2.745,2.447-3.03,3.034c-0.285,0.587-4.139,4.145-4.139,4.145
	s-0.151-0.428,0.166-1.181c0.317-0.753,1.128-1.764,0.831-2.616c-0.298-0.852-1.369-2.476-1.924-2.318
	c-0.555,0.159-0.178,1.229-0.682,2.567c-0.505,1.338-2.109,2.825-3.059,4.55c-0.95,1.725-1.064,3.96-1.064,3.96l-6.718,5.481
	l-18.353,14.964l-9.262-10.287l1.822-1.974l-15.77-19.706c0.81-1.277,1.618-2.57,2.42-3.891
	C252.18,92.862,347.867,45.425,452.982,107.682C573.151,178.854,575.681,268.838,549.735,356.853z M440.901,220.259l-42.618-6.193
	l-19.059-38.619l-19.06,38.619l-42.618,6.193l30.839,30.061l-7.28,42.446l38.119-20.04l38.119,20.04l-7.28-42.446L440.901,220.259z"></path>
<path id="color_x5F_3" fill="#E84393" d="M184.465,401.294l12.738-60.773l-19.726-26.044h-4.094l-14.887,32.587l-52.962,30.05
	l-6.327-6.675l43.099-34.761l6.678-47.338l42.503,0.011l27.675,52.169l-23.903,60.773H184.465z M203.117,416.998
	c-0.782-0.363-11.449-4.412-11.449-4.412v-2.374h-0.614h-6.087v8.545h18.653C203.619,418.757,203.898,417.361,203.117,416.998z
	 M96.707,382.244l1.854-1.482l-0.383-0.48l-3.801-4.755l-6.675,5.335l11.646,14.571c0,0,1.265-0.654,1.06-1.491
	C100.204,393.105,96.707,382.244,96.707,382.244z"></path>
<path id="color_x5F_2" fill="#FBC02D" d="M138.333,220.734l21.563-16.125l0,0c2.449-2.189,4.731-3.453,4.731-3.453l13.24,3.999
	c0,0,0.536,1.984,1.297,4.909l16.792,20.984l-10.762,11.659l-1.5-1.321c-1.46,3.948-1.519,11.751-0.796,19.061
	c0.976,9.867,8.589,27.906,8.589,27.906l-42.368-0.002c0,0,5.19-24.007,4.685-33.087c-0.296-5.334-0.573-12.971-0.512-21.556
	l-4.173,1.825L138.333,220.734z"></path>
<path id="color_x5F_1" fill="#0984E3" d="M184.458,178.194c0,0,0.047,1.594-2.114,3.846c-2.161,2.251-10.584,2.431-10.584,2.431
	s0.409-1.711-1.393-2.251c-1.801-0.54-3.152,0.878-2.071,3.546c1.081,2.668,1.981,2.398,2.341,3.748
	c0.36,1.351-5.489,6.276-5.489,6.276s-1.896-3.304-5.768-5.556c-3.872-2.251-5.223-9.635-4.593-13.598
	c0.63-3.962,2.255-7.384,2.255-7.384s-5.767-1.268-8.289,7.111s0.36,11.98-7.024,17.924s-22.693,5.223-22.693,5.223
	s9.726-2.341,14.048-9.365s0.72-19.451,8.105-28.636c7.384-9.185,18.551,4.702,18.551,4.702s5.487-2.541,12.019-2.631
	c6.532-0.09,10.878,3.912,12.407,7.874c1.052,2.725,0.432,8.439,0.432,8.439L184.458,178.194z"></path>
</svg>