<?xml version="1.0" standalone="no"?>
<svg version="1.1" id="Layer_1_15_" xmlns="http://www.w3.org/2000/svg" xmlns:xlink="http://www.w3.org/1999/xlink" x="0px" y="0px" viewBox="0 0 595.276 595.276" enable-background="new 0 0 595.276 595.276" xml:space="preserve">
<path id="color_x5F_6" fill-rule="evenodd" clip-rule="evenodd" fill="#FFCBD5" d="M308.714,368.455
	c0.994,0.026,1.956,0.508,2.573,1.379c0.016,0.021,0.042,0.058,0.057,0.08c0.041,0.077,0.091,0.147,0.15,0.211
	c5.26,7.415,14.838,20.923,18.976,26.757c0.042,0.083,0.096,0.16,0.16,0.229c0.816,1.151,3.874,5.461,3.874,5.461
	c0.027,0.039,0.057,0.075,0.089,0.11l26.789,28.265c0,0.001,0.001,0.002,0.002,0.004c0.055,0.078,0.122,0.147,0.197,0.207
	l16.669,17.588c0.093,0.205,11.201,24.941,16.377,36.466c-1.022,0.323-8.483,2.679-16.069,5.074
	c-6.929,2.186-14.451-0.535-18.374-6.65c-11.305-17.616-28.674-44.677-34.441-53.664c-0.002-0.003-0.004-0.007-0.006-0.01
	c-0.039-0.088-0.091-0.169-0.154-0.242c-0.884-1.376-5.413-8.435-5.413-8.435c-0.047-0.073-0.104-0.14-0.168-0.198
	c0,0-7.916-7.241-13.758-12.588c-3.007-2.753-3.253-7.378-0.554-10.433c0.357-0.404,0.406-0.458,0.768-0.87
	c0.083-0.067,0.154-0.148,0.211-0.238c3.418-3.869,7.228-8.183,7.228-8.183c0.283-0.321,0.33-0.789,0.117-1.159
	c0,0-4.576-7.927-7.638-13.231c-0.036-0.095-0.087-0.183-0.15-0.263c-0.171-0.297-0.276-0.476-0.435-0.753
	c-0.902-1.564-0.386-3.537,1.169-4.458v0.002C307.51,368.587,308.117,368.439,308.714,368.455L308.714,368.455L308.714,368.455z
	 M437.166,331.59c1.933,1.175,6.958,3.868,14.947,5.593c-0.233,1.067-0.672,3.429-0.49,7.571c0.233,5.289,1.584,12.668,6.025,21.064
	c0.218,0.414,0.698,0.622,1.149,0.497c0,0,2.684-0.737,5.735-1.574c0.001,0,0.001,0,0.002,0c4.29-1.177,8.704,1.293,9.947,5.566
	l-0.041-0.28c0,0,0.05,0.166,0.098,0.323l-0.057-0.043c1.229,4.226-1.112,8.638-5.299,9.991c-2.84,0.918-5.304,1.715-5.304,1.715
	c-0.466,0.151-0.756,0.624-0.679,1.109c0,0,0.521,3.27,1.028,6.451c0.632,3.972,3.733,7.106,7.7,7.782
	c4.364,0.742,8.942,1.522,9.748,1.66v19.395h-34.505v-14.68c0.001-0.453-0.309-0.854-0.749-0.967
	c-10.458-2.704-19.761-6.821-25.547-9.684c-3.411-1.766-5.253-5.554-4.535-9.328c0.454-2.211,1.018-4.442,1.623-6.674
	c0.717,0.477,1.704,1.022,2.957,1.416c2.731,0.859,6.733,1.01,11.615-1.531c0.342-0.168,0.559-0.516,0.559-0.897
	c0-0.548-0.451-0.999-1-0.999c-0.169,0-0.335,0.043-0.482,0.124c-4.466,2.324-7.813,2.114-10.093,1.397
	c-1.521-0.479-2.486-1.149-2.992-1.559C424.353,354.86,435.014,335.41,437.166,331.59L437.166,331.59L437.166,331.59L437.166,331.59
	L437.166,331.59z M196.638,352.632c8.769,0,15.856,7.086,15.856,15.856c0,8.769-7.086,15.858-15.856,15.858
	s-15.858-7.088-15.858-15.858C180.78,359.719,187.869,352.632,196.638,352.632z M196.623,358.571L196.623,358.571
	c-0.542,0.008-0.984,0.456-0.984,0.999c0,0.005,0,0.01,0,0.015v15.395l-6.247-6.246c-0.188-0.194-0.446-0.304-0.716-0.304
	c-0.001,0-0.001,0-0.002,0c-0.548,0-0.999,0.45-0.999,0.999c0,0.271,0.11,0.529,0.304,0.717l7.816,7.814
	c0.17,0.256,0.448,0.418,0.755,0.442c0.033,0.003,0.066,0.004,0.099,0.004h0.012c0.336-0.002,0.648-0.173,0.831-0.454l7.806-7.805
	c0.193-0.189,0.303-0.447,0.303-0.717c0-0.547-0.451-0.999-0.999-0.999c-0.01,0-0.02,0-0.03,0.001
	c-0.26,0.007-0.505,0.116-0.686,0.302l-6.246,6.246v-15.395c0-0.005,0-0.01,0-0.015c0-0.548-0.451-1-0.999-1L196.623,358.571
	L196.623,358.571z M330.085,87.803c3.634,0,6.558,2.924,6.558,6.558s-2.924,6.559-6.558,6.559s-6.559-2.925-6.559-6.559
	S326.451,87.803,330.085,87.803z M375.506,87.803c3.634,0,6.559,2.924,6.559,6.558s-2.925,6.559-6.559,6.559
	s-6.558-2.925-6.558-6.559S371.872,87.803,375.506,87.803z M352.795,87.803c3.634,0,6.558,2.924,6.558,6.558
	s-2.924,6.559-6.558,6.559s-6.558-2.925-6.558-6.559S349.162,87.803,352.795,87.803z"></path>
<path id="color_x5F_5" fill-rule="evenodd" clip-rule="evenodd" fill="#FFD2BB" d="M451.371,290.867
	c3.578,0.07,5.954,0.869,6.801,1.177c-1.166,3.638-1.46,6.673-0.712,9.077c0.823,2.645,2.761,4.511,5.262,5.759
	c5,2.496,12.349,2.877,19.888,3.373c7.2,0.473,14.122,4.631,19.62,12.311c5.499,7.679,9.529,18.872,10.808,33.222
	c1.254,14.089-6.345,24.379-14.368,31.256c-7.681,6.584-15.455,9.822-16.121,10.094c-0.31-0.053-5.684-0.966-10.289-1.75
	c-3.128-0.532-5.562-2.992-6.061-6.128c-0.44-2.766-0.781-4.915-0.892-5.608c0.599-0.194,2.085-0.674,4.49-1.451
	c5.124-1.657,8.004-7.06,6.619-12.239c0.005,0.015,0.021,0.068,0.021,0.068c0-0.094-0.013-0.188-0.039-0.279
	c-0.029-0.098-0.072-0.191-0.129-0.275c0,0,0.015,0.052,0.02,0.066c-0.011-0.033-0.036-0.057-0.047-0.09
	c0.004,0.003,0.027,0.024,0.027,0.024c-0.016-0.026-0.034-0.051-0.053-0.075c0,0-0.001-0.001-0.002-0.002
	c-1.693-5.058-7.022-8.007-12.209-6.583c-2.617,0.717-4.304,1.181-4.92,1.349c-3.983-7.805-5.252-14.62-5.466-19.497
	c-0.221-5.032,0.603-7.943,0.603-7.943c0.024-0.088,0.037-0.178,0.037-0.269c0-0.475-0.34-0.888-0.806-0.98
	c-10.752-2.125-16.041-6.093-16.041-6.093c-0.012-0.008-0.024-0.016-0.035-0.023c-0.009-0.007-0.019-0.014-0.028-0.02l-0.011-0.008
	c-0.003-0.002-0.006-0.004-0.008-0.006c-0.058-0.037-4.371-2.817-7.124-7.755c-2.773-4.971-4.043-11.952,2.399-20.967
	c5.354-7.493,11.879-9.498,17.161-9.718C450.325,290.861,450.861,290.857,451.371,290.867L451.371,290.867L451.371,290.867z
	 M305.359,395.423H186.865c-7.143,0-13.994-2.839-19.045-7.888c-5.052-5.051-7.887-11.9-7.887-19.044v-0.004
	c0-7.143,2.836-13.992,7.887-19.043c5.028-5.028,11.841-7.863,19.045-7.889h149.382c7.143,0,13.994,2.839,19.045,7.889
	c5.052,5.051,7.888,11.9,7.888,19.043v0.004c0,7.144-2.837,13.993-7.888,19.044c-5.051,5.05-11.902,7.888-19.045,7.888h-4.366
	c-3.157-4.452-8.154-11.497-13.897-19.595c0.165-0.113,0.293-0.273,0.367-0.458l1.654-4.163h5.189l1.656,4.163
	c0.142,0.398,0.52,0.665,0.942,0.665c0.548,0,0.999-0.45,0.999-0.999c0-0.139-0.029-0.277-0.085-0.404l-1.84-4.629
	c-0.024-0.11-0.066-0.215-0.125-0.311l-3.213-8.083c-0.152-0.383-0.524-0.634-0.936-0.63c-0.406,0.003-0.771,0.253-0.921,0.63
	l-3.221,8.101c-0.047,0.083-0.083,0.172-0.105,0.266l-1.621,4.075c-1.358-1.915-2.516-3.549-3.5-4.936v-1.961
	c0-1.637-0.65-3.209-1.809-4.368c-1.158-1.158-2.729-1.808-4.368-1.808h-0.002c-1.638,0-3.208,0.65-4.366,1.808
	c-1.158,1.159-1.81,2.731-1.81,4.368v2.669c0,1.638,0.652,3.21,1.81,4.368c0.591,0.591,1.293,1.041,2.055,1.348
	c2.865,4.962,6.804,11.785,7.188,12.452L305.359,395.423L305.359,395.423z M196.638,350.635c-9.848,0-17.855,8.004-17.855,17.853
	c0,9.849,8.007,17.855,17.855,17.855c9.849,0,17.853-8.006,17.853-17.855C214.492,358.639,206.487,350.635,196.638,350.635z
	 M281.932,360.964c-0.547,0.009-0.991,0.465-0.984,1.013v10.162l-8.575-10.784c-0.19-0.238-0.477-0.376-0.781-0.376
	c-0.547,0-0.998,0.45-0.999,0.998V375c0,0.004,0,0.009,0,0.014c0,0.548,0.451,0.999,0.999,0.999c0.548,0,0.999-0.45,0.999-0.999
	c0-0.005,0-0.01,0-0.014v-10.162l8.574,10.784c0.19,0.239,0.478,0.378,0.782,0.378c0.548,0,0.999-0.451,0.999-0.999
	c0-0.001,0-0.001,0-0.001v-13.023c0.001-0.005,0.001-0.009,0.001-0.014c0-0.548-0.451-0.999-1-0.999
	C281.942,360.964,281.937,360.964,281.932,360.964L281.932,360.964z M256.025,360.964c-0.547,0.008-0.992,0.464-0.985,1.013V375
	c0,0,0,0,0,0.001c0,0.547,0.45,0.999,0.999,0.999c0.305,0,0.593-0.139,0.782-0.378l4.398-5.528l4.395,5.528
	c0.19,0.239,0.477,0.378,0.782,0.378c0.548,0,0.999-0.451,0.999-0.999c0-0.001,0-0.001,0-0.001v-13.023c0-0.005,0-0.01,0-0.014
	c0-0.548-0.45-1-0.999-1c-0.547,0-0.999,0.451-0.999,1c0,0.004,0,0.009,0,0.014v10.164l-3.398-4.273
	c-0.19-0.238-0.477-0.377-0.781-0.377c-0.305,0-0.592,0.139-0.782,0.377l-3.398,4.273v-10.164c0-0.005,0-0.009,0-0.014
	c0-0.548-0.45-0.999-0.999-0.999H256.025L256.025,360.964z M298.388,374.002h-9.358v-12.024c0-0.005,0-0.009,0-0.014
	c0-0.548-0.45-0.999-0.999-0.999h-0.015c-0.547,0.009-0.991,0.465-0.984,1.013V375c0,0.547,0.451,0.999,0.999,0.999h10.356h0.015
	c0.547,0,0.999-0.451,0.999-0.999c0-0.548-0.451-0.999-0.999-0.999H298.388z M224.934,360.978c-0.547,0-0.998,0.45-0.999,0.999V375
	c0.001,0.547,0.451,0.999,0.999,0.999h3.845c4.135,0,7.509-3.373,7.509-7.509v-0.004c0-4.135-3.374-7.508-7.509-7.508H224.934z
	 M332.975,360.978c-0.547,0-0.999,0.45-0.999,0.999V375c0,0.547,0.451,0.999,0.999,0.999h3.845c4.135,0,7.509-3.373,7.509-7.509
	v-0.004c0-4.135-3.374-7.508-7.509-7.508H332.975z M245.665,360.978c-1.637,0-3.21,0.65-4.368,1.808
	c-1.159,1.159-1.81,2.731-1.81,4.368v2.669c0,1.638,0.651,3.209,1.81,4.368c1.158,1.158,2.731,1.809,4.368,1.809
	c1.638,0,3.21-0.65,4.368-1.809c1.158-1.159,1.809-2.73,1.809-4.368v-2.669c0-1.637-0.651-3.209-1.809-4.368
	C248.875,361.629,247.303,360.978,245.665,360.978z M228.779,374.002h-2.847v-11.026h2.847c3.056,0,5.511,2.455,5.511,5.51v0.004
	C234.291,371.547,231.836,374.002,228.779,374.002z M336.821,374.002h-2.847v-11.026h2.847c3.056,0,5.511,2.455,5.511,5.51v0.004
	C342.332,371.547,339.877,374.002,336.821,374.002z M245.665,362.976c1.109,0,2.17,0.44,2.953,1.223
	c0.785,0.785,1.226,1.847,1.226,2.955v2.669c0,1.11-0.44,2.17-1.226,2.955c-0.783,0.783-1.845,1.224-2.953,1.224
	s-2.171-0.439-2.955-1.224c-0.785-0.785-1.225-1.846-1.225-2.955v-2.669c0-1.109,0.439-2.17,1.225-2.955
	C243.494,363.415,244.556,362.976,245.665,362.976z M307.046,362.976h0.002c1.11,0,2.172,0.439,2.955,1.223
	c0.784,0.784,1.224,1.847,1.224,2.955v0.004c-1.035-0.587-2.247-0.816-3.428-0.631c-0.64,0.1-1.271,0.319-1.859,0.667
	c-1.669,0.988-2.573,2.772-2.559,4.591c-0.322-0.6-0.513-1.268-0.513-1.963v-2.669c0-1.109,0.441-2.171,1.225-2.955
	C304.876,363.415,305.937,362.976,307.046,362.976L307.046,362.976L307.046,362.976z M324.4,369.208h-3.601l1.801-4.528
	L324.4,369.208z M312.162,244.785c10.406,0,18.819,8.415,18.819,18.821c0,10.405-8.413,18.818-18.819,18.818
	c-10.405,0-18.82-8.413-18.82-18.818C293.342,253.2,301.757,244.785,312.162,244.785z M312.147,252.123
	c-0.547,0.009-0.991,0.465-0.984,1.013v18.529l-7.647-7.647c-0.188-0.194-0.446-0.303-0.716-0.303c-0.547,0-0.998,0.45-0.998,0.999
	c0,0.27,0.109,0.527,0.302,0.716l9.27,9.272c0.19,0.244,0.48,0.386,0.789,0.386c0.315,0,0.61-0.148,0.799-0.4l9.257-9.258
	c0.193-0.189,0.303-0.446,0.303-0.716c0-0.548-0.451-1-0.999-1c-0.01,0-0.02,0.001-0.03,0.001c-0.26,0.008-0.505,0.116-0.686,0.303
	l-7.646,7.647v-18.529c0-0.004,0-0.009,0-0.014c0-0.547-0.45-0.999-0.999-0.999C312.158,252.123,312.152,252.123,312.147,252.123
	L312.147,252.123L312.147,252.123z"></path>
<path id="color_x5F_4" fill-rule="evenodd" clip-rule="evenodd" fill="#00CEC9" d="M452.846,420.407h29.646
	c0.271,0.088,5.059,1.697,10.496,6.289c0.222,2.136,3.841,37.917,1.961,75.749c-6.621,6.495-13.73,12.529-21.294,18.01
	c-17.357,12.576-42.777,21.492-72.408,26.831c1.215-14.168,8.377-40.572,16.061-65.63c11.613-6.105,24.434-12.844,36.556-19.217
	c10.592-5.567,15.139-18.36,10.44-29.365c-0.153-0.356-0.306-0.713-0.458-1.071C461.676,426.923,457.758,422.821,452.846,420.407
	L452.846,420.407z M235.548,484.69c2.886,0.011,5.893,0.105,9.027,0.297c-0.031,1.184-0.256,6.444-3.385,15.67
	c-3.474,10.24-10.425,24.37-24.331,39.964c-11.372-2.684-22.373-5.788-32.836-9.303l36.994-27.631
	c0.258-0.188,0.411-0.488,0.411-0.808c0-0.542-0.441-0.991-0.985-0.999c-0.225-0.003-0.443,0.07-0.622,0.207l-38.09,28.45
	c-4.176-1.437-8.27-2.937-12.255-4.508c-0.647-0.256-1.278-0.514-1.92-0.771c3.884-7.721,6.837-15.022,9.061-21.835
	c0.225-0.27,4.575-5.42,15.164-10.364C201.162,488.678,215.353,484.613,235.548,484.69z M179.038,449.466
	c0.36,1.224,2.21,7.857,1.809,20.144c-0.436,13.322-3.739,32.275-15.15,54.901c-9.855-4.004-18.945-8.181-27.332-12.502l23.03-34.49
	c0.115-0.166,0.176-0.364,0.176-0.565c0-0.548-0.45-0.999-0.999-0.999c-0.008,0-0.017,0-0.025,0
	c-0.33,0.008-0.634,0.179-0.814,0.454l-23.152,34.675c-7.31-3.829-14.072-7.772-20.332-11.801
	C118.669,495.197,140.25,460.327,179.038,449.466L179.038,449.466z M495.186,428.698c0.737,0.724,1.474,1.49,2.202,2.33
	c1.653,1.908,3.818,5.835,6.008,10.561c2.19,4.725,4.447,10.273,6.479,15.563c3.897,10.146,6.811,18.89,7.056,19.626
	c-5.99,8.334-12.636,16.236-19.894,23.577C498.476,467.826,495.988,437.32,495.186,428.698L495.186,428.698z M442.619,420.045
	c1.01-0.004,2.021,0.067,3.025,0.209c0.158,0.099,0.341,0.152,0.526,0.153h0.383c1.151,0.214,2.287,0.519,3.4,0.928
	c5.424,1.996,9.787,6.139,12.056,11.453c0.153,0.358,0.305,0.716,0.458,1.073c4.296,10.065,0.151,21.721-9.535,26.812
	c-12.202,6.415-25.167,13.229-36.799,19.344c-0.082,0.031-0.161,0.072-0.232,0.123c-4.299,2.26-10.992,5.779-13.663,7.183
	c-0.001,0-0.001,0-0.002,0c-0.939,0.493-2.038,0.578-3.041,0.232c-1.003-0.347-1.817-1.09-2.251-2.057
	c-4.843-10.787-16.013-35.656-16.546-36.844c0.985-0.491,31.211-15.561,52.953-26.402c2.587-1.288,5.381-2.017,8.207-2.172
	C441.911,420.057,442.264,420.047,442.619,420.045L442.619,420.045z M292.724,271.048h-65.146c-2.495,0-4.495-2.003-4.495-4.497
	v-87.476c0-2.47,1.958-4.455,4.495-4.497h55.538v16.558c0,2.754,2.253,5.008,5.006,5.008h16.56v48.037
	c-7.796,3.01-13.337,10.575-13.337,19.425C291.345,266.228,291.836,268.736,292.724,271.048L292.724,271.048z M288.529,248.207
	h-49.385c-0.005-0.001-0.009-0.001-0.014-0.001c-0.548,0-0.999,0.451-0.999,1c0,0.547,0.45,0.999,0.999,0.999
	c0.005,0,0.009,0,0.014,0h49.385c0.005,0,0.01,0,0.014,0c0.548,0,1-0.451,1-0.999c0-0.548-0.451-1-1-1L288.529,248.207z
	 M288.529,237.095h-49.385c-0.005-0.001-0.009-0.001-0.014-0.001c-0.548,0-0.999,0.451-0.999,1c0,0.547,0.45,0.999,0.999,0.999
	c0.005,0,0.009,0,0.014,0h49.385c0.005,0,0.01,0,0.014,0c0.548,0,1-0.451,1-0.999c0-0.548-0.451-1-1-1L288.529,237.095z
	 M288.529,225.984h-49.385c-0.005-0.001-0.009-0.001-0.014-0.001c-0.548,0-0.999,0.451-0.999,1c0,0.547,0.45,0.999,0.999,0.999
	c0.005,0,0.009,0,0.014,0h49.385c0.005,0,0.01,0,0.014,0c0.548,0,1-0.451,1-0.999c0-0.548-0.451-1-1-1L288.529,225.984z
	 M288.529,214.872h-49.385c-0.005-0.001-0.009-0.001-0.014-0.001c-0.548,0-0.999,0.451-0.999,1c0,0.547,0.45,0.999,0.999,0.999
	c0.005,0,0.009,0,0.014,0h49.385c0.005,0,0.01,0,0.014,0c0.548,0,1-0.451,1-0.999c0-0.548-0.451-1-1-1L288.529,214.872z
	 M270.215,203.761h-31.071c-0.005-0.001-0.009-0.001-0.014-0.001c-0.548,0-0.999,0.451-0.999,1c0,0.547,0.45,0.999,0.999,0.999
	c0.005,0,0.009,0,0.014,0h31.071c0.005,0,0.01,0,0.014,0c0.548,0,1-0.451,1-0.999c0-0.548-0.451-1-1-1L270.215,203.761z"></path>
<path id="color_x5F_3" fill-rule="evenodd" clip-rule="evenodd" fill="#E84393" d="M398.543,489.442
	c1.523,0.524,3.197,0.4,4.623-0.352c2.28-1.199,8.152-4.284,11.662-6.129c-7.569,24.82-14.528,50.498-15.618,64.679
	c-19.965,3.465-41.771,5.332-64.28,5.613c-38.504,0.48-79.039-3.645-115.862-12.124c13.602-15.472,20.522-29.537,24.014-39.833
	c3.589-10.578,3.582-17.27,3.582-17.27c-0.001-0.522-0.412-0.96-0.932-0.995c-3.244-0.219-6.359-0.336-9.349-0.363
	c-20.921-0.192-35.665,4.012-45.449,8.581c-6.362,2.971-10.586,6.091-13.099,8.256c3.434-11.658,4.745-21.752,5.01-29.831
	c0.45-13.754-2.11-21.794-2.11-21.794c-0.137-0.426-0.544-0.711-0.992-0.693c-0.073,0.003-0.146,0.013-0.216,0.031
	c-40.055,10.636-62.253,46.4-64.959,50.979c-54.282-35.586-69.751-77.941-73.549-112.962c-2.418-22.294,1.568-55.235,14.728-85.756
	c12.984-30.113,34.858-57.844,68.225-71.025l0,0V419.84c0,6.357,5.175,11.531,11.531,11.531h188.765l34.234,53.342
	c4.406,6.865,12.877,9.93,20.657,7.475c7.72-2.437,15.583-4.919,16.353-5.162c0.703,1.12,1.765,1.978,3.029,2.415L398.543,489.442
	L398.543,489.442z M434.708,233.739c10.981,0.007,22.819,1.364,34.649,4.723c27.04,7.676,54.053,25.719,71.029,61.985
	c25.42,54.307,14.342,122.399-22.027,174.334c-0.777-2.309-3.159-9.336-6.619-18.345c-2.042-5.316-4.311-10.895-6.531-15.686
	c-2.22-4.792-4.352-8.771-6.311-11.032c-1.377-1.59-2.794-2.976-4.186-4.183c-0.076-0.09-0.167-0.167-0.27-0.226
	c-5.091-4.335-9.471-6.111-10.77-6.586v-19.931c0.927-0.381,8.487-3.539,16.299-10.236c8.301-7.115,16.381-18.061,15.056-32.948
	c-1.302-14.627-5.41-26.157-11.174-34.207c-5.764-8.05-13.229-12.626-21.112-13.144c-7.546-0.497-14.778-0.997-19.126-3.166
	c-2.173-1.086-3.603-2.497-4.247-4.565c-0.643-2.068-0.487-4.917,0.929-8.827c0.179-0.498-0.069-1.057-0.558-1.259
	c0,0-4.322-1.791-10.056-1.551c-5.735,0.24-12.994,2.565-18.702,10.553c-6.809,9.529-5.569,17.63-2.518,23.101
	c2.64,4.735,6.063,7.2,7.071,7.893c-1.063,1.848-12.858,22.606-19.059,44.459c-0.06,0.119-0.095,0.249-0.104,0.381
	c-0.755,2.693-1.441,5.396-1.994,8.086c0,0.004-0.001,0.009-0.002,0.014c-0.88,4.633,1.391,9.305,5.579,11.474
	c0.005,0.003,0.011,0.007,0.016,0.01c5.723,2.833,14.854,6.858,25.202,9.613v13.711c-1.238-0.133-2.484-0.172-3.723-0.103
	c-3.095,0.171-6.158,0.968-8.989,2.38c-21.823,10.88-52.387,26.118-53.151,26.499l-14.775-15.59h23.075
	c6.357,0,11.533-5.175,11.533-11.531V238.833C408.505,235.859,420.92,233.731,434.708,233.739L434.708,233.739L434.708,233.739z
	 M105.539,347.491c-0.542,0.007-0.985,0.455-0.985,0.999c0,0.005,0,0.01,0,0.015v6.132c0,0.005,0,0.01,0,0.014
	c0,0.548,0.45,0.999,0.999,0.999s0.999-0.45,0.999-0.999c0-0.004,0-0.009,0-0.014v-6.132c0-0.005,0-0.01,0-0.015
	c0-0.548-0.45-0.999-0.999-0.999H105.539z M102.344,344.296h-6.133c-0.005,0-0.01,0-0.015,0c-0.547,0-0.999,0.45-0.999,0.999
	c0,0.547,0.451,0.999,0.999,0.999c0.005,0,0.01,0,0.015,0h6.133c0.005,0,0.01,0,0.014,0c0.548,0,0.999-0.451,0.999-0.999
	c0-0.548-0.45-0.999-0.999-0.999H102.344z M114.897,344.296h-6.133c-0.005,0-0.01,0-0.014,0c-0.548,0-0.999,0.45-0.999,0.999
	c0,0.547,0.45,0.999,0.999,0.999c0.004,0,0.009,0,0.014,0h6.133c0.005,0,0.01,0,0.015,0c0.547,0,0.999-0.451,0.999-0.999
	c0-0.548-0.451-0.999-0.999-0.999H114.897z M105.539,334.939c-0.547,0.008-0.992,0.464-0.985,1.013v6.132c0,0.004,0,0.009,0,0.014
	c0,0.548,0.45,0.999,0.999,0.999s0.999-0.45,0.999-0.999c0-0.005,0-0.01,0-0.014v-6.132c0-0.004,0-0.009,0-0.014
	c0-0.547-0.45-0.999-0.999-0.999H105.539z M303.269,194.147h-15.148c-1.674,0-3.008-1.335-3.008-3.01v-15.144L303.269,194.147
	L303.269,194.147z M397.144,108.791H125.97V86.098c0-5.246,4.206-9.484,9.533-9.535h252.106c5.277,0.001,9.534,4.258,9.534,9.535
	L397.144,108.791L397.144,108.791z M375.506,85.805c-4.713,0-8.556,3.842-8.556,8.556c0,4.713,3.842,8.557,8.556,8.557
	c4.713,0,8.557-3.843,8.557-8.557C384.062,89.648,380.219,85.805,375.506,85.805z M330.085,85.805c-4.713,0-8.557,3.842-8.557,8.556
	c0,4.713,3.843,8.557,8.557,8.557s8.556-3.843,8.556-8.557C338.64,89.648,334.798,85.805,330.085,85.805z M352.795,85.805
	c-4.713,0-8.556,3.842-8.556,8.556c0,4.713,3.842,8.557,8.556,8.557c4.713,0,8.556-3.843,8.556-8.557
	C361.351,89.648,357.509,85.805,352.795,85.805z"></path>
<path id="color_x5F_2" fill-rule="evenodd" clip-rule="evenodd" fill="#FBC02D" d="M322.985,429.374H135.503
	c-5.277,0-9.533-4.256-9.533-9.533V227.146c0.021-0.116,0.021-0.234,0-0.35V110.789h271.174v127.252
	c-0.001,0.033-0.001,0.066,0,0.099v181.7c0,5.277-4.257,9.533-9.534,9.533H362.64l-26.55-28.015
	c-0.007-0.01-2.345-3.307-2.793-3.938h2.949c7.673,0,15.033-3.049,20.457-8.474c5.425-5.425,8.474-12.784,8.474-20.456v-0.004
	c0-7.673-3.048-15.031-8.474-20.455c-5.424-5.424-12.785-8.474-20.457-8.475H186.865c-7.673,0.001-15.033,3.05-20.457,8.475
	c-5.426,5.424-8.473,12.783-8.473,20.455v0.004c0,7.673,3.046,15.031,8.473,20.456c5.424,5.424,12.785,8.474,20.457,8.474h116.789
	c-2.817,3.842-2.339,9.276,1.24,12.551c5.802,5.31,13.555,12.403,13.663,12.503L322.985,429.374L322.985,429.374z M325.214,299.025
	H305.68c-0.005,0-0.009,0-0.014,0c-0.548,0-0.999,0.451-0.999,0.999c0,0.548,0.45,1,0.999,1c0.005,0,0.009-0.001,0.014-0.001h19.533
	c0.005,0,0.009,0.001,0.014,0.001c0.548,0,0.999-0.451,0.999-1c0-0.547-0.45-0.999-0.999-0.999
	C325.223,299.025,325.219,299.025,325.214,299.025z M288.529,299.025h-82.2c-0.004,0-0.009,0-0.014,0
	c-0.547,0-0.999,0.451-0.999,0.999c0,0.548,0.451,1,0.999,1c0.005,0,0.01-0.001,0.014-0.001h82.2c0.005,0,0.01,0.001,0.014,0.001
	c0.548,0,1-0.451,1-1c0-0.547-0.451-0.999-1-0.999C288.539,299.025,288.534,299.025,288.529,299.025z M293.631,273.046
	c3.448,6.744,10.447,11.376,18.532,11.376c11.486,0,20.817-9.331,20.817-20.816c0-11.486-9.331-20.819-20.817-20.819
	c-1.898,0-3.734,0.262-5.483,0.739v-48.21c0.064-0.367-0.084-0.74-0.381-0.965l-21.394-21.394c-0.171-0.224-0.428-0.364-0.805-0.391
	c-0.046,0.001-0.092,0.006-0.137,0.014h-56.385c-3.575,0-6.492,2.918-6.492,6.494v87.476c0,3.574,2.917,6.493,6.492,6.494
	L293.631,273.046L293.631,273.046z"></path>
<path id="color_x5F_1" fill-rule="evenodd" clip-rule="evenodd" fill="#0984E3" d="M322.623,39.267
	c-0.547,0.009-0.991,0.465-0.983,1.013v6.131c0,0.005,0,0.01,0,0.015c0,0.547,0.45,0.999,0.999,0.999
	c0.547,0,0.999-0.451,0.999-0.999c0-0.005,0-0.01,0-0.015V40.28c0-0.005,0-0.009,0-0.014c0-0.548-0.451-0.999-0.999-0.999
	C322.633,39.267,322.628,39.267,322.623,39.267z M313.296,48.623c-0.005,0-0.009,0-0.014,0c-0.548,0-0.999,0.451-0.999,0.999
	c0,0.548,0.45,0.999,0.999,0.999c0.005,0,0.009,0,0.014,0h6.132c0.005,0,0.009,0,0.014,0c0.548,0,0.999-0.45,0.999-0.999
	c0-0.547-0.45-0.999-0.999-0.999c-0.005,0-0.009,0-0.014,0H313.296z M325.848,48.623c-0.005,0-0.01,0-0.015,0
	c-0.547,0-0.999,0.451-0.999,0.999c0,0.548,0.451,0.999,0.999,0.999c0.005,0,0.01,0,0.015,0h6.133c0.005,0,0.01,0,0.014,0
	c0.548,0,0.999-0.45,0.999-0.999c0-0.547-0.45-0.999-0.999-0.999c-0.004,0-0.009,0-0.014,0H325.848z M322.623,51.819
	c-0.542,0.008-0.983,0.456-0.983,0.999c0,0.005,0,0.01,0,0.015v6.132c0,0.005,0,0.009,0,0.014c0,0.548,0.45,0.999,0.999,0.999
	c0.547,0,0.999-0.45,0.999-0.999c0-0.005,0-0.009,0-0.014v-6.132c0-0.005,0-0.01,0-0.015c0-0.548-0.451-1-0.999-1
	C322.633,51.818,322.628,51.818,322.623,51.819z M135.503,74.565c-6.356,0.001-11.531,5.176-11.531,11.533v23.538
	c-0.015,0.102-0.015,0.205,0,0.307v116.361c-34.394,13.303-56.833,41.715-70.059,72.386c-13.309,30.866-17.347,64.028-14.881,86.763
	c3.86,35.581,19.88,78.8,75.152,114.837c0.104,0.106,0.23,0.187,0.369,0.238c6.626,4.304,13.815,8.504,21.611,12.575
	c0.154,0.164,0.36,0.271,0.582,0.303c8.851,4.597,18.48,9.03,28.956,13.261c0.069,0.038,0.142,0.068,0.218,0.088
	c0.939,0.379,1.871,0.758,2.824,1.134c4.113,1.621,8.34,3.167,12.651,4.646c0.105,0.06,0.22,0.099,0.34,0.118
	c11.154,3.814,22.917,7.16,35.1,10.023c0.096,0.038,0.196,0.061,0.299,0.068c37.392,8.756,78.641,12.997,117.822,12.509
	c22.85-0.286,44.991-2.174,65.261-5.726c0.059-0.005,0.118-0.015,0.175-0.031c30.333-5.332,56.458-14.395,74.438-27.422
	c7.753-5.617,15.033-11.808,21.806-18.474c0.001-0.002,0.002-0.003,0.004-0.004c54.632-53.774,76.193-138.545,45.558-203.993
	c-17.214-36.776-44.795-55.255-72.292-63.061c-26.822-7.615-53.514-5.143-70.762,0.203V109.959c0.019-0.11,0.019-0.223,0-0.334
	V86.098c0-6.357-5.176-11.532-11.532-11.533L135.503,74.565L135.503,74.565z M135.503,76.562h252.106
	c5.277,0.001,9.534,4.258,9.534,9.535v22.694H125.97V86.098C125.97,80.82,130.226,76.563,135.503,76.562L135.503,76.562z
	 M330.085,85.805c-4.713,0-8.557,3.842-8.557,8.556c0,4.713,3.843,8.557,8.557,8.557s8.556-3.843,8.556-8.557
	C338.64,89.648,334.798,85.805,330.085,85.805z M352.795,85.805c-4.713,0-8.556,3.842-8.556,8.556c0,4.713,3.842,8.557,8.556,8.557
	c4.713,0,8.556-3.843,8.556-8.557C361.351,89.648,357.509,85.805,352.795,85.805z M375.506,85.805c-4.713,0-8.556,3.842-8.556,8.556
	c0,4.713,3.842,8.557,8.556,8.557c4.713,0,8.557-3.843,8.557-8.557C384.062,89.648,380.219,85.805,375.506,85.805z M330.085,87.803
	c3.634,0,6.558,2.924,6.558,6.558s-2.924,6.559-6.558,6.559s-6.559-2.925-6.559-6.559S326.451,87.803,330.085,87.803z
	 M352.795,87.803c3.634,0,6.558,2.924,6.558,6.558s-2.924,6.559-6.558,6.559s-6.558-2.925-6.558-6.559
	S349.162,87.803,352.795,87.803z M375.506,87.803c3.634,0,6.559,2.924,6.559,6.558s-2.925,6.559-6.559,6.559
	s-6.558-2.925-6.558-6.559S371.872,87.803,375.506,87.803z M125.97,110.789h271.174v127.252c-0.001,0.033-0.001,0.066,0,0.099v181.7
	c0,5.278-4.258,9.533-9.534,9.533H362.64l-26.55-28.015c-0.007-0.01-2.345-3.307-2.793-3.938h2.949
	c7.673,0,15.033-3.049,20.457-8.474c5.425-5.425,8.474-12.784,8.474-20.456v-0.004c0-7.673-3.048-15.031-8.474-20.455
	c-5.424-5.425-12.785-8.475-20.457-8.475H186.865c-7.673,0-15.033,3.049-20.457,8.475c-5.426,5.424-8.473,12.783-8.473,20.455v0.004
	c0,7.673,3.046,15.031,8.473,20.456c5.424,5.424,12.785,8.474,20.457,8.474h116.789c-2.817,3.841-2.339,9.276,1.24,12.551
	c5.802,5.31,13.555,12.403,13.663,12.503c0.01,0.016,3.817,5.949,4.428,6.9H135.503c-5.277,0-9.533-4.256-9.533-9.533V227.146
	c0.021-0.116,0.021-0.234,0-0.35L125.97,110.789L125.97,110.789z M436.8,163.224c-0.542,0.008-0.984,0.456-0.984,0.999
	c0,0.005,0,0.01,0,0.015v6.132c0,0.005,0,0.009,0,0.014c0,0.548,0.45,0.999,0.999,0.999s0.999-0.45,0.999-0.999
	c0-0.005,0-0.009,0-0.014v-6.132c0-0.005,0-0.01,0-0.015c0-0.548-0.45-1-0.999-1C436.81,163.223,436.805,163.224,436.8,163.224
	L436.8,163.224z M284.099,172.567c-0.046,0.001-0.092,0.006-0.137,0.014h-56.385c-3.575,0-6.492,2.918-6.492,6.494v87.476
	c0,3.574,2.917,6.494,6.492,6.494h66.053c3.447,6.744,10.447,11.376,18.532,11.376c11.486,0,20.817-9.331,20.817-20.816
	c0-11.486-9.331-20.819-20.817-20.819c-1.898,0-3.734,0.262-5.483,0.739v-48.21c0.064-0.367-0.084-0.74-0.381-0.965l-21.394-21.394
	C284.713,172.708,284.414,172.563,284.099,172.567L284.099,172.567z M427.471,172.581c-0.005,0-0.01,0-0.014,0
	c-0.548,0-1,0.45-1,0.999c0,0.547,0.451,0.999,1,0.999c0.004,0,0.009,0,0.014,0h6.133c0.005,0,0.01,0,0.014,0
	c0.548,0,1-0.451,1-0.999c0-0.548-0.451-0.999-1-0.999c-0.004,0-0.009,0-0.014,0H427.471z M440.024,172.581
	c-0.005,0-0.009,0-0.014,0c-0.548,0-0.999,0.45-0.999,0.999c0,0.547,0.45,0.999,0.999,0.999c0.005,0,0.009,0,0.014,0h6.134
	c0.004,0,0.009,0,0.014,0c0.547,0,0.999-0.451,0.999-0.999c0-0.548-0.451-0.999-0.999-0.999c-0.005,0-0.01,0-0.014,0H440.024z
	 M227.578,174.579h55.538v16.558c0,2.754,2.253,5.008,5.006,5.008h16.56v48.037c-7.796,3.01-13.337,10.575-13.337,19.425
	c0,2.622,0.491,5.13,1.379,7.442h-65.146c-2.495,0-4.495-2.003-4.495-4.497v-87.476
	C223.083,176.579,225.083,174.579,227.578,174.579L227.578,174.579z M436.8,175.776c-0.542,0.008-0.984,0.456-0.984,0.999
	c0,0.005,0,0.01,0,0.016v6.131c0,0.005,0,0.01,0,0.014c0,0.548,0.45,1,0.999,1s0.999-0.451,0.999-1c0-0.004,0-0.009,0-0.014v-6.131
	c0-0.006,0-0.011,0-0.016c0-0.548-0.45-0.999-0.999-0.999C436.81,175.776,436.805,175.776,436.8,175.776z M285.113,175.993
	l18.156,18.154h-15.148c-1.674,0-3.008-1.335-3.008-3.01V175.993L285.113,175.993z M89.92,183.349
	c-0.547,0.009-0.991,0.465-0.984,1.013v6.133c0,0.005,0,0.01,0,0.014c0,0.548,0.451,1,0.999,1c0.548,0,0.999-0.451,0.999-1
	c0-0.004,0-0.009,0-0.014v-6.133c0-0.005,0-0.009,0-0.014c0-0.548-0.45-0.999-0.999-0.999
	C89.93,183.349,89.925,183.349,89.92,183.349z M80.592,192.707c-0.005,0-0.01,0-0.014,0c-0.548,0-0.999,0.451-0.999,0.999
	c0,0.548,0.45,0.999,0.999,0.999c0.004,0,0.009,0,0.014,0h6.133c0.005,0,0.01,0,0.015,0c0.547,0,0.999-0.45,0.999-0.999
	c0-0.547-0.451-0.999-0.999-0.999c-0.005,0-0.01,0-0.015,0H80.592z M93.144,192.707c-0.005,0-0.009,0-0.014,0
	c-0.548,0-0.999,0.451-0.999,0.999c0,0.548,0.45,0.999,0.999,0.999c0.005,0,0.009,0,0.014,0h6.134c0.005,0,0.009,0,0.014,0
	c0.548,0,0.999-0.45,0.999-0.999c0-0.547-0.45-0.999-0.999-0.999c-0.005,0-0.009,0-0.014,0H93.144z M89.92,195.904
	c-0.547,0.009-0.991,0.465-0.984,1.013v6.132c0,0.004,0,0.009,0,0.014c0,0.547,0.451,0.999,0.999,0.999
	c0.548,0,0.999-0.451,0.999-0.999c0-0.005,0-0.01,0-0.014v-6.132c0-0.005,0-0.009,0-0.014c0-0.547-0.45-0.999-0.999-0.999
	C89.93,195.904,89.925,195.904,89.92,195.904L89.92,195.904z M239.144,203.761c-0.005-0.001-0.009-0.001-0.014-0.001
	c-0.548,0-0.999,0.451-0.999,1c0,0.547,0.45,0.999,0.999,0.999c0.005,0,0.009,0,0.014,0h31.071c0.005,0,0.01,0,0.014,0
	c0.548,0,1-0.451,1-0.999c0-0.548-0.451-1-1-1c-0.004,0-0.009,0-0.014,0.001H239.144L239.144,203.761z M239.144,214.872
	c-0.005-0.001-0.009-0.001-0.014-0.001c-0.548,0-0.999,0.451-0.999,1c0,0.547,0.45,0.999,0.999,0.999c0.005,0,0.009,0,0.014,0
	h49.385c0.005,0,0.01,0,0.014,0c0.548,0,1-0.451,1-0.999c0-0.548-0.451-1-1-1c-0.004,0-0.009,0-0.014,0.001H239.144z
	 M239.144,225.984c-0.005-0.001-0.009-0.001-0.014-0.001c-0.548,0-0.999,0.451-0.999,1c0,0.547,0.45,0.999,0.999,0.999
	c0.005,0,0.009,0,0.014,0h49.385c0.005,0,0.01,0,0.014,0c0.548,0,1-0.451,1-0.999c0-0.548-0.451-1-1-1c-0.004,0-0.009,0-0.014,0.001
	H239.144z M123.972,228.455V419.84c0,6.357,5.175,11.531,11.531,11.531h188.765c5.904,9.2,22.996,35.833,34.234,53.342
	c4.406,6.865,12.877,9.93,20.657,7.475c7.72-2.437,15.583-4.919,16.353-5.162c0.703,1.12,1.765,1.978,3.029,2.415
	c0,0,0.001,0,0.002,0c1.523,0.524,3.196,0.4,4.623-0.352c2.28-1.199,8.152-4.284,11.662-6.129
	c-7.569,24.82-14.528,50.498-15.618,64.679c-19.965,3.465-41.771,5.332-64.28,5.613c-38.504,0.48-79.039-3.645-115.862-12.124
	c13.602-15.472,20.522-29.537,24.014-39.833c3.589-10.578,3.582-17.27,3.582-17.27c-0.001-0.522-0.412-0.96-0.932-0.995
	c-3.244-0.219-6.359-0.336-9.349-0.363c-20.921-0.192-35.665,4.012-45.449,8.581c-6.362,2.971-10.586,6.091-13.099,8.256
	c3.434-11.658,4.745-21.752,5.01-29.831c0.45-13.754-2.11-21.794-2.11-21.794c-0.137-0.426-0.544-0.711-0.992-0.693
	c-0.073,0.003-0.146,0.013-0.216,0.031c-40.055,10.636-62.253,46.4-64.959,50.979c-54.282-35.586-69.751-77.941-73.549-112.962
	c-2.418-22.294,1.568-55.235,14.728-85.756C68.731,269.367,90.604,241.636,123.972,228.455L123.972,228.455L123.972,228.455z
	 M434.708,233.739c10.981,0.007,22.819,1.364,34.649,4.723c27.04,7.676,54.053,25.719,71.029,61.985
	c25.42,54.307,14.342,122.399-22.027,174.334c-0.777-2.309-3.159-9.336-6.619-18.345c-2.042-5.316-4.311-10.895-6.531-15.686
	c-2.22-4.792-4.352-8.771-6.311-11.032c-1.377-1.59-2.794-2.976-4.186-4.183c-0.076-0.09-0.167-0.167-0.27-0.226
	c-5.091-4.335-9.471-6.111-10.77-6.586v-19.931c0.927-0.381,8.487-3.539,16.299-10.236c8.301-7.115,16.381-18.061,15.056-32.948
	c-1.302-14.627-5.41-26.157-11.174-34.207c-5.764-8.05-13.229-12.626-21.112-13.144c-7.546-0.497-14.778-0.997-19.126-3.166
	c-2.173-1.086-3.603-2.497-4.247-4.565c-0.643-2.068-0.487-4.917,0.929-8.827c0.179-0.498-0.069-1.057-0.558-1.259
	c0,0-4.322-1.791-10.056-1.551c-5.735,0.24-12.994,2.565-18.702,10.553c-6.809,9.529-5.569,17.63-2.518,23.101
	c2.64,4.735,6.063,7.2,7.071,7.893c-1.063,1.848-12.858,22.606-19.059,44.459c-0.06,0.119-0.095,0.249-0.104,0.381
	c-0.755,2.693-1.441,5.396-1.994,8.086c0,0.004-0.001,0.009-0.002,0.014c-0.88,4.633,1.391,9.305,5.579,11.474
	c0.005,0.003,0.011,0.007,0.016,0.01c5.723,2.833,14.854,6.858,25.202,9.613v13.711c-1.238-0.133-2.484-0.172-3.723-0.103
	c-3.095,0.171-6.158,0.968-8.989,2.38c-21.823,10.88-52.387,26.118-53.151,26.499l-14.775-15.59h23.075
	c6.357,0,11.533-5.175,11.533-11.531V238.833C408.505,235.859,420.92,233.731,434.708,233.739L434.708,233.739L434.708,233.739z
	 M239.144,237.095c-0.005-0.001-0.009-0.001-0.014-0.001c-0.548,0-0.999,0.451-0.999,1c0,0.547,0.45,0.999,0.999,0.999
	c0.005,0,0.009,0,0.014,0h49.385c0.005,0,0.01,0,0.014,0c0.548,0,1-0.451,1-0.999c0-0.548-0.451-1-1-1c-0.004,0-0.009,0-0.014,0.001
	H239.144z M312.162,244.785c10.406,0,18.819,8.415,18.819,18.821c0,10.405-8.413,18.818-18.819,18.818
	c-10.405,0-18.82-8.413-18.82-18.818C293.342,253.2,301.757,244.785,312.162,244.785L312.162,244.785z M239.144,248.207
	c-0.005-0.001-0.009-0.001-0.014-0.001c-0.548,0-0.999,0.451-0.999,1c0,0.547,0.45,0.999,0.999,0.999c0.005,0,0.009,0,0.014,0
	h49.385c0.005,0,0.01,0,0.014,0c0.548,0,1-0.451,1-0.999c0-0.548-0.451-1-1-1c-0.004,0-0.009,0-0.014,0.001H239.144z
	 M312.147,252.123c-0.547,0.009-0.991,0.465-0.984,1.013v18.529l-7.647-7.647c-0.188-0.194-0.446-0.303-0.716-0.303
	c-0.547,0-0.998,0.45-0.998,0.999c0,0.27,0.109,0.527,0.302,0.716l9.27,9.272c0.19,0.244,0.48,0.386,0.789,0.386
	c0.315,0,0.61-0.148,0.799-0.4l9.257-9.258c0.193-0.189,0.303-0.446,0.303-0.716c0-0.548-0.451-1-0.999-1
	c-0.01,0-0.02,0.001-0.03,0.001c-0.26,0.008-0.505,0.116-0.686,0.303l-7.646,7.647v-18.529c0-0.004,0-0.009,0-0.014
	c0-0.547-0.45-0.999-0.999-0.999C312.157,252.123,312.152,252.123,312.147,252.123L312.147,252.123L312.147,252.123z
	 M451.371,290.867c3.578,0.07,5.954,0.869,6.801,1.177c-1.166,3.638-1.46,6.673-0.712,9.077c0.823,2.645,2.761,4.511,5.262,5.759
	c5,2.496,12.349,2.877,19.888,3.373c7.2,0.473,14.122,4.631,19.62,12.311c5.499,7.679,9.529,18.872,10.808,33.222
	c1.254,14.089-6.345,24.379-14.368,31.256c-7.681,6.584-15.455,9.822-16.121,10.094c-0.31-0.053-5.684-0.966-10.289-1.75
	c-3.128-0.532-5.562-2.992-6.061-6.128c-0.44-2.766-0.781-4.915-0.892-5.608c0.599-0.194,2.085-0.674,4.49-1.451
	c5.124-1.657,8.004-7.06,6.619-12.239c0.005,0.015,0.021,0.068,0.021,0.068c0-0.094-0.013-0.188-0.039-0.279
	c-0.029-0.098-0.072-0.191-0.129-0.275c0,0,0.015,0.052,0.02,0.066c-0.011-0.033-0.036-0.057-0.047-0.09
	c0.004,0.003,0.027,0.024,0.027,0.024c-0.016-0.026-0.034-0.051-0.053-0.075c0,0-0.001-0.001-0.002-0.002
	c-1.693-5.058-7.022-8.007-12.209-6.583c-2.617,0.717-4.304,1.181-4.92,1.349c-3.983-7.805-5.252-14.62-5.466-19.497
	c-0.221-5.032,0.603-7.943,0.603-7.943c0.024-0.088,0.037-0.178,0.037-0.269c0-0.475-0.34-0.888-0.806-0.98
	c-10.752-2.125-16.041-6.093-16.041-6.093c-0.012-0.008-0.024-0.016-0.035-0.023c-0.009-0.007-0.019-0.014-0.028-0.02l-0.011-0.008
	c-0.003-0.002-0.006-0.004-0.008-0.006c-0.058-0.037-4.371-2.817-7.124-7.755c-2.773-4.971-4.043-11.952,2.399-20.967
	c5.354-7.493,11.879-9.498,17.161-9.718C450.325,290.861,450.861,290.857,451.371,290.867L451.371,290.867L451.371,290.867z
	 M206.329,299.025c-0.004,0-0.009,0-0.014,0c-0.547,0-0.999,0.451-0.999,0.999c0,0.548,0.451,1,0.999,1
	c0.005,0,0.01-0.001,0.014-0.001h82.2c0.005,0,0.01,0.001,0.014,0.001c0.548,0,1-0.451,1-1c0-0.547-0.451-0.999-1-0.999
	c-0.004,0-0.009,0-0.014,0H206.329L206.329,299.025z M305.68,299.025c-0.005,0-0.009,0-0.014,0c-0.548,0-0.999,0.451-0.999,0.999
	c0,0.548,0.45,1,0.999,1c0.005,0,0.009-0.001,0.014-0.001h19.533c0.005,0,0.009,0.001,0.014,0.001c0.548,0,0.999-0.451,0.999-1
	c0-0.547-0.45-0.999-0.999-0.999c-0.005,0-0.009,0-0.014,0H305.68z M437.166,331.59c1.933,1.175,6.958,3.868,14.947,5.593
	c-0.233,1.067-0.672,3.429-0.49,7.571c0.233,5.289,1.584,12.668,6.025,21.064c0.218,0.414,0.698,0.622,1.149,0.497
	c0,0,2.684-0.737,5.735-1.574c0.001,0,0.001,0,0.002,0c4.29-1.177,8.704,1.293,9.947,5.566l-0.041-0.28c0,0,0.05,0.166,0.098,0.323
	l-0.057-0.043c1.229,4.226-1.112,8.638-5.299,9.991c-2.84,0.918-5.304,1.715-5.304,1.715c-0.466,0.151-0.756,0.624-0.679,1.109
	c0,0,0.521,3.27,1.028,6.451c0.632,3.972,3.733,7.106,7.7,7.782c4.364,0.742,8.942,1.522,9.748,1.66v19.395h-34.505v-14.68
	c0.001-0.453-0.309-0.854-0.749-0.967c-10.458-2.704-19.761-6.821-25.547-9.684c-3.411-1.766-5.253-5.554-4.535-9.328
	c0.454-2.211,1.018-4.442,1.623-6.674c0.717,0.477,1.704,1.022,2.957,1.416c2.731,0.859,6.733,1.01,11.615-1.531
	c0.342-0.168,0.559-0.516,0.559-0.897c0-0.548-0.451-0.999-1-0.999c-0.169,0-0.335,0.043-0.482,0.124
	c-4.466,2.324-7.813,2.114-10.093,1.397c-1.521-0.479-2.486-1.149-2.992-1.559C424.353,354.86,435.014,335.41,437.166,331.59
	L437.166,331.59L437.166,331.59z M105.539,334.939c-0.547,0.008-0.992,0.464-0.985,1.013v6.132c0,0.004,0,0.009,0,0.014
	c0,0.548,0.45,0.999,0.999,0.999s0.999-0.45,0.999-0.999c0-0.005,0-0.01,0-0.014v-6.132c0-0.004,0-0.009,0-0.014
	c0-0.547-0.45-0.999-0.999-0.999C105.548,334.939,105.544,334.939,105.539,334.939z M186.865,341.554h149.382
	c7.143,0,13.994,2.839,19.045,7.889c5.052,5.051,7.888,11.9,7.888,19.043v0.004c0,7.144-2.837,13.993-7.888,19.044
	c-5.051,5.05-11.902,7.888-19.045,7.888h-4.366c-3.157-4.452-8.154-11.497-13.897-19.595c0.165-0.113,0.293-0.273,0.367-0.458
	l1.654-4.163h5.189l1.656,4.163c0.142,0.398,0.52,0.665,0.942,0.665c0.548,0,0.999-0.45,0.999-0.999
	c0-0.139-0.029-0.277-0.085-0.404l-1.84-4.629c-0.024-0.11-0.066-0.215-0.125-0.311l-3.213-8.083
	c-0.152-0.383-0.524-0.634-0.936-0.63c-0.406,0.003-0.771,0.253-0.921,0.63l-3.221,8.101c-0.047,0.083-0.083,0.172-0.105,0.266
	l-1.621,4.075c-1.358-1.915-2.516-3.549-3.5-4.936v-1.961c0-1.637-0.65-3.209-1.809-4.368c-1.158-1.158-2.73-1.808-4.368-1.808
	h-0.002c-1.637,0-3.208,0.65-4.366,1.808c-1.158,1.159-1.81,2.731-1.81,4.368v2.669c0,1.638,0.652,3.21,1.81,4.368
	c0.591,0.591,1.293,1.041,2.055,1.348c2.865,4.962,6.804,11.785,7.188,12.452c-0.395,0.445-3.557,4.027-6.564,7.432H186.865
	c-7.143,0-13.994-2.839-19.045-7.888c-5.052-5.051-7.887-11.9-7.887-19.044v-0.004c0-7.143,2.836-13.992,7.887-19.043
	C172.871,344.392,179.722,341.554,186.865,341.554L186.865,341.554z M96.212,344.296c-0.005,0-0.01,0-0.015,0
	c-0.547,0-0.999,0.45-0.999,0.999c0,0.547,0.451,0.999,0.999,0.999c0.005,0,0.01,0,0.015,0h6.133c0.005,0,0.01,0,0.014,0
	c0.548,0,0.999-0.451,0.999-0.999c0-0.548-0.45-0.999-0.999-0.999c-0.004,0-0.009,0-0.014,0H96.212z M108.764,344.296
	c-0.005,0-0.01,0-0.014,0c-0.548,0-0.999,0.45-0.999,0.999c0,0.547,0.45,0.999,0.999,0.999c0.004,0,0.009,0,0.014,0h6.133
	c0.005,0,0.01,0,0.015,0c0.547,0,0.999-0.451,0.999-0.999c0-0.548-0.451-0.999-0.999-0.999c-0.005,0-0.01,0-0.015,0H108.764z
	 M105.539,347.491c-0.542,0.007-0.985,0.455-0.985,0.999c0,0.005,0,0.01,0,0.015v6.132c0,0.005,0,0.01,0,0.014
	c0,0.548,0.45,0.999,0.999,0.999s0.999-0.45,0.999-0.999c0-0.004,0-0.009,0-0.014v-6.132c0-0.005,0-0.01,0-0.015
	c0-0.548-0.45-0.999-0.999-0.999C105.548,347.491,105.544,347.491,105.539,347.491z M196.638,350.635
	c-9.848,0-17.855,8.004-17.855,17.853c0,9.849,8.007,17.855,17.855,17.855c9.849,0,17.853-8.006,17.853-17.855
	C214.492,358.639,206.487,350.635,196.638,350.635z M196.638,352.632c8.769,0,15.856,7.086,15.856,15.856
	c0,8.769-7.086,15.858-15.856,15.858s-15.858-7.088-15.858-15.858C180.78,359.719,187.869,352.632,196.638,352.632z
	 M196.623,358.571c-0.542,0.008-0.984,0.456-0.984,0.999c0,0.005,0,0.01,0,0.015v15.395l-6.247-6.246
	c-0.188-0.194-0.446-0.304-0.716-0.304c-0.001,0-0.001,0-0.002,0c-0.548,0-0.999,0.45-0.999,0.999c0,0.271,0.11,0.529,0.304,0.717
	l7.816,7.814c0.17,0.256,0.448,0.418,0.755,0.442c0.033,0.003,0.066,0.004,0.099,0.004c0.001,0,0.001,0,0.002,0
	c0.001,0,0.003,0,0.004,0c0.002,0,0.004,0,0.006,0c0.336-0.002,0.648-0.173,0.831-0.454l7.806-7.805
	c0.193-0.189,0.303-0.447,0.303-0.717c0-0.547-0.451-0.999-0.999-0.999c-0.01,0-0.02,0-0.03,0.001
	c-0.26,0.007-0.505,0.116-0.686,0.302l-6.246,6.246v-15.395c0-0.005,0-0.01,0-0.015c0-0.548-0.451-1-0.999-1
	C196.633,358.57,196.628,358.57,196.623,358.571L196.623,358.571L196.623,358.571z M256.025,360.964
	c-0.547,0.008-0.992,0.464-0.985,1.013V375c0,0,0,0,0,0.001c0,0.547,0.45,0.999,0.999,0.999c0.305,0,0.593-0.139,0.782-0.378
	l4.398-5.528l4.395,5.528c0.19,0.239,0.477,0.378,0.782,0.378c0.548,0,0.999-0.451,0.999-0.999c0-0.001,0-0.001,0-0.001v-13.023
	c0-0.005,0-0.01,0-0.014c0-0.548-0.45-1-0.999-1c-0.547,0-0.999,0.451-0.999,1c0,0.004,0,0.009,0,0.014v10.164l-3.398-4.273
	c-0.19-0.238-0.477-0.377-0.781-0.377c-0.305,0-0.592,0.139-0.782,0.377l-3.398,4.273v-10.164c0-0.005,0-0.009,0-0.014
	c0-0.548-0.45-0.999-0.999-0.999C256.034,360.964,256.03,360.964,256.025,360.964L256.025,360.964z M281.932,360.964
	c-0.547,0.009-0.991,0.465-0.984,1.013v10.162l-8.575-10.784c-0.19-0.238-0.477-0.376-0.781-0.376c-0.547,0-0.998,0.45-0.999,0.998
	V375c0,0.004,0,0.009,0,0.014c0,0.548,0.451,0.999,0.999,0.999c0.548,0,0.999-0.45,0.999-0.999c0-0.005,0-0.01,0-0.014v-10.162
	l8.574,10.784c0.19,0.239,0.478,0.378,0.782,0.378c0.548,0,0.999-0.451,0.999-0.999c0-0.001,0-0.001,0-0.001v-13.023
	c0.001-0.005,0.001-0.009,0.001-0.014c0-0.548-0.451-0.999-1-0.999C281.942,360.964,281.937,360.964,281.932,360.964
	L281.932,360.964z M288.017,360.964c-0.547,0.009-0.991,0.465-0.984,1.013V375c0,0.547,0.451,0.999,0.999,0.999h10.356
	c0.005,0,0.01,0,0.015,0c0.547,0,0.999-0.451,0.999-0.999c0-0.548-0.451-0.999-0.999-0.999c-0.005,0-0.01,0-0.015,0h-9.358v-12.024
	c0-0.005,0-0.009,0-0.014c0-0.548-0.45-0.999-0.999-0.999C288.027,360.964,288.022,360.964,288.017,360.964z M224.934,360.978
	c-0.547,0-0.998,0.45-0.999,0.999V375c0.001,0.547,0.451,0.999,0.999,0.999h3.845c4.135,0,7.509-3.373,7.509-7.509v-0.004
	c0-4.135-3.374-7.508-7.509-7.508H224.934z M245.665,360.978c-1.637,0-3.21,0.65-4.368,1.808c-1.159,1.159-1.81,2.731-1.81,4.368
	v2.669c0,1.638,0.651,3.209,1.81,4.368c1.158,1.158,2.731,1.809,4.368,1.809c1.638,0,3.21-0.65,4.368-1.809
	c1.158-1.159,1.809-2.73,1.809-4.368v-2.669c0-1.637-0.651-3.209-1.809-4.368C248.875,361.629,247.303,360.978,245.665,360.978z
	 M332.975,360.978c-0.547,0-0.999,0.45-0.999,0.999V375c0,0.547,0.451,0.999,0.999,0.999h3.845c4.135,0,7.509-3.373,7.509-7.509
	v-0.004c0-4.135-3.374-7.508-7.509-7.508H332.975z M225.933,362.976h2.847c3.056,0,5.511,2.455,5.511,5.51v0.004
	c0,3.056-2.455,5.511-5.511,5.511h-2.847V362.976z M245.665,362.976c1.109,0,2.17,0.44,2.953,1.223
	c0.785,0.785,1.226,1.847,1.226,2.955v2.669c0,1.11-0.44,2.17-1.226,2.955c-0.783,0.783-1.845,1.224-2.953,1.224
	s-2.171-0.439-2.955-1.224c-0.785-0.785-1.225-1.846-1.225-2.955v-2.669c0-1.109,0.439-2.17,1.225-2.955
	C243.494,363.415,244.556,362.976,245.665,362.976z M307.046,362.976h0.002c1.11,0,2.172,0.439,2.955,1.223
	c0.784,0.784,1.224,1.847,1.224,2.955v0.004c-1.035-0.587-2.247-0.816-3.428-0.631c-0.64,0.1-1.271,0.319-1.859,0.667
	c-1.669,0.988-2.573,2.772-2.559,4.591c-0.322-0.6-0.513-1.268-0.513-1.963v-2.669c0-1.109,0.441-2.171,1.225-2.955
	C304.876,363.415,305.937,362.976,307.046,362.976L307.046,362.976L307.046,362.976z M333.974,362.976h2.847
	c3.056,0,5.511,2.455,5.511,5.51v0.004c0,3.056-2.455,5.511-5.511,5.511h-2.847V362.976z M322.6,364.681l1.8,4.528h-3.601
	L322.6,364.681z M308.714,368.455c0.994,0.026,1.956,0.508,2.573,1.379c0.016,0.021,0.042,0.058,0.057,0.08
	c0.041,0.077,0.091,0.147,0.15,0.211c5.26,7.415,14.838,20.923,18.976,26.757c0.042,0.083,0.096,0.16,0.16,0.229
	c0.816,1.151,3.874,5.461,3.874,5.461c0.027,0.039,0.057,0.075,0.089,0.11l26.789,28.265c0,0.001,0.001,0.002,0.002,0.004
	c0.055,0.078,0.122,0.147,0.197,0.207l16.669,17.588c0.093,0.205,11.201,24.941,16.377,36.466
	c-1.022,0.323-8.483,2.679-16.069,5.074c-6.929,2.186-14.451-0.535-18.374-6.65c-11.305-17.616-28.674-44.677-34.441-53.664
	c-0.002-0.003-0.004-0.007-0.006-0.01c-0.039-0.088-0.091-0.169-0.154-0.242c-0.884-1.376-5.413-8.435-5.413-8.435
	c-0.047-0.073-0.104-0.14-0.168-0.198c0,0-7.916-7.241-13.758-12.588c-3.007-2.753-3.253-7.378-0.554-10.433
	c0.357-0.404,0.406-0.458,0.768-0.87c0.083-0.067,0.154-0.148,0.211-0.238c3.418-3.869,7.228-8.183,7.228-8.183
	c0.283-0.321,0.33-0.789,0.117-1.159c0,0-4.576-7.927-7.638-13.231c-0.036-0.095-0.087-0.183-0.15-0.263
	c-0.171-0.297-0.276-0.476-0.435-0.753c-0.902-1.564-0.386-3.537,1.169-4.458v0.002C307.51,368.587,308.117,368.439,308.714,368.455
	L308.714,368.455L308.714,368.455z M442.619,420.045c1.01-0.004,2.021,0.067,3.025,0.209c0.158,0.099,0.341,0.152,0.526,0.153h0.383
	c1.151,0.214,2.287,0.519,3.4,0.928c5.424,1.996,9.787,6.139,12.056,11.453c0.153,0.358,0.305,0.716,0.458,1.073
	c4.296,10.065,0.151,21.721-9.535,26.812c-12.202,6.415-25.167,13.229-36.799,19.344c-0.082,0.031-0.161,0.072-0.232,0.123
	c-4.299,2.26-10.992,5.779-13.663,7.183c-0.001,0-0.001,0-0.002,0c-0.939,0.493-2.038,0.578-3.041,0.232
	c-1.003-0.347-1.817-1.09-2.251-2.057c-4.843-10.787-16.013-35.656-16.546-36.844c0.985-0.491,31.211-15.561,52.953-26.402
	c2.587-1.288,5.381-2.017,8.207-2.172C441.911,420.057,442.264,420.047,442.619,420.045L442.619,420.045z M452.846,420.407h29.646
	c0.271,0.088,5.059,1.697,10.496,6.289c0.222,2.136,3.841,37.917,1.961,75.749c-6.621,6.495-13.73,12.529-21.294,18.01
	c-17.357,12.576-42.777,21.492-72.408,26.831c1.215-14.168,8.377-40.572,16.061-65.63c11.613-6.105,24.434-12.844,36.556-19.217
	c10.592-5.567,15.139-18.36,10.44-29.365c-0.153-0.356-0.306-0.713-0.458-1.071C461.676,426.923,457.758,422.821,452.846,420.407
	L452.846,420.407z M495.186,428.698c0.737,0.724,1.474,1.49,2.202,2.33c1.653,1.908,3.818,5.835,6.008,10.561
	c2.19,4.725,4.447,10.273,6.479,15.563c3.897,10.146,6.811,18.89,7.055,19.626c-5.99,8.334-12.636,16.236-19.894,23.577
	C498.476,467.826,495.988,437.32,495.186,428.698z M179.038,449.466c0.36,1.224,2.21,7.857,1.809,20.144
	c-0.436,13.322-3.739,32.275-15.15,54.901c-9.855-4.004-18.945-8.181-27.332-12.502l23.03-34.49
	c0.115-0.166,0.176-0.364,0.176-0.565c0-0.548-0.45-0.999-0.999-0.999c-0.008,0-0.017,0-0.025,0
	c-0.33,0.008-0.634,0.179-0.814,0.454l-23.152,34.675c-7.31-3.829-14.072-7.772-20.332-11.801
	C118.672,495.193,140.284,460.271,179.038,449.466L179.038,449.466z M235.548,484.69c2.886,0.011,5.893,0.105,9.027,0.297
	c-0.031,1.184-0.256,6.444-3.385,15.67c-3.474,10.24-10.425,24.37-24.331,39.964c-11.372-2.684-22.373-5.788-32.836-9.303
	l36.994-27.631c0.258-0.188,0.411-0.488,0.411-0.808c0-0.542-0.441-0.991-0.985-0.999c-0.225-0.003-0.443,0.07-0.622,0.207
	l-38.09,28.45c-4.176-1.437-8.27-2.937-12.255-4.508c-0.647-0.256-1.278-0.514-1.92-0.771c3.884-7.721,6.837-15.022,9.061-21.835
	c0.225-0.27,4.575-5.42,15.164-10.364C201.162,488.678,215.353,484.613,235.548,484.69z"></path>
</svg>