<?xml version="1.0" standalone="no"?>
<svg version="1.1" id="Layer_1" xmlns="http://www.w3.org/2000/svg" xmlns:xlink="http://www.w3.org/1999/xlink" x="0px" y="0px" viewBox="0 0 595.28 595.28" enable-background="new 0 0 595.28 595.28" xml:space="preserve">
<path id="color_x5F_6" fill="#7ECDCA" d="M269.305,431.655l0.68,0.851l-223.512-0.794c0,0,0.425-0.426,0.85-1.475
	c0.397-1.021,5.924-3.628,5.924-3.628s10.885-0.936,14.315-1.559c3.43-0.624,3.742,0,6.236-2.184
	c2.495-2.183,3.742-3.741,6.236-4.677s8.107,1.56,12.161,1.56c4.025,0,1.559-0.624,2.806-2.495c1.219-1.871,1.531-2.806,4.961-4.989
	c3.43-2.154,4.365,1.871,7.795,1.248c3.43-0.624,1.247-1.871,1.247-3.09c0-1.248-0.935-3.431-1.247-6.549
	c-0.312-3.117,5.924-2.183,8.731-1.87c2.806,0.312,2.806,6.548,6.86,7.171c4.054,0.624,2.183-6.548,4.054-10.913
	s1.247-4.677,1.871-6.548c0.624-1.871,3.118-0.624,7.143-1.247c4.054-0.624,3.43-0.312,4.365-0.936s2.183-1.247,3.118-2.807
	c0.935-1.559,0.935-2.494,3.742-4.054c2.466-1.36,5.896,0.879,6.69,1.446c5.868,27.099,29.962,47.396,58.847,47.396
	C222.165,431.514,244.218,431.599,269.305,431.655L269.305,431.655z M529.639,426.723L529.639,426.723
	c-3.317-0.425-3.317-10.715-6.321-12.784c-3.033-2.069-2.806-0.198-4.904-1.758c-2.069-1.559,0.425-2.381-1.956-4.054
	c-2.409-1.672-2.183-1.672-3.657-0.935c-1.446,0.736-2.58,0.935-3.09-1.56c-0.539-2.494,3.515,0.113-1.049-3.316
	s-4.677-3.969-5.102-3.118c-0.397,0.822-1.332,1.758-1.332,3.43c0,1.645,0.935,2.807,1.02,3.629c0.113,0.821,0.425,0.113-0.51,1.559
	c-0.935,1.446-0.51,1.56-0.312,2.92c0.198,1.332-1.446,1.219-2.183,2.268s0.935,1.758-0.312,2.92
	c-1.247,1.134-4.365,1.871-4.365-0.312c0-2.184,1.559-1.162,0.312-3.969c-1.247-2.778,1.162-3.005-1.871-3.005
	c-3.005,0-4.45,0.936-3.317-1.956c1.134-2.92,0.624-1.162,0.737-4.28c0.085-3.118,2.891-3.118,0.085-5.188s-4.876-3.43-4.45-5.301
	c0.397-1.871,3.203-3.741-0.737-3.741s-5.811-2.382-6.633,0.538c-0.85,2.892-3.969,3.316-4.592,2.58
	c-0.624-0.709-5.896-3.005-9.638-7.994c-3.742-4.989-5.924-8.419-7.795-6.236s-2.183,3.742-3.43,5.612
	c-1.247,1.871-1.559,4.678-3.742,2.184c-2.183-2.495,2.495-4.678-3.43-7.172c-5.924-2.495-8.419-2.495-8.419-2.495l-4.649,3.118
	c0,0-1.559-3.741-6.236-6.207c-2.466-1.333-3.742-2.807-5.216-3.912c1.162,4.224,1.786,8.702,1.786,13.322
	c0,27.894-22.592,50.485-50.485,50.485c-8.617,0-32.315-0.085-59.131-0.17l-0.68,0.851l77.669,0.283h152.05
	C543.755,432.959,532.955,427.119,529.639,426.723L529.639,426.723z M183.046,290.773L183.046,290.773l-0.539-3.459l-38.721,6.151
	l-15.732-39.515l-3.288,1.304l16.781,42.123L183.046,290.773z"></path>
<path id="color_x5F_5" fill="#FFD2BB" d="M221.087,259.167c0,0-6.52,19.53-10.658,21.316c-4.11,1.758-40.224,7.398-40.762,7.285
	c-0.539-0.085-2.466-0.17-4.847,0.312c-2.381,0.482-4.025,2.608-5.386,2.807c-1.389,0.17-2.891-0.681-2.891-0.681
	s0.737-4.989,4.224-6.321s36.057-7.37,37.871-9.524c1.814-2.154,3.543-14.088,3.543-14.088
	C213.802,262.229,221.087,259.167,221.087,259.167L221.087,259.167z M184.861,225.491L184.861,225.491c0,2.069,0,2.977,2.069,2.977
	c2.098,0,3.26,2.211,4.167,4.422s3.232,0.907,5.584,0.794c2.324-0.142,3.685,1.474,3.685,1.474s6.945-1.871,8.646-5.896
	c0,0-2.466-3.26-2.466-5.074c0-0.426,0.085-1.105,0.198-1.956c-2.211,1.673-5.386,1.843-6.576,0.538
	c-1.729-1.898-0.34-3.543-0.935-7.114c-0.595-3.544-3.543-2.75-3.628,0.623c-0.085,3.374-1.049,4.337-1.474,3.459
	c-0.454-0.879-0.539-6.407-2.863-5.896c-1.814,0.425-4.28,3.94-8.277,4.904c0.057,0.17,0.113,0.34,0.17,0.51
	C184.719,223.28,184.861,223.422,184.861,225.491L184.861,225.491z M143.815,354.949L143.815,354.949l7.398,1.162l3.515-8.561
	l-8.929-1.134L143.815,354.949z"></path>
<path id="color_x5F_4" fill="#00CEC9" d="M520.255,392.649c0.976,7.157-0.263,13.369-2.612,18.657
	c-0.477-1.054,0.71-1.847-1.185-3.179c-2.409-1.672-2.183-1.672-3.657-0.935c-1.446,0.736-2.58,0.935-3.09-1.56
	c-0.539-2.494,3.515,0.113-1.049-3.316c-4.564-3.429-4.677-3.969-5.102-3.118c-0.397,0.822-1.332,1.758-1.332,3.43
	c0,1.645,0.935,2.807,1.02,3.629c0.113,0.821,0.425,0.113-0.51,1.559s-0.51,1.56-0.312,2.92c0.198,1.332-1.446,1.219-2.183,2.268
	s0.935,1.758-0.312,2.92c-1.247,1.134-4.365,1.871-4.365-0.312c0-2.184,1.559-1.162,0.312-3.969
	c-1.247-2.778,1.162-3.005-1.871-3.005c-3.005,0-4.45,0.936-3.317-1.956c1.134-2.92,0.624-1.162,0.737-4.28
	c0.085-3.118,2.891-3.118,0.085-5.188c-2.806-2.07-4.876-3.43-4.45-5.301c0.397-1.871,3.203-3.741-0.737-3.741
	s-5.811-2.382-6.633,0.538c-0.85,2.892-3.969,3.316-4.592,2.58c-0.624-0.709-5.896-3.005-9.638-7.994
	c-3.742-4.989-5.924-8.419-7.795-6.236c-1.871,2.183-2.183,3.742-3.43,5.612c-1.247,1.871-1.559,4.678-3.742,2.184
	c-2.183-2.495,2.495-4.678-3.43-7.172c-5.924-2.495-8.419-2.495-8.419-2.495l-4.649,3.118c0,0-1.559-3.741-6.236-6.207
	c-2.466-1.333-3.742-2.807-5.216-3.912c0.038,0.137,0.07,0.277,0.107,0.414c0,0,0-0.001,0-0.001c-0.839-3.177-1.98-6.228-3.39-9.127
	c-0.02-0.041-0.04-0.083-0.06-0.124c-0.274-0.558-0.556-1.111-0.849-1.657c-0.009-0.016-0.018-0.032-0.027-0.049
	c-1.198-2.225-2.557-4.348-4.064-6.357c-0.043-0.057-0.085-0.116-0.128-0.173c-0.332-0.439-0.673-0.871-1.019-1.298
	c-0.089-0.11-0.179-0.22-0.269-0.329c-0.336-0.408-0.677-0.812-1.026-1.21c-0.095-0.108-0.192-0.214-0.287-0.321
	c-0.362-0.406-0.726-0.809-1.101-1.202c-0.001-0.001-0.002-0.001-0.002-0.002c-0.864-0.908-1.761-1.783-2.69-2.624
	c-0.025-0.023-0.049-0.047-0.074-0.069c-0.349-0.314-0.706-0.619-1.063-0.924c-0.183-0.156-0.364-0.313-0.549-0.466
	c-0.331-0.274-0.667-0.542-1.005-0.808c-0.222-0.175-0.445-0.348-0.67-0.519c-0.326-0.248-0.654-0.493-0.986-0.733
	c-0.25-0.181-0.504-0.357-0.757-0.533c-0.322-0.224-0.643-0.45-0.971-0.666c-0.298-0.197-0.602-0.385-0.904-0.576
	c-0.491-0.31-0.987-0.612-1.489-0.905c-0.374-0.218-0.747-0.437-1.126-0.646c-0.286-0.157-0.577-0.306-0.866-0.458
	c-0.352-0.185-0.704-0.368-1.06-0.545c-0.294-0.145-0.59-0.286-0.887-0.426c-0.367-0.173-0.735-0.341-1.107-0.505
	c-0.289-0.127-0.578-0.254-0.869-0.376c-0.407-0.171-0.819-0.333-1.231-0.494c-0.262-0.102-0.522-0.207-0.787-0.305
	c-0.592-0.218-1.189-0.425-1.79-0.622c-0.126-0.041-0.251-0.084-0.378-0.124c-0.649-0.206-1.304-0.399-1.964-0.58
	c-0.241-0.066-0.485-0.124-0.727-0.187c-0.476-0.123-0.954-0.241-1.435-0.35c-0.273-0.062-0.548-0.119-0.823-0.177
	c-0.464-0.097-0.931-0.188-1.4-0.272c-0.275-0.049-0.551-0.098-0.827-0.143c-0.503-0.082-1.01-0.153-1.518-0.219
	c-0.239-0.031-0.477-0.067-0.717-0.095c-0.748-0.087-1.499-0.162-2.256-0.216c0.039-0.569,0.062-1.137,0.087-1.706
	c0.049-1.099,0.083-2.199,0.083-3.299c0-0.003,0-0.006-0.001-0.013c0,0,0-0.001,0-0.002c0-0.737-0.028-1.474-0.057-2.239
	c0.149-0.046,0.294-0.084,0.443-0.129c-0.148,0.044-0.298,0.087-0.442,0.131c0.029,0.765,0.057,1.502,0.057,2.239
	c0,0.001,0,0.002,0,0.002c0,0.001,0,0.001,0,0.002c0,0.003,0,0.005,0,0.008c0,1.1-0.034,2.2-0.083,3.299
	c-0.001,0.021-0.001,0.044-0.002,0.065c12.076,0.539,28.885,5.557,43.484,15.761c19.474,13.606,42.718,12.444,46.942-2.353
	c4.223-14.767-16.186-39.91-47.169-40.363c-7.143-0.113-13.691,0.766-19.616,2.183c9.581-5.103,20.693-10.573,32.995-17.434
	c31.918-17.857,0.454-54.935-25.37-42.746c-23.981,11.339-35.802,46.148-37.361,51.052c0.134,0.318,0.25,0.645,0.381,0.965
	c0.24,0.587,0.473,1.177,0.699,1.771c0.184,0.485,0.366,0.97,0.541,1.46c0.248,0.695,0.483,1.396,0.712,2.1
	c0.137,0.423,0.28,0.843,0.41,1.268c0.271,0.885,0.522,1.779,0.762,2.677c0.071,0.264,0.151,0.524,0.219,0.789
	c0.007,0.025,0.015,0.05,0.021,0.075c0,0,0,0.001-0.001,0.001c-0.006-0.026-0.014-0.051-0.021-0.077
	c-0.068-0.265-0.148-0.525-0.219-0.789c-0.24-0.898-0.491-1.792-0.762-2.677c-0.13-0.425-0.272-0.846-0.41-1.268
	c-0.229-0.704-0.464-1.405-0.712-2.1c-0.175-0.489-0.357-0.975-0.541-1.46c-0.226-0.594-0.459-1.184-0.699-1.771
	c-11.649-28.503-39.659-48.62-72.378-48.62c-0.884,0-1.764,0.015-2.641,0.044c-0.215,0.007-0.427,0.023-0.642,0.032
	c-0.66,0.027-1.321,0.055-1.977,0.099c-0.414,0.028-0.825,0.069-1.237,0.103c-0.453,0.037-0.908,0.068-1.359,0.113
	c-0.477,0.048-0.949,0.11-1.423,0.166c-0.382,0.045-0.767,0.083-1.148,0.134c-0.675,0.09-1.345,0.195-2.014,0.303
	c-0.176,0.028-0.354,0.05-0.529,0.08c-0.598,0.1-1.19,0.215-1.783,0.328c-0.245,0.047-0.492,0.087-0.736,0.136
	c-0.636,0.128-1.266,0.271-1.896,0.414c-0.197,0.045-0.396,0.083-0.592,0.129c-0.623,0.147-1.24,0.308-1.858,0.47
	c-0.2,0.052-0.402,0.098-0.602,0.152c-0.546,0.148-1.086,0.309-1.627,0.469c-0.266,0.078-0.536,0.15-0.801,0.231
	c-0.649,0.198-1.291,0.411-1.933,0.625c-0.152,0.051-0.307,0.097-0.459,0.149c-0.753,0.257-1.499,0.527-2.241,0.806
	c-0.039,0.015-0.078,0.028-0.117,0.042c-0.743,0.281-1.48,0.575-2.213,0.877c-0.037,0.015-0.075,0.029-0.112,0.044
	c-0.738,0.306-1.469,0.625-2.195,0.953c-0.031,0.014-0.062,0.026-0.092,0.04c-0.737,0.334-1.467,0.68-2.191,1.036
	c-0.019,0.009-0.038,0.018-0.057,0.027c-0.676,0.333-1.346,0.679-2.011,1.031c-0.066,0.035-0.133,0.067-0.199,0.102
	c-12.391,6.601-22.797,16.442-30.087,28.389c-0.006,0.009-0.012,0.018-0.017,0.027c5.171-36.235-22.645-57.842-22.645-57.843
	c-0.39,0.809-0.859,1.531-1.373,2.189c0.12-0.204,0.233-0.411,0.325-0.628c0,0-2.466-3.26-2.466-5.074
	c0-0.426,0.085-1.105,0.198-1.956c-0.176,0.133-0.366,0.24-0.553,0.354c1.258-0.776,2.318-1.985,2.735-3.643
	c1.134-4.479-1.049-11.056-4.252-14.882c-3.203-3.799-7.88-5.868-12.643-5.783c-4.762,0.085-7.172,4.224-11.764,7.002
	c-4.592,2.778-6.831,1.559-7.965,2.522c-1.134,0.936,0.34,3.203,0.34,3.203s0.283,6.747,6.576,7.853
	c1.488,0.267,2.808,0.151,3.995-0.175c-0.075,0.02-0.146,0.045-0.222,0.063c0.057,0.17,0.113,0.34,0.17,0.51
	c1.558,4.024,1.7,4.166,1.7,6.235c0,2.069,0,2.977,2.069,2.977c2.098,0,3.26,2.211,4.167,4.422s3.232,0.907,5.584,0.794
	c2.324-0.142,3.685,1.474,3.685,1.474s1.185-0.323,2.691-0.979c-2.791,1.276-5.214,1.573-5.214,1.573s-0.765,2.608-4.167,12.217
	c-2.012,5.697-3.259,19.264-3.968,29.298c-10.446,2.571-26.547,5.703-28.941,6.618c-3.487,1.332-4.224,6.321-4.224,6.321
	s1.502,0.851,2.891,0.681c1.361-0.199,3.005-2.325,5.386-2.807c2.381-0.482,4.308-0.397,4.847-0.312
	c0.274,0.057,9.763-1.376,19.558-3.028c-0.141,2.775-0.198,4.502-0.198,4.502s0.004-0.005,0.013-0.013
	c-0.007,0.007-0.012,0.012-0.012,0.012c-0.057,0.113-0.142,0.198-0.198,0.313c-1.311,0.166-3.381,0.446-5.843,0.843l-0.48-3.083
	l-38.721,6.151l-15.732-39.515l-3.288,1.304l16.781,42.123l31.279-4.978c-5.378,1.295-10.597,3.025-13.335,5.233
	c-7.087,5.755-16.384,48.444-16.384,48.444l2.692,0.341l-1.847,7.944l-0.194-0.291c0,0-0.935,0.284-0.935,0.936
	c0,0.652-0.369,1.531-0.822,2.523c-0.482,0.992-10.743,0.51-12.274,0.765c-1.531,0.228-2.806,2.041-2.806,2.75
	c0,0.709,0,0.879,0,0.879l23.414,3.997c0,0,1.814-9.922,1.814-10.092c0-0.096-0.369-0.198-0.727-0.225l3.306-8.053l-1.549-0.197
	l4.469,0.567c-0.758,1.799-1.431,3.642-2.014,5.522c-0.292,0.94-0.561,1.89-0.807,2.849c-0.984,3.836-1.599,7.819-1.805,11.916
	c-0.052,1.024-0.078,2.056-0.078,3.094c0,1.084,0.032,2.16,0.088,3.23c0.008,0.144,0.024,0.286,0.033,0.43
	c0.057,0.945,0.131,1.884,0.231,2.817c0.006,0.059,0.016,0.117,0.022,0.176c0.23,2.087,0.568,4.14,1.005,6.157
	c-0.806-0.574-4.223-2.797-6.682-1.441c-2.807,1.56-2.807,2.495-3.742,4.054c-0.935,1.56-2.183,2.183-3.118,2.807
	c-0.935,0.624-0.311,0.312-4.365,0.936c-4.025,0.623-6.519-0.624-7.143,1.247c-0.624,1.871,0,2.183-1.871,6.548
	c-1.871,4.365,0,11.537-4.054,10.913c-4.054-0.623-4.054-6.859-6.86-7.171c-0.589-0.066-1.332-0.158-2.131-0.235
	c-2.386-6.42-3.202-15.358-0.391-27.799c8.731-38.636-12.472-51.108-27.411-103.436c-14.967-52.356,17.433-115.909,87.222-124.64
	s74.778,24.916,129.628,44.872c54.822,19.928,63.553-8.73,150.803-11.225s95.953,99.694,66.047,138.33
	C490.349,356.508,516.513,365.238,520.255,392.649z M126.75,362.83l23.414,4.054l0.17-0.964l-23.414-3.997L126.75,362.83z"></path>
<path id="color_x5F_3" fill="#E84393" d="M157.65,347.915c-0.001,0.002-0.001,0.003-0.002,0.005l-14.541-1.844
	c0,0,9.297-42.689,16.384-48.444c6.01-4.847,23.982-7.398,29.339-8.078c0.056-0.115,0.141-0.2,0.198-0.313
	c0,0,4.139-4.422,19.191-0.255c2.903,0.794,5.273,1.679,7.239,2.581l-0.38-0.143c-0.028,0.142-5.669,13.833-18.397,12.699
	c-12.019-1.077-25.2-1.615-31.918,2.637c-6.378,4.025-14.372,38.183-14.712,39.656l0.68,0.142c0.086-0.339,8.249-35.347,14.4-39.203
	c6.548-4.139,19.587-3.6,31.465-2.551c13.099,1.175,18.954-12.618,19.153-13.102c0.386,0.181,0.762,0.363,1.116,0.544
	c4.138,2.097,6.293,4.223,7.965,5.612c0.057,0.057,0.113,0.114,0.17,0.143c0.085,0.056,0.17,0.141,0.255,0.198
	c0.113,0.085,0.255,0.198,0.397,0.283c0.029,0.028,0.085,0.085,0.142,0.113c0.113,0.085,0.227,0.142,0.34,0.227
	c0.028,0,0.057,0.028,0.085,0.028c0.141,0.085,0.283,0.17,0.425,0.227c0.028,0,0.056,0.03,0.113,0.058
	c0.114,0.057,0.255,0.085,0.397,0.142h0.028c0.142,0.028,0.312,0.057,0.454,0.085c0.028,0,0.085,0,0.113,0
	c0.17,0.028,0.312,0.028,0.482,0c0.056,0,0.085,0,0.141,0c0.709,0.509,1.134,0.822,1.134,0.822s-0.005,0.144-0.035,0.402
	c-0.003,0.022-0.006,0.047-0.009,0.071c-0.008,0.063-0.016,0.129-0.027,0.203c-0.018,0.125-0.039,0.262-0.068,0.417c0,0,0,0,0,0.001
	c-0.377,2.062-1.743,6.628-6.633,10.156c-0.003,0.015-0.006,0.027-0.009,0.042c-0.141,0.102-0.285,0.203-0.432,0.303
	c-0.014-0.003-0.027-0.003-0.041-0.006c-1.191,0.822-2.58,1.588-4.224,2.24c-0.388,0.152-0.8,0.294-1.234,0.427
	c-0.004,0.001-0.008,0.002-0.012,0.003c-0.415,0.127-0.852,0.244-1.305,0.354c-0.08,0.019-0.164,0.037-0.245,0.056
	c-0.386,0.09-0.782,0.176-1.193,0.255c-0.112,0.022-0.228,0.042-0.342,0.063c-0.394,0.072-0.798,0.141-1.212,0.205
	c-0.126,0.019-0.253,0.038-0.381,0.057c-0.421,0.061-0.851,0.119-1.29,0.172c-0.124,0.015-0.248,0.03-0.373,0.045
	c-0.468,0.054-0.946,0.103-1.432,0.149c-0.099,0.009-0.197,0.019-0.296,0.028c-0.57,0.051-1.149,0.098-1.739,0.139
	c-0.013,0.001-0.026,0.002-0.039,0.003c-5.717,0.399-12.306,0.356-18.33,0.34c-0.015,0.007-0.03,0.015-0.046,0.022
	c-8.416,0.001-15.706,0.086-17.927,1.57c-3.997,2.657-8.924,19.856-10.836,27.039c-0.517,1.937-0.813,3.146-0.813,3.146
	L157.65,347.915z M323.9,385.875v-0.004v-75.312h-62.304v75.312h-0.002v0.004h-29.419l37.131,45.776c-0.002,0-0.004,0-0.005,0
	l22.284,27.472h0.964l50.509-62.24l8.93-11.008L323.9,385.875L323.9,385.875z M420.845,302.594
	c-7.143-0.113-13.691,0.766-19.616,2.183c9.581-5.103,20.693-10.573,32.995-17.434c31.918-17.857,0.454-54.935-25.37-42.746
	c-23.981,11.339-35.802,46.148-37.361,51.052c0.134,0.318,0.25,0.645,0.381,0.965c0.24,0.587,0.473,1.177,0.699,1.771
	c0.184,0.485,0.366,0.97,0.541,1.46c0.248,0.695,0.483,1.396,0.712,2.1c0.137,0.423,0.28,0.843,0.41,1.268
	c0.271,0.885,0.522,1.779,0.762,2.677c0.071,0.264,0.151,0.524,0.219,0.789c0.007,0.026,0.015,0.051,0.021,0.077
	c1.502-2.239,3.033-4.422,4.592-6.491l-0.425-0.113l7.739-32.4l0.709,0.17l-7.625,31.833c1.446-1.899,2.92-3.713,4.422-5.442v-0.057
	h0.028c4.847-5.641,9.864-10.573,14.683-14.797l7.512-25.568l0.68,0.198l-7.228,24.491c2.636-2.267,5.188-4.308,7.597-6.151v-0.255
	h0.34c9.666-7.342,16.923-11.14,17.093-11.225l0.34,0.623c-0.17,0.085-7.001,3.657-16.214,10.573l26.135-0.907l0.028,0.709
	l-27.128,0.936c-2.693,2.041-5.585,4.365-8.561,6.944l-0.142,0.567l-0.34-0.113c-4.507,3.997-9.213,8.617-13.748,13.833
	l26.617-3.373l0.085,0.68l-27.383,3.487c-3.345,3.94-6.576,8.22-9.581,12.813c0.028,0.115,0.048,0.234,0.076,0.35
	c0.253,1.065,0.488,2.135,0.697,3.216c0.045,0.231,0.082,0.464,0.125,0.696c0.2,1.089,0.382,2.183,0.536,3.287
	c0.011,0.079,0.02,0.159,0.03,0.238c0.347,2.536,0.573,5.108,0.671,7.715c3.427-1.047,6.741-1.868,9.941-2.519l-0.255-0.34
	l18.085-12.671l0.397,0.595l-17.518,12.274c9.609-1.814,18.198-1.928,25.71-1.077l-0.028-0.113l30.756-7.739l0.17,0.681
	l-29.282,7.37c7.965,1.106,14.655,3.26,19.871,5.556c3.26,1.418,6.122,2.977,8.617,4.508v-0.284l15.732-0.453l0.028,0.68
	l-15.109,0.454c7.228,4.536,11.083,8.788,11.11,8.842l-0.51,0.454c-0.057-0.085-7.115-7.824-20.183-13.578
	c-1.644-0.709-3.458-1.417-5.386-2.098l13.918,21.118l-0.595,0.396l-14.428-21.883c-7.795-2.552-17.801-4.338-29.707-3.516
	l14.627,15.08l-0.482,0.511l-14.797-15.279l0.312-0.283c-6.463,0.482-13.464,1.729-20.976,4.025
	c0.029,0.765,0.057,1.502,0.057,2.239c0,0.001,0,0.002,0,0.002c0,0.001,0,0.001,0,0.002c0,0.003,0,0.005,0,0.008
	c0,1.1-0.034,2.2-0.083,3.299c-0.001,0.021-0.001,0.044-0.002,0.065c12.076,0.539,28.885,5.557,43.484,15.761
	c19.474,13.606,42.718,12.444,46.942-2.353C472.237,328.19,451.828,303.047,420.845,302.594z"></path>
<path id="color_x5F_2" fill="#FBC02D" d="M377.673,326.186c0,1.1-0.034,2.2-0.083,3.299c-0.025,0.569-0.048,1.137-0.087,1.706
	c26.163,1.871,46.828,23.668,46.828,50.314c0,27.893-22.592,50.485-50.485,50.485c-8.618,0-32.315-0.085-59.131-0.17l28.342-34.937
	l8.93-11.008l0.003-0.004H323.9v-75.312v-0.004h-62.304v0.004v75.312h-0.002h-29.422l0.003,0.004l37.131,45.776
	c-0.002,0-0.004,0-0.005,0c-25.085-0.057-47.135-0.142-56.121-0.142c-33.279,0-60.236-26.958-60.236-60.208
	c0-8.304,1.672-16.183,4.704-23.381c0.001-0.002,0.001-0.003,0.002-0.005l1.332,0.17c0,0,0.296-1.209,0.813-3.146
	c0.234-0.877,0.513-1.903,0.831-3.034c6.285-11.239,16.104-20.244,27.932-25.575c0.015-0.007,0.03-0.015,0.046-0.022
	c6.024,0.016,12.612,0.059,18.33-0.34c0.013-0.001,0.026-0.002,0.039-0.003c0.59-0.041,1.169-0.088,1.739-0.139
	c0.1-0.009,0.197-0.019,0.296-0.028c0.486-0.046,0.963-0.095,1.432-0.149c0.125-0.014,0.249-0.03,0.373-0.045
	c0.439-0.053,0.869-0.11,1.29-0.172c0.128-0.019,0.255-0.037,0.381-0.057c0.414-0.064,0.818-0.132,1.212-0.205
	c0.114-0.021,0.23-0.041,0.342-0.063c0.411-0.079,0.807-0.165,1.193-0.255c0.081-0.019,0.165-0.036,0.245-0.056
	c0.454-0.11,0.891-0.227,1.305-0.354c0.004-0.001,0.008-0.002,0.012-0.003c0.435-0.133,0.847-0.275,1.234-0.427
	c1.644-0.652,3.033-1.418,4.224-2.24c0.015,0.003,0.027,0.003,0.041,0.006c0.122,0.022,0.228,0.027,0.356,0.052
	c0.025-0.127,0.051-0.233,0.076-0.355c0.003-0.014,0.006-0.027,0.009-0.042c4.89-3.529,6.256-8.094,6.633-10.156c0,0,0,0,0-0.001
	c0.028-0.155,0.05-0.292,0.068-0.417c0.011-0.077,0.019-0.138,0.027-0.203c0.003-0.024,0.006-0.049,0.009-0.071
	c0.029-0.253,0.038-0.406,0.038-0.406s-0.425-0.312-1.134-0.822c-0.057,0-0.085,0-0.142,0c3.883-0.255,1.814-2.324,1.814-2.324
	c1.275-3.969,2.126-7.767,2.636-11.452c13.72-22.535,38.523-37.588,66.813-37.588c32.719,0,60.729,20.117,72.378,48.62
	c0.24,0.587,0.473,1.177,0.699,1.771c0.184,0.485,0.366,0.971,0.541,1.46c0.248,0.695,0.483,1.396,0.712,2.1
	c0.138,0.422,0.28,0.843,0.41,1.268c0.271,0.885,0.522,1.779,0.762,2.677c0.071,0.264,0.151,0.524,0.219,0.789
	c0.007,0.026,0.015,0.051,0.021,0.077c1.502-2.239,3.033-4.422,4.592-6.491l-0.425-0.113l7.739-32.4l0.709,0.17l-7.625,31.833
	c1.446-1.899,2.92-3.713,4.422-5.442v-0.057h0.028c4.847-5.641,9.864-10.573,14.683-14.797l7.512-25.568l0.68,0.198l-7.228,24.491
	c2.636-2.267,5.188-4.308,7.597-6.151v-0.255h0.34c9.666-7.342,16.923-11.14,17.093-11.225l0.34,0.623
	c-0.17,0.085-7.001,3.657-16.214,10.573l26.135-0.907l0.028,0.709l-27.128,0.936c-2.693,2.041-5.585,4.365-8.561,6.944l-0.142,0.567
	l-0.34-0.113c-4.507,3.997-9.213,8.617-13.748,13.833l26.617-3.373l0.085,0.68l-27.383,3.487c-3.345,3.94-6.576,8.22-9.581,12.813
	c0.028,0.115,0.048,0.234,0.076,0.35c0.254,1.064,0.489,2.135,0.697,3.216c0.045,0.231,0.082,0.464,0.125,0.696
	c0.199,1.089,0.384,2.182,0.536,3.287c0.011,0.079,0.02,0.159,0.03,0.238c0.342,2.534,0.565,5.108,0.662,7.717
	c0.003-0.001,0.006-0.002,0.009-0.003c3.427-1.047,6.741-1.868,9.941-2.519l-0.255-0.34l18.085-12.671l0.397,0.595l-17.518,12.274
	c9.609-1.814,18.198-1.928,25.71-1.077l-0.028-0.113l30.756-7.739l0.17,0.681l-29.282,7.37c7.965,1.106,14.655,3.26,19.871,5.556
	c3.26,1.418,6.122,2.977,8.617,4.508v-0.284l15.732-0.453l0.028,0.68l-15.109,0.454c7.228,4.536,11.083,8.788,11.11,8.842
	l-0.51,0.454c-0.057-0.085-7.115-7.824-20.183-13.578c-1.644-0.709-3.458-1.417-5.386-2.098l13.918,21.118l-0.595,0.396
	l-14.428-21.883c-7.795-2.552-17.801-4.338-29.707-3.516l14.627,15.08l-0.482,0.511l-14.797-15.279l0.312-0.283
	c-6.463,0.482-13.464,1.729-20.976,4.025c0.029,0.765,0.057,1.502,0.057,2.239c0,0.001,0,0.002,0,0.002
	C377.673,326.18,377.673,326.183,377.673,326.186z M126.75,362.83l23.414,4.054l0.17-0.964l-23.414-3.997L126.75,362.83z
	 M196.681,304.123c-12.019-1.077-25.2-1.615-31.918,2.637c-6.378,4.025-14.372,38.183-14.712,39.656l0.68,0.142
	c0.086-0.339,8.249-35.347,14.4-39.203c6.548-4.139,19.587-3.6,31.465-2.551c13.099,1.175,18.954-12.618,19.153-13.102
	c0.003-0.006,0.008-0.02,0.009-0.022l-0.3-0.113l-0.38-0.143C215.05,291.566,209.409,305.257,196.681,304.123z"></path>
<path id="color_x5F_1" fill="#0984E3" d="M230.045,297.038c0,0,2.069,2.069-1.814,2.324c-3.883,0.283-4.932-6.208-20.013-10.375
	c-15.052-4.167-19.191,0.255-19.191,0.255s0.057-1.729,0.198-4.507c9.468-1.587,19.191-3.401,21.203-4.252
	c4.139-1.786,10.658-21.316,10.658-21.316s-7.285,3.062-18.907,1.105c0,0-1.729,11.934-3.543,14.088
	c-0.567,0.681-4.167,1.729-8.929,2.92c0.709-10.035,1.956-23.612,3.969-29.311c3.402-9.609,4.167-12.217,4.167-12.217
	s8.844-1.049,12.217-8.051C210.061,227.702,243.821,253.923,230.045,297.038L230.045,297.038z M194.13,219.737L194.13,219.737
	c0.425,0.878,1.389-0.085,1.474-3.459c0.085-3.373,3.033-4.167,3.628-0.623c0.595,3.571-0.794,5.216,0.935,7.114
	c1.758,1.899,7.625,0.681,8.759-3.826c1.134-4.479-1.049-11.056-4.252-14.882c-3.203-3.799-7.88-5.868-12.643-5.783
	c-4.762,0.085-7.172,4.224-11.764,7.002c-4.592,2.778-6.831,1.559-7.965,2.522c-1.134,0.936,0.34,3.203,0.34,3.203
	s0.283,6.747,6.576,7.853c6.321,1.134,9.694-4.479,12.047-5.018C193.591,213.33,193.676,218.858,194.13,219.737L194.13,219.737z
	 M150.788,355.715L150.788,355.715c-0.17,0.227-2.268-0.142-2.268-0.142l-4.422-0.992l-0.34-0.511c0,0-0.935,0.284-0.935,0.936
	s-0.369,1.531-0.822,2.523c-0.482,0.992-10.743,0.51-12.274,0.765c-1.531,0.228-2.806,2.041-2.806,2.75s0,0.879,0,0.879
	l23.414,3.997c0,0,1.814-9.922,1.814-10.092S150.987,355.46,150.788,355.715L150.788,355.715z"></path>
</svg>