<?xml version="1.0" standalone="no"?>
<svg version="1.1" id="Layer_1" xmlns="http://www.w3.org/2000/svg" xmlns:xlink="http://www.w3.org/1999/xlink" x="0px" y="0px" viewBox="0 0 2000 2000" enable-background="new 0 0 2000 2000" xml:space="preserve">
<path id="color_x5F_11" fill="#EDA7CA" d="M1097.6,1500.6l59.9,37.7l0,0L1097.6,1500.6L1097.6,1500.6z M1160.5,1523l108.1-57.6
	L1160.5,1523l-48.6-30.6l0,0L1160.5,1523z M1143.1,1546.6l-59.9-37.7l0,0L1143.1,1546.6L1143.1,1546.6z M1069.6,1516.7l-190.9,109.8
	l-717.1-413.6l-0.3,72.5L878.4,1699l251.1-144.5L1069.6,1516.7z M1330.5,1366.7l56.5,35.6l-14.8,7.9l3.8,2.4l462.7-266.3v-71.7
	L1330.5,1366.7z"></path>
<path id="color_x5F_10" fill="#FFFFFF" d="M1355.5,1225.4c4-12.8-3.6-43.8-8.1-54.2c-2-4.7-2.5-7.6-2.5-9.4c3,0.5,5.5,0.9,7.3,1
	c3,2.2,7.6,3.8,13.1,4.6v75.8c-4.3,0.3-8.4,1-12.2,1.8C1353.3,1237.9,1353.9,1230.5,1355.5,1225.4z M1069.6,1516.7l-190.9,109.8
	L476,1394.2l157.7-90.3v-97.2l18.2,9.3l-18.2-37.5l-105.9-60.2L367.3,1210l-25.2,47.6l25.2,14.6v59.4l-205.7-118.7l150.1-86.6
	l-0.1,51.8l36.7,21.1l571.2-329.8l-0.2,10.6c0,0-0.5,26.6-0.6,38.2c-0.6,0.6-1.2,1.7-1.8,2.9c-0.6,1.3-1,2.7-1.3,4
	c-0.2,0.7-0.3,1.4-0.3,1.9c0,0.1,0,0.3-0.1,0.4v0.1c0,0.2-0.1,0.3-0.2,0.5v0.1c-0.1,0.2-0.1,0.4-0.2,0.5v0.1
	c-0.1,0.2-0.2,0.4-0.3,0.7c0,0,0,0.1-0.1,0.1c-0.3,0.5-0.6,1-0.9,1.6v0.1c-0.4,0.6-0.7,1.2-1.2,1.8l0,0c-1.8,2.7-3.8,5.4-5,6.9
	c-0.7,0.6-1.3,1.2-2,1.8c-1.9,1.4-5.5,4.3-8.6,7.6l0,0l0,0c-0.2,0.2-0.4,0.5-0.7,0.7l0,0c-0.1,0.1-0.2,0.2-0.3,0.3
	c-0.8,0.7-1.4,1.3-1.7,1.7c-0.6,0.6-0.9,1.3-1.1,2.1c0,0,0,0.1-0.1,0.1c-0.1,0.1-0.1,0.2-0.2,0.3c-0.1,0.1-0.2,0.3-0.2,0.4
	c-0.1,0.1-0.1,0.2-0.2,0.3c-0.1,0.1-0.1,0.3-0.2,0.4c-0.1,0.1-0.1,0.2-0.2,0.4c0,0.1-0.1,0.2-0.1,0.4c0,0.1-0.1,0.3-0.1,0.4
	c0,0.1-0.1,0.2-0.1,0.3s-0.1,0.3-0.1,0.4c0,0.1,0,0.2,0,0.3s0,0.3,0,0.4c0,0.1,0,0.2,0,0.3s0,0.3,0,0.4c0,0.1,0,0.2,0,0.3
	s0.1,0.3,0.1,0.4c0,0.1,0,0.1,0.1,0.2c0.1,0.2,0.2,0.4,0.3,0.6c0.7,1.2,1.9,2,3.4,2.5c0.5,0.2,1,0.3,1.5,0.4c0.3,0,0.5,0.1,0.8,0.1
	c0.6,0.1,1.1,0.1,1.7,0.1c0.3,0,0.6,0,0.9,0c5.9,0,12.6-2.1,12.9-2.1c0.1,0,0.5-0.4,1.1-1.1c0.1-0.1,0.2-0.2,0.3-0.4
	c0.5-0.5,1-1.1,1.7-1.8c0.3-0.3,0.7-0.7,1-1s0.7-0.7,1.1-1.1c1-0.9,2.1-1.9,3.3-2.9c0.5-0.4,1-0.7,1.5-1.1c2.5-1.8,5.4-3.2,8.3-3.7
	c2.3-0.4,4.2-0.9,5.8-1.4c0.6-0.2,1.1-0.4,1.6-0.7c1.1-0.6,2-1.2,2.7-1.9c0.5-0.5,0.9-1.1,1.2-1.8c0.1-0.2,0.2-0.4,0.3-0.7
	c0.2-0.7,0.4-1.4,0.5-2.2c0.1-0.4,0.1-0.8,0.1-1.2l0,0c0-0.3,0-0.7,0-1c0-0.1,0-0.2,0-0.4s0-0.4,0-0.7c0-0.2,0-0.3-0.1-0.5
	c0-0.2-0.1-0.4-0.1-0.6c0-0.2-0.1-0.4-0.1-0.5c0-0.2-0.1-0.3-0.1-0.5s-0.1-0.4-0.1-0.6v-0.1c-0.2-1-0.6-2-0.9-3l0,0l0,0
	c-1.4-3.9-3.5-7.7-4.9-10.3c-0.4-0.8-1.1-1.2-1.8-1.4c-0.1-3.7,1-9.7,1-9.7c-1-5.9,7-37,8.6-41.6c0.7-1.9,0.9-7.3,0.7-13.6l4.7-2.7
	c8.3,8.1,20.8,18.5,27.1,24.8c0,0.1,0,0.1,0,0.2c0,7.9,3.7,4.2,3.2,12c0,0.2,0,0.5-0.1,0.8v0.1c0,0.3-0.1,0.5-0.1,0.8v0.1
	c-0.1,0.6-0.3,1.2-0.4,1.9c-1.6,6.5-5.9,16.7-8,24l0,0l0,0c-0.1,0.5-0.3,0.9-0.4,1.3v0.1c-0.1,0.4-0.2,0.8-0.3,1.2l0,0
	c-0.2,0.8-0.3,1.6-0.4,2.2c0,0.1,0,0.1,0,0.2c0,0.3-0.1,0.5-0.1,0.7c0,0.1,0,0.2,0,0.2c0,0.2,0,0.4,0,0.5s0,0.2,0,0.2
	c0,0.2,0,0.3,0.1,0.4c0,0.1,0,0.1,0,0.2c0,0.2,0.1,0.3,0.2,0.5c2.2,3.9,14.1,6.1,21.8-4.5s9.9-20.4,14.8-23.2c1.8-1,2.7-3.4,3-6
	c0.2-0.6,0.4-1.3,0.6-2.1c0.6-2.4,0.2-4.4-0.7-6c-0.1-0.6-0.1-1-0.1-1s-1.9-4.3-6-6.5s-12.5-8.6-12.5-8.6s-3.4-0.6-4.7,2.1
	c-4.7-5.5-10.4-14.3-14.2-23.5c-0.7-1.8-1.5-3.5-2.4-5l76.8-44.3v-0.1l20-11.6v-93.9l52.5-30.3l6,3.5v231.1
	c75.1-3.2,79.2,37.6,79.4,44.2v0.9l19.3-11.1v23.4c75.1-3.2,79.2,37.6,79.4,44.2v0.9l25.8-14.9c-3.7,7.7-7.3,15.2-8.6,18.1
	c-0.5,1-0.6,2.1-0.4,3.1c1.3,6.4,8.7,10.8,15.6,13.4c-1,11.9-1.7,21.1-1.7,21.1l-54,41c0,0-24.7,19.9-24.2,24.9s1.5,3.5,1.5,3.5
	s-1.7,5.6,1.3,6.2s1.2,2.4,2.8,4.6s6.3-6.8,6.3-6.8l10.8-13.9c0,0-0.8,12.6,5.3,10.9c0,0-0.8-9.8,3.3-12.8
	c3.1-2.2,36.3-24.1,53.8-35.5l-2.1,11.4c-23.1,5.4-38.8,16.5-38.8,29.2v6.9c-3.8,2-7.1,3.6-9.5,4.2c-12.9,3.7-23.4,21.4-23.6,27.1
	c-0.2,5.3,22,92.4,26,109.5c0,0.1-0.1,0.2-0.1,0.3c-0.1,0.3-0.2,0.6-0.3,0.9c-3,6.8-10.9,26.2-19.7,36.1
	c-10.8,12.2,12.1,7.5,13.2,6.8c1.1-0.6,25.7-15.9,27.4-15.9s8.6-3.1,9-6.1s-2.4-22.9-11.3-31.4c-0.2,0-0.3,0.5-0.6,1.3
	c-0.2-0.3-0.4-0.6-0.6-0.8c-6.2-7.7-4.2-41.5-2-53.5c2.2-11.9-9.9-42.5-9.9-42.5l12.6-4.7c0.1,0.1,0.3,0.2,0.4,0.3l-2.7,5.5
	c0.1,0.1,0.1,0.2,0.2,0.3c-1.4,2.1-2.5,4.4-2.8,6.4c-0.6,4.6,20.3,69.6,30.2,101.2c-5.2,3.3-8.2,7.4-8.2,11.7l0,0v13.1
	c0,2.4,0.9,4.7,2.6,6.9c-0.6,0.8-1.1,1.5-1.7,2.3c-0.5,0.5-0.9,1-1.2,1.6c-0.1,0.3-0.2,0.6-0.4,0.8c-1.7,2.4-3.3,4.7-4.6,6.3
	c-5.1,7-12.9,11.9-11.4,19.5s25.4,0.4,27.7-1.8c2.2-2.2,21.4-12.2,23.6-14.4c0.3-0.3,0.5-0.8,0.7-1.4c2.8,0.3,5.7,0.4,8.7,0.4
	c24.4,0,44.1-9.1,44.1-20.2v-13.1l0,0c0-10-15.9-18.3-36.7-19.9v-75.8c9.8-1.4,16.9-5.6,16.9-10.6v-5.1
	c27.6-4.6,47.3-16.7,47.3-30.9v-21.3c0-10.4-10.7-19.7-27.3-25.7l-0.9-11.1l1.9-1.5c14.6-8.5,15.6-18.6,14-38.6
	c0.1-1.8,0.2-3.7,0.3-5.6c2.9-2,5.1-4.2,6.5-6c1.4-1.7,1.5-4.1,0.3-5.9c-5.3-7.9-5.9-25.4-10.5-37.4c-4.3-11.3-27.8-8.7-35.3-7.5
	c-0.2,0-0.5,0.1-0.7,0.2c-0.4-0.1-0.8-0.2-1-0.4c-1.9-1.6-1.6-8.2-1-13.3l113.5-65.4l99.8,57.6c-3.2,3.6-6.1,7.9-8,13.5
	c-5.3,15.3-15.6,22.8-16.9,23.7c-1.3-0.4-2.6-0.2-2.6-0.2s-9,6.9-13.3,9.2s-6.4,6.9-6.4,6.9s-2.2,13.3,3,16.2s7.6,13.4,15.8,24.7
	c8.2,11.2,20.9,8.9,23.2,4.8c0.1-0.1,0.1-0.3,0.2-0.5c0-0.1,0-0.1,0-0.2s0-0.3,0.1-0.5c0-0.1,0-0.2,0-0.3c0-0.2,0-0.4,0-0.6
	c0-0.1,0-0.2,0-0.3c0-0.2,0-0.5-0.1-0.8c0-0.1,0-0.1,0-0.2c-0.1-0.7-0.3-1.5-0.5-2.4l0,0c-0.1-0.4-0.2-0.9-0.3-1.3v-0.1
	c-0.1-0.5-0.3-0.9-0.4-1.4l0,0l0,0c-2.3-7.8-6.8-18.7-8.5-25.6c-0.1-0.4-0.2-0.7-0.3-1.1l0,0c-0.1-0.3-0.1-0.6-0.2-0.9v-0.1
	c0-0.3-0.1-0.5-0.1-0.8c0-0.1,0-0.1,0-0.2c0-0.3-0.1-0.6-0.1-0.8c-0.5-7.6,2.8-5,3.4-10.9l28.5-26.1c0.2,4.2,0.5,7.6,1.1,9.6
	c2.5,8.6,12.9,52.3,12.1,53.6c0,0,0.2,0.1,0.4,0.3c0.1,0.9,0.1,1.8,0.2,2.7c-0.6,0.2-1.1,0.6-1.4,1.3c-1.5,2.6-3.5,6.4-4.9,10.3l0,0
	l0,0c-0.4,1-0.7,2-0.9,3v0.1c-0.1,0.2-0.1,0.4-0.1,0.6s-0.1,0.3-0.1,0.5s-0.1,0.4-0.1,0.5c0,0.2-0.1,0.4-0.1,0.6s0,0.3-0.1,0.5
	c0,0.2,0,0.4,0,0.7c0,0.1,0,0.2,0,0.4c0,0.3,0,0.7,0,1s0.1,0.7,0.1,1c0.2,1.3,0.5,2.4,1,3.4c1.5,2.7,4.6,4.3,11.1,5.4h0.1
	c1,0.3,2.1,0.6,3.2,0.9c8,3.2,14.6,12.1,15.1,12.1c0.5,0.1,17.3,5.4,21.2-1c0.1-0.2,0.2-0.4,0.3-0.6c0-0.1,0-0.1,0.1-0.2
	c0-0.1,0.1-0.3,0.1-0.4s0-0.2,0-0.3c0-0.1,0-0.3,0-0.4s0-0.2,0-0.3c0-0.1,0-0.3,0-0.4s0-0.2,0-0.3c0-0.1,0-0.3-0.1-0.4
	c0-0.1-0.1-0.2-0.1-0.3c0-0.1-0.1-0.3-0.1-0.4s-0.1-0.2-0.1-0.4c0-0.1-0.1-0.2-0.2-0.4c-0.1-0.1-0.1-0.3-0.2-0.4s-0.1-0.2-0.2-0.3
	c-0.1-0.1-0.1-0.3-0.2-0.4s-0.1-0.2-0.2-0.3c-0.1-0.2-0.2-0.3-0.3-0.5l0,0c-0.6-1-1.4-2-2.2-3l0,0c-0.2-0.2-0.4-0.5-0.6-0.7l0,0
	c-0.2-0.2-0.4-0.5-0.7-0.7l0,0l0,0c-4.3-4.6-9.8-8.5-9.8-8.4s-3.2-4-5.8-7.9l0,0c-0.4-0.6-0.8-1.2-1.2-1.8v-0.1
	c-0.3-0.6-0.6-1.1-0.9-1.6c0,0,0-0.1-0.1-0.1c-0.1-0.2-0.2-0.5-0.3-0.7v-0.1c-0.1-0.2-0.2-0.4-0.2-0.5v-0.1
	c-0.1-0.2-0.1-0.3-0.2-0.5v-0.1c0-0.1-0.1-0.3-0.1-0.4c0-1.7-1.1-5.3-2.4-7.4c0.3-0.1,0.7-0.3,1-0.4l-0.8-62l186.3,107.5
	l-508.2,292.2l-293.7-185l-224.7,121.8l14.7,9.2l-14.7,8l14.9,9.4l-14.9,8.1l12.6,7.9l-14,7.6L1069.6,1516.7z M646.1,1347.5
	l188.8-141.6c1.2-0.9,2.1-1.9,2.9-3.1l0,0c2.1-3,2.3-6.1,2-8.4c-0.1-0.6-0.2-1.3-0.4-1.9v-0.1c-0.1-0.3-0.2-0.5-0.3-0.8
	c-0.2-0.5-0.3-0.7-0.3-0.7l0,0c-0.4-0.8-0.8-1.7-1.4-2.4l0,0c-4.1-5.5-11.9-6.6-17.4-2.5l-180.7,135.6l4.4,6.7l-4.3,1.1l4.3,5.8
	c0,0-5.6,3.9-5.2,4.9C638.8,1340.9,643.5,1345.2,646.1,1347.5z"></path>
<path id="color_x5F_9" fill="#FFFFFF" d="M1598.9,1034.4c-0.1-0.7-0.3-1.5-0.5-2.4C1598.7,1032.9,1598.8,1033.7,1598.9,1034.4z
	 M1598.1,1030.7c0.1,0.5,0.2,0.9,0.3,1.3C1598.3,1031.6,1598.2,1031.2,1598.1,1030.7z M1599,1035.4c0-0.2,0-0.5-0.1-0.8
	C1599,1034.9,1599,1035.2,1599,1035.4z M1599.1,1036.2c0-0.2,0-0.4,0-0.6C1599.1,1035.9,1599.1,1036.1,1599.1,1036.2z
	 M1599.1,1036.5c0,0.2,0,0.3-0.1,0.5C1599,1036.8,1599,1036.7,1599.1,1036.5z M1599,1037.2c0,0.2-0.1,0.4-0.2,0.5
	C1598.8,1037.5,1598.9,1037.4,1599,1037.2z M1597.7,1029.2c0.1,0.5,0.3,1,0.4,1.4C1597.9,1030.1,1597.8,1029.7,1597.7,1029.2z
	 M1638.5,1058.2c9.3,1.6,17.8,13,18.3,13.1s17.3,5.4,21.2-1c1.8-2.9-1-7.3-4.7-11.1c-4.2,0-9.7,0.6-11.4,4.1
	c-2.8,5.9-8.9-8.6-13.1-9.4c-4.1-0.8-13.4-5.3-13.4-5.3s0.1-9.1-7.8-8.1c-1,2.7-1.7,5.5-1.5,7.8
	C1626.7,1053.9,1629.1,1056.7,1638.5,1058.2z M1678,1065.6c-0.1-0.1-0.1-0.3-0.2-0.4C1677.8,1065.3,1677.9,1065.4,1678,1065.6z
	 M1674.7,1060.6c-0.2-0.2-0.4-0.5-0.6-0.7C1674.3,1060.2,1674.5,1060.4,1674.7,1060.6z M1677.4,1064.4c0.1,0.1,0.2,0.3,0.2,0.4
	C1677.5,1064.7,1677.5,1064.5,1677.4,1064.4z M1674.7,1060.6c0.8,1,1.6,2,2.2,3C1676.3,1062.6,1675.5,1061.6,1674.7,1060.6z
	 M1676.9,1063.6c0.1,0.2,0.2,0.3,0.3,0.5C1677.1,1064,1677,1063.8,1676.9,1063.6z M1678.6,1068.1c0,0.1,0,0.2,0,0.3
	C1678.6,1068.3,1678.6,1068.2,1678.6,1068.1z M1678.5,1067.4c0,0.1,0,0.2,0,0.3C1678.5,1067.6,1678.5,1067.5,1678.5,1067.4z
	 M1678.4,1067c0-0.1-0.1-0.2-0.1-0.3C1678.4,1066.8,1678.4,1066.9,1678.4,1067z M1678.2,1066.3c0-0.1-0.1-0.2-0.1-0.4
	C1678.2,1066.1,1678.2,1066.2,1678.2,1066.3z M1678.3,1069.7c0-0.1,0-0.1,0.1-0.2C1678.4,1069.6,1678.4,1069.6,1678.3,1069.7z
	 M1626.8,1043.6c-0.1,0.2-0.1,0.4-0.1,0.6C1626.7,1044.1,1626.7,1043.9,1626.8,1043.6z M1626.5,1044.8c0,0.2-0.1,0.4-0.1,0.5
	C1626.5,1045.1,1626.5,1045,1626.5,1044.8z M1626.3,1046.4c0-0.2,0-0.3,0.1-0.5C1626.4,1046,1626.3,1046.2,1626.3,1046.4z
	 M1678.5,1069.1c0-0.1,0-0.2,0-0.3C1678.5,1068.9,1678.5,1069,1678.5,1069.1z M1626.8,1043.5c0.2-1,0.6-2,0.9-3
	C1627.4,1041.6,1627.1,1042.6,1626.8,1043.5z M1626.3,1047c0,0.1,0,0.2,0,0.4C1626.3,1047.3,1626.3,1047.1,1626.3,1047z
	 M1674,1059.9c-0.2-0.2-0.4-0.5-0.7-0.7C1673.6,1059.4,1673.8,1059.7,1674,1059.9z M1339.2,1272.1c0,0-5.7,8-10.9,15
	c-2.7,5.9-4.8,11.4-4.1,12.4c1.5,2.1,15.2-10.3,25.3-29.5C1345.9,1272.3,1339.9,1272.2,1339.2,1272.1z M914.9,928.1
	C914.9,928,914.9,928,914.9,928.1C914.9,928,914.9,928,914.9,928.1z M915.1,927.4C915.1,927.4,915.1,927.5,915.1,927.4
	C915.1,927.5,915.1,927.4,915.1,927.4z M914.6,928.6C914.6,928.6,914.6,928.7,914.6,928.6C914.6,928.7,914.6,928.6,914.6,928.6z
	 M914.3,929.4c0,0,0,0.1-0.1,0.1C914.2,929.5,914.2,929.4,914.3,929.4z M913.2,931.2C913.2,931.1,913.3,931.1,913.2,931.2
	C913.3,931.1,913.2,931.1,913.2,931.2z M906.3,940.9c0,0,0.3-0.4,0.8-1c-0.7,0.6-1.4,1.2-2,1.9C905.8,941.2,906.3,940.9,906.3,940.9
	z M911.4,938.3c0-0.2,0-0.4,0-0.7C911.4,937.9,911.4,938.1,911.4,938.3z M892.9,953.7L892.9,953.7c0.7-1.1,1.6-2.3,2.6-3.4
	c-0.8,0.8-1.4,1.3-1.8,1.7c-0.6,0.6-0.9,1.3-1.1,2.1C892.7,954,892.8,953.9,892.9,953.7L892.9,953.7z M1010.5,882.3
	c0.2,1.6,0.5,5,0.1,8.1c0.2-0.6,0.4-1.3,0.6-2.1C1011.8,885.9,1011.4,884,1010.5,882.3z M943.5,938.5c0.2-2.3-0.5-5.1-1.5-7.8
	c-7.9-1-7.8,8.1-7.8,8.1s-9.2,4.5-13.4,5.3s-10.3,15.3-13.1,9.4c-1.6-3.5-7.1-4.1-11.4-4.1c-3.6,3.8-6.5,8.2-4.7,11.1
	c4,6.4,20.7,1.1,21.2,1s9-11.5,18.3-13.1C940.7,946.8,943.1,944.1,943.5,938.5z M1007.6,896.5c-4.9,2.7-7.1,12.6-14.8,23.2
	c-7.7,10.5-19.6,8.4-21.8,4.5c-0.7-1.2-0.1-4.2,1-8c3-2.6,8.5-5.4,15.5,0c0,0,4.6-12.4,7.3-12.4s6.7-13,6.8-14.9
	c0.1-1.5-2-10.4,2.2-14.3c0.3,0.1,0.5,0.3,0.7,0.4c4.1,2.2,6,6.5,6,6.5S1012.5,893.8,1007.6,896.5z M1559.7,1008.3
	c5.2,2.9,7.6,13.4,15.8,24.7c8.2,11.2,20.9,8.9,23.2,4.8c0.7-1.2,0.1-4.4-1.1-8.5c-3.2-2.8-9-5.7-16.5,0c0,0-4.9-13.3-7.7-13.3
	c-2.8,0-7.2-13.9-7.2-15.9c-0.1-1.6,2.1-11.1-2.3-15.3c-0.3,0.2-0.5,0.3-0.8,0.4c-4.3,2.3-6.4,6.9-6.4,6.9
	S1554.5,1005.3,1559.7,1008.3z M1641.3,715l-7.9,10.4l-4.9-12l1.2-6.7C1629.8,706.7,1631.3,711.9,1641.3,715z M1649.7,727.6
	c1.6-1.3,2.2-3.9,2.3-6.7c-2.2,1.8-6.6,4.4-14.5,4.8C1642.1,728.8,1647.1,729.8,1649.7,727.6z M1648.2,711.6l-0.6,3.6l7.6,3.2
	l-2-5.7C1651.6,712.5,1649.9,712.1,1648.2,711.6z M1686.8,818l-0.1,0.1l0.6,0.5L1686.8,818z M1700.8,811.7
	c-1.3,2.4-4.3,6.1-10.6,9.2l4,3.4c4.6-1.9,9-8.6,9-8.6L1700.8,811.7z M1583.4,850.6l0.8,4.4c3.9,3,12.4-0.5,12.4-0.5v-4.7
	C1590.9,852.7,1586.2,851.8,1583.4,850.6z M1315.7,1130.2l-6.7,13.4c13.9,17.9,45.8,19.4,45.8,19.4c2.3-1.8,7.1-5,10.7-9
	C1350.8,1149.3,1319.4,1138.3,1315.7,1130.2z M1315.7,1130.2l7.3-13.7c0,0-7.5-11.4-11.9-24l-9,4.1
	C1300.1,1115.6,1315.7,1130.2,1315.7,1130.2z"></path>
<path id="color_x5F_8" fill="#38874C" d="M1650.9,716.5l1.2,0.5v4c-0.9,0.7-2.1,1.6-3.9,2.4l-0.6-8.2L1650.9,716.5L1650.9,716.5z
	 M1641.3,727.7C1641.4,727.7,1641.4,727.7,1641.3,727.7C1641.4,727.8,1641.4,727.8,1641.3,727.7
	C1641.4,727.7,1641.4,727.7,1641.3,727.7z M1641.4,725.3c0-4.6-0.1-10.4-0.1-10.4l-6.5,8.5c0.9,0.8,1.9,1.6,2.8,2.2
	C1639,725.6,1640.2,725.5,1641.4,725.3z M1638,725.9l0.1,0.1C1638.1,726,1638,726,1638,725.9z M1639.8,727c-0.1,0-0.1-0.1-0.2-0.1
	C1639.7,727,1639.7,727,1639.8,727z M1643.9,1032.8L1643.9,1032.8c0-0.1,0-0.1,0-0.1C1643.9,1032.7,1643.9,1032.8,1643.9,1032.8z
	 M1643.9,1032.8L1643.9,1032.8L1643.9,1032.8z M1643.8,1032.8c0,0-0.1,0-0.1-0.1C1643.8,1032.7,1643.8,1032.7,1643.8,1032.8z
	 M1652.4,1029.6c0.4,0.7,0.7,1.4,1,2.2C1653.1,1031,1652.7,1030.2,1652.4,1029.6z M1654.7,1036.9c0-1-0.4-2.6-1-4.3
	C1654.3,1034.2,1654.7,1035.9,1654.7,1036.9L1654.7,1036.9L1654.7,1036.9z M1673.4,1059.2c-4.2,0-9.7,0.6-11.4,4.1
	c-2.8,5.9-8.9-8.6-13.1-9.4c-4.1-0.8-13.4-5.3-13.4-5.3s0.1-9.1-7.8-8.1c1.4-3.9,3.5-7.7,4.9-10.3c2.3-4.1,9.7,1.4,11,2.4l5.4,10.1
	c0,0,7.8,7.6,9,6.3c0.6-0.6,0.2-3.5-0.4-6.2l0,0c2.6,3.9,5.8,8,5.8,7.9C1663.5,1050.7,1669,1054.6,1673.4,1059.2z M1650.8,1027.7
	c0.2,0.1,0.3,0.2,0.5,0.3C1651.1,1027.9,1650.9,1027.8,1650.8,1027.7z M1655.6,1039.4c0,0,0-0.1-0.1-0.1
	C1655.6,1039.3,1655.6,1039.3,1655.6,1039.4z M1656,1040.1L1656,1040.1L1656,1040.1z M1656.6,1041
	C1656.6,1041,1656.5,1041,1656.6,1041C1656.5,1041,1656.6,1041,1656.6,1041z M1654.8,1037.4
	C1654.7,1037.3,1654.7,1037.3,1654.8,1037.4C1654.7,1037.3,1654.7,1037.3,1654.8,1037.4z M1655.2,1038.6v-0.1
	C1655.2,1038.5,1655.2,1038.5,1655.2,1038.6z M1654.9,1037.9L1654.9,1037.9L1654.9,1037.9z M1588.5,1000.8c-0.1-0.4-0.1-0.7-0.1-1.1
	C1588.4,1000,1588.5,1000.4,1588.5,1000.8z M1597.7,1029.2c-3.2-2.8-9-5.7-16.5,0c0,0-4.9-13.3-7.7-13.3c-2.8,0-7.2-13.9-7.2-15.9
	c-0.1-1.6,2.1-11.1-2.3-15.3c-0.3,0.2-0.5,0.3-0.8,0.4c4.3-2.3,13.3-9.2,13.3-9.2s6.9-1.2,5.5,7.2l0,0c0,0-1.7,23.1,0,23.9
	c1.5,0.8,4.6,4.9,7.2-3.5c-0.1-0.4-0.2-0.8-0.3-1.2C1590.3,1009.1,1595.2,1020.9,1597.7,1029.2z M1588.6,1001.1
	c0,0.3,0.1,0.6,0.2,0.9C1588.7,1001.7,1588.6,1001.4,1588.6,1001.1z M1369.9,1100.1c16.3,6.2,32.7,8.7,42,9.7
	c-4.2,5.5-19,23.3-49.9,47.8c1.2-1.1,2.4-2.2,3.5-3.5c-14.7-4.7-46.1-15.7-49.7-23.8l7.3-13.7c0,0-7.5-11.4-11.9-24l27.5-12.5
	c0.2,1,0.8,1.9,1.5,2.7c3.8,3.4,7.9,6.4,12.3,9c-4.6,3-11.1,6.7-16.3,7.4c-9.3,1.2,1.7,2.7,1.7,2.7s-5,3.1-2.2,4.2
	c2.7,1.1,6.8,0,6.8,0s-5.1,3.2-2.6,4.4c2.5,1.1,6,0,6,0s-3.2,3.5-2,4s9.7-2.6,9.7-2.6S1362.2,1106.5,1369.9,1100.1z"></path>
<path id="color_x5F_7" fill="#D62F87" d="M1224.6,928.1l-19.3,11.1V557.4l239.3-125l0.1,22.1l-220.2,126.4L1224.6,928.1z
	 M1160.5,1523l-333.7-210.2l-14.7,8l348.4,219.5l226.5-120.7l-14.8-9.3L1160.5,1523z M837.8,1202.8c4-5.7,1-11.9,1-11.9
	l-168.1,126.6l-9,6.7l-6-3.2c0,0-5.4,5.8-6.9,8.8s6.9,3.2,6.9,3.2l-9.5,14.5L837.8,1202.8z M633.6,1206.7v-28.1l18.2,37.5
	L633.6,1206.7z M367.3,1210l-25.2,47.6l109.8,63.6l22.4-49.1L367.3,1210z M945.2,846.1c0.2,2.7,0.4,5.4,0.4,8l4.7-2.7
	C948.3,849.5,946.6,847.7,945.2,846.1z M348.2,738.5v460.7l571.2-329.9l0.5-22.7l-536.7,310v-416L1032.5,365v416.6l-74.5,43
	c4.8,4,9,8.5,12.6,15.1l96.8-55.9V322.4L348.2,738.5z M1390.1,916.9c0.2,0.1,0.5,0.2,0.8,0.2C1390.6,917.1,1390.4,917,1390.1,916.9z
	 M1396,916.4L1396,916.4c0,0-0.8,0.2-1.8,0.4C1395.2,916.7,1396,916.4,1396,916.4L1396,916.4z M1363.6,959.7c0,0.1,0,0.1,0,0.2
	C1363.6,959.9,1363.6,959.8,1363.6,959.7z M1329.8,981.8c4.3-8.8,8.8-17.9,10.9-20.9c2.7-3.9,11.6-4.8,17.9-4.9
	c1.3,0,2.5,0.5,3.4,1.2l0,0c5.3-0.3,10.5-1,10.9-2.1c0.1-0.2,0.3-0.5,0.6-0.8c-3,0.7-5,0.8-5,0.8s-21.4-1-23.4-33.1
	c-0.1-1.2-0.1-2.3-0.1-3.5c-0.3,0.9-0.6,1.7-0.7,2.4c0,0-3.9-19.3,5.5-29.5c0,0,8.1-11.7,23.3-8.8c15.3,2.9,23.1,6.6,23.1,6.6
	s5.2,1.2,7.3-0.6c2.1-1.8-1.8,7.2-4.4,7c0,0,3,13.5-1.4,19.3c1.7-1.1,4.5-1.9,6.8,2.2c3.7,6.5-9.2,14.4-9.2,14.4
	c-0.5,5-2.1,8.9-4.3,12c-0.1,1-0.3,2.1-0.4,3.3l153.8-88.6l-1.1-368.3l-239.3,125v380.9c0,0.6,0,0.9,0,0.9L1329.8,981.8z
	 M1363.4,959.2v0.1V959.2z M1396.8,915.8l0.1-0.1C1396.9,915.7,1396.9,915.7,1396.8,915.8z M1363.7,960.6c0-0.1,0-0.1,0-0.2
	C1363.7,960.4,1363.7,960.5,1363.7,960.6z M1363.7,961.2c0-0.1,0-0.1,0-0.2C1363.7,961.1,1363.7,961.1,1363.7,961.2z M1369.6,915.6
	c0.5,0.1,0.9,0.1,1.4,0.2C1370.5,915.7,1370.1,915.6,1369.6,915.6z M1354.8,902.9c-1.4,1.8-6.8,8.8-9.3,14.3
	C1348,911.7,1353.4,904.7,1354.8,902.9z M1344.9,918.5c0.2-0.4,0.3-0.8,0.5-1.2C1345.2,917.7,1345.1,918.1,1344.9,918.5z
	 M1354.8,902.9c0.2-0.3,0.3-0.4,0.3-0.4l0,0C1355.1,902.5,1355,902.7,1354.8,902.9z M1364.4,912.7c0.3,0.3,0.6,0.6,1,0.9
	c0.5,0.5,1,0.8,1.6,1.1c-0.6-0.3-1.1-0.7-1.6-1.1C1365,913.3,1364.7,913,1364.4,912.7z M1368.9,915.4c-0.7-0.2-1.3-0.4-1.9-0.7
	C1367.6,915,1368.2,915.3,1368.9,915.4z M1364.4,912.7c-0.6-0.6-1.3-1.3-1.9-1.9C1363.1,911.4,1363.8,912.1,1364.4,912.7z
	 M1315.2,1129.7C1315.3,1129.8,1315.3,1129.8,1315.2,1129.7C1315.3,1129.8,1315.3,1129.8,1315.2,1129.7z M1311.8,1138.2l0.3-0.5
	l-0.7,0.2C1311.5,1138,1311.6,1138.1,1311.8,1138.2z M1315.5,1130L1315.5,1130L1315.5,1130z M1392.2,1131.2
	c-6.6,6.4-15,14-25.4,22.4c1.9,0.1,3.9,0.1,5.9,0.1c39.5,0,71.6-14.7,71.6-32.8v-21.3C1444.2,1114.7,1422.2,1127.3,1392.2,1131.2z
	 M1301,1099.7v6.9c0.4-0.2,0.8-0.5,1.3-0.7C1301.5,1103.8,1301,1101.8,1301,1099.7z M1315.7,1130.2
	C1315.7,1130.2,1315.6,1130.1,1315.7,1130.2C1315.6,1130.1,1315.7,1130.2,1315.7,1130.2z M1315.7,1130.2L1315.7,1130.2l4.4-8.3l0,0
	L1315.7,1130.2z M1315.7,1130.2L1315.7,1130.2L1315.7,1130.2L1315.7,1130.2z M1372.6,1283.4c-3.9,0-7.7-0.2-11.3-0.7
	c1.5,2.5,3.4,9.9,2.6,13.4c2.8,0.3,5.7,0.4,8.7,0.4c24.4,0,44.1-9.1,44.1-20.2v-13.1C1416.7,1274.4,1397,1283.4,1372.6,1283.4z
	 M1328.5,1263.2v13.1c0,2.4,0.9,4.7,2.6,6.9c0.8-1.1,1.6-2.2,2.4-3.3c1.2-1.7,2.4-3.4,3.4-4.8
	C1331.7,1271.8,1328.5,1267.7,1328.5,1263.2z"></path>
<path id="color_x5F_6" fill="#EDA7CA" d="M1160.5,1523l-348.4-219.5l224.7-121.8l350.2,220.6L1160.5,1523z M1067.4,322.4l-36.7-21.4
	L312.5,716.8l-1,461.3l36.7,21.1V738.5L1067.4,322.4z M348.2,1199.2l699.2-403.8v-0.1L348.2,1199.2z M1304,614.9l239.3-125
	c0,0,16.4-41.1-79.9-46.1L1224.5,581C1224.5,580.9,1282.9,556.3,1304,614.9z M839.4,1192.5c0.1,0.5,0.3,1.2,0.4,1.9
	C839.7,1193.8,839.6,1193.2,839.4,1192.5z M839.1,1191.6c0.1,0.2,0.2,0.5,0.3,0.8C839.3,1192.2,839.2,1191.9,839.1,1191.6z
	 M648.8,1329.8c1.5-3,6.9-8.8,6.9-8.8l6,3.2l9-6.7l168.1-126.6c-0.4-0.8-0.8-1.7-1.4-2.4l0,0c-4.1-5.5-11.9-6.6-17.4-2.5
	l-180.7,135.6l4.4,6.7l-4.3,1.1l4.3,5.8c0,0-5.6,3.9-5.2,4.9c0.3,0.8,5,5.1,7.7,7.4l9.5-14.5C655.7,1333,647.3,1332.8,648.8,1329.8z
	 M646.1,1347.5l188.8-141.6c1.2-0.9,2.1-1.9,2.9-3.1L646.1,1347.5z M1364.8,386.3l-238.9,137.2c0,0,58.4-24.7,79.4,34l239.3-125
	C1444.7,432.4,1461.1,391.3,1364.8,386.3z M1353.5,1091c-0.3,0.2-0.7,0.5-1.1,0.7C1352.8,1091.5,1353.1,1091.2,1353.5,1091z
	 M1302.4,1105.8c-0.5-2.9-0.7-5.9-0.3-9.1l9-4.1c0.8,2.2,1.6,4.4,2.5,6.4c-0.9-2.1-1.8-4.2-2.5-6.4l27.5-12.5l0,0
	c-0.1-0.7-0.2-1.3,0-2l1.4-7.5c-23.1,5.4-38.8,16.5-38.8,29.2C1301,1101.8,1301.5,1103.8,1302.4,1105.8L1302.4,1105.8L1302.4,1105.8
	z M1339.7,1098.2c-0.2,0.1-0.3,0.1-0.5,0.2C1339.4,1098.3,1339.6,1098.3,1339.7,1098.2z M1337.5,1098.8c-0.1,0-0.2,0.1-0.4,0.1
	C1337.2,1098.9,1337.4,1098.9,1337.5,1098.8z M1338.6,1098.6c-0.1,0-0.3,0.1-0.4,0.1C1338.3,1098.6,1338.5,1098.6,1338.6,1098.6z
	 M1316.1,1104.2c0.2,0.3,0.3,0.7,0.5,1C1316.4,1104.9,1316.2,1104.5,1316.1,1104.2z M1315.6,1103.2c-0.5-1.1-1-2.2-1.5-3.3
	C1314.6,1101.1,1315.1,1102.2,1315.6,1103.2z M1338.8,1080.9c0,0,0-0.1-0.1-0.1C1338.8,1080.8,1338.8,1080.8,1338.8,1080.9z
	 M1318.2,1108.5c2.6,4.9,4.8,8.1,4.8,8.1l-2.9,5.4l0,0l2.9-5.4C1323,1116.6,1320.9,1113.4,1318.2,1108.5z M1339.2,1081.5
	c0-0.1-0.1-0.1-0.1-0.2C1339.1,1081.4,1339.1,1081.5,1339.2,1081.5z M1339.5,1082c0,0.1,0.1,0.1,0.1,0.2
	C1339.6,1082.1,1339.5,1082.1,1339.5,1082z M1348.6,1094.1c-0.1,0.1-0.2,0.1-0.3,0.2C1348.4,1094.2,1348.5,1094.2,1348.6,1094.1z
	 M1347.5,1094.7c-0.1,0.1-0.3,0.1-0.4,0.2C1347.3,1094.8,1347.4,1094.8,1347.5,1094.7z M1351.7,1092.2
	C1351.6,1092.2,1351.6,1092.2,1351.7,1092.2C1351.6,1092.2,1351.6,1092.2,1351.7,1092.2z M1340.9,1097.8c-0.2,0.1-0.3,0.1-0.5,0.2
	C1340.5,1097.9,1340.7,1097.9,1340.9,1097.8z M1344.2,1096.4c-0.2,0.1-0.3,0.2-0.5,0.2C1343.9,1096.5,1344.1,1096.5,1344.2,1096.4z
	 M1343.1,1096.9c-0.2,0.1-0.3,0.1-0.5,0.2C1342.8,1097.1,1342.9,1097,1343.1,1096.9z M1341.5,1097.6c0.2-0.1,0.3-0.1,0.5-0.2
	C1341.8,1097.5,1341.7,1097.5,1341.5,1097.6z M1344.9,1096.1c0.2-0.1,0.3-0.2,0.5-0.2C1345.2,1095.9,1345,1096,1344.9,1096.1z
	 M1346.4,1095.3c-0.1,0.1-0.3,0.1-0.4,0.2C1346.2,1095.4,1346.3,1095.4,1346.4,1095.3z M1382.2,1104.1c-0.2-0.1-0.4-0.1-0.7-0.2
	C1381.7,1104,1381.9,1104.1,1382.2,1104.1z M1378.6,1103.1c0.2,0,0.3,0.1,0.5,0.2C1378.9,1103.2,1378.8,1103.1,1378.6,1103.1z
	 M1396.7,1107.5c-0.3,0-0.5-0.1-0.8-0.1C1396.2,1107.4,1396.4,1107.5,1396.7,1107.5z M1398.6,1107.9c0.2,0,0.5,0.1,0.7,0.1
	C1399.1,1107.9,1398.8,1107.9,1398.6,1107.9z M1403.9,1108.7c-0.1,0-0.2,0-0.3,0C1403.7,1108.7,1403.8,1108.7,1403.9,1108.7z
	 M1354.6,1111.1c-0.2,0.1-0.3,0.2-0.5,0.3C1354.2,1111.3,1354.4,1111.2,1354.6,1111.1z M1393.1,1106.8c0.3,0.1,0.5,0.1,0.8,0.2
	C1393.7,1106.9,1393.4,1106.9,1393.1,1106.8z M1385.2,1105c-0.3-0.1-0.5-0.1-0.8-0.2C1384.7,1104.8,1385,1104.9,1385.2,1105z
	 M1417,1073.9l2.4,30.6c0.3,3.1-2.4,5.7-5.5,5.5c-0.6-0.1-1.3-0.1-2-0.2c-2.5,3.3-8.7,10.8-19.7,21.5c30-3.9,52-16.5,52-31.6
	C1444.2,1089.2,1433.5,1079.9,1417,1073.9z M1387.4,1105.5c0.3,0.1,0.5,0.1,0.8,0.2C1387.9,1105.6,1387.7,1105.6,1387.4,1105.5z
	 M1390.3,1106.2c0.3,0.1,0.5,0.1,0.8,0.2C1390.8,1106.3,1390.6,1106.3,1390.3,1106.2z M1401.7,1108.4c-0.2,0-0.4-0.1-0.6-0.1
	C1401.4,1108.3,1401.5,1108.4,1401.7,1108.4z M1359.5,1107.9c-0.6,0.4-1.2,0.8-1.8,1.2C1358.2,1108.7,1358.8,1108.3,1359.5,1107.9z
	 M1362,1106.1c0.5-0.3,1-0.7,1.5-1.1C1362.9,1105.4,1362.4,1105.8,1362,1106.1z M1360.1,1107.4l-0.1,0.1L1360.1,1107.4z
	 M1355.3,1110.7c0.3-0.2,0.6-0.4,1-0.7C1355.9,1110.2,1355.6,1110.5,1355.3,1110.7z M1364.4,1104.4c-0.1,0.1-0.2,0.2-0.3,0.2
	C1364.2,1104.5,1364.3,1104.5,1364.4,1104.4z M1365.5,1103.5c0.3-0.2,0.6-0.5,0.9-0.7C1366.1,1103.1,1365.8,1103.3,1365.5,1103.5z
	 M1366.9,1102.4c0.4-0.3,0.7-0.6,1.1-0.9C1367.7,1101.9,1367.3,1102.1,1366.9,1102.4z M1375.9,1102.2L1375.9,1102.2L1375.9,1102.2z
	 M1368.4,1101.3c0.3-0.2,0.6-0.5,0.8-0.7C1369,1100.8,1368.7,1101.1,1368.4,1101.3z M1372.6,1160.8c-4.6,0-9-0.6-12.7-1.6
	c-2.1,1.6-4,3-5.2,3.9c0,0-1,0-2.7-0.2c4.3,3.1,11.9,5.2,20.5,5.2c13.4,0,24.3-5,24.3-11.1v-7.2
	C1396.9,1155.8,1386,1160.8,1372.6,1160.8z M1328.5,1263.2c0,4.5,3.2,8.6,8.5,11.9c2.1-2.9,3.5-5,3.5-5c0.1,0,0.5,0,1,0.1
	c-0.2,0-0.3,0-0.4,0c0.5-0.9,0.8-1.6,0.8-1.8c0-0.6-2.1-7.2-5.2-16.9C1331.6,1254.8,1328.5,1258.8,1328.5,1263.2z M1353.8,1267.5
	c-0.2,0.2-0.4,0.4-0.6,0.5C1353.4,1267.9,1353.6,1267.7,1353.8,1267.5z M1342.9,1270.3c0.9,0,2.1,0,3.3-0.2
	C1345,1270.2,1343.9,1270.3,1342.9,1270.3z M1346.3,1270.1c0.3,0,0.6-0.1,0.9-0.1C1346.9,1270.1,1346.6,1270.1,1346.3,1270.1z
	 M1342.1,1270.3c-0.2,0-0.3,0-0.5,0C1341.8,1270.3,1341.9,1270.3,1342.1,1270.3z M1353.2,1268c-1.5,1.1-3.7,1.7-6,2
	C1349.5,1269.7,1351.8,1269.1,1353.2,1268z M1380,1243.3v12c0,4-3.3,7.3-7.3,7.3h-0.2c-4,0-7.3-3.3-7.3-7.3v-12
	c-4.3,0.3-8.4,1-12.2,1.8c-0.4,11,0.3,21.4,0.3,21.4s0.2,0.3,0.4,0.9c0.1-0.1,0.3-0.3,0.4-0.4c2.6-3.7,5.3,12.8,7,15.5
	c0,0.1,0.1,0.1,0.1,0.2c3.6,0.4,7.4,0.7,11.3,0.7c24.4,0,44.1-9.1,44.1-20.2C1416.7,1253.2,1400.9,1244.9,1380,1243.3z
	 M1342.3,1270.3c0.2,0,0.4,0,0.6,0C1342.6,1270.3,1342.4,1270.3,1342.3,1270.3z"></path>
<path id="color_x5F_5" fill="#FFD2BB" d="M987.2,868.3c-0.5,1-0.8,2.5-0.4,4.7c0,0-9.2-4.3-9.4,3.3c-7.8-7.8-25.1-22-32.2-30.1
	c0.7,9.1,0.6,19-0.3,21.6c-1.6,4.5-9.6,35.7-8.6,41.6c0,0-1.2,6-1,9.7c-3.5-0.8-9.4,3.9-9.4,3.9c1.2-4.9-4.6-4.3-6.3-5.1
	c-0.3-0.2-0.7,0-1.1,0.3c0.1-11.6,0.6-38.2,0.6-38.2l1-50.3c0,0-0.1-4.3-0.2-10c-2.2-1.7-5.1-5.1-9-11.4c-3.2-5.3-5.9-15.2-8.2-26.6
	c9.1,0,12-15.7,29.4-2.5c4.9,3.7,9,6.3,12.5,7.9c-2.3,10.4-3.8,18-3.8,18s-0.1,0.6-0.2,1.7c1.2,3.2,3.7,7.3,8.5,10.9
	c9.6,7,18,13,23.8,27C976.7,854,982.5,862.8,987.2,868.3z M987.7,686c-1.5-1.7-5.5-11.7-9.8-23.4c-0.5,0.4-1.1,0.8-1.7,1.1
	c-0.7,0.4-1.4,0.9-2,1.3c-0.7,0.4-1.4,0.8-2,1.2c-3,1.6-5.7,2.9-7.3,3.7c4.1,6.3,7.7,13.2,7.9,14.9c0.3,3.1-0.9,14.5-0.9,14.5
	c-1,23.2,3,32.4,2.4,40.6s-2.8,7.6-3.6,9.4c-0.8,1.8-9.8,7.3-9.8,7.3c0.4,4.9,8.2,1.8,8.2,1.8c-0.4,7.1-6.2,10.6-5.1,14.2
	c1.1,3.6,6-2.6,6-2.6c-0.7,5.5,3.7,0,3.7,0c0.5,5.9,3.5-1.8,3.5-1.8c-0.4,3.1,0.7,2.8,0.7,2.8c5.7-4.5,4.9-30.7,4.9-30.7
	S991.2,689.9,987.7,686z M899.9,682.6C899.9,682.6,899.9,682.5,899.9,682.6C899.9,682.5,899.9,682.5,899.9,682.6
	C899.9,682.5,899.9,682.5,899.9,682.6c0.1-0.1,0.1-0.2,0.1-0.2l0,0c0-0.1,0.1-0.2,0.1-0.3l0,0c0.6-1.5,2.1-6,2-10.7
	c-0.1-3.2-0.9-6.6-3.3-9.2c-6.4,7.5-17.3,20.6-18.4,24.5c-1.5,5.4-15,22.5-15,22.5s-12.1,2.5-14,1.9s-1.2,5.1,8.1,3.8
	c0,0-11.4,11-14.9,12.3s-0.8,2.7,4.2,1.4c0,0-4.1,4.5-2.3,4.5s7.2-2.8,7.2-2.8s-4.8,6.1-2.8,5.6c2-0.4,5.1-3.3,5.1-3.3
	s-3,4.4-1.3,4.9s8.1-7.9,8.1-7.9s11.1-11.1,11.3-14c0.1-1.9,13.9-15.7,23.6-25.2L899.9,682.6z M928.7,602.8c0,0,10-26.8,4.7-38.8
	c0,0-15.2,5-24-10.2c0,0-0.9,10-6.4,14.6c-0.3,4-0.5,8-0.3,11.8c0.6,8.4,2.7,18.5,9.6,18.8c0,0-0.8,0.5-2.5,0.8c2,1.4,4.4,2.1,7.5,2
	c2.9-0.2,5.6-1.1,8.3-2.5c-0.4,1.8-0.8,3.6-1.1,5.1c0,0.1,0,0.1,0,0.2c-0.8-0.1-1.9-0.1-3-0.2c0,1.5,0.1,4.6,0.1,5.9
	c0,0.4,0,1.2,0.1,2.1c0.2,1.3,0.6,2.9,1.5,4.2s2.4,2.1,4.8,2c5.7-0.4,11.3-7.9,12.4-9.4c-0.5-0.9-0.8-3.2-0.8-6.1
	C936.5,603.2,932.8,603.1,928.7,602.8z M1608.5,867.4c0,0-9-5.5-9.8-7.3c-0.6-1.4-2.1-1.3-3-5.2c-1.8,0.6-6,1.9-9.3,1.2
	c0.1,7.9,0.8,22.5,5,25.7c0,0,1.1,0.3,0.7-2.8c0,0,3,7.7,3.5,1.8c0,0,4.5,5.5,3.7,0c0,0,4.9,6.3,6,2.6s-4.6-7.1-5.1-14.2
	C1600.3,869.2,1608.1,872.2,1608.5,867.4z M1723.4,842.3c0,0,4.4,5.2,2.4,5.1c-2-0.1-7.9-3.4-7.9-3.4s5,7,2.8,6.4s-5.5-3.9-5.5-3.9
	s3.1,5,1.2,5.5s-8.6-9.1-8.6-9.1s-11.9-12.9-11.8-16.1c0-0.4-0.5-1.3-1.5-2.6c4.1-1.9,7.9-7.3,8.6-8.3c1.7,2.4,2.9,4.1,2.9,4.1
	s13.3,3.4,15.5,2.8c2.2-0.6,1.1,5.7-9.2,3.9c0,0,12.1,12.8,15.9,14.4S1729.1,844,1723.4,842.3z M1668,685.5
	c0.4,14.6-2.7,27.9-14.7,27.1l0,0c-0.4,0-0.7-0.1-1.1-0.1c-0.2,0-0.3,0-0.5-0.1c-0.2,0-0.5-0.1-0.7-0.1s-0.4-0.1-0.5-0.1
	c-0.2,0-0.4-0.1-0.6-0.2c-2.2-0.6-4.3-1.5-6.3-2.7c0.5,1.7,0.9,3.5,1.1,5c0.9-0.5,2.1-1.2,3.4-1.8l-0.4,2.5l0.6,8.2
	c0.6-0.3,1.2-0.6,1.7-0.9c-1,0.6-2.3,1.2-3.9,1.8l0,0c-1.4,0.5-2.9,0.9-4.7,1.2c0-4.6-0.1-10.4-0.1-10.4c-1.2-0.4-2.4-0.8-3.4-1.2
	c-1.5-0.7-2.7-1.4-3.7-2c-1.7-1.2-2.8-2.3-3.4-3.2c-0.4-0.5-0.7-1-0.8-1.3c-0.1-0.1-0.1-0.2-0.1-0.3c-0.1-0.1-0.1-0.2-0.1-0.2v0.2
	v0.3c-0.2-4.5-0.6-9-0.9-11.8c-1.2-1.6-1.9-2.6-1.9-2.6s-8.9-0.1-8.5-7.3c0.2-3.9,2.3-4.1,4.1-3.5c0.2,0.2,0.4,0.4,0.7,0.5
	c0,0,0.4,0.1,1.1,0.3c0.8,0.4,1.3,0.8,1.3,0.7c0-0.2-0.1-0.3-0.1-0.5c1.4,0.2,3,0.3,3.3-0.5c0.6-1.4-0.8,5.8,3.7,10.7
	c0,0,0.2-11,1.9-13.4c0,0,11,4.5,15.5,0.2s8.9-9.7,8.9-9.7S1666.5,679.9,1668,685.5z M1432,1022.8c1.6,20,0.6,30-14,38.6l-1.9,1.5
	l0,0l-2.8,2.2c0,0-19.2,12.8-30.3,22.4c-0.1,0.1-0.2,0.1-0.2,0.2c-0.3,0.2-0.5,0.4-0.8,0.7c-0.1,0.1-0.2,0.2-0.3,0.3
	c-0.3,0.3-0.7,0.6-1,0.9c-0.2,0.2-0.4,0.3-0.6,0.5c-0.1,0.1-0.3,0.3-0.4,0.4c-0.2,0.2-0.4,0.3-0.5,0.5c-0.1,0.1-0.2,0.2-0.3,0.3
	c-0.2,0.2-0.4,0.4-0.5,0.6c-0.1,0.1-0.2,0.2-0.3,0.3c-0.3,0.3-0.5,0.5-0.7,0.8c-0.5,0.6-1.1,1.2-1.6,1.8l-0.1,0.1
	c-0.6,0.6-1.1,1.2-1.7,1.7l-0.1,0.1c-0.6,0.6-1.2,1.2-1.9,1.7c0,0,0,0-0.1,0.1c-0.7,0.6-1.3,1.2-2,1.7l0,0
	c-7.7,6.4-16.4,11.7-16.4,11.7s-8.5,3.1-9.7,2.6s2-4,2-4s-3.5,1.1-6,0s2.6-4.4,2.6-4.4s-4.1,1.1-6.8,0c-2.7-1.1,2.2-4.2,2.2-4.2
	s-11.1-1.5-1.7-2.7c5.7-0.8,12.8-4.9,17.4-8.1c0.1-0.1,0.2-0.1,0.2-0.2c0.1-0.1,0.3-0.2,0.4-0.3c0.1-0.1,0.2-0.1,0.2-0.2
	c0.1-0.1,0.2-0.2,0.4-0.3c0.1-0.1,0.2-0.1,0.2-0.2c0.1-0.1,0.2-0.2,0.3-0.2c0.1-0.1,0.1-0.1,0.2-0.2s0.2-0.2,0.3-0.2
	c0.1,0,0.1-0.1,0.2-0.1c0.1-0.1,0.2-0.2,0.3-0.2c0,0,0.1,0,0.1-0.1c0.4-0.3,0.7-0.5,0.9-0.7l0.1-0.1c0.1,0,0.1-0.1,0.2-0.1l0.1-0.1
	c0.1,0,0.1-0.1,0.2-0.1c0,0,0.1,0,0.1-0.1l0.1-0.1c0,0,0.1,0,0.1-0.1c0,0,0,0,0.1-0.1c0,0,0,0,0.1,0l0.1-0.1l-3.5-1.1
	c-5.1-1.6-4.4-7.2-3.2-6.1c0,0,0.1,0.1,0.2,0.1h0.1c0.1,0,0.2,0.1,0.4,0.1l0,0c0.1,0,0.3,0.1,0.5,0.1c0,0,0.1,0,0.2,0
	c0.2,0,0.4,0.1,0.6,0.1l0,0c0.2,0,0.5,0.1,0.7,0.1c0.1,0,0.1,0,0.2,0c0.2,0,0.5,0,0.7,0.1h0.1c0.3,0,0.6,0,0.9,0.1
	c0.1,0,0.2,0,0.2,0c0.3,0,0.6,0,0.9,0h0.1c0.3,0,0.7,0,1,0c0.1,0,0.2,0,0.2,0c0.3,0,0.6,0,0.9,0h0.1c0.3,0,0.7,0,1,0
	c0.1,0,0.1,0,0.2,0c0.3,0,0.6,0,1,0h0.1c0.3,0,0.7,0,1,0c0.1,0,0.1,0,0.2,0c3,0,5.5,0,5.5,0l45-42l-0.8,0.3c0,0,0.4-0.6,1.1-1.5
	l-0.8-10.2c-0.2-2.8,1.8-5.2,4.6-5.5c6.2-0.5,10.9-2.5,14.5-5C1432.2,1019.1,1432.1,1020.9,1432,1022.8z M1341.9,1059.1
	c-17.5,11.4-50.7,33.3-53.8,35.5c-4.1,3-3.3,12.8-3.3,12.8c-6.1,1.7-5.3-10.9-5.3-10.9l-10.8,13.9c0,0-4.6,9-6.3,6.8s0.2-4-2.8-4.6
	s-1.3-6.2-1.3-6.2s-1,1.5-1.5-3.5s24.2-24.9,24.2-24.9l53.7-40.5c0,0,0.7-9.3,1.7-21.1c2.9,1.1,5.8,2,8,2.6c2.6,0.7,4.2,3.2,3.7,5.8
	L1341.9,1059.1z M1395.3,931.5c-0.5,5-2.1,8.9-4.3,12c-0.8,5.1-1.8,14.7,0.5,16.6c0.2,0.2,0.6,0.3,1,0.4c-1.1,0.3-2.1,1-2.7,2
	c-2.5,3.7-9.3,11.8-18.9,11.3c-7.6-0.4-8-6.9-7.2-12c0.3-1.8-0.4-3.6-1.7-4.7c5.3-0.3,10.5-1,10.9-2.1c0.1-0.2,0.3-0.5,0.6-0.8
	c-3,0.7-5,0.8-5,0.8s-21.4-1-23.4-33.1c-0.1-1.2-0.1-2.3-0.1-3.5c2.5-6.5,10.2-16,10.2-16s5.1,6.2,10.3,11.1
	c5.1,4.9,17.8-0.2,17.8-0.2c2,2.7,2.2,15.4,2.2,15.4c5.2-5.6,3.5-13.9,4.3-12.3c0.7,1.6,6.3,0,6.3,0c0.7-0.4,1.2-1,1.7-1.6
	c1.7-1.1,4.5-1.9,6.8,2.2C1408.2,923.5,1395.3,931.5,1395.3,931.5z M1294,1247.4c-4-17-26.2-104.2-26-109.5
	c0.2-5.7,10.7-23.4,23.6-27.1c2.7-0.8,6.5-2.6,10.8-5c2.5,14.3,13.3,24.4,13.3,24.4l-3.7,7.4l-13.2,4.9c0,0,12.2,30.6,9.9,42.5
	c-2.2,11.9-4.2,45.8,2,53.5c0.2,0.3,0.4,0.5,0.6,0.8c-0.5,1-1.4,2.4-3.5,3.7v-0.1c-2.4,1.5-6.4,2.8-13.3,3.1
	C1294.6,1246.1,1294.3,1246.6,1294,1247.4z M1341.9,1268.4c-0.2-2.5-36.1-112.1-35.4-118.1c0.3-2,1.4-4.3,2.8-6.4
	c9,11.3,25.1,16,35.6,17.9c0,1.8,0.5,4.7,2.5,9.4c4.5,10.4,12.1,41.5,8.1,54.2c-4,12.8-2.2,41.1-2.2,41.1s0.2,0.3,0.4,0.9
	c-2.7,2.9-10.5,2.9-12.7,2.7C1341.6,1269.3,1341.9,1268.6,1341.9,1268.4z"></path>
<path id="color_x5F_4" fill="#00CEC9" d="M1372.1,1427.5l15,9.4l-226.5,120.7l-348.4-219.5l14.9-8.1l333.5,210.1L1372.1,1427.5z
	 M451.9,1321.1l-84.6-49v61.7l106.9,61.3V1272l0,0L451.9,1321.1z M633.6,1178.5l-105.9,62.1v-122.2L633.6,1178.5z M1366.8,1153.7
	c-1.6,1.3-3.1,2.5-4.8,3.8l0,0c-0.7,0.6-1.4,1.2-2,1.7c3.7,1,8,1.6,12.7,1.6c11.8,0,21.5-3.8,23.8-8.9c-7.4,1.2-15.4,1.9-23.8,1.9
	C1370.6,1153.8,1368.7,1153.7,1366.8,1153.7z M1365.5,1154L1365.5,1154L1365.5,1154L1365.5,1154z M1363.7,1155.9l0.1-0.1
	C1363.8,1155.8,1363.7,1155.9,1363.7,1155.9z M1372.6,1168c-2.6,0-5.1-0.2-7.4-0.5v87.8c0,4,3.3,7.3,7.3,7.3h0.2
	c4,0,7.3-3.3,7.3-7.3v-87.8C1377.7,1167.8,1375.2,1168,1372.6,1168z"></path>
<path id="color_x5F_3" fill="#E84393" d="M1373,1444.5l12.7,8l-226.5,120.7l-348.4-219.5l14-7.6l335.8,211.5L1373,1444.5z
	 M1304,614.9c-21.1-58.6-79.4-34-79.4-34l0.1,370.6c75.1-3.2,79.2,37.6,79.4,44.2L1304,614.9z M633.6,1178.5v125.3l-159.3,91.3V1272
	L633.6,1178.5z M527.7,1240.6v-122.2L367.3,1210l106.9,62L527.7,1240.6z M933.9,616c-0.1,0.1-0.2,0.2-0.3,0.2
	C933.7,616.2,933.8,616.1,933.9,616z M935.6,718.7c-0.8,0.2-1.6,0.4-2.4,0.6C933.9,719.1,934.8,718.9,935.6,718.7z M931.8,617.3
	c-0.1,0.1-0.3,0.1-0.4,0.2C931.5,617.5,931.6,617.4,931.8,617.3z M930.3,618c0.1,0,0.3-0.1,0.4-0.2C930.5,617.9,930.4,618,930.3,618
	z M932.8,616.7c-0.1,0.1-0.2,0.2-0.4,0.2C932.6,616.9,932.7,616.8,932.8,616.7z M935.9,718.6c0.8-0.2,1.7-0.5,2.6-0.8
	C937.6,718.1,936.8,718.3,935.9,718.6z M941.5,716.7c-0.9,0.4-1.8,0.7-2.7,1C939.7,717.3,940.6,717,941.5,716.7z M930.1,720
	c-0.8,0.1-1.5,0.3-2.2,0.4C928.6,720.2,929.3,720.1,930.1,720z M951.2,712.2c-1.1,0.6-2.1,1.1-3.2,1.6
	C949.1,713.3,950.1,712.8,951.2,712.2z M927.5,720.4c-0.7,0.1-1.4,0.2-2.2,0.2C926,720.6,926.7,720.5,927.5,720.4z M936.7,613.6
	C936.6,613.6,936.6,613.6,936.7,613.6C936.6,613.6,936.6,613.6,936.7,613.6z M944.9,715.3c1-0.4,2-0.9,3-1.4
	C946.9,714.4,945.9,714.8,944.9,715.3z M944.6,715.4c-1,0.4-1.9,0.8-2.8,1.2C942.7,716.2,943.7,715.8,944.6,715.4z M901.9,668.6
	c0-0.2-0.1-0.4-0.1-0.6C901.9,668.3,901.9,668.5,901.9,668.6z M901.5,666.7c0.1,0.2,0.1,0.4,0.2,0.6
	C901.6,667.2,901.5,666.9,901.5,666.7z M922.9,720.8c0.7,0,1.4-0.1,2.1-0.1C924.3,720.7,923.6,720.8,922.9,720.8z M901.3,666.1
	c-0.1-0.2-0.2-0.4-0.2-0.7C901.1,665.7,901.2,665.9,901.3,666.1z M900.4,664.2c0.1,0.2,0.2,0.4,0.3,0.7
	C900.7,664.7,900.6,664.4,900.4,664.2z M902.1,670c0-0.2,0-0.3-0.1-0.5C902.1,669.6,902.1,669.8,902.1,670z M898.3,708
	c-0.1-0.1-0.1-0.1-0.2-0.2C898.2,707.9,898.2,707.9,898.3,708z M901.9,711.2c0.2,0.1,0.3,0.2,0.5,0.4
	C902.2,711.4,902.1,711.3,901.9,711.2z M898.9,662.1c0.5,0.5,0.9,1.1,1.2,1.7C899.8,663.2,899.4,662.6,898.9,662.1z M934.7,603.1
	c-0.1,0-0.1,0-0.2,0C934.6,603.1,934.6,603.1,934.7,603.1z M935.8,614.4c-0.1,0.1-0.1,0.1-0.2,0.2
	C935.7,614.5,935.7,614.5,935.8,614.4z M931.7,603c0.1,0,0.3,0,0.4,0C932,603,931.8,603,931.7,603z M900.6,710.1
	c0.1,0.1,0.2,0.2,0.3,0.3C900.8,710.3,900.7,710.2,900.6,710.1z M934.6,615.4c0.1-0.1,0.2-0.1,0.3-0.2
	C934.8,615.3,934.7,615.4,934.6,615.4z M911.2,598.9h0.1C911.3,598.9,911.3,598.9,911.2,598.9z M909.3,598.1c0,0,0.1,0,0.1,0.1
	C909.3,598.1,909.3,598.1,909.3,598.1z M908.5,597.6C908.5,597.6,908.5,597.5,908.5,597.6C908.5,597.5,908.5,597.6,908.5,597.6z
	 M899.3,709L899.3,709L899.3,709z M910.2,598.5c0.1,0,0.1,0,0.2,0.1C910.3,598.6,910.2,598.6,910.2,598.5z M906.4,595.1
	c0,0,0-0.1-0.1-0.1C906.3,595,906.4,595.1,906.4,595.1z M906.9,595.9c0,0.1,0.1,0.1,0.1,0.1S907,596,906.9,595.9z M907.7,596.8
	l0.1,0.1C907.7,596.9,907.7,596.8,907.7,596.8z M905.8,594c0,0,0,0.1,0.1,0.1C905.8,594.1,905.8,594,905.8,594z M903.7,587.6
	c0,0.2,0.1,0.3,0.1,0.5C903.7,587.9,903.7,587.7,903.7,587.6z M903,568.4c-0.3,4-0.5,8-0.3,11.8c0,0.5,0.1,1,0.1,1.6
	c-0.6-6.8-0.1-13.1-0.1-13.1C902.8,568.6,902.9,568.5,903,568.4z M903.5,586.6c0-0.2-0.1-0.4-0.1-0.5
	C903.4,586.3,903.5,586.4,903.5,586.6z M902.9,582.7c0,0.4,0.1,0.9,0.2,1.3C903,583.6,903,583.2,902.9,582.7z M903.2,584.5
	c0,0.3,0.1,0.6,0.1,0.9C903.2,585.1,903.2,584.8,903.2,584.5z M902.9,582.6c0-0.3-0.1-0.5-0.1-0.8
	C902.9,582,902.9,582.3,902.9,582.6z M905.3,593c0-0.1-0.1-0.2-0.1-0.2C905.3,592.9,905.3,593,905.3,593z M924.6,774.8
	c-0.2-0.1-0.3-0.1-0.5-0.2C924.3,774.7,924.4,774.8,924.6,774.8z M925.4,775.2c0.2,0.1,0.4,0.2,0.5,0.2
	C925.8,775.3,925.6,775.2,925.4,775.2z M922.6,720.8c-0.7,0-1.3,0-2,0C921.2,720.8,921.9,720.8,922.6,720.8z M929,777
	c-0.2-0.1-0.4-0.2-0.6-0.3C928.6,776.8,928.8,776.9,929,777z M922.9,774.3c0.1,0,0.3,0.1,0.4,0.1C923.1,774.4,923,774.3,922.9,774.3
	z M921.9,774.1c-0.1,0-0.2,0-0.3,0C921.8,774.1,921.9,774.1,921.9,774.1z M926.9,775.8c0.2,0.1,0.4,0.2,0.6,0.3
	C927.2,776,927,775.9,926.9,775.8z M904,589c0,0.1,0.1,0.2,0.1,0.3C904.1,589.3,904,589.2,904,589z M904.3,590.3
	c0,0.1,0.1,0.2,0.1,0.3C904.4,590.5,904.4,590.4,904.3,590.3z M930,777.7c0.2,0.1,0.3,0.2,0.5,0.3
	C930.4,777.9,930.2,777.8,930,777.7z M904.8,591.8c0-0.1-0.1-0.2-0.1-0.3C904.8,591.6,904.8,591.7,904.8,591.8z M930.4,719.9
	c0.8-0.1,1.5-0.3,2.3-0.5C932,719.6,931.2,719.8,930.4,719.9z M929.5,618.3c-0.1,0-0.2,0.1-0.4,0.1
	C929.3,618.3,929.4,618.3,929.5,618.3z M904,712.6c-0.2-0.1-0.4-0.3-0.6-0.4C903.6,712.3,903.8,712.5,904,712.6z M910.5,599.7
	C910.5,599.7,910.4,599.7,910.5,599.7C910.4,599.7,910.5,599.7,910.5,599.7z M912.3,599L912.3,599L912.3,599z M912,599.2L912,599.2
	L912,599.2z M911.4,599.4L911.4,599.4L911.4,599.4z M921.6,609.1L921.6,609.1L921.6,609.1z M921.7,609.9c0,0,0-0.1,0-0.2
	C921.7,609.8,921.7,609.8,921.7,609.9z M968.9,667.9c0.1,0,0.2-0.1,0.3-0.1C969.1,667.8,969,667.9,968.9,667.9z M971.1,666.7
	c-0.1,0.1-0.2,0.1-0.3,0.2C970.9,666.9,971,666.8,971.1,666.7z M970.1,667.3c-0.1,0.1-0.2,0.1-0.3,0.2
	C969.9,667.4,970,667.3,970.1,667.3z M921.6,608.2c0,0.1,0,0.1,0,0.2C921.6,608.4,921.6,608.3,921.6,608.2z M968,668.4
	C968,668.4,967.9,668.4,968,668.4C967.9,668.4,968,668.4,968,668.4z M939.5,610.4c0-0.1,0.1-0.1,0.1-0.2
	C939.5,610.3,939.5,610.3,939.5,610.4z M939,611C939,611,938.9,611.1,939,611C938.9,611.1,939,611,939,611z M939.9,609.9
	c0.1-0.1,0.1-0.2,0.2-0.2C940,609.7,940,609.8,939.9,609.9z M918.3,774.1c0.1,0,0.1,0,0.2,0C918.4,774.1,918.3,774.1,918.3,774.1z
	 M895.9,711.5c0.1,0.1,0.3,0.3,0.6,0.6C896.3,711.9,896.1,711.7,895.9,711.5z M919.4,774L919.4,774L919.4,774z M917.3,774.3
	c0.1,0,0.1,0,0.2,0C917.4,774.3,917.3,774.3,917.3,774.3z M915.5,775L915.5,775L915.5,775z M916.4,774.6h0.1
	C916.4,774.6,916.4,774.6,916.4,774.6z M897.1,712.6c0.2,0.1,0.3,0.3,0.5,0.4C897.4,712.9,897.2,712.7,897.1,712.6z M921.6,605.8
	c0,0.1,0,0.1,0,0.2C921.6,605.9,921.6,605.9,921.6,605.8z M921.5,605.2v-0.1C921.5,605.1,921.5,605.1,921.5,605.2z M921.6,606.8
	c0-0.1,0-0.1,0-0.2C921.6,606.6,921.6,606.7,921.6,606.8z M921.6,607.6c0-0.1,0-0.1,0-0.2C921.6,607.5,921.6,607.6,921.6,607.6z
	 M897.3,706.9c0-0.1-0.1-0.1-0.1-0.2C897.2,706.8,897.3,706.9,897.3,706.9z M897,712.5c-0.2-0.1-0.3-0.3-0.4-0.4
	C896.7,712.3,896.9,712.4,897,712.5z M907.2,718.4c-0.4-0.2-0.9-0.3-1.3-0.5C906.3,718.1,906.8,718.3,907.2,718.4z M967.1,668.8
	c-0.1,0-0.2,0.1-0.2,0.1C967,668.9,967.1,668.8,967.1,668.8z M905.1,713.3c0.2,0.1,0.4,0.2,0.6,0.3
	C905.5,713.5,905.3,713.4,905.1,713.3z M900,714.8c0.3,0.2,0.5,0.3,0.8,0.5C900.5,715.1,900.3,715,900,714.8z M914.3,720.3
	c0.6,0.1,1.2,0.2,1.8,0.3C915.5,720.5,914.8,720.4,914.3,720.3z M918.1,720.7c-0.6,0-1.3-0.1-1.9-0.2
	C916.9,720.6,917.5,720.7,918.1,720.7z M901,715.4c0.3,0.2,0.6,0.4,0.9,0.5C901.6,715.8,901.3,715.6,901,715.4z M903.3,716.7
	c0.4,0.2,0.7,0.4,1.1,0.5C904,717.1,903.6,716.9,903.3,716.7z M899,714.1c-0.2-0.2-0.5-0.3-0.7-0.5
	C898.5,713.8,898.7,713.9,899,714.1z M902.1,716.1c0.3,0.2,0.7,0.4,1,0.5C902.7,716.4,902.4,716.2,902.1,716.1z M898.2,713.5
	c-0.2-0.2-0.4-0.3-0.6-0.5C897.8,713.2,898,713.4,898.2,713.5z M908.8,719c-0.5-0.2-1-0.3-1.4-0.5
	C907.9,718.7,908.3,718.8,908.8,719z M905.7,717.8c-0.4-0.2-0.8-0.3-1.2-0.5C904.9,717.5,905.3,717.7,905.7,717.8z M912.4,719.9
	c0.6,0.1,1.2,0.2,1.8,0.3C913.5,720.1,912.9,720,912.4,719.9z M899.1,714.2c0.2,0.2,0.5,0.3,0.7,0.5
	C899.6,714.5,899.3,714.3,899.1,714.2z M943.4,786.5L943.4,786.5L943.4,786.5z M942,785.8L942,785.8L942,785.8z M939,784
	c0.1,0,0.1,0.1,0.2,0.1C939.2,784.1,939.1,784,939,784z M940.5,784.9c0,0,0.1,0,0.1,0.1C940.6,785,940.6,784.9,940.5,784.9z
	 M910.6,719.5c0.5,0.1,1.1,0.3,1.7,0.4C911.7,719.8,911.2,719.6,910.6,719.5z M965.4,669.6c0,0,0.1,0,0.1-0.1
	C965.5,669.6,965.5,669.6,965.4,669.6z M966.3,669.2c-0.1,0-0.2,0.1-0.2,0.1C966.2,669.2,966.3,669.2,966.3,669.2z M920.3,720.8
	c-0.7,0-1.3,0-1.9-0.1C919,720.8,919.6,720.8,920.3,720.8z M1032.5,365v416.6l-74.5,43c-2.8-2.3-5.8-4.5-8.8-6.7
	c-4.8-3.5-7.3-7.7-8.5-10.9c0.1-1.1,0.2-1.7,0.2-1.7s1.5-7.7,3.8-18l0,0c10.2,5,14.3,2.7,14.3,2.7s-4.2-8.9,1.7-34
	s-9.5-43.7-9.5-43.7l0,0c-0.9-1.8-1.9-3.4-2.9-5.1c0.4,1.1,0.8,1.7,0.9,1.8c-0.1-0.2-1.3-1.8-1.9-5.2c-0.1-0.5-0.2-1-0.3-1.5
	c-0.6-4.1-0.4-10,2.2-18.1c0.1-0.3,0.2-0.7,0.3-1l0,0c5.3-16.5,5.2-24.7,5.2-24.7l8.5,12.2l0,0c0,0,0.6-0.2,1.5-0.7
	c4.1,6.3,7.7,13.2,7.9,14.9c0.3,3.1-0.9,14.5-0.9,14.5c-1,23.2,3,32.4,2.4,40.6s-2.8,7.6-3.6,9.4c-0.8,1.8-9.8,7.3-9.8,7.3
	c0.4,4.9,8.2,1.8,8.2,1.8c-0.4,7.1-6.2,10.6-5.1,14.2c1.1,3.6,6-2.6,6-2.6c-0.7,5.5,3.7,0,3.7,0c0.5,5.9,3.5-1.8,3.5-1.8
	c-0.4,3.1,0.7,2.8,0.7,2.8c5.7-4.5,4.9-30.7,4.9-30.7s8.3-50.3,4.8-54.1c-1.5-1.7-5.5-11.7-9.8-23.4c4-2.8,7.3-5.9,7.4-8.9
	c0,0-0.3-0.2-0.8-0.5c-0.9-0.6-2.3-1.5-3.7-2.6c-0.4-0.3-0.8-0.6-1.1-1c-0.3-0.3-0.7-0.7-0.9-1c-0.1-0.2-0.3-0.3-0.4-0.5
	c-0.2-0.2-0.4-0.6-0.7-1.1c-0.2-0.3-0.4-0.7-0.7-1.1c-0.3-0.4-0.5-0.9-0.9-1.4s-0.6-1-1-1.6c-0.7-1.1-1.4-2.3-2.1-3.6
	c-0.4-0.6-0.7-1.3-1.1-1.9c-0.4-0.6-0.7-1.3-1.1-1.9c-1.3-2.2-2.5-4.2-3.4-5.8c-0.1-0.2-0.3-0.4-0.4-0.6c-0.2-0.4-0.5-0.8-0.6-1.1
	c-0.5-0.8-0.7-1.2-0.7-1.2s-3.1-13.6-25-18c0,0-0.1,0.2-0.4,0.5c0.1-0.1,0.1-0.2,0.2-0.3c-0.5-0.9-0.8-3.2-0.8-6.1
	c20.9-0.7,21.1-9.2,21.1-9.2c1.8-29.2-5.1-40.2-5.1-40.2s-13.8-16.6-27.1-17s-17,3.2-24.2,10.1c-7.2,6.8-5.7,31-5.8,36.2
	c-0.1,5.1-3.2,13.8-3.2,13.8c6.9,3.8,11.9,3.8,14.7,3.2l0,0c2,1.4,4.4,2.1,7.5,2c2.9-0.2,5.6-1.1,8.3-2.5c-0.4,1.8-0.8,3.6-1.1,5.1
	c0,0.1,0,0.1,0,0.2c-0.8-0.1-1.9-0.1-3-0.2c0,0,0,0,0,0.1c0-0.6,0-1,0-1s-15.9-0.6-18,2c0,0-1.8,3.5-2.9,11.7
	c-1.1,8.2-2.8,11.5-2.8,11.5s-1.5,2.9-3.8,5.6c-0.5,0.5-1,1.1-1.5,1.6c-1.1,1-2.3,1.9-3.6,2.4l0,0l3.3,4.2c0,0-3.1,11.4,5.5,18.4
	c0.5,0.4,0.9,0.8,1.2,1.2c-6.4,7.5-17.3,20.6-18.4,24.5c-1.5,5.4-15,22.5-15,22.5s-12.1,2.5-14,1.9s-1.2,5.1,8.1,3.8
	c0,0-11.4,11-14.9,12.3s-0.8,2.7,4.2,1.4c0,0-4.1,4.5-2.3,4.5s7.2-2.8,7.2-2.8s-4.8,6.1-2.8,5.6c2-0.4,5.1-3.3,5.1-3.3
	s-3,4.4-1.3,4.9s8.1-7.9,8.1-7.9s11.1-11.1,11.3-14c0.1-1.9,13.9-15.7,23.6-25.2l-3.4,12.9c0,0,0.6,1.1,1.9,2.7l0,0
	c-0.3,1.8-0.5,3.7-0.6,5.5c0,0,0.1,0.1,0.2,0.2c-0.1-0.2-0.2-0.2-0.2-0.2l-15.3,57.8c0,0,6.4,6.8,18.7,11.9c1.4,0.6,2.6,0.8,3.7,0.8
	l0,0c2.2,11.3,5,21.3,8.2,26.6c3.9,6.3,6.8,9.6,9,11.4c0.1,5.7,0.2,10,0.2,10l-0.3,17l-536.7,310v-416L1032.5,365z M937.7,783.1
	c-0.1-0.1-0.2-0.1-0.3-0.2C937.5,783,937.6,783.1,937.7,783.1z M909,719c0.5,0.2,1,0.3,1.5,0.4C910,719.3,909.5,719.2,909,719z
	 M935.8,781.8c0.1,0.1,0.2,0.2,0.4,0.3C936,782,935.9,781.9,935.8,781.8z M934.5,780.9c-0.2-0.1-0.3-0.2-0.5-0.4
	C934.2,780.7,934.4,780.8,934.5,780.9z M1125.9,523.5c0,0,58.4-24.7,79.4,34v381.8c0,0,2.4-48.6-79.4-45.1V523.5z"></path>
<path id="color_x5F_2" fill="#FBC02D" d="M920.7,932.9c0,0-7.8,7.6-9,6.3c-0.6-0.6-0.2-3.5,0.4-6.2c1.7-2.5,3.1-4.9,3.1-6
	c0-2.7,2.8-9.9,4.5-9.1c1.7,0.8,7.5,0.2,6.3,5.1c0,0,0.1-0.1,0.2-0.2L920.7,932.9z M980,892.1c2.5,7.9,5.4,4.1,6.8,3.3
	c1.6-0.8,0-22.5,0-22.5s-9.4-4.4-9.4,3.5s3.7,4.2,3.2,12C980.6,889.4,980.3,890.7,980,892.1z M984.5,653.3c-0.9-0.6-2.3-1.5-3.7-2.6
	c-0.4-0.3-0.8-0.6-1.1-1c-0.3-0.3-0.7-0.7-0.9-1c-0.1-0.2-0.3-0.3-0.4-0.5c-0.2-0.2-0.4-0.6-0.7-1.1c-0.2-0.3-0.4-0.7-0.7-1.1
	c-0.3-0.4-0.5-0.9-0.9-1.4s-0.6-1-1-1.6c-0.7-1.1-1.4-2.3-2.1-3.6c-0.4-0.6-0.7-1.3-1.1-1.9c-0.4-0.6-0.7-1.3-1.1-1.9
	c-1.3-2.2-2.5-4.2-3.4-5.8c-0.1-0.2-0.3-0.4-0.4-0.6c-0.2-0.4-0.5-0.8-0.6-1.1c-0.5-0.8-0.7-1.2-0.7-1.2s-3.1-13.6-25-18
	c0,0-6.3,9.2-12.5,9.6c-2.3,0.2-3.8-0.7-4.8-2s-1.3-2.9-1.5-4.2c-0.1-0.9-0.1-1.6-0.1-2.1c0-1.7-0.2-6.8-0.2-6.8s-15.9-0.6-18,2
	c0,0-1.8,3.5-2.9,11.7c-1.1,8.2-2.8,11.5-2.8,11.5s-1.5,2.9-3.8,5.6c-0.5,0.5-1,1.1-1.5,1.6c-1.1,1-2.3,1.9-3.6,2.4l0,0l0,0l3.3,4.2
	c0,0-3.1,11.4,5.5,18.4c3.4,2.7,4.4,6.6,4.5,10.4c0.1,4.7-1.5,9.2-2,10.7l0,0c0,0.1-0.1,0.2-0.1,0.3l0,0c0,0.1,0,0.1-0.1,0.1l0,0
	l0,0l0,0l-5.4,20.7c0,0,4,7,13,11.3c3,1.4,6.5,2.6,10.7,3c2.1,0.2,4,0.4,5.9,0.6c1.9,0.1,3.6,0.2,5.3,0.2s3.2-0.1,4.7-0.2
	c3-0.3,5.5-0.9,7.7-1.9c1.6-0.7,3.1-1.7,4.3-2.9s2.3-2.7,3.1-4.4c0,0-1.2-1.7-2-5.2c-0.1-0.5-0.2-1-0.3-1.5
	c-0.6-4.1-0.4-10,2.2-18.1c0.1-0.3,0.2-0.7,0.3-1l0,0c5.3-16.5,5.2-24.7,5.2-24.7l8.5,12.2l0,0l0,0c0,0,4.2-1.7,8.9-4.4
	c0.7-0.4,1.4-0.8,2-1.2c0.7-0.4,1.4-0.8,2-1.3c4.7-3,9-6.7,9.1-10C985.4,653.8,985,653.6,984.5,653.3z M892.2,955
	c0.1-0.1,0.1-0.3,0.2-0.4C892.3,954.7,892.3,954.8,892.2,955z M895.8,950.1c-0.2,0.2-0.4,0.5-0.6,0.7
	C895.3,950.5,895.5,950.3,895.8,950.1z M892.9,953.7c0.6-1,1.4-2,2.2-3C894.3,951.8,893.5,952.8,892.9,953.7z M892.6,954.3
	c0.1-0.2,0.2-0.3,0.3-0.5C892.8,953.9,892.7,954.1,892.6,954.3z M891.5,956.8c0,0.1-0.1,0.2-0.1,0.3
	C891.4,957,891.4,956.9,891.5,956.8z M892,955.3c-0.1,0.1-0.1,0.3-0.2,0.4C891.9,955.6,892,955.4,892,955.3z M891.3,957.5
	c0,0.1,0,0.2,0,0.3C891.3,957.8,891.3,957.6,891.3,957.5z M891.7,956.1c0,0.1-0.1,0.2-0.1,0.4C891.6,956.3,891.7,956.2,891.7,956.1z
	 M942.1,930.7c0.4,1,0.7,2,0.9,3C942.7,932.7,942.4,931.7,942.1,930.7z M895.8,950c0.2-0.2,0.4-0.5,0.7-0.7
	C896.2,949.6,896,949.8,895.8,950z M943.5,937.1c0,0.1,0,0.2,0,0.4C943.6,937.4,943.5,937.3,943.5,937.1z M943.4,935.4
	c0-0.2-0.1-0.4-0.1-0.5C943.3,935.1,943.3,935.3,943.4,935.4z M943.4,936c0,0.2,0,0.3,0.1,0.5C943.5,936.3,943.5,936.2,943.4,936z
	 M943.2,934.4c0-0.2-0.1-0.4-0.1-0.6C943.1,934,943.1,934.2,943.2,934.4z M891.2,958.2c0,0.1,0,0.2,0,0.3
	C891.2,958.4,891.2,958.3,891.2,958.2z M907.8,953.4c2.8,5.9,8.9-8.6,13.1-9.4s13.4-5.3,13.4-5.3s-0.1-9.1,7.8-8.1
	c-1.4-3.9-3.5-7.7-4.9-10.3c-2.5-4.5-11.2,2.5-11.2,2.5l0,0c0,0,0.1-0.1,0.2-0.2l-5.4,10.1c0,0-7.8,7.6-9,6.3
	c-0.6-0.6-0.2-3.5,0.4-6.2c-2.6,3.9-5.8,8-5.8,7.9s-5.5,3.8-9.8,8.4C900.7,949.3,906.2,949.9,907.8,953.4z M891.3,958.9
	c0,0.1,0,0.2,0,0.3C891.3,959.1,891.3,959,891.3,958.9z M891.5,959.8c0-0.1,0-0.1-0.1-0.2C891.4,959.7,891.5,959.8,891.5,959.8z
	 M938.7,946.3c0.8-0.4,1.5-0.8,2.1-1.3C940.2,945.4,939.5,945.9,938.7,946.3z M921.6,953.2c0.5-0.4,1-0.7,1.5-1.1
	C922.5,952.5,922,952.8,921.6,953.2z M915.2,959.2c-0.3,0.3-0.5,0.6-0.8,0.8C914.6,959.7,914.9,959.5,915.2,959.2z M942.6,942.5
	c0.1-0.2,0.2-0.4,0.3-0.7C942.8,942.1,942.7,942.3,942.6,942.5z M916.1,958.2c-0.3,0.3-0.6,0.7-0.9,1
	C915.5,958.9,915.8,958.5,916.1,958.2z M943.5,938.5c0,0.4-0.1,0.8-0.1,1.2C943.5,939.3,943.5,938.9,943.5,938.5L943.5,938.5
	L943.5,938.5z M941.4,944.3c-0.2,0.2-0.4,0.4-0.6,0.6C941,944.7,941.2,944.5,941.4,944.3z M918.2,956.1c-0.4,0.4-0.8,0.8-1.1,1.1
	C917.5,956.8,917.8,956.4,918.2,956.1z M911.2,961.9c-0.5,0.1-1.1,0.3-1.8,0.4C910.1,962.2,910.7,962,911.2,961.9z M899.2,963.6
	c-0.6,0-1.2-0.1-1.7-0.1C898.1,963.5,898.6,963.5,899.2,963.6z M895.2,962.9c0.5,0.2,1,0.3,1.5,0.4
	C896.2,963.2,895.7,963.1,895.2,962.9z M913,961.4c-0.1,0-0.8,0.2-1.8,0.5C912.2,961.6,912.9,961.4,913,961.4s0.5-0.4,1.1-1.1
	C913.5,961,913.1,961.4,913,961.4z M903.7,963.4c-1.2,0.1-2.4,0.2-3.6,0.2C901.3,963.6,902.5,963.5,903.7,963.4z M905.4,963.1
	c-0.6,0.1-1.2,0.2-1.8,0.2C904.3,963.3,904.9,963.2,905.4,963.1z M909.4,962.4c-1.1,0.3-2.5,0.5-3.9,0.8
	C906.9,962.9,908.2,962.6,909.4,962.4z M970.7,922.1c0,0.3,0,0.5,0,0.8C970.6,922.6,970.6,922.4,970.7,922.1z M970.8,921
	c0.2-1.4,0.6-3,1.2-4.9c3-2.6,8.5-5.4,15.5,0c0,0,4.6-12.4,7.3-12.4s6.7-13,6.8-14.9c0.1-1.5-2-10.4,2.2-14.3
	c0.3,0.1,0.5,0.3,0.7,0.4c-4.1-2.2-12.5-8.6-12.5-8.6s-6.5-1.2-5.1,6.7c0,0,1.6,21.6,0,22.5c-1.4,0.7-4.3,4.6-6.8-3.3l0,0
	C977.9,900.2,971.8,914.4,970.8,921z M970.8,921.2c0,0.3-0.1,0.6-0.1,0.8C970.7,921.8,970.7,921.5,970.8,921.2z M970.7,923
	c0,0.2,0,0.3,0.1,0.5C970.7,923.3,970.7,923.2,970.7,923z M970.8,923.6c0,0.2,0.1,0.3,0.2,0.5C970.9,924,970.8,923.8,970.8,923.6z
	 M1643.7,1032.7c0.1,0.1,0.2,0.2,0.2,0.2c-1.2-4.9,4.6-4.3,6.3-5.1c1.7-0.8,4.5,6.5,4.5,9.1c0,1,1.4,3.5,3.1,6
	c0.6,2.7,1,5.6,0.4,6.2c-1.2,1.3-9-6.3-9-6.3L1643.7,1032.7z M1588.4,999.7c-0.5-8.3,3.4-4.4,3.4-12.8s-10-3.7-10-3.7
	s-1.7,23.1,0,23.9c1.5,0.8,4.6,4.9,7.2-3.5C1588.7,1002.1,1588.5,1000.7,1588.4,999.7z M1679.6,775.9c-4.9-5.4-6.2-17.5-6.2-17.5
	c0.8-29.2-2.6-40.8-5-45.4l0,0c-0.2-1.9-0.5-3.3-1-3.9c-1.2-1.5-2-2.4-2.7-2.8c-2.3,4.2-5.8,6.6-11.2,6.3l0,0l0,0l2,5.7l-3.3-1.4
	c0.3,4.3,0.1,8.8-2.3,10.7c-3.2,2.6-9.8,0.6-14.9-4.1l-1.4,1.8l-2.9-7.2c-0.9-1.5-1.5-3.1-2-4.8l0,0c0,0-6.3,8.8-17.1,13
	c-10.8,4.1-13.9,15.7-13.9,15.7l-18.6,56.6l1.6,50.5c0,0,7.4,5.9,17.3,0l3.5-31.4l-0.1-20.1c0,0,4-16.9,11.3-27.5
	c0,0,6.2,11.3,6.8,27.7s-2.7,26.8-2.7,26.8s34.2,21.8,60.8-5.7c0,0-1.7-6.7-3.8-15.7l16,18.1c10.9-5.2,12.2-12.2,12.2-12.2
	S1684.4,781.3,1679.6,775.9z M1419.4,1104.5c0.3,3.1-2.4,5.7-5.5,5.5c-8.9-0.8-26.5-3.2-44.1-9.8l0,0c0.7-0.6,1.4-1.2,2-1.7
	c0,0,0,0,0.1-0.1c0.6-0.6,1.3-1.1,1.9-1.7l0.1-0.1c0.6-0.6,1.2-1.2,1.7-1.7l0.1-0.1c0.6-0.6,1.1-1.2,1.6-1.8
	c0.2-0.3,0.5-0.5,0.7-0.8c0.1-0.1,0.2-0.2,0.3-0.3c0.2-0.2,0.3-0.4,0.5-0.6c0.1-0.1,0.2-0.2,0.3-0.3c0.2-0.2,0.3-0.3,0.5-0.5
	c0.1-0.1,0.3-0.3,0.4-0.4c0.2-0.2,0.4-0.3,0.6-0.5c0.3-0.3,0.7-0.6,1-0.9c0.1-0.1,0.2-0.2,0.3-0.3c0.2-0.2,0.5-0.4,0.8-0.7
	c0.1-0.1,0.2-0.1,0.2-0.2c11-9.6,30.3-22.4,30.3-22.4l2.8-2.2l0,0L1419.4,1104.5z M1438.8,1011.2c-1.4,1.8-3.6,4-6.5,6
	c-0.4,0.3-0.9,0.6-1.3,0.8c-0.1,0-0.1,0.1-0.2,0.1c-0.4,0.2-0.8,0.5-1.2,0.7c-0.1,0.1-0.2,0.1-0.4,0.2c-0.4,0.2-0.8,0.4-1.2,0.6
	c-0.2,0.1-0.3,0.1-0.5,0.2c-0.4,0.2-0.8,0.3-1.2,0.5c-0.2,0.1-0.4,0.1-0.6,0.2c-0.4,0.1-0.8,0.3-1.2,0.4c-0.2,0.1-0.4,0.1-0.7,0.2
	c-0.4,0.1-0.8,0.2-1.2,0.3c-0.2,0.1-0.5,0.1-0.7,0.2c-0.5,0.1-0.9,0.2-1.4,0.3c-0.2,0-0.4,0.1-0.7,0.1c-0.7,0.1-1.4,0.2-2.2,0.2
	c-0.3,0-0.7,0.1-1,0.2c-0.6,0.2-1.2,0.5-1.7,0.9s-0.9,0.9-1.2,1.5c-0.5,0.9-0.7,1.8-0.6,2.9l0.3,4.1l0.5,6.1
	c-0.7,0.9-1.1,1.5-1.1,1.5l0.8-0.3l-45,42c0,0-2.4,0-5.5,0c-0.1,0-0.1,0-0.2,0c-0.3,0-0.7,0-1,0h-0.1c-0.3,0-0.6,0-1,0
	c-0.1,0-0.1,0-0.2,0c-0.3,0-0.7,0-1,0h-0.1c-0.3,0-0.6,0-0.9,0c-0.1,0-0.2,0-0.2,0c-0.3,0-0.7,0-1,0h-0.1c-0.3,0-0.6,0-0.9,0
	c-0.1,0-0.2,0-0.2,0c-0.3,0-0.6,0-0.9-0.1h-0.1c-0.3,0-0.5,0-0.7-0.1c-0.1,0-0.1,0-0.2,0c-0.3,0-0.5,0-0.7-0.1l0,0
	c-0.2,0-0.4-0.1-0.6-0.1c-0.1,0-0.1,0-0.2,0c-0.2,0-0.4-0.1-0.5-0.1l0,0c-0.1,0-0.3-0.1-0.4-0.1h-0.1c-0.1,0-0.2-0.1-0.2-0.1
	c-1.1-1.1-1.9,4.5,3.2,6.1l3.5,1.1c0,0,0,0-0.1,0.1c0,0,0,0-0.1,0c0,0,0,0-0.1,0.1c0,0-0.1,0-0.1,0.1l-0.1,0.1c0,0-0.1,0-0.1,0.1
	c0,0-0.1,0.1-0.2,0.1l-0.1,0.1c-0.1,0-0.1,0.1-0.2,0.1l-0.1,0.1c-0.3,0.2-0.6,0.4-0.9,0.7c0,0-0.1,0-0.1,0.1
	c-0.1,0.1-0.2,0.1-0.3,0.2c-0.1,0-0.1,0.1-0.2,0.1c-0.1,0.1-0.2,0.2-0.3,0.2c-0.1,0-0.1,0.1-0.2,0.2s-0.2,0.2-0.3,0.2
	c-0.1,0.1-0.2,0.1-0.2,0.2c-0.1,0.1-0.2,0.2-0.4,0.3c-0.1,0.1-0.2,0.1-0.2,0.2c-0.1,0.1-0.3,0.2-0.4,0.3c-0.1,0.1-0.2,0.1-0.2,0.2
	c-0.3,0.2-0.7,0.5-1.1,0.7c-4.4-2.6-8.5-5.6-12.3-9c-1.3-1.2-1.9-2.9-1.6-4.7l9.6-53.2c0.5-2.6-1.1-5.1-3.7-5.8
	c-7.5-2-21.8-6.8-23.6-16c-0.2-1.1-0.1-2.1,0.4-3.1c2.9-6.2,15.7-33.5,19.5-39c2.7-3.9,11.6-4.8,17.9-4.9c3.2-0.1,5.6,2.8,5.1,5.9
	c-0.8,5-0.4,11.6,7.2,12c9.6,0.5,16.4-7.6,18.9-11.3c0.8-1.2,2-1.9,3.4-2.2c7.5-1.1,31-3.7,35.3,7.5c4.6,12,5.2,29.5,10.5,37.4
	C1440.3,1007.1,1440.2,1009.5,1438.8,1011.2z M1312,1238.2c-0.4,0-0.4,2.7-4.1,4.9v-0.1c-2.4,1.5-6.4,2.8-13.3,3.1
	c-0.1,0-0.4,0.6-0.8,1.6c-0.1,0.3-0.2,0.6-0.3,0.9c-3,6.8-10.9,26.2-19.7,36.1c-10.8,12.2,12.1,7.5,13.2,6.8
	c1.1-0.6,25.7-15.9,27.4-15.9s8.6-3.1,9-6.1C1323.7,1266.5,1320.9,1246.6,1312,1238.2z M1361.2,1282.6c-1.7-2.7-4.4-19.2-7-15.5
	s-12.7,3.2-13.6,3.1c0,0-3.2,4.5-7,9.8c-1,1.3-1.9,2.6-2.9,3.9c-0.5,1.2-2,2.1-2.4,3.3c0.1,0,0.1,0,0.2,0c-2,2.7-3.8,5.3-5.1,7.1
	c-5.1,7-12.9,11.9-11.4,19.5s25.4,0.4,27.7-1.8c2.2-2.2,21.4-12.2,23.6-14.4C1365.5,1295.3,1362.9,1285.3,1361.2,1282.6z"></path>
<path id="color_x5F_1" fill="#0984E3" d="M895.7,711.3c0,0,18.5,20.8,55.5,0.9c0,0,15.4,18.7,9.5,43.7s-1.7,34-1.7,34
	s-7.2,4.2-26.8-10.6c-19.5-14.9-20.8,6.8-33.1,1.7s-18.7-11.9-18.7-11.9L895.7,711.3z M933.4,564c5.3,12.1-4.7,38.8-4.7,38.8
	c31.8,2.2,32-9,32-9c1.8-29.2-5.1-40.2-5.1-40.2s-13.8-16.6-27.1-17s-17,3.2-24.2,10.1c-7.2,6.8-5.7,31-5.8,36.2s-3.2,13.8-3.2,13.8
	c11.1,6,17.1,2.4,17.1,2.4c-12-0.6-9.6-30.3-9.6-30.3c5.8-4.5,6.7-14.9,6.7-14.9C918.2,569,933.4,564,933.4,564z M1663.4,660.7
	c0,0-7-10.2-20.3-7.6c-13.3,2.5-20.1,5.7-20.1,5.7s-4.6,1.1-6.4-0.5s1.6,6.3,3.8,6.1c0,0-3.2,14.4,2.7,18.2c0,0,4.9,1.4,5.5,0
	s-0.8,5.8,3.7,10.7c0,0,0.2-11,1.9-13.4c0,0,11,4.5,15.5,0.2c4.5-4.2,8.9-9.7,8.9-9.7s8.6,10.6,9.4,16
	C1668.2,686.4,1671.6,669.6,1663.4,660.7z M1677.3,817.5c0,0,4.3,10.7,0,38.9s-14.8,56.1-15.3,59.9c-0.5,3.8-10,14.8-10,14.8
	l1.3,97.9c-10.7,4.9-19.8-3-19.8-3c0.8-1.3-9.6-45-12.1-53.6c-0.6-2-1-5.5-1.1-9.6l-29.4,26.9c-9.9,0.3-12-13.4-12-13.4
	s11.4-7.5,17.1-23.8c5.8-16.6,19.7-22.7,27.2-28.1l0,0c0.4-1.9,0.9-3.5,1.3-4.8c4.1-11.5-7.2-32.6-10.9-62.2
	c-2.5-19.5,1-29.3,3.3-33.5c-0.1,0.5-0.2,0.8-0.2,0.8s34.2,21.8,60.8-5.7c0,0-0.1-0.4-0.3-1.2
	C1677.3,817.6,1677.3,817.5,1677.3,817.5z M1349.7,891.4c0,0,8.1-11.7,23.3-8.8c15.3,2.9,23.1,6.6,23.1,6.6s5.2,1.2,7.3-0.6
	c2.1-1.8-1.8,7.2-4.4,7c0,0,3.7,16.6-3.1,20.9c0,0-5.6,1.6-6.3,0c-0.7-1.6,1,6.7-4.3,12.3c0,0-0.2-12.7-2.2-15.4
	c0,0-12.7,5.1-17.8,0.2c-5.1-4.9-10.3-11.1-10.3-11.1s-9.9,12.2-10.9,18.4C1344.2,920.9,1340.3,901.7,1349.7,891.4z"></path>
</svg>