<?xml version="1.0" standalone="no"?>
<svg version="1.1" id="Layer_1" xmlns="http://www.w3.org/2000/svg" xmlns:xlink="http://www.w3.org/1999/xlink" x="0px" y="0px" width="595.28px" height="595.28px" viewBox="0 0 595.28 595.28" enable-background="new 0 0 595.28 595.28" xml:space="preserve">
<path id="color_x5F_6" fill="#08787D" d="M249.643,256.892v121.493h95.995v-97.494v-23.999h-30.108H249.643z M334.307,357.973
	h-73.333c-0.368,0-0.667-0.298-0.667-0.667c0-0.368,0.299-0.667,0.667-0.667h73.333c0.368,0,0.667,0.298,0.667,0.667
	C334.974,357.674,334.675,357.973,334.307,357.973z M334.307,346.639h-73.333c-0.368,0-0.667-0.298-0.667-0.667
	c0-0.368,0.299-0.667,0.667-0.667h73.333c0.368,0,0.667,0.298,0.667,0.667C334.974,346.341,334.675,346.639,334.307,346.639z
	 M334.307,335.306h-73.333c-0.368,0-0.667-0.298-0.667-0.667c0-0.368,0.299-0.667,0.667-0.667h73.333
	c0.368,0,0.667,0.298,0.667,0.667C334.974,335.007,334.675,335.306,334.307,335.306z M334.307,323.972h-73.333
	c-0.368,0-0.667-0.298-0.667-0.667c0-0.368,0.299-0.667,0.667-0.667h73.333c0.368,0,0.667,0.298,0.667,0.667
	C334.974,323.674,334.675,323.972,334.307,323.972z M334.307,312.639h-73.333c-0.368,0-0.667-0.298-0.667-0.667
	c0-0.368,0.299-0.667,0.667-0.667h73.333c0.368,0,0.667,0.298,0.667,0.667C334.974,312.34,334.675,312.639,334.307,312.639z
	 M334.307,301.305h-73.333c-0.368,0-0.667-0.298-0.667-0.667c0-0.368,0.299-0.667,0.667-0.667h73.333
	c0.368,0,0.667,0.298,0.667,0.667C334.974,301.007,334.675,301.305,334.307,301.305z M334.307,289.972h-73.333
	c-0.368,0-0.667-0.298-0.667-0.667c0-0.368,0.299-0.667,0.667-0.667h73.333c0.368,0,0.667,0.298,0.667,0.667
	C334.974,289.673,334.675,289.972,334.307,289.972z M334.974,277.971c0,0.369-0.299,0.667-0.667,0.667h-73.333
	c-0.368,0-0.667-0.298-0.667-0.667c0-0.368,0.299-0.667,0.667-0.667h73.333C334.675,277.305,334.974,277.603,334.974,277.971z"></path>
<path id="color_x5F_5" fill="#FFD2BB" d="M494.814,347.487c4.313,6.195-1.4,14.323-4.482,13.356
	c-5.188-1.633-16.711-11.921-23.616-21.147c-0.402-0.538-0.79-1.072-1.159-1.601c-1.494-2.142-2.699-4.194-3.463-6.027
	c-1.47-0.519-3.12-1.102-3.125-1.101c-0.072,0.013-0.139,0.028-0.215,0.039c-0.509,0.074-1.097,0.056-1.734-0.031
	c-0.805-0.11-1.777-0.63-2.68-1.332c-1.184-0.921-2.243-2.166-2.611-3.297c-0.792-2.439,1.95-5.386,2.104-5.553
	c0.221-0.237,0.983-0.428,0.754-0.755c-1.004-1.429-5.314-3.569-4.334-5.083c0.715-1.105,3.537,1.744,5.897,3.538
	c0.211-0.103,0.417-0.146,0.614-0.11c0.028,0.005,0.171,0.004,0.355,0c0.463-0.009,1.218-0.032,1.295-0.006
	c0.557,0.183,5.124,0.964,5.086,5.544c0.041,0.046,0.078,0.091,0.118,0.138c0.069-0.027,0.128-0.05,0.17-0.067
	c0.037-0.016,0.815,1.601,1.679,3.378c4.504,1.912,10.939,6.706,10.939,6.706S492.361,343.963,494.814,347.487z M453.2,337.137
	c-5.49-4.296-14.794-10.063-14.794-10.063s-6.136-4.567-10.618-6.561c-0.106-0.047-0.217-0.101-0.321-0.145
	c-0.863-1.777-1.642-3.394-1.679-3.378c-0.042,0.018-0.101,0.04-0.17,0.067c-0.04-0.047-0.077-0.092-0.118-0.138
	c0.038-4.58-4.529-5.361-5.086-5.544c-0.108-0.036-1.551,0.024-1.65,0.006c-0.197-0.035-0.403,0.008-0.614,0.11
	c-2.36-1.793-5.183-4.643-5.897-3.538c-0.98,1.514,3.33,3.654,4.334,5.083c0.229,0.327-0.533,0.519-0.754,0.755
	c-0.153,0.167-2.896,3.114-2.104,5.553c0.648,1.993,3.429,4.374,5.291,4.629c0.638,0.087,1.226,0.105,1.734,0.031
	c0.076-0.011,0.143-0.026,0.215-0.039c0.005-0.001,1.655,0.582,3.125,1.101c1.714,4.115,5.639,9.333,10.134,14.206
	c6.477,7.02,14.142,13.322,18.104,14.569c1.56,0.489,3.791-1.352,5.059-4.091c1.236-2.674,1.554-6.205-0.576-9.265
	C456.235,339.654,454.897,338.465,453.2,337.137z M497.394,303.305l-0.129,0.236l-16.45,30.215l9.344-17.164h-13.546l-3.249-13.271
	l-0.004-0.017h8.206v-7.364h-2.739c-6.52,0-7.278-5.28-7.278-11.802v-5.52c0.569-1.511,1.563-3.269,3.306-4.597
	c3.77-2.874,11.211-4.751,11.211-4.751l0.033-0.015c-0.718,2.025-1.37,5.03,0.205,6.75c2.531,2.764,2.589,4.657,2.589,5.791
	c0,0.945,0.212,2.227,0.282,2.632c0.015,0.081,0.025,0.14,0.025,0.14s0.014-0.058,0.035-0.14c0.207-0.831,1.424-5.434,2.662-4.719
	c0.147,0.085,0.283,0.204,0.411,0.345c1.814,2.014,1.632,9.292,1.632,9.292c-0.137,0.277-0.286,0.546-0.443,0.811v10.32v2.828
	H497.394z M475.596,280.672c0.066-0.665-0.217-1.238-0.622-1.282c-0.411-0.044-0.791,0.459-0.854,1.121
	c-0.064,0.666,0.218,1.239,0.621,1.283C475.15,281.838,475.528,281.333,475.596,280.672z M484.088,280.672
	c0.066-0.665-0.217-1.238-0.621-1.282c-0.411-0.044-0.791,0.459-0.854,1.121c-0.065,0.666,0.217,1.239,0.62,1.283
	C483.645,281.838,484.021,281.333,484.088,280.672z M133.605,269.229c0.153,0.782,0.238,1.588,0.238,2.414v7.526
	c0,6.272-0.679,11.447-5.961,12.357v8.255h-17.313v-14.23c-0.167-0.281-0.326-0.567-0.471-0.861c0,0-0.224-8.843,2.166-10.22
	c1.314-0.758,2.603,4.125,2.823,5.005c0.022,0.086,0.037,0.147,0.037,0.147s0.011-0.062,0.026-0.147
	c0.075-0.429,0.3-1.789,0.3-2.791c0-1.202,0.063-3.21,2.747-6.141c0.353-0.385,0.595-0.832,0.758-1.315H133.605z M122.11,275.32
	c-0.068-0.702-0.471-1.235-0.905-1.188c-0.431,0.046-0.729,0.654-0.659,1.359c0.069,0.702,0.471,1.237,0.905,1.19
	C121.88,276.635,122.178,276.026,122.11,275.32z M131.116,275.32c-0.068-0.702-0.471-1.235-0.905-1.188
	c-0.431,0.046-0.729,0.654-0.659,1.359c0.07,0.702,0.471,1.237,0.905,1.19C130.887,276.635,131.184,276.026,131.116,275.32z
	 M195.396,323.783c-3.824,0-6.922,3.099-6.922,6.921c0,0.137,0.013,0.27,0.021,0.404c0.154,2.665,1.808,4.924,4.137,5.94
	c0.847,0.369,1.781,0.577,2.764,0.577c3.822,0,6.921-3.099,6.921-6.922C202.316,326.882,199.218,323.783,195.396,323.783z
	 M96.812,370.401c-1.09-0.72-2.4-1.14-3.81-1.14c-0.92,0-1.801,0.18-2.601,0.51c-0.002,0.001-0.003,0.002-0.005,0.002
	c-2.287,0.932-3.964,3.04-4.254,5.578c0,0.002,0,0.004,0,0.005c-0.04,0.269-0.059,0.546-0.059,0.825c0,3.82,3.1,6.92,6.92,6.92
	c3.819,0,6.92-3.1,6.92-6.92c0-0.53-0.061-1.04-0.181-1.53C99.352,372.881,98.271,371.372,96.812,370.401z"></path>
<path id="color_x5F_4" fill="#00CEC9" d="M183.439,295.999c0,1.473-1.194,2.667-2.667,2.667c-1.473,0-2.667-1.194-2.667-2.667
	c0-1.473,1.194-2.667,2.667-2.667C182.246,293.332,183.439,294.526,183.439,295.999z M208.772,293.332
	c-1.473,0-2.667,1.194-2.667,2.667c0,1.473,1.194,2.667,2.667,2.667c1.473,0,2.667-1.194,2.667-2.667
	C211.439,294.526,210.246,293.332,208.772,293.332z M236.772,293.332c-1.473,0-2.667,1.194-2.667,2.667
	c0,1.473,1.194,2.667,2.667,2.667c1.473,0,2.667-1.194,2.667-2.667C239.439,294.526,238.246,293.332,236.772,293.332z
	 M359.105,293.332c-1.473,0-2.666,1.194-2.666,2.667c0,1.473,1.193,2.667,2.666,2.667s2.667-1.194,2.667-2.667
	C361.772,294.526,360.578,293.332,359.105,293.332z M387.105,293.332c-1.473,0-2.666,1.194-2.666,2.667
	c0,1.473,1.193,2.667,2.666,2.667s2.667-1.194,2.667-2.667C389.772,294.526,388.578,293.332,387.105,293.332z M415.105,293.332
	c-1.473,0-2.666,1.194-2.666,2.667c0,1.473,1.193,2.667,2.666,2.667s2.667-1.194,2.667-2.667
	C417.772,294.526,416.578,293.332,415.105,293.332z M137.838,218.361c-5.135-2.573-10.598-4.368-16.236-5.333
	c-3.265-0.563-6.615-0.849-9.96-0.849c-9.482,0-18.9,2.321-27.235,6.713c-0.978,0.515-1.352,1.725-0.837,2.702
	c0.358,0.68,1.053,1.068,1.771,1.068c0.314,0,0.634-0.074,0.931-0.231c7.763-4.09,16.536-6.252,25.371-6.252
	c3.117,0,6.239,0.266,9.283,0.791c5.251,0.899,10.339,2.57,15.121,4.967c0.985,0.494,2.188,0.096,2.684-0.892
	C139.225,220.058,138.825,218.856,137.838,218.361z M130.05,227.138c-10.848-3.589-22.973-3.87-34.138-0.791
	c-1.064,0.294-1.689,1.395-1.396,2.46c0.294,1.064,1.395,1.689,2.46,1.396c10.411-2.872,21.711-2.611,31.818,0.732
	c0.208,0.069,0.42,0.102,0.628,0.102c0.839,0,1.621-0.532,1.898-1.373C131.667,228.616,131.099,227.485,130.05,227.138z
	 M119.052,234.668c-3.667-0.456-7.405-0.568-11.111-0.334c-1.103,0.07-1.939,1.02-1.87,2.123c0.07,1.102,1.024,1.931,2.123,1.87
	c3.456-0.219,6.944-0.115,10.364,0.312c0.084,0.01,0.167,0.015,0.249,0.015c0.995,0,1.856-0.741,1.982-1.753
	C120.926,235.804,120.147,234.805,119.052,234.668z M510.838,218.361c-5.135-2.573-10.598-4.368-16.236-5.333
	c-3.265-0.563-6.615-0.849-9.96-0.849c-9.483,0-18.901,2.321-27.235,6.713c-0.978,0.515-1.352,1.725-0.838,2.702
	c0.359,0.68,1.053,1.068,1.771,1.068c0.314,0,0.633-0.074,0.931-0.231c7.763-4.09,16.536-6.252,25.371-6.252
	c3.117,0,6.239,0.266,9.282,0.791c5.252,0.899,10.34,2.57,15.121,4.967c0.986,0.494,2.189,0.096,2.685-0.892
	C512.225,220.058,511.825,218.856,510.838,218.361z M503.049,227.138c-10.847-3.589-22.973-3.87-34.137-0.791
	c-1.064,0.294-1.689,1.395-1.396,2.46c0.294,1.064,1.395,1.689,2.46,1.396c10.411-2.872,21.71-2.611,31.817,0.732
	c0.209,0.069,0.42,0.102,0.629,0.102c0.839,0,1.621-0.532,1.898-1.373C504.667,228.616,504.098,227.485,503.049,227.138z
	 M492.051,234.668c-3.666-0.456-7.404-0.568-11.111-0.334c-1.102,0.07-1.939,1.02-1.869,2.123c0.07,1.102,1.023,1.931,2.123,1.87
	c3.456-0.219,6.944-0.115,10.363,0.312c0.084,0.01,0.168,0.015,0.25,0.015c0.994,0,1.856-0.741,1.982-1.753
	C493.926,235.804,493.147,234.805,492.051,234.668z"></path>
<path id="color_x5F_3" fill="#E84393" d="M500,298.853c-3.586,2.228-5.553,2.041-6.504,1.625v-10.32
	c0.157-0.265,0.307-0.534,0.443-0.811c0,0,0.183-7.278-1.632-9.292c-0.128-0.142-0.264-0.26-0.411-0.345
	c-1.238-0.714-2.455,3.888-2.662,4.719c-0.021,0.082-0.035,0.14-0.035,0.14s-0.011-0.059-0.025-0.14
	c-0.07-0.405-0.282-1.687-0.282-2.632c0-1.134-0.058-3.026-2.589-5.791c-1.575-1.72-0.923-4.725-0.205-6.75l-0.033,0.015
	c0,0-7.441,1.878-11.211,4.751c-1.743,1.328-2.736,3.086-3.306,4.597c-0.663,1.757-0.751,3.177-0.751,3.177
	s-5.693-9.29,2.563-15.759c2.725-2.135,12.048-0.982,16.699-0.241c2.85-0.133,5.445,0.549,7.353,4.73c0,0,1.708,5.843-0.114,12.839
	c2.296,1.215,7.578,2.416,8.442,6.837C506.082,291.958,506.02,295.113,500,298.853z M480.814,333.757l9.344-17.164h-13.546
	L480.814,333.757z M123.468,254.414c-0.781,0.604-1.522,1.195-2.21,1.755c-2.63,2.14-4.452,3.804-4.452,3.804
	c-4.017-0.516-7.801-0.914-10.389,4.761c0,0-1.992,6.771,0.397,14.635c1.14,3.751,2.463,3.657,3.284,5.322
	c0,0-0.224-8.843,2.166-10.22c1.314-0.758,2.603,4.125,2.823,5.005c0.022,0.086,0.037,0.147,0.037,0.147s0.011-0.062,0.026-0.147
	c0.075-0.429,0.3-1.789,0.3-2.791c0-1.202,0.063-3.21,2.747-6.141c0.353-0.385,0.595-0.832,0.758-1.315h14.649h0.002
	c0,0,2.812-3.799,3.331-7.913c0.092-0.726,0.121-1.46,0.041-2.186C136.448,254.287,130.334,249.104,123.468,254.414z"></path>
<path id="color_x5F_2" fill="#FBC02D" d="M482.613,280.511c0.063-0.662,0.442-1.165,0.854-1.121
	c0.404,0.044,0.688,0.618,0.621,1.282c-0.066,0.662-0.443,1.166-0.854,1.122C482.83,281.75,482.548,281.177,482.613,280.511z
	 M474.74,281.794c0.41,0.044,0.788-0.46,0.855-1.122c0.066-0.665-0.217-1.238-0.622-1.282c-0.411-0.044-0.791,0.459-0.854,1.121
	C474.055,281.177,474.337,281.75,474.74,281.794z M458.969,330.967c-0.072,0.013-0.139,0.028-0.215,0.039
	c-0.509,0.074-1.097,0.056-1.734-0.031c-0.805-0.11-1.777-0.63-2.68-1.332c0,0.003,0,0.006-0.001,0.009
	c-0.34,1.909-0.8,4.627-1.139,7.485c1.697,1.328,3.035,2.518,3.614,3.35c2.13,3.06,1.813,6.59,0.576,9.265h0.008
	c2.67-1.719,5.55-6.148,8.158-11.657c-1.494-2.142-2.699-4.194-3.463-6.027C460.624,331.549,458.974,330.966,458.969,330.967z
	 M508.659,308.271c-1.561-2.84-4.141-4.69-7.061-4.69l-4.334-0.04l-16.45,30.215l-4.202-17.164l-3.249-13.271h-0.004l-1.811-0.02
	l-0.02,0.18c-3.101-0.75-8.21,1.07-10.971,5.45c-1.06,1.7-2.359,5.66-3.439,9.45c0.463-0.009,1.218-0.032,1.295-0.006
	c0.557,0.183,5.124,0.964,5.086,5.544c0.041,0.046,0.078,0.091,0.118,0.138c0.069-0.027,0.128-0.05,0.17-0.067
	c0.037-0.016,0.815,1.601,1.679,3.378c4.504,1.912,10.939,6.706,10.939,6.706s15.955,9.89,18.408,13.414
	c4.313,6.195-1.4,14.323-4.482,13.356c-5.188-1.633-16.711-11.921-23.616-21.147c0.001,0.002,0.002,0.004,0.003,0.006
	c1.55,3.89,2.83,8.18,2.891,11.74c0.06,3.36-1.16,9.47-2.33,14.5c5.17,1.57,10.659,2.41,16.35,2.41c6.59,0,12.92-1.13,18.8-3.21
	c-2.109-6.12-4.42-13.76-4.28-17.56C498.289,343.742,512.839,313.592,508.659,308.271z M188.494,331.108
	c-3.543,0.213-7.125,0.888-7.125,0.888s-11.526,0.973-17.151,2.525c-0.088-0.424-0.178-0.844-0.27-1.254
	c-0.954-4.284-2.02-7.681-2.02-7.681s-8.472-17.685-12.171-21.59c-0.165-0.174-0.335-0.335-0.506-0.494
	c-0.007-0.01-0.013-0.021-0.021-0.031c-1.67-2.27-4.04-3.69-6.68-3.69h-14.67h-17.313H95.571c-2.91,0-5.51,1.74-7.18,4.45
	c-0.004,0.007-0.008,0.014-0.012,0.021c-6.893,4.528-11.791,16.018-13.944,21.944c-2.445,6.41-3.725,13.823-2.659,19.306
	c-0.007,0.019-0.019,0.035-0.023,0.055c-0.417,1.477-0.148,3.964,0.617,6.903c2.105,8.078,7.976,19.565,13.771,22.897
	c0-0.001,0-0.003,0-0.005c0.29-2.538,1.967-4.646,4.254-5.578c-0.186-2.934-0.767-5.768-0.767-5.768s-0.004-0.045-0.01-0.116
	c-0.109-1.287-1.212-13.744-3.133-16.496c2.196-2.568,4.052-5.364,5.035-6.923v0l4.54,25.68c4.94,1.44,10.17,2.2,15.59,2.2
	c6.58,0,12.92-1.13,18.79-3.21c4.63-1.63,8.98-3.85,12.97-6.58l3.14-17.777c2.68,3.156,5.495,5.797,8.256,7.531
	c2.662,1.671,5.272,2.503,7.661,2.146c0.515-0.077,0.942-0.293,1.307-0.602c8.479-1.366,22.715-6.986,28.855-12.81
	C190.302,336.033,188.648,333.773,188.494,331.108z M121.451,276.682c0.429-0.047,0.727-0.655,0.659-1.361
	c-0.068-0.702-0.471-1.235-0.905-1.188c-0.431,0.046-0.729,0.654-0.659,1.359C120.615,276.193,121.017,276.729,121.451,276.682z
	 M130.457,276.682c0.43-0.047,0.727-0.655,0.659-1.361c-0.068-0.702-0.471-1.235-0.905-1.188c-0.431,0.046-0.729,0.654-0.659,1.359
	C129.622,276.193,130.022,276.729,130.457,276.682z"></path>
<path id="color_x5F_1" fill="#0984E3" d="M469.609,351.441c0.06,3.36-1.16,9.47-2.33,14.5c-14.168-4.276-25.99-13.964-33.052-26.667
	c6.477,7.02,14.142,13.322,18.104,14.569c1.56,0.489,3.791-1.352,5.059-4.091h0.008c2.67-1.719,5.55-6.148,8.158-11.657
	c0.369,0.529,0.757,1.063,1.159,1.601c0.001,0.002,0.002,0.004,0.003,0.006C468.269,343.592,469.549,347.881,469.609,351.441z
	 M483.629,255.352c-31.2,0-56.5,25.3-56.5,56.5c0,2.947,0.23,5.844,0.659,8.661c4.482,1.994,10.618,6.561,10.618,6.561
	s9.304,5.768,14.794,10.063c0.339-2.858,0.799-5.576,1.139-7.485c0.001-0.003,0.001-0.005,0.001-0.009
	c-1.184-0.921-2.243-2.166-2.611-3.297c-0.792-2.439,1.95-5.386,2.104-5.553c0.221-0.237,0.983-0.428,0.754-0.755
	c-1.004-1.429-5.314-3.569-4.334-5.083c0.715-1.105,3.537,1.744,5.897,3.538c0.211-0.103,0.417-0.146,0.614-0.11
	c0.028,0.005,0.171,0.004,0.355,0l0,0c1.08-3.79,2.38-7.75,3.439-9.45c2.761-4.38,7.87-6.2,10.971-5.45l0.02-0.18l1.811,0.02h0.004
	l-0.004-0.017h8.206v-7.364h-2.739c-6.52,0-7.278-5.28-7.278-11.802v-5.52c-0.663,1.757-0.751,3.177-0.751,3.177
	s-5.693-9.29,2.563-15.759c2.725-2.135,12.048-0.982,16.699-0.241c2.85-0.133,5.445,0.549,7.353,4.73c0,0,1.708,5.843-0.114,12.839
	c2.296,1.215,7.578,2.416,8.442,6.837c0.343,1.755,0.28,4.91-5.739,8.649c-3.586,2.228-5.553,2.041-6.504,1.625v2.828h3.897
	l-0.129,0.236l4.334,0.04c2.92,0,5.5,1.85,7.061,4.69c4.18,5.32-10.37,35.47-10.511,39.31c-0.14,3.8,2.171,11.44,4.28,17.56
	c21.96-7.75,37.7-28.68,37.7-53.29C540.129,280.651,514.829,255.352,483.629,255.352z M133.605,269.229
	c0.153,0.782,0.238,1.588,0.238,2.414v7.526c0,6.272-0.679,11.447-5.961,12.357v8.255h14.67c2.64,0,5.01,1.42,6.68,3.69
	c0.007,0.01,0.014,0.021,0.021,0.031c0.171,0.159,0.341,0.32,0.506,0.494c3.699,3.905,12.171,21.59,12.171,21.59
	s1.066,3.397,2.02,7.681c0.001-0.001,0.001-0.003,0.002-0.005c2.71-6.6,4.2-13.83,4.2-21.41c0-22.1-12.7-41.25-31.2-50.53
	c-0.004-0.002-0.008-0.004-0.013-0.006c-0.52,4.114-3.331,7.913-3.331,7.913H133.605z M71.753,345.557
	c0.005-0.02,0.017-0.036,0.023-0.055c-1.065-5.482,0.214-12.896,2.659-19.306c2.153-5.927,7.052-17.416,13.944-21.944
	c0.004-0.007,0.008-0.014,0.012-0.021c1.67-2.71,4.27-4.45,7.18-4.45h14.998v-14.23c-0.167-0.281-0.326-0.567-0.471-0.861
	c-0.821-1.665-2.145-1.571-3.284-5.322c-2.39-7.864-0.397-14.635-0.397-14.635c2.588-5.675,6.372-5.276,10.389-4.761
	c0,0,1.822-1.664,4.452-3.804c-3.126-0.538-6.331-0.817-9.606-0.817c-31.21,0-56.5,25.3-56.5,56.5c0,2.95,0.23,5.85,0.66,8.67
	c1.03,6.7,3.24,13.01,6.42,18.72c2.71,4.9,6.13,9.35,10.13,13.21c0.003,0.003,0.006,0.005,0.009,0.008
	C71.604,349.521,71.336,347.033,71.753,345.557z M146.551,340.785l-3.14,17.777c4.249-2.879,8.077-6.337,11.396-10.246
	C152.046,346.582,149.231,343.941,146.551,340.785z M91.521,340.471c-0.983,1.56-2.839,4.355-5.035,6.923
	c1.92,2.752,3.023,15.209,3.133,16.496c0.001,0,0.002,0.001,0.003,0.001c1.84,0.78,3.739,1.46,5.68,2.05
	c0.25,0.08,0.5,0.15,0.76,0.21L91.521,340.471L91.521,340.471z M260.307,277.971c0,0.369,0.299,0.667,0.667,0.667h73.333
	c0.368,0,0.667-0.298,0.667-0.667c0-0.368-0.299-0.667-0.667-0.667h-73.333C260.605,277.305,260.307,277.603,260.307,277.971z
	 M334.307,288.638h-73.333c-0.368,0-0.667,0.298-0.667,0.667c0,0.369,0.299,0.667,0.667,0.667h73.333
	c0.368,0,0.667-0.298,0.667-0.667C334.974,288.937,334.675,288.638,334.307,288.638z M334.307,299.972h-73.333
	c-0.368,0-0.667,0.298-0.667,0.667c0,0.369,0.299,0.667,0.667,0.667h73.333c0.368,0,0.667-0.298,0.667-0.667
	C334.974,300.27,334.675,299.972,334.307,299.972z M334.307,311.305h-73.333c-0.368,0-0.667,0.298-0.667,0.667
	c0,0.369,0.299,0.667,0.667,0.667h73.333c0.368,0,0.667-0.298,0.667-0.667C334.974,311.604,334.675,311.305,334.307,311.305z
	 M334.307,322.639h-73.333c-0.368,0-0.667,0.298-0.667,0.667c0,0.369,0.299,0.667,0.667,0.667h73.333
	c0.368,0,0.667-0.298,0.667-0.667C334.974,322.937,334.675,322.639,334.307,322.639z M334.307,333.972h-73.333
	c-0.368,0-0.667,0.298-0.667,0.667c0,0.369,0.299,0.667,0.667,0.667h73.333c0.368,0,0.667-0.298,0.667-0.667
	C334.974,334.271,334.675,333.972,334.307,333.972z M334.307,345.306h-73.333c-0.368,0-0.667,0.298-0.667,0.667
	c0,0.369,0.299,0.667,0.667,0.667h73.333c0.368,0,0.667-0.298,0.667-0.667C334.974,345.604,334.675,345.306,334.307,345.306z
	 M334.307,356.639h-73.333c-0.368,0-0.667,0.298-0.667,0.667c0,0.369,0.299,0.667,0.667,0.667h73.333
	c0.368,0,0.667-0.298,0.667-0.667C334.974,356.938,334.675,356.639,334.307,356.639z M208.284,340.602
	c-0.477,0-0.863,0.387-0.863,0.863v7.693c0,0.476,0.387,0.861,0.863,0.861s0.863-0.385,0.863-0.861v-7.693
	C209.147,340.988,208.761,340.602,208.284,340.602z M208.284,363.669c-0.477,0-0.863,0.385-0.863,0.863v7.69
	c0,0.477,0.387,0.863,0.863,0.863s0.863-0.386,0.863-0.863v-7.69C209.147,364.054,208.761,363.669,208.284,363.669z M201.46,356.843
	c0-0.476-0.387-0.862-0.863-0.862h-7.691c-0.477,0-0.863,0.386-0.863,0.862c0,0.477,0.387,0.864,0.863,0.864h7.691
	C201.073,357.707,201.46,357.32,201.46,356.843z M223.663,355.981h-7.691c-0.477,0-0.863,0.386-0.863,0.862
	c0,0.477,0.387,0.864,0.863,0.864h7.691c0.477,0,0.863-0.387,0.863-0.864C224.526,356.367,224.14,355.981,223.663,355.981z
	 M198.021,345.359c-0.338-0.338-0.885-0.338-1.221,0c-0.338,0.337-0.338,0.883,0,1.22l5.438,5.439c0.337,0.336,0.884,0.336,1.222,0
	c0.336-0.337,0.336-0.883-0.001-1.22L198.021,345.359z M214.33,361.669c-0.337-0.337-0.884-0.337-1.22,0
	c-0.338,0.337-0.338,0.883,0,1.22l5.438,5.439c0.337,0.336,0.884,0.336,1.22,0c0.338-0.337,0.338-0.883,0-1.222L214.33,361.669z
	 M202.238,361.669l-5.438,5.438c-0.338,0.339-0.338,0.884,0,1.222c0.336,0.336,0.883,0.336,1.221,0l5.438-5.439
	c0.337-0.337,0.337-0.883,0-1.22S202.575,361.333,202.238,361.669z M214.33,352.018l5.438-5.439c0.338-0.337,0.338-0.883,0-1.22
	c-0.336-0.338-0.883-0.338-1.22,0l-5.438,5.439c-0.338,0.337-0.338,0.883,0,1.22C213.446,352.354,213.993,352.354,214.33,352.018z
	 M208.284,258.309c0.477,0,0.863-0.385,0.863-0.86v-7.693c0-0.476-0.387-0.862-0.863-0.862s-0.863,0.387-0.863,0.862v7.693
	C207.421,257.924,207.808,258.309,208.284,258.309z M208.284,281.376c0.477,0,0.863-0.386,0.863-0.862v-7.69
	c0-0.479-0.387-0.863-0.863-0.863s-0.863,0.385-0.863,0.863v7.69C207.421,280.991,207.808,281.376,208.284,281.376z
	 M192.905,265.999h7.691c0.477,0,0.863-0.387,0.863-0.864c0-0.476-0.387-0.862-0.863-0.862h-7.691c-0.477,0-0.863,0.387-0.863,0.862
	C192.042,265.612,192.429,265.999,192.905,265.999z M223.663,264.272h-7.691c-0.477,0-0.863,0.387-0.863,0.862
	c0,0.478,0.387,0.864,0.863,0.864h7.691c0.477,0,0.863-0.387,0.863-0.864C224.526,264.659,224.14,264.272,223.663,264.272z
	 M198.021,253.65c-0.338-0.338-0.885-0.338-1.221,0c-0.338,0.338-0.338,0.884,0,1.221l5.438,5.438c0.337,0.337,0.884,0.337,1.222,0
	c0.336-0.337,0.336-0.883-0.001-1.22L198.021,253.65z M218.549,276.62c0.337,0.337,0.884,0.337,1.22,0
	c0.338-0.337,0.338-0.883,0-1.222l-5.438-5.438c-0.337-0.337-0.884-0.337-1.22,0c-0.338,0.337-0.338,0.883,0,1.22L218.549,276.62z
	 M196.8,276.62c0.336,0.337,0.883,0.337,1.221,0l5.438-5.439c0.337-0.337,0.337-0.883,0-1.22s-0.884-0.337-1.221,0l-5.438,5.438
	C196.462,275.737,196.462,276.283,196.8,276.62z M214.33,260.309l5.438-5.438c0.338-0.337,0.338-0.883,0-1.221
	c-0.336-0.338-0.883-0.338-1.22,0l-5.438,5.439c-0.338,0.337-0.338,0.883,0,1.22C213.446,260.646,213.993,260.646,214.33,260.309z
	 M393.284,248.893c-0.477,0-0.863,0.387-0.863,0.862v7.693c0,0.476,0.387,0.86,0.863,0.86s0.863-0.385,0.863-0.86v-7.693
	C394.147,249.28,393.761,248.893,393.284,248.893z M393.284,271.96c-0.477,0-0.863,0.385-0.863,0.863v7.69
	c0,0.477,0.387,0.862,0.863,0.862s0.863-0.386,0.863-0.862v-7.69C394.147,272.345,393.761,271.96,393.284,271.96z M377.905,265.999
	h7.691c0.477,0,0.863-0.387,0.863-0.864c0-0.476-0.387-0.862-0.863-0.862h-7.691c-0.477,0-0.863,0.387-0.863,0.862
	C377.042,265.612,377.429,265.999,377.905,265.999z M408.663,264.272h-7.691c-0.477,0-0.863,0.387-0.863,0.862
	c0,0.478,0.387,0.864,0.863,0.864h7.691c0.477,0,0.863-0.387,0.863-0.864C409.526,264.659,409.14,264.272,408.663,264.272z
	 M387.238,260.309c0.337,0.337,0.884,0.337,1.222,0c0.336-0.337,0.336-0.883-0.001-1.22l-5.438-5.439
	c-0.338-0.338-0.885-0.338-1.221,0c-0.338,0.338-0.338,0.884,0,1.221L387.238,260.309z M403.549,276.62
	c0.337,0.337,0.884,0.337,1.22,0c0.338-0.337,0.338-0.883,0-1.222l-5.438-5.438c-0.337-0.337-0.884-0.337-1.22,0
	c-0.338,0.337-0.338,0.883,0,1.22L403.549,276.62z M387.238,269.96l-5.438,5.438c-0.338,0.339-0.338,0.885,0,1.222
	c0.336,0.337,0.883,0.337,1.221,0l5.438-5.439c0.337-0.337,0.337-0.883,0-1.22S387.575,269.624,387.238,269.96z M399.33,260.309
	l5.438-5.438c0.338-0.337,0.338-0.883,0-1.221c-0.336-0.338-0.883-0.338-1.22,0l-5.438,5.439c-0.338,0.337-0.338,0.883,0,1.22
	C398.446,260.646,398.993,260.646,399.33,260.309z M393.284,335.711c-0.477,0-0.863,0.387-0.863,0.862v7.693
	c0,0.476,0.387,0.86,0.863,0.86s0.863-0.385,0.863-0.86v-7.693C394.147,336.098,393.761,335.711,393.284,335.711z M393.284,358.779
	c-0.477,0-0.863,0.385-0.863,0.863v7.69c0,0.477,0.387,0.862,0.863,0.862s0.863-0.386,0.863-0.862v-7.69
	C394.147,359.164,393.761,358.779,393.284,358.779z M386.46,351.953c0-0.476-0.387-0.862-0.863-0.862h-7.691
	c-0.477,0-0.863,0.387-0.863,0.862c0,0.478,0.387,0.864,0.863,0.864h7.691C386.073,352.817,386.46,352.43,386.46,351.953z
	 M408.663,351.09h-7.691c-0.477,0-0.863,0.387-0.863,0.862c0,0.478,0.387,0.864,0.863,0.864h7.691c0.477,0,0.863-0.387,0.863-0.864
	C409.526,351.477,409.14,351.09,408.663,351.09z M383.021,340.468c-0.338-0.338-0.885-0.338-1.221,0
	c-0.338,0.338-0.338,0.884,0,1.221l5.438,5.438c0.337,0.337,0.884,0.337,1.222,0c0.336-0.337,0.336-0.883-0.001-1.22
	L383.021,340.468z M399.33,356.779c-0.337-0.337-0.884-0.337-1.22,0c-0.338,0.337-0.338,0.883,0,1.22l5.438,5.439
	c0.337,0.337,0.884,0.337,1.22,0c0.338-0.337,0.338-0.883,0-1.222L399.33,356.779z M387.238,356.779l-5.438,5.438
	c-0.338,0.339-0.338,0.885,0,1.222c0.336,0.337,0.883,0.337,1.221,0l5.438-5.439c0.337-0.337,0.337-0.883,0-1.22
	S387.575,356.442,387.238,356.779z M399.33,347.127l5.438-5.438c0.338-0.337,0.338-0.883,0-1.221c-0.336-0.338-0.883-0.338-1.22,0
	l-5.438,5.439c-0.338,0.337-0.338,0.883,0,1.22C398.446,347.464,398.993,347.464,399.33,347.127z"></path>
</svg>