<svg width="4022" height="2681" viewBox="0 0 4022 2681" fill="none" xmlns="http://www.w3.org/2000/svg">
<g clip-path="url(#clip0_109_4)">
<rect width="4022" height="2681" transform="matrix(1 0 0 -1 0 2681)" fill="#2C2934"/>
<circle cx="10" cy="10" r="10" transform="matrix(1 0 0 -1 1397 286)" fill="white" fill-opacity="0.5"/>
<circle cx="10" cy="10" r="10" transform="matrix(1 0 0 -1 1449 286)" fill="white" fill-opacity="0.5"/>
<circle cx="10" cy="10" r="10" transform="matrix(1 0 0 -1 1501 286)" fill="white" fill-opacity="0.5"/>
<circle cx="10" cy="10" r="10" transform="matrix(1 0 0 -1 1553 286)" fill="white" fill-opacity="0.5"/>
<circle cx="10" cy="10" r="10" transform="matrix(1 0 0 -1 1605 286)" fill="white" fill-opacity="0.5"/>
<circle cx="10" cy="10" r="10" transform="matrix(1 0 0 -1 1709 286)" fill="white" fill-opacity="0.5"/>
<circle cx="10" cy="10" r="10" transform="matrix(1 0 0 -1 1657 286)" fill="white" fill-opacity="0.5"/>
<circle cx="10" cy="10" r="10" transform="matrix(1 0 0 -1 1761 286)" fill="white" fill-opacity="0.5"/>
<circle cx="10" cy="10" r="10" transform="matrix(1 0 0 -1 1813 286)" fill="white" fill-opacity="0.5"/>
<circle cx="10" cy="10" r="10" transform="matrix(1 0 0 -1 1865 286)" fill="white" fill-opacity="0.5"/>
<circle cx="10" cy="10" r="10" transform="matrix(1 0 0 -1 1917 286)" fill="white" fill-opacity="0.5"/>
<circle cx="10" cy="10" r="10" transform="matrix(1 0 0 -1 1969 286)" fill="white" fill-opacity="0.5"/>
<circle cx="10" cy="10" r="10" transform="matrix(1 0 0 -1 2021 286)" fill="white" fill-opacity="0.5"/>
<circle cx="10" cy="10" r="10" transform="matrix(1 0 0 -1 2073 286)" fill="white" fill-opacity="0.5"/>
<circle cx="10" cy="10" r="10" transform="matrix(1 0 0 -1 2125 286)" fill="white" fill-opacity="0.5"/>
<circle cx="10" cy="10" r="10" transform="matrix(1 0 0 -1 2177 286)" fill="white" fill-opacity="0.5"/>
<circle cx="10" cy="10" r="10" transform="matrix(1 0 0 -1 2229 286)" fill="white" fill-opacity="0.5"/>
<circle cx="10" cy="10" r="10" transform="matrix(1 0 0 -1 2281 286)" fill="white" fill-opacity="0.5"/>
<circle cx="10" cy="10" r="10" transform="matrix(1 0 0 -1 1397 208)" fill="white" fill-opacity="0.5"/>
<circle cx="10" cy="10" r="10" transform="matrix(1 0 0 -1 1449 208)" fill="white" fill-opacity="0.5"/>
<circle cx="10" cy="10" r="10" transform="matrix(1 0 0 -1 1501 208)" fill="white" fill-opacity="0.5"/>
<circle cx="10" cy="10" r="10" transform="matrix(1 0 0 -1 1553 208)" fill="white" fill-opacity="0.5"/>
<circle cx="10" cy="10" r="10" transform="matrix(1 0 0 -1 1605 208)" fill="white" fill-opacity="0.5"/>
<circle cx="10" cy="10" r="10" transform="matrix(1 0 0 -1 1657 208)" fill="white" fill-opacity="0.5"/>
<circle cx="10" cy="10" r="10" transform="matrix(1 0 0 -1 1709 208)" fill="white" fill-opacity="0.5"/>
<circle cx="10" cy="10" r="10" transform="matrix(1 0 0 -1 1761 208)" fill="white" fill-opacity="0.5"/>
<circle cx="10" cy="10" r="10" transform="matrix(1 0 0 -1 1813 208)" fill="white" fill-opacity="0.5"/>
<circle cx="10" cy="10" r="10" transform="matrix(1 0 0 -1 1865 208)" fill="white" fill-opacity="0.5"/>
<circle cx="10" cy="10" r="10" transform="matrix(1 0 0 -1 1917 208)" fill="white" fill-opacity="0.5"/>
<circle cx="10" cy="10" r="10" transform="matrix(1 0 0 -1 1969 208)" fill="white" fill-opacity="0.5"/>
<circle cx="10" cy="10" r="10" transform="matrix(1 0 0 -1 2021 208)" fill="white" fill-opacity="0.5"/>
<circle cx="10" cy="10" r="10" transform="matrix(1 0 0 -1 2073 208)" fill="white" fill-opacity="0.5"/>
<circle cx="10" cy="10" r="10" transform="matrix(1 0 0 -1 2125 208)" fill="white" fill-opacity="0.5"/>
<circle cx="10" cy="10" r="10" transform="matrix(1 0 0 -1 2177 208)" fill="white" fill-opacity="0.5"/>
<circle cx="10" cy="10" r="10" transform="matrix(1 0 0 -1 2229 208)" fill="white" fill-opacity="0.5"/>
<circle cx="10" cy="10" r="10" transform="matrix(1 0 0 -1 2281 208)" fill="white" fill-opacity="0.5"/>
<circle cx="10" cy="10" r="10" transform="matrix(1 0 0 -1 1397 130)" fill="white" fill-opacity="0.5"/>
<circle cx="10" cy="10" r="10" transform="matrix(1 0 0 -1 1449 130)" fill="white" fill-opacity="0.5"/>
<circle cx="10" cy="10" r="10" transform="matrix(1 0 0 -1 1501 130)" fill="white" fill-opacity="0.5"/>
<circle cx="10" cy="10" r="10" transform="matrix(1 0 0 -1 1553 130)" fill="white" fill-opacity="0.5"/>
<circle cx="10" cy="10" r="10" transform="matrix(1 0 0 -1 1605 130)" fill="white" fill-opacity="0.5"/>
<circle cx="10" cy="10" r="10" transform="matrix(1 0 0 -1 1657 130)" fill="white" fill-opacity="0.5"/>
<circle cx="10" cy="10" r="10" transform="matrix(1 0 0 -1 1709 130)" fill="white" fill-opacity="0.5"/>
<circle cx="10" cy="10" r="10" transform="matrix(1 0 0 -1 1761 130)" fill="white" fill-opacity="0.5"/>
<circle cx="10" cy="10" r="10" transform="matrix(1 0 0 -1 1813 130)" fill="white" fill-opacity="0.5"/>
<circle cx="10" cy="10" r="10" transform="matrix(1 0 0 -1 1865 130)" fill="white" fill-opacity="0.5"/>
<circle cx="10" cy="10" r="10" transform="matrix(1 0 0 -1 1917 130)" fill="white" fill-opacity="0.5"/>
<circle cx="10" cy="10" r="10" transform="matrix(1 0 0 -1 1969 130)" fill="white" fill-opacity="0.5"/>
<circle cx="10" cy="10" r="10" transform="matrix(1 0 0 -1 2021 130)" fill="white" fill-opacity="0.5"/>
<circle cx="10" cy="10" r="10" transform="matrix(1 0 0 -1 2073 130)" fill="white" fill-opacity="0.5"/>
<circle cx="10" cy="10" r="10" transform="matrix(1 0 0 -1 2125 130)" fill="white" fill-opacity="0.5"/>
<circle cx="10" cy="10" r="10" transform="matrix(1 0 0 -1 2177 130)" fill="white" fill-opacity="0.5"/>
<circle cx="10" cy="10" r="10" transform="matrix(1 0 0 -1 2229 130)" fill="white" fill-opacity="0.5"/>
<circle cx="10" cy="10" r="10" transform="matrix(1 0 0 -1 2281 130)" fill="white" fill-opacity="0.5"/>
<circle cx="10" cy="10" r="10" transform="matrix(1 0 0 -1 1397 52)" fill="white" fill-opacity="0.5"/>
<circle cx="10" cy="10" r="10" transform="matrix(1 0 0 -1 1449 52)" fill="white" fill-opacity="0.5"/>
<circle cx="10" cy="10" r="10" transform="matrix(1 0 0 -1 1501 52)" fill="white" fill-opacity="0.5"/>
<circle cx="10" cy="10" r="10" transform="matrix(1 0 0 -1 1553 52)" fill="white" fill-opacity="0.5"/>
<circle cx="10" cy="10" r="10" transform="matrix(1 0 0 -1 1605 52)" fill="white" fill-opacity="0.5"/>
<circle cx="10" cy="10" r="10" transform="matrix(1 0 0 -1 1657 52)" fill="white" fill-opacity="0.5"/>
<circle cx="10" cy="10" r="10" transform="matrix(1 0 0 -1 1709 52)" fill="white" fill-opacity="0.5"/>
<circle cx="10" cy="10" r="10" transform="matrix(1 0 0 -1 1761 52)" fill="white" fill-opacity="0.5"/>
<circle cx="10" cy="10" r="10" transform="matrix(1 0 0 -1 1813 52)" fill="white" fill-opacity="0.5"/>
<circle cx="10" cy="10" r="10" transform="matrix(1 0 0 -1 1865 52)" fill="white" fill-opacity="0.5"/>
<circle cx="10" cy="10" r="10" transform="matrix(1 0 0 -1 1917 52)" fill="white" fill-opacity="0.5"/>
<circle cx="10" cy="10" r="10" transform="matrix(1 0 0 -1 1969 52)" fill="white" fill-opacity="0.5"/>
<circle cx="10" cy="10" r="10" transform="matrix(1 0 0 -1 2021 52)" fill="white" fill-opacity="0.5"/>
<circle cx="10" cy="10" r="10" transform="matrix(1 0 0 -1 2073 52)" fill="white" fill-opacity="0.5"/>
<circle cx="10" cy="10" r="10" transform="matrix(1 0 0 -1 2125 52)" fill="white" fill-opacity="0.5"/>
<circle cx="10" cy="10" r="10" transform="matrix(1 0 0 -1 2177 52)" fill="white" fill-opacity="0.5"/>
<circle cx="10" cy="10" r="10" transform="matrix(1 0 0 -1 2229 52)" fill="white" fill-opacity="0.5"/>
<circle cx="10" cy="10" r="10" transform="matrix(1 0 0 -1 2281 52)" fill="white" fill-opacity="0.5"/>
<circle cx="10" cy="10" r="10" transform="matrix(0 1 1 0 3907 759)" fill="white" fill-opacity="0.5"/>
<circle cx="10" cy="10" r="10" transform="matrix(0 1 1 0 3907 811)" fill="white" fill-opacity="0.5"/>
<circle cx="10" cy="10" r="10" transform="matrix(0 1 1 0 3907 863)" fill="white" fill-opacity="0.5"/>
<circle cx="10" cy="10" r="10" transform="matrix(0 1 1 0 3907 915)" fill="white" fill-opacity="0.5"/>
<circle cx="10" cy="10" r="10" transform="matrix(0 1 1 0 3907 967)" fill="white" fill-opacity="0.5"/>
<circle cx="10" cy="10" r="10" transform="matrix(0 1 1 0 3907 1071)" fill="white" fill-opacity="0.5"/>
<circle cx="10" cy="10" r="10" transform="matrix(0 1 1 0 3907 1019)" fill="white" fill-opacity="0.5"/>
<circle cx="10" cy="10" r="10" transform="matrix(0 1 1 0 3907 1123)" fill="white" fill-opacity="0.5"/>
<circle cx="10" cy="10" r="10" transform="matrix(0 1 1 0 3907 1175)" fill="white" fill-opacity="0.5"/>
<circle cx="10" cy="10" r="10" transform="matrix(0 1 1 0 3907 1227)" fill="white" fill-opacity="0.5"/>
<circle cx="10" cy="10" r="10" transform="matrix(0 1 1 0 3907 1279)" fill="white" fill-opacity="0.5"/>
<circle cx="10" cy="10" r="10" transform="matrix(0 1 1 0 3907 1331)" fill="white" fill-opacity="0.5"/>
<circle cx="10" cy="10" r="10" transform="matrix(0 1 1 0 3907 1383)" fill="white" fill-opacity="0.5"/>
<circle cx="10" cy="10" r="10" transform="matrix(0 1 1 0 3907 1435)" fill="white" fill-opacity="0.5"/>
<circle cx="10" cy="10" r="10" transform="matrix(0 1 1 0 3907 1487)" fill="white" fill-opacity="0.5"/>
<circle cx="10" cy="10" r="10" transform="matrix(0 1 1 0 3907 1539)" fill="white" fill-opacity="0.5"/>
<circle cx="10" cy="10" r="10" transform="matrix(0 1 1 0 3907 1591)" fill="white" fill-opacity="0.5"/>
<circle cx="10" cy="10" r="10" transform="matrix(0 1 1 0 3907 1643)" fill="white" fill-opacity="0.5"/>
<circle cx="10" cy="10" r="10" transform="matrix(0 1 1 0 3949 759)" fill="white" fill-opacity="0.5"/>
<circle cx="10" cy="10" r="10" transform="matrix(0 1 1 0 3949 811)" fill="white" fill-opacity="0.5"/>
<circle cx="10" cy="10" r="10" transform="matrix(0 1 1 0 3949 863)" fill="white" fill-opacity="0.5"/>
<circle cx="10" cy="10" r="10" transform="matrix(0 1 1 0 3949 915)" fill="white" fill-opacity="0.5"/>
<circle cx="10" cy="10" r="10" transform="matrix(0 1 1 0 3949 967)" fill="white" fill-opacity="0.5"/>
<circle cx="10" cy="10" r="10" transform="matrix(0 1 1 0 3949 1019)" fill="white" fill-opacity="0.5"/>
<circle cx="10" cy="10" r="10" transform="matrix(0 1 1 0 3949 1071)" fill="white" fill-opacity="0.5"/>
<circle cx="10" cy="10" r="10" transform="matrix(0 1 1 0 3949 1123)" fill="white" fill-opacity="0.5"/>
<circle cx="10" cy="10" r="10" transform="matrix(0 1 1 0 3949 1175)" fill="white" fill-opacity="0.5"/>
<circle cx="10" cy="10" r="10" transform="matrix(0 1 1 0 3949 1227)" fill="white" fill-opacity="0.5"/>
<circle cx="10" cy="10" r="10" transform="matrix(0 1 1 0 3949 1279)" fill="white" fill-opacity="0.5"/>
<circle cx="10" cy="10" r="10" transform="matrix(0 1 1 0 3949 1331)" fill="white" fill-opacity="0.5"/>
<circle cx="10" cy="10" r="10" transform="matrix(0 1 1 0 3949 1383)" fill="white" fill-opacity="0.5"/>
<circle cx="10" cy="10" r="10" transform="matrix(0 1 1 0 3949 1435)" fill="white" fill-opacity="0.5"/>
<circle cx="10" cy="10" r="10" transform="matrix(0 1 1 0 3949 1487)" fill="white" fill-opacity="0.5"/>
<circle cx="10" cy="10" r="10" transform="matrix(0 1 1 0 3949 1539)" fill="white" fill-opacity="0.5"/>
<circle cx="10" cy="10" r="10" transform="matrix(0 1 1 0 3949 1591)" fill="white" fill-opacity="0.5"/>
<circle cx="10" cy="10" r="10" transform="matrix(0 1 1 0 3949 1643)" fill="white" fill-opacity="0.5"/>
<circle cx="10" cy="10" r="10" transform="matrix(0 1 1 0 3991 759)" fill="white" fill-opacity="0.5"/>
<circle cx="10" cy="10" r="10" transform="matrix(0 1 1 0 3991 811)" fill="white" fill-opacity="0.5"/>
<circle cx="10" cy="10" r="10" transform="matrix(0 1 1 0 3991 863)" fill="white" fill-opacity="0.5"/>
<circle cx="10" cy="10" r="10" transform="matrix(0 1 1 0 3991 915)" fill="white" fill-opacity="0.5"/>
<circle cx="10" cy="10" r="10" transform="matrix(0 1 1 0 3991 967)" fill="white" fill-opacity="0.5"/>
<circle cx="10" cy="10" r="10" transform="matrix(0 1 1 0 3991 1019)" fill="white" fill-opacity="0.5"/>
<circle cx="10" cy="10" r="10" transform="matrix(0 1 1 0 3991 1071)" fill="white" fill-opacity="0.5"/>
<circle cx="10" cy="10" r="10" transform="matrix(0 1 1 0 3991 1123)" fill="white" fill-opacity="0.5"/>
<circle cx="10" cy="10" r="10" transform="matrix(0 1 1 0 3991 1175)" fill="white" fill-opacity="0.5"/>
<circle cx="10" cy="10" r="10" transform="matrix(0 1 1 0 3991 1227)" fill="white" fill-opacity="0.5"/>
<circle cx="10" cy="10" r="10" transform="matrix(0 1 1 0 3991 1279)" fill="white" fill-opacity="0.5"/>
<circle cx="10" cy="10" r="10" transform="matrix(0 1 1 0 3991 1331)" fill="white" fill-opacity="0.5"/>
<circle cx="10" cy="10" r="10" transform="matrix(0 1 1 0 3991 1383)" fill="white" fill-opacity="0.5"/>
<circle cx="10" cy="10" r="10" transform="matrix(0 1 1 0 3991 1435)" fill="white" fill-opacity="0.5"/>
<circle cx="10" cy="10" r="10" transform="matrix(0 1 1 0 3991 1487)" fill="white" fill-opacity="0.5"/>
<circle cx="10" cy="10" r="10" transform="matrix(0 1 1 0 3991 1539)" fill="white" fill-opacity="0.5"/>
<circle cx="10" cy="10" r="10" transform="matrix(0 1 1 0 3991 1591)" fill="white" fill-opacity="0.5"/>
<circle cx="10" cy="10" r="10" transform="matrix(0 1 1 0 3991 1643)" fill="white" fill-opacity="0.5"/>
<circle cx="10" cy="10" r="10" transform="matrix(1 0 0 -1 281 2663)" fill="white" fill-opacity="0.5"/>
<circle cx="10" cy="10" r="10" transform="matrix(1 0 0 -1 333 2663)" fill="white" fill-opacity="0.5"/>
<circle cx="10" cy="10" r="10" transform="matrix(1 0 0 -1 385 2663)" fill="white" fill-opacity="0.5"/>
<circle cx="10" cy="10" r="10" transform="matrix(1 0 0 -1 437 2663)" fill="white" fill-opacity="0.5"/>
<circle cx="10" cy="10" r="10" transform="matrix(1 0 0 -1 489 2663)" fill="white" fill-opacity="0.5"/>
<circle cx="10" cy="10" r="10" transform="matrix(1 0 0 -1 541 2663)" fill="white" fill-opacity="0.5"/>
<circle cx="10" cy="10" r="10" transform="matrix(1 0 0 -1 593 2663)" fill="white" fill-opacity="0.5"/>
<circle cx="10" cy="10" r="10" transform="matrix(1 0 0 -1 645 2663)" fill="white" fill-opacity="0.5"/>
<circle cx="10" cy="10" r="10" transform="matrix(1 0 0 -1 697 2663)" fill="white" fill-opacity="0.5"/>
<circle cx="10" cy="10" r="10" transform="matrix(1 0 0 -1 749 2663)" fill="white" fill-opacity="0.5"/>
<circle cx="10" cy="10" r="10" transform="matrix(1 0 0 -1 801 2663)" fill="white" fill-opacity="0.5"/>
<circle cx="10" cy="10" r="10" transform="matrix(1 0 0 -1 853 2663)" fill="white" fill-opacity="0.5"/>
<circle cx="10" cy="10" r="10" transform="matrix(1 0 0 -1 905 2663)" fill="white" fill-opacity="0.5"/>
<circle cx="10" cy="10" r="10" transform="matrix(1 0 0 -1 957 2663)" fill="white" fill-opacity="0.5"/>
<circle cx="10" cy="10" r="10" transform="matrix(1 0 0 -1 1009 2663)" fill="white" fill-opacity="0.5"/>
<circle cx="10" cy="10" r="10" transform="matrix(1 0 0 -1 1061 2663)" fill="white" fill-opacity="0.5"/>
<circle cx="10" cy="10" r="10" transform="matrix(1 0 0 -1 1113 2663)" fill="white" fill-opacity="0.5"/>
<circle cx="10" cy="10" r="10" transform="matrix(1 0 0 -1 1165 2663)" fill="white" fill-opacity="0.5"/>
<circle cx="10" cy="10" r="10" transform="matrix(1 0 0 -1 281 2598)" fill="white" fill-opacity="0.5"/>
<circle cx="10" cy="10" r="10" transform="matrix(1 0 0 -1 333 2598)" fill="white" fill-opacity="0.5"/>
<circle cx="10" cy="10" r="10" transform="matrix(1 0 0 -1 385 2598)" fill="white" fill-opacity="0.5"/>
<circle cx="10" cy="10" r="10" transform="matrix(1 0 0 -1 437 2598)" fill="white" fill-opacity="0.5"/>
<circle cx="10" cy="10" r="10" transform="matrix(1 0 0 -1 489 2598)" fill="white" fill-opacity="0.5"/>
<circle cx="10" cy="10" r="10" transform="matrix(1 0 0 -1 541 2598)" fill="white" fill-opacity="0.5"/>
<circle cx="10" cy="10" r="10" transform="matrix(1 0 0 -1 593 2598)" fill="white" fill-opacity="0.5"/>
<circle cx="10" cy="10" r="10" transform="matrix(1 0 0 -1 645 2598)" fill="white" fill-opacity="0.5"/>
<circle cx="10" cy="10" r="10" transform="matrix(1 0 0 -1 697 2598)" fill="white" fill-opacity="0.5"/>
<circle cx="10" cy="10" r="10" transform="matrix(1 0 0 -1 749 2598)" fill="white" fill-opacity="0.5"/>
<circle cx="10" cy="10" r="10" transform="matrix(1 0 0 -1 801 2598)" fill="white" fill-opacity="0.5"/>
<circle cx="10" cy="10" r="10" transform="matrix(1 0 0 -1 853 2598)" fill="white" fill-opacity="0.5"/>
<circle cx="10" cy="10" r="10" transform="matrix(1 0 0 -1 905 2598)" fill="white" fill-opacity="0.5"/>
<circle cx="10" cy="10" r="10" transform="matrix(1 0 0 -1 957 2598)" fill="white" fill-opacity="0.5"/>
<circle cx="10" cy="10" r="10" transform="matrix(1 0 0 -1 1009 2598)" fill="white" fill-opacity="0.5"/>
<circle cx="10" cy="10" r="10" transform="matrix(1 0 0 -1 1061 2598)" fill="white" fill-opacity="0.5"/>
<circle cx="10" cy="10" r="10" transform="matrix(1 0 0 -1 1113 2598)" fill="white" fill-opacity="0.5"/>
<circle cx="10" cy="10" r="10" transform="matrix(1 0 0 -1 1165 2598)" fill="white" fill-opacity="0.5"/>
<circle cx="10" cy="10" r="10" transform="matrix(1 0 0 -1 281 2533)" fill="white" fill-opacity="0.5"/>
<circle cx="10" cy="10" r="10" transform="matrix(1 0 0 -1 333 2533)" fill="white" fill-opacity="0.5"/>
<circle cx="10" cy="10" r="10" transform="matrix(1 0 0 -1 385 2533)" fill="white" fill-opacity="0.5"/>
<circle cx="10" cy="10" r="10" transform="matrix(1 0 0 -1 437 2533)" fill="white" fill-opacity="0.5"/>
<circle cx="10" cy="10" r="10" transform="matrix(1 0 0 -1 489 2533)" fill="white" fill-opacity="0.5"/>
<circle cx="10" cy="10" r="10" transform="matrix(1 0 0 -1 541 2533)" fill="white" fill-opacity="0.5"/>
<circle cx="10" cy="10" r="10" transform="matrix(1 0 0 -1 593 2533)" fill="white" fill-opacity="0.5"/>
<circle cx="10" cy="10" r="10" transform="matrix(1 0 0 -1 645 2533)" fill="white" fill-opacity="0.5"/>
<circle cx="10" cy="10" r="10" transform="matrix(1 0 0 -1 697 2533)" fill="white" fill-opacity="0.5"/>
<circle cx="10" cy="10" r="10" transform="matrix(1 0 0 -1 749 2533)" fill="white" fill-opacity="0.5"/>
<circle cx="10" cy="10" r="10" transform="matrix(1 0 0 -1 801 2533)" fill="white" fill-opacity="0.5"/>
<circle cx="10" cy="10" r="10" transform="matrix(1 0 0 -1 853 2533)" fill="white" fill-opacity="0.5"/>
<circle cx="10" cy="10" r="10" transform="matrix(1 0 0 -1 905 2533)" fill="white" fill-opacity="0.5"/>
<circle cx="10" cy="10" r="10" transform="matrix(1 0 0 -1 957 2533)" fill="white" fill-opacity="0.5"/>
<circle cx="10" cy="10" r="10" transform="matrix(1 0 0 -1 1009 2533)" fill="white" fill-opacity="0.5"/>
<circle cx="10" cy="10" r="10" transform="matrix(1 0 0 -1 1061 2533)" fill="white" fill-opacity="0.5"/>
<circle cx="10" cy="10" r="10" transform="matrix(1 0 0 -1 1113 2533)" fill="white" fill-opacity="0.5"/>
<circle cx="10" cy="10" r="10" transform="matrix(1 0 0 -1 1165 2533)" fill="white" fill-opacity="0.5"/>
<circle cx="13" cy="13" r="13" transform="matrix(0.994576 0.104011 0.104011 -0.994576 347.371 276.939)" fill="white" fill-opacity="0.5"/>
<circle cx="13" cy="13" r="13" transform="matrix(0.994576 0.104011 0.104011 -0.994576 425.943 285.156)" fill="white" fill-opacity="0.5"/>
<circle cx="13" cy="13" r="13" transform="matrix(0.994576 0.104011 0.104011 -0.994576 505.867 280.443)" fill="white" fill-opacity="0.5"/>
<circle cx="13" cy="13" r="13" transform="matrix(0.994576 0.104011 0.104011 -0.994576 585.791 275.73)" fill="white" fill-opacity="0.5"/>
<circle cx="13" cy="13" r="13" transform="matrix(0.994576 0.104011 0.104011 -0.994576 668.418 245.159)" fill="white" fill-opacity="0.5"/>
<circle cx="13" cy="13" r="13" transform="matrix(0.994576 0.104011 0.104011 -0.994576 740.521 209.465)" fill="white" fill-opacity="0.5"/>
<circle cx="13" cy="13" r="13" transform="matrix(0.994576 0.104011 0.104011 -0.994576 799.533 164.358)" fill="white" fill-opacity="0.5"/>
<circle cx="13" cy="13" r="13" transform="matrix(0.994576 0.104011 0.104011 -0.994576 847.338 111.041)" fill="white" fill-opacity="0.5"/>
<circle cx="13" cy="13" r="13" transform="matrix(0.994576 0.104011 0.104011 -0.994576 899.271 47.0967)" fill="white" fill-opacity="0.5"/>
<circle cx="13" cy="13" r="13" transform="matrix(0.994576 0.104011 0.104011 -0.994576 3419.77 2650.22)" fill="white" fill-opacity="0.5"/>
<circle cx="13" cy="13" r="13" transform="matrix(0.994576 0.104011 0.104011 -0.994576 3420.71 2573.91)" fill="white" fill-opacity="0.5"/>
<circle cx="13" cy="13" r="13" transform="matrix(0.994576 0.104011 0.104011 -0.994576 3415.89 2494.98)" fill="white" fill-opacity="0.5"/>
<circle cx="13" cy="13" r="13" transform="matrix(0.994576 0.104011 0.104011 -0.994576 3397.01 2425.64)" fill="white" fill-opacity="0.5"/>
<circle cx="13" cy="13" r="13" transform="matrix(0.994576 0.104011 0.104011 -0.994576 3365.08 2355.94)" fill="white" fill-opacity="0.5"/>
<circle cx="13" cy="13" r="13" transform="matrix(0.994576 0.104011 0.104011 -0.994576 3329.45 2292.89)" fill="white" fill-opacity="0.5"/>
<circle cx="13" cy="13" r="13" transform="matrix(0.994576 0.104011 0.104011 -0.994576 3282.51 2241.73)" fill="white" fill-opacity="0.5"/>
<circle cx="13" cy="13" r="13" transform="matrix(0.994576 0.104011 0.104011 -0.994576 3234.11 2185.39)" fill="white" fill-opacity="0.5"/>
<circle cx="13" cy="13" r="13" transform="matrix(0.994576 0.104011 0.104011 -0.994576 3170.54 2139.53)" fill="white" fill-opacity="0.5"/>
<circle cx="13" cy="13" r="13" transform="matrix(0.994576 0.104011 0.104011 -0.994576 3104.61 2106.5)" fill="white" fill-opacity="0.5"/>
<circle cx="13" cy="13" r="13" transform="matrix(0.994576 0.104011 0.104011 -0.994576 3034.98 2080.11)" fill="white" fill-opacity="0.5"/>
<circle cx="13" cy="13" r="13" transform="matrix(0.994576 0.104011 0.104011 -0.994576 2966.09 2065.87)" fill="white" fill-opacity="0.5"/>
<circle cx="13" cy="13" r="13" transform="matrix(0.994576 0.104011 0.104011 -0.994576 2872.86 2063.16)" fill="white" fill-opacity="0.5"/>
<circle cx="13" cy="13" r="13" transform="matrix(0.994576 0.104011 0.104011 -0.994576 2781.38 2072.69)" fill="white" fill-opacity="0.5"/>
<circle cx="13" cy="13" r="13" transform="matrix(0.994576 0.104011 0.104011 -0.994576 2690.79 2102.43)" fill="white" fill-opacity="0.5"/>
<circle cx="13" cy="13" r="13" transform="matrix(0.994576 0.104011 0.104011 -0.994576 2620.1 2134.25)" fill="white" fill-opacity="0.5"/>
<circle cx="13" cy="13" r="13" transform="matrix(0.994576 0.104011 0.104011 -0.994576 2553.13 2178.53)" fill="white" fill-opacity="0.5"/>
<circle cx="13" cy="13" r="13" transform="matrix(0.994576 0.104011 0.104011 -0.994576 2498.26 2232.11)" fill="white" fill-opacity="0.5"/>
<circle cx="13" cy="13" r="13" transform="matrix(0.994576 0.104011 0.104011 -0.994576 2457.31 2287.15)" fill="white" fill-opacity="0.5"/>
</g>
<defs>
<clipPath id="clip0_109_4">
<rect width="4022" height="2681" fill="white" transform="matrix(1 0 0 -1 0 2681)"/>
</clipPath>
</defs>
</svg>
