<svg width="179" height="187" viewBox="0 0 179 187" fill="none" xmlns="http://www.w3.org/2000/svg">
<path d="M59.5299 3H143.53V86M143.53 109V86M143.53 86H51.5299M123.53 65C91.5299 62.6 48.1965 64 30.5299 65M123.53 45H30.5299M123.53 22H59.5299M150.53 30C155.03 28.8333 164.03 29.5 164.03 41.5C164.03 53.5 164.03 95.5 164.03 115C164.03 119.333 162.43 127.9 156.03 127.5M156.03 127.5C149.63 127.1 112.03 127.333 94.0299 127.5C89.0299 127.167 79.7299 129.5 82.5299 141.5M156.03 127.5C154.363 130.333 152.33 137.4 157.53 143M157.53 143C160.5 146.199 166.03 148 166.03 148C177.5 149.5 182.5 183.5 157.53 183.5C132.56 183.5 25.5299 183.5 25.5299 183.5C17.6965 184 2.22987 180.2 3.02987 161V117.5C19.6965 117.333 56.1299 125.8 68.5299 161M157.53 143C147.03 143 121.83 143 105.03 143C88.2299 143 73.6965 155 68.5299 161M68.5299 161H146.03M68.5299 161H22.5299" stroke="#0029FF" stroke-width="6" stroke-linecap="round" stroke-linejoin="round"/>
</svg>
